%TF.GenerationSoftware,KiCad,Pcbnew,(6.0.6-0)*%
%TF.CreationDate,2022-11-02T10:03:17+00:00*%
%TF.ProjectId,atari-punk,61746172-692d-4707-956e-6b2e6b696361,r03*%
%TF.SameCoordinates,Original*%
%TF.FileFunction,Legend,Top*%
%TF.FilePolarity,Positive*%
%FSLAX46Y46*%
G04 Gerber Fmt 4.6, Leading zero omitted, Abs format (unit mm)*
G04 Created by KiCad (PCBNEW (6.0.6-0)) date 2022-11-02 10:03:17*
%MOMM*%
%LPD*%
G01*
G04 APERTURE LIST*
%ADD10C,0.200000*%
%ADD11C,0.735000*%
%ADD12C,0.150000*%
%ADD13C,0.300000*%
%ADD14C,0.120000*%
%ADD15C,1.000000*%
G04 APERTURE END LIST*
D10*
X101854000Y-60198000D02*
X100838000Y-60198000D01*
X97155000Y-60833000D02*
X97155000Y-59563000D01*
X98171000Y-60198000D02*
G75*
G03*
X98171000Y-60198000I-1016000J0D01*
G01*
X102235000Y-60198000D02*
X103505000Y-60198000D01*
X99822000Y-61214000D02*
G75*
G03*
X99822000Y-59182000I0J1016000D01*
G01*
D11*
X100189500Y-60198000D02*
G75*
G03*
X100189500Y-60198000I-367500J0D01*
G01*
D10*
X103886000Y-60198000D02*
G75*
G03*
X103886000Y-60198000I-1016000J0D01*
G01*
X96520000Y-60198000D02*
X97790000Y-60198000D01*
X99187000Y-60198000D02*
X98171000Y-60198000D01*
D12*
X122467809Y-36425142D02*
X122420190Y-36472761D01*
X122277333Y-36520380D01*
X122182095Y-36520380D01*
X122039238Y-36472761D01*
X121944000Y-36377523D01*
X121896380Y-36282285D01*
X121848761Y-36091809D01*
X121848761Y-35948952D01*
X121896380Y-35758476D01*
X121944000Y-35663238D01*
X122039238Y-35568000D01*
X122182095Y-35520380D01*
X122277333Y-35520380D01*
X122420190Y-35568000D01*
X122467809Y-35615619D01*
X122753523Y-35520380D02*
X123086857Y-36520380D01*
X123420190Y-35520380D01*
X125039238Y-36520380D02*
X124467809Y-36520380D01*
X124753523Y-36520380D02*
X124753523Y-35520380D01*
X124658285Y-35663238D01*
X124563047Y-35758476D01*
X124467809Y-35806095D01*
D13*
X154460571Y-82227500D02*
X155174857Y-82227500D01*
X154317714Y-82656071D02*
X154817714Y-81156071D01*
X155317714Y-82656071D01*
X155603428Y-81156071D02*
X156460571Y-81156071D01*
X156032000Y-82656071D02*
X156032000Y-81156071D01*
X156889142Y-82227500D02*
X157603428Y-82227500D01*
X156746285Y-82656071D02*
X157246285Y-81156071D01*
X157746285Y-82656071D01*
X159103428Y-82656071D02*
X158603428Y-81941785D01*
X158246285Y-82656071D02*
X158246285Y-81156071D01*
X158817714Y-81156071D01*
X158960571Y-81227500D01*
X159032000Y-81298928D01*
X159103428Y-81441785D01*
X159103428Y-81656071D01*
X159032000Y-81798928D01*
X158960571Y-81870357D01*
X158817714Y-81941785D01*
X158246285Y-81941785D01*
X159746285Y-82656071D02*
X159746285Y-81156071D01*
X161603428Y-82656071D02*
X161603428Y-81156071D01*
X162174857Y-81156071D01*
X162317714Y-81227500D01*
X162389142Y-81298928D01*
X162460571Y-81441785D01*
X162460571Y-81656071D01*
X162389142Y-81798928D01*
X162317714Y-81870357D01*
X162174857Y-81941785D01*
X161603428Y-81941785D01*
X163103428Y-81156071D02*
X163103428Y-82370357D01*
X163174857Y-82513214D01*
X163246285Y-82584642D01*
X163389142Y-82656071D01*
X163674857Y-82656071D01*
X163817714Y-82584642D01*
X163889142Y-82513214D01*
X163960571Y-82370357D01*
X163960571Y-81156071D01*
X164674857Y-82656071D02*
X164674857Y-81156071D01*
X165532000Y-82656071D01*
X165532000Y-81156071D01*
X166246285Y-82656071D02*
X166246285Y-81156071D01*
X167103428Y-82656071D02*
X166460571Y-81798928D01*
X167103428Y-81156071D02*
X166246285Y-82013214D01*
X156889142Y-84928214D02*
X156817714Y-84999642D01*
X156603428Y-85071071D01*
X156460571Y-85071071D01*
X156246285Y-84999642D01*
X156103428Y-84856785D01*
X156032000Y-84713928D01*
X155960571Y-84428214D01*
X155960571Y-84213928D01*
X156032000Y-83928214D01*
X156103428Y-83785357D01*
X156246285Y-83642500D01*
X156460571Y-83571071D01*
X156603428Y-83571071D01*
X156817714Y-83642500D01*
X156889142Y-83713928D01*
X157817714Y-83571071D02*
X158103428Y-83571071D01*
X158246285Y-83642500D01*
X158389142Y-83785357D01*
X158460571Y-84071071D01*
X158460571Y-84571071D01*
X158389142Y-84856785D01*
X158246285Y-84999642D01*
X158103428Y-85071071D01*
X157817714Y-85071071D01*
X157674857Y-84999642D01*
X157532000Y-84856785D01*
X157460571Y-84571071D01*
X157460571Y-84071071D01*
X157532000Y-83785357D01*
X157674857Y-83642500D01*
X157817714Y-83571071D01*
X159103428Y-85071071D02*
X159103428Y-83571071D01*
X159960571Y-85071071D01*
X159960571Y-83571071D01*
X160603428Y-84999642D02*
X160817714Y-85071071D01*
X161174857Y-85071071D01*
X161317714Y-84999642D01*
X161389142Y-84928214D01*
X161460571Y-84785357D01*
X161460571Y-84642500D01*
X161389142Y-84499642D01*
X161317714Y-84428214D01*
X161174857Y-84356785D01*
X160889142Y-84285357D01*
X160746285Y-84213928D01*
X160674857Y-84142500D01*
X160603428Y-83999642D01*
X160603428Y-83856785D01*
X160674857Y-83713928D01*
X160746285Y-83642500D01*
X160889142Y-83571071D01*
X161246285Y-83571071D01*
X161460571Y-83642500D01*
X162389142Y-83571071D02*
X162674857Y-83571071D01*
X162817714Y-83642500D01*
X162960571Y-83785357D01*
X163032000Y-84071071D01*
X163032000Y-84571071D01*
X162960571Y-84856785D01*
X162817714Y-84999642D01*
X162674857Y-85071071D01*
X162389142Y-85071071D01*
X162246285Y-84999642D01*
X162103428Y-84856785D01*
X162032000Y-84571071D01*
X162032000Y-84071071D01*
X162103428Y-83785357D01*
X162246285Y-83642500D01*
X162389142Y-83571071D01*
X164389142Y-85071071D02*
X163674857Y-85071071D01*
X163674857Y-83571071D01*
X164889142Y-84285357D02*
X165389142Y-84285357D01*
X165603428Y-85071071D02*
X164889142Y-85071071D01*
X164889142Y-83571071D01*
X165603428Y-83571071D01*
D12*
X139668523Y-69397571D02*
X139335190Y-69397571D01*
X139335190Y-69921380D02*
X139335190Y-68921380D01*
X139811380Y-68921380D01*
X140763761Y-69921380D02*
X140430428Y-69445190D01*
X140192333Y-69921380D02*
X140192333Y-68921380D01*
X140573285Y-68921380D01*
X140668523Y-68969000D01*
X140716142Y-69016619D01*
X140763761Y-69111857D01*
X140763761Y-69254714D01*
X140716142Y-69349952D01*
X140668523Y-69397571D01*
X140573285Y-69445190D01*
X140192333Y-69445190D01*
X141192333Y-69397571D02*
X141525666Y-69397571D01*
X141668523Y-69921380D02*
X141192333Y-69921380D01*
X141192333Y-68921380D01*
X141668523Y-68921380D01*
X142763761Y-70016619D02*
X142668523Y-69969000D01*
X142573285Y-69873761D01*
X142430428Y-69730904D01*
X142335190Y-69683285D01*
X142239952Y-69683285D01*
X142287571Y-69921380D02*
X142192333Y-69873761D01*
X142097095Y-69778523D01*
X142049476Y-69588047D01*
X142049476Y-69254714D01*
X142097095Y-69064238D01*
X142192333Y-68969000D01*
X142287571Y-68921380D01*
X142478047Y-68921380D01*
X142573285Y-68969000D01*
X142668523Y-69064238D01*
X142716142Y-69254714D01*
X142716142Y-69588047D01*
X142668523Y-69778523D01*
X142573285Y-69873761D01*
X142478047Y-69921380D01*
X142287571Y-69921380D01*
X143859000Y-69016619D02*
X143906619Y-68969000D01*
X144001857Y-68921380D01*
X144239952Y-68921380D01*
X144335190Y-68969000D01*
X144382809Y-69016619D01*
X144430428Y-69111857D01*
X144430428Y-69207095D01*
X144382809Y-69349952D01*
X143811380Y-69921380D01*
X144430428Y-69921380D01*
X141263809Y-36425142D02*
X141216190Y-36472761D01*
X141073333Y-36520380D01*
X140978095Y-36520380D01*
X140835238Y-36472761D01*
X140740000Y-36377523D01*
X140692380Y-36282285D01*
X140644761Y-36091809D01*
X140644761Y-35948952D01*
X140692380Y-35758476D01*
X140740000Y-35663238D01*
X140835238Y-35568000D01*
X140978095Y-35520380D01*
X141073333Y-35520380D01*
X141216190Y-35568000D01*
X141263809Y-35615619D01*
X141549523Y-35520380D02*
X141882857Y-36520380D01*
X142216190Y-35520380D01*
X143263809Y-35615619D02*
X143311428Y-35568000D01*
X143406666Y-35520380D01*
X143644761Y-35520380D01*
X143740000Y-35568000D01*
X143787619Y-35615619D01*
X143835238Y-35710857D01*
X143835238Y-35806095D01*
X143787619Y-35948952D01*
X143216190Y-36520380D01*
X143835238Y-36520380D01*
X120110523Y-69397571D02*
X119777190Y-69397571D01*
X119777190Y-69921380D02*
X119777190Y-68921380D01*
X120253380Y-68921380D01*
X121205761Y-69921380D02*
X120872428Y-69445190D01*
X120634333Y-69921380D02*
X120634333Y-68921380D01*
X121015285Y-68921380D01*
X121110523Y-68969000D01*
X121158142Y-69016619D01*
X121205761Y-69111857D01*
X121205761Y-69254714D01*
X121158142Y-69349952D01*
X121110523Y-69397571D01*
X121015285Y-69445190D01*
X120634333Y-69445190D01*
X121634333Y-69397571D02*
X121967666Y-69397571D01*
X122110523Y-69921380D02*
X121634333Y-69921380D01*
X121634333Y-68921380D01*
X122110523Y-68921380D01*
X123205761Y-70016619D02*
X123110523Y-69969000D01*
X123015285Y-69873761D01*
X122872428Y-69730904D01*
X122777190Y-69683285D01*
X122681952Y-69683285D01*
X122729571Y-69921380D02*
X122634333Y-69873761D01*
X122539095Y-69778523D01*
X122491476Y-69588047D01*
X122491476Y-69254714D01*
X122539095Y-69064238D01*
X122634333Y-68969000D01*
X122729571Y-68921380D01*
X122920047Y-68921380D01*
X123015285Y-68969000D01*
X123110523Y-69064238D01*
X123158142Y-69254714D01*
X123158142Y-69588047D01*
X123110523Y-69778523D01*
X123015285Y-69873761D01*
X122920047Y-69921380D01*
X122729571Y-69921380D01*
X124872428Y-69921380D02*
X124301000Y-69921380D01*
X124586714Y-69921380D02*
X124586714Y-68921380D01*
X124491476Y-69064238D01*
X124396238Y-69159476D01*
X124301000Y-69207095D01*
X158607476Y-68921380D02*
X158940809Y-69921380D01*
X159274142Y-68921380D01*
X159797952Y-68921380D02*
X159988428Y-68921380D01*
X160083666Y-68969000D01*
X160178904Y-69064238D01*
X160226523Y-69254714D01*
X160226523Y-69588047D01*
X160178904Y-69778523D01*
X160083666Y-69873761D01*
X159988428Y-69921380D01*
X159797952Y-69921380D01*
X159702714Y-69873761D01*
X159607476Y-69778523D01*
X159559857Y-69588047D01*
X159559857Y-69254714D01*
X159607476Y-69064238D01*
X159702714Y-68969000D01*
X159797952Y-68921380D01*
X161131285Y-69921380D02*
X160655095Y-69921380D01*
X160655095Y-68921380D01*
X161464619Y-68921380D02*
X161464619Y-69730904D01*
X161512238Y-69826142D01*
X161559857Y-69873761D01*
X161655095Y-69921380D01*
X161845571Y-69921380D01*
X161940809Y-69873761D01*
X161988428Y-69826142D01*
X162036047Y-69730904D01*
X162036047Y-68921380D01*
X162512238Y-69921380D02*
X162512238Y-68921380D01*
X162845571Y-69635666D01*
X163178904Y-68921380D01*
X163178904Y-69921380D01*
X163655095Y-69397571D02*
X163988428Y-69397571D01*
X164131285Y-69921380D02*
X163655095Y-69921380D01*
X163655095Y-68921380D01*
X164131285Y-68921380D01*
X161052000Y-35520380D02*
X161242476Y-35520380D01*
X161337714Y-35568000D01*
X161432952Y-35663238D01*
X161480571Y-35853714D01*
X161480571Y-36187047D01*
X161432952Y-36377523D01*
X161337714Y-36472761D01*
X161242476Y-36520380D01*
X161052000Y-36520380D01*
X160956761Y-36472761D01*
X160861523Y-36377523D01*
X160813904Y-36187047D01*
X160813904Y-35853714D01*
X160861523Y-35663238D01*
X160956761Y-35568000D01*
X161052000Y-35520380D01*
X161909142Y-35520380D02*
X161909142Y-36329904D01*
X161956761Y-36425142D01*
X162004380Y-36472761D01*
X162099619Y-36520380D01*
X162290095Y-36520380D01*
X162385333Y-36472761D01*
X162432952Y-36425142D01*
X162480571Y-36329904D01*
X162480571Y-35520380D01*
X162813904Y-35520380D02*
X163385333Y-35520380D01*
X163099619Y-36520380D02*
X163099619Y-35520380D01*
X157047619Y-86728571D02*
X157190476Y-86776190D01*
X157238095Y-86823809D01*
X157285714Y-86919047D01*
X157285714Y-87061904D01*
X157238095Y-87157142D01*
X157190476Y-87204761D01*
X157095238Y-87252380D01*
X156714285Y-87252380D01*
X156714285Y-86252380D01*
X157047619Y-86252380D01*
X157142857Y-86300000D01*
X157190476Y-86347619D01*
X157238095Y-86442857D01*
X157238095Y-86538095D01*
X157190476Y-86633333D01*
X157142857Y-86680952D01*
X157047619Y-86728571D01*
X156714285Y-86728571D01*
X158285714Y-87157142D02*
X158238095Y-87204761D01*
X158095238Y-87252380D01*
X158000000Y-87252380D01*
X157857142Y-87204761D01*
X157761904Y-87109523D01*
X157714285Y-87014285D01*
X157666666Y-86823809D01*
X157666666Y-86680952D01*
X157714285Y-86490476D01*
X157761904Y-86395238D01*
X157857142Y-86300000D01*
X158000000Y-86252380D01*
X158095238Y-86252380D01*
X158238095Y-86300000D01*
X158285714Y-86347619D01*
X158714285Y-87252380D02*
X158714285Y-86252380D01*
X159047619Y-86966666D01*
X159380952Y-86252380D01*
X159380952Y-87252380D01*
X160619047Y-87252380D02*
X160619047Y-86585714D01*
X160619047Y-86776190D02*
X160666666Y-86680952D01*
X160714285Y-86633333D01*
X160809523Y-86585714D01*
X160904761Y-86585714D01*
X161619047Y-87204761D02*
X161523809Y-87252380D01*
X161333333Y-87252380D01*
X161238095Y-87204761D01*
X161190476Y-87109523D01*
X161190476Y-86728571D01*
X161238095Y-86633333D01*
X161333333Y-86585714D01*
X161523809Y-86585714D01*
X161619047Y-86633333D01*
X161666666Y-86728571D01*
X161666666Y-86823809D01*
X161190476Y-86919047D01*
X162000000Y-86585714D02*
X162238095Y-87252380D01*
X162476190Y-86585714D01*
X163047619Y-86252380D02*
X163142857Y-86252380D01*
X163238095Y-86300000D01*
X163285714Y-86347619D01*
X163333333Y-86442857D01*
X163380952Y-86633333D01*
X163380952Y-86871428D01*
X163333333Y-87061904D01*
X163285714Y-87157142D01*
X163238095Y-87204761D01*
X163142857Y-87252380D01*
X163047619Y-87252380D01*
X162952380Y-87204761D01*
X162904761Y-87157142D01*
X162857142Y-87061904D01*
X162809523Y-86871428D01*
X162809523Y-86633333D01*
X162857142Y-86442857D01*
X162904761Y-86347619D01*
X162952380Y-86300000D01*
X163047619Y-86252380D01*
X163714285Y-86252380D02*
X164333333Y-86252380D01*
X164000000Y-86633333D01*
X164142857Y-86633333D01*
X164238095Y-86680952D01*
X164285714Y-86728571D01*
X164333333Y-86823809D01*
X164333333Y-87061904D01*
X164285714Y-87157142D01*
X164238095Y-87204761D01*
X164142857Y-87252380D01*
X163857142Y-87252380D01*
X163761904Y-87204761D01*
X163714285Y-87157142D01*
%TO.C,C2*%
X133453142Y-59054666D02*
X133500761Y-59102285D01*
X133548380Y-59245142D01*
X133548380Y-59340380D01*
X133500761Y-59483238D01*
X133405523Y-59578476D01*
X133310285Y-59626095D01*
X133119809Y-59673714D01*
X132976952Y-59673714D01*
X132786476Y-59626095D01*
X132691238Y-59578476D01*
X132596000Y-59483238D01*
X132548380Y-59340380D01*
X132548380Y-59245142D01*
X132596000Y-59102285D01*
X132643619Y-59054666D01*
X132643619Y-58673714D02*
X132596000Y-58626095D01*
X132548380Y-58530857D01*
X132548380Y-58292761D01*
X132596000Y-58197523D01*
X132643619Y-58149904D01*
X132738857Y-58102285D01*
X132834095Y-58102285D01*
X132976952Y-58149904D01*
X133548380Y-58721333D01*
X133548380Y-58102285D01*
%TO.C,D2*%
X105758380Y-66270095D02*
X104758380Y-66270095D01*
X104758380Y-66032000D01*
X104806000Y-65889142D01*
X104901238Y-65793904D01*
X104996476Y-65746285D01*
X105186952Y-65698666D01*
X105329809Y-65698666D01*
X105520285Y-65746285D01*
X105615523Y-65793904D01*
X105710761Y-65889142D01*
X105758380Y-66032000D01*
X105758380Y-66270095D01*
X104853619Y-65317714D02*
X104806000Y-65270095D01*
X104758380Y-65174857D01*
X104758380Y-64936761D01*
X104806000Y-64841523D01*
X104853619Y-64793904D01*
X104948857Y-64746285D01*
X105044095Y-64746285D01*
X105186952Y-64793904D01*
X105758380Y-65365333D01*
X105758380Y-64746285D01*
%TO.C,C3*%
X106357142Y-76854666D02*
X106404761Y-76902285D01*
X106452380Y-77045142D01*
X106452380Y-77140380D01*
X106404761Y-77283238D01*
X106309523Y-77378476D01*
X106214285Y-77426095D01*
X106023809Y-77473714D01*
X105880952Y-77473714D01*
X105690476Y-77426095D01*
X105595238Y-77378476D01*
X105500000Y-77283238D01*
X105452380Y-77140380D01*
X105452380Y-77045142D01*
X105500000Y-76902285D01*
X105547619Y-76854666D01*
X105452380Y-76521333D02*
X105452380Y-75902285D01*
X105833333Y-76235619D01*
X105833333Y-76092761D01*
X105880952Y-75997523D01*
X105928571Y-75949904D01*
X106023809Y-75902285D01*
X106261904Y-75902285D01*
X106357142Y-75949904D01*
X106404761Y-75997523D01*
X106452380Y-76092761D01*
X106452380Y-76378476D01*
X106404761Y-76473714D01*
X106357142Y-76521333D01*
%TO.C,U2*%
X137414095Y-86828380D02*
X137414095Y-87637904D01*
X137461714Y-87733142D01*
X137509333Y-87780761D01*
X137604571Y-87828380D01*
X137795047Y-87828380D01*
X137890285Y-87780761D01*
X137937904Y-87733142D01*
X137985523Y-87637904D01*
X137985523Y-86828380D01*
X138414095Y-86923619D02*
X138461714Y-86876000D01*
X138556952Y-86828380D01*
X138795047Y-86828380D01*
X138890285Y-86876000D01*
X138937904Y-86923619D01*
X138985523Y-87018857D01*
X138985523Y-87114095D01*
X138937904Y-87256952D01*
X138366476Y-87828380D01*
X138985523Y-87828380D01*
%TO.C,C1*%
X111609142Y-82756666D02*
X111656761Y-82804285D01*
X111704380Y-82947142D01*
X111704380Y-83042380D01*
X111656761Y-83185238D01*
X111561523Y-83280476D01*
X111466285Y-83328095D01*
X111275809Y-83375714D01*
X111132952Y-83375714D01*
X110942476Y-83328095D01*
X110847238Y-83280476D01*
X110752000Y-83185238D01*
X110704380Y-83042380D01*
X110704380Y-82947142D01*
X110752000Y-82804285D01*
X110799619Y-82756666D01*
X111704380Y-81804285D02*
X111704380Y-82375714D01*
X111704380Y-82090000D02*
X110704380Y-82090000D01*
X110847238Y-82185238D01*
X110942476Y-82280476D01*
X110990095Y-82375714D01*
%TO.C,R1*%
X104481333Y-71572380D02*
X104148000Y-71096190D01*
X103909904Y-71572380D02*
X103909904Y-70572380D01*
X104290857Y-70572380D01*
X104386095Y-70620000D01*
X104433714Y-70667619D01*
X104481333Y-70762857D01*
X104481333Y-70905714D01*
X104433714Y-71000952D01*
X104386095Y-71048571D01*
X104290857Y-71096190D01*
X103909904Y-71096190D01*
X105433714Y-71572380D02*
X104862285Y-71572380D01*
X105148000Y-71572380D02*
X105148000Y-70572380D01*
X105052761Y-70715238D01*
X104957523Y-70810476D01*
X104862285Y-70858095D01*
%TO.C,D1*%
X110180380Y-64898495D02*
X109180380Y-64898495D01*
X109180380Y-64660400D01*
X109228000Y-64517542D01*
X109323238Y-64422304D01*
X109418476Y-64374685D01*
X109608952Y-64327066D01*
X109751809Y-64327066D01*
X109942285Y-64374685D01*
X110037523Y-64422304D01*
X110132761Y-64517542D01*
X110180380Y-64660400D01*
X110180380Y-64898495D01*
X110180380Y-63374685D02*
X110180380Y-63946114D01*
X110180380Y-63660400D02*
X109180380Y-63660400D01*
X109323238Y-63755638D01*
X109418476Y-63850876D01*
X109466095Y-63946114D01*
%TO.C,J2*%
X96948666Y-43902380D02*
X96948666Y-44616666D01*
X96901047Y-44759523D01*
X96805809Y-44854761D01*
X96662952Y-44902380D01*
X96567714Y-44902380D01*
X97377238Y-43997619D02*
X97424857Y-43950000D01*
X97520095Y-43902380D01*
X97758190Y-43902380D01*
X97853428Y-43950000D01*
X97901047Y-43997619D01*
X97948666Y-44092857D01*
X97948666Y-44188095D01*
X97901047Y-44330952D01*
X97329619Y-44902380D01*
X97948666Y-44902380D01*
X102091904Y-35488571D02*
X101330000Y-35488571D01*
X101710952Y-35107619D02*
X101710952Y-35869523D01*
X100330000Y-35107619D02*
X100901428Y-35107619D01*
X100615714Y-35107619D02*
X100615714Y-36107619D01*
X100710952Y-35964761D01*
X100806190Y-35869523D01*
X100901428Y-35821904D01*
X99949047Y-36012380D02*
X99901428Y-36060000D01*
X99806190Y-36107619D01*
X99568095Y-36107619D01*
X99472857Y-36060000D01*
X99425238Y-36012380D01*
X99377619Y-35917142D01*
X99377619Y-35821904D01*
X99425238Y-35679047D01*
X99996666Y-35107619D01*
X99377619Y-35107619D01*
X99091904Y-36107619D02*
X98758571Y-35107619D01*
X98425238Y-36107619D01*
X117038380Y-42774857D02*
X116562190Y-43108190D01*
X117038380Y-43346285D02*
X116038380Y-43346285D01*
X116038380Y-42965333D01*
X116086000Y-42870095D01*
X116133619Y-42822476D01*
X116228857Y-42774857D01*
X116371714Y-42774857D01*
X116466952Y-42822476D01*
X116514571Y-42870095D01*
X116562190Y-42965333D01*
X116562190Y-43346285D01*
X116514571Y-42346285D02*
X116514571Y-42012952D01*
X117038380Y-41870095D02*
X117038380Y-42346285D01*
X116038380Y-42346285D01*
X116038380Y-41870095D01*
X117038380Y-41441523D02*
X116038380Y-41441523D01*
X116038380Y-41203428D01*
X116086000Y-41060571D01*
X116181238Y-40965333D01*
X116276476Y-40917714D01*
X116466952Y-40870095D01*
X116609809Y-40870095D01*
X116800285Y-40917714D01*
X116895523Y-40965333D01*
X116990761Y-41060571D01*
X117038380Y-41203428D01*
X117038380Y-41441523D01*
X117038380Y-39203428D02*
X117038380Y-39679619D01*
X116038380Y-39679619D01*
X117038380Y-38870095D02*
X116038380Y-38870095D01*
X117038380Y-38393904D02*
X116038380Y-38393904D01*
X117038380Y-37822476D01*
X116038380Y-37822476D01*
X116514571Y-37346285D02*
X116514571Y-37012952D01*
X117038380Y-36870095D02*
X117038380Y-37346285D01*
X116038380Y-37346285D01*
X116038380Y-36870095D01*
X112251904Y-35488571D02*
X111490000Y-35488571D01*
X110490000Y-35107619D02*
X111061428Y-35107619D01*
X110775714Y-35107619D02*
X110775714Y-36107619D01*
X110870952Y-35964761D01*
X110966190Y-35869523D01*
X111061428Y-35821904D01*
X110109047Y-36012380D02*
X110061428Y-36060000D01*
X109966190Y-36107619D01*
X109728095Y-36107619D01*
X109632857Y-36060000D01*
X109585238Y-36012380D01*
X109537619Y-35917142D01*
X109537619Y-35821904D01*
X109585238Y-35679047D01*
X110156666Y-35107619D01*
X109537619Y-35107619D01*
X109251904Y-36107619D02*
X108918571Y-35107619D01*
X108585238Y-36107619D01*
%TO.C,RV3*%
X156376761Y-56078380D02*
X156043428Y-55602190D01*
X155805333Y-56078380D02*
X155805333Y-55078380D01*
X156186285Y-55078380D01*
X156281523Y-55126000D01*
X156329142Y-55173619D01*
X156376761Y-55268857D01*
X156376761Y-55411714D01*
X156329142Y-55506952D01*
X156281523Y-55554571D01*
X156186285Y-55602190D01*
X155805333Y-55602190D01*
X156662476Y-55078380D02*
X156995809Y-56078380D01*
X157329142Y-55078380D01*
X157567238Y-55078380D02*
X158186285Y-55078380D01*
X157852952Y-55459333D01*
X157995809Y-55459333D01*
X158091047Y-55506952D01*
X158138666Y-55554571D01*
X158186285Y-55649809D01*
X158186285Y-55887904D01*
X158138666Y-55983142D01*
X158091047Y-56030761D01*
X157995809Y-56078380D01*
X157710095Y-56078380D01*
X157614857Y-56030761D01*
X157567238Y-55983142D01*
%TO.C,R4*%
X139279333Y-74112380D02*
X138946000Y-73636190D01*
X138707904Y-74112380D02*
X138707904Y-73112380D01*
X139088857Y-73112380D01*
X139184095Y-73160000D01*
X139231714Y-73207619D01*
X139279333Y-73302857D01*
X139279333Y-73445714D01*
X139231714Y-73540952D01*
X139184095Y-73588571D01*
X139088857Y-73636190D01*
X138707904Y-73636190D01*
X140136476Y-73445714D02*
X140136476Y-74112380D01*
X139898380Y-73064761D02*
X139660285Y-73779047D01*
X140279333Y-73779047D01*
%TO.C,C7*%
X156485142Y-75584666D02*
X156532761Y-75632285D01*
X156580380Y-75775142D01*
X156580380Y-75870380D01*
X156532761Y-76013238D01*
X156437523Y-76108476D01*
X156342285Y-76156095D01*
X156151809Y-76203714D01*
X156008952Y-76203714D01*
X155818476Y-76156095D01*
X155723238Y-76108476D01*
X155628000Y-76013238D01*
X155580380Y-75870380D01*
X155580380Y-75775142D01*
X155628000Y-75632285D01*
X155675619Y-75584666D01*
X155580380Y-75251333D02*
X155580380Y-74584666D01*
X156580380Y-75013238D01*
%TO.C,RV1*%
X117768761Y-56332380D02*
X117435428Y-55856190D01*
X117197333Y-56332380D02*
X117197333Y-55332380D01*
X117578285Y-55332380D01*
X117673523Y-55380000D01*
X117721142Y-55427619D01*
X117768761Y-55522857D01*
X117768761Y-55665714D01*
X117721142Y-55760952D01*
X117673523Y-55808571D01*
X117578285Y-55856190D01*
X117197333Y-55856190D01*
X118054476Y-55332380D02*
X118387809Y-56332380D01*
X118721142Y-55332380D01*
X119578285Y-56332380D02*
X119006857Y-56332380D01*
X119292571Y-56332380D02*
X119292571Y-55332380D01*
X119197333Y-55475238D01*
X119102095Y-55570476D01*
X119006857Y-55618095D01*
%TO.C,J1*%
X111680380Y-52911333D02*
X112394666Y-52911333D01*
X112537523Y-52958952D01*
X112632761Y-53054190D01*
X112680380Y-53197047D01*
X112680380Y-53292285D01*
X112680380Y-51911333D02*
X112680380Y-52482761D01*
X112680380Y-52197047D02*
X111680380Y-52197047D01*
X111823238Y-52292285D01*
X111918476Y-52387523D01*
X111966095Y-52482761D01*
%TO.C,RV2*%
X137072761Y-56332380D02*
X136739428Y-55856190D01*
X136501333Y-56332380D02*
X136501333Y-55332380D01*
X136882285Y-55332380D01*
X136977523Y-55380000D01*
X137025142Y-55427619D01*
X137072761Y-55522857D01*
X137072761Y-55665714D01*
X137025142Y-55760952D01*
X136977523Y-55808571D01*
X136882285Y-55856190D01*
X136501333Y-55856190D01*
X137358476Y-55332380D02*
X137691809Y-56332380D01*
X138025142Y-55332380D01*
X138310857Y-55427619D02*
X138358476Y-55380000D01*
X138453714Y-55332380D01*
X138691809Y-55332380D01*
X138787047Y-55380000D01*
X138834666Y-55427619D01*
X138882285Y-55522857D01*
X138882285Y-55618095D01*
X138834666Y-55760952D01*
X138263238Y-56332380D01*
X138882285Y-56332380D01*
%TO.C,C6*%
X150217142Y-79882666D02*
X150264761Y-79930285D01*
X150312380Y-80073142D01*
X150312380Y-80168380D01*
X150264761Y-80311238D01*
X150169523Y-80406476D01*
X150074285Y-80454095D01*
X149883809Y-80501714D01*
X149740952Y-80501714D01*
X149550476Y-80454095D01*
X149455238Y-80406476D01*
X149360000Y-80311238D01*
X149312380Y-80168380D01*
X149312380Y-80073142D01*
X149360000Y-79930285D01*
X149407619Y-79882666D01*
X149312380Y-79025523D02*
X149312380Y-79216000D01*
X149360000Y-79311238D01*
X149407619Y-79358857D01*
X149550476Y-79454095D01*
X149740952Y-79501714D01*
X150121904Y-79501714D01*
X150217142Y-79454095D01*
X150264761Y-79406476D01*
X150312380Y-79311238D01*
X150312380Y-79120761D01*
X150264761Y-79025523D01*
X150217142Y-78977904D01*
X150121904Y-78930285D01*
X149883809Y-78930285D01*
X149788571Y-78977904D01*
X149740952Y-79025523D01*
X149693333Y-79120761D01*
X149693333Y-79311238D01*
X149740952Y-79406476D01*
X149788571Y-79454095D01*
X149883809Y-79501714D01*
%TO.C,J3*%
X125610666Y-51080380D02*
X125610666Y-51794666D01*
X125563047Y-51937523D01*
X125467809Y-52032761D01*
X125324952Y-52080380D01*
X125229714Y-52080380D01*
X125991619Y-51080380D02*
X126610666Y-51080380D01*
X126277333Y-51461333D01*
X126420190Y-51461333D01*
X126515428Y-51508952D01*
X126563047Y-51556571D01*
X126610666Y-51651809D01*
X126610666Y-51889904D01*
X126563047Y-51985142D01*
X126515428Y-52032761D01*
X126420190Y-52080380D01*
X126134476Y-52080380D01*
X126039238Y-52032761D01*
X125991619Y-51985142D01*
%TO.C,R2*%
X115260380Y-80176666D02*
X114784190Y-80510000D01*
X115260380Y-80748095D02*
X114260380Y-80748095D01*
X114260380Y-80367142D01*
X114308000Y-80271904D01*
X114355619Y-80224285D01*
X114450857Y-80176666D01*
X114593714Y-80176666D01*
X114688952Y-80224285D01*
X114736571Y-80271904D01*
X114784190Y-80367142D01*
X114784190Y-80748095D01*
X114355619Y-79795714D02*
X114308000Y-79748095D01*
X114260380Y-79652857D01*
X114260380Y-79414761D01*
X114308000Y-79319523D01*
X114355619Y-79271904D01*
X114450857Y-79224285D01*
X114546095Y-79224285D01*
X114688952Y-79271904D01*
X115260380Y-79843333D01*
X115260380Y-79224285D01*
%TO.C,C4*%
X118721142Y-79882666D02*
X118768761Y-79930285D01*
X118816380Y-80073142D01*
X118816380Y-80168380D01*
X118768761Y-80311238D01*
X118673523Y-80406476D01*
X118578285Y-80454095D01*
X118387809Y-80501714D01*
X118244952Y-80501714D01*
X118054476Y-80454095D01*
X117959238Y-80406476D01*
X117864000Y-80311238D01*
X117816380Y-80168380D01*
X117816380Y-80073142D01*
X117864000Y-79930285D01*
X117911619Y-79882666D01*
X118149714Y-79025523D02*
X118816380Y-79025523D01*
X117768761Y-79263619D02*
X118483047Y-79501714D01*
X118483047Y-78882666D01*
%TO.C,J5*%
X144406666Y-51080380D02*
X144406666Y-51794666D01*
X144359047Y-51937523D01*
X144263809Y-52032761D01*
X144120952Y-52080380D01*
X144025714Y-52080380D01*
X145359047Y-51080380D02*
X144882857Y-51080380D01*
X144835238Y-51556571D01*
X144882857Y-51508952D01*
X144978095Y-51461333D01*
X145216190Y-51461333D01*
X145311428Y-51508952D01*
X145359047Y-51556571D01*
X145406666Y-51651809D01*
X145406666Y-51889904D01*
X145359047Y-51985142D01*
X145311428Y-52032761D01*
X145216190Y-52080380D01*
X144978095Y-52080380D01*
X144882857Y-52032761D01*
X144835238Y-51985142D01*
%TO.C,C5*%
X152757142Y-59054666D02*
X152804761Y-59102285D01*
X152852380Y-59245142D01*
X152852380Y-59340380D01*
X152804761Y-59483238D01*
X152709523Y-59578476D01*
X152614285Y-59626095D01*
X152423809Y-59673714D01*
X152280952Y-59673714D01*
X152090476Y-59626095D01*
X151995238Y-59578476D01*
X151900000Y-59483238D01*
X151852380Y-59340380D01*
X151852380Y-59245142D01*
X151900000Y-59102285D01*
X151947619Y-59054666D01*
X151852380Y-58149904D02*
X151852380Y-58626095D01*
X152328571Y-58673714D01*
X152280952Y-58626095D01*
X152233333Y-58530857D01*
X152233333Y-58292761D01*
X152280952Y-58197523D01*
X152328571Y-58149904D01*
X152423809Y-58102285D01*
X152661904Y-58102285D01*
X152757142Y-58149904D01*
X152804761Y-58197523D01*
X152852380Y-58292761D01*
X152852380Y-58530857D01*
X152804761Y-58626095D01*
X152757142Y-58673714D01*
%TO.C,R3*%
X123277333Y-74112380D02*
X122944000Y-73636190D01*
X122705904Y-74112380D02*
X122705904Y-73112380D01*
X123086857Y-73112380D01*
X123182095Y-73160000D01*
X123229714Y-73207619D01*
X123277333Y-73302857D01*
X123277333Y-73445714D01*
X123229714Y-73540952D01*
X123182095Y-73588571D01*
X123086857Y-73636190D01*
X122705904Y-73636190D01*
X123610666Y-73112380D02*
X124229714Y-73112380D01*
X123896380Y-73493333D01*
X124039238Y-73493333D01*
X124134476Y-73540952D01*
X124182095Y-73588571D01*
X124229714Y-73683809D01*
X124229714Y-73921904D01*
X124182095Y-74017142D01*
X124134476Y-74064761D01*
X124039238Y-74112380D01*
X123753523Y-74112380D01*
X123658285Y-74064761D01*
X123610666Y-74017142D01*
%TO.C,U1*%
X121676095Y-86828380D02*
X121676095Y-87637904D01*
X121723714Y-87733142D01*
X121771333Y-87780761D01*
X121866571Y-87828380D01*
X122057047Y-87828380D01*
X122152285Y-87780761D01*
X122199904Y-87733142D01*
X122247523Y-87637904D01*
X122247523Y-86828380D01*
X123247523Y-87828380D02*
X122676095Y-87828380D01*
X122961809Y-87828380D02*
X122961809Y-86828380D01*
X122866571Y-86971238D01*
X122771333Y-87066476D01*
X122676095Y-87114095D01*
%TO.C,J7*%
X157654666Y-51776380D02*
X157654666Y-52490666D01*
X157607047Y-52633523D01*
X157511809Y-52728761D01*
X157368952Y-52776380D01*
X157273714Y-52776380D01*
X158035619Y-51776380D02*
X158702285Y-51776380D01*
X158273714Y-52776380D01*
D14*
%TO.C,C2*%
X134966000Y-55268000D02*
X134966000Y-62508000D01*
X131226000Y-55268000D02*
X131226000Y-62508000D01*
X134966000Y-62508000D02*
X131226000Y-62508000D01*
X134966000Y-55268000D02*
X131226000Y-55268000D01*
%TO.C,D2*%
X102891000Y-62972000D02*
X99801000Y-62972000D01*
X101345538Y-68522000D02*
G75*
G03*
X102890830Y-62972000I462J2990000D01*
G01*
X99801170Y-62972000D02*
G75*
G03*
X101346462Y-68522000I1544830J-2560000D01*
G01*
X103846000Y-65532000D02*
G75*
G03*
X103846000Y-65532000I-2500000J0D01*
G01*
%TO.C,C3*%
X100560000Y-77889000D02*
X98598000Y-77889000D01*
X102862000Y-79689000D02*
X100338000Y-79689000D01*
X100560000Y-77248000D02*
X98418000Y-77248000D01*
X104686000Y-77649000D02*
X102640000Y-77649000D01*
X100560000Y-78649000D02*
X99022000Y-78649000D01*
X104815000Y-77008000D02*
X102640000Y-77008000D01*
X104290000Y-78489000D02*
X102640000Y-78489000D01*
X100560000Y-78969000D02*
X99295000Y-78969000D01*
X103109000Y-79569000D02*
X100091000Y-79569000D01*
X104586000Y-77929000D02*
X102640000Y-77929000D01*
X104148000Y-78689000D02*
X102640000Y-78689000D01*
X103439000Y-73187759D02*
X103439000Y-73817759D01*
X104698000Y-77609000D02*
X102640000Y-77609000D01*
X103905000Y-78969000D02*
X102640000Y-78969000D01*
X104721000Y-77529000D02*
X102640000Y-77529000D01*
X102765000Y-79729000D02*
X100435000Y-79729000D01*
X104434000Y-78249000D02*
X102640000Y-78249000D01*
X100560000Y-78569000D02*
X98964000Y-78569000D01*
X103824000Y-79049000D02*
X99376000Y-79049000D01*
X100560000Y-76968000D02*
X98382000Y-76968000D01*
X104674000Y-77689000D02*
X102640000Y-77689000D01*
X104412000Y-78289000D02*
X102640000Y-78289000D01*
X100560000Y-78929000D02*
X99257000Y-78929000D01*
X102402000Y-79849000D02*
X100798000Y-79849000D01*
X103754000Y-73502759D02*
X103124000Y-73502759D01*
X102540000Y-79809000D02*
X100660000Y-79809000D01*
X104811000Y-77048000D02*
X102640000Y-77048000D01*
X100560000Y-78449000D02*
X98884000Y-78449000D01*
X100560000Y-77168000D02*
X98405000Y-77168000D01*
X100560000Y-78529000D02*
X98936000Y-78529000D01*
X100560000Y-78409000D02*
X98858000Y-78409000D01*
X100560000Y-77368000D02*
X98441000Y-77368000D01*
X104236000Y-78569000D02*
X102640000Y-78569000D01*
X100560000Y-78049000D02*
X98666000Y-78049000D01*
X104016000Y-78849000D02*
X102640000Y-78849000D01*
X103692000Y-79169000D02*
X99508000Y-79169000D01*
X104390000Y-78329000D02*
X102640000Y-78329000D01*
X104050000Y-78809000D02*
X102640000Y-78809000D01*
X104822000Y-76928000D02*
X102640000Y-76928000D01*
X104496000Y-78129000D02*
X102640000Y-78129000D01*
X104316000Y-78449000D02*
X102640000Y-78449000D01*
X100560000Y-77008000D02*
X98385000Y-77008000D01*
X100560000Y-77208000D02*
X98411000Y-77208000D01*
X104731000Y-77489000D02*
X102640000Y-77489000D01*
X103943000Y-78929000D02*
X102640000Y-78929000D01*
X100560000Y-78689000D02*
X99052000Y-78689000D01*
X104456000Y-78209000D02*
X102640000Y-78209000D01*
X100560000Y-77809000D02*
X98567000Y-77809000D01*
X100560000Y-77048000D02*
X98389000Y-77048000D01*
X103032000Y-79609000D02*
X100168000Y-79609000D01*
X104116000Y-78729000D02*
X102640000Y-78729000D01*
X104661000Y-77729000D02*
X102640000Y-77729000D01*
X102002000Y-79929000D02*
X101198000Y-79929000D01*
X103544000Y-79289000D02*
X99656000Y-79289000D01*
X104602000Y-77889000D02*
X102640000Y-77889000D01*
X100560000Y-78609000D02*
X98993000Y-78609000D01*
X100560000Y-78169000D02*
X98724000Y-78169000D01*
X104366000Y-78369000D02*
X102640000Y-78369000D01*
X100560000Y-78809000D02*
X99150000Y-78809000D01*
X104342000Y-78409000D02*
X102640000Y-78409000D01*
X104782000Y-77248000D02*
X102640000Y-77248000D01*
X100560000Y-78289000D02*
X98788000Y-78289000D01*
X100560000Y-77849000D02*
X98582000Y-77849000D01*
X104824000Y-76888000D02*
X98376000Y-76888000D01*
X100560000Y-78129000D02*
X98704000Y-78129000D01*
X103434000Y-79369000D02*
X99766000Y-79369000D01*
X104827000Y-76848000D02*
X98373000Y-76848000D01*
X100560000Y-77489000D02*
X98469000Y-77489000D01*
X100560000Y-78889000D02*
X99220000Y-78889000D01*
X104710000Y-77569000D02*
X102640000Y-77569000D01*
X104084000Y-78769000D02*
X102640000Y-78769000D01*
X100560000Y-77409000D02*
X98450000Y-77409000D01*
X104828000Y-76808000D02*
X98372000Y-76808000D01*
X104789000Y-77208000D02*
X102640000Y-77208000D01*
X104516000Y-78089000D02*
X102640000Y-78089000D01*
X100560000Y-77649000D02*
X98514000Y-77649000D01*
X103490000Y-79329000D02*
X99710000Y-79329000D01*
X104618000Y-77849000D02*
X102640000Y-77849000D01*
X100560000Y-77328000D02*
X98433000Y-77328000D01*
X103737000Y-79129000D02*
X99463000Y-79129000D01*
X100560000Y-77929000D02*
X98614000Y-77929000D01*
X103865000Y-79009000D02*
X99335000Y-79009000D01*
X103376000Y-79409000D02*
X99824000Y-79409000D01*
X100560000Y-78729000D02*
X99084000Y-78729000D01*
X103595000Y-79249000D02*
X99605000Y-79249000D01*
X100560000Y-78369000D02*
X98834000Y-78369000D01*
X104759000Y-77368000D02*
X102640000Y-77368000D01*
X104767000Y-77328000D02*
X102640000Y-77328000D01*
X104552000Y-78009000D02*
X102640000Y-78009000D01*
X104633000Y-77809000D02*
X102640000Y-77809000D01*
X100560000Y-78249000D02*
X98766000Y-78249000D01*
X104570000Y-77969000D02*
X102640000Y-77969000D01*
X100560000Y-77769000D02*
X98553000Y-77769000D01*
X100560000Y-78849000D02*
X99184000Y-78849000D01*
X102233000Y-79889000D02*
X100967000Y-79889000D01*
X104647000Y-77769000D02*
X102640000Y-77769000D01*
X104750000Y-77409000D02*
X102640000Y-77409000D01*
X100560000Y-78209000D02*
X98744000Y-78209000D01*
X104534000Y-78049000D02*
X102640000Y-78049000D01*
X102950000Y-79649000D02*
X100250000Y-79649000D01*
X104741000Y-77449000D02*
X102640000Y-77449000D01*
X104264000Y-78529000D02*
X102640000Y-78529000D01*
X104818000Y-76968000D02*
X102640000Y-76968000D01*
X103314000Y-79449000D02*
X99886000Y-79449000D01*
X100560000Y-78489000D02*
X98910000Y-78489000D01*
X104806000Y-77088000D02*
X102640000Y-77088000D01*
X103250000Y-79489000D02*
X99950000Y-79489000D01*
X104476000Y-78169000D02*
X102640000Y-78169000D01*
X102659000Y-79769000D02*
X100541000Y-79769000D01*
X100560000Y-78329000D02*
X98810000Y-78329000D01*
X104830000Y-76728000D02*
X98370000Y-76728000D01*
X104830000Y-76688000D02*
X98370000Y-76688000D01*
X100560000Y-78009000D02*
X98648000Y-78009000D01*
X104178000Y-78649000D02*
X102640000Y-78649000D01*
X104801000Y-77128000D02*
X102640000Y-77128000D01*
X104830000Y-76768000D02*
X98370000Y-76768000D01*
X100560000Y-78769000D02*
X99116000Y-78769000D01*
X103980000Y-78889000D02*
X102640000Y-78889000D01*
X100560000Y-77529000D02*
X98479000Y-77529000D01*
X100560000Y-77128000D02*
X98399000Y-77128000D01*
X100560000Y-77569000D02*
X98490000Y-77569000D01*
X100560000Y-76928000D02*
X98378000Y-76928000D01*
X100560000Y-77689000D02*
X98526000Y-77689000D01*
X100560000Y-78089000D02*
X98684000Y-78089000D01*
X100560000Y-77088000D02*
X98394000Y-77088000D01*
X104775000Y-77288000D02*
X102640000Y-77288000D01*
X100560000Y-77609000D02*
X98502000Y-77609000D01*
X100560000Y-77729000D02*
X98539000Y-77729000D01*
X103644000Y-79209000D02*
X99556000Y-79209000D01*
X104207000Y-78609000D02*
X102640000Y-78609000D01*
X104795000Y-77168000D02*
X102640000Y-77168000D01*
X100560000Y-77449000D02*
X98459000Y-77449000D01*
X100560000Y-77288000D02*
X98425000Y-77288000D01*
X100560000Y-77969000D02*
X98630000Y-77969000D01*
X103181000Y-79529000D02*
X100019000Y-79529000D01*
X103782000Y-79089000D02*
X99418000Y-79089000D01*
X104870000Y-76688000D02*
G75*
G03*
X104870000Y-76688000I-3270000J0D01*
G01*
%TO.C,U2*%
X136786000Y-75886000D02*
X136786000Y-86166000D01*
X136786000Y-86166000D02*
X147186000Y-86166000D01*
X136846000Y-78376000D02*
X136846000Y-80026000D01*
X147186000Y-86166000D02*
X147186000Y-75886000D01*
X147126000Y-83676000D02*
X147126000Y-78376000D01*
X147126000Y-78376000D02*
X136846000Y-78376000D01*
X136846000Y-83676000D02*
X147126000Y-83676000D01*
X136846000Y-82026000D02*
X136846000Y-83676000D01*
X147186000Y-75886000D02*
X136786000Y-75886000D01*
X136846000Y-82026000D02*
G75*
G03*
X136846000Y-80026000I0J1000000D01*
G01*
%TO.C,C1*%
X109382000Y-86210000D02*
X109382000Y-78970000D01*
X113122000Y-86210000D02*
X113122000Y-78970000D01*
X109382000Y-78970000D02*
X113122000Y-78970000D01*
X109382000Y-86210000D02*
X113122000Y-86210000D01*
%TO.C,R1*%
X107918000Y-69750000D02*
X101378000Y-69750000D01*
X101378000Y-69750000D02*
X101378000Y-72490000D01*
X100608000Y-71120000D02*
X101378000Y-71120000D01*
X107918000Y-72490000D02*
X107918000Y-69750000D01*
X108688000Y-71120000D02*
X107918000Y-71120000D01*
X101378000Y-72490000D02*
X107918000Y-72490000D01*
%TO.C,D1*%
X109728000Y-67286000D02*
X109728000Y-66636000D01*
X108608000Y-65796000D02*
X110848000Y-65796000D01*
X110848000Y-66636000D02*
X110848000Y-62396000D01*
X108608000Y-65916000D02*
X110848000Y-65916000D01*
X109728000Y-61746000D02*
X109728000Y-62396000D01*
X110848000Y-62396000D02*
X108608000Y-62396000D01*
X108608000Y-62396000D02*
X108608000Y-66636000D01*
X108608000Y-66636000D02*
X110848000Y-66636000D01*
X108608000Y-66036000D02*
X110848000Y-66036000D01*
D15*
%TO.C,J2*%
X115316000Y-36882000D02*
X115316000Y-43382000D01*
D14*
X103360000Y-36882000D02*
X103360000Y-36882000D01*
X96420000Y-36882000D02*
X114400000Y-36882000D01*
X96420000Y-43382000D02*
X96420000Y-36882000D01*
X114400000Y-36882000D02*
X114400000Y-43382000D01*
X114400000Y-43382000D02*
X96420000Y-43382000D01*
%TO.C,RV3*%
X157182000Y-56880000D02*
X157182000Y-61600000D01*
X165742000Y-56880000D02*
X166922000Y-56880000D01*
X157182000Y-65410000D02*
X157182000Y-68470000D01*
X162552000Y-63500000D02*
X161552000Y-63500000D01*
X166922000Y-65410000D02*
X166922000Y-68470000D01*
X166932000Y-56880000D02*
X166932000Y-61600000D01*
X157182000Y-68470000D02*
X166922000Y-68470000D01*
X162052000Y-64000000D02*
X162052000Y-63000000D01*
X160392000Y-56880000D02*
X161222000Y-56880000D01*
X162842000Y-56880000D02*
X163372000Y-56880000D01*
X157182000Y-56880000D02*
X158672000Y-56880000D01*
%TO.C,R4*%
X136176000Y-72290000D02*
X136176000Y-75030000D01*
X143486000Y-73660000D02*
X142716000Y-73660000D01*
X136176000Y-75030000D02*
X142716000Y-75030000D01*
X135406000Y-73660000D02*
X136176000Y-73660000D01*
X142716000Y-72290000D02*
X136176000Y-72290000D01*
X142716000Y-75030000D02*
X142716000Y-72290000D01*
%TO.C,C7*%
X161568000Y-74097000D02*
X163480000Y-74097000D01*
X157298000Y-75378000D02*
X163758000Y-75378000D01*
X158374000Y-78603241D02*
X159004000Y-78603241D01*
X161568000Y-74017000D02*
X163444000Y-74017000D01*
X161568000Y-73137000D02*
X162833000Y-73137000D01*
X157838000Y-73617000D02*
X159488000Y-73617000D01*
X161568000Y-74417000D02*
X163602000Y-74417000D01*
X161568000Y-74898000D02*
X163717000Y-74898000D01*
X161568000Y-73337000D02*
X163012000Y-73337000D01*
X158263000Y-73097000D02*
X162793000Y-73097000D01*
X157632000Y-73977000D02*
X159488000Y-73977000D01*
X158694000Y-72737000D02*
X162362000Y-72737000D01*
X157467000Y-74377000D02*
X159488000Y-74377000D01*
X157672000Y-73897000D02*
X159488000Y-73897000D01*
X161568000Y-74978000D02*
X163729000Y-74978000D01*
X161568000Y-74818000D02*
X163703000Y-74818000D01*
X161568000Y-73897000D02*
X163384000Y-73897000D01*
X158078000Y-73297000D02*
X159488000Y-73297000D01*
X161568000Y-73617000D02*
X163218000Y-73617000D01*
X161568000Y-74938000D02*
X163723000Y-74938000D01*
X157558000Y-74137000D02*
X159488000Y-74137000D01*
X157526000Y-74217000D02*
X159488000Y-74217000D01*
X158533000Y-72857000D02*
X162523000Y-72857000D01*
X157980000Y-73417000D02*
X159488000Y-73417000D01*
X157612000Y-74017000D02*
X159488000Y-74017000D01*
X161568000Y-74697000D02*
X163678000Y-74697000D01*
X161568000Y-74617000D02*
X163659000Y-74617000D01*
X158484000Y-72897000D02*
X162572000Y-72897000D01*
X161568000Y-74377000D02*
X163589000Y-74377000D01*
X158689000Y-78918241D02*
X158689000Y-78288241D01*
X158346000Y-73017000D02*
X162710000Y-73017000D01*
X157738000Y-73777000D02*
X159488000Y-73777000D01*
X157387000Y-74657000D02*
X159488000Y-74657000D01*
X157652000Y-73937000D02*
X159488000Y-73937000D01*
X157361000Y-74778000D02*
X159488000Y-74778000D01*
X161568000Y-74497000D02*
X163626000Y-74497000D01*
X157921000Y-73497000D02*
X159488000Y-73497000D01*
X161568000Y-74778000D02*
X163695000Y-74778000D01*
X161568000Y-73217000D02*
X162908000Y-73217000D01*
X161568000Y-74297000D02*
X163561000Y-74297000D01*
X157322000Y-75018000D02*
X159488000Y-75018000D01*
X157301000Y-75258000D02*
X163755000Y-75258000D01*
X158436000Y-72937000D02*
X162620000Y-72937000D01*
X158185000Y-73177000D02*
X159488000Y-73177000D01*
X158391000Y-72977000D02*
X162665000Y-72977000D01*
X157762000Y-73737000D02*
X159488000Y-73737000D01*
X161568000Y-73577000D02*
X163192000Y-73577000D01*
X159588000Y-72297000D02*
X161468000Y-72297000D01*
X158223000Y-73137000D02*
X159488000Y-73137000D01*
X157864000Y-73577000D02*
X159488000Y-73577000D01*
X161568000Y-73497000D02*
X163135000Y-73497000D01*
X157892000Y-73537000D02*
X159488000Y-73537000D01*
X157454000Y-74417000D02*
X159488000Y-74417000D01*
X158112000Y-73257000D02*
X159488000Y-73257000D01*
X157716000Y-73817000D02*
X159488000Y-73817000D01*
X157346000Y-74858000D02*
X159488000Y-74858000D01*
X161568000Y-74738000D02*
X163687000Y-74738000D01*
X157786000Y-73697000D02*
X159488000Y-73697000D01*
X157300000Y-75298000D02*
X163756000Y-75298000D01*
X159178000Y-72457000D02*
X161878000Y-72457000D01*
X158947000Y-72577000D02*
X162109000Y-72577000D01*
X161568000Y-74657000D02*
X163669000Y-74657000D01*
X161568000Y-73777000D02*
X163318000Y-73777000D01*
X157576000Y-74097000D02*
X159488000Y-74097000D01*
X157812000Y-73657000D02*
X159488000Y-73657000D01*
X157369000Y-74738000D02*
X159488000Y-74738000D01*
X158044000Y-73337000D02*
X159488000Y-73337000D01*
X161568000Y-73177000D02*
X162871000Y-73177000D01*
X157418000Y-74537000D02*
X159488000Y-74537000D01*
X157317000Y-75058000D02*
X159488000Y-75058000D01*
X161568000Y-73737000D02*
X163294000Y-73737000D01*
X161568000Y-73377000D02*
X163044000Y-73377000D01*
X161568000Y-75178000D02*
X163750000Y-75178000D01*
X161568000Y-74057000D02*
X163462000Y-74057000D01*
X161568000Y-73977000D02*
X163424000Y-73977000D01*
X157481000Y-74337000D02*
X159488000Y-74337000D01*
X157353000Y-74818000D02*
X159488000Y-74818000D01*
X161568000Y-74858000D02*
X163710000Y-74858000D01*
X159726000Y-72257000D02*
X161330000Y-72257000D01*
X157397000Y-74617000D02*
X159488000Y-74617000D01*
X158148000Y-73217000D02*
X159488000Y-73217000D01*
X157310000Y-75138000D02*
X159488000Y-75138000D01*
X161568000Y-74177000D02*
X163514000Y-74177000D01*
X157327000Y-74978000D02*
X159488000Y-74978000D01*
X157313000Y-75098000D02*
X159488000Y-75098000D01*
X161568000Y-74257000D02*
X163546000Y-74257000D01*
X158814000Y-72657000D02*
X162242000Y-72657000D01*
X159096000Y-72497000D02*
X161960000Y-72497000D01*
X161568000Y-73297000D02*
X162978000Y-73297000D01*
X161568000Y-73697000D02*
X163270000Y-73697000D01*
X161568000Y-73817000D02*
X163340000Y-73817000D01*
X161568000Y-74137000D02*
X163498000Y-74137000D01*
X159019000Y-72537000D02*
X162037000Y-72537000D01*
X157304000Y-75218000D02*
X163752000Y-75218000D01*
X161568000Y-75058000D02*
X163739000Y-75058000D01*
X161568000Y-74217000D02*
X163530000Y-74217000D01*
X161568000Y-73937000D02*
X163404000Y-73937000D01*
X158012000Y-73377000D02*
X159488000Y-73377000D01*
X161568000Y-75018000D02*
X163734000Y-75018000D01*
X160126000Y-72177000D02*
X160930000Y-72177000D01*
X161568000Y-73857000D02*
X163362000Y-73857000D01*
X158752000Y-72697000D02*
X162304000Y-72697000D01*
X157333000Y-74938000D02*
X159488000Y-74938000D01*
X159469000Y-72337000D02*
X161587000Y-72337000D01*
X161568000Y-75138000D02*
X163746000Y-75138000D01*
X159363000Y-72377000D02*
X161693000Y-72377000D01*
X161568000Y-73657000D02*
X163244000Y-73657000D01*
X158584000Y-72817000D02*
X162472000Y-72817000D01*
X157594000Y-74057000D02*
X159488000Y-74057000D01*
X157339000Y-74898000D02*
X159488000Y-74898000D01*
X157407000Y-74577000D02*
X159488000Y-74577000D01*
X157430000Y-74497000D02*
X159488000Y-74497000D01*
X157510000Y-74257000D02*
X159488000Y-74257000D01*
X157694000Y-73857000D02*
X159488000Y-73857000D01*
X161568000Y-73417000D02*
X163076000Y-73417000D01*
X161568000Y-73257000D02*
X162944000Y-73257000D01*
X158878000Y-72617000D02*
X162178000Y-72617000D01*
X161568000Y-73457000D02*
X163106000Y-73457000D01*
X158304000Y-73057000D02*
X162752000Y-73057000D01*
X157378000Y-74697000D02*
X159488000Y-74697000D01*
X157306000Y-75178000D02*
X159488000Y-75178000D01*
X161568000Y-73537000D02*
X163164000Y-73537000D01*
X159895000Y-72217000D02*
X161161000Y-72217000D01*
X157950000Y-73457000D02*
X159488000Y-73457000D01*
X161568000Y-74457000D02*
X163614000Y-74457000D01*
X157542000Y-74177000D02*
X159488000Y-74177000D01*
X157298000Y-75418000D02*
X163758000Y-75418000D01*
X161568000Y-74577000D02*
X163649000Y-74577000D01*
X158638000Y-72777000D02*
X162418000Y-72777000D01*
X161568000Y-74337000D02*
X163575000Y-74337000D01*
X157495000Y-74297000D02*
X159488000Y-74297000D01*
X157298000Y-75338000D02*
X163758000Y-75338000D01*
X161568000Y-75098000D02*
X163743000Y-75098000D01*
X159266000Y-72417000D02*
X161790000Y-72417000D01*
X161568000Y-74537000D02*
X163638000Y-74537000D01*
X157442000Y-74457000D02*
X159488000Y-74457000D01*
X163798000Y-75418000D02*
G75*
G03*
X163798000Y-75418000I-3270000J0D01*
G01*
%TO.C,RV1*%
X118574000Y-56880000D02*
X120064000Y-56880000D01*
X123944000Y-63500000D02*
X122944000Y-63500000D01*
X118574000Y-65410000D02*
X118574000Y-68470000D01*
X128314000Y-65410000D02*
X128314000Y-68470000D01*
X123444000Y-64000000D02*
X123444000Y-63000000D01*
X118574000Y-56880000D02*
X118574000Y-61600000D01*
X121784000Y-56880000D02*
X122614000Y-56880000D01*
X124234000Y-56880000D02*
X124764000Y-56880000D01*
X127134000Y-56880000D02*
X128314000Y-56880000D01*
X128324000Y-56880000D02*
X128324000Y-61600000D01*
X118574000Y-68470000D02*
X128314000Y-68470000D01*
%TO.C,J1*%
X110428000Y-57178000D02*
X109128000Y-57178000D01*
X110728000Y-47678000D02*
X109428000Y-47678000D01*
X110728000Y-49378000D02*
X110728000Y-47678000D01*
X104528000Y-57178000D02*
X95928000Y-57178000D01*
X110428000Y-47978000D02*
X110428000Y-49978000D01*
X95928000Y-47978000D02*
X110428000Y-47978000D01*
X110428000Y-55178000D02*
X110428000Y-57178000D01*
X95928000Y-57178000D02*
X95928000Y-47978000D01*
%TO.C,RV2*%
X142748000Y-64000000D02*
X142748000Y-63000000D01*
X141088000Y-56880000D02*
X141918000Y-56880000D01*
X147628000Y-56880000D02*
X147628000Y-61600000D01*
X143248000Y-63500000D02*
X142248000Y-63500000D01*
X137878000Y-56880000D02*
X137878000Y-61600000D01*
X137878000Y-56880000D02*
X139368000Y-56880000D01*
X146438000Y-56880000D02*
X147618000Y-56880000D01*
X143538000Y-56880000D02*
X144068000Y-56880000D01*
X147618000Y-65410000D02*
X147618000Y-68470000D01*
X137878000Y-65410000D02*
X137878000Y-68470000D01*
X137878000Y-68470000D02*
X147618000Y-68470000D01*
%TO.C,C6*%
X151730000Y-76096000D02*
X147990000Y-76096000D01*
X151730000Y-76096000D02*
X151730000Y-83336000D01*
X147990000Y-76096000D02*
X147990000Y-83336000D01*
X151730000Y-83336000D02*
X147990000Y-83336000D01*
D10*
%TO.C,J3*%
X121844000Y-50828000D02*
X118944000Y-50828000D01*
X127944000Y-40328000D02*
X127944000Y-50828000D01*
X118944000Y-40328000D02*
X118944000Y-50828000D01*
X121944000Y-40328000D02*
X118944000Y-40328000D01*
X127944000Y-40328000D02*
X124944000Y-40328000D01*
X127944000Y-50828000D02*
X125044000Y-50828000D01*
D14*
X122047000Y-42288001D02*
G75*
G03*
X124841000Y-42288001I1397000J-2539999D01*
G01*
X125244000Y-44828000D02*
G75*
G03*
X125244000Y-44828000I-1800000J0D01*
G01*
%TO.C,R2*%
X113438000Y-83280000D02*
X116178000Y-83280000D01*
X114808000Y-75970000D02*
X114808000Y-76740000D01*
X114808000Y-84050000D02*
X114808000Y-83280000D01*
X116178000Y-83280000D02*
X116178000Y-76740000D01*
X113438000Y-76740000D02*
X113438000Y-83280000D01*
X116178000Y-76740000D02*
X113438000Y-76740000D01*
%TO.C,C4*%
X120234000Y-83336000D02*
X116494000Y-83336000D01*
X120234000Y-76096000D02*
X120234000Y-83336000D01*
X120234000Y-76096000D02*
X116494000Y-76096000D01*
X116494000Y-76096000D02*
X116494000Y-83336000D01*
D10*
%TO.C,J5*%
X146740000Y-40328000D02*
X146740000Y-50828000D01*
X140740000Y-40328000D02*
X137740000Y-40328000D01*
X137740000Y-40328000D02*
X137740000Y-50828000D01*
X146740000Y-40328000D02*
X143740000Y-40328000D01*
X146740000Y-50828000D02*
X143840000Y-50828000D01*
X140640000Y-50828000D02*
X137740000Y-50828000D01*
D14*
X140843000Y-42288001D02*
G75*
G03*
X143637000Y-42288001I1397000J-2539999D01*
G01*
X144040000Y-44828000D02*
G75*
G03*
X144040000Y-44828000I-1800000J0D01*
G01*
%TO.C,C5*%
X154270000Y-55268000D02*
X150530000Y-55268000D01*
X150530000Y-55268000D02*
X150530000Y-62508000D01*
X154270000Y-55268000D02*
X154270000Y-62508000D01*
X154270000Y-62508000D02*
X150530000Y-62508000D01*
%TO.C,R3*%
X120174000Y-75030000D02*
X126714000Y-75030000D01*
X120174000Y-72290000D02*
X120174000Y-75030000D01*
X119404000Y-73660000D02*
X120174000Y-73660000D01*
X127484000Y-73660000D02*
X126714000Y-73660000D01*
X126714000Y-72290000D02*
X120174000Y-72290000D01*
X126714000Y-75030000D02*
X126714000Y-72290000D01*
%TO.C,U1*%
X131388000Y-83676000D02*
X131388000Y-78376000D01*
X121048000Y-75886000D02*
X121048000Y-86166000D01*
X121048000Y-86166000D02*
X131448000Y-86166000D01*
X121108000Y-82026000D02*
X121108000Y-83676000D01*
X131448000Y-75886000D02*
X121048000Y-75886000D01*
X131388000Y-78376000D02*
X121108000Y-78376000D01*
X121108000Y-78376000D02*
X121108000Y-80026000D01*
X121108000Y-83676000D02*
X131388000Y-83676000D01*
X131448000Y-86166000D02*
X131448000Y-75886000D01*
X121108000Y-82026000D02*
G75*
G03*
X121108000Y-80026000I0J1000000D01*
G01*
D10*
%TO.C,J7*%
X166552000Y-40328000D02*
X166552000Y-50828000D01*
X157552000Y-40328000D02*
X157552000Y-50828000D01*
X160552000Y-40328000D02*
X157552000Y-40328000D01*
X166552000Y-40328000D02*
X163552000Y-40328000D01*
X160452000Y-50828000D02*
X157552000Y-50828000D01*
X166552000Y-50828000D02*
X163652000Y-50828000D01*
D14*
X160655000Y-42288001D02*
G75*
G03*
X163449000Y-42288001I1397000J-2539999D01*
G01*
X163852000Y-44828000D02*
G75*
G03*
X163852000Y-44828000I-1800000J0D01*
G01*
%TD*%
M02*
