%TF.GenerationSoftware,KiCad,Pcbnew,(6.0.6-0)*%
%TF.CreationDate,2022-11-02T10:03:16+00:00*%
%TF.ProjectId,atari-punk,61746172-692d-4707-956e-6b2e6b696361,r03*%
%TF.SameCoordinates,Original*%
%TF.FileFunction,Copper,L1,Top*%
%TF.FilePolarity,Positive*%
%FSLAX46Y46*%
G04 Gerber Fmt 4.6, Leading zero omitted, Abs format (unit mm)*
G04 Created by KiCad (PCBNEW (6.0.6-0)) date 2022-11-02 10:03:16*
%MOMM*%
%LPD*%
G01*
G04 APERTURE LIST*
G04 Aperture macros list*
%AMRoundRect*
0 Rectangle with rounded corners*
0 $1 Rounding radius*
0 $2 $3 $4 $5 $6 $7 $8 $9 X,Y pos of 4 corners*
0 Add a 4 corners polygon primitive as box body*
4,1,4,$2,$3,$4,$5,$6,$7,$8,$9,$2,$3,0*
0 Add four circle primitives for the rounded corners*
1,1,$1+$1,$2,$3*
1,1,$1+$1,$4,$5*
1,1,$1+$1,$6,$7*
1,1,$1+$1,$8,$9*
0 Add four rect primitives between the rounded corners*
20,1,$1+$1,$2,$3,$4,$5,0*
20,1,$1+$1,$4,$5,$6,$7,0*
20,1,$1+$1,$6,$7,$8,$9,0*
20,1,$1+$1,$8,$9,$2,$3,0*%
G04 Aperture macros list end*
%TA.AperFunction,ComponentPad*%
%ADD10C,1.600000*%
%TD*%
%TA.AperFunction,ComponentPad*%
%ADD11R,1.800000X1.800000*%
%TD*%
%TA.AperFunction,ComponentPad*%
%ADD12C,1.800000*%
%TD*%
%TA.AperFunction,ComponentPad*%
%ADD13R,1.600000X1.600000*%
%TD*%
%TA.AperFunction,ComponentPad*%
%ADD14O,1.600000X1.600000*%
%TD*%
%TA.AperFunction,ComponentPad*%
%ADD15C,5.600000*%
%TD*%
%TA.AperFunction,ComponentPad*%
%ADD16RoundRect,0.250000X-0.600000X0.600000X-0.600000X-0.600000X0.600000X-0.600000X0.600000X0.600000X0*%
%TD*%
%TA.AperFunction,ComponentPad*%
%ADD17C,1.700000*%
%TD*%
%TA.AperFunction,ComponentPad*%
%ADD18O,2.200000X2.900000*%
%TD*%
%TA.AperFunction,ComponentPad*%
%ADD19R,2.000000X4.600000*%
%TD*%
%TA.AperFunction,ComponentPad*%
%ADD20O,2.000000X4.200000*%
%TD*%
%TA.AperFunction,ComponentPad*%
%ADD21O,4.200000X2.000000*%
%TD*%
%TA.AperFunction,ComponentPad*%
%ADD22O,3.100000X2.300000*%
%TD*%
%TA.AperFunction,ComponentPad*%
%ADD23RoundRect,0.650000X0.650000X0.650000X-0.650000X0.650000X-0.650000X-0.650000X0.650000X-0.650000X0*%
%TD*%
%TA.AperFunction,Conductor*%
%ADD24C,1.270000*%
%TD*%
G04 APERTURE END LIST*
D10*
%TO.P,C2,1*%
%TO.N,Net-(C2-Pad1)*%
X133096000Y-56388000D03*
%TO.P,C2,2*%
%TO.N,GND*%
X133096000Y-61388000D03*
%TD*%
D11*
%TO.P,D2,1,K*%
%TO.N,GND*%
X101346000Y-64262000D03*
D12*
%TO.P,D2,2,A*%
%TO.N,Net-(D2-Pad2)*%
X101346000Y-66802000D03*
%TD*%
D13*
%TO.P,C3,1*%
%TO.N,VCC*%
X101600000Y-75438000D03*
D10*
%TO.P,C3,2*%
%TO.N,GND*%
X101600000Y-77938000D03*
%TD*%
D13*
%TO.P,U2,1,GND*%
%TO.N,GND*%
X138176000Y-84836000D03*
D14*
%TO.P,U2,2,TR*%
%TO.N,Net-(U1-Pad3)*%
X140716000Y-84836000D03*
%TO.P,U2,3,Q*%
%TO.N,Net-(C7-Pad1)*%
X143256000Y-84836000D03*
%TO.P,U2,4,R*%
%TO.N,VCC*%
X145796000Y-84836000D03*
%TO.P,U2,5,CV*%
%TO.N,Net-(J5-PadT)*%
X145796000Y-77216000D03*
%TO.P,U2,6,THR*%
%TO.N,Net-(C6-Pad1)*%
X143256000Y-77216000D03*
%TO.P,U2,7,DIS*%
X140716000Y-77216000D03*
%TO.P,U2,8,VCC*%
%TO.N,VCC*%
X138176000Y-77216000D03*
%TD*%
D15*
%TO.P,H1,1,1*%
%TO.N,GND*%
X132500000Y-45000000D03*
%TD*%
D10*
%TO.P,C1,1*%
%TO.N,Net-(C1-Pad1)*%
X111252000Y-85090000D03*
%TO.P,C1,2*%
%TO.N,GND*%
X111252000Y-80090000D03*
%TD*%
%TO.P,R1,1*%
%TO.N,VCC*%
X109728000Y-71120000D03*
D14*
%TO.P,R1,2*%
%TO.N,Net-(D2-Pad2)*%
X99568000Y-71120000D03*
%TD*%
D13*
%TO.P,D1,1,K*%
%TO.N,VCC*%
X109728000Y-68326000D03*
D14*
%TO.P,D1,2,A*%
%TO.N,Net-(D1-Pad2)*%
X109728000Y-60706000D03*
%TD*%
D16*
%TO.P,J2,1,-12V*%
%TO.N,unconnected-(J2-Pad1)*%
X110490000Y-38862000D03*
D17*
%TO.P,J2,2,-12V*%
X110490000Y-41402000D03*
%TO.P,J2,3,GND*%
%TO.N,GND*%
X107950000Y-38862000D03*
%TO.P,J2,4,GND*%
X107950000Y-41402000D03*
%TO.P,J2,5,GND*%
X105410000Y-38862000D03*
%TO.P,J2,6,GND*%
X105410000Y-41402000D03*
%TO.P,J2,7,GND*%
X102870000Y-38862000D03*
%TO.P,J2,8,GND*%
X102870000Y-41402000D03*
%TO.P,J2,9,+12V*%
%TO.N,Net-(D1-Pad2)*%
X100330000Y-38862000D03*
%TO.P,J2,10,+12V*%
X100330000Y-41402000D03*
%TD*%
D15*
%TO.P,H2,1,1*%
%TO.N,GND*%
X102500000Y-85000000D03*
%TD*%
D18*
%TO.P,RV3,*%
%TO.N,*%
X157252000Y-63500000D03*
X166852000Y-63500000D03*
D11*
%TO.P,RV3,1,1*%
%TO.N,Net-(C7-Pad2)*%
X164552000Y-56000000D03*
D12*
%TO.P,RV3,2,2*%
%TO.N,Net-(J7-PadT)*%
X162052000Y-56000000D03*
%TO.P,RV3,3,3*%
%TO.N,GND*%
X159552000Y-56000000D03*
%TD*%
D10*
%TO.P,R4,1*%
%TO.N,VCC*%
X134366000Y-73660000D03*
D14*
%TO.P,R4,2*%
%TO.N,Net-(R4-Pad2)*%
X144526000Y-73660000D03*
%TD*%
D13*
%TO.P,C7,1*%
%TO.N,Net-(C7-Pad1)*%
X160528000Y-76668000D03*
D10*
%TO.P,C7,2*%
%TO.N,Net-(C7-Pad2)*%
X160528000Y-74168000D03*
%TD*%
D18*
%TO.P,RV1,*%
%TO.N,*%
X128244000Y-63500000D03*
X118644000Y-63500000D03*
D11*
%TO.P,RV1,1,1*%
%TO.N,Net-(R3-Pad2)*%
X125944000Y-56000000D03*
D12*
%TO.P,RV1,2,2*%
X123444000Y-56000000D03*
%TO.P,RV1,3,3*%
%TO.N,Net-(R2-Pad2)*%
X120944000Y-56000000D03*
%TD*%
D19*
%TO.P,J1,1*%
%TO.N,Net-(D1-Pad2)*%
X109728000Y-52578000D03*
D20*
%TO.P,J1,2*%
%TO.N,GND*%
X103428000Y-52578000D03*
D21*
%TO.P,J1,3*%
%TO.N,unconnected-(J1-Pad3)*%
X106828000Y-57378000D03*
%TD*%
D18*
%TO.P,RV2,*%
%TO.N,*%
X147548000Y-63500000D03*
X137948000Y-63500000D03*
D11*
%TO.P,RV2,1,1*%
%TO.N,Net-(R4-Pad2)*%
X145248000Y-56000000D03*
D12*
%TO.P,RV2,2,2*%
X142748000Y-56000000D03*
%TO.P,RV2,3,3*%
%TO.N,Net-(C6-Pad1)*%
X140248000Y-56000000D03*
%TD*%
D15*
%TO.P,H3,1,1*%
%TO.N,GND*%
X152500000Y-45000000D03*
%TD*%
D10*
%TO.P,C6,1*%
%TO.N,Net-(C6-Pad1)*%
X149860000Y-77216000D03*
%TO.P,C6,2*%
%TO.N,GND*%
X149860000Y-82216000D03*
%TD*%
D22*
%TO.P,J3,S*%
%TO.N,GND*%
X123444000Y-38348000D03*
D23*
%TO.P,J3,T*%
%TO.N,Net-(J3-PadT)*%
X123444000Y-49748000D03*
%TO.P,J3,TN*%
%TO.N,Net-(C2-Pad1)*%
X123444000Y-41448000D03*
%TD*%
D10*
%TO.P,R2,1*%
%TO.N,Net-(C1-Pad1)*%
X114808000Y-85090000D03*
D14*
%TO.P,R2,2*%
%TO.N,Net-(R2-Pad2)*%
X114808000Y-74930000D03*
%TD*%
D10*
%TO.P,C4,1*%
%TO.N,VCC*%
X118364000Y-77216000D03*
%TO.P,C4,2*%
%TO.N,GND*%
X118364000Y-82216000D03*
%TD*%
D22*
%TO.P,J5,S*%
%TO.N,GND*%
X142240000Y-38348000D03*
D23*
%TO.P,J5,T*%
%TO.N,Net-(J5-PadT)*%
X142240000Y-49748000D03*
%TO.P,J5,TN*%
%TO.N,Net-(C5-Pad1)*%
X142240000Y-41448000D03*
%TD*%
D10*
%TO.P,C5,1*%
%TO.N,Net-(C5-Pad1)*%
X152400000Y-56388000D03*
%TO.P,C5,2*%
%TO.N,GND*%
X152400000Y-61388000D03*
%TD*%
%TO.P,R3,1*%
%TO.N,VCC*%
X118364000Y-73660000D03*
D14*
%TO.P,R3,2*%
%TO.N,Net-(R3-Pad2)*%
X128524000Y-73660000D03*
%TD*%
D13*
%TO.P,U1,1,GND*%
%TO.N,GND*%
X122438000Y-84836000D03*
D14*
%TO.P,U1,2,TR*%
%TO.N,Net-(C1-Pad1)*%
X124978000Y-84836000D03*
%TO.P,U1,3,Q*%
%TO.N,Net-(U1-Pad3)*%
X127518000Y-84836000D03*
%TO.P,U1,4,R*%
%TO.N,VCC*%
X130058000Y-84836000D03*
%TO.P,U1,5,CV*%
%TO.N,Net-(J3-PadT)*%
X130058000Y-77216000D03*
%TO.P,U1,6,THR*%
%TO.N,Net-(C1-Pad1)*%
X127518000Y-77216000D03*
%TO.P,U1,7,DIS*%
%TO.N,Net-(R2-Pad2)*%
X124978000Y-77216000D03*
%TO.P,U1,8,VCC*%
%TO.N,VCC*%
X122438000Y-77216000D03*
%TD*%
D22*
%TO.P,J7,S*%
%TO.N,GND*%
X162052000Y-38348000D03*
D23*
%TO.P,J7,T*%
%TO.N,Net-(J7-PadT)*%
X162052000Y-49748000D03*
%TO.P,J7,TN*%
%TO.N,unconnected-(J7-PadTN)*%
X162052000Y-41448000D03*
%TD*%
D24*
%TO.N,Net-(C1-Pad1)*%
X124978000Y-84836000D02*
X124978000Y-82540000D01*
X124978000Y-82540000D02*
X127518000Y-80000000D01*
X127518000Y-80000000D02*
X127518000Y-77216000D01*
%TD*%
%TA.AperFunction,Conductor*%
%TO.N,GND*%
G36*
X169933621Y-35028502D02*
G01*
X169980114Y-35082158D01*
X169991500Y-35134500D01*
X169991500Y-87865500D01*
X169971498Y-87933621D01*
X169917842Y-87980114D01*
X169865500Y-87991500D01*
X104400142Y-87991500D01*
X104332021Y-87971498D01*
X104285528Y-87917842D01*
X104275424Y-87847568D01*
X104304918Y-87782988D01*
X104335816Y-87757157D01*
X104339999Y-87754674D01*
X104345659Y-87750884D01*
X104626732Y-87539849D01*
X104631958Y-87535464D01*
X104641613Y-87526428D01*
X104649682Y-87512750D01*
X104649654Y-87512024D01*
X104644512Y-87503723D01*
X102512810Y-85372020D01*
X102498869Y-85364408D01*
X102497034Y-85364539D01*
X102490420Y-85368790D01*
X100356774Y-87502437D01*
X100349160Y-87516381D01*
X100349237Y-87517470D01*
X100351698Y-87521206D01*
X100625632Y-87731404D01*
X100631262Y-87735259D01*
X100668398Y-87757838D01*
X100716213Y-87810319D01*
X100728065Y-87880319D01*
X100700189Y-87945615D01*
X100641438Y-87985474D01*
X100602939Y-87991500D01*
X96134500Y-87991500D01*
X96066379Y-87971498D01*
X96019886Y-87917842D01*
X96008500Y-87865500D01*
X96008500Y-84991832D01*
X99187333Y-84991832D01*
X99205117Y-85342893D01*
X99205827Y-85349649D01*
X99261420Y-85696723D01*
X99262859Y-85703378D01*
X99355608Y-86042410D01*
X99357757Y-86048871D01*
X99486581Y-86375912D01*
X99489412Y-86382095D01*
X99652803Y-86693310D01*
X99656286Y-86699152D01*
X99852330Y-86990896D01*
X99856433Y-86996340D01*
X99976425Y-87138836D01*
X99989164Y-87147279D01*
X99999608Y-87141181D01*
X102127980Y-85012810D01*
X102134357Y-85001131D01*
X102864408Y-85001131D01*
X102864539Y-85002966D01*
X102868790Y-85009580D01*
X104999009Y-87139798D01*
X105012605Y-87147223D01*
X105022218Y-87140522D01*
X105122518Y-87023912D01*
X105126676Y-87018514D01*
X105325762Y-86728840D01*
X105329310Y-86723029D01*
X105495942Y-86413559D01*
X105498849Y-86407381D01*
X105631090Y-86081713D01*
X105633304Y-86075283D01*
X105729598Y-85737237D01*
X105731105Y-85730607D01*
X105790332Y-85384118D01*
X105791112Y-85377378D01*
X105808688Y-85090000D01*
X109938502Y-85090000D01*
X109958457Y-85318087D01*
X109959881Y-85323400D01*
X109959881Y-85323402D01*
X110003922Y-85487762D01*
X110017716Y-85539243D01*
X110020039Y-85544224D01*
X110020039Y-85544225D01*
X110112151Y-85741762D01*
X110112154Y-85741767D01*
X110114477Y-85746749D01*
X110245802Y-85934300D01*
X110407700Y-86096198D01*
X110412208Y-86099355D01*
X110412211Y-86099357D01*
X110462369Y-86134478D01*
X110595251Y-86227523D01*
X110600233Y-86229846D01*
X110600238Y-86229849D01*
X110797775Y-86321961D01*
X110802757Y-86324284D01*
X110808065Y-86325706D01*
X110808067Y-86325707D01*
X111018598Y-86382119D01*
X111018600Y-86382119D01*
X111023913Y-86383543D01*
X111252000Y-86403498D01*
X111480087Y-86383543D01*
X111485400Y-86382119D01*
X111485402Y-86382119D01*
X111695933Y-86325707D01*
X111695935Y-86325706D01*
X111701243Y-86324284D01*
X111706225Y-86321961D01*
X111903762Y-86229849D01*
X111903767Y-86229846D01*
X111908749Y-86227523D01*
X112041631Y-86134478D01*
X112091789Y-86099357D01*
X112091792Y-86099355D01*
X112096300Y-86096198D01*
X112258198Y-85934300D01*
X112389523Y-85746749D01*
X112391846Y-85741767D01*
X112391849Y-85741762D01*
X112483961Y-85544225D01*
X112483961Y-85544224D01*
X112486284Y-85539243D01*
X112500079Y-85487762D01*
X112544119Y-85323402D01*
X112544119Y-85323400D01*
X112545543Y-85318087D01*
X112565498Y-85090000D01*
X113494502Y-85090000D01*
X113514457Y-85318087D01*
X113515881Y-85323400D01*
X113515881Y-85323402D01*
X113559922Y-85487762D01*
X113573716Y-85539243D01*
X113576039Y-85544224D01*
X113576039Y-85544225D01*
X113668151Y-85741762D01*
X113668154Y-85741767D01*
X113670477Y-85746749D01*
X113801802Y-85934300D01*
X113963700Y-86096198D01*
X113968208Y-86099355D01*
X113968211Y-86099357D01*
X114018369Y-86134478D01*
X114151251Y-86227523D01*
X114156233Y-86229846D01*
X114156238Y-86229849D01*
X114353775Y-86321961D01*
X114358757Y-86324284D01*
X114364065Y-86325706D01*
X114364067Y-86325707D01*
X114574598Y-86382119D01*
X114574600Y-86382119D01*
X114579913Y-86383543D01*
X114808000Y-86403498D01*
X115036087Y-86383543D01*
X115041400Y-86382119D01*
X115041402Y-86382119D01*
X115251933Y-86325707D01*
X115251935Y-86325706D01*
X115257243Y-86324284D01*
X115262225Y-86321961D01*
X115459762Y-86229849D01*
X115459767Y-86229846D01*
X115464749Y-86227523D01*
X115597631Y-86134478D01*
X115647789Y-86099357D01*
X115647792Y-86099355D01*
X115652300Y-86096198D01*
X115814198Y-85934300D01*
X115945523Y-85746749D01*
X115947846Y-85741767D01*
X115947849Y-85741762D01*
X115976337Y-85680669D01*
X121130001Y-85680669D01*
X121130371Y-85687490D01*
X121135895Y-85738352D01*
X121139521Y-85753604D01*
X121184676Y-85874054D01*
X121193214Y-85889649D01*
X121269715Y-85991724D01*
X121282276Y-86004285D01*
X121384351Y-86080786D01*
X121399946Y-86089324D01*
X121520394Y-86134478D01*
X121535649Y-86138105D01*
X121586514Y-86143631D01*
X121593328Y-86144000D01*
X122165885Y-86144000D01*
X122181124Y-86139525D01*
X122182329Y-86138135D01*
X122184000Y-86130452D01*
X122184000Y-85108115D01*
X122179525Y-85092876D01*
X122178135Y-85091671D01*
X122170452Y-85090000D01*
X121148116Y-85090000D01*
X121132877Y-85094475D01*
X121131672Y-85095865D01*
X121130001Y-85103548D01*
X121130001Y-85680669D01*
X115976337Y-85680669D01*
X116039961Y-85544225D01*
X116039961Y-85544224D01*
X116042284Y-85539243D01*
X116056079Y-85487762D01*
X116100119Y-85323402D01*
X116100119Y-85323400D01*
X116101543Y-85318087D01*
X116121498Y-85090000D01*
X116101543Y-84861913D01*
X116042284Y-84640757D01*
X116039876Y-84635592D01*
X116006439Y-84563885D01*
X121130000Y-84563885D01*
X121134475Y-84579124D01*
X121135865Y-84580329D01*
X121143548Y-84582000D01*
X122165885Y-84582000D01*
X122181124Y-84577525D01*
X122182329Y-84576135D01*
X122184000Y-84568452D01*
X122184000Y-83546116D01*
X122179525Y-83530877D01*
X122178135Y-83529672D01*
X122170452Y-83528001D01*
X121593331Y-83528001D01*
X121586510Y-83528371D01*
X121535648Y-83533895D01*
X121520396Y-83537521D01*
X121399946Y-83582676D01*
X121384351Y-83591214D01*
X121282276Y-83667715D01*
X121269715Y-83680276D01*
X121193214Y-83782351D01*
X121184676Y-83797946D01*
X121139522Y-83918394D01*
X121135895Y-83933649D01*
X121130369Y-83984514D01*
X121130000Y-83991328D01*
X121130000Y-84563885D01*
X116006439Y-84563885D01*
X115947849Y-84438238D01*
X115947846Y-84438233D01*
X115945523Y-84433251D01*
X115846060Y-84291203D01*
X115817357Y-84250211D01*
X115817355Y-84250208D01*
X115814198Y-84245700D01*
X115652300Y-84083802D01*
X115647792Y-84080645D01*
X115647789Y-84080643D01*
X115533224Y-84000424D01*
X115464749Y-83952477D01*
X115459767Y-83950154D01*
X115459762Y-83950151D01*
X115262225Y-83858039D01*
X115262224Y-83858039D01*
X115257243Y-83855716D01*
X115251935Y-83854294D01*
X115251933Y-83854293D01*
X115041402Y-83797881D01*
X115041400Y-83797881D01*
X115036087Y-83796457D01*
X114808000Y-83776502D01*
X114579913Y-83796457D01*
X114574600Y-83797881D01*
X114574598Y-83797881D01*
X114364067Y-83854293D01*
X114364065Y-83854294D01*
X114358757Y-83855716D01*
X114353776Y-83858039D01*
X114353775Y-83858039D01*
X114156238Y-83950151D01*
X114156233Y-83950154D01*
X114151251Y-83952477D01*
X114082776Y-84000424D01*
X113968211Y-84080643D01*
X113968208Y-84080645D01*
X113963700Y-84083802D01*
X113801802Y-84245700D01*
X113798645Y-84250208D01*
X113798643Y-84250211D01*
X113769940Y-84291203D01*
X113670477Y-84433251D01*
X113668154Y-84438233D01*
X113668151Y-84438238D01*
X113576124Y-84635592D01*
X113573716Y-84640757D01*
X113514457Y-84861913D01*
X113494502Y-85090000D01*
X112565498Y-85090000D01*
X112545543Y-84861913D01*
X112486284Y-84640757D01*
X112483876Y-84635592D01*
X112391849Y-84438238D01*
X112391846Y-84438233D01*
X112389523Y-84433251D01*
X112290060Y-84291203D01*
X112261357Y-84250211D01*
X112261355Y-84250208D01*
X112258198Y-84245700D01*
X112096300Y-84083802D01*
X112091792Y-84080645D01*
X112091789Y-84080643D01*
X111977224Y-84000424D01*
X111908749Y-83952477D01*
X111903767Y-83950154D01*
X111903762Y-83950151D01*
X111706225Y-83858039D01*
X111706224Y-83858039D01*
X111701243Y-83855716D01*
X111695935Y-83854294D01*
X111695933Y-83854293D01*
X111485402Y-83797881D01*
X111485400Y-83797881D01*
X111480087Y-83796457D01*
X111252000Y-83776502D01*
X111023913Y-83796457D01*
X111018600Y-83797881D01*
X111018598Y-83797881D01*
X110808067Y-83854293D01*
X110808065Y-83854294D01*
X110802757Y-83855716D01*
X110797776Y-83858039D01*
X110797775Y-83858039D01*
X110600238Y-83950151D01*
X110600233Y-83950154D01*
X110595251Y-83952477D01*
X110526776Y-84000424D01*
X110412211Y-84080643D01*
X110412208Y-84080645D01*
X110407700Y-84083802D01*
X110245802Y-84245700D01*
X110242645Y-84250208D01*
X110242643Y-84250211D01*
X110213940Y-84291203D01*
X110114477Y-84433251D01*
X110112154Y-84438233D01*
X110112151Y-84438238D01*
X110020124Y-84635592D01*
X110017716Y-84640757D01*
X109958457Y-84861913D01*
X109938502Y-85090000D01*
X105808688Y-85090000D01*
X105812668Y-85024925D01*
X105812784Y-85021323D01*
X105812853Y-85001819D01*
X105812761Y-84998194D01*
X105793666Y-84645615D01*
X105792931Y-84638849D01*
X105736130Y-84291985D01*
X105734663Y-84285313D01*
X105640736Y-83946627D01*
X105638562Y-83940163D01*
X105508598Y-83613578D01*
X105505742Y-83607398D01*
X105344075Y-83302062D01*
X117642493Y-83302062D01*
X117651789Y-83314077D01*
X117702994Y-83349931D01*
X117712489Y-83355414D01*
X117909947Y-83447490D01*
X117920239Y-83451236D01*
X118130688Y-83507625D01*
X118141481Y-83509528D01*
X118358525Y-83528517D01*
X118369475Y-83528517D01*
X118586519Y-83509528D01*
X118597312Y-83507625D01*
X118807761Y-83451236D01*
X118818053Y-83447490D01*
X119015511Y-83355414D01*
X119025006Y-83349931D01*
X119077048Y-83313491D01*
X119085424Y-83303012D01*
X119078356Y-83289566D01*
X118376812Y-82588022D01*
X118362868Y-82580408D01*
X118361035Y-82580539D01*
X118354420Y-82584790D01*
X117648923Y-83290287D01*
X117642493Y-83302062D01*
X105344075Y-83302062D01*
X105341269Y-83296763D01*
X105337769Y-83290937D01*
X105140697Y-82999862D01*
X105136590Y-82994453D01*
X105023565Y-82861179D01*
X105010740Y-82852743D01*
X105000416Y-82858795D01*
X102872020Y-84987190D01*
X102864408Y-85001131D01*
X102134357Y-85001131D01*
X102135592Y-84998869D01*
X102135461Y-84997034D01*
X102131210Y-84990420D01*
X100000992Y-82860203D01*
X99987455Y-82852811D01*
X99977753Y-82859599D01*
X99870430Y-82985257D01*
X99866296Y-82990664D01*
X99668215Y-83281041D01*
X99664697Y-83286851D01*
X99499134Y-83596922D01*
X99496259Y-83603087D01*
X99365155Y-83929218D01*
X99362962Y-83935658D01*
X99267846Y-84274044D01*
X99266363Y-84280679D01*
X99208350Y-84627354D01*
X99207591Y-84634126D01*
X99187357Y-84985037D01*
X99187333Y-84991832D01*
X96008500Y-84991832D01*
X96008500Y-82486862D01*
X100349950Y-82486862D01*
X100349986Y-82487704D01*
X100355037Y-82495826D01*
X102487190Y-84627980D01*
X102501131Y-84635592D01*
X102502966Y-84635461D01*
X102509580Y-84631210D01*
X104642798Y-82497991D01*
X104650412Y-82484047D01*
X104650344Y-82483089D01*
X104645836Y-82476272D01*
X104644418Y-82475065D01*
X104364813Y-82262064D01*
X104359187Y-82258240D01*
X104298241Y-82221475D01*
X117051483Y-82221475D01*
X117070472Y-82438519D01*
X117072375Y-82449312D01*
X117128764Y-82659761D01*
X117132510Y-82670053D01*
X117224586Y-82867511D01*
X117230069Y-82877006D01*
X117266509Y-82929048D01*
X117276988Y-82937424D01*
X117290434Y-82930356D01*
X117991978Y-82228812D01*
X117998356Y-82217132D01*
X118728408Y-82217132D01*
X118728539Y-82218965D01*
X118732790Y-82225580D01*
X119438287Y-82931077D01*
X119450062Y-82937507D01*
X119462077Y-82928211D01*
X119497931Y-82877006D01*
X119503414Y-82867511D01*
X119595490Y-82670053D01*
X119599236Y-82659761D01*
X119655625Y-82449312D01*
X119657528Y-82438519D01*
X119676517Y-82221475D01*
X119676517Y-82210525D01*
X119657528Y-81993481D01*
X119655625Y-81982688D01*
X119599236Y-81772239D01*
X119595490Y-81761947D01*
X119503414Y-81564489D01*
X119497931Y-81554994D01*
X119461491Y-81502952D01*
X119451012Y-81494576D01*
X119437566Y-81501644D01*
X118736022Y-82203188D01*
X118728408Y-82217132D01*
X117998356Y-82217132D01*
X117999592Y-82214868D01*
X117999461Y-82213035D01*
X117995210Y-82206420D01*
X117289713Y-81500923D01*
X117277938Y-81494493D01*
X117265923Y-81503789D01*
X117230069Y-81554994D01*
X117224586Y-81564489D01*
X117132510Y-81761947D01*
X117128764Y-81772239D01*
X117072375Y-81982688D01*
X117070472Y-81993481D01*
X117051483Y-82210525D01*
X117051483Y-82221475D01*
X104298241Y-82221475D01*
X104058214Y-82076681D01*
X104052202Y-82073484D01*
X103733370Y-81925487D01*
X103727070Y-81922967D01*
X103394129Y-81810273D01*
X103387551Y-81808437D01*
X103044417Y-81732367D01*
X103037678Y-81731251D01*
X102688310Y-81692680D01*
X102681529Y-81692301D01*
X102330015Y-81691687D01*
X102323242Y-81692042D01*
X101973720Y-81729395D01*
X101967010Y-81730482D01*
X101623586Y-81805361D01*
X101617011Y-81807172D01*
X101283683Y-81918702D01*
X101277361Y-81921205D01*
X100958034Y-82068079D01*
X100951991Y-82071265D01*
X100650401Y-82251763D01*
X100644755Y-82255571D01*
X100364408Y-82467596D01*
X100359211Y-82471987D01*
X100357972Y-82473155D01*
X100349950Y-82486862D01*
X96008500Y-82486862D01*
X96008500Y-81176062D01*
X110530493Y-81176062D01*
X110539789Y-81188077D01*
X110590994Y-81223931D01*
X110600489Y-81229414D01*
X110797947Y-81321490D01*
X110808239Y-81325236D01*
X111018688Y-81381625D01*
X111029481Y-81383528D01*
X111246525Y-81402517D01*
X111257475Y-81402517D01*
X111474519Y-81383528D01*
X111485312Y-81381625D01*
X111695761Y-81325236D01*
X111706053Y-81321490D01*
X111903511Y-81229414D01*
X111913006Y-81223931D01*
X111965048Y-81187491D01*
X111973424Y-81177012D01*
X111966356Y-81163566D01*
X111931778Y-81128988D01*
X117642576Y-81128988D01*
X117649644Y-81142434D01*
X118351188Y-81843978D01*
X118365132Y-81851592D01*
X118366965Y-81851461D01*
X118373580Y-81847210D01*
X119079077Y-81141713D01*
X119085507Y-81129938D01*
X119076211Y-81117923D01*
X119025006Y-81082069D01*
X119015511Y-81076586D01*
X118818053Y-80984510D01*
X118807761Y-80980764D01*
X118597312Y-80924375D01*
X118586519Y-80922472D01*
X118369475Y-80903483D01*
X118358525Y-80903483D01*
X118141481Y-80922472D01*
X118130688Y-80924375D01*
X117920239Y-80980764D01*
X117909947Y-80984510D01*
X117712489Y-81076586D01*
X117702994Y-81082069D01*
X117650952Y-81118509D01*
X117642576Y-81128988D01*
X111931778Y-81128988D01*
X111264812Y-80462022D01*
X111250868Y-80454408D01*
X111249035Y-80454539D01*
X111242420Y-80458790D01*
X110536923Y-81164287D01*
X110530493Y-81176062D01*
X96008500Y-81176062D01*
X96008500Y-80095475D01*
X109939483Y-80095475D01*
X109958472Y-80312519D01*
X109960375Y-80323312D01*
X110016764Y-80533761D01*
X110020510Y-80544053D01*
X110112586Y-80741511D01*
X110118069Y-80751006D01*
X110154509Y-80803048D01*
X110164988Y-80811424D01*
X110178434Y-80804356D01*
X110879978Y-80102812D01*
X110886356Y-80091132D01*
X111616408Y-80091132D01*
X111616539Y-80092965D01*
X111620790Y-80099580D01*
X112326287Y-80805077D01*
X112338062Y-80811507D01*
X112350077Y-80802211D01*
X112385931Y-80751006D01*
X112391414Y-80741511D01*
X112483490Y-80544053D01*
X112487236Y-80533761D01*
X112543625Y-80323312D01*
X112545528Y-80312519D01*
X112564517Y-80095475D01*
X112564517Y-80084525D01*
X112545528Y-79867481D01*
X112543625Y-79856688D01*
X112487236Y-79646239D01*
X112483490Y-79635947D01*
X112391414Y-79438489D01*
X112385931Y-79428994D01*
X112349491Y-79376952D01*
X112339012Y-79368576D01*
X112325566Y-79375644D01*
X111624022Y-80077188D01*
X111616408Y-80091132D01*
X110886356Y-80091132D01*
X110887592Y-80088868D01*
X110887461Y-80087035D01*
X110883210Y-80080420D01*
X110177713Y-79374923D01*
X110165938Y-79368493D01*
X110153923Y-79377789D01*
X110118069Y-79428994D01*
X110112586Y-79438489D01*
X110020510Y-79635947D01*
X110016764Y-79646239D01*
X109960375Y-79856688D01*
X109958472Y-79867481D01*
X109939483Y-80084525D01*
X109939483Y-80095475D01*
X96008500Y-80095475D01*
X96008500Y-79024062D01*
X100878493Y-79024062D01*
X100887789Y-79036077D01*
X100938994Y-79071931D01*
X100948489Y-79077414D01*
X101145947Y-79169490D01*
X101156239Y-79173236D01*
X101366688Y-79229625D01*
X101377481Y-79231528D01*
X101594525Y-79250517D01*
X101605475Y-79250517D01*
X101822519Y-79231528D01*
X101833312Y-79229625D01*
X102043761Y-79173236D01*
X102054053Y-79169490D01*
X102251511Y-79077414D01*
X102261006Y-79071931D01*
X102313048Y-79035491D01*
X102321424Y-79025012D01*
X102314356Y-79011566D01*
X102305778Y-79002988D01*
X110530576Y-79002988D01*
X110537644Y-79016434D01*
X111239188Y-79717978D01*
X111253132Y-79725592D01*
X111254965Y-79725461D01*
X111261580Y-79721210D01*
X111967077Y-79015713D01*
X111973507Y-79003938D01*
X111964211Y-78991923D01*
X111913006Y-78956069D01*
X111903511Y-78950586D01*
X111706053Y-78858510D01*
X111695761Y-78854764D01*
X111485312Y-78798375D01*
X111474519Y-78796472D01*
X111257475Y-78777483D01*
X111246525Y-78777483D01*
X111029481Y-78796472D01*
X111018688Y-78798375D01*
X110808239Y-78854764D01*
X110797947Y-78858510D01*
X110600489Y-78950586D01*
X110590994Y-78956069D01*
X110538952Y-78992509D01*
X110530576Y-79002988D01*
X102305778Y-79002988D01*
X101612812Y-78310022D01*
X101598868Y-78302408D01*
X101597035Y-78302539D01*
X101590420Y-78306790D01*
X100884923Y-79012287D01*
X100878493Y-79024062D01*
X96008500Y-79024062D01*
X96008500Y-77943475D01*
X100287483Y-77943475D01*
X100306472Y-78160519D01*
X100308375Y-78171312D01*
X100364764Y-78381761D01*
X100368510Y-78392053D01*
X100460586Y-78589511D01*
X100466069Y-78599006D01*
X100502509Y-78651048D01*
X100512988Y-78659424D01*
X100526434Y-78652356D01*
X101227978Y-77950812D01*
X101234356Y-77939132D01*
X101964408Y-77939132D01*
X101964539Y-77940965D01*
X101968790Y-77947580D01*
X102674287Y-78653077D01*
X102686062Y-78659507D01*
X102698077Y-78650211D01*
X102733931Y-78599006D01*
X102739414Y-78589511D01*
X102831490Y-78392053D01*
X102835236Y-78381761D01*
X102891625Y-78171312D01*
X102893528Y-78160519D01*
X102912517Y-77943475D01*
X102912517Y-77932525D01*
X102893528Y-77715481D01*
X102891625Y-77704688D01*
X102835236Y-77494239D01*
X102831490Y-77483947D01*
X102739414Y-77286489D01*
X102733931Y-77276994D01*
X102697491Y-77224952D01*
X102687012Y-77216576D01*
X102673566Y-77223644D01*
X101972022Y-77925188D01*
X101964408Y-77939132D01*
X101234356Y-77939132D01*
X101235592Y-77936868D01*
X101235461Y-77935035D01*
X101231210Y-77928420D01*
X100525713Y-77222923D01*
X100513938Y-77216493D01*
X100501923Y-77225789D01*
X100466069Y-77276994D01*
X100460586Y-77286489D01*
X100368510Y-77483947D01*
X100364764Y-77494239D01*
X100308375Y-77704688D01*
X100306472Y-77715481D01*
X100287483Y-77932525D01*
X100287483Y-77943475D01*
X96008500Y-77943475D01*
X96008500Y-76286134D01*
X100291500Y-76286134D01*
X100298255Y-76348316D01*
X100349385Y-76484705D01*
X100436739Y-76601261D01*
X100553295Y-76688615D01*
X100689684Y-76739745D01*
X100733252Y-76744478D01*
X100748486Y-76746133D01*
X100748489Y-76746133D01*
X100751866Y-76746500D01*
X100755185Y-76746500D01*
X100822110Y-76770153D01*
X100857804Y-76816156D01*
X100859734Y-76815141D01*
X100865442Y-76826000D01*
X100865632Y-76826245D01*
X100865653Y-76826403D01*
X100885644Y-76864434D01*
X101587188Y-77565978D01*
X101601132Y-77573592D01*
X101602965Y-77573461D01*
X101609580Y-77569210D01*
X101962790Y-77216000D01*
X117050502Y-77216000D01*
X117070457Y-77444087D01*
X117071881Y-77449400D01*
X117071881Y-77449402D01*
X117081138Y-77483947D01*
X117129716Y-77665243D01*
X117132039Y-77670224D01*
X117132039Y-77670225D01*
X117224151Y-77867762D01*
X117224154Y-77867767D01*
X117226477Y-77872749D01*
X117357802Y-78060300D01*
X117519700Y-78222198D01*
X117524208Y-78225355D01*
X117524211Y-78225357D01*
X117602389Y-78280098D01*
X117707251Y-78353523D01*
X117712233Y-78355846D01*
X117712238Y-78355849D01*
X117789879Y-78392053D01*
X117914757Y-78450284D01*
X117920065Y-78451706D01*
X117920067Y-78451707D01*
X118130598Y-78508119D01*
X118130600Y-78508119D01*
X118135913Y-78509543D01*
X118364000Y-78529498D01*
X118592087Y-78509543D01*
X118597400Y-78508119D01*
X118597402Y-78508119D01*
X118807933Y-78451707D01*
X118807935Y-78451706D01*
X118813243Y-78450284D01*
X118938121Y-78392053D01*
X119015762Y-78355849D01*
X119015767Y-78355846D01*
X119020749Y-78353523D01*
X119125611Y-78280098D01*
X119203789Y-78225357D01*
X119203792Y-78225355D01*
X119208300Y-78222198D01*
X119370198Y-78060300D01*
X119501523Y-77872749D01*
X119503846Y-77867767D01*
X119503849Y-77867762D01*
X119595961Y-77670225D01*
X119595961Y-77670224D01*
X119598284Y-77665243D01*
X119646863Y-77483947D01*
X119656119Y-77449402D01*
X119656119Y-77449400D01*
X119657543Y-77444087D01*
X119677498Y-77216000D01*
X121124502Y-77216000D01*
X121144457Y-77444087D01*
X121145881Y-77449400D01*
X121145881Y-77449402D01*
X121155138Y-77483947D01*
X121203716Y-77665243D01*
X121206039Y-77670224D01*
X121206039Y-77670225D01*
X121298151Y-77867762D01*
X121298154Y-77867767D01*
X121300477Y-77872749D01*
X121431802Y-78060300D01*
X121593700Y-78222198D01*
X121598208Y-78225355D01*
X121598211Y-78225357D01*
X121676389Y-78280098D01*
X121781251Y-78353523D01*
X121786233Y-78355846D01*
X121786238Y-78355849D01*
X121863879Y-78392053D01*
X121988757Y-78450284D01*
X121994065Y-78451706D01*
X121994067Y-78451707D01*
X122204598Y-78508119D01*
X122204600Y-78508119D01*
X122209913Y-78509543D01*
X122438000Y-78529498D01*
X122666087Y-78509543D01*
X122671400Y-78508119D01*
X122671402Y-78508119D01*
X122881933Y-78451707D01*
X122881935Y-78451706D01*
X122887243Y-78450284D01*
X123012121Y-78392053D01*
X123089762Y-78355849D01*
X123089767Y-78355846D01*
X123094749Y-78353523D01*
X123199611Y-78280098D01*
X123277789Y-78225357D01*
X123277792Y-78225355D01*
X123282300Y-78222198D01*
X123444198Y-78060300D01*
X123575523Y-77872749D01*
X123577846Y-77867767D01*
X123577849Y-77867762D01*
X123593805Y-77833543D01*
X123640722Y-77780258D01*
X123708999Y-77760797D01*
X123776959Y-77781339D01*
X123822195Y-77833543D01*
X123838151Y-77867762D01*
X123838154Y-77867767D01*
X123840477Y-77872749D01*
X123971802Y-78060300D01*
X124133700Y-78222198D01*
X124138208Y-78225355D01*
X124138211Y-78225357D01*
X124216389Y-78280098D01*
X124321251Y-78353523D01*
X124326233Y-78355846D01*
X124326238Y-78355849D01*
X124403879Y-78392053D01*
X124528757Y-78450284D01*
X124534065Y-78451706D01*
X124534067Y-78451707D01*
X124744598Y-78508119D01*
X124744600Y-78508119D01*
X124749913Y-78509543D01*
X124978000Y-78529498D01*
X125206087Y-78509543D01*
X125211400Y-78508119D01*
X125211402Y-78508119D01*
X125421933Y-78451707D01*
X125421935Y-78451706D01*
X125427243Y-78450284D01*
X125552121Y-78392053D01*
X125629762Y-78355849D01*
X125629767Y-78355846D01*
X125634749Y-78353523D01*
X125739611Y-78280098D01*
X125817789Y-78225357D01*
X125817792Y-78225355D01*
X125822300Y-78222198D01*
X125984198Y-78060300D01*
X126115523Y-77872749D01*
X126117846Y-77867767D01*
X126117849Y-77867762D01*
X126133805Y-77833543D01*
X126180722Y-77780258D01*
X126248999Y-77760797D01*
X126316959Y-77781339D01*
X126362190Y-77833533D01*
X126362690Y-77834605D01*
X126374500Y-77887865D01*
X126374500Y-79474156D01*
X126354498Y-79542277D01*
X126337595Y-79563251D01*
X124199696Y-81701151D01*
X124193678Y-81706788D01*
X124144981Y-81749494D01*
X124141406Y-81754029D01*
X124141405Y-81754030D01*
X124090202Y-81818982D01*
X124088124Y-81821547D01*
X124035266Y-81885100D01*
X124035262Y-81885105D01*
X124031574Y-81889540D01*
X124028755Y-81894574D01*
X124026686Y-81897584D01*
X124020492Y-81906854D01*
X124018449Y-81909999D01*
X124014872Y-81914537D01*
X124012184Y-81919645D01*
X124012182Y-81919649D01*
X123973688Y-81992816D01*
X123972118Y-81995706D01*
X123928885Y-82072904D01*
X123927028Y-82078376D01*
X123925514Y-82081776D01*
X123921127Y-82091987D01*
X123919705Y-82095421D01*
X123917018Y-82100527D01*
X123915306Y-82106041D01*
X123915305Y-82106043D01*
X123890788Y-82184999D01*
X123889769Y-82188135D01*
X123875961Y-82228812D01*
X123861331Y-82271912D01*
X123860502Y-82277625D01*
X123859659Y-82281138D01*
X123857167Y-82292151D01*
X123856409Y-82295718D01*
X123854696Y-82301234D01*
X123854018Y-82306962D01*
X123854017Y-82306967D01*
X123844297Y-82389098D01*
X123843870Y-82392340D01*
X123831175Y-82479897D01*
X123831402Y-82485665D01*
X123834403Y-82562054D01*
X123834500Y-82567001D01*
X123834500Y-83606564D01*
X123814498Y-83674685D01*
X123760842Y-83721178D01*
X123690568Y-83731282D01*
X123625988Y-83701788D01*
X123607675Y-83682130D01*
X123606287Y-83680278D01*
X123593724Y-83667715D01*
X123491649Y-83591214D01*
X123476054Y-83582676D01*
X123355606Y-83537522D01*
X123340351Y-83533895D01*
X123289486Y-83528369D01*
X123282672Y-83528000D01*
X122710115Y-83528000D01*
X122694876Y-83532475D01*
X122693671Y-83533865D01*
X122692000Y-83541548D01*
X122692000Y-86125884D01*
X122696475Y-86141123D01*
X122697865Y-86142328D01*
X122705548Y-86143999D01*
X123282669Y-86143999D01*
X123289490Y-86143629D01*
X123340352Y-86138105D01*
X123355604Y-86134479D01*
X123476054Y-86089324D01*
X123491649Y-86080786D01*
X123593724Y-86004285D01*
X123606285Y-85991724D01*
X123682786Y-85889649D01*
X123691324Y-85874054D01*
X123736478Y-85753606D01*
X123740104Y-85738357D01*
X123740479Y-85734904D01*
X123741522Y-85732394D01*
X123741932Y-85730669D01*
X123742211Y-85730735D01*
X123767719Y-85669341D01*
X123826080Y-85628912D01*
X123897034Y-85626454D01*
X123958054Y-85662747D01*
X123967344Y-85674240D01*
X123968641Y-85675786D01*
X123971802Y-85680300D01*
X124133700Y-85842198D01*
X124138208Y-85845355D01*
X124138211Y-85845357D01*
X124179195Y-85874054D01*
X124321251Y-85973523D01*
X124326233Y-85975846D01*
X124326238Y-85975849D01*
X124482836Y-86048871D01*
X124528757Y-86070284D01*
X124534065Y-86071706D01*
X124534067Y-86071707D01*
X124744598Y-86128119D01*
X124744600Y-86128119D01*
X124749913Y-86129543D01*
X124978000Y-86149498D01*
X125206087Y-86129543D01*
X125211400Y-86128119D01*
X125211402Y-86128119D01*
X125421933Y-86071707D01*
X125421935Y-86071706D01*
X125427243Y-86070284D01*
X125473164Y-86048871D01*
X125629762Y-85975849D01*
X125629767Y-85975846D01*
X125634749Y-85973523D01*
X125776805Y-85874054D01*
X125817789Y-85845357D01*
X125817792Y-85845355D01*
X125822300Y-85842198D01*
X125984198Y-85680300D01*
X125988442Y-85674240D01*
X126082967Y-85539243D01*
X126115523Y-85492749D01*
X126117846Y-85487767D01*
X126117849Y-85487762D01*
X126133805Y-85453543D01*
X126180722Y-85400258D01*
X126248999Y-85380797D01*
X126316959Y-85401339D01*
X126362195Y-85453543D01*
X126378151Y-85487762D01*
X126378154Y-85487767D01*
X126380477Y-85492749D01*
X126413033Y-85539243D01*
X126507559Y-85674240D01*
X126511802Y-85680300D01*
X126673700Y-85842198D01*
X126678208Y-85845355D01*
X126678211Y-85845357D01*
X126719195Y-85874054D01*
X126861251Y-85973523D01*
X126866233Y-85975846D01*
X126866238Y-85975849D01*
X127022836Y-86048871D01*
X127068757Y-86070284D01*
X127074065Y-86071706D01*
X127074067Y-86071707D01*
X127284598Y-86128119D01*
X127284600Y-86128119D01*
X127289913Y-86129543D01*
X127518000Y-86149498D01*
X127746087Y-86129543D01*
X127751400Y-86128119D01*
X127751402Y-86128119D01*
X127961933Y-86071707D01*
X127961935Y-86071706D01*
X127967243Y-86070284D01*
X128013164Y-86048871D01*
X128169762Y-85975849D01*
X128169767Y-85975846D01*
X128174749Y-85973523D01*
X128316805Y-85874054D01*
X128357789Y-85845357D01*
X128357792Y-85845355D01*
X128362300Y-85842198D01*
X128524198Y-85680300D01*
X128528442Y-85674240D01*
X128622967Y-85539243D01*
X128655523Y-85492749D01*
X128657846Y-85487767D01*
X128657849Y-85487762D01*
X128673805Y-85453543D01*
X128720722Y-85400258D01*
X128788999Y-85380797D01*
X128856959Y-85401339D01*
X128902195Y-85453543D01*
X128918151Y-85487762D01*
X128918154Y-85487767D01*
X128920477Y-85492749D01*
X128953033Y-85539243D01*
X129047559Y-85674240D01*
X129051802Y-85680300D01*
X129213700Y-85842198D01*
X129218208Y-85845355D01*
X129218211Y-85845357D01*
X129259195Y-85874054D01*
X129401251Y-85973523D01*
X129406233Y-85975846D01*
X129406238Y-85975849D01*
X129562836Y-86048871D01*
X129608757Y-86070284D01*
X129614065Y-86071706D01*
X129614067Y-86071707D01*
X129824598Y-86128119D01*
X129824600Y-86128119D01*
X129829913Y-86129543D01*
X130058000Y-86149498D01*
X130286087Y-86129543D01*
X130291400Y-86128119D01*
X130291402Y-86128119D01*
X130501933Y-86071707D01*
X130501935Y-86071706D01*
X130507243Y-86070284D01*
X130553164Y-86048871D01*
X130709762Y-85975849D01*
X130709767Y-85975846D01*
X130714749Y-85973523D01*
X130856805Y-85874054D01*
X130897789Y-85845357D01*
X130897792Y-85845355D01*
X130902300Y-85842198D01*
X131063829Y-85680669D01*
X136868001Y-85680669D01*
X136868371Y-85687490D01*
X136873895Y-85738352D01*
X136877521Y-85753604D01*
X136922676Y-85874054D01*
X136931214Y-85889649D01*
X137007715Y-85991724D01*
X137020276Y-86004285D01*
X137122351Y-86080786D01*
X137137946Y-86089324D01*
X137258394Y-86134478D01*
X137273649Y-86138105D01*
X137324514Y-86143631D01*
X137331328Y-86144000D01*
X137903885Y-86144000D01*
X137919124Y-86139525D01*
X137920329Y-86138135D01*
X137922000Y-86130452D01*
X137922000Y-86125884D01*
X138430000Y-86125884D01*
X138434475Y-86141123D01*
X138435865Y-86142328D01*
X138443548Y-86143999D01*
X139020669Y-86143999D01*
X139027490Y-86143629D01*
X139078352Y-86138105D01*
X139093604Y-86134479D01*
X139214054Y-86089324D01*
X139229649Y-86080786D01*
X139331724Y-86004285D01*
X139344285Y-85991724D01*
X139420786Y-85889649D01*
X139429324Y-85874054D01*
X139474478Y-85753606D01*
X139478104Y-85738357D01*
X139478479Y-85734904D01*
X139479522Y-85732394D01*
X139479932Y-85730669D01*
X139480211Y-85730735D01*
X139505719Y-85669341D01*
X139564080Y-85628912D01*
X139635034Y-85626454D01*
X139696054Y-85662747D01*
X139705344Y-85674240D01*
X139706641Y-85675786D01*
X139709802Y-85680300D01*
X139871700Y-85842198D01*
X139876208Y-85845355D01*
X139876211Y-85845357D01*
X139917195Y-85874054D01*
X140059251Y-85973523D01*
X140064233Y-85975846D01*
X140064238Y-85975849D01*
X140220836Y-86048871D01*
X140266757Y-86070284D01*
X140272065Y-86071706D01*
X140272067Y-86071707D01*
X140482598Y-86128119D01*
X140482600Y-86128119D01*
X140487913Y-86129543D01*
X140716000Y-86149498D01*
X140944087Y-86129543D01*
X140949400Y-86128119D01*
X140949402Y-86128119D01*
X141159933Y-86071707D01*
X141159935Y-86071706D01*
X141165243Y-86070284D01*
X141211164Y-86048871D01*
X141367762Y-85975849D01*
X141367767Y-85975846D01*
X141372749Y-85973523D01*
X141514805Y-85874054D01*
X141555789Y-85845357D01*
X141555792Y-85845355D01*
X141560300Y-85842198D01*
X141722198Y-85680300D01*
X141726442Y-85674240D01*
X141820967Y-85539243D01*
X141853523Y-85492749D01*
X141855846Y-85487767D01*
X141855849Y-85487762D01*
X141871805Y-85453543D01*
X141918722Y-85400258D01*
X141986999Y-85380797D01*
X142054959Y-85401339D01*
X142100195Y-85453543D01*
X142116151Y-85487762D01*
X142116154Y-85487767D01*
X142118477Y-85492749D01*
X142151033Y-85539243D01*
X142245559Y-85674240D01*
X142249802Y-85680300D01*
X142411700Y-85842198D01*
X142416208Y-85845355D01*
X142416211Y-85845357D01*
X142457195Y-85874054D01*
X142599251Y-85973523D01*
X142604233Y-85975846D01*
X142604238Y-85975849D01*
X142760836Y-86048871D01*
X142806757Y-86070284D01*
X142812065Y-86071706D01*
X142812067Y-86071707D01*
X143022598Y-86128119D01*
X143022600Y-86128119D01*
X143027913Y-86129543D01*
X143256000Y-86149498D01*
X143484087Y-86129543D01*
X143489400Y-86128119D01*
X143489402Y-86128119D01*
X143699933Y-86071707D01*
X143699935Y-86071706D01*
X143705243Y-86070284D01*
X143751164Y-86048871D01*
X143907762Y-85975849D01*
X143907767Y-85975846D01*
X143912749Y-85973523D01*
X144054805Y-85874054D01*
X144095789Y-85845357D01*
X144095792Y-85845355D01*
X144100300Y-85842198D01*
X144262198Y-85680300D01*
X144266442Y-85674240D01*
X144360967Y-85539243D01*
X144393523Y-85492749D01*
X144395846Y-85487767D01*
X144395849Y-85487762D01*
X144411805Y-85453543D01*
X144458722Y-85400258D01*
X144526999Y-85380797D01*
X144594959Y-85401339D01*
X144640195Y-85453543D01*
X144656151Y-85487762D01*
X144656154Y-85487767D01*
X144658477Y-85492749D01*
X144691033Y-85539243D01*
X144785559Y-85674240D01*
X144789802Y-85680300D01*
X144951700Y-85842198D01*
X144956208Y-85845355D01*
X144956211Y-85845357D01*
X144997195Y-85874054D01*
X145139251Y-85973523D01*
X145144233Y-85975846D01*
X145144238Y-85975849D01*
X145300836Y-86048871D01*
X145346757Y-86070284D01*
X145352065Y-86071706D01*
X145352067Y-86071707D01*
X145562598Y-86128119D01*
X145562600Y-86128119D01*
X145567913Y-86129543D01*
X145796000Y-86149498D01*
X146024087Y-86129543D01*
X146029400Y-86128119D01*
X146029402Y-86128119D01*
X146239933Y-86071707D01*
X146239935Y-86071706D01*
X146245243Y-86070284D01*
X146291164Y-86048871D01*
X146447762Y-85975849D01*
X146447767Y-85975846D01*
X146452749Y-85973523D01*
X146594805Y-85874054D01*
X146635789Y-85845357D01*
X146635792Y-85845355D01*
X146640300Y-85842198D01*
X146802198Y-85680300D01*
X146806442Y-85674240D01*
X146900967Y-85539243D01*
X146933523Y-85492749D01*
X146935846Y-85487767D01*
X146935849Y-85487762D01*
X147027961Y-85290225D01*
X147027961Y-85290224D01*
X147030284Y-85285243D01*
X147078970Y-85103548D01*
X147088119Y-85069402D01*
X147088119Y-85069400D01*
X147089543Y-85064087D01*
X147109498Y-84836000D01*
X147089543Y-84607913D01*
X147081028Y-84576135D01*
X147031707Y-84392067D01*
X147031706Y-84392065D01*
X147030284Y-84386757D01*
X147027961Y-84381775D01*
X146935849Y-84184238D01*
X146935846Y-84184233D01*
X146933523Y-84179251D01*
X146860098Y-84074389D01*
X146805357Y-83996211D01*
X146805355Y-83996208D01*
X146802198Y-83991700D01*
X146640300Y-83829802D01*
X146635792Y-83826645D01*
X146635789Y-83826643D01*
X146485169Y-83721178D01*
X146452749Y-83698477D01*
X146447767Y-83696154D01*
X146447762Y-83696151D01*
X146250225Y-83604039D01*
X146250224Y-83604039D01*
X146245243Y-83601716D01*
X146239935Y-83600294D01*
X146239933Y-83600293D01*
X146029402Y-83543881D01*
X146029400Y-83543881D01*
X146024087Y-83542457D01*
X145796000Y-83522502D01*
X145567913Y-83542457D01*
X145562600Y-83543881D01*
X145562598Y-83543881D01*
X145352067Y-83600293D01*
X145352065Y-83600294D01*
X145346757Y-83601716D01*
X145341776Y-83604039D01*
X145341775Y-83604039D01*
X145144238Y-83696151D01*
X145144233Y-83696154D01*
X145139251Y-83698477D01*
X145106831Y-83721178D01*
X144956211Y-83826643D01*
X144956208Y-83826645D01*
X144951700Y-83829802D01*
X144789802Y-83991700D01*
X144786645Y-83996208D01*
X144786643Y-83996211D01*
X144731902Y-84074389D01*
X144658477Y-84179251D01*
X144656154Y-84184233D01*
X144656151Y-84184238D01*
X144640195Y-84218457D01*
X144593278Y-84271742D01*
X144525001Y-84291203D01*
X144457041Y-84270661D01*
X144411805Y-84218457D01*
X144395849Y-84184238D01*
X144395846Y-84184233D01*
X144393523Y-84179251D01*
X144320098Y-84074389D01*
X144265357Y-83996211D01*
X144265355Y-83996208D01*
X144262198Y-83991700D01*
X144100300Y-83829802D01*
X144095792Y-83826645D01*
X144095789Y-83826643D01*
X143945169Y-83721178D01*
X143912749Y-83698477D01*
X143907767Y-83696154D01*
X143907762Y-83696151D01*
X143710225Y-83604039D01*
X143710224Y-83604039D01*
X143705243Y-83601716D01*
X143699935Y-83600294D01*
X143699933Y-83600293D01*
X143489402Y-83543881D01*
X143489400Y-83543881D01*
X143484087Y-83542457D01*
X143256000Y-83522502D01*
X143027913Y-83542457D01*
X143022600Y-83543881D01*
X143022598Y-83543881D01*
X142812067Y-83600293D01*
X142812065Y-83600294D01*
X142806757Y-83601716D01*
X142801776Y-83604039D01*
X142801775Y-83604039D01*
X142604238Y-83696151D01*
X142604233Y-83696154D01*
X142599251Y-83698477D01*
X142566831Y-83721178D01*
X142416211Y-83826643D01*
X142416208Y-83826645D01*
X142411700Y-83829802D01*
X142249802Y-83991700D01*
X142246645Y-83996208D01*
X142246643Y-83996211D01*
X142191902Y-84074389D01*
X142118477Y-84179251D01*
X142116154Y-84184233D01*
X142116151Y-84184238D01*
X142100195Y-84218457D01*
X142053278Y-84271742D01*
X141985001Y-84291203D01*
X141917041Y-84270661D01*
X141871805Y-84218457D01*
X141855849Y-84184238D01*
X141855846Y-84184233D01*
X141853523Y-84179251D01*
X141780098Y-84074389D01*
X141725357Y-83996211D01*
X141725355Y-83996208D01*
X141722198Y-83991700D01*
X141560300Y-83829802D01*
X141555792Y-83826645D01*
X141555789Y-83826643D01*
X141405169Y-83721178D01*
X141372749Y-83698477D01*
X141367767Y-83696154D01*
X141367762Y-83696151D01*
X141170225Y-83604039D01*
X141170224Y-83604039D01*
X141165243Y-83601716D01*
X141159935Y-83600294D01*
X141159933Y-83600293D01*
X140949402Y-83543881D01*
X140949400Y-83543881D01*
X140944087Y-83542457D01*
X140716000Y-83522502D01*
X140487913Y-83542457D01*
X140482600Y-83543881D01*
X140482598Y-83543881D01*
X140272067Y-83600293D01*
X140272065Y-83600294D01*
X140266757Y-83601716D01*
X140261776Y-83604039D01*
X140261775Y-83604039D01*
X140064238Y-83696151D01*
X140064233Y-83696154D01*
X140059251Y-83698477D01*
X140026831Y-83721178D01*
X139876211Y-83826643D01*
X139876208Y-83826645D01*
X139871700Y-83829802D01*
X139709802Y-83991700D01*
X139706643Y-83996211D01*
X139703108Y-84000424D01*
X139702140Y-83999612D01*
X139651506Y-84040090D01*
X139580887Y-84047404D01*
X139517524Y-84015376D01*
X139481536Y-83954177D01*
X139478480Y-83937099D01*
X139478105Y-83933648D01*
X139474479Y-83918396D01*
X139429324Y-83797946D01*
X139420786Y-83782351D01*
X139344285Y-83680276D01*
X139331724Y-83667715D01*
X139229649Y-83591214D01*
X139214054Y-83582676D01*
X139093606Y-83537522D01*
X139078351Y-83533895D01*
X139027486Y-83528369D01*
X139020672Y-83528000D01*
X138448115Y-83528000D01*
X138432876Y-83532475D01*
X138431671Y-83533865D01*
X138430000Y-83541548D01*
X138430000Y-86125884D01*
X137922000Y-86125884D01*
X137922000Y-85108115D01*
X137917525Y-85092876D01*
X137916135Y-85091671D01*
X137908452Y-85090000D01*
X136886116Y-85090000D01*
X136870877Y-85094475D01*
X136869672Y-85095865D01*
X136868001Y-85103548D01*
X136868001Y-85680669D01*
X131063829Y-85680669D01*
X131064198Y-85680300D01*
X131068442Y-85674240D01*
X131162967Y-85539243D01*
X131195523Y-85492749D01*
X131197846Y-85487767D01*
X131197849Y-85487762D01*
X131289961Y-85290225D01*
X131289961Y-85290224D01*
X131292284Y-85285243D01*
X131340970Y-85103548D01*
X131350119Y-85069402D01*
X131350119Y-85069400D01*
X131351543Y-85064087D01*
X131371498Y-84836000D01*
X131351543Y-84607913D01*
X131343028Y-84576135D01*
X131339746Y-84563885D01*
X136868000Y-84563885D01*
X136872475Y-84579124D01*
X136873865Y-84580329D01*
X136881548Y-84582000D01*
X137903885Y-84582000D01*
X137919124Y-84577525D01*
X137920329Y-84576135D01*
X137922000Y-84568452D01*
X137922000Y-83546116D01*
X137917525Y-83530877D01*
X137916135Y-83529672D01*
X137908452Y-83528001D01*
X137331331Y-83528001D01*
X137324510Y-83528371D01*
X137273648Y-83533895D01*
X137258396Y-83537521D01*
X137137946Y-83582676D01*
X137122351Y-83591214D01*
X137020276Y-83667715D01*
X137007715Y-83680276D01*
X136931214Y-83782351D01*
X136922676Y-83797946D01*
X136877522Y-83918394D01*
X136873895Y-83933649D01*
X136868369Y-83984514D01*
X136868000Y-83991328D01*
X136868000Y-84563885D01*
X131339746Y-84563885D01*
X131293707Y-84392067D01*
X131293706Y-84392065D01*
X131292284Y-84386757D01*
X131289961Y-84381775D01*
X131197849Y-84184238D01*
X131197846Y-84184233D01*
X131195523Y-84179251D01*
X131122098Y-84074389D01*
X131067357Y-83996211D01*
X131067355Y-83996208D01*
X131064198Y-83991700D01*
X130902300Y-83829802D01*
X130897792Y-83826645D01*
X130897789Y-83826643D01*
X130747169Y-83721178D01*
X130714749Y-83698477D01*
X130709767Y-83696154D01*
X130709762Y-83696151D01*
X130512225Y-83604039D01*
X130512224Y-83604039D01*
X130507243Y-83601716D01*
X130501935Y-83600294D01*
X130501933Y-83600293D01*
X130291402Y-83543881D01*
X130291400Y-83543881D01*
X130286087Y-83542457D01*
X130058000Y-83522502D01*
X129829913Y-83542457D01*
X129824600Y-83543881D01*
X129824598Y-83543881D01*
X129614067Y-83600293D01*
X129614065Y-83600294D01*
X129608757Y-83601716D01*
X129603776Y-83604039D01*
X129603775Y-83604039D01*
X129406238Y-83696151D01*
X129406233Y-83696154D01*
X129401251Y-83698477D01*
X129368831Y-83721178D01*
X129218211Y-83826643D01*
X129218208Y-83826645D01*
X129213700Y-83829802D01*
X129051802Y-83991700D01*
X129048645Y-83996208D01*
X129048643Y-83996211D01*
X128993902Y-84074389D01*
X128920477Y-84179251D01*
X128918154Y-84184233D01*
X128918151Y-84184238D01*
X128902195Y-84218457D01*
X128855278Y-84271742D01*
X128787001Y-84291203D01*
X128719041Y-84270661D01*
X128673805Y-84218457D01*
X128657849Y-84184238D01*
X128657846Y-84184233D01*
X128655523Y-84179251D01*
X128582098Y-84074389D01*
X128527357Y-83996211D01*
X128527355Y-83996208D01*
X128524198Y-83991700D01*
X128362300Y-83829802D01*
X128357792Y-83826645D01*
X128357789Y-83826643D01*
X128207169Y-83721178D01*
X128174749Y-83698477D01*
X128169767Y-83696154D01*
X128169762Y-83696151D01*
X127972225Y-83604039D01*
X127972224Y-83604039D01*
X127967243Y-83601716D01*
X127961935Y-83600294D01*
X127961933Y-83600293D01*
X127751402Y-83543881D01*
X127751400Y-83543881D01*
X127746087Y-83542457D01*
X127518000Y-83522502D01*
X127289913Y-83542457D01*
X127284600Y-83543881D01*
X127284598Y-83543881D01*
X127074067Y-83600293D01*
X127074065Y-83600294D01*
X127068757Y-83601716D01*
X127063776Y-83604039D01*
X127063775Y-83604039D01*
X126866238Y-83696151D01*
X126866233Y-83696154D01*
X126861251Y-83698477D01*
X126828831Y-83721178D01*
X126678211Y-83826643D01*
X126678208Y-83826645D01*
X126673700Y-83829802D01*
X126511802Y-83991700D01*
X126508645Y-83996208D01*
X126508643Y-83996211D01*
X126453902Y-84074389D01*
X126380477Y-84179251D01*
X126378154Y-84184233D01*
X126378151Y-84184238D01*
X126362195Y-84218457D01*
X126315278Y-84271742D01*
X126247001Y-84291203D01*
X126179041Y-84270661D01*
X126133810Y-84218467D01*
X126133310Y-84217395D01*
X126121500Y-84164135D01*
X126121500Y-83302062D01*
X149138493Y-83302062D01*
X149147789Y-83314077D01*
X149198994Y-83349931D01*
X149208489Y-83355414D01*
X149405947Y-83447490D01*
X149416239Y-83451236D01*
X149626688Y-83507625D01*
X149637481Y-83509528D01*
X149854525Y-83528517D01*
X149865475Y-83528517D01*
X150082519Y-83509528D01*
X150093312Y-83507625D01*
X150303761Y-83451236D01*
X150314053Y-83447490D01*
X150511511Y-83355414D01*
X150521006Y-83349931D01*
X150573048Y-83313491D01*
X150581424Y-83303012D01*
X150574356Y-83289566D01*
X149872812Y-82588022D01*
X149858868Y-82580408D01*
X149857035Y-82580539D01*
X149850420Y-82584790D01*
X149144923Y-83290287D01*
X149138493Y-83302062D01*
X126121500Y-83302062D01*
X126121500Y-83065843D01*
X126141502Y-82997722D01*
X126158405Y-82976748D01*
X126913678Y-82221475D01*
X148547483Y-82221475D01*
X148566472Y-82438519D01*
X148568375Y-82449312D01*
X148624764Y-82659761D01*
X148628510Y-82670053D01*
X148720586Y-82867511D01*
X148726069Y-82877006D01*
X148762509Y-82929048D01*
X148772988Y-82937424D01*
X148786434Y-82930356D01*
X149487978Y-82228812D01*
X149494356Y-82217132D01*
X150224408Y-82217132D01*
X150224539Y-82218965D01*
X150228790Y-82225580D01*
X150934287Y-82931077D01*
X150946062Y-82937507D01*
X150958077Y-82928211D01*
X150993931Y-82877006D01*
X150999414Y-82867511D01*
X151091490Y-82670053D01*
X151095236Y-82659761D01*
X151151625Y-82449312D01*
X151153528Y-82438519D01*
X151172517Y-82221475D01*
X151172517Y-82210525D01*
X151153528Y-81993481D01*
X151151625Y-81982688D01*
X151095236Y-81772239D01*
X151091490Y-81761947D01*
X150999414Y-81564489D01*
X150993931Y-81554994D01*
X150957491Y-81502952D01*
X150947012Y-81494576D01*
X150933566Y-81501644D01*
X150232022Y-82203188D01*
X150224408Y-82217132D01*
X149494356Y-82217132D01*
X149495592Y-82214868D01*
X149495461Y-82213035D01*
X149491210Y-82206420D01*
X148785713Y-81500923D01*
X148773938Y-81494493D01*
X148761923Y-81503789D01*
X148726069Y-81554994D01*
X148720586Y-81564489D01*
X148628510Y-81761947D01*
X148624764Y-81772239D01*
X148568375Y-81982688D01*
X148566472Y-81993481D01*
X148547483Y-82210525D01*
X148547483Y-82221475D01*
X126913678Y-82221475D01*
X128006165Y-81128988D01*
X149138576Y-81128988D01*
X149145644Y-81142434D01*
X149847188Y-81843978D01*
X149861132Y-81851592D01*
X149862965Y-81851461D01*
X149869580Y-81847210D01*
X150575077Y-81141713D01*
X150581507Y-81129938D01*
X150572211Y-81117923D01*
X150521006Y-81082069D01*
X150511511Y-81076586D01*
X150314053Y-80984510D01*
X150303761Y-80980764D01*
X150093312Y-80924375D01*
X150082519Y-80922472D01*
X149865475Y-80903483D01*
X149854525Y-80903483D01*
X149637481Y-80922472D01*
X149626688Y-80924375D01*
X149416239Y-80980764D01*
X149405947Y-80984510D01*
X149208489Y-81076586D01*
X149198994Y-81082069D01*
X149146952Y-81118509D01*
X149138576Y-81128988D01*
X128006165Y-81128988D01*
X128296304Y-80838849D01*
X128302322Y-80833212D01*
X128327072Y-80811507D01*
X128351019Y-80790506D01*
X128405793Y-80721027D01*
X128407853Y-80718483D01*
X128460728Y-80654908D01*
X128460735Y-80654898D01*
X128464425Y-80650461D01*
X128467250Y-80645417D01*
X128469351Y-80642359D01*
X128475552Y-80633079D01*
X128477555Y-80629995D01*
X128481128Y-80625463D01*
X128483812Y-80620362D01*
X128483815Y-80620357D01*
X128522319Y-80547171D01*
X128523894Y-80544271D01*
X128564290Y-80472140D01*
X128564291Y-80472138D01*
X128567114Y-80467097D01*
X128568972Y-80461622D01*
X128570481Y-80458233D01*
X128574889Y-80447974D01*
X128576294Y-80444582D01*
X128578982Y-80439473D01*
X128605214Y-80354994D01*
X128606230Y-80351864D01*
X128632810Y-80273563D01*
X128632810Y-80273561D01*
X128634668Y-80268089D01*
X128635498Y-80262365D01*
X128636365Y-80258753D01*
X128638830Y-80247862D01*
X128639591Y-80244284D01*
X128641304Y-80238766D01*
X128651703Y-80150899D01*
X128652134Y-80147626D01*
X128663997Y-80065816D01*
X128663997Y-80065812D01*
X128664825Y-80060103D01*
X128661597Y-79977946D01*
X128661500Y-79972999D01*
X128661500Y-77887865D01*
X128673310Y-77834605D01*
X128673810Y-77833533D01*
X128720732Y-77780252D01*
X128789011Y-77760797D01*
X128856969Y-77781345D01*
X128902195Y-77833543D01*
X128918151Y-77867762D01*
X128918154Y-77867767D01*
X128920477Y-77872749D01*
X129051802Y-78060300D01*
X129213700Y-78222198D01*
X129218208Y-78225355D01*
X129218211Y-78225357D01*
X129296389Y-78280098D01*
X129401251Y-78353523D01*
X129406233Y-78355846D01*
X129406238Y-78355849D01*
X129483879Y-78392053D01*
X129608757Y-78450284D01*
X129614065Y-78451706D01*
X129614067Y-78451707D01*
X129824598Y-78508119D01*
X129824600Y-78508119D01*
X129829913Y-78509543D01*
X130058000Y-78529498D01*
X130286087Y-78509543D01*
X130291400Y-78508119D01*
X130291402Y-78508119D01*
X130501933Y-78451707D01*
X130501935Y-78451706D01*
X130507243Y-78450284D01*
X130632121Y-78392053D01*
X130709762Y-78355849D01*
X130709767Y-78355846D01*
X130714749Y-78353523D01*
X130819611Y-78280098D01*
X130897789Y-78225357D01*
X130897792Y-78225355D01*
X130902300Y-78222198D01*
X131064198Y-78060300D01*
X131195523Y-77872749D01*
X131197846Y-77867767D01*
X131197849Y-77867762D01*
X131289961Y-77670225D01*
X131289961Y-77670224D01*
X131292284Y-77665243D01*
X131340863Y-77483947D01*
X131350119Y-77449402D01*
X131350119Y-77449400D01*
X131351543Y-77444087D01*
X131371498Y-77216000D01*
X136862502Y-77216000D01*
X136882457Y-77444087D01*
X136883881Y-77449400D01*
X136883881Y-77449402D01*
X136893138Y-77483947D01*
X136941716Y-77665243D01*
X136944039Y-77670224D01*
X136944039Y-77670225D01*
X137036151Y-77867762D01*
X137036154Y-77867767D01*
X137038477Y-77872749D01*
X137169802Y-78060300D01*
X137331700Y-78222198D01*
X137336208Y-78225355D01*
X137336211Y-78225357D01*
X137414389Y-78280098D01*
X137519251Y-78353523D01*
X137524233Y-78355846D01*
X137524238Y-78355849D01*
X137601879Y-78392053D01*
X137726757Y-78450284D01*
X137732065Y-78451706D01*
X137732067Y-78451707D01*
X137942598Y-78508119D01*
X137942600Y-78508119D01*
X137947913Y-78509543D01*
X138176000Y-78529498D01*
X138404087Y-78509543D01*
X138409400Y-78508119D01*
X138409402Y-78508119D01*
X138619933Y-78451707D01*
X138619935Y-78451706D01*
X138625243Y-78450284D01*
X138750121Y-78392053D01*
X138827762Y-78355849D01*
X138827767Y-78355846D01*
X138832749Y-78353523D01*
X138937611Y-78280098D01*
X139015789Y-78225357D01*
X139015792Y-78225355D01*
X139020300Y-78222198D01*
X139182198Y-78060300D01*
X139313523Y-77872749D01*
X139315846Y-77867767D01*
X139315849Y-77867762D01*
X139331805Y-77833543D01*
X139378722Y-77780258D01*
X139446999Y-77760797D01*
X139514959Y-77781339D01*
X139560195Y-77833543D01*
X139576151Y-77867762D01*
X139576154Y-77867767D01*
X139578477Y-77872749D01*
X139709802Y-78060300D01*
X139871700Y-78222198D01*
X139876208Y-78225355D01*
X139876211Y-78225357D01*
X139954389Y-78280098D01*
X140059251Y-78353523D01*
X140064233Y-78355846D01*
X140064238Y-78355849D01*
X140141879Y-78392053D01*
X140266757Y-78450284D01*
X140272065Y-78451706D01*
X140272067Y-78451707D01*
X140482598Y-78508119D01*
X140482600Y-78508119D01*
X140487913Y-78509543D01*
X140716000Y-78529498D01*
X140944087Y-78509543D01*
X140949400Y-78508119D01*
X140949402Y-78508119D01*
X141159933Y-78451707D01*
X141159935Y-78451706D01*
X141165243Y-78450284D01*
X141290121Y-78392053D01*
X141367762Y-78355849D01*
X141367767Y-78355846D01*
X141372749Y-78353523D01*
X141477611Y-78280098D01*
X141555789Y-78225357D01*
X141555792Y-78225355D01*
X141560300Y-78222198D01*
X141722198Y-78060300D01*
X141853523Y-77872749D01*
X141855846Y-77867767D01*
X141855849Y-77867762D01*
X141871805Y-77833543D01*
X141918722Y-77780258D01*
X141986999Y-77760797D01*
X142054959Y-77781339D01*
X142100195Y-77833543D01*
X142116151Y-77867762D01*
X142116154Y-77867767D01*
X142118477Y-77872749D01*
X142249802Y-78060300D01*
X142411700Y-78222198D01*
X142416208Y-78225355D01*
X142416211Y-78225357D01*
X142494389Y-78280098D01*
X142599251Y-78353523D01*
X142604233Y-78355846D01*
X142604238Y-78355849D01*
X142681879Y-78392053D01*
X142806757Y-78450284D01*
X142812065Y-78451706D01*
X142812067Y-78451707D01*
X143022598Y-78508119D01*
X143022600Y-78508119D01*
X143027913Y-78509543D01*
X143256000Y-78529498D01*
X143484087Y-78509543D01*
X143489400Y-78508119D01*
X143489402Y-78508119D01*
X143699933Y-78451707D01*
X143699935Y-78451706D01*
X143705243Y-78450284D01*
X143830121Y-78392053D01*
X143907762Y-78355849D01*
X143907767Y-78355846D01*
X143912749Y-78353523D01*
X144017611Y-78280098D01*
X144095789Y-78225357D01*
X144095792Y-78225355D01*
X144100300Y-78222198D01*
X144262198Y-78060300D01*
X144393523Y-77872749D01*
X144395846Y-77867767D01*
X144395849Y-77867762D01*
X144411805Y-77833543D01*
X144458722Y-77780258D01*
X144526999Y-77760797D01*
X144594959Y-77781339D01*
X144640195Y-77833543D01*
X144656151Y-77867762D01*
X144656154Y-77867767D01*
X144658477Y-77872749D01*
X144789802Y-78060300D01*
X144951700Y-78222198D01*
X144956208Y-78225355D01*
X144956211Y-78225357D01*
X145034389Y-78280098D01*
X145139251Y-78353523D01*
X145144233Y-78355846D01*
X145144238Y-78355849D01*
X145221879Y-78392053D01*
X145346757Y-78450284D01*
X145352065Y-78451706D01*
X145352067Y-78451707D01*
X145562598Y-78508119D01*
X145562600Y-78508119D01*
X145567913Y-78509543D01*
X145796000Y-78529498D01*
X146024087Y-78509543D01*
X146029400Y-78508119D01*
X146029402Y-78508119D01*
X146239933Y-78451707D01*
X146239935Y-78451706D01*
X146245243Y-78450284D01*
X146370121Y-78392053D01*
X146447762Y-78355849D01*
X146447767Y-78355846D01*
X146452749Y-78353523D01*
X146557611Y-78280098D01*
X146635789Y-78225357D01*
X146635792Y-78225355D01*
X146640300Y-78222198D01*
X146802198Y-78060300D01*
X146933523Y-77872749D01*
X146935846Y-77867767D01*
X146935849Y-77867762D01*
X147027961Y-77670225D01*
X147027961Y-77670224D01*
X147030284Y-77665243D01*
X147078863Y-77483947D01*
X147088119Y-77449402D01*
X147088119Y-77449400D01*
X147089543Y-77444087D01*
X147109498Y-77216000D01*
X148546502Y-77216000D01*
X148566457Y-77444087D01*
X148567881Y-77449400D01*
X148567881Y-77449402D01*
X148577138Y-77483947D01*
X148625716Y-77665243D01*
X148628039Y-77670224D01*
X148628039Y-77670225D01*
X148720151Y-77867762D01*
X148720154Y-77867767D01*
X148722477Y-77872749D01*
X148853802Y-78060300D01*
X149015700Y-78222198D01*
X149020208Y-78225355D01*
X149020211Y-78225357D01*
X149098389Y-78280098D01*
X149203251Y-78353523D01*
X149208233Y-78355846D01*
X149208238Y-78355849D01*
X149285879Y-78392053D01*
X149410757Y-78450284D01*
X149416065Y-78451706D01*
X149416067Y-78451707D01*
X149626598Y-78508119D01*
X149626600Y-78508119D01*
X149631913Y-78509543D01*
X149860000Y-78529498D01*
X150088087Y-78509543D01*
X150093400Y-78508119D01*
X150093402Y-78508119D01*
X150303933Y-78451707D01*
X150303935Y-78451706D01*
X150309243Y-78450284D01*
X150434121Y-78392053D01*
X150511762Y-78355849D01*
X150511767Y-78355846D01*
X150516749Y-78353523D01*
X150621611Y-78280098D01*
X150699789Y-78225357D01*
X150699792Y-78225355D01*
X150704300Y-78222198D01*
X150866198Y-78060300D01*
X150997523Y-77872749D01*
X150999846Y-77867767D01*
X150999849Y-77867762D01*
X151091961Y-77670225D01*
X151091961Y-77670224D01*
X151094284Y-77665243D01*
X151142863Y-77483947D01*
X151152119Y-77449402D01*
X151152119Y-77449400D01*
X151153543Y-77444087D01*
X151173498Y-77216000D01*
X151153543Y-76987913D01*
X151120457Y-76864434D01*
X151095707Y-76772067D01*
X151095706Y-76772065D01*
X151094284Y-76766757D01*
X151019622Y-76606642D01*
X150999849Y-76564238D01*
X150999846Y-76564233D01*
X150997523Y-76559251D01*
X150866198Y-76371700D01*
X150704300Y-76209802D01*
X150699792Y-76206645D01*
X150699789Y-76206643D01*
X150621611Y-76151902D01*
X150516749Y-76078477D01*
X150511767Y-76076154D01*
X150511762Y-76076151D01*
X150314225Y-75984039D01*
X150314224Y-75984039D01*
X150309243Y-75981716D01*
X150303935Y-75980294D01*
X150303933Y-75980293D01*
X150093402Y-75923881D01*
X150093400Y-75923881D01*
X150088087Y-75922457D01*
X149860000Y-75902502D01*
X149631913Y-75922457D01*
X149626600Y-75923881D01*
X149626598Y-75923881D01*
X149416067Y-75980293D01*
X149416065Y-75980294D01*
X149410757Y-75981716D01*
X149405776Y-75984039D01*
X149405775Y-75984039D01*
X149208238Y-76076151D01*
X149208233Y-76076154D01*
X149203251Y-76078477D01*
X149098389Y-76151902D01*
X149020211Y-76206643D01*
X149020208Y-76206645D01*
X149015700Y-76209802D01*
X148853802Y-76371700D01*
X148722477Y-76559251D01*
X148720154Y-76564233D01*
X148720151Y-76564238D01*
X148700378Y-76606642D01*
X148625716Y-76766757D01*
X148624294Y-76772065D01*
X148624293Y-76772067D01*
X148599543Y-76864434D01*
X148566457Y-76987913D01*
X148546502Y-77216000D01*
X147109498Y-77216000D01*
X147089543Y-76987913D01*
X147056457Y-76864434D01*
X147031707Y-76772067D01*
X147031706Y-76772065D01*
X147030284Y-76766757D01*
X146955622Y-76606642D01*
X146935849Y-76564238D01*
X146935846Y-76564233D01*
X146933523Y-76559251D01*
X146802198Y-76371700D01*
X146640300Y-76209802D01*
X146635792Y-76206645D01*
X146635789Y-76206643D01*
X146557611Y-76151902D01*
X146452749Y-76078477D01*
X146447767Y-76076154D01*
X146447762Y-76076151D01*
X146250225Y-75984039D01*
X146250224Y-75984039D01*
X146245243Y-75981716D01*
X146239935Y-75980294D01*
X146239933Y-75980293D01*
X146029402Y-75923881D01*
X146029400Y-75923881D01*
X146024087Y-75922457D01*
X145796000Y-75902502D01*
X145567913Y-75922457D01*
X145562600Y-75923881D01*
X145562598Y-75923881D01*
X145352067Y-75980293D01*
X145352065Y-75980294D01*
X145346757Y-75981716D01*
X145341776Y-75984039D01*
X145341775Y-75984039D01*
X145144238Y-76076151D01*
X145144233Y-76076154D01*
X145139251Y-76078477D01*
X145034389Y-76151902D01*
X144956211Y-76206643D01*
X144956208Y-76206645D01*
X144951700Y-76209802D01*
X144789802Y-76371700D01*
X144658477Y-76559251D01*
X144656154Y-76564233D01*
X144656151Y-76564238D01*
X144640195Y-76598457D01*
X144593278Y-76651742D01*
X144525001Y-76671203D01*
X144457041Y-76650661D01*
X144411805Y-76598457D01*
X144395849Y-76564238D01*
X144395846Y-76564233D01*
X144393523Y-76559251D01*
X144262198Y-76371700D01*
X144100300Y-76209802D01*
X144095792Y-76206645D01*
X144095789Y-76206643D01*
X144017611Y-76151902D01*
X143912749Y-76078477D01*
X143907767Y-76076154D01*
X143907762Y-76076151D01*
X143710225Y-75984039D01*
X143710224Y-75984039D01*
X143705243Y-75981716D01*
X143699935Y-75980294D01*
X143699933Y-75980293D01*
X143489402Y-75923881D01*
X143489400Y-75923881D01*
X143484087Y-75922457D01*
X143256000Y-75902502D01*
X143027913Y-75922457D01*
X143022600Y-75923881D01*
X143022598Y-75923881D01*
X142812067Y-75980293D01*
X142812065Y-75980294D01*
X142806757Y-75981716D01*
X142801776Y-75984039D01*
X142801775Y-75984039D01*
X142604238Y-76076151D01*
X142604233Y-76076154D01*
X142599251Y-76078477D01*
X142494389Y-76151902D01*
X142416211Y-76206643D01*
X142416208Y-76206645D01*
X142411700Y-76209802D01*
X142249802Y-76371700D01*
X142118477Y-76559251D01*
X142116154Y-76564233D01*
X142116151Y-76564238D01*
X142100195Y-76598457D01*
X142053278Y-76651742D01*
X141985001Y-76671203D01*
X141917041Y-76650661D01*
X141871805Y-76598457D01*
X141855849Y-76564238D01*
X141855846Y-76564233D01*
X141853523Y-76559251D01*
X141722198Y-76371700D01*
X141560300Y-76209802D01*
X141555792Y-76206645D01*
X141555789Y-76206643D01*
X141477611Y-76151902D01*
X141372749Y-76078477D01*
X141367767Y-76076154D01*
X141367762Y-76076151D01*
X141170225Y-75984039D01*
X141170224Y-75984039D01*
X141165243Y-75981716D01*
X141159935Y-75980294D01*
X141159933Y-75980293D01*
X140949402Y-75923881D01*
X140949400Y-75923881D01*
X140944087Y-75922457D01*
X140716000Y-75902502D01*
X140487913Y-75922457D01*
X140482600Y-75923881D01*
X140482598Y-75923881D01*
X140272067Y-75980293D01*
X140272065Y-75980294D01*
X140266757Y-75981716D01*
X140261776Y-75984039D01*
X140261775Y-75984039D01*
X140064238Y-76076151D01*
X140064233Y-76076154D01*
X140059251Y-76078477D01*
X139954389Y-76151902D01*
X139876211Y-76206643D01*
X139876208Y-76206645D01*
X139871700Y-76209802D01*
X139709802Y-76371700D01*
X139578477Y-76559251D01*
X139576154Y-76564233D01*
X139576151Y-76564238D01*
X139560195Y-76598457D01*
X139513278Y-76651742D01*
X139445001Y-76671203D01*
X139377041Y-76650661D01*
X139331805Y-76598457D01*
X139315849Y-76564238D01*
X139315846Y-76564233D01*
X139313523Y-76559251D01*
X139182198Y-76371700D01*
X139020300Y-76209802D01*
X139015792Y-76206645D01*
X139015789Y-76206643D01*
X138937611Y-76151902D01*
X138832749Y-76078477D01*
X138827767Y-76076154D01*
X138827762Y-76076151D01*
X138630225Y-75984039D01*
X138630224Y-75984039D01*
X138625243Y-75981716D01*
X138619935Y-75980294D01*
X138619933Y-75980293D01*
X138409402Y-75923881D01*
X138409400Y-75923881D01*
X138404087Y-75922457D01*
X138176000Y-75902502D01*
X137947913Y-75922457D01*
X137942600Y-75923881D01*
X137942598Y-75923881D01*
X137732067Y-75980293D01*
X137732065Y-75980294D01*
X137726757Y-75981716D01*
X137721776Y-75984039D01*
X137721775Y-75984039D01*
X137524238Y-76076151D01*
X137524233Y-76076154D01*
X137519251Y-76078477D01*
X137414389Y-76151902D01*
X137336211Y-76206643D01*
X137336208Y-76206645D01*
X137331700Y-76209802D01*
X137169802Y-76371700D01*
X137038477Y-76559251D01*
X137036154Y-76564233D01*
X137036151Y-76564238D01*
X137016378Y-76606642D01*
X136941716Y-76766757D01*
X136940294Y-76772065D01*
X136940293Y-76772067D01*
X136915543Y-76864434D01*
X136882457Y-76987913D01*
X136862502Y-77216000D01*
X131371498Y-77216000D01*
X131351543Y-76987913D01*
X131318457Y-76864434D01*
X131293707Y-76772067D01*
X131293706Y-76772065D01*
X131292284Y-76766757D01*
X131217622Y-76606642D01*
X131197849Y-76564238D01*
X131197846Y-76564233D01*
X131195523Y-76559251D01*
X131064198Y-76371700D01*
X130902300Y-76209802D01*
X130897792Y-76206645D01*
X130897789Y-76206643D01*
X130819611Y-76151902D01*
X130714749Y-76078477D01*
X130709767Y-76076154D01*
X130709762Y-76076151D01*
X130512225Y-75984039D01*
X130512224Y-75984039D01*
X130507243Y-75981716D01*
X130501935Y-75980294D01*
X130501933Y-75980293D01*
X130291402Y-75923881D01*
X130291400Y-75923881D01*
X130286087Y-75922457D01*
X130058000Y-75902502D01*
X129829913Y-75922457D01*
X129824600Y-75923881D01*
X129824598Y-75923881D01*
X129614067Y-75980293D01*
X129614065Y-75980294D01*
X129608757Y-75981716D01*
X129603776Y-75984039D01*
X129603775Y-75984039D01*
X129406238Y-76076151D01*
X129406233Y-76076154D01*
X129401251Y-76078477D01*
X129296389Y-76151902D01*
X129218211Y-76206643D01*
X129218208Y-76206645D01*
X129213700Y-76209802D01*
X129051802Y-76371700D01*
X128920477Y-76559251D01*
X128918154Y-76564233D01*
X128918151Y-76564238D01*
X128902195Y-76598457D01*
X128855278Y-76651742D01*
X128787001Y-76671203D01*
X128719041Y-76650661D01*
X128673805Y-76598457D01*
X128657849Y-76564238D01*
X128657846Y-76564233D01*
X128655523Y-76559251D01*
X128524198Y-76371700D01*
X128362300Y-76209802D01*
X128357792Y-76206645D01*
X128357789Y-76206643D01*
X128279611Y-76151902D01*
X128174749Y-76078477D01*
X128169767Y-76076154D01*
X128169762Y-76076151D01*
X127972225Y-75984039D01*
X127972224Y-75984039D01*
X127967243Y-75981716D01*
X127961935Y-75980294D01*
X127961933Y-75980293D01*
X127751402Y-75923881D01*
X127751400Y-75923881D01*
X127746087Y-75922457D01*
X127518000Y-75902502D01*
X127289913Y-75922457D01*
X127284600Y-75923881D01*
X127284598Y-75923881D01*
X127074067Y-75980293D01*
X127074065Y-75980294D01*
X127068757Y-75981716D01*
X127063776Y-75984039D01*
X127063775Y-75984039D01*
X126866238Y-76076151D01*
X126866233Y-76076154D01*
X126861251Y-76078477D01*
X126756389Y-76151902D01*
X126678211Y-76206643D01*
X126678208Y-76206645D01*
X126673700Y-76209802D01*
X126511802Y-76371700D01*
X126380477Y-76559251D01*
X126378154Y-76564233D01*
X126378151Y-76564238D01*
X126362195Y-76598457D01*
X126315278Y-76651742D01*
X126247001Y-76671203D01*
X126179041Y-76650661D01*
X126133805Y-76598457D01*
X126117849Y-76564238D01*
X126117846Y-76564233D01*
X126115523Y-76559251D01*
X125984198Y-76371700D01*
X125822300Y-76209802D01*
X125817792Y-76206645D01*
X125817789Y-76206643D01*
X125739611Y-76151902D01*
X125634749Y-76078477D01*
X125629767Y-76076154D01*
X125629762Y-76076151D01*
X125432225Y-75984039D01*
X125432224Y-75984039D01*
X125427243Y-75981716D01*
X125421935Y-75980294D01*
X125421933Y-75980293D01*
X125211402Y-75923881D01*
X125211400Y-75923881D01*
X125206087Y-75922457D01*
X124978000Y-75902502D01*
X124749913Y-75922457D01*
X124744600Y-75923881D01*
X124744598Y-75923881D01*
X124534067Y-75980293D01*
X124534065Y-75980294D01*
X124528757Y-75981716D01*
X124523776Y-75984039D01*
X124523775Y-75984039D01*
X124326238Y-76076151D01*
X124326233Y-76076154D01*
X124321251Y-76078477D01*
X124216389Y-76151902D01*
X124138211Y-76206643D01*
X124138208Y-76206645D01*
X124133700Y-76209802D01*
X123971802Y-76371700D01*
X123840477Y-76559251D01*
X123838154Y-76564233D01*
X123838151Y-76564238D01*
X123822195Y-76598457D01*
X123775278Y-76651742D01*
X123707001Y-76671203D01*
X123639041Y-76650661D01*
X123593805Y-76598457D01*
X123577849Y-76564238D01*
X123577846Y-76564233D01*
X123575523Y-76559251D01*
X123444198Y-76371700D01*
X123282300Y-76209802D01*
X123277792Y-76206645D01*
X123277789Y-76206643D01*
X123199611Y-76151902D01*
X123094749Y-76078477D01*
X123089767Y-76076154D01*
X123089762Y-76076151D01*
X122892225Y-75984039D01*
X122892224Y-75984039D01*
X122887243Y-75981716D01*
X122881935Y-75980294D01*
X122881933Y-75980293D01*
X122671402Y-75923881D01*
X122671400Y-75923881D01*
X122666087Y-75922457D01*
X122438000Y-75902502D01*
X122209913Y-75922457D01*
X122204600Y-75923881D01*
X122204598Y-75923881D01*
X121994067Y-75980293D01*
X121994065Y-75980294D01*
X121988757Y-75981716D01*
X121983776Y-75984039D01*
X121983775Y-75984039D01*
X121786238Y-76076151D01*
X121786233Y-76076154D01*
X121781251Y-76078477D01*
X121676389Y-76151902D01*
X121598211Y-76206643D01*
X121598208Y-76206645D01*
X121593700Y-76209802D01*
X121431802Y-76371700D01*
X121300477Y-76559251D01*
X121298154Y-76564233D01*
X121298151Y-76564238D01*
X121278378Y-76606642D01*
X121203716Y-76766757D01*
X121202294Y-76772065D01*
X121202293Y-76772067D01*
X121177543Y-76864434D01*
X121144457Y-76987913D01*
X121124502Y-77216000D01*
X119677498Y-77216000D01*
X119657543Y-76987913D01*
X119624457Y-76864434D01*
X119599707Y-76772067D01*
X119599706Y-76772065D01*
X119598284Y-76766757D01*
X119523622Y-76606642D01*
X119503849Y-76564238D01*
X119503846Y-76564233D01*
X119501523Y-76559251D01*
X119370198Y-76371700D01*
X119208300Y-76209802D01*
X119203792Y-76206645D01*
X119203789Y-76206643D01*
X119125611Y-76151902D01*
X119020749Y-76078477D01*
X119015767Y-76076154D01*
X119015762Y-76076151D01*
X118818225Y-75984039D01*
X118818224Y-75984039D01*
X118813243Y-75981716D01*
X118807935Y-75980294D01*
X118807933Y-75980293D01*
X118597402Y-75923881D01*
X118597400Y-75923881D01*
X118592087Y-75922457D01*
X118364000Y-75902502D01*
X118135913Y-75922457D01*
X118130600Y-75923881D01*
X118130598Y-75923881D01*
X117920067Y-75980293D01*
X117920065Y-75980294D01*
X117914757Y-75981716D01*
X117909776Y-75984039D01*
X117909775Y-75984039D01*
X117712238Y-76076151D01*
X117712233Y-76076154D01*
X117707251Y-76078477D01*
X117602389Y-76151902D01*
X117524211Y-76206643D01*
X117524208Y-76206645D01*
X117519700Y-76209802D01*
X117357802Y-76371700D01*
X117226477Y-76559251D01*
X117224154Y-76564233D01*
X117224151Y-76564238D01*
X117204378Y-76606642D01*
X117129716Y-76766757D01*
X117128294Y-76772065D01*
X117128293Y-76772067D01*
X117103543Y-76864434D01*
X117070457Y-76987913D01*
X117050502Y-77216000D01*
X101962790Y-77216000D01*
X102315077Y-76863713D01*
X102337871Y-76821971D01*
X102340047Y-76811971D01*
X102390253Y-76761773D01*
X102443814Y-76746549D01*
X102444719Y-76746500D01*
X102448134Y-76746500D01*
X102451530Y-76746131D01*
X102451532Y-76746131D01*
X102463879Y-76744790D01*
X102510316Y-76739745D01*
X102646705Y-76688615D01*
X102763261Y-76601261D01*
X102850615Y-76484705D01*
X102901745Y-76348316D01*
X102908500Y-76286134D01*
X102908500Y-74930000D01*
X113494502Y-74930000D01*
X113514457Y-75158087D01*
X113515881Y-75163400D01*
X113515881Y-75163402D01*
X113553963Y-75305523D01*
X113573716Y-75379243D01*
X113576039Y-75384224D01*
X113576039Y-75384225D01*
X113668151Y-75581762D01*
X113668154Y-75581767D01*
X113670477Y-75586749D01*
X113801802Y-75774300D01*
X113963700Y-75936198D01*
X113968208Y-75939355D01*
X113968211Y-75939357D01*
X114026674Y-75980293D01*
X114151251Y-76067523D01*
X114156233Y-76069846D01*
X114156238Y-76069849D01*
X114353775Y-76161961D01*
X114358757Y-76164284D01*
X114364065Y-76165706D01*
X114364067Y-76165707D01*
X114574598Y-76222119D01*
X114574600Y-76222119D01*
X114579913Y-76223543D01*
X114808000Y-76243498D01*
X115036087Y-76223543D01*
X115041400Y-76222119D01*
X115041402Y-76222119D01*
X115251933Y-76165707D01*
X115251935Y-76165706D01*
X115257243Y-76164284D01*
X115262225Y-76161961D01*
X115459762Y-76069849D01*
X115459767Y-76069846D01*
X115464749Y-76067523D01*
X115589326Y-75980293D01*
X115647789Y-75939357D01*
X115647792Y-75939355D01*
X115652300Y-75936198D01*
X115814198Y-75774300D01*
X115945523Y-75586749D01*
X115947846Y-75581767D01*
X115947849Y-75581762D01*
X116039961Y-75384225D01*
X116039961Y-75384224D01*
X116042284Y-75379243D01*
X116062038Y-75305523D01*
X116100119Y-75163402D01*
X116100119Y-75163400D01*
X116101543Y-75158087D01*
X116121498Y-74930000D01*
X116101543Y-74701913D01*
X116077433Y-74611933D01*
X116043707Y-74486067D01*
X116043706Y-74486065D01*
X116042284Y-74480757D01*
X116039961Y-74475775D01*
X115947849Y-74278238D01*
X115947846Y-74278233D01*
X115945523Y-74273251D01*
X115867992Y-74162525D01*
X115817357Y-74090211D01*
X115817355Y-74090208D01*
X115814198Y-74085700D01*
X115652300Y-73923802D01*
X115647792Y-73920645D01*
X115647789Y-73920643D01*
X115569611Y-73865902D01*
X115464749Y-73792477D01*
X115459767Y-73790154D01*
X115459762Y-73790151D01*
X115262225Y-73698039D01*
X115262224Y-73698039D01*
X115257243Y-73695716D01*
X115251935Y-73694294D01*
X115251933Y-73694293D01*
X115123951Y-73660000D01*
X117050502Y-73660000D01*
X117070457Y-73888087D01*
X117071881Y-73893400D01*
X117071881Y-73893402D01*
X117123408Y-74085700D01*
X117129716Y-74109243D01*
X117132039Y-74114224D01*
X117132039Y-74114225D01*
X117224151Y-74311762D01*
X117224154Y-74311767D01*
X117226477Y-74316749D01*
X117229634Y-74321257D01*
X117337829Y-74475775D01*
X117357802Y-74504300D01*
X117519700Y-74666198D01*
X117524208Y-74669355D01*
X117524211Y-74669357D01*
X117570706Y-74701913D01*
X117707251Y-74797523D01*
X117712233Y-74799846D01*
X117712238Y-74799849D01*
X117909775Y-74891961D01*
X117914757Y-74894284D01*
X117920065Y-74895706D01*
X117920067Y-74895707D01*
X118130598Y-74952119D01*
X118130600Y-74952119D01*
X118135913Y-74953543D01*
X118364000Y-74973498D01*
X118592087Y-74953543D01*
X118597400Y-74952119D01*
X118597402Y-74952119D01*
X118807933Y-74895707D01*
X118807935Y-74895706D01*
X118813243Y-74894284D01*
X118818225Y-74891961D01*
X119015762Y-74799849D01*
X119015767Y-74799846D01*
X119020749Y-74797523D01*
X119157294Y-74701913D01*
X119203789Y-74669357D01*
X119203792Y-74669355D01*
X119208300Y-74666198D01*
X119370198Y-74504300D01*
X119390172Y-74475775D01*
X119498366Y-74321257D01*
X119501523Y-74316749D01*
X119503846Y-74311767D01*
X119503849Y-74311762D01*
X119595961Y-74114225D01*
X119595961Y-74114224D01*
X119598284Y-74109243D01*
X119604593Y-74085700D01*
X119656119Y-73893402D01*
X119656119Y-73893400D01*
X119657543Y-73888087D01*
X119677498Y-73660000D01*
X127210502Y-73660000D01*
X127230457Y-73888087D01*
X127231881Y-73893400D01*
X127231881Y-73893402D01*
X127283408Y-74085700D01*
X127289716Y-74109243D01*
X127292039Y-74114224D01*
X127292039Y-74114225D01*
X127384151Y-74311762D01*
X127384154Y-74311767D01*
X127386477Y-74316749D01*
X127389634Y-74321257D01*
X127497829Y-74475775D01*
X127517802Y-74504300D01*
X127679700Y-74666198D01*
X127684208Y-74669355D01*
X127684211Y-74669357D01*
X127730706Y-74701913D01*
X127867251Y-74797523D01*
X127872233Y-74799846D01*
X127872238Y-74799849D01*
X128069775Y-74891961D01*
X128074757Y-74894284D01*
X128080065Y-74895706D01*
X128080067Y-74895707D01*
X128290598Y-74952119D01*
X128290600Y-74952119D01*
X128295913Y-74953543D01*
X128524000Y-74973498D01*
X128752087Y-74953543D01*
X128757400Y-74952119D01*
X128757402Y-74952119D01*
X128967933Y-74895707D01*
X128967935Y-74895706D01*
X128973243Y-74894284D01*
X128978225Y-74891961D01*
X129175762Y-74799849D01*
X129175767Y-74799846D01*
X129180749Y-74797523D01*
X129317294Y-74701913D01*
X129363789Y-74669357D01*
X129363792Y-74669355D01*
X129368300Y-74666198D01*
X129530198Y-74504300D01*
X129550172Y-74475775D01*
X129658366Y-74321257D01*
X129661523Y-74316749D01*
X129663846Y-74311767D01*
X129663849Y-74311762D01*
X129755961Y-74114225D01*
X129755961Y-74114224D01*
X129758284Y-74109243D01*
X129764593Y-74085700D01*
X129816119Y-73893402D01*
X129816119Y-73893400D01*
X129817543Y-73888087D01*
X129837498Y-73660000D01*
X133052502Y-73660000D01*
X133072457Y-73888087D01*
X133073881Y-73893400D01*
X133073881Y-73893402D01*
X133125408Y-74085700D01*
X133131716Y-74109243D01*
X133134039Y-74114224D01*
X133134039Y-74114225D01*
X133226151Y-74311762D01*
X133226154Y-74311767D01*
X133228477Y-74316749D01*
X133231634Y-74321257D01*
X133339829Y-74475775D01*
X133359802Y-74504300D01*
X133521700Y-74666198D01*
X133526208Y-74669355D01*
X133526211Y-74669357D01*
X133572706Y-74701913D01*
X133709251Y-74797523D01*
X133714233Y-74799846D01*
X133714238Y-74799849D01*
X133911775Y-74891961D01*
X133916757Y-74894284D01*
X133922065Y-74895706D01*
X133922067Y-74895707D01*
X134132598Y-74952119D01*
X134132600Y-74952119D01*
X134137913Y-74953543D01*
X134366000Y-74973498D01*
X134594087Y-74953543D01*
X134599400Y-74952119D01*
X134599402Y-74952119D01*
X134809933Y-74895707D01*
X134809935Y-74895706D01*
X134815243Y-74894284D01*
X134820225Y-74891961D01*
X135017762Y-74799849D01*
X135017767Y-74799846D01*
X135022749Y-74797523D01*
X135159294Y-74701913D01*
X135205789Y-74669357D01*
X135205792Y-74669355D01*
X135210300Y-74666198D01*
X135372198Y-74504300D01*
X135392172Y-74475775D01*
X135500366Y-74321257D01*
X135503523Y-74316749D01*
X135505846Y-74311767D01*
X135505849Y-74311762D01*
X135597961Y-74114225D01*
X135597961Y-74114224D01*
X135600284Y-74109243D01*
X135606593Y-74085700D01*
X135658119Y-73893402D01*
X135658119Y-73893400D01*
X135659543Y-73888087D01*
X135679498Y-73660000D01*
X143212502Y-73660000D01*
X143232457Y-73888087D01*
X143233881Y-73893400D01*
X143233881Y-73893402D01*
X143285408Y-74085700D01*
X143291716Y-74109243D01*
X143294039Y-74114224D01*
X143294039Y-74114225D01*
X143386151Y-74311762D01*
X143386154Y-74311767D01*
X143388477Y-74316749D01*
X143391634Y-74321257D01*
X143499829Y-74475775D01*
X143519802Y-74504300D01*
X143681700Y-74666198D01*
X143686208Y-74669355D01*
X143686211Y-74669357D01*
X143732706Y-74701913D01*
X143869251Y-74797523D01*
X143874233Y-74799846D01*
X143874238Y-74799849D01*
X144071775Y-74891961D01*
X144076757Y-74894284D01*
X144082065Y-74895706D01*
X144082067Y-74895707D01*
X144292598Y-74952119D01*
X144292600Y-74952119D01*
X144297913Y-74953543D01*
X144526000Y-74973498D01*
X144754087Y-74953543D01*
X144759400Y-74952119D01*
X144759402Y-74952119D01*
X144969933Y-74895707D01*
X144969935Y-74895706D01*
X144975243Y-74894284D01*
X144980225Y-74891961D01*
X145177762Y-74799849D01*
X145177767Y-74799846D01*
X145182749Y-74797523D01*
X145319294Y-74701913D01*
X145365789Y-74669357D01*
X145365792Y-74669355D01*
X145370300Y-74666198D01*
X145532198Y-74504300D01*
X145552172Y-74475775D01*
X145660366Y-74321257D01*
X145663523Y-74316749D01*
X145665846Y-74311767D01*
X145665849Y-74311762D01*
X145732886Y-74168000D01*
X159214502Y-74168000D01*
X159234457Y-74396087D01*
X159235881Y-74401400D01*
X159235881Y-74401402D01*
X159271824Y-74535540D01*
X159293716Y-74617243D01*
X159296039Y-74622224D01*
X159296039Y-74622225D01*
X159388151Y-74819762D01*
X159388154Y-74819767D01*
X159390477Y-74824749D01*
X159521802Y-75012300D01*
X159667502Y-75158000D01*
X159701528Y-75220312D01*
X159696463Y-75291127D01*
X159653916Y-75347963D01*
X159617263Y-75365132D01*
X159617684Y-75366255D01*
X159481295Y-75417385D01*
X159364739Y-75504739D01*
X159277385Y-75621295D01*
X159226255Y-75757684D01*
X159219500Y-75819866D01*
X159219500Y-77516134D01*
X159226255Y-77578316D01*
X159277385Y-77714705D01*
X159364739Y-77831261D01*
X159481295Y-77918615D01*
X159617684Y-77969745D01*
X159679866Y-77976500D01*
X161376134Y-77976500D01*
X161438316Y-77969745D01*
X161574705Y-77918615D01*
X161691261Y-77831261D01*
X161778615Y-77714705D01*
X161829745Y-77578316D01*
X161836500Y-77516134D01*
X161836500Y-75819866D01*
X161829745Y-75757684D01*
X161778615Y-75621295D01*
X161691261Y-75504739D01*
X161574705Y-75417385D01*
X161438316Y-75366255D01*
X161439046Y-75364309D01*
X161386795Y-75334455D01*
X161353979Y-75271497D01*
X161360409Y-75200793D01*
X161388498Y-75158000D01*
X161534198Y-75012300D01*
X161665523Y-74824749D01*
X161667846Y-74819767D01*
X161667849Y-74819762D01*
X161759961Y-74622225D01*
X161759961Y-74622224D01*
X161762284Y-74617243D01*
X161784177Y-74535540D01*
X161820119Y-74401402D01*
X161820119Y-74401400D01*
X161821543Y-74396087D01*
X161841498Y-74168000D01*
X161821543Y-73939913D01*
X161782883Y-73795634D01*
X161763707Y-73724067D01*
X161763706Y-73724065D01*
X161762284Y-73718757D01*
X161750876Y-73694293D01*
X161667849Y-73516238D01*
X161667846Y-73516233D01*
X161665523Y-73511251D01*
X161534198Y-73323700D01*
X161372300Y-73161802D01*
X161367792Y-73158645D01*
X161367789Y-73158643D01*
X161289611Y-73103902D01*
X161184749Y-73030477D01*
X161179767Y-73028154D01*
X161179762Y-73028151D01*
X160982225Y-72936039D01*
X160982224Y-72936039D01*
X160977243Y-72933716D01*
X160971935Y-72932294D01*
X160971933Y-72932293D01*
X160761402Y-72875881D01*
X160761400Y-72875881D01*
X160756087Y-72874457D01*
X160528000Y-72854502D01*
X160299913Y-72874457D01*
X160294600Y-72875881D01*
X160294598Y-72875881D01*
X160084067Y-72932293D01*
X160084065Y-72932294D01*
X160078757Y-72933716D01*
X160073776Y-72936039D01*
X160073775Y-72936039D01*
X159876238Y-73028151D01*
X159876233Y-73028154D01*
X159871251Y-73030477D01*
X159766389Y-73103902D01*
X159688211Y-73158643D01*
X159688208Y-73158645D01*
X159683700Y-73161802D01*
X159521802Y-73323700D01*
X159390477Y-73511251D01*
X159388154Y-73516233D01*
X159388151Y-73516238D01*
X159305124Y-73694293D01*
X159293716Y-73718757D01*
X159292294Y-73724065D01*
X159292293Y-73724067D01*
X159273117Y-73795634D01*
X159234457Y-73939913D01*
X159214502Y-74168000D01*
X145732886Y-74168000D01*
X145757961Y-74114225D01*
X145757961Y-74114224D01*
X145760284Y-74109243D01*
X145766593Y-74085700D01*
X145818119Y-73893402D01*
X145818119Y-73893400D01*
X145819543Y-73888087D01*
X145839498Y-73660000D01*
X145819543Y-73431913D01*
X145760284Y-73210757D01*
X145675134Y-73028151D01*
X145665849Y-73008238D01*
X145665846Y-73008233D01*
X145663523Y-73003251D01*
X145532198Y-72815700D01*
X145370300Y-72653802D01*
X145365792Y-72650645D01*
X145365789Y-72650643D01*
X145287611Y-72595902D01*
X145182749Y-72522477D01*
X145177767Y-72520154D01*
X145177762Y-72520151D01*
X144980225Y-72428039D01*
X144980224Y-72428039D01*
X144975243Y-72425716D01*
X144969935Y-72424294D01*
X144969933Y-72424293D01*
X144759402Y-72367881D01*
X144759400Y-72367881D01*
X144754087Y-72366457D01*
X144526000Y-72346502D01*
X144297913Y-72366457D01*
X144292600Y-72367881D01*
X144292598Y-72367881D01*
X144082067Y-72424293D01*
X144082065Y-72424294D01*
X144076757Y-72425716D01*
X144071776Y-72428039D01*
X144071775Y-72428039D01*
X143874238Y-72520151D01*
X143874233Y-72520154D01*
X143869251Y-72522477D01*
X143764389Y-72595902D01*
X143686211Y-72650643D01*
X143686208Y-72650645D01*
X143681700Y-72653802D01*
X143519802Y-72815700D01*
X143388477Y-73003251D01*
X143386154Y-73008233D01*
X143386151Y-73008238D01*
X143376866Y-73028151D01*
X143291716Y-73210757D01*
X143232457Y-73431913D01*
X143212502Y-73660000D01*
X135679498Y-73660000D01*
X135659543Y-73431913D01*
X135600284Y-73210757D01*
X135515134Y-73028151D01*
X135505849Y-73008238D01*
X135505846Y-73008233D01*
X135503523Y-73003251D01*
X135372198Y-72815700D01*
X135210300Y-72653802D01*
X135205792Y-72650645D01*
X135205789Y-72650643D01*
X135127611Y-72595902D01*
X135022749Y-72522477D01*
X135017767Y-72520154D01*
X135017762Y-72520151D01*
X134820225Y-72428039D01*
X134820224Y-72428039D01*
X134815243Y-72425716D01*
X134809935Y-72424294D01*
X134809933Y-72424293D01*
X134599402Y-72367881D01*
X134599400Y-72367881D01*
X134594087Y-72366457D01*
X134366000Y-72346502D01*
X134137913Y-72366457D01*
X134132600Y-72367881D01*
X134132598Y-72367881D01*
X133922067Y-72424293D01*
X133922065Y-72424294D01*
X133916757Y-72425716D01*
X133911776Y-72428039D01*
X133911775Y-72428039D01*
X133714238Y-72520151D01*
X133714233Y-72520154D01*
X133709251Y-72522477D01*
X133604389Y-72595902D01*
X133526211Y-72650643D01*
X133526208Y-72650645D01*
X133521700Y-72653802D01*
X133359802Y-72815700D01*
X133228477Y-73003251D01*
X133226154Y-73008233D01*
X133226151Y-73008238D01*
X133216866Y-73028151D01*
X133131716Y-73210757D01*
X133072457Y-73431913D01*
X133052502Y-73660000D01*
X129837498Y-73660000D01*
X129817543Y-73431913D01*
X129758284Y-73210757D01*
X129673134Y-73028151D01*
X129663849Y-73008238D01*
X129663846Y-73008233D01*
X129661523Y-73003251D01*
X129530198Y-72815700D01*
X129368300Y-72653802D01*
X129363792Y-72650645D01*
X129363789Y-72650643D01*
X129285611Y-72595902D01*
X129180749Y-72522477D01*
X129175767Y-72520154D01*
X129175762Y-72520151D01*
X128978225Y-72428039D01*
X128978224Y-72428039D01*
X128973243Y-72425716D01*
X128967935Y-72424294D01*
X128967933Y-72424293D01*
X128757402Y-72367881D01*
X128757400Y-72367881D01*
X128752087Y-72366457D01*
X128524000Y-72346502D01*
X128295913Y-72366457D01*
X128290600Y-72367881D01*
X128290598Y-72367881D01*
X128080067Y-72424293D01*
X128080065Y-72424294D01*
X128074757Y-72425716D01*
X128069776Y-72428039D01*
X128069775Y-72428039D01*
X127872238Y-72520151D01*
X127872233Y-72520154D01*
X127867251Y-72522477D01*
X127762389Y-72595902D01*
X127684211Y-72650643D01*
X127684208Y-72650645D01*
X127679700Y-72653802D01*
X127517802Y-72815700D01*
X127386477Y-73003251D01*
X127384154Y-73008233D01*
X127384151Y-73008238D01*
X127374866Y-73028151D01*
X127289716Y-73210757D01*
X127230457Y-73431913D01*
X127210502Y-73660000D01*
X119677498Y-73660000D01*
X119657543Y-73431913D01*
X119598284Y-73210757D01*
X119513134Y-73028151D01*
X119503849Y-73008238D01*
X119503846Y-73008233D01*
X119501523Y-73003251D01*
X119370198Y-72815700D01*
X119208300Y-72653802D01*
X119203792Y-72650645D01*
X119203789Y-72650643D01*
X119125611Y-72595902D01*
X119020749Y-72522477D01*
X119015767Y-72520154D01*
X119015762Y-72520151D01*
X118818225Y-72428039D01*
X118818224Y-72428039D01*
X118813243Y-72425716D01*
X118807935Y-72424294D01*
X118807933Y-72424293D01*
X118597402Y-72367881D01*
X118597400Y-72367881D01*
X118592087Y-72366457D01*
X118364000Y-72346502D01*
X118135913Y-72366457D01*
X118130600Y-72367881D01*
X118130598Y-72367881D01*
X117920067Y-72424293D01*
X117920065Y-72424294D01*
X117914757Y-72425716D01*
X117909776Y-72428039D01*
X117909775Y-72428039D01*
X117712238Y-72520151D01*
X117712233Y-72520154D01*
X117707251Y-72522477D01*
X117602389Y-72595902D01*
X117524211Y-72650643D01*
X117524208Y-72650645D01*
X117519700Y-72653802D01*
X117357802Y-72815700D01*
X117226477Y-73003251D01*
X117224154Y-73008233D01*
X117224151Y-73008238D01*
X117214866Y-73028151D01*
X117129716Y-73210757D01*
X117070457Y-73431913D01*
X117050502Y-73660000D01*
X115123951Y-73660000D01*
X115041402Y-73637881D01*
X115041400Y-73637881D01*
X115036087Y-73636457D01*
X114808000Y-73616502D01*
X114579913Y-73636457D01*
X114574600Y-73637881D01*
X114574598Y-73637881D01*
X114364067Y-73694293D01*
X114364065Y-73694294D01*
X114358757Y-73695716D01*
X114353776Y-73698039D01*
X114353775Y-73698039D01*
X114156238Y-73790151D01*
X114156233Y-73790154D01*
X114151251Y-73792477D01*
X114046389Y-73865902D01*
X113968211Y-73920643D01*
X113968208Y-73920645D01*
X113963700Y-73923802D01*
X113801802Y-74085700D01*
X113798645Y-74090208D01*
X113798643Y-74090211D01*
X113748008Y-74162525D01*
X113670477Y-74273251D01*
X113668154Y-74278233D01*
X113668151Y-74278238D01*
X113576039Y-74475775D01*
X113573716Y-74480757D01*
X113572294Y-74486065D01*
X113572293Y-74486067D01*
X113538567Y-74611933D01*
X113514457Y-74701913D01*
X113494502Y-74930000D01*
X102908500Y-74930000D01*
X102908500Y-74589866D01*
X102901745Y-74527684D01*
X102850615Y-74391295D01*
X102763261Y-74274739D01*
X102646705Y-74187385D01*
X102510316Y-74136255D01*
X102448134Y-74129500D01*
X100751866Y-74129500D01*
X100689684Y-74136255D01*
X100553295Y-74187385D01*
X100436739Y-74274739D01*
X100349385Y-74391295D01*
X100298255Y-74527684D01*
X100291500Y-74589866D01*
X100291500Y-76286134D01*
X96008500Y-76286134D01*
X96008500Y-71120000D01*
X98254502Y-71120000D01*
X98274457Y-71348087D01*
X98333716Y-71569243D01*
X98336039Y-71574224D01*
X98336039Y-71574225D01*
X98428151Y-71771762D01*
X98428154Y-71771767D01*
X98430477Y-71776749D01*
X98561802Y-71964300D01*
X98723700Y-72126198D01*
X98728208Y-72129355D01*
X98728211Y-72129357D01*
X98806389Y-72184098D01*
X98911251Y-72257523D01*
X98916233Y-72259846D01*
X98916238Y-72259849D01*
X99113775Y-72351961D01*
X99118757Y-72354284D01*
X99124065Y-72355706D01*
X99124067Y-72355707D01*
X99334598Y-72412119D01*
X99334600Y-72412119D01*
X99339913Y-72413543D01*
X99568000Y-72433498D01*
X99796087Y-72413543D01*
X99801400Y-72412119D01*
X99801402Y-72412119D01*
X100011933Y-72355707D01*
X100011935Y-72355706D01*
X100017243Y-72354284D01*
X100022225Y-72351961D01*
X100219762Y-72259849D01*
X100219767Y-72259846D01*
X100224749Y-72257523D01*
X100329611Y-72184098D01*
X100407789Y-72129357D01*
X100407792Y-72129355D01*
X100412300Y-72126198D01*
X100574198Y-71964300D01*
X100705523Y-71776749D01*
X100707846Y-71771767D01*
X100707849Y-71771762D01*
X100799961Y-71574225D01*
X100799961Y-71574224D01*
X100802284Y-71569243D01*
X100861543Y-71348087D01*
X100881498Y-71120000D01*
X108414502Y-71120000D01*
X108434457Y-71348087D01*
X108493716Y-71569243D01*
X108496039Y-71574224D01*
X108496039Y-71574225D01*
X108588151Y-71771762D01*
X108588154Y-71771767D01*
X108590477Y-71776749D01*
X108721802Y-71964300D01*
X108883700Y-72126198D01*
X108888208Y-72129355D01*
X108888211Y-72129357D01*
X108966389Y-72184098D01*
X109071251Y-72257523D01*
X109076233Y-72259846D01*
X109076238Y-72259849D01*
X109273775Y-72351961D01*
X109278757Y-72354284D01*
X109284065Y-72355706D01*
X109284067Y-72355707D01*
X109494598Y-72412119D01*
X109494600Y-72412119D01*
X109499913Y-72413543D01*
X109728000Y-72433498D01*
X109956087Y-72413543D01*
X109961400Y-72412119D01*
X109961402Y-72412119D01*
X110171933Y-72355707D01*
X110171935Y-72355706D01*
X110177243Y-72354284D01*
X110182225Y-72351961D01*
X110379762Y-72259849D01*
X110379767Y-72259846D01*
X110384749Y-72257523D01*
X110489611Y-72184098D01*
X110567789Y-72129357D01*
X110567792Y-72129355D01*
X110572300Y-72126198D01*
X110734198Y-71964300D01*
X110865523Y-71776749D01*
X110867846Y-71771767D01*
X110867849Y-71771762D01*
X110959961Y-71574225D01*
X110959961Y-71574224D01*
X110962284Y-71569243D01*
X111021543Y-71348087D01*
X111041498Y-71120000D01*
X111021543Y-70891913D01*
X110962284Y-70670757D01*
X110959961Y-70665775D01*
X110867849Y-70468238D01*
X110867846Y-70468233D01*
X110865523Y-70463251D01*
X110734198Y-70275700D01*
X110572300Y-70113802D01*
X110567792Y-70110645D01*
X110567789Y-70110643D01*
X110489611Y-70055902D01*
X110384749Y-69982477D01*
X110379767Y-69980154D01*
X110379762Y-69980151D01*
X110182225Y-69888039D01*
X110182224Y-69888039D01*
X110177243Y-69885716D01*
X110171935Y-69884294D01*
X110171933Y-69884293D01*
X110164147Y-69882207D01*
X110103525Y-69845256D01*
X110072503Y-69781395D01*
X110080931Y-69710901D01*
X110126134Y-69656154D01*
X110196758Y-69634500D01*
X110576134Y-69634500D01*
X110638316Y-69627745D01*
X110774705Y-69576615D01*
X110891261Y-69489261D01*
X110978615Y-69372705D01*
X111029745Y-69236316D01*
X111036500Y-69174134D01*
X111036500Y-67477866D01*
X111029745Y-67415684D01*
X110978615Y-67279295D01*
X110891261Y-67162739D01*
X110774705Y-67075385D01*
X110638316Y-67024255D01*
X110576134Y-67017500D01*
X108879866Y-67017500D01*
X108817684Y-67024255D01*
X108681295Y-67075385D01*
X108564739Y-67162739D01*
X108477385Y-67279295D01*
X108426255Y-67415684D01*
X108419500Y-67477866D01*
X108419500Y-69174134D01*
X108426255Y-69236316D01*
X108477385Y-69372705D01*
X108564739Y-69489261D01*
X108681295Y-69576615D01*
X108817684Y-69627745D01*
X108879866Y-69634500D01*
X109259242Y-69634500D01*
X109327363Y-69654502D01*
X109373856Y-69708158D01*
X109383960Y-69778432D01*
X109354466Y-69843012D01*
X109291853Y-69882207D01*
X109284067Y-69884293D01*
X109284065Y-69884294D01*
X109278757Y-69885716D01*
X109273776Y-69888039D01*
X109273775Y-69888039D01*
X109076238Y-69980151D01*
X109076233Y-69980154D01*
X109071251Y-69982477D01*
X108966389Y-70055902D01*
X108888211Y-70110643D01*
X108888208Y-70110645D01*
X108883700Y-70113802D01*
X108721802Y-70275700D01*
X108590477Y-70463251D01*
X108588154Y-70468233D01*
X108588151Y-70468238D01*
X108496039Y-70665775D01*
X108493716Y-70670757D01*
X108434457Y-70891913D01*
X108414502Y-71120000D01*
X100881498Y-71120000D01*
X100861543Y-70891913D01*
X100802284Y-70670757D01*
X100799961Y-70665775D01*
X100707849Y-70468238D01*
X100707846Y-70468233D01*
X100705523Y-70463251D01*
X100574198Y-70275700D01*
X100412300Y-70113802D01*
X100407792Y-70110645D01*
X100407789Y-70110643D01*
X100329611Y-70055902D01*
X100224749Y-69982477D01*
X100219767Y-69980154D01*
X100219762Y-69980151D01*
X100022225Y-69888039D01*
X100022224Y-69888039D01*
X100017243Y-69885716D01*
X100011935Y-69884294D01*
X100011933Y-69884293D01*
X99801402Y-69827881D01*
X99801400Y-69827881D01*
X99796087Y-69826457D01*
X99568000Y-69806502D01*
X99339913Y-69826457D01*
X99334600Y-69827881D01*
X99334598Y-69827881D01*
X99124067Y-69884293D01*
X99124065Y-69884294D01*
X99118757Y-69885716D01*
X99113776Y-69888039D01*
X99113775Y-69888039D01*
X98916238Y-69980151D01*
X98916233Y-69980154D01*
X98911251Y-69982477D01*
X98806389Y-70055902D01*
X98728211Y-70110643D01*
X98728208Y-70110645D01*
X98723700Y-70113802D01*
X98561802Y-70275700D01*
X98430477Y-70463251D01*
X98428154Y-70468233D01*
X98428151Y-70468238D01*
X98336039Y-70665775D01*
X98333716Y-70670757D01*
X98274457Y-70891913D01*
X98254502Y-71120000D01*
X96008500Y-71120000D01*
X96008500Y-66767469D01*
X99933095Y-66767469D01*
X99933392Y-66772622D01*
X99933392Y-66772625D01*
X99939067Y-66871041D01*
X99946427Y-66998697D01*
X99947564Y-67003743D01*
X99947565Y-67003749D01*
X99979741Y-67146523D01*
X99997346Y-67224642D01*
X99999288Y-67229424D01*
X99999289Y-67229428D01*
X100074920Y-67415684D01*
X100084484Y-67439237D01*
X100205501Y-67636719D01*
X100357147Y-67811784D01*
X100535349Y-67959730D01*
X100735322Y-68076584D01*
X100951694Y-68159209D01*
X100956760Y-68160240D01*
X100956761Y-68160240D01*
X101009846Y-68171040D01*
X101178656Y-68205385D01*
X101309324Y-68210176D01*
X101404949Y-68213683D01*
X101404953Y-68213683D01*
X101410113Y-68213872D01*
X101415233Y-68213216D01*
X101415235Y-68213216D01*
X101488270Y-68203860D01*
X101639847Y-68184442D01*
X101644795Y-68182957D01*
X101644802Y-68182956D01*
X101856747Y-68119369D01*
X101861690Y-68117886D01*
X101942236Y-68078427D01*
X102065049Y-68018262D01*
X102065052Y-68018260D01*
X102069684Y-68015991D01*
X102258243Y-67881494D01*
X102422303Y-67718005D01*
X102557458Y-67529917D01*
X102581495Y-67481283D01*
X102657784Y-67326922D01*
X102657785Y-67326920D01*
X102660078Y-67322280D01*
X102727408Y-67100671D01*
X102757640Y-66871041D01*
X102759327Y-66802000D01*
X102753032Y-66725434D01*
X102740773Y-66576318D01*
X102740772Y-66576312D01*
X102740349Y-66571167D01*
X102683925Y-66346533D01*
X102681866Y-66341797D01*
X102593630Y-66138868D01*
X102593628Y-66138865D01*
X102591570Y-66134131D01*
X102465764Y-65939665D01*
X102375486Y-65840450D01*
X102344434Y-65776605D01*
X102352829Y-65706106D01*
X102398005Y-65651338D01*
X102424449Y-65637669D01*
X102484054Y-65615324D01*
X102499649Y-65606786D01*
X102601724Y-65530285D01*
X102614285Y-65517724D01*
X102690786Y-65415649D01*
X102699324Y-65400054D01*
X102744478Y-65279606D01*
X102748105Y-65264351D01*
X102753631Y-65213486D01*
X102754000Y-65206672D01*
X102754000Y-64534115D01*
X102749525Y-64518876D01*
X102748135Y-64517671D01*
X102740452Y-64516000D01*
X99956116Y-64516000D01*
X99940877Y-64520475D01*
X99939672Y-64521865D01*
X99938001Y-64529548D01*
X99938001Y-65206669D01*
X99938371Y-65213490D01*
X99943895Y-65264352D01*
X99947521Y-65279604D01*
X99992676Y-65400054D01*
X100001214Y-65415649D01*
X100077715Y-65517724D01*
X100090276Y-65530285D01*
X100192351Y-65606786D01*
X100207946Y-65615324D01*
X100267540Y-65637665D01*
X100324304Y-65680307D01*
X100349004Y-65746868D01*
X100333796Y-65816217D01*
X100314404Y-65842698D01*
X100247639Y-65912564D01*
X100244725Y-65916836D01*
X100244724Y-65916837D01*
X100229152Y-65939665D01*
X100117119Y-66103899D01*
X100019602Y-66313981D01*
X99957707Y-66537169D01*
X99933095Y-66767469D01*
X96008500Y-66767469D01*
X96008500Y-63989885D01*
X99938000Y-63989885D01*
X99942475Y-64005124D01*
X99943865Y-64006329D01*
X99951548Y-64008000D01*
X101073885Y-64008000D01*
X101089124Y-64003525D01*
X101090329Y-64002135D01*
X101092000Y-63994452D01*
X101092000Y-63989885D01*
X101600000Y-63989885D01*
X101604475Y-64005124D01*
X101605865Y-64006329D01*
X101613548Y-64008000D01*
X102735884Y-64008000D01*
X102751123Y-64003525D01*
X102752328Y-64002135D01*
X102753999Y-63994452D01*
X102753999Y-63913199D01*
X117035500Y-63913199D01*
X117050391Y-64102403D01*
X117109495Y-64348591D01*
X117111388Y-64353162D01*
X117111389Y-64353164D01*
X117184450Y-64529548D01*
X117206384Y-64582502D01*
X117338672Y-64798376D01*
X117503102Y-64990898D01*
X117695624Y-65155328D01*
X117911498Y-65287616D01*
X117916068Y-65289509D01*
X117916072Y-65289511D01*
X118140836Y-65382611D01*
X118145409Y-65384505D01*
X118210176Y-65400054D01*
X118386784Y-65442454D01*
X118386790Y-65442455D01*
X118391597Y-65443609D01*
X118644000Y-65463474D01*
X118896403Y-65443609D01*
X118901210Y-65442455D01*
X118901216Y-65442454D01*
X119077824Y-65400054D01*
X119142591Y-65384505D01*
X119147164Y-65382611D01*
X119371928Y-65289511D01*
X119371932Y-65289509D01*
X119376502Y-65287616D01*
X119592376Y-65155328D01*
X119784898Y-64990898D01*
X119949328Y-64798376D01*
X120081616Y-64582502D01*
X120103551Y-64529548D01*
X120176611Y-64353164D01*
X120176612Y-64353162D01*
X120178505Y-64348591D01*
X120237609Y-64102403D01*
X120252500Y-63913199D01*
X126635500Y-63913199D01*
X126650391Y-64102403D01*
X126709495Y-64348591D01*
X126711388Y-64353162D01*
X126711389Y-64353164D01*
X126784450Y-64529548D01*
X126806384Y-64582502D01*
X126938672Y-64798376D01*
X127103102Y-64990898D01*
X127295624Y-65155328D01*
X127511498Y-65287616D01*
X127516068Y-65289509D01*
X127516072Y-65289511D01*
X127740836Y-65382611D01*
X127745409Y-65384505D01*
X127810176Y-65400054D01*
X127986784Y-65442454D01*
X127986790Y-65442455D01*
X127991597Y-65443609D01*
X128244000Y-65463474D01*
X128496403Y-65443609D01*
X128501210Y-65442455D01*
X128501216Y-65442454D01*
X128677824Y-65400054D01*
X128742591Y-65384505D01*
X128747164Y-65382611D01*
X128971928Y-65289511D01*
X128971932Y-65289509D01*
X128976502Y-65287616D01*
X129192376Y-65155328D01*
X129384898Y-64990898D01*
X129549328Y-64798376D01*
X129681616Y-64582502D01*
X129703551Y-64529548D01*
X129776611Y-64353164D01*
X129776612Y-64353162D01*
X129778505Y-64348591D01*
X129837609Y-64102403D01*
X129852500Y-63913199D01*
X136339500Y-63913199D01*
X136354391Y-64102403D01*
X136413495Y-64348591D01*
X136415388Y-64353162D01*
X136415389Y-64353164D01*
X136488450Y-64529548D01*
X136510384Y-64582502D01*
X136642672Y-64798376D01*
X136807102Y-64990898D01*
X136999624Y-65155328D01*
X137215498Y-65287616D01*
X137220068Y-65289509D01*
X137220072Y-65289511D01*
X137444836Y-65382611D01*
X137449409Y-65384505D01*
X137514176Y-65400054D01*
X137690784Y-65442454D01*
X137690790Y-65442455D01*
X137695597Y-65443609D01*
X137948000Y-65463474D01*
X138200403Y-65443609D01*
X138205210Y-65442455D01*
X138205216Y-65442454D01*
X138381824Y-65400054D01*
X138446591Y-65384505D01*
X138451164Y-65382611D01*
X138675928Y-65289511D01*
X138675932Y-65289509D01*
X138680502Y-65287616D01*
X138896376Y-65155328D01*
X139088898Y-64990898D01*
X139253328Y-64798376D01*
X139385616Y-64582502D01*
X139407551Y-64529548D01*
X139480611Y-64353164D01*
X139480612Y-64353162D01*
X139482505Y-64348591D01*
X139541609Y-64102403D01*
X139556500Y-63913199D01*
X145939500Y-63913199D01*
X145954391Y-64102403D01*
X146013495Y-64348591D01*
X146015388Y-64353162D01*
X146015389Y-64353164D01*
X146088450Y-64529548D01*
X146110384Y-64582502D01*
X146242672Y-64798376D01*
X146407102Y-64990898D01*
X146599624Y-65155328D01*
X146815498Y-65287616D01*
X146820068Y-65289509D01*
X146820072Y-65289511D01*
X147044836Y-65382611D01*
X147049409Y-65384505D01*
X147114176Y-65400054D01*
X147290784Y-65442454D01*
X147290790Y-65442455D01*
X147295597Y-65443609D01*
X147548000Y-65463474D01*
X147800403Y-65443609D01*
X147805210Y-65442455D01*
X147805216Y-65442454D01*
X147981824Y-65400054D01*
X148046591Y-65384505D01*
X148051164Y-65382611D01*
X148275928Y-65289511D01*
X148275932Y-65289509D01*
X148280502Y-65287616D01*
X148496376Y-65155328D01*
X148688898Y-64990898D01*
X148853328Y-64798376D01*
X148985616Y-64582502D01*
X149007551Y-64529548D01*
X149080611Y-64353164D01*
X149080612Y-64353162D01*
X149082505Y-64348591D01*
X149141609Y-64102403D01*
X149156500Y-63913199D01*
X155643500Y-63913199D01*
X155658391Y-64102403D01*
X155717495Y-64348591D01*
X155719388Y-64353162D01*
X155719389Y-64353164D01*
X155792450Y-64529548D01*
X155814384Y-64582502D01*
X155946672Y-64798376D01*
X156111102Y-64990898D01*
X156303624Y-65155328D01*
X156519498Y-65287616D01*
X156524068Y-65289509D01*
X156524072Y-65289511D01*
X156748836Y-65382611D01*
X156753409Y-65384505D01*
X156818176Y-65400054D01*
X156994784Y-65442454D01*
X156994790Y-65442455D01*
X156999597Y-65443609D01*
X157252000Y-65463474D01*
X157504403Y-65443609D01*
X157509210Y-65442455D01*
X157509216Y-65442454D01*
X157685824Y-65400054D01*
X157750591Y-65384505D01*
X157755164Y-65382611D01*
X157979928Y-65289511D01*
X157979932Y-65289509D01*
X157984502Y-65287616D01*
X158200376Y-65155328D01*
X158392898Y-64990898D01*
X158557328Y-64798376D01*
X158689616Y-64582502D01*
X158711551Y-64529548D01*
X158784611Y-64353164D01*
X158784612Y-64353162D01*
X158786505Y-64348591D01*
X158845609Y-64102403D01*
X158860500Y-63913199D01*
X165243500Y-63913199D01*
X165258391Y-64102403D01*
X165317495Y-64348591D01*
X165319388Y-64353162D01*
X165319389Y-64353164D01*
X165392450Y-64529548D01*
X165414384Y-64582502D01*
X165546672Y-64798376D01*
X165711102Y-64990898D01*
X165903624Y-65155328D01*
X166119498Y-65287616D01*
X166124068Y-65289509D01*
X166124072Y-65289511D01*
X166348836Y-65382611D01*
X166353409Y-65384505D01*
X166418176Y-65400054D01*
X166594784Y-65442454D01*
X166594790Y-65442455D01*
X166599597Y-65443609D01*
X166852000Y-65463474D01*
X167104403Y-65443609D01*
X167109210Y-65442455D01*
X167109216Y-65442454D01*
X167285824Y-65400054D01*
X167350591Y-65384505D01*
X167355164Y-65382611D01*
X167579928Y-65289511D01*
X167579932Y-65289509D01*
X167584502Y-65287616D01*
X167800376Y-65155328D01*
X167992898Y-64990898D01*
X168157328Y-64798376D01*
X168289616Y-64582502D01*
X168311551Y-64529548D01*
X168384611Y-64353164D01*
X168384612Y-64353162D01*
X168386505Y-64348591D01*
X168445609Y-64102403D01*
X168460500Y-63913199D01*
X168460500Y-63086801D01*
X168445609Y-62897597D01*
X168437429Y-62863522D01*
X168387660Y-62656221D01*
X168386505Y-62651409D01*
X168384611Y-62646836D01*
X168291511Y-62422072D01*
X168291509Y-62422068D01*
X168289616Y-62417498D01*
X168157328Y-62201624D01*
X167992898Y-62009102D01*
X167800376Y-61844672D01*
X167602168Y-61723210D01*
X167588722Y-61714970D01*
X167584502Y-61712384D01*
X167579932Y-61710491D01*
X167579928Y-61710489D01*
X167355164Y-61617389D01*
X167355162Y-61617388D01*
X167350591Y-61615495D01*
X167265968Y-61595179D01*
X167109216Y-61557546D01*
X167109210Y-61557545D01*
X167104403Y-61556391D01*
X166852000Y-61536526D01*
X166599597Y-61556391D01*
X166594790Y-61557545D01*
X166594784Y-61557546D01*
X166438032Y-61595179D01*
X166353409Y-61615495D01*
X166348838Y-61617388D01*
X166348836Y-61617389D01*
X166124072Y-61710489D01*
X166124068Y-61710491D01*
X166119498Y-61712384D01*
X166115278Y-61714970D01*
X166101832Y-61723210D01*
X165903624Y-61844672D01*
X165711102Y-62009102D01*
X165546672Y-62201624D01*
X165414384Y-62417498D01*
X165412491Y-62422068D01*
X165412489Y-62422072D01*
X165319389Y-62646836D01*
X165317495Y-62651409D01*
X165316340Y-62656221D01*
X165266572Y-62863522D01*
X165258391Y-62897597D01*
X165243500Y-63086801D01*
X165243500Y-63913199D01*
X158860500Y-63913199D01*
X158860500Y-63086801D01*
X158845609Y-62897597D01*
X158837429Y-62863522D01*
X158787660Y-62656221D01*
X158786505Y-62651409D01*
X158784611Y-62646836D01*
X158691511Y-62422072D01*
X158691509Y-62422068D01*
X158689616Y-62417498D01*
X158557328Y-62201624D01*
X158392898Y-62009102D01*
X158200376Y-61844672D01*
X158002168Y-61723210D01*
X157988722Y-61714970D01*
X157984502Y-61712384D01*
X157979932Y-61710491D01*
X157979928Y-61710489D01*
X157755164Y-61617389D01*
X157755162Y-61617388D01*
X157750591Y-61615495D01*
X157665968Y-61595179D01*
X157509216Y-61557546D01*
X157509210Y-61557545D01*
X157504403Y-61556391D01*
X157252000Y-61536526D01*
X156999597Y-61556391D01*
X156994790Y-61557545D01*
X156994784Y-61557546D01*
X156838032Y-61595179D01*
X156753409Y-61615495D01*
X156748838Y-61617388D01*
X156748836Y-61617389D01*
X156524072Y-61710489D01*
X156524068Y-61710491D01*
X156519498Y-61712384D01*
X156515278Y-61714970D01*
X156501832Y-61723210D01*
X156303624Y-61844672D01*
X156111102Y-62009102D01*
X155946672Y-62201624D01*
X155814384Y-62417498D01*
X155812491Y-62422068D01*
X155812489Y-62422072D01*
X155719389Y-62646836D01*
X155717495Y-62651409D01*
X155716340Y-62656221D01*
X155666572Y-62863522D01*
X155658391Y-62897597D01*
X155643500Y-63086801D01*
X155643500Y-63913199D01*
X149156500Y-63913199D01*
X149156500Y-63086801D01*
X149141609Y-62897597D01*
X149133429Y-62863522D01*
X149083660Y-62656221D01*
X149082505Y-62651409D01*
X149080611Y-62646836D01*
X149009046Y-62474062D01*
X151678493Y-62474062D01*
X151687789Y-62486077D01*
X151738994Y-62521931D01*
X151748489Y-62527414D01*
X151945947Y-62619490D01*
X151956239Y-62623236D01*
X152166688Y-62679625D01*
X152177481Y-62681528D01*
X152394525Y-62700517D01*
X152405475Y-62700517D01*
X152622519Y-62681528D01*
X152633312Y-62679625D01*
X152843761Y-62623236D01*
X152854053Y-62619490D01*
X153051511Y-62527414D01*
X153061006Y-62521931D01*
X153113048Y-62485491D01*
X153121424Y-62475012D01*
X153114356Y-62461566D01*
X152412812Y-61760022D01*
X152398868Y-61752408D01*
X152397035Y-61752539D01*
X152390420Y-61756790D01*
X151684923Y-62462287D01*
X151678493Y-62474062D01*
X149009046Y-62474062D01*
X148987511Y-62422072D01*
X148987509Y-62422068D01*
X148985616Y-62417498D01*
X148853328Y-62201624D01*
X148688898Y-62009102D01*
X148496376Y-61844672D01*
X148298168Y-61723210D01*
X148284722Y-61714970D01*
X148280502Y-61712384D01*
X148275932Y-61710491D01*
X148275928Y-61710489D01*
X148051164Y-61617389D01*
X148051162Y-61617388D01*
X148046591Y-61615495D01*
X147961968Y-61595179D01*
X147805216Y-61557546D01*
X147805210Y-61557545D01*
X147800403Y-61556391D01*
X147548000Y-61536526D01*
X147295597Y-61556391D01*
X147290790Y-61557545D01*
X147290784Y-61557546D01*
X147134032Y-61595179D01*
X147049409Y-61615495D01*
X147044838Y-61617388D01*
X147044836Y-61617389D01*
X146820072Y-61710489D01*
X146820068Y-61710491D01*
X146815498Y-61712384D01*
X146811278Y-61714970D01*
X146797832Y-61723210D01*
X146599624Y-61844672D01*
X146407102Y-62009102D01*
X146242672Y-62201624D01*
X146110384Y-62417498D01*
X146108491Y-62422068D01*
X146108489Y-62422072D01*
X146015389Y-62646836D01*
X146013495Y-62651409D01*
X146012340Y-62656221D01*
X145962572Y-62863522D01*
X145954391Y-62897597D01*
X145939500Y-63086801D01*
X145939500Y-63913199D01*
X139556500Y-63913199D01*
X139556500Y-63086801D01*
X139541609Y-62897597D01*
X139533429Y-62863522D01*
X139483660Y-62656221D01*
X139482505Y-62651409D01*
X139480611Y-62646836D01*
X139387511Y-62422072D01*
X139387509Y-62422068D01*
X139385616Y-62417498D01*
X139253328Y-62201624D01*
X139088898Y-62009102D01*
X138896376Y-61844672D01*
X138698168Y-61723210D01*
X138684722Y-61714970D01*
X138680502Y-61712384D01*
X138675932Y-61710491D01*
X138675928Y-61710489D01*
X138451164Y-61617389D01*
X138451162Y-61617388D01*
X138446591Y-61615495D01*
X138361968Y-61595179D01*
X138205216Y-61557546D01*
X138205210Y-61557545D01*
X138200403Y-61556391D01*
X137948000Y-61536526D01*
X137695597Y-61556391D01*
X137690790Y-61557545D01*
X137690784Y-61557546D01*
X137534032Y-61595179D01*
X137449409Y-61615495D01*
X137444838Y-61617388D01*
X137444836Y-61617389D01*
X137220072Y-61710489D01*
X137220068Y-61710491D01*
X137215498Y-61712384D01*
X137211278Y-61714970D01*
X137197832Y-61723210D01*
X136999624Y-61844672D01*
X136807102Y-62009102D01*
X136642672Y-62201624D01*
X136510384Y-62417498D01*
X136508491Y-62422068D01*
X136508489Y-62422072D01*
X136415389Y-62646836D01*
X136413495Y-62651409D01*
X136412340Y-62656221D01*
X136362572Y-62863522D01*
X136354391Y-62897597D01*
X136339500Y-63086801D01*
X136339500Y-63913199D01*
X129852500Y-63913199D01*
X129852500Y-63086801D01*
X129837609Y-62897597D01*
X129829429Y-62863522D01*
X129779660Y-62656221D01*
X129778505Y-62651409D01*
X129776611Y-62646836D01*
X129705046Y-62474062D01*
X132374493Y-62474062D01*
X132383789Y-62486077D01*
X132434994Y-62521931D01*
X132444489Y-62527414D01*
X132641947Y-62619490D01*
X132652239Y-62623236D01*
X132862688Y-62679625D01*
X132873481Y-62681528D01*
X133090525Y-62700517D01*
X133101475Y-62700517D01*
X133318519Y-62681528D01*
X133329312Y-62679625D01*
X133539761Y-62623236D01*
X133550053Y-62619490D01*
X133747511Y-62527414D01*
X133757006Y-62521931D01*
X133809048Y-62485491D01*
X133817424Y-62475012D01*
X133810356Y-62461566D01*
X133108812Y-61760022D01*
X133094868Y-61752408D01*
X133093035Y-61752539D01*
X133086420Y-61756790D01*
X132380923Y-62462287D01*
X132374493Y-62474062D01*
X129705046Y-62474062D01*
X129683511Y-62422072D01*
X129683509Y-62422068D01*
X129681616Y-62417498D01*
X129549328Y-62201624D01*
X129384898Y-62009102D01*
X129192376Y-61844672D01*
X128994168Y-61723210D01*
X128980722Y-61714970D01*
X128976502Y-61712384D01*
X128971932Y-61710491D01*
X128971928Y-61710489D01*
X128747164Y-61617389D01*
X128747162Y-61617388D01*
X128742591Y-61615495D01*
X128657968Y-61595179D01*
X128501216Y-61557546D01*
X128501210Y-61557545D01*
X128496403Y-61556391D01*
X128244000Y-61536526D01*
X127991597Y-61556391D01*
X127986790Y-61557545D01*
X127986784Y-61557546D01*
X127830032Y-61595179D01*
X127745409Y-61615495D01*
X127740838Y-61617388D01*
X127740836Y-61617389D01*
X127516072Y-61710489D01*
X127516068Y-61710491D01*
X127511498Y-61712384D01*
X127507278Y-61714970D01*
X127493832Y-61723210D01*
X127295624Y-61844672D01*
X127103102Y-62009102D01*
X126938672Y-62201624D01*
X126806384Y-62417498D01*
X126804491Y-62422068D01*
X126804489Y-62422072D01*
X126711389Y-62646836D01*
X126709495Y-62651409D01*
X126708340Y-62656221D01*
X126658572Y-62863522D01*
X126650391Y-62897597D01*
X126635500Y-63086801D01*
X126635500Y-63913199D01*
X120252500Y-63913199D01*
X120252500Y-63086801D01*
X120237609Y-62897597D01*
X120229429Y-62863522D01*
X120179660Y-62656221D01*
X120178505Y-62651409D01*
X120176611Y-62646836D01*
X120083511Y-62422072D01*
X120083509Y-62422068D01*
X120081616Y-62417498D01*
X119949328Y-62201624D01*
X119784898Y-62009102D01*
X119592376Y-61844672D01*
X119394168Y-61723210D01*
X119380722Y-61714970D01*
X119376502Y-61712384D01*
X119371932Y-61710491D01*
X119371928Y-61710489D01*
X119147164Y-61617389D01*
X119147162Y-61617388D01*
X119142591Y-61615495D01*
X119057968Y-61595179D01*
X118901216Y-61557546D01*
X118901210Y-61557545D01*
X118896403Y-61556391D01*
X118644000Y-61536526D01*
X118391597Y-61556391D01*
X118386790Y-61557545D01*
X118386784Y-61557546D01*
X118230032Y-61595179D01*
X118145409Y-61615495D01*
X118140838Y-61617388D01*
X118140836Y-61617389D01*
X117916072Y-61710489D01*
X117916068Y-61710491D01*
X117911498Y-61712384D01*
X117907278Y-61714970D01*
X117893832Y-61723210D01*
X117695624Y-61844672D01*
X117503102Y-62009102D01*
X117338672Y-62201624D01*
X117206384Y-62417498D01*
X117204491Y-62422068D01*
X117204489Y-62422072D01*
X117111389Y-62646836D01*
X117109495Y-62651409D01*
X117108340Y-62656221D01*
X117058572Y-62863522D01*
X117050391Y-62897597D01*
X117035500Y-63086801D01*
X117035500Y-63913199D01*
X102753999Y-63913199D01*
X102753999Y-63317331D01*
X102753629Y-63310510D01*
X102748105Y-63259648D01*
X102744479Y-63244396D01*
X102699324Y-63123946D01*
X102690786Y-63108351D01*
X102614285Y-63006276D01*
X102601724Y-62993715D01*
X102499649Y-62917214D01*
X102484054Y-62908676D01*
X102363606Y-62863522D01*
X102348351Y-62859895D01*
X102297486Y-62854369D01*
X102290672Y-62854000D01*
X101618115Y-62854000D01*
X101602876Y-62858475D01*
X101601671Y-62859865D01*
X101600000Y-62867548D01*
X101600000Y-63989885D01*
X101092000Y-63989885D01*
X101092000Y-62872116D01*
X101087525Y-62856877D01*
X101086135Y-62855672D01*
X101078452Y-62854001D01*
X100401331Y-62854001D01*
X100394510Y-62854371D01*
X100343648Y-62859895D01*
X100328396Y-62863521D01*
X100207946Y-62908676D01*
X100192351Y-62917214D01*
X100090276Y-62993715D01*
X100077715Y-63006276D01*
X100001214Y-63108351D01*
X99992676Y-63123946D01*
X99947522Y-63244394D01*
X99943895Y-63259649D01*
X99938369Y-63310514D01*
X99938000Y-63317328D01*
X99938000Y-63989885D01*
X96008500Y-63989885D01*
X96008500Y-60706000D01*
X108414502Y-60706000D01*
X108434457Y-60934087D01*
X108493716Y-61155243D01*
X108496039Y-61160224D01*
X108496039Y-61160225D01*
X108588151Y-61357762D01*
X108588154Y-61357767D01*
X108590477Y-61362749D01*
X108721802Y-61550300D01*
X108883700Y-61712198D01*
X108888208Y-61715355D01*
X108888211Y-61715357D01*
X108966389Y-61770098D01*
X109071251Y-61843523D01*
X109076233Y-61845846D01*
X109076238Y-61845849D01*
X109273775Y-61937961D01*
X109278757Y-61940284D01*
X109284065Y-61941706D01*
X109284067Y-61941707D01*
X109494598Y-61998119D01*
X109494600Y-61998119D01*
X109499913Y-61999543D01*
X109728000Y-62019498D01*
X109956087Y-61999543D01*
X109961400Y-61998119D01*
X109961402Y-61998119D01*
X110171933Y-61941707D01*
X110171935Y-61941706D01*
X110177243Y-61940284D01*
X110182225Y-61937961D01*
X110379762Y-61845849D01*
X110379767Y-61845846D01*
X110384749Y-61843523D01*
X110489611Y-61770098D01*
X110567789Y-61715357D01*
X110567792Y-61715355D01*
X110572300Y-61712198D01*
X110734198Y-61550300D01*
X110844008Y-61393475D01*
X131783483Y-61393475D01*
X131802472Y-61610519D01*
X131804375Y-61621312D01*
X131860764Y-61831761D01*
X131864510Y-61842053D01*
X131956586Y-62039511D01*
X131962069Y-62049006D01*
X131998509Y-62101048D01*
X132008988Y-62109424D01*
X132022434Y-62102356D01*
X132723978Y-61400812D01*
X132730356Y-61389132D01*
X133460408Y-61389132D01*
X133460539Y-61390965D01*
X133464790Y-61397580D01*
X134170287Y-62103077D01*
X134182062Y-62109507D01*
X134194077Y-62100211D01*
X134229931Y-62049006D01*
X134235414Y-62039511D01*
X134327490Y-61842053D01*
X134331236Y-61831761D01*
X134387625Y-61621312D01*
X134389528Y-61610519D01*
X134408517Y-61393475D01*
X151087483Y-61393475D01*
X151106472Y-61610519D01*
X151108375Y-61621312D01*
X151164764Y-61831761D01*
X151168510Y-61842053D01*
X151260586Y-62039511D01*
X151266069Y-62049006D01*
X151302509Y-62101048D01*
X151312988Y-62109424D01*
X151326434Y-62102356D01*
X152027978Y-61400812D01*
X152034356Y-61389132D01*
X152764408Y-61389132D01*
X152764539Y-61390965D01*
X152768790Y-61397580D01*
X153474287Y-62103077D01*
X153486062Y-62109507D01*
X153498077Y-62100211D01*
X153533931Y-62049006D01*
X153539414Y-62039511D01*
X153631490Y-61842053D01*
X153635236Y-61831761D01*
X153691625Y-61621312D01*
X153693528Y-61610519D01*
X153712517Y-61393475D01*
X153712517Y-61382525D01*
X153693528Y-61165481D01*
X153691625Y-61154688D01*
X153635236Y-60944239D01*
X153631490Y-60933947D01*
X153539414Y-60736489D01*
X153533931Y-60726994D01*
X153497491Y-60674952D01*
X153487012Y-60666576D01*
X153473566Y-60673644D01*
X152772022Y-61375188D01*
X152764408Y-61389132D01*
X152034356Y-61389132D01*
X152035592Y-61386868D01*
X152035461Y-61385035D01*
X152031210Y-61378420D01*
X151325713Y-60672923D01*
X151313938Y-60666493D01*
X151301923Y-60675789D01*
X151266069Y-60726994D01*
X151260586Y-60736489D01*
X151168510Y-60933947D01*
X151164764Y-60944239D01*
X151108375Y-61154688D01*
X151106472Y-61165481D01*
X151087483Y-61382525D01*
X151087483Y-61393475D01*
X134408517Y-61393475D01*
X134408517Y-61382525D01*
X134389528Y-61165481D01*
X134387625Y-61154688D01*
X134331236Y-60944239D01*
X134327490Y-60933947D01*
X134235414Y-60736489D01*
X134229931Y-60726994D01*
X134193491Y-60674952D01*
X134183012Y-60666576D01*
X134169566Y-60673644D01*
X133468022Y-61375188D01*
X133460408Y-61389132D01*
X132730356Y-61389132D01*
X132731592Y-61386868D01*
X132731461Y-61385035D01*
X132727210Y-61378420D01*
X132021713Y-60672923D01*
X132009938Y-60666493D01*
X131997923Y-60675789D01*
X131962069Y-60726994D01*
X131956586Y-60736489D01*
X131864510Y-60933947D01*
X131860764Y-60944239D01*
X131804375Y-61154688D01*
X131802472Y-61165481D01*
X131783483Y-61382525D01*
X131783483Y-61393475D01*
X110844008Y-61393475D01*
X110865523Y-61362749D01*
X110867846Y-61357767D01*
X110867849Y-61357762D01*
X110959961Y-61160225D01*
X110959961Y-61160224D01*
X110962284Y-61155243D01*
X111021543Y-60934087D01*
X111041498Y-60706000D01*
X111021543Y-60477913D01*
X110977739Y-60314434D01*
X110974136Y-60300988D01*
X132374576Y-60300988D01*
X132381644Y-60314434D01*
X133083188Y-61015978D01*
X133097132Y-61023592D01*
X133098965Y-61023461D01*
X133105580Y-61019210D01*
X133811077Y-60313713D01*
X133817507Y-60301938D01*
X133816772Y-60300988D01*
X151678576Y-60300988D01*
X151685644Y-60314434D01*
X152387188Y-61015978D01*
X152401132Y-61023592D01*
X152402965Y-61023461D01*
X152409580Y-61019210D01*
X153115077Y-60313713D01*
X153121507Y-60301938D01*
X153112211Y-60289923D01*
X153061006Y-60254069D01*
X153051511Y-60248586D01*
X152854053Y-60156510D01*
X152843761Y-60152764D01*
X152633312Y-60096375D01*
X152622519Y-60094472D01*
X152405475Y-60075483D01*
X152394525Y-60075483D01*
X152177481Y-60094472D01*
X152166688Y-60096375D01*
X151956239Y-60152764D01*
X151945947Y-60156510D01*
X151748489Y-60248586D01*
X151738994Y-60254069D01*
X151686952Y-60290509D01*
X151678576Y-60300988D01*
X133816772Y-60300988D01*
X133808211Y-60289923D01*
X133757006Y-60254069D01*
X133747511Y-60248586D01*
X133550053Y-60156510D01*
X133539761Y-60152764D01*
X133329312Y-60096375D01*
X133318519Y-60094472D01*
X133101475Y-60075483D01*
X133090525Y-60075483D01*
X132873481Y-60094472D01*
X132862688Y-60096375D01*
X132652239Y-60152764D01*
X132641947Y-60156510D01*
X132444489Y-60248586D01*
X132434994Y-60254069D01*
X132382952Y-60290509D01*
X132374576Y-60300988D01*
X110974136Y-60300988D01*
X110963707Y-60262067D01*
X110963706Y-60262065D01*
X110962284Y-60256757D01*
X110958474Y-60248586D01*
X110867849Y-60054238D01*
X110867846Y-60054233D01*
X110865523Y-60049251D01*
X110734198Y-59861700D01*
X110572300Y-59699802D01*
X110567792Y-59696645D01*
X110567789Y-59696643D01*
X110489611Y-59641902D01*
X110384749Y-59568477D01*
X110379767Y-59566154D01*
X110379762Y-59566151D01*
X110182225Y-59474039D01*
X110182224Y-59474039D01*
X110177243Y-59471716D01*
X110171935Y-59470294D01*
X110171933Y-59470293D01*
X109961402Y-59413881D01*
X109961400Y-59413881D01*
X109956087Y-59412457D01*
X109728000Y-59392502D01*
X109499913Y-59412457D01*
X109494600Y-59413881D01*
X109494598Y-59413881D01*
X109284067Y-59470293D01*
X109284065Y-59470294D01*
X109278757Y-59471716D01*
X109273776Y-59474039D01*
X109273775Y-59474039D01*
X109076238Y-59566151D01*
X109076233Y-59566154D01*
X109071251Y-59568477D01*
X108966389Y-59641902D01*
X108888211Y-59696643D01*
X108888208Y-59696645D01*
X108883700Y-59699802D01*
X108721802Y-59861700D01*
X108590477Y-60049251D01*
X108588154Y-60054233D01*
X108588151Y-60054238D01*
X108497526Y-60248586D01*
X108493716Y-60256757D01*
X108492294Y-60262065D01*
X108492293Y-60262067D01*
X108478261Y-60314434D01*
X108434457Y-60477913D01*
X108414502Y-60706000D01*
X96008500Y-60706000D01*
X96008500Y-57430817D01*
X104215514Y-57430817D01*
X104216095Y-57435837D01*
X104216095Y-57435841D01*
X104237668Y-57622284D01*
X104243415Y-57671956D01*
X104244791Y-57676820D01*
X104244792Y-57676823D01*
X104290476Y-57838266D01*
X104309510Y-57905532D01*
X104311644Y-57910108D01*
X104311646Y-57910114D01*
X104368446Y-58031922D01*
X104412099Y-58125536D01*
X104548544Y-58326307D01*
X104715332Y-58502681D01*
X104719358Y-58505759D01*
X104719359Y-58505760D01*
X104904154Y-58647047D01*
X104904158Y-58647050D01*
X104908174Y-58650120D01*
X105122109Y-58764831D01*
X105351631Y-58843862D01*
X105450978Y-58861022D01*
X105586926Y-58884504D01*
X105586932Y-58884505D01*
X105590836Y-58885179D01*
X105594797Y-58885359D01*
X105594798Y-58885359D01*
X105618506Y-58886436D01*
X105618525Y-58886436D01*
X105619925Y-58886500D01*
X107989001Y-58886500D01*
X107991509Y-58886298D01*
X107991514Y-58886298D01*
X108164924Y-58872346D01*
X108164929Y-58872345D01*
X108169965Y-58871940D01*
X108174873Y-58870734D01*
X108174876Y-58870734D01*
X108400792Y-58815244D01*
X108405706Y-58814037D01*
X108410358Y-58812062D01*
X108410362Y-58812061D01*
X108624498Y-58721165D01*
X108629156Y-58719188D01*
X108735037Y-58652511D01*
X108830288Y-58592528D01*
X108830291Y-58592526D01*
X108834567Y-58589833D01*
X108933422Y-58502681D01*
X109012858Y-58432650D01*
X109012861Y-58432647D01*
X109016655Y-58429302D01*
X109170734Y-58241722D01*
X109292841Y-58031922D01*
X109379833Y-57805298D01*
X109405687Y-57681543D01*
X109428440Y-57572631D01*
X109428440Y-57572627D01*
X109429474Y-57567680D01*
X109440486Y-57325183D01*
X109439528Y-57316905D01*
X109413167Y-57089071D01*
X109413166Y-57089067D01*
X109412585Y-57084044D01*
X109410741Y-57077525D01*
X109347866Y-56855331D01*
X109346490Y-56850468D01*
X109344356Y-56845892D01*
X109344354Y-56845886D01*
X109246038Y-56635046D01*
X109246036Y-56635042D01*
X109243901Y-56630464D01*
X109237743Y-56621402D01*
X109110302Y-56433881D01*
X109107456Y-56429693D01*
X108940668Y-56253319D01*
X108936641Y-56250240D01*
X108751846Y-56108953D01*
X108751842Y-56108950D01*
X108747826Y-56105880D01*
X108533891Y-55991169D01*
X108459253Y-55965469D01*
X119531095Y-55965469D01*
X119531392Y-55970622D01*
X119531392Y-55970625D01*
X119544129Y-56191529D01*
X119544427Y-56196697D01*
X119545564Y-56201743D01*
X119545565Y-56201749D01*
X119573724Y-56326698D01*
X119595346Y-56422642D01*
X119597288Y-56427424D01*
X119597289Y-56427428D01*
X119679734Y-56630464D01*
X119682484Y-56637237D01*
X119803501Y-56834719D01*
X119955147Y-57009784D01*
X120133349Y-57157730D01*
X120333322Y-57274584D01*
X120549694Y-57357209D01*
X120554760Y-57358240D01*
X120554761Y-57358240D01*
X120607846Y-57369040D01*
X120776656Y-57403385D01*
X120906089Y-57408131D01*
X121002949Y-57411683D01*
X121002953Y-57411683D01*
X121008113Y-57411872D01*
X121013233Y-57411216D01*
X121013235Y-57411216D01*
X121087166Y-57401745D01*
X121237847Y-57382442D01*
X121242795Y-57380957D01*
X121242802Y-57380956D01*
X121454747Y-57317369D01*
X121459690Y-57315886D01*
X121541161Y-57275974D01*
X121663049Y-57216262D01*
X121663052Y-57216260D01*
X121667684Y-57213991D01*
X121856243Y-57079494D01*
X122020303Y-56916005D01*
X122089370Y-56819888D01*
X122145365Y-56776240D01*
X122216068Y-56769794D01*
X122279033Y-56802597D01*
X122299128Y-56827584D01*
X122300799Y-56830311D01*
X122300802Y-56830315D01*
X122303501Y-56834719D01*
X122455147Y-57009784D01*
X122633349Y-57157730D01*
X122833322Y-57274584D01*
X123049694Y-57357209D01*
X123054760Y-57358240D01*
X123054761Y-57358240D01*
X123107846Y-57369040D01*
X123276656Y-57403385D01*
X123406089Y-57408131D01*
X123502949Y-57411683D01*
X123502953Y-57411683D01*
X123508113Y-57411872D01*
X123513233Y-57411216D01*
X123513235Y-57411216D01*
X123587166Y-57401745D01*
X123737847Y-57382442D01*
X123742795Y-57380957D01*
X123742802Y-57380956D01*
X123954747Y-57317369D01*
X123959690Y-57315886D01*
X124041161Y-57275974D01*
X124163049Y-57216262D01*
X124163052Y-57216260D01*
X124167684Y-57213991D01*
X124356243Y-57079494D01*
X124359900Y-57075850D01*
X124372189Y-57063604D01*
X124434561Y-57029689D01*
X124505368Y-57034878D01*
X124562129Y-57077525D01*
X124579110Y-57108627D01*
X124593385Y-57146705D01*
X124680739Y-57263261D01*
X124797295Y-57350615D01*
X124933684Y-57401745D01*
X124995866Y-57408500D01*
X126892134Y-57408500D01*
X126954316Y-57401745D01*
X127090705Y-57350615D01*
X127207261Y-57263261D01*
X127294615Y-57146705D01*
X127345745Y-57010316D01*
X127352500Y-56948134D01*
X127352500Y-56388000D01*
X131782502Y-56388000D01*
X131802457Y-56616087D01*
X131803881Y-56621400D01*
X131803881Y-56621402D01*
X131859860Y-56830315D01*
X131861716Y-56837243D01*
X131864039Y-56842224D01*
X131864039Y-56842225D01*
X131956151Y-57039762D01*
X131956154Y-57039767D01*
X131958477Y-57044749D01*
X131981427Y-57077525D01*
X132074883Y-57210993D01*
X132089802Y-57232300D01*
X132251700Y-57394198D01*
X132256208Y-57397355D01*
X132256211Y-57397357D01*
X132276004Y-57411216D01*
X132439251Y-57525523D01*
X132444233Y-57527846D01*
X132444238Y-57527849D01*
X132641775Y-57619961D01*
X132646757Y-57622284D01*
X132652065Y-57623706D01*
X132652067Y-57623707D01*
X132862598Y-57680119D01*
X132862600Y-57680119D01*
X132867913Y-57681543D01*
X133096000Y-57701498D01*
X133324087Y-57681543D01*
X133329400Y-57680119D01*
X133329402Y-57680119D01*
X133539933Y-57623707D01*
X133539935Y-57623706D01*
X133545243Y-57622284D01*
X133550225Y-57619961D01*
X133747762Y-57527849D01*
X133747767Y-57527846D01*
X133752749Y-57525523D01*
X133915996Y-57411216D01*
X133935789Y-57397357D01*
X133935792Y-57397355D01*
X133940300Y-57394198D01*
X134102198Y-57232300D01*
X134117118Y-57210993D01*
X134210573Y-57077525D01*
X134233523Y-57044749D01*
X134235846Y-57039767D01*
X134235849Y-57039762D01*
X134327961Y-56842225D01*
X134327961Y-56842224D01*
X134330284Y-56837243D01*
X134332141Y-56830315D01*
X134388119Y-56621402D01*
X134388119Y-56621400D01*
X134389543Y-56616087D01*
X134409498Y-56388000D01*
X134389543Y-56159913D01*
X134347489Y-56002966D01*
X134337442Y-55965469D01*
X138835095Y-55965469D01*
X138835392Y-55970622D01*
X138835392Y-55970625D01*
X138848129Y-56191529D01*
X138848427Y-56196697D01*
X138849564Y-56201743D01*
X138849565Y-56201749D01*
X138877724Y-56326698D01*
X138899346Y-56422642D01*
X138901288Y-56427424D01*
X138901289Y-56427428D01*
X138983734Y-56630464D01*
X138986484Y-56637237D01*
X139107501Y-56834719D01*
X139259147Y-57009784D01*
X139437349Y-57157730D01*
X139637322Y-57274584D01*
X139853694Y-57357209D01*
X139858760Y-57358240D01*
X139858761Y-57358240D01*
X139911846Y-57369040D01*
X140080656Y-57403385D01*
X140210089Y-57408131D01*
X140306949Y-57411683D01*
X140306953Y-57411683D01*
X140312113Y-57411872D01*
X140317233Y-57411216D01*
X140317235Y-57411216D01*
X140391166Y-57401745D01*
X140541847Y-57382442D01*
X140546795Y-57380957D01*
X140546802Y-57380956D01*
X140758747Y-57317369D01*
X140763690Y-57315886D01*
X140845161Y-57275974D01*
X140967049Y-57216262D01*
X140967052Y-57216260D01*
X140971684Y-57213991D01*
X141160243Y-57079494D01*
X141324303Y-56916005D01*
X141393370Y-56819888D01*
X141449365Y-56776240D01*
X141520068Y-56769794D01*
X141583033Y-56802597D01*
X141603128Y-56827584D01*
X141604799Y-56830311D01*
X141604802Y-56830315D01*
X141607501Y-56834719D01*
X141759147Y-57009784D01*
X141937349Y-57157730D01*
X142137322Y-57274584D01*
X142353694Y-57357209D01*
X142358760Y-57358240D01*
X142358761Y-57358240D01*
X142411846Y-57369040D01*
X142580656Y-57403385D01*
X142710089Y-57408131D01*
X142806949Y-57411683D01*
X142806953Y-57411683D01*
X142812113Y-57411872D01*
X142817233Y-57411216D01*
X142817235Y-57411216D01*
X142891166Y-57401745D01*
X143041847Y-57382442D01*
X143046795Y-57380957D01*
X143046802Y-57380956D01*
X143258747Y-57317369D01*
X143263690Y-57315886D01*
X143345161Y-57275974D01*
X143467049Y-57216262D01*
X143467052Y-57216260D01*
X143471684Y-57213991D01*
X143660243Y-57079494D01*
X143663900Y-57075850D01*
X143676189Y-57063604D01*
X143738561Y-57029689D01*
X143809368Y-57034878D01*
X143866129Y-57077525D01*
X143883110Y-57108627D01*
X143897385Y-57146705D01*
X143984739Y-57263261D01*
X144101295Y-57350615D01*
X144237684Y-57401745D01*
X144299866Y-57408500D01*
X146196134Y-57408500D01*
X146258316Y-57401745D01*
X146394705Y-57350615D01*
X146511261Y-57263261D01*
X146598615Y-57146705D01*
X146649745Y-57010316D01*
X146656500Y-56948134D01*
X146656500Y-56388000D01*
X151086502Y-56388000D01*
X151106457Y-56616087D01*
X151107881Y-56621400D01*
X151107881Y-56621402D01*
X151163860Y-56830315D01*
X151165716Y-56837243D01*
X151168039Y-56842224D01*
X151168039Y-56842225D01*
X151260151Y-57039762D01*
X151260154Y-57039767D01*
X151262477Y-57044749D01*
X151285427Y-57077525D01*
X151378883Y-57210993D01*
X151393802Y-57232300D01*
X151555700Y-57394198D01*
X151560208Y-57397355D01*
X151560211Y-57397357D01*
X151580004Y-57411216D01*
X151743251Y-57525523D01*
X151748233Y-57527846D01*
X151748238Y-57527849D01*
X151945775Y-57619961D01*
X151950757Y-57622284D01*
X151956065Y-57623706D01*
X151956067Y-57623707D01*
X152166598Y-57680119D01*
X152166600Y-57680119D01*
X152171913Y-57681543D01*
X152400000Y-57701498D01*
X152628087Y-57681543D01*
X152633400Y-57680119D01*
X152633402Y-57680119D01*
X152843933Y-57623707D01*
X152843935Y-57623706D01*
X152849243Y-57622284D01*
X152854225Y-57619961D01*
X153051762Y-57527849D01*
X153051767Y-57527846D01*
X153056749Y-57525523D01*
X153219996Y-57411216D01*
X153239789Y-57397357D01*
X153239792Y-57397355D01*
X153244300Y-57394198D01*
X153406198Y-57232300D01*
X153421118Y-57210993D01*
X153455839Y-57161406D01*
X158755423Y-57161406D01*
X158760704Y-57168461D01*
X158937080Y-57271527D01*
X158946363Y-57275974D01*
X159153003Y-57354883D01*
X159162901Y-57357759D01*
X159379653Y-57401857D01*
X159389883Y-57403076D01*
X159610914Y-57411182D01*
X159621223Y-57410714D01*
X159840623Y-57382608D01*
X159850688Y-57380468D01*
X160062557Y-57316905D01*
X160072152Y-57313144D01*
X160270778Y-57215838D01*
X160279636Y-57210559D01*
X160337097Y-57169572D01*
X160345497Y-57158874D01*
X160338510Y-57145721D01*
X159564811Y-56372021D01*
X159550868Y-56364408D01*
X159549034Y-56364539D01*
X159542420Y-56368790D01*
X158762180Y-57149031D01*
X158755423Y-57161406D01*
X153455839Y-57161406D01*
X153514573Y-57077525D01*
X153537523Y-57044749D01*
X153539846Y-57039767D01*
X153539849Y-57039762D01*
X153631961Y-56842225D01*
X153631961Y-56842224D01*
X153634284Y-56837243D01*
X153636141Y-56830315D01*
X153692119Y-56621402D01*
X153692119Y-56621400D01*
X153693543Y-56616087D01*
X153713498Y-56388000D01*
X153693543Y-56159913D01*
X153651489Y-56002966D01*
X153642827Y-55970638D01*
X158139893Y-55970638D01*
X158152627Y-56191468D01*
X158154061Y-56201670D01*
X158202685Y-56417439D01*
X158205773Y-56427292D01*
X158288986Y-56632220D01*
X158293634Y-56641421D01*
X158382097Y-56785781D01*
X158392553Y-56795242D01*
X158401331Y-56791458D01*
X159179979Y-56012811D01*
X159186356Y-56001132D01*
X159916408Y-56001132D01*
X159916539Y-56002966D01*
X159920790Y-56009580D01*
X160698307Y-56787096D01*
X160710313Y-56793652D01*
X160719244Y-56786829D01*
X160785519Y-56761370D01*
X160855037Y-56775783D01*
X160903165Y-56821117D01*
X160908800Y-56830311D01*
X160911501Y-56834719D01*
X161063147Y-57009784D01*
X161241349Y-57157730D01*
X161441322Y-57274584D01*
X161657694Y-57357209D01*
X161662760Y-57358240D01*
X161662761Y-57358240D01*
X161715846Y-57369040D01*
X161884656Y-57403385D01*
X162014089Y-57408131D01*
X162110949Y-57411683D01*
X162110953Y-57411683D01*
X162116113Y-57411872D01*
X162121233Y-57411216D01*
X162121235Y-57411216D01*
X162195166Y-57401745D01*
X162345847Y-57382442D01*
X162350795Y-57380957D01*
X162350802Y-57380956D01*
X162562747Y-57317369D01*
X162567690Y-57315886D01*
X162649161Y-57275974D01*
X162771049Y-57216262D01*
X162771052Y-57216260D01*
X162775684Y-57213991D01*
X162964243Y-57079494D01*
X162967900Y-57075850D01*
X162980189Y-57063604D01*
X163042561Y-57029689D01*
X163113368Y-57034878D01*
X163170129Y-57077525D01*
X163187110Y-57108627D01*
X163201385Y-57146705D01*
X163288739Y-57263261D01*
X163405295Y-57350615D01*
X163541684Y-57401745D01*
X163603866Y-57408500D01*
X165500134Y-57408500D01*
X165562316Y-57401745D01*
X165698705Y-57350615D01*
X165815261Y-57263261D01*
X165902615Y-57146705D01*
X165953745Y-57010316D01*
X165960500Y-56948134D01*
X165960500Y-55051866D01*
X165953745Y-54989684D01*
X165902615Y-54853295D01*
X165815261Y-54736739D01*
X165698705Y-54649385D01*
X165562316Y-54598255D01*
X165500134Y-54591500D01*
X163603866Y-54591500D01*
X163541684Y-54598255D01*
X163405295Y-54649385D01*
X163288739Y-54736739D01*
X163201385Y-54853295D01*
X163198234Y-54861701D01*
X163198231Y-54861706D01*
X163186906Y-54891917D01*
X163144266Y-54948682D01*
X163077704Y-54973383D01*
X163008355Y-54958176D01*
X162990832Y-54946571D01*
X162986459Y-54943117D01*
X162921628Y-54891917D01*
X162838177Y-54826011D01*
X162838172Y-54826008D01*
X162834123Y-54822810D01*
X162829607Y-54820317D01*
X162829604Y-54820315D01*
X162635879Y-54713373D01*
X162635875Y-54713371D01*
X162631355Y-54710876D01*
X162626486Y-54709152D01*
X162626482Y-54709150D01*
X162417903Y-54635288D01*
X162417899Y-54635287D01*
X162413028Y-54633562D01*
X162407935Y-54632655D01*
X162407932Y-54632654D01*
X162190095Y-54593851D01*
X162190089Y-54593850D01*
X162185006Y-54592945D01*
X162112096Y-54592054D01*
X161958581Y-54590179D01*
X161958579Y-54590179D01*
X161953411Y-54590116D01*
X161724464Y-54625150D01*
X161504314Y-54697106D01*
X161499726Y-54699494D01*
X161499722Y-54699496D01*
X161365238Y-54769504D01*
X161298872Y-54804052D01*
X161294739Y-54807155D01*
X161294736Y-54807157D01*
X161117790Y-54940012D01*
X161113655Y-54943117D01*
X161110083Y-54946855D01*
X160966223Y-55097396D01*
X160953639Y-55110564D01*
X160950730Y-55114829D01*
X160950724Y-55114837D01*
X160902199Y-55185972D01*
X160847288Y-55230975D01*
X160776763Y-55239146D01*
X160715884Y-55210439D01*
X160710538Y-55205835D01*
X160700973Y-55210238D01*
X159924021Y-55987189D01*
X159916408Y-56001132D01*
X159186356Y-56001132D01*
X159187592Y-55998868D01*
X159187461Y-55997034D01*
X159183210Y-55990420D01*
X158405862Y-55213073D01*
X158394330Y-55206776D01*
X158382048Y-55216399D01*
X158326467Y-55297877D01*
X158321379Y-55306833D01*
X158228252Y-55507459D01*
X158224689Y-55517146D01*
X158165581Y-55730280D01*
X158163650Y-55740400D01*
X158140145Y-55960349D01*
X158139893Y-55970638D01*
X153642827Y-55970638D01*
X153635707Y-55944067D01*
X153635706Y-55944065D01*
X153634284Y-55938757D01*
X153631961Y-55933775D01*
X153539849Y-55736238D01*
X153539846Y-55736233D01*
X153537523Y-55731251D01*
X153406198Y-55543700D01*
X153244300Y-55381802D01*
X153239792Y-55378645D01*
X153239789Y-55378643D01*
X153124080Y-55297623D01*
X153056749Y-55250477D01*
X153051767Y-55248154D01*
X153051762Y-55248151D01*
X152854225Y-55156039D01*
X152854224Y-55156039D01*
X152849243Y-55153716D01*
X152843935Y-55152294D01*
X152843933Y-55152293D01*
X152633402Y-55095881D01*
X152633400Y-55095881D01*
X152628087Y-55094457D01*
X152400000Y-55074502D01*
X152171913Y-55094457D01*
X152166600Y-55095881D01*
X152166598Y-55095881D01*
X151956067Y-55152293D01*
X151956065Y-55152294D01*
X151950757Y-55153716D01*
X151945776Y-55156039D01*
X151945775Y-55156039D01*
X151748238Y-55248151D01*
X151748233Y-55248154D01*
X151743251Y-55250477D01*
X151675920Y-55297623D01*
X151560211Y-55378643D01*
X151560208Y-55378645D01*
X151555700Y-55381802D01*
X151393802Y-55543700D01*
X151262477Y-55731251D01*
X151260154Y-55736233D01*
X151260151Y-55736238D01*
X151168039Y-55933775D01*
X151165716Y-55938757D01*
X151164294Y-55944065D01*
X151164293Y-55944067D01*
X151148511Y-56002966D01*
X151106457Y-56159913D01*
X151086502Y-56388000D01*
X146656500Y-56388000D01*
X146656500Y-55051866D01*
X146649745Y-54989684D01*
X146598615Y-54853295D01*
X146589184Y-54840711D01*
X158757508Y-54840711D01*
X158764251Y-54853040D01*
X159539189Y-55627979D01*
X159553132Y-55635592D01*
X159554966Y-55635461D01*
X159561580Y-55631210D01*
X160340994Y-54851795D01*
X160348011Y-54838944D01*
X160340237Y-54828274D01*
X160337902Y-54826430D01*
X160329320Y-54820729D01*
X160135678Y-54713833D01*
X160126272Y-54709606D01*
X159917772Y-54635772D01*
X159907809Y-54633140D01*
X159690047Y-54594350D01*
X159679796Y-54593381D01*
X159458616Y-54590679D01*
X159448332Y-54591399D01*
X159229693Y-54624855D01*
X159219666Y-54627244D01*
X159009426Y-54695961D01*
X158999916Y-54699958D01*
X158803725Y-54802089D01*
X158795007Y-54807578D01*
X158765961Y-54829386D01*
X158757508Y-54840711D01*
X146589184Y-54840711D01*
X146511261Y-54736739D01*
X146394705Y-54649385D01*
X146258316Y-54598255D01*
X146196134Y-54591500D01*
X144299866Y-54591500D01*
X144237684Y-54598255D01*
X144101295Y-54649385D01*
X143984739Y-54736739D01*
X143897385Y-54853295D01*
X143894234Y-54861701D01*
X143894231Y-54861706D01*
X143882906Y-54891917D01*
X143840266Y-54948682D01*
X143773704Y-54973383D01*
X143704355Y-54958176D01*
X143686832Y-54946571D01*
X143682459Y-54943117D01*
X143617628Y-54891917D01*
X143534177Y-54826011D01*
X143534172Y-54826008D01*
X143530123Y-54822810D01*
X143525607Y-54820317D01*
X143525604Y-54820315D01*
X143331879Y-54713373D01*
X143331875Y-54713371D01*
X143327355Y-54710876D01*
X143322486Y-54709152D01*
X143322482Y-54709150D01*
X143113903Y-54635288D01*
X143113899Y-54635287D01*
X143109028Y-54633562D01*
X143103935Y-54632655D01*
X143103932Y-54632654D01*
X142886095Y-54593851D01*
X142886089Y-54593850D01*
X142881006Y-54592945D01*
X142808096Y-54592054D01*
X142654581Y-54590179D01*
X142654579Y-54590179D01*
X142649411Y-54590116D01*
X142420464Y-54625150D01*
X142200314Y-54697106D01*
X142195726Y-54699494D01*
X142195722Y-54699496D01*
X142061238Y-54769504D01*
X141994872Y-54804052D01*
X141990739Y-54807155D01*
X141990736Y-54807157D01*
X141813790Y-54940012D01*
X141809655Y-54943117D01*
X141806083Y-54946855D01*
X141662223Y-55097396D01*
X141649639Y-55110564D01*
X141602836Y-55179174D01*
X141547927Y-55224175D01*
X141477402Y-55232346D01*
X141413655Y-55201092D01*
X141392959Y-55176609D01*
X141370577Y-55142013D01*
X141370576Y-55142012D01*
X141367764Y-55137665D01*
X141361143Y-55130388D01*
X141240260Y-54997540D01*
X141211887Y-54966358D01*
X141207836Y-54963159D01*
X141207832Y-54963155D01*
X141034177Y-54826011D01*
X141034172Y-54826008D01*
X141030123Y-54822810D01*
X141025607Y-54820317D01*
X141025604Y-54820315D01*
X140831879Y-54713373D01*
X140831875Y-54713371D01*
X140827355Y-54710876D01*
X140822486Y-54709152D01*
X140822482Y-54709150D01*
X140613903Y-54635288D01*
X140613899Y-54635287D01*
X140609028Y-54633562D01*
X140603935Y-54632655D01*
X140603932Y-54632654D01*
X140386095Y-54593851D01*
X140386089Y-54593850D01*
X140381006Y-54592945D01*
X140308096Y-54592054D01*
X140154581Y-54590179D01*
X140154579Y-54590179D01*
X140149411Y-54590116D01*
X139920464Y-54625150D01*
X139700314Y-54697106D01*
X139695726Y-54699494D01*
X139695722Y-54699496D01*
X139561238Y-54769504D01*
X139494872Y-54804052D01*
X139490739Y-54807155D01*
X139490736Y-54807157D01*
X139313790Y-54940012D01*
X139309655Y-54943117D01*
X139306083Y-54946855D01*
X139162223Y-55097396D01*
X139149639Y-55110564D01*
X139146730Y-55114829D01*
X139146724Y-55114837D01*
X139112693Y-55164725D01*
X139019119Y-55301899D01*
X138921602Y-55511981D01*
X138859707Y-55735169D01*
X138835095Y-55965469D01*
X134337442Y-55965469D01*
X134331707Y-55944067D01*
X134331706Y-55944065D01*
X134330284Y-55938757D01*
X134327961Y-55933775D01*
X134235849Y-55736238D01*
X134235846Y-55736233D01*
X134233523Y-55731251D01*
X134102198Y-55543700D01*
X133940300Y-55381802D01*
X133935792Y-55378645D01*
X133935789Y-55378643D01*
X133820080Y-55297623D01*
X133752749Y-55250477D01*
X133747767Y-55248154D01*
X133747762Y-55248151D01*
X133550225Y-55156039D01*
X133550224Y-55156039D01*
X133545243Y-55153716D01*
X133539935Y-55152294D01*
X133539933Y-55152293D01*
X133329402Y-55095881D01*
X133329400Y-55095881D01*
X133324087Y-55094457D01*
X133096000Y-55074502D01*
X132867913Y-55094457D01*
X132862600Y-55095881D01*
X132862598Y-55095881D01*
X132652067Y-55152293D01*
X132652065Y-55152294D01*
X132646757Y-55153716D01*
X132641776Y-55156039D01*
X132641775Y-55156039D01*
X132444238Y-55248151D01*
X132444233Y-55248154D01*
X132439251Y-55250477D01*
X132371920Y-55297623D01*
X132256211Y-55378643D01*
X132256208Y-55378645D01*
X132251700Y-55381802D01*
X132089802Y-55543700D01*
X131958477Y-55731251D01*
X131956154Y-55736233D01*
X131956151Y-55736238D01*
X131864039Y-55933775D01*
X131861716Y-55938757D01*
X131860294Y-55944065D01*
X131860293Y-55944067D01*
X131844511Y-56002966D01*
X131802457Y-56159913D01*
X131782502Y-56388000D01*
X127352500Y-56388000D01*
X127352500Y-55051866D01*
X127345745Y-54989684D01*
X127294615Y-54853295D01*
X127207261Y-54736739D01*
X127090705Y-54649385D01*
X126954316Y-54598255D01*
X126892134Y-54591500D01*
X124995866Y-54591500D01*
X124933684Y-54598255D01*
X124797295Y-54649385D01*
X124680739Y-54736739D01*
X124593385Y-54853295D01*
X124590234Y-54861701D01*
X124590231Y-54861706D01*
X124578906Y-54891917D01*
X124536266Y-54948682D01*
X124469704Y-54973383D01*
X124400355Y-54958176D01*
X124382832Y-54946571D01*
X124378459Y-54943117D01*
X124313628Y-54891917D01*
X124230177Y-54826011D01*
X124230172Y-54826008D01*
X124226123Y-54822810D01*
X124221607Y-54820317D01*
X124221604Y-54820315D01*
X124027879Y-54713373D01*
X124027875Y-54713371D01*
X124023355Y-54710876D01*
X124018486Y-54709152D01*
X124018482Y-54709150D01*
X123809903Y-54635288D01*
X123809899Y-54635287D01*
X123805028Y-54633562D01*
X123799935Y-54632655D01*
X123799932Y-54632654D01*
X123582095Y-54593851D01*
X123582089Y-54593850D01*
X123577006Y-54592945D01*
X123504096Y-54592054D01*
X123350581Y-54590179D01*
X123350579Y-54590179D01*
X123345411Y-54590116D01*
X123116464Y-54625150D01*
X122896314Y-54697106D01*
X122891726Y-54699494D01*
X122891722Y-54699496D01*
X122757238Y-54769504D01*
X122690872Y-54804052D01*
X122686739Y-54807155D01*
X122686736Y-54807157D01*
X122509790Y-54940012D01*
X122505655Y-54943117D01*
X122502083Y-54946855D01*
X122358223Y-55097396D01*
X122345639Y-55110564D01*
X122298836Y-55179174D01*
X122243927Y-55224175D01*
X122173402Y-55232346D01*
X122109655Y-55201092D01*
X122088959Y-55176609D01*
X122066577Y-55142013D01*
X122066576Y-55142012D01*
X122063764Y-55137665D01*
X122057143Y-55130388D01*
X121936260Y-54997540D01*
X121907887Y-54966358D01*
X121903836Y-54963159D01*
X121903832Y-54963155D01*
X121730177Y-54826011D01*
X121730172Y-54826008D01*
X121726123Y-54822810D01*
X121721607Y-54820317D01*
X121721604Y-54820315D01*
X121527879Y-54713373D01*
X121527875Y-54713371D01*
X121523355Y-54710876D01*
X121518486Y-54709152D01*
X121518482Y-54709150D01*
X121309903Y-54635288D01*
X121309899Y-54635287D01*
X121305028Y-54633562D01*
X121299935Y-54632655D01*
X121299932Y-54632654D01*
X121082095Y-54593851D01*
X121082089Y-54593850D01*
X121077006Y-54592945D01*
X121004096Y-54592054D01*
X120850581Y-54590179D01*
X120850579Y-54590179D01*
X120845411Y-54590116D01*
X120616464Y-54625150D01*
X120396314Y-54697106D01*
X120391726Y-54699494D01*
X120391722Y-54699496D01*
X120257238Y-54769504D01*
X120190872Y-54804052D01*
X120186739Y-54807155D01*
X120186736Y-54807157D01*
X120009790Y-54940012D01*
X120005655Y-54943117D01*
X120002083Y-54946855D01*
X119858223Y-55097396D01*
X119845639Y-55110564D01*
X119842730Y-55114829D01*
X119842724Y-55114837D01*
X119808693Y-55164725D01*
X119715119Y-55301899D01*
X119617602Y-55511981D01*
X119555707Y-55735169D01*
X119531095Y-55965469D01*
X108459253Y-55965469D01*
X108304369Y-55912138D01*
X108205022Y-55894978D01*
X108069074Y-55871496D01*
X108069068Y-55871495D01*
X108065164Y-55870821D01*
X108061203Y-55870641D01*
X108061202Y-55870641D01*
X108037494Y-55869564D01*
X108037475Y-55869564D01*
X108036075Y-55869500D01*
X105666999Y-55869500D01*
X105664491Y-55869702D01*
X105664486Y-55869702D01*
X105491076Y-55883654D01*
X105491071Y-55883655D01*
X105486035Y-55884060D01*
X105481127Y-55885266D01*
X105481124Y-55885266D01*
X105365007Y-55913787D01*
X105250294Y-55941963D01*
X105245642Y-55943938D01*
X105245638Y-55943939D01*
X105134372Y-55991169D01*
X105026844Y-56036812D01*
X105022560Y-56039510D01*
X104825712Y-56163472D01*
X104825709Y-56163474D01*
X104821433Y-56166167D01*
X104792665Y-56191529D01*
X104643142Y-56323350D01*
X104643139Y-56323353D01*
X104639345Y-56326698D01*
X104636135Y-56330606D01*
X104636134Y-56330607D01*
X104556717Y-56427292D01*
X104485266Y-56514278D01*
X104363159Y-56724078D01*
X104361346Y-56728801D01*
X104289486Y-56916005D01*
X104276167Y-56950702D01*
X104275133Y-56955652D01*
X104275132Y-56955655D01*
X104230443Y-57169572D01*
X104226526Y-57188320D01*
X104215514Y-57430817D01*
X96008500Y-57430817D01*
X96008500Y-53736456D01*
X101920000Y-53736456D01*
X101920202Y-53741488D01*
X101934150Y-53914843D01*
X101935762Y-53924796D01*
X101991233Y-54150633D01*
X101994416Y-54160203D01*
X102085280Y-54374265D01*
X102089955Y-54383207D01*
X102213874Y-54579987D01*
X102219914Y-54588060D01*
X102373703Y-54762500D01*
X102380956Y-54769504D01*
X102560654Y-54917110D01*
X102568936Y-54922866D01*
X102769919Y-55039841D01*
X102779024Y-55044203D01*
X102996115Y-55127537D01*
X103005804Y-55130388D01*
X103156264Y-55161821D01*
X103170325Y-55160698D01*
X103174000Y-55150590D01*
X103174000Y-55148590D01*
X103682000Y-55148590D01*
X103686136Y-55162676D01*
X103699114Y-55164725D01*
X103716830Y-55162675D01*
X103726727Y-55160715D01*
X103950494Y-55097396D01*
X103959938Y-55093884D01*
X104170705Y-54995601D01*
X104179471Y-54990622D01*
X104274361Y-54926134D01*
X108219500Y-54926134D01*
X108226255Y-54988316D01*
X108277385Y-55124705D01*
X108364739Y-55241261D01*
X108481295Y-55328615D01*
X108617684Y-55379745D01*
X108679866Y-55386500D01*
X110776134Y-55386500D01*
X110838316Y-55379745D01*
X110974705Y-55328615D01*
X111091261Y-55241261D01*
X111178615Y-55124705D01*
X111229745Y-54988316D01*
X111236500Y-54926134D01*
X111236500Y-50229866D01*
X111229745Y-50167684D01*
X111178615Y-50031295D01*
X111091261Y-49914739D01*
X110974705Y-49827385D01*
X110838316Y-49776255D01*
X110776134Y-49769500D01*
X108679866Y-49769500D01*
X108617684Y-49776255D01*
X108481295Y-49827385D01*
X108364739Y-49914739D01*
X108277385Y-50031295D01*
X108226255Y-50167684D01*
X108219500Y-50229866D01*
X108219500Y-54926134D01*
X104274361Y-54926134D01*
X104371802Y-54859913D01*
X104379677Y-54853581D01*
X104548626Y-54693814D01*
X104555387Y-54686305D01*
X104696625Y-54501574D01*
X104702089Y-54493095D01*
X104811978Y-54288153D01*
X104816020Y-54278901D01*
X104891727Y-54059029D01*
X104894236Y-54049257D01*
X104934004Y-53819029D01*
X104934859Y-53811157D01*
X104935936Y-53787449D01*
X104936000Y-53784616D01*
X104936000Y-52850115D01*
X104931525Y-52834876D01*
X104930135Y-52833671D01*
X104922452Y-52832000D01*
X103700115Y-52832000D01*
X103684876Y-52836475D01*
X103683671Y-52837865D01*
X103682000Y-52845548D01*
X103682000Y-55148590D01*
X103174000Y-55148590D01*
X103174000Y-52850115D01*
X103169525Y-52834876D01*
X103168135Y-52833671D01*
X103160452Y-52832000D01*
X101938115Y-52832000D01*
X101922876Y-52836475D01*
X101921671Y-52837865D01*
X101920000Y-52845548D01*
X101920000Y-53736456D01*
X96008500Y-53736456D01*
X96008500Y-52305885D01*
X101920000Y-52305885D01*
X101924475Y-52321124D01*
X101925865Y-52322329D01*
X101933548Y-52324000D01*
X103155885Y-52324000D01*
X103171124Y-52319525D01*
X103172329Y-52318135D01*
X103174000Y-52310452D01*
X103174000Y-52305885D01*
X103682000Y-52305885D01*
X103686475Y-52321124D01*
X103687865Y-52322329D01*
X103695548Y-52324000D01*
X104917885Y-52324000D01*
X104933124Y-52319525D01*
X104934329Y-52318135D01*
X104936000Y-52310452D01*
X104936000Y-51419544D01*
X104935798Y-51414512D01*
X104921850Y-51241157D01*
X104920238Y-51231204D01*
X104864767Y-51005367D01*
X104861584Y-50995797D01*
X104770720Y-50781735D01*
X104766045Y-50772793D01*
X104642126Y-50576013D01*
X104636086Y-50567940D01*
X104482297Y-50393500D01*
X104475044Y-50386496D01*
X104295346Y-50238890D01*
X104287064Y-50233134D01*
X104086081Y-50116159D01*
X104076976Y-50111797D01*
X103859885Y-50028463D01*
X103850196Y-50025612D01*
X103699736Y-49994179D01*
X103685675Y-49995302D01*
X103682000Y-50005410D01*
X103682000Y-52305885D01*
X103174000Y-52305885D01*
X103174000Y-50007410D01*
X103169864Y-49993324D01*
X103156886Y-49991275D01*
X103139170Y-49993325D01*
X103129273Y-49995285D01*
X102905506Y-50058604D01*
X102896062Y-50062116D01*
X102685295Y-50160399D01*
X102676529Y-50165378D01*
X102484198Y-50296087D01*
X102476323Y-50302419D01*
X102307374Y-50462186D01*
X102300613Y-50469695D01*
X102159375Y-50654426D01*
X102153911Y-50662905D01*
X102044022Y-50867847D01*
X102039980Y-50877099D01*
X101964273Y-51096971D01*
X101961764Y-51106743D01*
X101921996Y-51336971D01*
X101921141Y-51344843D01*
X101920064Y-51368551D01*
X101920000Y-51371384D01*
X101920000Y-52305885D01*
X96008500Y-52305885D01*
X96008500Y-49028763D01*
X121635500Y-49028763D01*
X121635501Y-50467236D01*
X121642723Y-50565953D01*
X121692609Y-50772944D01*
X121779380Y-50967378D01*
X121900131Y-51142744D01*
X121904218Y-51146824D01*
X121904219Y-51146825D01*
X122046730Y-51289089D01*
X122046735Y-51289093D01*
X122050817Y-51293168D01*
X122226393Y-51413613D01*
X122323686Y-51456828D01*
X122415701Y-51497700D01*
X122415705Y-51497701D01*
X122420979Y-51500044D01*
X122426600Y-51501388D01*
X122426599Y-51501388D01*
X122623059Y-51548373D01*
X122623063Y-51548374D01*
X122628057Y-51549568D01*
X122664285Y-51552165D01*
X122722513Y-51556339D01*
X122722521Y-51556339D01*
X122724763Y-51556500D01*
X123437543Y-51556500D01*
X124163236Y-51556499D01*
X124165529Y-51556331D01*
X124165536Y-51556331D01*
X124256818Y-51549653D01*
X124256822Y-51549652D01*
X124261953Y-51549277D01*
X124468944Y-51499391D01*
X124663378Y-51412620D01*
X124773243Y-51336971D01*
X124833988Y-51295144D01*
X124833989Y-51295143D01*
X124838744Y-51291869D01*
X124899304Y-51231204D01*
X124985089Y-51145270D01*
X124985093Y-51145265D01*
X124989168Y-51141183D01*
X125109613Y-50965607D01*
X125196044Y-50771021D01*
X125221901Y-50662905D01*
X125244373Y-50568941D01*
X125244374Y-50568937D01*
X125245568Y-50563943D01*
X125252500Y-50467237D01*
X125252499Y-49028764D01*
X125252499Y-49028763D01*
X140431500Y-49028763D01*
X140431501Y-50467236D01*
X140438723Y-50565953D01*
X140488609Y-50772944D01*
X140575380Y-50967378D01*
X140696131Y-51142744D01*
X140700218Y-51146824D01*
X140700219Y-51146825D01*
X140842730Y-51289089D01*
X140842735Y-51289093D01*
X140846817Y-51293168D01*
X141022393Y-51413613D01*
X141119686Y-51456828D01*
X141211701Y-51497700D01*
X141211705Y-51497701D01*
X141216979Y-51500044D01*
X141222600Y-51501388D01*
X141222599Y-51501388D01*
X141419059Y-51548373D01*
X141419063Y-51548374D01*
X141424057Y-51549568D01*
X141460285Y-51552165D01*
X141518513Y-51556339D01*
X141518521Y-51556339D01*
X141520763Y-51556500D01*
X142233543Y-51556500D01*
X142959236Y-51556499D01*
X142961529Y-51556331D01*
X142961536Y-51556331D01*
X143052818Y-51549653D01*
X143052822Y-51549652D01*
X143057953Y-51549277D01*
X143264944Y-51499391D01*
X143459378Y-51412620D01*
X143569243Y-51336971D01*
X143629988Y-51295144D01*
X143629989Y-51295143D01*
X143634744Y-51291869D01*
X143695304Y-51231204D01*
X143781089Y-51145270D01*
X143781093Y-51145265D01*
X143785168Y-51141183D01*
X143905613Y-50965607D01*
X143992044Y-50771021D01*
X144017901Y-50662905D01*
X144040373Y-50568941D01*
X144040374Y-50568937D01*
X144041568Y-50563943D01*
X144048500Y-50467237D01*
X144048499Y-49028764D01*
X144048499Y-49028763D01*
X160243500Y-49028763D01*
X160243501Y-50467236D01*
X160250723Y-50565953D01*
X160300609Y-50772944D01*
X160387380Y-50967378D01*
X160508131Y-51142744D01*
X160512218Y-51146824D01*
X160512219Y-51146825D01*
X160654730Y-51289089D01*
X160654735Y-51289093D01*
X160658817Y-51293168D01*
X160834393Y-51413613D01*
X160931686Y-51456828D01*
X161023701Y-51497700D01*
X161023705Y-51497701D01*
X161028979Y-51500044D01*
X161034600Y-51501388D01*
X161034599Y-51501388D01*
X161231059Y-51548373D01*
X161231063Y-51548374D01*
X161236057Y-51549568D01*
X161272285Y-51552165D01*
X161330513Y-51556339D01*
X161330521Y-51556339D01*
X161332763Y-51556500D01*
X162045543Y-51556500D01*
X162771236Y-51556499D01*
X162773529Y-51556331D01*
X162773536Y-51556331D01*
X162864818Y-51549653D01*
X162864822Y-51549652D01*
X162869953Y-51549277D01*
X163076944Y-51499391D01*
X163271378Y-51412620D01*
X163381243Y-51336971D01*
X163441988Y-51295144D01*
X163441989Y-51295143D01*
X163446744Y-51291869D01*
X163507304Y-51231204D01*
X163593089Y-51145270D01*
X163593093Y-51145265D01*
X163597168Y-51141183D01*
X163717613Y-50965607D01*
X163804044Y-50771021D01*
X163829901Y-50662905D01*
X163852373Y-50568941D01*
X163852374Y-50568937D01*
X163853568Y-50563943D01*
X163860500Y-50467237D01*
X163860499Y-49028764D01*
X163853277Y-48930047D01*
X163803391Y-48723056D01*
X163716620Y-48528622D01*
X163595869Y-48353256D01*
X163549175Y-48306643D01*
X163449270Y-48206911D01*
X163449265Y-48206907D01*
X163445183Y-48202832D01*
X163269607Y-48082387D01*
X163172314Y-48039171D01*
X163080299Y-47998300D01*
X163080295Y-47998299D01*
X163075021Y-47995956D01*
X163037753Y-47987043D01*
X162872941Y-47947627D01*
X162872937Y-47947626D01*
X162867943Y-47946432D01*
X162831715Y-47943835D01*
X162773487Y-47939661D01*
X162773479Y-47939661D01*
X162771237Y-47939500D01*
X162058457Y-47939500D01*
X161332764Y-47939501D01*
X161330471Y-47939669D01*
X161330464Y-47939669D01*
X161239182Y-47946347D01*
X161239178Y-47946348D01*
X161234047Y-47946723D01*
X161027056Y-47996609D01*
X160832622Y-48083380D01*
X160827868Y-48086653D01*
X160827867Y-48086654D01*
X160663886Y-48199566D01*
X160657256Y-48204131D01*
X160653176Y-48208218D01*
X160653175Y-48208219D01*
X160510911Y-48350730D01*
X160510907Y-48350735D01*
X160506832Y-48354817D01*
X160386387Y-48530393D01*
X160299956Y-48724979D01*
X160250432Y-48932057D01*
X160243500Y-49028763D01*
X144048499Y-49028763D01*
X144041277Y-48930047D01*
X143991391Y-48723056D01*
X143904620Y-48528622D01*
X143783869Y-48353256D01*
X143737175Y-48306643D01*
X143637270Y-48206911D01*
X143637265Y-48206907D01*
X143633183Y-48202832D01*
X143457607Y-48082387D01*
X143360314Y-48039171D01*
X143268299Y-47998300D01*
X143268295Y-47998299D01*
X143263021Y-47995956D01*
X143225753Y-47987043D01*
X143060941Y-47947627D01*
X143060937Y-47947626D01*
X143055943Y-47946432D01*
X143019715Y-47943835D01*
X142961487Y-47939661D01*
X142961479Y-47939661D01*
X142959237Y-47939500D01*
X142246457Y-47939500D01*
X141520764Y-47939501D01*
X141518471Y-47939669D01*
X141518464Y-47939669D01*
X141427182Y-47946347D01*
X141427178Y-47946348D01*
X141422047Y-47946723D01*
X141215056Y-47996609D01*
X141020622Y-48083380D01*
X141015868Y-48086653D01*
X141015867Y-48086654D01*
X140851886Y-48199566D01*
X140845256Y-48204131D01*
X140841176Y-48208218D01*
X140841175Y-48208219D01*
X140698911Y-48350730D01*
X140698907Y-48350735D01*
X140694832Y-48354817D01*
X140574387Y-48530393D01*
X140487956Y-48724979D01*
X140438432Y-48932057D01*
X140431500Y-49028763D01*
X125252499Y-49028763D01*
X125245277Y-48930047D01*
X125195391Y-48723056D01*
X125108620Y-48528622D01*
X124987869Y-48353256D01*
X124941175Y-48306643D01*
X124841270Y-48206911D01*
X124841265Y-48206907D01*
X124837183Y-48202832D01*
X124661607Y-48082387D01*
X124564314Y-48039171D01*
X124472299Y-47998300D01*
X124472295Y-47998299D01*
X124467021Y-47995956D01*
X124429753Y-47987043D01*
X124264941Y-47947627D01*
X124264937Y-47947626D01*
X124259943Y-47946432D01*
X124223715Y-47943835D01*
X124165487Y-47939661D01*
X124165479Y-47939661D01*
X124163237Y-47939500D01*
X123450457Y-47939500D01*
X122724764Y-47939501D01*
X122722471Y-47939669D01*
X122722464Y-47939669D01*
X122631182Y-47946347D01*
X122631178Y-47946348D01*
X122626047Y-47946723D01*
X122419056Y-47996609D01*
X122224622Y-48083380D01*
X122219868Y-48086653D01*
X122219867Y-48086654D01*
X122055886Y-48199566D01*
X122049256Y-48204131D01*
X122045176Y-48208218D01*
X122045175Y-48208219D01*
X121902911Y-48350730D01*
X121902907Y-48350735D01*
X121898832Y-48354817D01*
X121778387Y-48530393D01*
X121691956Y-48724979D01*
X121642432Y-48932057D01*
X121635500Y-49028763D01*
X96008500Y-49028763D01*
X96008500Y-47516381D01*
X130349160Y-47516381D01*
X130349237Y-47517470D01*
X130351698Y-47521206D01*
X130625632Y-47731404D01*
X130631262Y-47735259D01*
X130931591Y-47917862D01*
X130937593Y-47921080D01*
X131255897Y-48070184D01*
X131262202Y-48072732D01*
X131594743Y-48186587D01*
X131601313Y-48188446D01*
X131944183Y-48265714D01*
X131950912Y-48266853D01*
X132300143Y-48306643D01*
X132306933Y-48307046D01*
X132658419Y-48308886D01*
X132665220Y-48308554D01*
X133014853Y-48272423D01*
X133021581Y-48271357D01*
X133365274Y-48197676D01*
X133371822Y-48195897D01*
X133705549Y-48085527D01*
X133711891Y-48083041D01*
X134031718Y-47937288D01*
X134037777Y-47934121D01*
X134339995Y-47754676D01*
X134345659Y-47750884D01*
X134626732Y-47539849D01*
X134631958Y-47535464D01*
X134641613Y-47526428D01*
X134647540Y-47516381D01*
X150349160Y-47516381D01*
X150349237Y-47517470D01*
X150351698Y-47521206D01*
X150625632Y-47731404D01*
X150631262Y-47735259D01*
X150931591Y-47917862D01*
X150937593Y-47921080D01*
X151255897Y-48070184D01*
X151262202Y-48072732D01*
X151594743Y-48186587D01*
X151601313Y-48188446D01*
X151944183Y-48265714D01*
X151950912Y-48266853D01*
X152300143Y-48306643D01*
X152306933Y-48307046D01*
X152658419Y-48308886D01*
X152665220Y-48308554D01*
X153014853Y-48272423D01*
X153021581Y-48271357D01*
X153365274Y-48197676D01*
X153371822Y-48195897D01*
X153705549Y-48085527D01*
X153711891Y-48083041D01*
X154031718Y-47937288D01*
X154037777Y-47934121D01*
X154339995Y-47754676D01*
X154345659Y-47750884D01*
X154626732Y-47539849D01*
X154631958Y-47535464D01*
X154641613Y-47526428D01*
X154649682Y-47512750D01*
X154649654Y-47512024D01*
X154644512Y-47503723D01*
X152512810Y-45372020D01*
X152498869Y-45364408D01*
X152497034Y-45364539D01*
X152490420Y-45368790D01*
X150356774Y-47502437D01*
X150349160Y-47516381D01*
X134647540Y-47516381D01*
X134649682Y-47512750D01*
X134649654Y-47512024D01*
X134644512Y-47503723D01*
X132512810Y-45372020D01*
X132498869Y-45364408D01*
X132497034Y-45364539D01*
X132490420Y-45368790D01*
X130356774Y-47502437D01*
X130349160Y-47516381D01*
X96008500Y-47516381D01*
X96008500Y-44991832D01*
X129187333Y-44991832D01*
X129205117Y-45342893D01*
X129205827Y-45349649D01*
X129261420Y-45696723D01*
X129262859Y-45703378D01*
X129355608Y-46042410D01*
X129357757Y-46048871D01*
X129486581Y-46375912D01*
X129489412Y-46382095D01*
X129652803Y-46693310D01*
X129656286Y-46699152D01*
X129852330Y-46990896D01*
X129856433Y-46996340D01*
X129976425Y-47138836D01*
X129989164Y-47147279D01*
X129999608Y-47141181D01*
X132127980Y-45012810D01*
X132134357Y-45001131D01*
X132864408Y-45001131D01*
X132864539Y-45002966D01*
X132868790Y-45009580D01*
X134999009Y-47139798D01*
X135012605Y-47147223D01*
X135022218Y-47140522D01*
X135122518Y-47023912D01*
X135126676Y-47018514D01*
X135325762Y-46728840D01*
X135329310Y-46723029D01*
X135495942Y-46413559D01*
X135498849Y-46407381D01*
X135631090Y-46081713D01*
X135633304Y-46075283D01*
X135729598Y-45737237D01*
X135731105Y-45730607D01*
X135790332Y-45384118D01*
X135791112Y-45377378D01*
X135812668Y-45024925D01*
X135812784Y-45021323D01*
X135812853Y-45001819D01*
X135812761Y-44998194D01*
X135812416Y-44991832D01*
X149187333Y-44991832D01*
X149205117Y-45342893D01*
X149205827Y-45349649D01*
X149261420Y-45696723D01*
X149262859Y-45703378D01*
X149355608Y-46042410D01*
X149357757Y-46048871D01*
X149486581Y-46375912D01*
X149489412Y-46382095D01*
X149652803Y-46693310D01*
X149656286Y-46699152D01*
X149852330Y-46990896D01*
X149856433Y-46996340D01*
X149976425Y-47138836D01*
X149989164Y-47147279D01*
X149999608Y-47141181D01*
X152127980Y-45012810D01*
X152134357Y-45001131D01*
X152864408Y-45001131D01*
X152864539Y-45002966D01*
X152868790Y-45009580D01*
X154999009Y-47139798D01*
X155012605Y-47147223D01*
X155022218Y-47140522D01*
X155122518Y-47023912D01*
X155126676Y-47018514D01*
X155325762Y-46728840D01*
X155329310Y-46723029D01*
X155495942Y-46413559D01*
X155498849Y-46407381D01*
X155631090Y-46081713D01*
X155633304Y-46075283D01*
X155729598Y-45737237D01*
X155731105Y-45730607D01*
X155790332Y-45384118D01*
X155791112Y-45377378D01*
X155812668Y-45024925D01*
X155812784Y-45021323D01*
X155812853Y-45001819D01*
X155812761Y-44998194D01*
X155793666Y-44645615D01*
X155792931Y-44638849D01*
X155736130Y-44291985D01*
X155734663Y-44285313D01*
X155640736Y-43946627D01*
X155638562Y-43940163D01*
X155508598Y-43613578D01*
X155505742Y-43607398D01*
X155341269Y-43296763D01*
X155337769Y-43290937D01*
X155140697Y-42999862D01*
X155136590Y-42994453D01*
X155023565Y-42861179D01*
X155010740Y-42852743D01*
X155000416Y-42858795D01*
X152872020Y-44987190D01*
X152864408Y-45001131D01*
X152134357Y-45001131D01*
X152135592Y-44998869D01*
X152135461Y-44997034D01*
X152131210Y-44990420D01*
X150000992Y-42860203D01*
X149987455Y-42852811D01*
X149977753Y-42859599D01*
X149870430Y-42985257D01*
X149866296Y-42990664D01*
X149668215Y-43281041D01*
X149664697Y-43286851D01*
X149499134Y-43596922D01*
X149496259Y-43603087D01*
X149365155Y-43929218D01*
X149362962Y-43935658D01*
X149267846Y-44274044D01*
X149266363Y-44280679D01*
X149208350Y-44627354D01*
X149207591Y-44634126D01*
X149187357Y-44985037D01*
X149187333Y-44991832D01*
X135812416Y-44991832D01*
X135793666Y-44645615D01*
X135792931Y-44638849D01*
X135736130Y-44291985D01*
X135734663Y-44285313D01*
X135640736Y-43946627D01*
X135638562Y-43940163D01*
X135508598Y-43613578D01*
X135505742Y-43607398D01*
X135341269Y-43296763D01*
X135337769Y-43290937D01*
X135140697Y-42999862D01*
X135136590Y-42994453D01*
X135023565Y-42861179D01*
X135010740Y-42852743D01*
X135000416Y-42858795D01*
X132872020Y-44987190D01*
X132864408Y-45001131D01*
X132134357Y-45001131D01*
X132135592Y-44998869D01*
X132135461Y-44997034D01*
X132131210Y-44990420D01*
X130000992Y-42860203D01*
X129987455Y-42852811D01*
X129977753Y-42859599D01*
X129870430Y-42985257D01*
X129866296Y-42990664D01*
X129668215Y-43281041D01*
X129664697Y-43286851D01*
X129499134Y-43596922D01*
X129496259Y-43603087D01*
X129365155Y-43929218D01*
X129362962Y-43935658D01*
X129267846Y-44274044D01*
X129266363Y-44280679D01*
X129208350Y-44627354D01*
X129207591Y-44634126D01*
X129187357Y-44985037D01*
X129187333Y-44991832D01*
X96008500Y-44991832D01*
X96008500Y-41368695D01*
X98967251Y-41368695D01*
X98967548Y-41373848D01*
X98967548Y-41373851D01*
X98973011Y-41468590D01*
X98980110Y-41591715D01*
X98981247Y-41596761D01*
X98981248Y-41596767D01*
X99001119Y-41684939D01*
X99029222Y-41809639D01*
X99113266Y-42016616D01*
X99150072Y-42076678D01*
X99227288Y-42202683D01*
X99229987Y-42207088D01*
X99376250Y-42375938D01*
X99548126Y-42518632D01*
X99741000Y-42631338D01*
X99949692Y-42711030D01*
X99954760Y-42712061D01*
X99954763Y-42712062D01*
X100059604Y-42733392D01*
X100168597Y-42755567D01*
X100173772Y-42755757D01*
X100173774Y-42755757D01*
X100386673Y-42763564D01*
X100386677Y-42763564D01*
X100391837Y-42763753D01*
X100396957Y-42763097D01*
X100396959Y-42763097D01*
X100608288Y-42736025D01*
X100608289Y-42736025D01*
X100613416Y-42735368D01*
X100618366Y-42733883D01*
X100822429Y-42672661D01*
X100822434Y-42672659D01*
X100827384Y-42671174D01*
X101027994Y-42572896D01*
X101092544Y-42526853D01*
X102109977Y-42526853D01*
X102115258Y-42533907D01*
X102276756Y-42628279D01*
X102286042Y-42632729D01*
X102485001Y-42708703D01*
X102494899Y-42711579D01*
X102703595Y-42754038D01*
X102713823Y-42755257D01*
X102926650Y-42763062D01*
X102936936Y-42762595D01*
X103148185Y-42735534D01*
X103158262Y-42733392D01*
X103362255Y-42672191D01*
X103371842Y-42668433D01*
X103563098Y-42574738D01*
X103571944Y-42569465D01*
X103619247Y-42535723D01*
X103626211Y-42526853D01*
X104649977Y-42526853D01*
X104655258Y-42533907D01*
X104816756Y-42628279D01*
X104826042Y-42632729D01*
X105025001Y-42708703D01*
X105034899Y-42711579D01*
X105243595Y-42754038D01*
X105253823Y-42755257D01*
X105466650Y-42763062D01*
X105476936Y-42762595D01*
X105688185Y-42735534D01*
X105698262Y-42733392D01*
X105902255Y-42672191D01*
X105911842Y-42668433D01*
X106103098Y-42574738D01*
X106111944Y-42569465D01*
X106159247Y-42535723D01*
X106166211Y-42526853D01*
X107189977Y-42526853D01*
X107195258Y-42533907D01*
X107356756Y-42628279D01*
X107366042Y-42632729D01*
X107565001Y-42708703D01*
X107574899Y-42711579D01*
X107783595Y-42754038D01*
X107793823Y-42755257D01*
X108006650Y-42763062D01*
X108016936Y-42762595D01*
X108228185Y-42735534D01*
X108238262Y-42733392D01*
X108442255Y-42672191D01*
X108451842Y-42668433D01*
X108643098Y-42574738D01*
X108651944Y-42569465D01*
X108699247Y-42535723D01*
X108707648Y-42525023D01*
X108700660Y-42511870D01*
X107962812Y-41774022D01*
X107948868Y-41766408D01*
X107947035Y-41766539D01*
X107940420Y-41770790D01*
X107196737Y-42514473D01*
X107189977Y-42526853D01*
X106166211Y-42526853D01*
X106167648Y-42525023D01*
X106160660Y-42511870D01*
X105422812Y-41774022D01*
X105408868Y-41766408D01*
X105407035Y-41766539D01*
X105400420Y-41770790D01*
X104656737Y-42514473D01*
X104649977Y-42526853D01*
X103626211Y-42526853D01*
X103627648Y-42525023D01*
X103620660Y-42511870D01*
X102882812Y-41774022D01*
X102868868Y-41766408D01*
X102867035Y-41766539D01*
X102860420Y-41770790D01*
X102116737Y-42514473D01*
X102109977Y-42526853D01*
X101092544Y-42526853D01*
X101209860Y-42443173D01*
X101368096Y-42285489D01*
X101384929Y-42262064D01*
X101498453Y-42104077D01*
X101499640Y-42104930D01*
X101546960Y-42061362D01*
X101616897Y-42049145D01*
X101682338Y-42076678D01*
X101710166Y-42108512D01*
X101736459Y-42151419D01*
X101746916Y-42160880D01*
X101755694Y-42157096D01*
X102497978Y-41414812D01*
X102504356Y-41403132D01*
X103234408Y-41403132D01*
X103234539Y-41404965D01*
X103238790Y-41411580D01*
X103980474Y-42153264D01*
X103992484Y-42159823D01*
X104004223Y-42150855D01*
X104038022Y-42103819D01*
X104039149Y-42104629D01*
X104086659Y-42060881D01*
X104156596Y-42048661D01*
X104222038Y-42076191D01*
X104249870Y-42108029D01*
X104276459Y-42151419D01*
X104286916Y-42160880D01*
X104295694Y-42157096D01*
X105037978Y-41414812D01*
X105044356Y-41403132D01*
X105774408Y-41403132D01*
X105774539Y-41404965D01*
X105778790Y-41411580D01*
X106520474Y-42153264D01*
X106532484Y-42159823D01*
X106544223Y-42150855D01*
X106578022Y-42103819D01*
X106579149Y-42104629D01*
X106626659Y-42060881D01*
X106696596Y-42048661D01*
X106762038Y-42076191D01*
X106789870Y-42108029D01*
X106816459Y-42151419D01*
X106826916Y-42160880D01*
X106835694Y-42157096D01*
X107577978Y-41414812D01*
X107584356Y-41403132D01*
X108314408Y-41403132D01*
X108314539Y-41404965D01*
X108318790Y-41411580D01*
X109060474Y-42153264D01*
X109072484Y-42159823D01*
X109084223Y-42150855D01*
X109118022Y-42103819D01*
X109119277Y-42104721D01*
X109166391Y-42061355D01*
X109236330Y-42049148D01*
X109301767Y-42076691D01*
X109329580Y-42108513D01*
X109387287Y-42202683D01*
X109387291Y-42202688D01*
X109389987Y-42207088D01*
X109536250Y-42375938D01*
X109708126Y-42518632D01*
X109901000Y-42631338D01*
X110109692Y-42711030D01*
X110114760Y-42712061D01*
X110114763Y-42712062D01*
X110219604Y-42733392D01*
X110328597Y-42755567D01*
X110333772Y-42755757D01*
X110333774Y-42755757D01*
X110546673Y-42763564D01*
X110546677Y-42763564D01*
X110551837Y-42763753D01*
X110556957Y-42763097D01*
X110556959Y-42763097D01*
X110768288Y-42736025D01*
X110768289Y-42736025D01*
X110773416Y-42735368D01*
X110778366Y-42733883D01*
X110982429Y-42672661D01*
X110982434Y-42672659D01*
X110987384Y-42671174D01*
X111187994Y-42572896D01*
X111369860Y-42443173D01*
X111528096Y-42285489D01*
X111544929Y-42262064D01*
X111655435Y-42108277D01*
X111658453Y-42104077D01*
X111671995Y-42076678D01*
X111755136Y-41908453D01*
X111755137Y-41908451D01*
X111757430Y-41903811D01*
X111822370Y-41690069D01*
X111851529Y-41468590D01*
X111853156Y-41402000D01*
X111834852Y-41179361D01*
X111780431Y-40962702D01*
X111691354Y-40757840D01*
X111606748Y-40627059D01*
X111572822Y-40574617D01*
X111572820Y-40574614D01*
X111570014Y-40570277D01*
X111419670Y-40405051D01*
X111377006Y-40371357D01*
X111335944Y-40313441D01*
X111332712Y-40242518D01*
X111368337Y-40181107D01*
X111401647Y-40158376D01*
X111407007Y-40155865D01*
X111413946Y-40153550D01*
X111564348Y-40060478D01*
X111689305Y-39935303D01*
X111709110Y-39903173D01*
X111778275Y-39790968D01*
X111778276Y-39790966D01*
X111782115Y-39784738D01*
X111813442Y-39690290D01*
X111835632Y-39623389D01*
X111835632Y-39623387D01*
X111837797Y-39616861D01*
X111848500Y-39512400D01*
X111848500Y-38614200D01*
X121402797Y-38614200D01*
X121461117Y-38857123D01*
X121464166Y-38866508D01*
X121560248Y-39098470D01*
X121564729Y-39107264D01*
X121695920Y-39321348D01*
X121701712Y-39329321D01*
X121864784Y-39520252D01*
X121871748Y-39527216D01*
X122062679Y-39690288D01*
X122063160Y-39690637D01*
X122063298Y-39690817D01*
X122066438Y-39693498D01*
X122065875Y-39694158D01*
X122106514Y-39746860D01*
X122112588Y-39817596D01*
X122079455Y-39880387D01*
X122060557Y-39896349D01*
X122054015Y-39900854D01*
X122049256Y-39904131D01*
X122045176Y-39908218D01*
X122045175Y-39908219D01*
X121902911Y-40050730D01*
X121902907Y-40050735D01*
X121898832Y-40054817D01*
X121778387Y-40230393D01*
X121752177Y-40289401D01*
X121700808Y-40405051D01*
X121691956Y-40424979D01*
X121690612Y-40430599D01*
X121658121Y-40566457D01*
X121642432Y-40632057D01*
X121642065Y-40637179D01*
X121635813Y-40724401D01*
X121635500Y-40728763D01*
X121635501Y-42167236D01*
X121635669Y-42169529D01*
X121635669Y-42169536D01*
X121642159Y-42258240D01*
X121642723Y-42265953D01*
X121692609Y-42472944D01*
X121779380Y-42667378D01*
X121782653Y-42672132D01*
X121782654Y-42672133D01*
X121845741Y-42763753D01*
X121900131Y-42842744D01*
X121904218Y-42846824D01*
X121904219Y-42846825D01*
X122046730Y-42989089D01*
X122046735Y-42989093D01*
X122050817Y-42993168D01*
X122226393Y-43113613D01*
X122323686Y-43156829D01*
X122415701Y-43197700D01*
X122415705Y-43197701D01*
X122420979Y-43200044D01*
X122426600Y-43201388D01*
X122426599Y-43201388D01*
X122623059Y-43248373D01*
X122623063Y-43248374D01*
X122628057Y-43249568D01*
X122664285Y-43252165D01*
X122722513Y-43256339D01*
X122722521Y-43256339D01*
X122724763Y-43256500D01*
X123437543Y-43256500D01*
X124163236Y-43256499D01*
X124165529Y-43256331D01*
X124165536Y-43256331D01*
X124256818Y-43249653D01*
X124256822Y-43249652D01*
X124261953Y-43249277D01*
X124468944Y-43199391D01*
X124663378Y-43112620D01*
X124827136Y-42999862D01*
X124833988Y-42995144D01*
X124833989Y-42995143D01*
X124838744Y-42991869D01*
X124845345Y-42985257D01*
X124985089Y-42845270D01*
X124985093Y-42845265D01*
X124989168Y-42841183D01*
X125109613Y-42665607D01*
X125167305Y-42535723D01*
X125189008Y-42486862D01*
X130349950Y-42486862D01*
X130349986Y-42487704D01*
X130355037Y-42495826D01*
X132487190Y-44627980D01*
X132501131Y-44635592D01*
X132502966Y-44635461D01*
X132509580Y-44631210D01*
X134642798Y-42497991D01*
X134650412Y-42484047D01*
X134650344Y-42483089D01*
X134645836Y-42476272D01*
X134644418Y-42475065D01*
X134364813Y-42262064D01*
X134359187Y-42258240D01*
X134058214Y-42076681D01*
X134052202Y-42073484D01*
X133733370Y-41925487D01*
X133727070Y-41922967D01*
X133394129Y-41810273D01*
X133387551Y-41808437D01*
X133044417Y-41732367D01*
X133037678Y-41731251D01*
X132688310Y-41692680D01*
X132681529Y-41692301D01*
X132330015Y-41691687D01*
X132323242Y-41692042D01*
X131973720Y-41729395D01*
X131967010Y-41730482D01*
X131623586Y-41805361D01*
X131617011Y-41807172D01*
X131283683Y-41918702D01*
X131277361Y-41921205D01*
X130958034Y-42068079D01*
X130951991Y-42071265D01*
X130650401Y-42251763D01*
X130644755Y-42255571D01*
X130364408Y-42467596D01*
X130359211Y-42471987D01*
X130357972Y-42473155D01*
X130349950Y-42486862D01*
X125189008Y-42486862D01*
X125193700Y-42476299D01*
X125193701Y-42476295D01*
X125196044Y-42471021D01*
X125245568Y-42263943D01*
X125249364Y-42210990D01*
X125252339Y-42169487D01*
X125252339Y-42169479D01*
X125252500Y-42167237D01*
X125252499Y-40728764D01*
X125252150Y-40723992D01*
X125245653Y-40635182D01*
X125245652Y-40635178D01*
X125245277Y-40630047D01*
X125195391Y-40423056D01*
X125108620Y-40228622D01*
X125075903Y-40181107D01*
X124991144Y-40058012D01*
X124991143Y-40058011D01*
X124987869Y-40053256D01*
X124928417Y-39993907D01*
X124841270Y-39906911D01*
X124841265Y-39906907D01*
X124837183Y-39902832D01*
X124832421Y-39899565D01*
X124832417Y-39899562D01*
X124827767Y-39896372D01*
X124782908Y-39841343D01*
X124774921Y-39770797D01*
X124806342Y-39707132D01*
X124821601Y-39693544D01*
X124821562Y-39693498D01*
X124823770Y-39691612D01*
X124824974Y-39690540D01*
X124825318Y-39690290D01*
X125016252Y-39527216D01*
X125023216Y-39520252D01*
X125186288Y-39329321D01*
X125192080Y-39321348D01*
X125323271Y-39107264D01*
X125327752Y-39098470D01*
X125423834Y-38866508D01*
X125426883Y-38857123D01*
X125484820Y-38615798D01*
X125484484Y-38614200D01*
X140198797Y-38614200D01*
X140257117Y-38857123D01*
X140260166Y-38866508D01*
X140356248Y-39098470D01*
X140360729Y-39107264D01*
X140491920Y-39321348D01*
X140497712Y-39329321D01*
X140660784Y-39520252D01*
X140667748Y-39527216D01*
X140858679Y-39690288D01*
X140859160Y-39690637D01*
X140859298Y-39690817D01*
X140862438Y-39693498D01*
X140861875Y-39694158D01*
X140902514Y-39746860D01*
X140908588Y-39817596D01*
X140875455Y-39880387D01*
X140856557Y-39896349D01*
X140850015Y-39900854D01*
X140845256Y-39904131D01*
X140841176Y-39908218D01*
X140841175Y-39908219D01*
X140698911Y-40050730D01*
X140698907Y-40050735D01*
X140694832Y-40054817D01*
X140574387Y-40230393D01*
X140548177Y-40289401D01*
X140496808Y-40405051D01*
X140487956Y-40424979D01*
X140486612Y-40430599D01*
X140454121Y-40566457D01*
X140438432Y-40632057D01*
X140438065Y-40637179D01*
X140431813Y-40724401D01*
X140431500Y-40728763D01*
X140431501Y-42167236D01*
X140431669Y-42169529D01*
X140431669Y-42169536D01*
X140438159Y-42258240D01*
X140438723Y-42265953D01*
X140488609Y-42472944D01*
X140575380Y-42667378D01*
X140578653Y-42672132D01*
X140578654Y-42672133D01*
X140641741Y-42763753D01*
X140696131Y-42842744D01*
X140700218Y-42846824D01*
X140700219Y-42846825D01*
X140842730Y-42989089D01*
X140842735Y-42989093D01*
X140846817Y-42993168D01*
X141022393Y-43113613D01*
X141119686Y-43156829D01*
X141211701Y-43197700D01*
X141211705Y-43197701D01*
X141216979Y-43200044D01*
X141222600Y-43201388D01*
X141222599Y-43201388D01*
X141419059Y-43248373D01*
X141419063Y-43248374D01*
X141424057Y-43249568D01*
X141460285Y-43252165D01*
X141518513Y-43256339D01*
X141518521Y-43256339D01*
X141520763Y-43256500D01*
X142233543Y-43256500D01*
X142959236Y-43256499D01*
X142961529Y-43256331D01*
X142961536Y-43256331D01*
X143052818Y-43249653D01*
X143052822Y-43249652D01*
X143057953Y-43249277D01*
X143264944Y-43199391D01*
X143459378Y-43112620D01*
X143623136Y-42999862D01*
X143629988Y-42995144D01*
X143629989Y-42995143D01*
X143634744Y-42991869D01*
X143641345Y-42985257D01*
X143781089Y-42845270D01*
X143781093Y-42845265D01*
X143785168Y-42841183D01*
X143905613Y-42665607D01*
X143963305Y-42535723D01*
X143985008Y-42486862D01*
X150349950Y-42486862D01*
X150349986Y-42487704D01*
X150355037Y-42495826D01*
X152487190Y-44627980D01*
X152501131Y-44635592D01*
X152502966Y-44635461D01*
X152509580Y-44631210D01*
X154642798Y-42497991D01*
X154650412Y-42484047D01*
X154650344Y-42483089D01*
X154645836Y-42476272D01*
X154644418Y-42475065D01*
X154364813Y-42262064D01*
X154359187Y-42258240D01*
X154058214Y-42076681D01*
X154052202Y-42073484D01*
X153733370Y-41925487D01*
X153727070Y-41922967D01*
X153394129Y-41810273D01*
X153387551Y-41808437D01*
X153044417Y-41732367D01*
X153037678Y-41731251D01*
X152688310Y-41692680D01*
X152681529Y-41692301D01*
X152330015Y-41691687D01*
X152323242Y-41692042D01*
X151973720Y-41729395D01*
X151967010Y-41730482D01*
X151623586Y-41805361D01*
X151617011Y-41807172D01*
X151283683Y-41918702D01*
X151277361Y-41921205D01*
X150958034Y-42068079D01*
X150951991Y-42071265D01*
X150650401Y-42251763D01*
X150644755Y-42255571D01*
X150364408Y-42467596D01*
X150359211Y-42471987D01*
X150357972Y-42473155D01*
X150349950Y-42486862D01*
X143985008Y-42486862D01*
X143989700Y-42476299D01*
X143989701Y-42476295D01*
X143992044Y-42471021D01*
X144041568Y-42263943D01*
X144045364Y-42210990D01*
X144048339Y-42169487D01*
X144048339Y-42169479D01*
X144048500Y-42167237D01*
X144048499Y-40728764D01*
X144048150Y-40723992D01*
X144041653Y-40635182D01*
X144041652Y-40635178D01*
X144041277Y-40630047D01*
X143991391Y-40423056D01*
X143904620Y-40228622D01*
X143871903Y-40181107D01*
X143787144Y-40058012D01*
X143787143Y-40058011D01*
X143783869Y-40053256D01*
X143724417Y-39993907D01*
X143637270Y-39906911D01*
X143637265Y-39906907D01*
X143633183Y-39902832D01*
X143628421Y-39899565D01*
X143628417Y-39899562D01*
X143623767Y-39896372D01*
X143578908Y-39841343D01*
X143570921Y-39770797D01*
X143602342Y-39707132D01*
X143617601Y-39693544D01*
X143617562Y-39693498D01*
X143619770Y-39691612D01*
X143620974Y-39690540D01*
X143621318Y-39690290D01*
X143812252Y-39527216D01*
X143819216Y-39520252D01*
X143982288Y-39329321D01*
X143988080Y-39321348D01*
X144119271Y-39107264D01*
X144123752Y-39098470D01*
X144219834Y-38866508D01*
X144222883Y-38857123D01*
X144280820Y-38615798D01*
X144280484Y-38614200D01*
X160010797Y-38614200D01*
X160069117Y-38857123D01*
X160072166Y-38866508D01*
X160168248Y-39098470D01*
X160172729Y-39107264D01*
X160303920Y-39321348D01*
X160309712Y-39329321D01*
X160472784Y-39520252D01*
X160479748Y-39527216D01*
X160670679Y-39690288D01*
X160671160Y-39690637D01*
X160671298Y-39690817D01*
X160674438Y-39693498D01*
X160673875Y-39694158D01*
X160714514Y-39746860D01*
X160720588Y-39817596D01*
X160687455Y-39880387D01*
X160668557Y-39896349D01*
X160662015Y-39900854D01*
X160657256Y-39904131D01*
X160653176Y-39908218D01*
X160653175Y-39908219D01*
X160510911Y-40050730D01*
X160510907Y-40050735D01*
X160506832Y-40054817D01*
X160386387Y-40230393D01*
X160360177Y-40289401D01*
X160308808Y-40405051D01*
X160299956Y-40424979D01*
X160298612Y-40430599D01*
X160266121Y-40566457D01*
X160250432Y-40632057D01*
X160250065Y-40637179D01*
X160243813Y-40724401D01*
X160243500Y-40728763D01*
X160243501Y-42167236D01*
X160243669Y-42169529D01*
X160243669Y-42169536D01*
X160250159Y-42258240D01*
X160250723Y-42265953D01*
X160300609Y-42472944D01*
X160387380Y-42667378D01*
X160390653Y-42672132D01*
X160390654Y-42672133D01*
X160453741Y-42763753D01*
X160508131Y-42842744D01*
X160512218Y-42846824D01*
X160512219Y-42846825D01*
X160654730Y-42989089D01*
X160654735Y-42989093D01*
X160658817Y-42993168D01*
X160834393Y-43113613D01*
X160931686Y-43156829D01*
X161023701Y-43197700D01*
X161023705Y-43197701D01*
X161028979Y-43200044D01*
X161034600Y-43201388D01*
X161034599Y-43201388D01*
X161231059Y-43248373D01*
X161231063Y-43248374D01*
X161236057Y-43249568D01*
X161272285Y-43252165D01*
X161330513Y-43256339D01*
X161330521Y-43256339D01*
X161332763Y-43256500D01*
X162045543Y-43256500D01*
X162771236Y-43256499D01*
X162773529Y-43256331D01*
X162773536Y-43256331D01*
X162864818Y-43249653D01*
X162864822Y-43249652D01*
X162869953Y-43249277D01*
X163076944Y-43199391D01*
X163271378Y-43112620D01*
X163435136Y-42999862D01*
X163441988Y-42995144D01*
X163441989Y-42995143D01*
X163446744Y-42991869D01*
X163453345Y-42985257D01*
X163593089Y-42845270D01*
X163593093Y-42845265D01*
X163597168Y-42841183D01*
X163717613Y-42665607D01*
X163775305Y-42535723D01*
X163801700Y-42476299D01*
X163801701Y-42476295D01*
X163804044Y-42471021D01*
X163853568Y-42263943D01*
X163857364Y-42210990D01*
X163860339Y-42169487D01*
X163860339Y-42169479D01*
X163860500Y-42167237D01*
X163860499Y-40728764D01*
X163860150Y-40723992D01*
X163853653Y-40635182D01*
X163853652Y-40635178D01*
X163853277Y-40630047D01*
X163803391Y-40423056D01*
X163716620Y-40228622D01*
X163683903Y-40181107D01*
X163599144Y-40058012D01*
X163599143Y-40058011D01*
X163595869Y-40053256D01*
X163536417Y-39993907D01*
X163449270Y-39906911D01*
X163449265Y-39906907D01*
X163445183Y-39902832D01*
X163440421Y-39899565D01*
X163440417Y-39899562D01*
X163435767Y-39896372D01*
X163390908Y-39841343D01*
X163382921Y-39770797D01*
X163414342Y-39707132D01*
X163429601Y-39693544D01*
X163429562Y-39693498D01*
X163431770Y-39691612D01*
X163432974Y-39690540D01*
X163433318Y-39690290D01*
X163624252Y-39527216D01*
X163631216Y-39520252D01*
X163794288Y-39329321D01*
X163800080Y-39321348D01*
X163931271Y-39107264D01*
X163935752Y-39098470D01*
X164031834Y-38866508D01*
X164034883Y-38857123D01*
X164092820Y-38615798D01*
X164090546Y-38604970D01*
X164079082Y-38602000D01*
X160026978Y-38602000D01*
X160012185Y-38606344D01*
X160010797Y-38614200D01*
X144280484Y-38614200D01*
X144278546Y-38604970D01*
X144267082Y-38602000D01*
X140214978Y-38602000D01*
X140200185Y-38606344D01*
X140198797Y-38614200D01*
X125484484Y-38614200D01*
X125482546Y-38604970D01*
X125471082Y-38602000D01*
X121418978Y-38602000D01*
X121404185Y-38606344D01*
X121402797Y-38614200D01*
X111848500Y-38614200D01*
X111848500Y-38211600D01*
X111848077Y-38207523D01*
X111838238Y-38112692D01*
X111838237Y-38112688D01*
X111837526Y-38105834D01*
X111833021Y-38092329D01*
X111828975Y-38080202D01*
X121403180Y-38080202D01*
X121405454Y-38091030D01*
X121416918Y-38094000D01*
X123171885Y-38094000D01*
X123187124Y-38089525D01*
X123188329Y-38088135D01*
X123190000Y-38080452D01*
X123190000Y-38075885D01*
X123698000Y-38075885D01*
X123702475Y-38091124D01*
X123703865Y-38092329D01*
X123711548Y-38094000D01*
X125469022Y-38094000D01*
X125483815Y-38089656D01*
X125485203Y-38081800D01*
X125484819Y-38080202D01*
X140199180Y-38080202D01*
X140201454Y-38091030D01*
X140212918Y-38094000D01*
X141967885Y-38094000D01*
X141983124Y-38089525D01*
X141984329Y-38088135D01*
X141986000Y-38080452D01*
X141986000Y-38075885D01*
X142494000Y-38075885D01*
X142498475Y-38091124D01*
X142499865Y-38092329D01*
X142507548Y-38094000D01*
X144265022Y-38094000D01*
X144279815Y-38089656D01*
X144281203Y-38081800D01*
X144280819Y-38080202D01*
X160011180Y-38080202D01*
X160013454Y-38091030D01*
X160024918Y-38094000D01*
X161779885Y-38094000D01*
X161795124Y-38089525D01*
X161796329Y-38088135D01*
X161798000Y-38080452D01*
X161798000Y-38075885D01*
X162306000Y-38075885D01*
X162310475Y-38091124D01*
X162311865Y-38092329D01*
X162319548Y-38094000D01*
X164077022Y-38094000D01*
X164091815Y-38089656D01*
X164093203Y-38081800D01*
X164034883Y-37838877D01*
X164031834Y-37829492D01*
X163935752Y-37597530D01*
X163931271Y-37588736D01*
X163800080Y-37374652D01*
X163794288Y-37366679D01*
X163631216Y-37175748D01*
X163624252Y-37168784D01*
X163433321Y-37005712D01*
X163425348Y-36999920D01*
X163211264Y-36868729D01*
X163202470Y-36864248D01*
X162970508Y-36768166D01*
X162961123Y-36765117D01*
X162716983Y-36706504D01*
X162707236Y-36704961D01*
X162519601Y-36690193D01*
X162514674Y-36690000D01*
X162324115Y-36690000D01*
X162308876Y-36694475D01*
X162307671Y-36695865D01*
X162306000Y-36703548D01*
X162306000Y-38075885D01*
X161798000Y-38075885D01*
X161798000Y-36708115D01*
X161793525Y-36692876D01*
X161792135Y-36691671D01*
X161784452Y-36690000D01*
X161589326Y-36690000D01*
X161584399Y-36690193D01*
X161396764Y-36704961D01*
X161387017Y-36706504D01*
X161142877Y-36765117D01*
X161133492Y-36768166D01*
X160901530Y-36864248D01*
X160892736Y-36868729D01*
X160678652Y-36999920D01*
X160670679Y-37005712D01*
X160479748Y-37168784D01*
X160472784Y-37175748D01*
X160309712Y-37366679D01*
X160303920Y-37374652D01*
X160172729Y-37588736D01*
X160168248Y-37597530D01*
X160072166Y-37829492D01*
X160069117Y-37838877D01*
X160011180Y-38080202D01*
X144280819Y-38080202D01*
X144222883Y-37838877D01*
X144219834Y-37829492D01*
X144123752Y-37597530D01*
X144119271Y-37588736D01*
X143988080Y-37374652D01*
X143982288Y-37366679D01*
X143819216Y-37175748D01*
X143812252Y-37168784D01*
X143621321Y-37005712D01*
X143613348Y-36999920D01*
X143399264Y-36868729D01*
X143390470Y-36864248D01*
X143158508Y-36768166D01*
X143149123Y-36765117D01*
X142904983Y-36706504D01*
X142895236Y-36704961D01*
X142707601Y-36690193D01*
X142702674Y-36690000D01*
X142512115Y-36690000D01*
X142496876Y-36694475D01*
X142495671Y-36695865D01*
X142494000Y-36703548D01*
X142494000Y-38075885D01*
X141986000Y-38075885D01*
X141986000Y-36708115D01*
X141981525Y-36692876D01*
X141980135Y-36691671D01*
X141972452Y-36690000D01*
X141777326Y-36690000D01*
X141772399Y-36690193D01*
X141584764Y-36704961D01*
X141575017Y-36706504D01*
X141330877Y-36765117D01*
X141321492Y-36768166D01*
X141089530Y-36864248D01*
X141080736Y-36868729D01*
X140866652Y-36999920D01*
X140858679Y-37005712D01*
X140667748Y-37168784D01*
X140660784Y-37175748D01*
X140497712Y-37366679D01*
X140491920Y-37374652D01*
X140360729Y-37588736D01*
X140356248Y-37597530D01*
X140260166Y-37829492D01*
X140257117Y-37838877D01*
X140199180Y-38080202D01*
X125484819Y-38080202D01*
X125426883Y-37838877D01*
X125423834Y-37829492D01*
X125327752Y-37597530D01*
X125323271Y-37588736D01*
X125192080Y-37374652D01*
X125186288Y-37366679D01*
X125023216Y-37175748D01*
X125016252Y-37168784D01*
X124825321Y-37005712D01*
X124817348Y-36999920D01*
X124603264Y-36868729D01*
X124594470Y-36864248D01*
X124362508Y-36768166D01*
X124353123Y-36765117D01*
X124108983Y-36706504D01*
X124099236Y-36704961D01*
X123911601Y-36690193D01*
X123906674Y-36690000D01*
X123716115Y-36690000D01*
X123700876Y-36694475D01*
X123699671Y-36695865D01*
X123698000Y-36703548D01*
X123698000Y-38075885D01*
X123190000Y-38075885D01*
X123190000Y-36708115D01*
X123185525Y-36692876D01*
X123184135Y-36691671D01*
X123176452Y-36690000D01*
X122981326Y-36690000D01*
X122976399Y-36690193D01*
X122788764Y-36704961D01*
X122779017Y-36706504D01*
X122534877Y-36765117D01*
X122525492Y-36768166D01*
X122293530Y-36864248D01*
X122284736Y-36868729D01*
X122070652Y-36999920D01*
X122062679Y-37005712D01*
X121871748Y-37168784D01*
X121864784Y-37175748D01*
X121701712Y-37366679D01*
X121695920Y-37374652D01*
X121564729Y-37588736D01*
X121560248Y-37597530D01*
X121464166Y-37829492D01*
X121461117Y-37838877D01*
X121403180Y-38080202D01*
X111828975Y-38080202D01*
X111783868Y-37945002D01*
X111781550Y-37938054D01*
X111688478Y-37787652D01*
X111563303Y-37662695D01*
X111557072Y-37658854D01*
X111418968Y-37573725D01*
X111418966Y-37573724D01*
X111412738Y-37569885D01*
X111252254Y-37516655D01*
X111251389Y-37516368D01*
X111251387Y-37516368D01*
X111244861Y-37514203D01*
X111238025Y-37513503D01*
X111238022Y-37513502D01*
X111194969Y-37509091D01*
X111140400Y-37503500D01*
X109839600Y-37503500D01*
X109836354Y-37503837D01*
X109836350Y-37503837D01*
X109740692Y-37513762D01*
X109740688Y-37513763D01*
X109733834Y-37514474D01*
X109727298Y-37516655D01*
X109727296Y-37516655D01*
X109664631Y-37537562D01*
X109566054Y-37570450D01*
X109415652Y-37663522D01*
X109410479Y-37668704D01*
X109354762Y-37724518D01*
X109290695Y-37788697D01*
X109286855Y-37794927D01*
X109286854Y-37794928D01*
X109243630Y-37865051D01*
X109197885Y-37939262D01*
X109195581Y-37946209D01*
X109173236Y-38013577D01*
X109132806Y-38071937D01*
X109106330Y-38088366D01*
X109062811Y-38108399D01*
X108322022Y-38849188D01*
X108314408Y-38863132D01*
X108314539Y-38864965D01*
X108318790Y-38871580D01*
X109060474Y-39613264D01*
X109100998Y-39635393D01*
X109113589Y-39638132D01*
X109163791Y-39688335D01*
X109172726Y-39708842D01*
X109198450Y-39785946D01*
X109291522Y-39936348D01*
X109416697Y-40061305D01*
X109422927Y-40065145D01*
X109422928Y-40065146D01*
X109549104Y-40142922D01*
X109567262Y-40154115D01*
X109574209Y-40156419D01*
X109576276Y-40157383D01*
X109629561Y-40204299D01*
X109649023Y-40272576D01*
X109628482Y-40340536D01*
X109598681Y-40372337D01*
X109584965Y-40382635D01*
X109430629Y-40544138D01*
X109357693Y-40651059D01*
X109322898Y-40702066D01*
X109267987Y-40747069D01*
X109197462Y-40755240D01*
X109133715Y-40723986D01*
X109113017Y-40699501D01*
X109083062Y-40653197D01*
X109072377Y-40643995D01*
X109062812Y-40648398D01*
X108322022Y-41389188D01*
X108314408Y-41403132D01*
X107584356Y-41403132D01*
X107585592Y-41400868D01*
X107585461Y-41399035D01*
X107581210Y-41392420D01*
X106839849Y-40651059D01*
X106828313Y-40644759D01*
X106816028Y-40654384D01*
X106783192Y-40702520D01*
X106728281Y-40747523D01*
X106657756Y-40755694D01*
X106594009Y-40724440D01*
X106573311Y-40699955D01*
X106543062Y-40653197D01*
X106532377Y-40643995D01*
X106522812Y-40648398D01*
X105782022Y-41389188D01*
X105774408Y-41403132D01*
X105044356Y-41403132D01*
X105045592Y-41400868D01*
X105045461Y-41399035D01*
X105041210Y-41392420D01*
X104299849Y-40651059D01*
X104288313Y-40644759D01*
X104276028Y-40654384D01*
X104243192Y-40702520D01*
X104188281Y-40747523D01*
X104117756Y-40755694D01*
X104054009Y-40724440D01*
X104033311Y-40699955D01*
X104003062Y-40653197D01*
X103992377Y-40643995D01*
X103982812Y-40648398D01*
X103242022Y-41389188D01*
X103234408Y-41403132D01*
X102504356Y-41403132D01*
X102505592Y-41400868D01*
X102505461Y-41399035D01*
X102501210Y-41392420D01*
X101759849Y-40651059D01*
X101748313Y-40644759D01*
X101736031Y-40654382D01*
X101703499Y-40702072D01*
X101648587Y-40747075D01*
X101578063Y-40755246D01*
X101514316Y-40723992D01*
X101493618Y-40699508D01*
X101412822Y-40574617D01*
X101412820Y-40574614D01*
X101410014Y-40570277D01*
X101259670Y-40405051D01*
X101255616Y-40401849D01*
X101255615Y-40401848D01*
X101088414Y-40269800D01*
X101088410Y-40269798D01*
X101084359Y-40266598D01*
X101043053Y-40243796D01*
X100993084Y-40193364D01*
X100978312Y-40123921D01*
X101003428Y-40057516D01*
X101030780Y-40030909D01*
X101092544Y-39986853D01*
X102109977Y-39986853D01*
X102115258Y-39993907D01*
X102162479Y-40021501D01*
X102211203Y-40073139D01*
X102224274Y-40142922D01*
X102197543Y-40208694D01*
X102157087Y-40242053D01*
X102148466Y-40246541D01*
X102139734Y-40252039D01*
X102119677Y-40267099D01*
X102111223Y-40278427D01*
X102117968Y-40290758D01*
X102857188Y-41029978D01*
X102871132Y-41037592D01*
X102872965Y-41037461D01*
X102879580Y-41033210D01*
X103623389Y-40289401D01*
X103630410Y-40276544D01*
X103623611Y-40267213D01*
X103619559Y-40264521D01*
X103582116Y-40243852D01*
X103532145Y-40193420D01*
X103517373Y-40123977D01*
X103542489Y-40057572D01*
X103569840Y-40030965D01*
X103619247Y-39995723D01*
X103626211Y-39986853D01*
X104649977Y-39986853D01*
X104655258Y-39993907D01*
X104702479Y-40021501D01*
X104751203Y-40073139D01*
X104764274Y-40142922D01*
X104737543Y-40208694D01*
X104697087Y-40242053D01*
X104688466Y-40246541D01*
X104679734Y-40252039D01*
X104659677Y-40267099D01*
X104651223Y-40278427D01*
X104657968Y-40290758D01*
X105397188Y-41029978D01*
X105411132Y-41037592D01*
X105412965Y-41037461D01*
X105419580Y-41033210D01*
X106163389Y-40289401D01*
X106170410Y-40276544D01*
X106163611Y-40267213D01*
X106159559Y-40264521D01*
X106122116Y-40243852D01*
X106072145Y-40193420D01*
X106057373Y-40123977D01*
X106082489Y-40057572D01*
X106109840Y-40030965D01*
X106159247Y-39995723D01*
X106166211Y-39986853D01*
X107189977Y-39986853D01*
X107195258Y-39993907D01*
X107242479Y-40021501D01*
X107291203Y-40073139D01*
X107304274Y-40142922D01*
X107277543Y-40208694D01*
X107237087Y-40242053D01*
X107228466Y-40246541D01*
X107219734Y-40252039D01*
X107199677Y-40267099D01*
X107191223Y-40278427D01*
X107197968Y-40290758D01*
X107937188Y-41029978D01*
X107951132Y-41037592D01*
X107952965Y-41037461D01*
X107959580Y-41033210D01*
X108703389Y-40289401D01*
X108710410Y-40276544D01*
X108703611Y-40267213D01*
X108699559Y-40264521D01*
X108662116Y-40243852D01*
X108612145Y-40193420D01*
X108597373Y-40123977D01*
X108622489Y-40057572D01*
X108649840Y-40030965D01*
X108699247Y-39995723D01*
X108707648Y-39985023D01*
X108700660Y-39971870D01*
X107962812Y-39234022D01*
X107948868Y-39226408D01*
X107947035Y-39226539D01*
X107940420Y-39230790D01*
X107196737Y-39974473D01*
X107189977Y-39986853D01*
X106166211Y-39986853D01*
X106167648Y-39985023D01*
X106160660Y-39971870D01*
X105422812Y-39234022D01*
X105408868Y-39226408D01*
X105407035Y-39226539D01*
X105400420Y-39230790D01*
X104656737Y-39974473D01*
X104649977Y-39986853D01*
X103626211Y-39986853D01*
X103627648Y-39985023D01*
X103620660Y-39971870D01*
X102882812Y-39234022D01*
X102868868Y-39226408D01*
X102867035Y-39226539D01*
X102860420Y-39230790D01*
X102116737Y-39974473D01*
X102109977Y-39986853D01*
X101092544Y-39986853D01*
X101095110Y-39985023D01*
X101209860Y-39903173D01*
X101271907Y-39841343D01*
X101295737Y-39817596D01*
X101368096Y-39745489D01*
X101394430Y-39708842D01*
X101498453Y-39564077D01*
X101499640Y-39564930D01*
X101546960Y-39521362D01*
X101616897Y-39509145D01*
X101682338Y-39536678D01*
X101710166Y-39568512D01*
X101736459Y-39611419D01*
X101746916Y-39620880D01*
X101755694Y-39617096D01*
X102497978Y-38874812D01*
X102504356Y-38863132D01*
X103234408Y-38863132D01*
X103234539Y-38864965D01*
X103238790Y-38871580D01*
X103980474Y-39613264D01*
X103992484Y-39619823D01*
X104004223Y-39610855D01*
X104038022Y-39563819D01*
X104039149Y-39564629D01*
X104086659Y-39520881D01*
X104156596Y-39508661D01*
X104222038Y-39536191D01*
X104249870Y-39568029D01*
X104276459Y-39611419D01*
X104286916Y-39620880D01*
X104295694Y-39617096D01*
X105037978Y-38874812D01*
X105044356Y-38863132D01*
X105774408Y-38863132D01*
X105774539Y-38864965D01*
X105778790Y-38871580D01*
X106520474Y-39613264D01*
X106532484Y-39619823D01*
X106544223Y-39610855D01*
X106578022Y-39563819D01*
X106579149Y-39564629D01*
X106626659Y-39520881D01*
X106696596Y-39508661D01*
X106762038Y-39536191D01*
X106789870Y-39568029D01*
X106816459Y-39611419D01*
X106826916Y-39620880D01*
X106835694Y-39617096D01*
X107577978Y-38874812D01*
X107585592Y-38860868D01*
X107585461Y-38859035D01*
X107581210Y-38852420D01*
X106839849Y-38111059D01*
X106828313Y-38104759D01*
X106816028Y-38114384D01*
X106783192Y-38162520D01*
X106728281Y-38207523D01*
X106657756Y-38215694D01*
X106594009Y-38184440D01*
X106573311Y-38159955D01*
X106543062Y-38113197D01*
X106532377Y-38103995D01*
X106522812Y-38108398D01*
X105782022Y-38849188D01*
X105774408Y-38863132D01*
X105044356Y-38863132D01*
X105045592Y-38860868D01*
X105045461Y-38859035D01*
X105041210Y-38852420D01*
X104299849Y-38111059D01*
X104288313Y-38104759D01*
X104276028Y-38114384D01*
X104243192Y-38162520D01*
X104188281Y-38207523D01*
X104117756Y-38215694D01*
X104054009Y-38184440D01*
X104033311Y-38159955D01*
X104003062Y-38113197D01*
X103992377Y-38103995D01*
X103982812Y-38108398D01*
X103242022Y-38849188D01*
X103234408Y-38863132D01*
X102504356Y-38863132D01*
X102505592Y-38860868D01*
X102505461Y-38859035D01*
X102501210Y-38852420D01*
X101759849Y-38111059D01*
X101748313Y-38104759D01*
X101736031Y-38114382D01*
X101703499Y-38162072D01*
X101648587Y-38207075D01*
X101578063Y-38215246D01*
X101514316Y-38183992D01*
X101493618Y-38159508D01*
X101412822Y-38034617D01*
X101412820Y-38034614D01*
X101410014Y-38030277D01*
X101259670Y-37865051D01*
X101255619Y-37861852D01*
X101255615Y-37861848D01*
X101099338Y-37738427D01*
X102111223Y-37738427D01*
X102117968Y-37750758D01*
X102857188Y-38489978D01*
X102871132Y-38497592D01*
X102872965Y-38497461D01*
X102879580Y-38493210D01*
X103623389Y-37749401D01*
X103629382Y-37738427D01*
X104651223Y-37738427D01*
X104657968Y-37750758D01*
X105397188Y-38489978D01*
X105411132Y-38497592D01*
X105412965Y-38497461D01*
X105419580Y-38493210D01*
X106163389Y-37749401D01*
X106169382Y-37738427D01*
X107191223Y-37738427D01*
X107197968Y-37750758D01*
X107937188Y-38489978D01*
X107951132Y-38497592D01*
X107952965Y-38497461D01*
X107959580Y-38493210D01*
X108703389Y-37749401D01*
X108710410Y-37736544D01*
X108703611Y-37727213D01*
X108699554Y-37724518D01*
X108513117Y-37621599D01*
X108503705Y-37617369D01*
X108302959Y-37546280D01*
X108292989Y-37543646D01*
X108083327Y-37506301D01*
X108073073Y-37505331D01*
X107860116Y-37502728D01*
X107849832Y-37503448D01*
X107639321Y-37535661D01*
X107629293Y-37538050D01*
X107426868Y-37604212D01*
X107417359Y-37608209D01*
X107228466Y-37706540D01*
X107219734Y-37712039D01*
X107199677Y-37727099D01*
X107191223Y-37738427D01*
X106169382Y-37738427D01*
X106170410Y-37736544D01*
X106163611Y-37727213D01*
X106159554Y-37724518D01*
X105973117Y-37621599D01*
X105963705Y-37617369D01*
X105762959Y-37546280D01*
X105752989Y-37543646D01*
X105543327Y-37506301D01*
X105533073Y-37505331D01*
X105320116Y-37502728D01*
X105309832Y-37503448D01*
X105099321Y-37535661D01*
X105089293Y-37538050D01*
X104886868Y-37604212D01*
X104877359Y-37608209D01*
X104688466Y-37706540D01*
X104679734Y-37712039D01*
X104659677Y-37727099D01*
X104651223Y-37738427D01*
X103629382Y-37738427D01*
X103630410Y-37736544D01*
X103623611Y-37727213D01*
X103619554Y-37724518D01*
X103433117Y-37621599D01*
X103423705Y-37617369D01*
X103222959Y-37546280D01*
X103212989Y-37543646D01*
X103003327Y-37506301D01*
X102993073Y-37505331D01*
X102780116Y-37502728D01*
X102769832Y-37503448D01*
X102559321Y-37535661D01*
X102549293Y-37538050D01*
X102346868Y-37604212D01*
X102337359Y-37608209D01*
X102148466Y-37706540D01*
X102139734Y-37712039D01*
X102119677Y-37727099D01*
X102111223Y-37738427D01*
X101099338Y-37738427D01*
X101088414Y-37729800D01*
X101088410Y-37729798D01*
X101084359Y-37726598D01*
X100888789Y-37618638D01*
X100883920Y-37616914D01*
X100883916Y-37616912D01*
X100683087Y-37545795D01*
X100683083Y-37545794D01*
X100678212Y-37544069D01*
X100673119Y-37543162D01*
X100673116Y-37543161D01*
X100463373Y-37505800D01*
X100463367Y-37505799D01*
X100458284Y-37504894D01*
X100384452Y-37503992D01*
X100240081Y-37502228D01*
X100240079Y-37502228D01*
X100234911Y-37502165D01*
X100014091Y-37535955D01*
X99801756Y-37605357D01*
X99723455Y-37646118D01*
X99681678Y-37667866D01*
X99603607Y-37708507D01*
X99599474Y-37711610D01*
X99599471Y-37711612D01*
X99429970Y-37838877D01*
X99424965Y-37842635D01*
X99421393Y-37846373D01*
X99338580Y-37933032D01*
X99270629Y-38004138D01*
X99267715Y-38008410D01*
X99267714Y-38008411D01*
X99218742Y-38080202D01*
X99144743Y-38188680D01*
X99050688Y-38391305D01*
X98990989Y-38606570D01*
X98967251Y-38828695D01*
X98967548Y-38833848D01*
X98967548Y-38833851D01*
X98969910Y-38874812D01*
X98980110Y-39051715D01*
X98981247Y-39056761D01*
X98981248Y-39056767D01*
X99002275Y-39150069D01*
X99029222Y-39269639D01*
X99113266Y-39476616D01*
X99150072Y-39536678D01*
X99213082Y-39639501D01*
X99229987Y-39667088D01*
X99376250Y-39835938D01*
X99548126Y-39978632D01*
X99559063Y-39985023D01*
X99621445Y-40021476D01*
X99670169Y-40073114D01*
X99683240Y-40142897D01*
X99656509Y-40208669D01*
X99616055Y-40242027D01*
X99603607Y-40248507D01*
X99599474Y-40251610D01*
X99599471Y-40251612D01*
X99429100Y-40379530D01*
X99424965Y-40382635D01*
X99270629Y-40544138D01*
X99144743Y-40728680D01*
X99050688Y-40931305D01*
X98990989Y-41146570D01*
X98967251Y-41368695D01*
X96008500Y-41368695D01*
X96008500Y-35134500D01*
X96028502Y-35066379D01*
X96082158Y-35019886D01*
X96134500Y-35008500D01*
X169865500Y-35008500D01*
X169933621Y-35028502D01*
G37*
%TD.AperFunction*%
%TD*%
M02*
