%TF.GenerationSoftware,KiCad,Pcbnew,(6.0.6-0)*%
%TF.CreationDate,2022-11-02T10:03:17+00:00*%
%TF.ProjectId,atari-punk,61746172-692d-4707-956e-6b2e6b696361,r03*%
%TF.SameCoordinates,Original*%
%TF.FileFunction,Copper,L2,Bot*%
%TF.FilePolarity,Positive*%
%FSLAX46Y46*%
G04 Gerber Fmt 4.6, Leading zero omitted, Abs format (unit mm)*
G04 Created by KiCad (PCBNEW (6.0.6-0)) date 2022-11-02 10:03:17*
%MOMM*%
%LPD*%
G01*
G04 APERTURE LIST*
G04 Aperture macros list*
%AMRoundRect*
0 Rectangle with rounded corners*
0 $1 Rounding radius*
0 $2 $3 $4 $5 $6 $7 $8 $9 X,Y pos of 4 corners*
0 Add a 4 corners polygon primitive as box body*
4,1,4,$2,$3,$4,$5,$6,$7,$8,$9,$2,$3,0*
0 Add four circle primitives for the rounded corners*
1,1,$1+$1,$2,$3*
1,1,$1+$1,$4,$5*
1,1,$1+$1,$6,$7*
1,1,$1+$1,$8,$9*
0 Add four rect primitives between the rounded corners*
20,1,$1+$1,$2,$3,$4,$5,0*
20,1,$1+$1,$4,$5,$6,$7,0*
20,1,$1+$1,$6,$7,$8,$9,0*
20,1,$1+$1,$8,$9,$2,$3,0*%
G04 Aperture macros list end*
%TA.AperFunction,ComponentPad*%
%ADD10C,1.600000*%
%TD*%
%TA.AperFunction,ComponentPad*%
%ADD11R,1.800000X1.800000*%
%TD*%
%TA.AperFunction,ComponentPad*%
%ADD12C,1.800000*%
%TD*%
%TA.AperFunction,ComponentPad*%
%ADD13R,1.600000X1.600000*%
%TD*%
%TA.AperFunction,ComponentPad*%
%ADD14O,1.600000X1.600000*%
%TD*%
%TA.AperFunction,ComponentPad*%
%ADD15C,5.600000*%
%TD*%
%TA.AperFunction,ComponentPad*%
%ADD16RoundRect,0.250000X-0.600000X0.600000X-0.600000X-0.600000X0.600000X-0.600000X0.600000X0.600000X0*%
%TD*%
%TA.AperFunction,ComponentPad*%
%ADD17C,1.700000*%
%TD*%
%TA.AperFunction,ComponentPad*%
%ADD18O,2.200000X2.900000*%
%TD*%
%TA.AperFunction,ComponentPad*%
%ADD19R,2.000000X4.600000*%
%TD*%
%TA.AperFunction,ComponentPad*%
%ADD20O,2.000000X4.200000*%
%TD*%
%TA.AperFunction,ComponentPad*%
%ADD21O,4.200000X2.000000*%
%TD*%
%TA.AperFunction,ComponentPad*%
%ADD22O,3.100000X2.300000*%
%TD*%
%TA.AperFunction,ComponentPad*%
%ADD23RoundRect,0.650000X0.650000X0.650000X-0.650000X0.650000X-0.650000X-0.650000X0.650000X-0.650000X0*%
%TD*%
%TA.AperFunction,Conductor*%
%ADD24C,1.270000*%
%TD*%
G04 APERTURE END LIST*
D10*
%TO.P,C2,1*%
%TO.N,Net-(C2-Pad1)*%
X133096000Y-56388000D03*
%TO.P,C2,2*%
%TO.N,GND*%
X133096000Y-61388000D03*
%TD*%
D11*
%TO.P,D2,1,K*%
%TO.N,GND*%
X101346000Y-64262000D03*
D12*
%TO.P,D2,2,A*%
%TO.N,Net-(D2-Pad2)*%
X101346000Y-66802000D03*
%TD*%
D13*
%TO.P,C3,1*%
%TO.N,VCC*%
X101600000Y-75438000D03*
D10*
%TO.P,C3,2*%
%TO.N,GND*%
X101600000Y-77938000D03*
%TD*%
D13*
%TO.P,U2,1,GND*%
%TO.N,GND*%
X138176000Y-84836000D03*
D14*
%TO.P,U2,2,TR*%
%TO.N,Net-(U1-Pad3)*%
X140716000Y-84836000D03*
%TO.P,U2,3,Q*%
%TO.N,Net-(C7-Pad1)*%
X143256000Y-84836000D03*
%TO.P,U2,4,R*%
%TO.N,VCC*%
X145796000Y-84836000D03*
%TO.P,U2,5,CV*%
%TO.N,Net-(J5-PadT)*%
X145796000Y-77216000D03*
%TO.P,U2,6,THR*%
%TO.N,Net-(C6-Pad1)*%
X143256000Y-77216000D03*
%TO.P,U2,7,DIS*%
X140716000Y-77216000D03*
%TO.P,U2,8,VCC*%
%TO.N,VCC*%
X138176000Y-77216000D03*
%TD*%
D15*
%TO.P,H1,1,1*%
%TO.N,GND*%
X132500000Y-45000000D03*
%TD*%
D10*
%TO.P,C1,1*%
%TO.N,Net-(C1-Pad1)*%
X111252000Y-85090000D03*
%TO.P,C1,2*%
%TO.N,GND*%
X111252000Y-80090000D03*
%TD*%
%TO.P,R1,1*%
%TO.N,VCC*%
X109728000Y-71120000D03*
D14*
%TO.P,R1,2*%
%TO.N,Net-(D2-Pad2)*%
X99568000Y-71120000D03*
%TD*%
D13*
%TO.P,D1,1,K*%
%TO.N,VCC*%
X109728000Y-68326000D03*
D14*
%TO.P,D1,2,A*%
%TO.N,Net-(D1-Pad2)*%
X109728000Y-60706000D03*
%TD*%
D16*
%TO.P,J2,1,-12V*%
%TO.N,unconnected-(J2-Pad1)*%
X110490000Y-38862000D03*
D17*
%TO.P,J2,2,-12V*%
X110490000Y-41402000D03*
%TO.P,J2,3,GND*%
%TO.N,GND*%
X107950000Y-38862000D03*
%TO.P,J2,4,GND*%
X107950000Y-41402000D03*
%TO.P,J2,5,GND*%
X105410000Y-38862000D03*
%TO.P,J2,6,GND*%
X105410000Y-41402000D03*
%TO.P,J2,7,GND*%
X102870000Y-38862000D03*
%TO.P,J2,8,GND*%
X102870000Y-41402000D03*
%TO.P,J2,9,+12V*%
%TO.N,Net-(D1-Pad2)*%
X100330000Y-38862000D03*
%TO.P,J2,10,+12V*%
X100330000Y-41402000D03*
%TD*%
D15*
%TO.P,H2,1,1*%
%TO.N,GND*%
X102500000Y-85000000D03*
%TD*%
D18*
%TO.P,RV3,*%
%TO.N,*%
X157252000Y-63500000D03*
X166852000Y-63500000D03*
D11*
%TO.P,RV3,1,1*%
%TO.N,Net-(C7-Pad2)*%
X164552000Y-56000000D03*
D12*
%TO.P,RV3,2,2*%
%TO.N,Net-(J7-PadT)*%
X162052000Y-56000000D03*
%TO.P,RV3,3,3*%
%TO.N,GND*%
X159552000Y-56000000D03*
%TD*%
D10*
%TO.P,R4,1*%
%TO.N,VCC*%
X134366000Y-73660000D03*
D14*
%TO.P,R4,2*%
%TO.N,Net-(R4-Pad2)*%
X144526000Y-73660000D03*
%TD*%
D13*
%TO.P,C7,1*%
%TO.N,Net-(C7-Pad1)*%
X160528000Y-76668000D03*
D10*
%TO.P,C7,2*%
%TO.N,Net-(C7-Pad2)*%
X160528000Y-74168000D03*
%TD*%
D18*
%TO.P,RV1,*%
%TO.N,*%
X128244000Y-63500000D03*
X118644000Y-63500000D03*
D11*
%TO.P,RV1,1,1*%
%TO.N,Net-(R3-Pad2)*%
X125944000Y-56000000D03*
D12*
%TO.P,RV1,2,2*%
X123444000Y-56000000D03*
%TO.P,RV1,3,3*%
%TO.N,Net-(R2-Pad2)*%
X120944000Y-56000000D03*
%TD*%
D19*
%TO.P,J1,1*%
%TO.N,Net-(D1-Pad2)*%
X109728000Y-52578000D03*
D20*
%TO.P,J1,2*%
%TO.N,GND*%
X103428000Y-52578000D03*
D21*
%TO.P,J1,3*%
%TO.N,unconnected-(J1-Pad3)*%
X106828000Y-57378000D03*
%TD*%
D18*
%TO.P,RV2,*%
%TO.N,*%
X147548000Y-63500000D03*
X137948000Y-63500000D03*
D11*
%TO.P,RV2,1,1*%
%TO.N,Net-(R4-Pad2)*%
X145248000Y-56000000D03*
D12*
%TO.P,RV2,2,2*%
X142748000Y-56000000D03*
%TO.P,RV2,3,3*%
%TO.N,Net-(C6-Pad1)*%
X140248000Y-56000000D03*
%TD*%
D15*
%TO.P,H3,1,1*%
%TO.N,GND*%
X152500000Y-45000000D03*
%TD*%
D10*
%TO.P,C6,1*%
%TO.N,Net-(C6-Pad1)*%
X149860000Y-77216000D03*
%TO.P,C6,2*%
%TO.N,GND*%
X149860000Y-82216000D03*
%TD*%
D22*
%TO.P,J3,S*%
%TO.N,GND*%
X123444000Y-38348000D03*
D23*
%TO.P,J3,T*%
%TO.N,Net-(J3-PadT)*%
X123444000Y-49748000D03*
%TO.P,J3,TN*%
%TO.N,Net-(C2-Pad1)*%
X123444000Y-41448000D03*
%TD*%
D10*
%TO.P,R2,1*%
%TO.N,Net-(C1-Pad1)*%
X114808000Y-85090000D03*
D14*
%TO.P,R2,2*%
%TO.N,Net-(R2-Pad2)*%
X114808000Y-74930000D03*
%TD*%
D10*
%TO.P,C4,1*%
%TO.N,VCC*%
X118364000Y-77216000D03*
%TO.P,C4,2*%
%TO.N,GND*%
X118364000Y-82216000D03*
%TD*%
D22*
%TO.P,J5,S*%
%TO.N,GND*%
X142240000Y-38348000D03*
D23*
%TO.P,J5,T*%
%TO.N,Net-(J5-PadT)*%
X142240000Y-49748000D03*
%TO.P,J5,TN*%
%TO.N,Net-(C5-Pad1)*%
X142240000Y-41448000D03*
%TD*%
D10*
%TO.P,C5,1*%
%TO.N,Net-(C5-Pad1)*%
X152400000Y-56388000D03*
%TO.P,C5,2*%
%TO.N,GND*%
X152400000Y-61388000D03*
%TD*%
%TO.P,R3,1*%
%TO.N,VCC*%
X118364000Y-73660000D03*
D14*
%TO.P,R3,2*%
%TO.N,Net-(R3-Pad2)*%
X128524000Y-73660000D03*
%TD*%
D13*
%TO.P,U1,1,GND*%
%TO.N,GND*%
X122438000Y-84836000D03*
D14*
%TO.P,U1,2,TR*%
%TO.N,Net-(C1-Pad1)*%
X124978000Y-84836000D03*
%TO.P,U1,3,Q*%
%TO.N,Net-(U1-Pad3)*%
X127518000Y-84836000D03*
%TO.P,U1,4,R*%
%TO.N,VCC*%
X130058000Y-84836000D03*
%TO.P,U1,5,CV*%
%TO.N,Net-(J3-PadT)*%
X130058000Y-77216000D03*
%TO.P,U1,6,THR*%
%TO.N,Net-(C1-Pad1)*%
X127518000Y-77216000D03*
%TO.P,U1,7,DIS*%
%TO.N,Net-(R2-Pad2)*%
X124978000Y-77216000D03*
%TO.P,U1,8,VCC*%
%TO.N,VCC*%
X122438000Y-77216000D03*
%TD*%
D22*
%TO.P,J7,S*%
%TO.N,GND*%
X162052000Y-38348000D03*
D23*
%TO.P,J7,T*%
%TO.N,Net-(J7-PadT)*%
X162052000Y-49748000D03*
%TO.P,J7,TN*%
%TO.N,unconnected-(J7-PadTN)*%
X162052000Y-41448000D03*
%TD*%
D24*
%TO.N,Net-(C1-Pad1)*%
X118364000Y-85090000D02*
X120904000Y-82550000D01*
X124978000Y-83322000D02*
X124978000Y-84836000D01*
X120904000Y-82550000D02*
X124206000Y-82550000D01*
X114808000Y-85090000D02*
X118364000Y-85090000D01*
X124206000Y-82550000D02*
X124978000Y-83322000D01*
X111252000Y-85090000D02*
X114808000Y-85090000D01*
%TO.N,VCC*%
X134366000Y-73660000D02*
X134620000Y-73660000D01*
X130556000Y-84836000D02*
X138176000Y-77216000D01*
X109728000Y-68326000D02*
X109728000Y-71120000D01*
X105410000Y-75438000D02*
X109728000Y-71120000D01*
X141986000Y-81026000D02*
X143510000Y-81026000D01*
X143510000Y-81026000D02*
X145796000Y-83312000D01*
X145796000Y-83312000D02*
X145796000Y-84836000D01*
X101600000Y-75438000D02*
X105410000Y-75438000D01*
X113284000Y-77216000D02*
X118364000Y-77216000D01*
X134620000Y-73660000D02*
X138176000Y-77216000D01*
X118364000Y-77216000D02*
X122438000Y-77216000D01*
X109728000Y-71120000D02*
X109728000Y-73660000D01*
X130058000Y-84836000D02*
X130556000Y-84836000D01*
X109728000Y-73660000D02*
X113284000Y-77216000D01*
X122438000Y-77216000D02*
X130058000Y-84836000D01*
X118364000Y-77216000D02*
X118364000Y-73660000D01*
X138176000Y-77216000D02*
X141986000Y-81026000D01*
%TO.N,Net-(C5-Pad1)*%
X142240000Y-41448000D02*
X146604000Y-41448000D01*
X148082000Y-42926000D02*
X148082000Y-52070000D01*
X148082000Y-52070000D02*
X152400000Y-56388000D01*
X146604000Y-41448000D02*
X148082000Y-42926000D01*
%TO.N,Net-(C6-Pad1)*%
X140716000Y-77216000D02*
X143256000Y-77216000D01*
X140716000Y-77216000D02*
X140716000Y-56468000D01*
X144526000Y-79248000D02*
X147828000Y-79248000D01*
X140716000Y-56468000D02*
X140248000Y-56000000D01*
X143256000Y-77216000D02*
X143256000Y-77978000D01*
X143256000Y-77978000D02*
X144526000Y-79248000D01*
X147828000Y-79248000D02*
X149860000Y-77216000D01*
%TO.N,Net-(D1-Pad2)*%
X106172000Y-46228000D02*
X109728000Y-49784000D01*
X110527999Y-53377999D02*
X110527999Y-59906001D01*
X109728000Y-49784000D02*
X109728000Y-52578000D01*
X100330000Y-41402000D02*
X100330000Y-43434000D01*
X110527999Y-59906001D02*
X109728000Y-60706000D01*
X109728000Y-52578000D02*
X110527999Y-53377999D01*
X103124000Y-46228000D02*
X106172000Y-46228000D01*
X100330000Y-38862000D02*
X100330000Y-41402000D01*
X100330000Y-43434000D02*
X103124000Y-46228000D01*
%TO.N,Net-(D2-Pad2)*%
X99568000Y-71120000D02*
X99568000Y-68580000D01*
X99568000Y-68580000D02*
X101346000Y-66802000D01*
%TO.N,unconnected-(J2-Pad1)*%
X110490000Y-38862000D02*
X110490000Y-41402000D01*
%TO.N,Net-(C2-Pad1)*%
X128270000Y-51562000D02*
X133096000Y-56388000D01*
X128270000Y-42418000D02*
X128270000Y-51562000D01*
X123444000Y-41448000D02*
X127300000Y-41448000D01*
X127300000Y-41448000D02*
X128270000Y-42418000D01*
%TO.N,Net-(C7-Pad1)*%
X143256000Y-84836000D02*
X145649412Y-87229412D01*
X149966588Y-87229412D02*
X160528000Y-76668000D01*
X145649412Y-87229412D02*
X149966588Y-87229412D01*
%TO.N,Net-(R4-Pad2)*%
X144526000Y-73660000D02*
X144526000Y-56120000D01*
X144406000Y-56000000D02*
X145248000Y-56000000D01*
X144526000Y-56120000D02*
X144406000Y-56000000D01*
X142748000Y-56000000D02*
X144406000Y-56000000D01*
%TO.N,Net-(J5-PadT)*%
X149860000Y-57034000D02*
X142574000Y-49748000D01*
X149860000Y-73152000D02*
X149860000Y-57034000D01*
X145796000Y-77216000D02*
X149860000Y-73152000D01*
X142574000Y-49748000D02*
X142240000Y-49748000D01*
%TO.N,Net-(J3-PadT)*%
X123444000Y-49748000D02*
X123662000Y-49748000D01*
X130857999Y-56943999D02*
X130857999Y-76416001D01*
X130857999Y-76416001D02*
X130058000Y-77216000D01*
X123662000Y-49748000D02*
X130857999Y-56943999D01*
%TO.N,Net-(U1-Pad3)*%
X139446000Y-86868000D02*
X140716000Y-85598000D01*
X128524000Y-86868000D02*
X139446000Y-86868000D01*
X127518000Y-85862000D02*
X128524000Y-86868000D01*
X140716000Y-85598000D02*
X140716000Y-84836000D01*
X127518000Y-84836000D02*
X127518000Y-85862000D01*
%TO.N,Net-(R2-Pad2)*%
X114808000Y-62136000D02*
X120944000Y-56000000D01*
X124978000Y-77216000D02*
X124978000Y-75702000D01*
X114808000Y-71374000D02*
X114808000Y-62136000D01*
X120650000Y-71374000D02*
X114808000Y-71374000D01*
X114808000Y-74930000D02*
X114808000Y-71374000D01*
X124978000Y-75702000D02*
X120650000Y-71374000D01*
%TO.N,Net-(C7-Pad2)*%
X160528000Y-62230000D02*
X160528000Y-74168000D01*
X164552000Y-56000000D02*
X164552000Y-58206000D01*
X164552000Y-58206000D02*
X160528000Y-62230000D01*
%TO.N,Net-(J7-PadT)*%
X162052000Y-56000000D02*
X162052000Y-49748000D01*
%TO.N,Net-(R3-Pad2)*%
X125944000Y-71080000D02*
X128524000Y-73660000D01*
X123444000Y-56000000D02*
X125944000Y-56000000D01*
X125944000Y-56000000D02*
X125944000Y-71080000D01*
%TD*%
%TA.AperFunction,Conductor*%
%TO.N,GND*%
G36*
X169933621Y-35028502D02*
G01*
X169980114Y-35082158D01*
X169991500Y-35134500D01*
X169991500Y-87865500D01*
X169971498Y-87933621D01*
X169917842Y-87980114D01*
X169865500Y-87991500D01*
X151125843Y-87991500D01*
X151057722Y-87971498D01*
X151011229Y-87917842D01*
X151001125Y-87847568D01*
X151030619Y-87782988D01*
X151036748Y-87776405D01*
X155875647Y-82937507D01*
X160799749Y-78013405D01*
X160862061Y-77979379D01*
X160888844Y-77976500D01*
X161376134Y-77976500D01*
X161438316Y-77969745D01*
X161574705Y-77918615D01*
X161691261Y-77831261D01*
X161778615Y-77714705D01*
X161829745Y-77578316D01*
X161836500Y-77516134D01*
X161836500Y-75819866D01*
X161829745Y-75757684D01*
X161778615Y-75621295D01*
X161691261Y-75504739D01*
X161574705Y-75417385D01*
X161438316Y-75366255D01*
X161439046Y-75364309D01*
X161386795Y-75334455D01*
X161353979Y-75271497D01*
X161360409Y-75200793D01*
X161388498Y-75158000D01*
X161534198Y-75012300D01*
X161549391Y-74990603D01*
X161595659Y-74924525D01*
X161665523Y-74824749D01*
X161667846Y-74819767D01*
X161667849Y-74819762D01*
X161759961Y-74622225D01*
X161759961Y-74622224D01*
X161762284Y-74617243D01*
X161784177Y-74535540D01*
X161820119Y-74401402D01*
X161820119Y-74401400D01*
X161821543Y-74396087D01*
X161841498Y-74168000D01*
X161821543Y-73939913D01*
X161820119Y-73934598D01*
X161763707Y-73724067D01*
X161763706Y-73724065D01*
X161762284Y-73718757D01*
X161683305Y-73549385D01*
X161671500Y-73496135D01*
X161671500Y-63913199D01*
X165243500Y-63913199D01*
X165258391Y-64102403D01*
X165317495Y-64348591D01*
X165319388Y-64353162D01*
X165319389Y-64353164D01*
X165392450Y-64529548D01*
X165414384Y-64582502D01*
X165546672Y-64798376D01*
X165711102Y-64990898D01*
X165903624Y-65155328D01*
X166119498Y-65287616D01*
X166124068Y-65289509D01*
X166124072Y-65289511D01*
X166348836Y-65382611D01*
X166353409Y-65384505D01*
X166418176Y-65400054D01*
X166594784Y-65442454D01*
X166594790Y-65442455D01*
X166599597Y-65443609D01*
X166852000Y-65463474D01*
X167104403Y-65443609D01*
X167109210Y-65442455D01*
X167109216Y-65442454D01*
X167285824Y-65400054D01*
X167350591Y-65384505D01*
X167355164Y-65382611D01*
X167579928Y-65289511D01*
X167579932Y-65289509D01*
X167584502Y-65287616D01*
X167800376Y-65155328D01*
X167992898Y-64990898D01*
X168157328Y-64798376D01*
X168289616Y-64582502D01*
X168311551Y-64529548D01*
X168384611Y-64353164D01*
X168384612Y-64353162D01*
X168386505Y-64348591D01*
X168445609Y-64102403D01*
X168460500Y-63913199D01*
X168460500Y-63086801D01*
X168445609Y-62897597D01*
X168437429Y-62863522D01*
X168406821Y-62736032D01*
X168386505Y-62651409D01*
X168384611Y-62646836D01*
X168291511Y-62422072D01*
X168291509Y-62422068D01*
X168289616Y-62417498D01*
X168157328Y-62201624D01*
X167992898Y-62009102D01*
X167800376Y-61844672D01*
X167602168Y-61723210D01*
X167588722Y-61714970D01*
X167584502Y-61712384D01*
X167579932Y-61710491D01*
X167579928Y-61710489D01*
X167355164Y-61617389D01*
X167355162Y-61617388D01*
X167350591Y-61615495D01*
X167255634Y-61592698D01*
X167109216Y-61557546D01*
X167109210Y-61557545D01*
X167104403Y-61556391D01*
X166852000Y-61536526D01*
X166599597Y-61556391D01*
X166594790Y-61557545D01*
X166594784Y-61557546D01*
X166448366Y-61592698D01*
X166353409Y-61615495D01*
X166348838Y-61617388D01*
X166348836Y-61617389D01*
X166124072Y-61710489D01*
X166124068Y-61710491D01*
X166119498Y-61712384D01*
X166115278Y-61714970D01*
X166101832Y-61723210D01*
X165903624Y-61844672D01*
X165711102Y-62009102D01*
X165546672Y-62201624D01*
X165414384Y-62417498D01*
X165412491Y-62422068D01*
X165412489Y-62422072D01*
X165319389Y-62646836D01*
X165317495Y-62651409D01*
X165297179Y-62736032D01*
X165266572Y-62863522D01*
X165258391Y-62897597D01*
X165243500Y-63086801D01*
X165243500Y-63913199D01*
X161671500Y-63913199D01*
X161671500Y-62755843D01*
X161691502Y-62687722D01*
X161708405Y-62666748D01*
X165330304Y-59044849D01*
X165336322Y-59039212D01*
X165380680Y-59000311D01*
X165385019Y-58996506D01*
X165439793Y-58927027D01*
X165441853Y-58924483D01*
X165494728Y-58860908D01*
X165494735Y-58860898D01*
X165498425Y-58856461D01*
X165501250Y-58851417D01*
X165503351Y-58848359D01*
X165509552Y-58839079D01*
X165511555Y-58835995D01*
X165515128Y-58831463D01*
X165517812Y-58826362D01*
X165517815Y-58826357D01*
X165556319Y-58753171D01*
X165557894Y-58750271D01*
X165598290Y-58678140D01*
X165598291Y-58678138D01*
X165601114Y-58673097D01*
X165602972Y-58667622D01*
X165604481Y-58664233D01*
X165608889Y-58653972D01*
X165610292Y-58650586D01*
X165612982Y-58645473D01*
X165639224Y-58560960D01*
X165640244Y-58557822D01*
X165666812Y-58479556D01*
X165666812Y-58479555D01*
X165668668Y-58474088D01*
X165669497Y-58468373D01*
X165670366Y-58464752D01*
X165672836Y-58453837D01*
X165673592Y-58450279D01*
X165675304Y-58444766D01*
X165685708Y-58356866D01*
X165686131Y-58353654D01*
X165698825Y-58266103D01*
X165695597Y-58183946D01*
X165695500Y-58178999D01*
X165695500Y-57416044D01*
X165715502Y-57347923D01*
X165745935Y-57315218D01*
X165808081Y-57268642D01*
X165815261Y-57263261D01*
X165902615Y-57146705D01*
X165953745Y-57010316D01*
X165960500Y-56948134D01*
X165960500Y-55051866D01*
X165953745Y-54989684D01*
X165902615Y-54853295D01*
X165815261Y-54736739D01*
X165698705Y-54649385D01*
X165562316Y-54598255D01*
X165500134Y-54591500D01*
X163603866Y-54591500D01*
X163541684Y-54598255D01*
X163405295Y-54649385D01*
X163398110Y-54654770D01*
X163398108Y-54654771D01*
X163397065Y-54655553D01*
X163395853Y-54656006D01*
X163390240Y-54659079D01*
X163389796Y-54658269D01*
X163330558Y-54680401D01*
X163261176Y-54665348D01*
X163210946Y-54615173D01*
X163195500Y-54554727D01*
X163195500Y-51528230D01*
X163215502Y-51460109D01*
X163262263Y-51419932D01*
X163261067Y-51417800D01*
X163266104Y-51414974D01*
X163271378Y-51412620D01*
X163335379Y-51368551D01*
X163441988Y-51295144D01*
X163441989Y-51295143D01*
X163446744Y-51291869D01*
X163507304Y-51231204D01*
X163593089Y-51145270D01*
X163593093Y-51145265D01*
X163597168Y-51141183D01*
X163717613Y-50965607D01*
X163804044Y-50771021D01*
X163829901Y-50662905D01*
X163852373Y-50568941D01*
X163852374Y-50568937D01*
X163853568Y-50563943D01*
X163860500Y-50467237D01*
X163860499Y-49028764D01*
X163859534Y-49015571D01*
X163853653Y-48935182D01*
X163853652Y-48935178D01*
X163853277Y-48930047D01*
X163803391Y-48723056D01*
X163716620Y-48528622D01*
X163595869Y-48353256D01*
X163549175Y-48306643D01*
X163449270Y-48206911D01*
X163449265Y-48206907D01*
X163445183Y-48202832D01*
X163269607Y-48082387D01*
X163172314Y-48039171D01*
X163080299Y-47998300D01*
X163080295Y-47998299D01*
X163075021Y-47995956D01*
X163037753Y-47987043D01*
X162872941Y-47947627D01*
X162872937Y-47947626D01*
X162867943Y-47946432D01*
X162831715Y-47943835D01*
X162773487Y-47939661D01*
X162773479Y-47939661D01*
X162771237Y-47939500D01*
X162058457Y-47939500D01*
X161332764Y-47939501D01*
X161330471Y-47939669D01*
X161330464Y-47939669D01*
X161239182Y-47946347D01*
X161239178Y-47946348D01*
X161234047Y-47946723D01*
X161027056Y-47996609D01*
X160832622Y-48083380D01*
X160827868Y-48086653D01*
X160827867Y-48086654D01*
X160663886Y-48199566D01*
X160657256Y-48204131D01*
X160653176Y-48208218D01*
X160653175Y-48208219D01*
X160510911Y-48350730D01*
X160510907Y-48350735D01*
X160506832Y-48354817D01*
X160386387Y-48530393D01*
X160299956Y-48724979D01*
X160250432Y-48932057D01*
X160250065Y-48937179D01*
X160244446Y-49015571D01*
X160243500Y-49028763D01*
X160243501Y-50467236D01*
X160250723Y-50565953D01*
X160300609Y-50772944D01*
X160387380Y-50967378D01*
X160390653Y-50972132D01*
X160390654Y-50972133D01*
X160496087Y-51125252D01*
X160508131Y-51142744D01*
X160512218Y-51146824D01*
X160512219Y-51146825D01*
X160654730Y-51289089D01*
X160654735Y-51289093D01*
X160658817Y-51293168D01*
X160663578Y-51296434D01*
X160822962Y-51405771D01*
X160834393Y-51413613D01*
X160839674Y-51415959D01*
X160843969Y-51418359D01*
X160893675Y-51469052D01*
X160908500Y-51528348D01*
X160908500Y-55101522D01*
X160888498Y-55169643D01*
X160834842Y-55216136D01*
X160764568Y-55226240D01*
X160720719Y-55206295D01*
X160712157Y-55205090D01*
X160700973Y-55210238D01*
X159924021Y-55987189D01*
X159916408Y-56001132D01*
X159916539Y-56002966D01*
X159920790Y-56009580D01*
X160698307Y-56787096D01*
X160710313Y-56793652D01*
X160719244Y-56786829D01*
X160785519Y-56761370D01*
X160855037Y-56775783D01*
X160903165Y-56821117D01*
X160908800Y-56830311D01*
X160911501Y-56834719D01*
X161063147Y-57009784D01*
X161241349Y-57157730D01*
X161441322Y-57274584D01*
X161657694Y-57357209D01*
X161662760Y-57358240D01*
X161662761Y-57358240D01*
X161666949Y-57359092D01*
X161884656Y-57403385D01*
X162014089Y-57408131D01*
X162110949Y-57411683D01*
X162110953Y-57411683D01*
X162116113Y-57411872D01*
X162121233Y-57411216D01*
X162121235Y-57411216D01*
X162195166Y-57401745D01*
X162345847Y-57382442D01*
X162350795Y-57380957D01*
X162350802Y-57380956D01*
X162562747Y-57317369D01*
X162567690Y-57315886D01*
X162649161Y-57275974D01*
X162771049Y-57216262D01*
X162771052Y-57216260D01*
X162775684Y-57213991D01*
X162964243Y-57079494D01*
X162971078Y-57072683D01*
X162980189Y-57063604D01*
X163042561Y-57029689D01*
X163113368Y-57034878D01*
X163170129Y-57077525D01*
X163187110Y-57108627D01*
X163201385Y-57146705D01*
X163288739Y-57263261D01*
X163295919Y-57268642D01*
X163358065Y-57315218D01*
X163400580Y-57372077D01*
X163408500Y-57416044D01*
X163408500Y-57680156D01*
X163388498Y-57748277D01*
X163371595Y-57769251D01*
X159749696Y-61391151D01*
X159743678Y-61396788D01*
X159694981Y-61439494D01*
X159691406Y-61444029D01*
X159691405Y-61444030D01*
X159640202Y-61508982D01*
X159638124Y-61511547D01*
X159585266Y-61575100D01*
X159585262Y-61575105D01*
X159581574Y-61579540D01*
X159578755Y-61584574D01*
X159576686Y-61587584D01*
X159570492Y-61596854D01*
X159568449Y-61599999D01*
X159564872Y-61604537D01*
X159562184Y-61609645D01*
X159562182Y-61609649D01*
X159558110Y-61617389D01*
X159526340Y-61677776D01*
X159523688Y-61682816D01*
X159522118Y-61685706D01*
X159508239Y-61710489D01*
X159486610Y-61749111D01*
X159478885Y-61762904D01*
X159477028Y-61768376D01*
X159475514Y-61771776D01*
X159471127Y-61781987D01*
X159469705Y-61785421D01*
X159467018Y-61790527D01*
X159465306Y-61796041D01*
X159465305Y-61796043D01*
X159440788Y-61874999D01*
X159439769Y-61878135D01*
X159411331Y-61961912D01*
X159410502Y-61967625D01*
X159409659Y-61971138D01*
X159407167Y-61982151D01*
X159406409Y-61985718D01*
X159404696Y-61991234D01*
X159404018Y-61996962D01*
X159404017Y-61996967D01*
X159394297Y-62079098D01*
X159393870Y-62082340D01*
X159381175Y-62169897D01*
X159381402Y-62175665D01*
X159384403Y-62252054D01*
X159384500Y-62257001D01*
X159384500Y-73496135D01*
X159372695Y-73549385D01*
X159293716Y-73718757D01*
X159292294Y-73724065D01*
X159292293Y-73724067D01*
X159235881Y-73934598D01*
X159234457Y-73939913D01*
X159214502Y-74168000D01*
X159234457Y-74396087D01*
X159235881Y-74401400D01*
X159235881Y-74401402D01*
X159271824Y-74535540D01*
X159293716Y-74617243D01*
X159296039Y-74622224D01*
X159296039Y-74622225D01*
X159388151Y-74819762D01*
X159388154Y-74819767D01*
X159390477Y-74824749D01*
X159460341Y-74924525D01*
X159506610Y-74990603D01*
X159521802Y-75012300D01*
X159667502Y-75158000D01*
X159701528Y-75220312D01*
X159696463Y-75291127D01*
X159653916Y-75347963D01*
X159617263Y-75365132D01*
X159617684Y-75366255D01*
X159481295Y-75417385D01*
X159364739Y-75504739D01*
X159277385Y-75621295D01*
X159226255Y-75757684D01*
X159219500Y-75819866D01*
X159219500Y-76307157D01*
X159199498Y-76375278D01*
X159182595Y-76396252D01*
X149529840Y-86049007D01*
X149467528Y-86083033D01*
X149440745Y-86085912D01*
X146691861Y-86085912D01*
X146623740Y-86065910D01*
X146577247Y-86012254D01*
X146567143Y-85941980D01*
X146596637Y-85877400D01*
X146619588Y-85856701D01*
X146640300Y-85842198D01*
X146802198Y-85680300D01*
X146806442Y-85674240D01*
X146876996Y-85573477D01*
X146933523Y-85492749D01*
X146935846Y-85487767D01*
X146935849Y-85487762D01*
X147027961Y-85290225D01*
X147027961Y-85290224D01*
X147030284Y-85285243D01*
X147078970Y-85103548D01*
X147088119Y-85069402D01*
X147088119Y-85069400D01*
X147089543Y-85064087D01*
X147109498Y-84836000D01*
X147089543Y-84607913D01*
X147081028Y-84576135D01*
X147031707Y-84392067D01*
X147031706Y-84392065D01*
X147030284Y-84386757D01*
X146951305Y-84217385D01*
X146939500Y-84164135D01*
X146939500Y-83354795D01*
X146939770Y-83346554D01*
X146942686Y-83302062D01*
X149138493Y-83302062D01*
X149147789Y-83314077D01*
X149198994Y-83349931D01*
X149208489Y-83355414D01*
X149405947Y-83447490D01*
X149416239Y-83451236D01*
X149626688Y-83507625D01*
X149637481Y-83509528D01*
X149854525Y-83528517D01*
X149865475Y-83528517D01*
X150082519Y-83509528D01*
X150093312Y-83507625D01*
X150303761Y-83451236D01*
X150314053Y-83447490D01*
X150511511Y-83355414D01*
X150521006Y-83349931D01*
X150573048Y-83313491D01*
X150581424Y-83303012D01*
X150574356Y-83289566D01*
X149872812Y-82588022D01*
X149858868Y-82580408D01*
X149857035Y-82580539D01*
X149850420Y-82584790D01*
X149144923Y-83290287D01*
X149138493Y-83302062D01*
X146942686Y-83302062D01*
X146943627Y-83287705D01*
X146944005Y-83281939D01*
X146933608Y-83194092D01*
X146933264Y-83190813D01*
X146925698Y-83108477D01*
X146925698Y-83108476D01*
X146925169Y-83102721D01*
X146923601Y-83097162D01*
X146922939Y-83093588D01*
X146920750Y-83082585D01*
X146919982Y-83078972D01*
X146919303Y-83073235D01*
X146893062Y-82988724D01*
X146892139Y-82985605D01*
X146878551Y-82937424D01*
X146868123Y-82900451D01*
X146865565Y-82895263D01*
X146864240Y-82891812D01*
X146860099Y-82881434D01*
X146858696Y-82878047D01*
X146856982Y-82872527D01*
X146815801Y-82794254D01*
X146814305Y-82791318D01*
X146782658Y-82727145D01*
X146775171Y-82711963D01*
X146771713Y-82707332D01*
X146769750Y-82704129D01*
X146763827Y-82694742D01*
X146761818Y-82691649D01*
X146759129Y-82686537D01*
X146704344Y-82617044D01*
X146702373Y-82614474D01*
X146652884Y-82548199D01*
X146652877Y-82548192D01*
X146649427Y-82543571D01*
X146589026Y-82487737D01*
X146585461Y-82484308D01*
X146322628Y-82221475D01*
X148547483Y-82221475D01*
X148566472Y-82438519D01*
X148568375Y-82449312D01*
X148624764Y-82659761D01*
X148628510Y-82670053D01*
X148720586Y-82867511D01*
X148726069Y-82877006D01*
X148762509Y-82929048D01*
X148772988Y-82937424D01*
X148786434Y-82930356D01*
X149487978Y-82228812D01*
X149494356Y-82217132D01*
X150224408Y-82217132D01*
X150224539Y-82218965D01*
X150228790Y-82225580D01*
X150934287Y-82931077D01*
X150946062Y-82937507D01*
X150958077Y-82928211D01*
X150993931Y-82877006D01*
X150999414Y-82867511D01*
X151091490Y-82670053D01*
X151095236Y-82659761D01*
X151151625Y-82449312D01*
X151153528Y-82438519D01*
X151172517Y-82221475D01*
X151172517Y-82210525D01*
X151153528Y-81993481D01*
X151151625Y-81982688D01*
X151095236Y-81772239D01*
X151091490Y-81761947D01*
X150999414Y-81564489D01*
X150993931Y-81554994D01*
X150957491Y-81502952D01*
X150947012Y-81494576D01*
X150933566Y-81501644D01*
X150232022Y-82203188D01*
X150224408Y-82217132D01*
X149494356Y-82217132D01*
X149495592Y-82214868D01*
X149495461Y-82213035D01*
X149491210Y-82206420D01*
X148785713Y-81500923D01*
X148773938Y-81494493D01*
X148761923Y-81503789D01*
X148726069Y-81554994D01*
X148720586Y-81564489D01*
X148628510Y-81761947D01*
X148624764Y-81772239D01*
X148568375Y-81982688D01*
X148566472Y-81993481D01*
X148547483Y-82210525D01*
X148547483Y-82221475D01*
X146322628Y-82221475D01*
X145230141Y-81128988D01*
X149138576Y-81128988D01*
X149145644Y-81142434D01*
X149847188Y-81843978D01*
X149861132Y-81851592D01*
X149862965Y-81851461D01*
X149869580Y-81847210D01*
X150575077Y-81141713D01*
X150581507Y-81129938D01*
X150572211Y-81117923D01*
X150521006Y-81082069D01*
X150511511Y-81076586D01*
X150314053Y-80984510D01*
X150303761Y-80980764D01*
X150093312Y-80924375D01*
X150082519Y-80922472D01*
X149865475Y-80903483D01*
X149854525Y-80903483D01*
X149637481Y-80922472D01*
X149626688Y-80924375D01*
X149416239Y-80980764D01*
X149405947Y-80984510D01*
X149208489Y-81076586D01*
X149198994Y-81082069D01*
X149146952Y-81118509D01*
X149138576Y-81128988D01*
X145230141Y-81128988D01*
X144707748Y-80606595D01*
X144673722Y-80544283D01*
X144678787Y-80473468D01*
X144721334Y-80416632D01*
X144787854Y-80391821D01*
X144796843Y-80391500D01*
X147785195Y-80391500D01*
X147793436Y-80391770D01*
X147858061Y-80396006D01*
X147945973Y-80385601D01*
X147949186Y-80385264D01*
X148037279Y-80377169D01*
X148042839Y-80375601D01*
X148046412Y-80374939D01*
X148057415Y-80372750D01*
X148061028Y-80371982D01*
X148066765Y-80371303D01*
X148151276Y-80345062D01*
X148154373Y-80344146D01*
X148239549Y-80320123D01*
X148244737Y-80317565D01*
X148248188Y-80316240D01*
X148258566Y-80312099D01*
X148261953Y-80310696D01*
X148267473Y-80308982D01*
X148345746Y-80267801D01*
X148348682Y-80266305D01*
X148428037Y-80227171D01*
X148432668Y-80223713D01*
X148435871Y-80221750D01*
X148445258Y-80215827D01*
X148448351Y-80213818D01*
X148453463Y-80211129D01*
X148522956Y-80156344D01*
X148525526Y-80154373D01*
X148591801Y-80104884D01*
X148591808Y-80104877D01*
X148596429Y-80101427D01*
X148608039Y-80088868D01*
X148652262Y-80041027D01*
X148655692Y-80037461D01*
X150194700Y-78498453D01*
X150251184Y-78465841D01*
X150303929Y-78451708D01*
X150303932Y-78451707D01*
X150309243Y-78450284D01*
X150434121Y-78392053D01*
X150511762Y-78355849D01*
X150511767Y-78355846D01*
X150516749Y-78353523D01*
X150647043Y-78262290D01*
X150699789Y-78225357D01*
X150699792Y-78225355D01*
X150704300Y-78222198D01*
X150866198Y-78060300D01*
X150877136Y-78044680D01*
X150936031Y-77960568D01*
X150997523Y-77872749D01*
X150999846Y-77867767D01*
X150999849Y-77867762D01*
X151091961Y-77670225D01*
X151091961Y-77670224D01*
X151094284Y-77665243D01*
X151142863Y-77483947D01*
X151152119Y-77449402D01*
X151152119Y-77449400D01*
X151153543Y-77444087D01*
X151173498Y-77216000D01*
X151153543Y-76987913D01*
X151123083Y-76874234D01*
X151095707Y-76772067D01*
X151095706Y-76772065D01*
X151094284Y-76766757D01*
X151091960Y-76761773D01*
X150999849Y-76564238D01*
X150999846Y-76564233D01*
X150997523Y-76559251D01*
X150898037Y-76417171D01*
X150869357Y-76376211D01*
X150869355Y-76376208D01*
X150866198Y-76371700D01*
X150704300Y-76209802D01*
X150699792Y-76206645D01*
X150699789Y-76206643D01*
X150602825Y-76138748D01*
X150516749Y-76078477D01*
X150511767Y-76076154D01*
X150511762Y-76076151D01*
X150314225Y-75984039D01*
X150314224Y-75984039D01*
X150309243Y-75981716D01*
X150303935Y-75980294D01*
X150303933Y-75980293D01*
X150093402Y-75923881D01*
X150093400Y-75923881D01*
X150088087Y-75922457D01*
X149860000Y-75902502D01*
X149631913Y-75922457D01*
X149626600Y-75923881D01*
X149626598Y-75923881D01*
X149416067Y-75980293D01*
X149416065Y-75980294D01*
X149410757Y-75981716D01*
X149405776Y-75984039D01*
X149405775Y-75984039D01*
X149208238Y-76076151D01*
X149208233Y-76076154D01*
X149203251Y-76078477D01*
X149117175Y-76138748D01*
X149020211Y-76206643D01*
X149020208Y-76206645D01*
X149015700Y-76209802D01*
X148853802Y-76371700D01*
X148850645Y-76376208D01*
X148850643Y-76376211D01*
X148821963Y-76417171D01*
X148722477Y-76559251D01*
X148720154Y-76564233D01*
X148720151Y-76564238D01*
X148700378Y-76606642D01*
X148625716Y-76766757D01*
X148624293Y-76772067D01*
X148624292Y-76772071D01*
X148610159Y-76824816D01*
X148577547Y-76881300D01*
X147391252Y-78067595D01*
X147328940Y-78101621D01*
X147302157Y-78104500D01*
X147013293Y-78104500D01*
X146945172Y-78084498D01*
X146898679Y-78030842D01*
X146888575Y-77960568D01*
X146910080Y-77906229D01*
X146930366Y-77877257D01*
X146933523Y-77872749D01*
X146935846Y-77867767D01*
X146935849Y-77867762D01*
X147006858Y-77715481D01*
X147030284Y-77665243D01*
X147045841Y-77607184D01*
X147078453Y-77550700D01*
X150638304Y-73990849D01*
X150644322Y-73985212D01*
X150644808Y-73984786D01*
X150693019Y-73942506D01*
X150747798Y-73873018D01*
X150749876Y-73870453D01*
X150802734Y-73806900D01*
X150802738Y-73806895D01*
X150806426Y-73802460D01*
X150809245Y-73797426D01*
X150811314Y-73794416D01*
X150817508Y-73785146D01*
X150819551Y-73782001D01*
X150823128Y-73777463D01*
X150864318Y-73699174D01*
X150865887Y-73696284D01*
X150906291Y-73624139D01*
X150906292Y-73624137D01*
X150909115Y-73619096D01*
X150910972Y-73613624D01*
X150912486Y-73610224D01*
X150916873Y-73600013D01*
X150918295Y-73596579D01*
X150920982Y-73591473D01*
X150947212Y-73507001D01*
X150948231Y-73503865D01*
X150974813Y-73425555D01*
X150976669Y-73420088D01*
X150977498Y-73414375D01*
X150978341Y-73410862D01*
X150980833Y-73399849D01*
X150981591Y-73396282D01*
X150983304Y-73390766D01*
X150993706Y-73302882D01*
X150994134Y-73299631D01*
X151006825Y-73212103D01*
X151003597Y-73129946D01*
X151003500Y-73124999D01*
X151003500Y-63913199D01*
X155643500Y-63913199D01*
X155658391Y-64102403D01*
X155717495Y-64348591D01*
X155719388Y-64353162D01*
X155719389Y-64353164D01*
X155792450Y-64529548D01*
X155814384Y-64582502D01*
X155946672Y-64798376D01*
X156111102Y-64990898D01*
X156303624Y-65155328D01*
X156519498Y-65287616D01*
X156524068Y-65289509D01*
X156524072Y-65289511D01*
X156748836Y-65382611D01*
X156753409Y-65384505D01*
X156818176Y-65400054D01*
X156994784Y-65442454D01*
X156994790Y-65442455D01*
X156999597Y-65443609D01*
X157252000Y-65463474D01*
X157504403Y-65443609D01*
X157509210Y-65442455D01*
X157509216Y-65442454D01*
X157685824Y-65400054D01*
X157750591Y-65384505D01*
X157755164Y-65382611D01*
X157979928Y-65289511D01*
X157979932Y-65289509D01*
X157984502Y-65287616D01*
X158200376Y-65155328D01*
X158392898Y-64990898D01*
X158557328Y-64798376D01*
X158689616Y-64582502D01*
X158711551Y-64529548D01*
X158784611Y-64353164D01*
X158784612Y-64353162D01*
X158786505Y-64348591D01*
X158845609Y-64102403D01*
X158860500Y-63913199D01*
X158860500Y-63086801D01*
X158845609Y-62897597D01*
X158837429Y-62863522D01*
X158806821Y-62736032D01*
X158786505Y-62651409D01*
X158784611Y-62646836D01*
X158691511Y-62422072D01*
X158691509Y-62422068D01*
X158689616Y-62417498D01*
X158557328Y-62201624D01*
X158392898Y-62009102D01*
X158200376Y-61844672D01*
X158002168Y-61723210D01*
X157988722Y-61714970D01*
X157984502Y-61712384D01*
X157979932Y-61710491D01*
X157979928Y-61710489D01*
X157755164Y-61617389D01*
X157755162Y-61617388D01*
X157750591Y-61615495D01*
X157655634Y-61592698D01*
X157509216Y-61557546D01*
X157509210Y-61557545D01*
X157504403Y-61556391D01*
X157252000Y-61536526D01*
X156999597Y-61556391D01*
X156994790Y-61557545D01*
X156994784Y-61557546D01*
X156848366Y-61592698D01*
X156753409Y-61615495D01*
X156748838Y-61617388D01*
X156748836Y-61617389D01*
X156524072Y-61710489D01*
X156524068Y-61710491D01*
X156519498Y-61712384D01*
X156515278Y-61714970D01*
X156501832Y-61723210D01*
X156303624Y-61844672D01*
X156111102Y-62009102D01*
X155946672Y-62201624D01*
X155814384Y-62417498D01*
X155812491Y-62422068D01*
X155812489Y-62422072D01*
X155719389Y-62646836D01*
X155717495Y-62651409D01*
X155697179Y-62736032D01*
X155666572Y-62863522D01*
X155658391Y-62897597D01*
X155643500Y-63086801D01*
X155643500Y-63913199D01*
X151003500Y-63913199D01*
X151003500Y-62474062D01*
X151678493Y-62474062D01*
X151687789Y-62486077D01*
X151738994Y-62521931D01*
X151748489Y-62527414D01*
X151945947Y-62619490D01*
X151956239Y-62623236D01*
X152166688Y-62679625D01*
X152177481Y-62681528D01*
X152394525Y-62700517D01*
X152405475Y-62700517D01*
X152622519Y-62681528D01*
X152633312Y-62679625D01*
X152843761Y-62623236D01*
X152854053Y-62619490D01*
X153051511Y-62527414D01*
X153061006Y-62521931D01*
X153113048Y-62485491D01*
X153121424Y-62475012D01*
X153114356Y-62461566D01*
X152412812Y-61760022D01*
X152398868Y-61752408D01*
X152397035Y-61752539D01*
X152390420Y-61756790D01*
X151684923Y-62462287D01*
X151678493Y-62474062D01*
X151003500Y-62474062D01*
X151003500Y-62056537D01*
X151023502Y-61988416D01*
X151077158Y-61941923D01*
X151147432Y-61931819D01*
X151212012Y-61961313D01*
X151243695Y-62003287D01*
X151260586Y-62039511D01*
X151266069Y-62049006D01*
X151302509Y-62101048D01*
X151312988Y-62109424D01*
X151326434Y-62102356D01*
X152027978Y-61400812D01*
X152034356Y-61389132D01*
X152764408Y-61389132D01*
X152764539Y-61390965D01*
X152768790Y-61397580D01*
X153474287Y-62103077D01*
X153486062Y-62109507D01*
X153498077Y-62100211D01*
X153533931Y-62049006D01*
X153539414Y-62039511D01*
X153631490Y-61842053D01*
X153635236Y-61831761D01*
X153691625Y-61621312D01*
X153693528Y-61610519D01*
X153712517Y-61393475D01*
X153712517Y-61382525D01*
X153693528Y-61165481D01*
X153691625Y-61154688D01*
X153635236Y-60944239D01*
X153631490Y-60933947D01*
X153539414Y-60736489D01*
X153533931Y-60726994D01*
X153497491Y-60674952D01*
X153487012Y-60666576D01*
X153473566Y-60673644D01*
X152772022Y-61375188D01*
X152764408Y-61389132D01*
X152034356Y-61389132D01*
X152035592Y-61386868D01*
X152035461Y-61385035D01*
X152031210Y-61378420D01*
X151325713Y-60672923D01*
X151313938Y-60666493D01*
X151301923Y-60675789D01*
X151266069Y-60726994D01*
X151260586Y-60736489D01*
X151243695Y-60772713D01*
X151196778Y-60825998D01*
X151128500Y-60845459D01*
X151060541Y-60824917D01*
X151014475Y-60770894D01*
X151003500Y-60719463D01*
X151003500Y-60300988D01*
X151678576Y-60300988D01*
X151685644Y-60314434D01*
X152387188Y-61015978D01*
X152401132Y-61023592D01*
X152402965Y-61023461D01*
X152409580Y-61019210D01*
X153115077Y-60313713D01*
X153121507Y-60301938D01*
X153112211Y-60289923D01*
X153061006Y-60254069D01*
X153051511Y-60248586D01*
X152854053Y-60156510D01*
X152843761Y-60152764D01*
X152633312Y-60096375D01*
X152622519Y-60094472D01*
X152405475Y-60075483D01*
X152394525Y-60075483D01*
X152177481Y-60094472D01*
X152166688Y-60096375D01*
X151956239Y-60152764D01*
X151945947Y-60156510D01*
X151748489Y-60248586D01*
X151738994Y-60254069D01*
X151686952Y-60290509D01*
X151678576Y-60300988D01*
X151003500Y-60300988D01*
X151003500Y-57076805D01*
X151003770Y-57068562D01*
X151004867Y-57051830D01*
X151029283Y-56985164D01*
X151085865Y-56942281D01*
X151156650Y-56936796D01*
X151219163Y-56970451D01*
X151244792Y-57006824D01*
X151260149Y-57039758D01*
X151260153Y-57039764D01*
X151262477Y-57044749D01*
X151284923Y-57076805D01*
X151378883Y-57210993D01*
X151393802Y-57232300D01*
X151555700Y-57394198D01*
X151560208Y-57397355D01*
X151560211Y-57397357D01*
X151632804Y-57448187D01*
X151743251Y-57525523D01*
X151748233Y-57527846D01*
X151748238Y-57527849D01*
X151945775Y-57619961D01*
X151950757Y-57622284D01*
X151956065Y-57623706D01*
X151956067Y-57623707D01*
X152166598Y-57680119D01*
X152166600Y-57680119D01*
X152171913Y-57681543D01*
X152400000Y-57701498D01*
X152628087Y-57681543D01*
X152633400Y-57680119D01*
X152633402Y-57680119D01*
X152843933Y-57623707D01*
X152843935Y-57623706D01*
X152849243Y-57622284D01*
X152854225Y-57619961D01*
X153051762Y-57527849D01*
X153051767Y-57527846D01*
X153056749Y-57525523D01*
X153167196Y-57448187D01*
X153239789Y-57397357D01*
X153239792Y-57397355D01*
X153244300Y-57394198D01*
X153406198Y-57232300D01*
X153421118Y-57210993D01*
X153455839Y-57161406D01*
X158755423Y-57161406D01*
X158760704Y-57168461D01*
X158937080Y-57271527D01*
X158946363Y-57275974D01*
X159153003Y-57354883D01*
X159162901Y-57357759D01*
X159379653Y-57401857D01*
X159389883Y-57403076D01*
X159610914Y-57411182D01*
X159621223Y-57410714D01*
X159840623Y-57382608D01*
X159850688Y-57380468D01*
X160062557Y-57316905D01*
X160072152Y-57313144D01*
X160270778Y-57215838D01*
X160279636Y-57210559D01*
X160337097Y-57169572D01*
X160345497Y-57158874D01*
X160338510Y-57145721D01*
X159564811Y-56372021D01*
X159550868Y-56364408D01*
X159549034Y-56364539D01*
X159542420Y-56368790D01*
X158762180Y-57149031D01*
X158755423Y-57161406D01*
X153455839Y-57161406D01*
X153515077Y-57076805D01*
X153537523Y-57044749D01*
X153539846Y-57039767D01*
X153539849Y-57039762D01*
X153631961Y-56842225D01*
X153631961Y-56842224D01*
X153634284Y-56837243D01*
X153636141Y-56830315D01*
X153692119Y-56621402D01*
X153692119Y-56621400D01*
X153693543Y-56616087D01*
X153713498Y-56388000D01*
X153693543Y-56159913D01*
X153651489Y-56002966D01*
X153642827Y-55970638D01*
X158139893Y-55970638D01*
X158152627Y-56191468D01*
X158154061Y-56201670D01*
X158202685Y-56417439D01*
X158205773Y-56427292D01*
X158288986Y-56632220D01*
X158293634Y-56641421D01*
X158382097Y-56785781D01*
X158392553Y-56795242D01*
X158401331Y-56791458D01*
X159179979Y-56012811D01*
X159187592Y-55998868D01*
X159187461Y-55997034D01*
X159183210Y-55990420D01*
X158405862Y-55213073D01*
X158394330Y-55206776D01*
X158382048Y-55216399D01*
X158326467Y-55297877D01*
X158321379Y-55306833D01*
X158228252Y-55507459D01*
X158224689Y-55517146D01*
X158165581Y-55730280D01*
X158163650Y-55740400D01*
X158140145Y-55960349D01*
X158139893Y-55970638D01*
X153642827Y-55970638D01*
X153635707Y-55944067D01*
X153635706Y-55944065D01*
X153634284Y-55938757D01*
X153631961Y-55933775D01*
X153539849Y-55736238D01*
X153539846Y-55736233D01*
X153537523Y-55731251D01*
X153406198Y-55543700D01*
X153244300Y-55381802D01*
X153239792Y-55378645D01*
X153239789Y-55378643D01*
X153124080Y-55297623D01*
X153056749Y-55250477D01*
X153051767Y-55248154D01*
X153051762Y-55248151D01*
X152946409Y-55199025D01*
X152849243Y-55153716D01*
X152791184Y-55138159D01*
X152734700Y-55105547D01*
X152469864Y-54840711D01*
X158757508Y-54840711D01*
X158764251Y-54853040D01*
X159539189Y-55627979D01*
X159553132Y-55635592D01*
X159554966Y-55635461D01*
X159561580Y-55631210D01*
X160340994Y-54851795D01*
X160348011Y-54838944D01*
X160340237Y-54828274D01*
X160337902Y-54826430D01*
X160329320Y-54820729D01*
X160135678Y-54713833D01*
X160126272Y-54709606D01*
X159917772Y-54635772D01*
X159907809Y-54633140D01*
X159690047Y-54594350D01*
X159679796Y-54593381D01*
X159458616Y-54590679D01*
X159448332Y-54591399D01*
X159229693Y-54624855D01*
X159219666Y-54627244D01*
X159009426Y-54695961D01*
X158999916Y-54699958D01*
X158803725Y-54802089D01*
X158795007Y-54807578D01*
X158765961Y-54829386D01*
X158757508Y-54840711D01*
X152469864Y-54840711D01*
X149262405Y-51633252D01*
X149228379Y-51570940D01*
X149225500Y-51544157D01*
X149225500Y-47516381D01*
X150349160Y-47516381D01*
X150349237Y-47517470D01*
X150351698Y-47521206D01*
X150625632Y-47731404D01*
X150631262Y-47735259D01*
X150931591Y-47917862D01*
X150937593Y-47921080D01*
X151255897Y-48070184D01*
X151262202Y-48072732D01*
X151594743Y-48186587D01*
X151601313Y-48188446D01*
X151944183Y-48265714D01*
X151950912Y-48266853D01*
X152300143Y-48306643D01*
X152306933Y-48307046D01*
X152658419Y-48308886D01*
X152665220Y-48308554D01*
X153014853Y-48272423D01*
X153021581Y-48271357D01*
X153365274Y-48197676D01*
X153371822Y-48195897D01*
X153705549Y-48085527D01*
X153711891Y-48083041D01*
X154031718Y-47937288D01*
X154037777Y-47934121D01*
X154339995Y-47754676D01*
X154345659Y-47750884D01*
X154626732Y-47539849D01*
X154631958Y-47535464D01*
X154641613Y-47526428D01*
X154649682Y-47512750D01*
X154649654Y-47512024D01*
X154644512Y-47503723D01*
X152512810Y-45372020D01*
X152498869Y-45364408D01*
X152497034Y-45364539D01*
X152490420Y-45368790D01*
X150356774Y-47502437D01*
X150349160Y-47516381D01*
X149225500Y-47516381D01*
X149225500Y-46376781D01*
X149245502Y-46308660D01*
X149299158Y-46262167D01*
X149369432Y-46252063D01*
X149434012Y-46281557D01*
X149468733Y-46330602D01*
X149486581Y-46375912D01*
X149489412Y-46382095D01*
X149652803Y-46693310D01*
X149656286Y-46699152D01*
X149852330Y-46990896D01*
X149856433Y-46996340D01*
X149976425Y-47138836D01*
X149989164Y-47147279D01*
X149999608Y-47141181D01*
X152127980Y-45012810D01*
X152134357Y-45001131D01*
X152864408Y-45001131D01*
X152864539Y-45002966D01*
X152868790Y-45009580D01*
X154999009Y-47139798D01*
X155012605Y-47147223D01*
X155022218Y-47140522D01*
X155122518Y-47023912D01*
X155126676Y-47018514D01*
X155325762Y-46728840D01*
X155329310Y-46723029D01*
X155495942Y-46413559D01*
X155498849Y-46407381D01*
X155631090Y-46081713D01*
X155633304Y-46075283D01*
X155729598Y-45737237D01*
X155731105Y-45730607D01*
X155790332Y-45384118D01*
X155791112Y-45377378D01*
X155812668Y-45024925D01*
X155812784Y-45021323D01*
X155812853Y-45001819D01*
X155812761Y-44998194D01*
X155793666Y-44645615D01*
X155792931Y-44638849D01*
X155736130Y-44291985D01*
X155734663Y-44285313D01*
X155640736Y-43946627D01*
X155638562Y-43940163D01*
X155508598Y-43613578D01*
X155505742Y-43607398D01*
X155341269Y-43296763D01*
X155337769Y-43290937D01*
X155140697Y-42999862D01*
X155136590Y-42994453D01*
X155023565Y-42861179D01*
X155010740Y-42852743D01*
X155000416Y-42858795D01*
X152872020Y-44987190D01*
X152864408Y-45001131D01*
X152134357Y-45001131D01*
X152135592Y-44998869D01*
X152135461Y-44997034D01*
X152131210Y-44990420D01*
X150000992Y-42860203D01*
X149987455Y-42852811D01*
X149977753Y-42859599D01*
X149870430Y-42985257D01*
X149866296Y-42990664D01*
X149668215Y-43281041D01*
X149664697Y-43286851D01*
X149499134Y-43596922D01*
X149496256Y-43603093D01*
X149468407Y-43672370D01*
X149424441Y-43728115D01*
X149357316Y-43751240D01*
X149288344Y-43734403D01*
X149239424Y-43682951D01*
X149225500Y-43625374D01*
X149225500Y-42968805D01*
X149225770Y-42960564D01*
X149229628Y-42901705D01*
X149230006Y-42895939D01*
X149219602Y-42808041D01*
X149219259Y-42804766D01*
X149211169Y-42716721D01*
X149209599Y-42711155D01*
X149208914Y-42707459D01*
X149206756Y-42696610D01*
X149205983Y-42692974D01*
X149205304Y-42687235D01*
X149179069Y-42602744D01*
X149178140Y-42599608D01*
X149155693Y-42520018D01*
X149154123Y-42514451D01*
X149151565Y-42509263D01*
X149150240Y-42505812D01*
X149146099Y-42495434D01*
X149144696Y-42492047D01*
X149143086Y-42486862D01*
X150349950Y-42486862D01*
X150349986Y-42487704D01*
X150355037Y-42495826D01*
X152487190Y-44627980D01*
X152501131Y-44635592D01*
X152502966Y-44635461D01*
X152509580Y-44631210D01*
X154642798Y-42497991D01*
X154650412Y-42484047D01*
X154650344Y-42483089D01*
X154645836Y-42476272D01*
X154644418Y-42475065D01*
X154364813Y-42262064D01*
X154359187Y-42258240D01*
X154058214Y-42076681D01*
X154052202Y-42073484D01*
X153733370Y-41925487D01*
X153727070Y-41922967D01*
X153394129Y-41810273D01*
X153387551Y-41808437D01*
X153044417Y-41732367D01*
X153037678Y-41731251D01*
X152688310Y-41692680D01*
X152681529Y-41692301D01*
X152330015Y-41691687D01*
X152323242Y-41692042D01*
X151973720Y-41729395D01*
X151967010Y-41730482D01*
X151623586Y-41805361D01*
X151617011Y-41807172D01*
X151283683Y-41918702D01*
X151277361Y-41921205D01*
X150958034Y-42068079D01*
X150951991Y-42071265D01*
X150650401Y-42251763D01*
X150644755Y-42255571D01*
X150364408Y-42467596D01*
X150359211Y-42471987D01*
X150357972Y-42473155D01*
X150349950Y-42486862D01*
X149143086Y-42486862D01*
X149142982Y-42486527D01*
X149101801Y-42408254D01*
X149100305Y-42405318D01*
X149094578Y-42393705D01*
X149061171Y-42325963D01*
X149057713Y-42321332D01*
X149055750Y-42318129D01*
X149049827Y-42308742D01*
X149047818Y-42305649D01*
X149045129Y-42300537D01*
X148990344Y-42231044D01*
X148988373Y-42228474D01*
X148938884Y-42162199D01*
X148938877Y-42162192D01*
X148935427Y-42157571D01*
X148875026Y-42101737D01*
X148871461Y-42098308D01*
X147442849Y-40669696D01*
X147437212Y-40663678D01*
X147423812Y-40648398D01*
X147394506Y-40614981D01*
X147325018Y-40560202D01*
X147322453Y-40558124D01*
X147258900Y-40505266D01*
X147258895Y-40505262D01*
X147254460Y-40501574D01*
X147249426Y-40498755D01*
X147246416Y-40496686D01*
X147237146Y-40490492D01*
X147234001Y-40488449D01*
X147229463Y-40484872D01*
X147224355Y-40482184D01*
X147224351Y-40482182D01*
X147151184Y-40443688D01*
X147148284Y-40442113D01*
X147076139Y-40401709D01*
X147076137Y-40401708D01*
X147071096Y-40398885D01*
X147065624Y-40397028D01*
X147062224Y-40395514D01*
X147052013Y-40391127D01*
X147048579Y-40389705D01*
X147043473Y-40387018D01*
X147037959Y-40385306D01*
X147037957Y-40385305D01*
X146959001Y-40360788D01*
X146955865Y-40359769D01*
X146902720Y-40341729D01*
X146872088Y-40331331D01*
X146866375Y-40330502D01*
X146862862Y-40329659D01*
X146851849Y-40327167D01*
X146848282Y-40326409D01*
X146842766Y-40324696D01*
X146837038Y-40324018D01*
X146837033Y-40324017D01*
X146784633Y-40317816D01*
X146754882Y-40314294D01*
X146751660Y-40313870D01*
X146664103Y-40301175D01*
X146581946Y-40304403D01*
X146576999Y-40304500D01*
X144020230Y-40304500D01*
X143952109Y-40284498D01*
X143911932Y-40237737D01*
X143909800Y-40238933D01*
X143906974Y-40233896D01*
X143904620Y-40228622D01*
X143783869Y-40053256D01*
X143721710Y-39991205D01*
X143637270Y-39906911D01*
X143637265Y-39906907D01*
X143633183Y-39902832D01*
X143628421Y-39899565D01*
X143628417Y-39899562D01*
X143623767Y-39896372D01*
X143578908Y-39841343D01*
X143570921Y-39770797D01*
X143602342Y-39707132D01*
X143617601Y-39693544D01*
X143617562Y-39693498D01*
X143619770Y-39691612D01*
X143620974Y-39690540D01*
X143621318Y-39690290D01*
X143812252Y-39527216D01*
X143819216Y-39520252D01*
X143982288Y-39329321D01*
X143988080Y-39321348D01*
X144119271Y-39107264D01*
X144123752Y-39098470D01*
X144219834Y-38866508D01*
X144222883Y-38857123D01*
X144280820Y-38615798D01*
X144280484Y-38614200D01*
X160010797Y-38614200D01*
X160069117Y-38857123D01*
X160072166Y-38866508D01*
X160168248Y-39098470D01*
X160172729Y-39107264D01*
X160303920Y-39321348D01*
X160309712Y-39329321D01*
X160472784Y-39520252D01*
X160479748Y-39527216D01*
X160670679Y-39690288D01*
X160671160Y-39690637D01*
X160671298Y-39690817D01*
X160674438Y-39693498D01*
X160673875Y-39694158D01*
X160714514Y-39746860D01*
X160720588Y-39817596D01*
X160687455Y-39880387D01*
X160668557Y-39896349D01*
X160662015Y-39900854D01*
X160657256Y-39904131D01*
X160653176Y-39908218D01*
X160653175Y-39908219D01*
X160510911Y-40050730D01*
X160510907Y-40050735D01*
X160506832Y-40054817D01*
X160386387Y-40230393D01*
X160362355Y-40284498D01*
X160313044Y-40395514D01*
X160299956Y-40424979D01*
X160298612Y-40430599D01*
X160253477Y-40619326D01*
X160250432Y-40632057D01*
X160250065Y-40637179D01*
X160245598Y-40699501D01*
X160243500Y-40728763D01*
X160243501Y-42167236D01*
X160243669Y-42169529D01*
X160243669Y-42169536D01*
X160250159Y-42258240D01*
X160250723Y-42265953D01*
X160300609Y-42472944D01*
X160387380Y-42667378D01*
X160390653Y-42672132D01*
X160390654Y-42672133D01*
X160481981Y-42804766D01*
X160508131Y-42842744D01*
X160512218Y-42846824D01*
X160512219Y-42846825D01*
X160654730Y-42989089D01*
X160654735Y-42989093D01*
X160658817Y-42993168D01*
X160834393Y-43113613D01*
X160931686Y-43156829D01*
X161023701Y-43197700D01*
X161023705Y-43197701D01*
X161028979Y-43200044D01*
X161034600Y-43201388D01*
X161034599Y-43201388D01*
X161231059Y-43248373D01*
X161231063Y-43248374D01*
X161236057Y-43249568D01*
X161272285Y-43252165D01*
X161330513Y-43256339D01*
X161330521Y-43256339D01*
X161332763Y-43256500D01*
X162045543Y-43256500D01*
X162771236Y-43256499D01*
X162773529Y-43256331D01*
X162773536Y-43256331D01*
X162864818Y-43249653D01*
X162864822Y-43249652D01*
X162869953Y-43249277D01*
X163076944Y-43199391D01*
X163271378Y-43112620D01*
X163435136Y-42999862D01*
X163441988Y-42995144D01*
X163441989Y-42995143D01*
X163446744Y-42991869D01*
X163478211Y-42960347D01*
X163593089Y-42845270D01*
X163593093Y-42845265D01*
X163597168Y-42841183D01*
X163702776Y-42687235D01*
X163714345Y-42670371D01*
X163714345Y-42670370D01*
X163717613Y-42665607D01*
X163775305Y-42535723D01*
X163801700Y-42476299D01*
X163801701Y-42476295D01*
X163804044Y-42471021D01*
X163806490Y-42460795D01*
X163852373Y-42268941D01*
X163852374Y-42268937D01*
X163853568Y-42263943D01*
X163857526Y-42208721D01*
X163860339Y-42169487D01*
X163860339Y-42169479D01*
X163860500Y-42167237D01*
X163860499Y-40728764D01*
X163858579Y-40702520D01*
X163853653Y-40635182D01*
X163853652Y-40635178D01*
X163853277Y-40630047D01*
X163803391Y-40423056D01*
X163716620Y-40228622D01*
X163595869Y-40053256D01*
X163533710Y-39991205D01*
X163449270Y-39906911D01*
X163449265Y-39906907D01*
X163445183Y-39902832D01*
X163440421Y-39899565D01*
X163440417Y-39899562D01*
X163435767Y-39896372D01*
X163390908Y-39841343D01*
X163382921Y-39770797D01*
X163414342Y-39707132D01*
X163429601Y-39693544D01*
X163429562Y-39693498D01*
X163431770Y-39691612D01*
X163432974Y-39690540D01*
X163433318Y-39690290D01*
X163624252Y-39527216D01*
X163631216Y-39520252D01*
X163794288Y-39329321D01*
X163800080Y-39321348D01*
X163931271Y-39107264D01*
X163935752Y-39098470D01*
X164031834Y-38866508D01*
X164034883Y-38857123D01*
X164092820Y-38615798D01*
X164090546Y-38604970D01*
X164079082Y-38602000D01*
X160026978Y-38602000D01*
X160012185Y-38606344D01*
X160010797Y-38614200D01*
X144280484Y-38614200D01*
X144278546Y-38604970D01*
X144267082Y-38602000D01*
X140214978Y-38602000D01*
X140200185Y-38606344D01*
X140198797Y-38614200D01*
X140257117Y-38857123D01*
X140260166Y-38866508D01*
X140356248Y-39098470D01*
X140360729Y-39107264D01*
X140491920Y-39321348D01*
X140497712Y-39329321D01*
X140660784Y-39520252D01*
X140667748Y-39527216D01*
X140858679Y-39690288D01*
X140859160Y-39690637D01*
X140859298Y-39690817D01*
X140862438Y-39693498D01*
X140861875Y-39694158D01*
X140902514Y-39746860D01*
X140908588Y-39817596D01*
X140875455Y-39880387D01*
X140856557Y-39896349D01*
X140850015Y-39900854D01*
X140845256Y-39904131D01*
X140841176Y-39908218D01*
X140841175Y-39908219D01*
X140698911Y-40050730D01*
X140698907Y-40050735D01*
X140694832Y-40054817D01*
X140574387Y-40230393D01*
X140550355Y-40284498D01*
X140501044Y-40395514D01*
X140487956Y-40424979D01*
X140486612Y-40430599D01*
X140441477Y-40619326D01*
X140438432Y-40632057D01*
X140438065Y-40637179D01*
X140433598Y-40699501D01*
X140431500Y-40728763D01*
X140431501Y-42167236D01*
X140431669Y-42169529D01*
X140431669Y-42169536D01*
X140438159Y-42258240D01*
X140438723Y-42265953D01*
X140488609Y-42472944D01*
X140575380Y-42667378D01*
X140578653Y-42672132D01*
X140578654Y-42672133D01*
X140669981Y-42804766D01*
X140696131Y-42842744D01*
X140700218Y-42846824D01*
X140700219Y-42846825D01*
X140842730Y-42989089D01*
X140842735Y-42989093D01*
X140846817Y-42993168D01*
X141022393Y-43113613D01*
X141119686Y-43156829D01*
X141211701Y-43197700D01*
X141211705Y-43197701D01*
X141216979Y-43200044D01*
X141222600Y-43201388D01*
X141222599Y-43201388D01*
X141419059Y-43248373D01*
X141419063Y-43248374D01*
X141424057Y-43249568D01*
X141460285Y-43252165D01*
X141518513Y-43256339D01*
X141518521Y-43256339D01*
X141520763Y-43256500D01*
X142233543Y-43256500D01*
X142959236Y-43256499D01*
X142961529Y-43256331D01*
X142961536Y-43256331D01*
X143052818Y-43249653D01*
X143052822Y-43249652D01*
X143057953Y-43249277D01*
X143264944Y-43199391D01*
X143459378Y-43112620D01*
X143623136Y-42999862D01*
X143629988Y-42995144D01*
X143629989Y-42995143D01*
X143634744Y-42991869D01*
X143666211Y-42960347D01*
X143781089Y-42845270D01*
X143781093Y-42845265D01*
X143785168Y-42841183D01*
X143890776Y-42687235D01*
X143902345Y-42670371D01*
X143902345Y-42670370D01*
X143905613Y-42665607D01*
X143907959Y-42660326D01*
X143910359Y-42656031D01*
X143961052Y-42606325D01*
X144020348Y-42591500D01*
X146078157Y-42591500D01*
X146146278Y-42611502D01*
X146167252Y-42628405D01*
X146901595Y-43362748D01*
X146935621Y-43425060D01*
X146938500Y-43451843D01*
X146938500Y-52027195D01*
X146938230Y-52035436D01*
X146933994Y-52100061D01*
X146934673Y-52105796D01*
X146943748Y-52182468D01*
X146931891Y-52252467D01*
X146884072Y-52304945D01*
X146815473Y-52323239D01*
X146747874Y-52301541D01*
X146729526Y-52286373D01*
X144085404Y-49642251D01*
X144051378Y-49579939D01*
X144048499Y-49553156D01*
X144048499Y-49028764D01*
X144047534Y-49015571D01*
X144041653Y-48935182D01*
X144041652Y-48935178D01*
X144041277Y-48930047D01*
X143991391Y-48723056D01*
X143904620Y-48528622D01*
X143783869Y-48353256D01*
X143737175Y-48306643D01*
X143637270Y-48206911D01*
X143637265Y-48206907D01*
X143633183Y-48202832D01*
X143457607Y-48082387D01*
X143360314Y-48039171D01*
X143268299Y-47998300D01*
X143268295Y-47998299D01*
X143263021Y-47995956D01*
X143225753Y-47987043D01*
X143060941Y-47947627D01*
X143060937Y-47947626D01*
X143055943Y-47946432D01*
X143019715Y-47943835D01*
X142961487Y-47939661D01*
X142961479Y-47939661D01*
X142959237Y-47939500D01*
X142246457Y-47939500D01*
X141520764Y-47939501D01*
X141518471Y-47939669D01*
X141518464Y-47939669D01*
X141427182Y-47946347D01*
X141427178Y-47946348D01*
X141422047Y-47946723D01*
X141215056Y-47996609D01*
X141020622Y-48083380D01*
X141015868Y-48086653D01*
X141015867Y-48086654D01*
X140851886Y-48199566D01*
X140845256Y-48204131D01*
X140841176Y-48208218D01*
X140841175Y-48208219D01*
X140698911Y-48350730D01*
X140698907Y-48350735D01*
X140694832Y-48354817D01*
X140574387Y-48530393D01*
X140487956Y-48724979D01*
X140438432Y-48932057D01*
X140438065Y-48937179D01*
X140432446Y-49015571D01*
X140431500Y-49028763D01*
X140431501Y-50467236D01*
X140438723Y-50565953D01*
X140488609Y-50772944D01*
X140575380Y-50967378D01*
X140578653Y-50972132D01*
X140578654Y-50972133D01*
X140684087Y-51125252D01*
X140696131Y-51142744D01*
X140700218Y-51146824D01*
X140700219Y-51146825D01*
X140842730Y-51289089D01*
X140842735Y-51289093D01*
X140846817Y-51293168D01*
X140851578Y-51296434D01*
X141010962Y-51405771D01*
X141022393Y-51413613D01*
X141096501Y-51446530D01*
X141211701Y-51497700D01*
X141211705Y-51497701D01*
X141216979Y-51500044D01*
X141222600Y-51501388D01*
X141222599Y-51501388D01*
X141419059Y-51548373D01*
X141419063Y-51548374D01*
X141424057Y-51549568D01*
X141460285Y-51552165D01*
X141518513Y-51556339D01*
X141518521Y-51556339D01*
X141520763Y-51556500D01*
X141572486Y-51556500D01*
X142713156Y-51556499D01*
X142781277Y-51576501D01*
X142802251Y-51593404D01*
X145585251Y-54376405D01*
X145619277Y-54438717D01*
X145614212Y-54509533D01*
X145571665Y-54566368D01*
X145505145Y-54591179D01*
X145496156Y-54591500D01*
X144299866Y-54591500D01*
X144237684Y-54598255D01*
X144101295Y-54649385D01*
X143984739Y-54736739D01*
X143979358Y-54743919D01*
X143932782Y-54806065D01*
X143875923Y-54848580D01*
X143831956Y-54856500D01*
X143616537Y-54856500D01*
X143548416Y-54836498D01*
X143538447Y-54829384D01*
X143530123Y-54822810D01*
X143525607Y-54820317D01*
X143525604Y-54820315D01*
X143331879Y-54713373D01*
X143331875Y-54713371D01*
X143327355Y-54710876D01*
X143322486Y-54709152D01*
X143322482Y-54709150D01*
X143113903Y-54635288D01*
X143113899Y-54635287D01*
X143109028Y-54633562D01*
X143103935Y-54632655D01*
X143103932Y-54632654D01*
X142886095Y-54593851D01*
X142886089Y-54593850D01*
X142881006Y-54592945D01*
X142808096Y-54592054D01*
X142654581Y-54590179D01*
X142654579Y-54590179D01*
X142649411Y-54590116D01*
X142420464Y-54625150D01*
X142200314Y-54697106D01*
X142195726Y-54699494D01*
X142195722Y-54699496D01*
X142061238Y-54769504D01*
X141994872Y-54804052D01*
X141990739Y-54807155D01*
X141990736Y-54807157D01*
X141813790Y-54940012D01*
X141809655Y-54943117D01*
X141806083Y-54946855D01*
X141662223Y-55097396D01*
X141649639Y-55110564D01*
X141602836Y-55179174D01*
X141547927Y-55224175D01*
X141477402Y-55232346D01*
X141413655Y-55201092D01*
X141392959Y-55176609D01*
X141370577Y-55142013D01*
X141370576Y-55142012D01*
X141367764Y-55137665D01*
X141361143Y-55130388D01*
X141240260Y-54997540D01*
X141211887Y-54966358D01*
X141207836Y-54963159D01*
X141207832Y-54963155D01*
X141034177Y-54826011D01*
X141034172Y-54826008D01*
X141030123Y-54822810D01*
X141025607Y-54820317D01*
X141025604Y-54820315D01*
X140831879Y-54713373D01*
X140831875Y-54713371D01*
X140827355Y-54710876D01*
X140822486Y-54709152D01*
X140822482Y-54709150D01*
X140613903Y-54635288D01*
X140613899Y-54635287D01*
X140609028Y-54633562D01*
X140603935Y-54632655D01*
X140603932Y-54632654D01*
X140386095Y-54593851D01*
X140386089Y-54593850D01*
X140381006Y-54592945D01*
X140308096Y-54592054D01*
X140154581Y-54590179D01*
X140154579Y-54590179D01*
X140149411Y-54590116D01*
X139920464Y-54625150D01*
X139700314Y-54697106D01*
X139695726Y-54699494D01*
X139695722Y-54699496D01*
X139561238Y-54769504D01*
X139494872Y-54804052D01*
X139490739Y-54807155D01*
X139490736Y-54807157D01*
X139313790Y-54940012D01*
X139309655Y-54943117D01*
X139306083Y-54946855D01*
X139162223Y-55097396D01*
X139149639Y-55110564D01*
X139146730Y-55114829D01*
X139146724Y-55114837D01*
X139112693Y-55164725D01*
X139019119Y-55301899D01*
X138921602Y-55511981D01*
X138859707Y-55735169D01*
X138835095Y-55965469D01*
X138835392Y-55970622D01*
X138835392Y-55970625D01*
X138848129Y-56191529D01*
X138848427Y-56196697D01*
X138849564Y-56201743D01*
X138849565Y-56201749D01*
X138877724Y-56326698D01*
X138899346Y-56422642D01*
X138901288Y-56427424D01*
X138901289Y-56427428D01*
X138977896Y-56616087D01*
X138986484Y-56637237D01*
X139107501Y-56834719D01*
X139259147Y-57009784D01*
X139437349Y-57157730D01*
X139441812Y-57160338D01*
X139441815Y-57160340D01*
X139455713Y-57168461D01*
X139498346Y-57193373D01*
X139510070Y-57200224D01*
X139558794Y-57251862D01*
X139572500Y-57309012D01*
X139572500Y-62275702D01*
X139552498Y-62343823D01*
X139498842Y-62390316D01*
X139428568Y-62400420D01*
X139363988Y-62370926D01*
X139339067Y-62341537D01*
X139287263Y-62257001D01*
X139253328Y-62201624D01*
X139088898Y-62009102D01*
X138896376Y-61844672D01*
X138698168Y-61723210D01*
X138684722Y-61714970D01*
X138680502Y-61712384D01*
X138675932Y-61710491D01*
X138675928Y-61710489D01*
X138451164Y-61617389D01*
X138451162Y-61617388D01*
X138446591Y-61615495D01*
X138351634Y-61592698D01*
X138205216Y-61557546D01*
X138205210Y-61557545D01*
X138200403Y-61556391D01*
X137948000Y-61536526D01*
X137695597Y-61556391D01*
X137690790Y-61557545D01*
X137690784Y-61557546D01*
X137544366Y-61592698D01*
X137449409Y-61615495D01*
X137444838Y-61617388D01*
X137444836Y-61617389D01*
X137220072Y-61710489D01*
X137220068Y-61710491D01*
X137215498Y-61712384D01*
X137211278Y-61714970D01*
X137197832Y-61723210D01*
X136999624Y-61844672D01*
X136807102Y-62009102D01*
X136642672Y-62201624D01*
X136510384Y-62417498D01*
X136508491Y-62422068D01*
X136508489Y-62422072D01*
X136415389Y-62646836D01*
X136413495Y-62651409D01*
X136393179Y-62736032D01*
X136362572Y-62863522D01*
X136354391Y-62897597D01*
X136339500Y-63086801D01*
X136339500Y-63913199D01*
X136354391Y-64102403D01*
X136413495Y-64348591D01*
X136415388Y-64353162D01*
X136415389Y-64353164D01*
X136488450Y-64529548D01*
X136510384Y-64582502D01*
X136642672Y-64798376D01*
X136807102Y-64990898D01*
X136999624Y-65155328D01*
X137215498Y-65287616D01*
X137220068Y-65289509D01*
X137220072Y-65289511D01*
X137444836Y-65382611D01*
X137449409Y-65384505D01*
X137514176Y-65400054D01*
X137690784Y-65442454D01*
X137690790Y-65442455D01*
X137695597Y-65443609D01*
X137948000Y-65463474D01*
X138200403Y-65443609D01*
X138205210Y-65442455D01*
X138205216Y-65442454D01*
X138381824Y-65400054D01*
X138446591Y-65384505D01*
X138451164Y-65382611D01*
X138675928Y-65289511D01*
X138675932Y-65289509D01*
X138680502Y-65287616D01*
X138896376Y-65155328D01*
X139088898Y-64990898D01*
X139253328Y-64798376D01*
X139339067Y-64658463D01*
X139391715Y-64610832D01*
X139461756Y-64599225D01*
X139526954Y-64627328D01*
X139566608Y-64686219D01*
X139572500Y-64724298D01*
X139572500Y-76544135D01*
X139560690Y-76597395D01*
X139560190Y-76598467D01*
X139513268Y-76651748D01*
X139444989Y-76671203D01*
X139377031Y-76650655D01*
X139331805Y-76598457D01*
X139315849Y-76564238D01*
X139315846Y-76564233D01*
X139313523Y-76559251D01*
X139214037Y-76417171D01*
X139185357Y-76376211D01*
X139185355Y-76376208D01*
X139182198Y-76371700D01*
X139020300Y-76209802D01*
X139015792Y-76206645D01*
X139015789Y-76206643D01*
X138918825Y-76138748D01*
X138832749Y-76078477D01*
X138827767Y-76076154D01*
X138827762Y-76076151D01*
X138630225Y-75984039D01*
X138630224Y-75984039D01*
X138625243Y-75981716D01*
X138619936Y-75980294D01*
X138619931Y-75980292D01*
X138567186Y-75966160D01*
X138510701Y-75933548D01*
X135458849Y-72881696D01*
X135453212Y-72875678D01*
X135414316Y-72831326D01*
X135410506Y-72826981D01*
X135391253Y-72811803D01*
X135341018Y-72772202D01*
X135338453Y-72770124D01*
X135272593Y-72715348D01*
X135264068Y-72707570D01*
X135210300Y-72653802D01*
X135205792Y-72650645D01*
X135205789Y-72650643D01*
X135120835Y-72591158D01*
X135022749Y-72522477D01*
X135017767Y-72520154D01*
X135017762Y-72520151D01*
X134820225Y-72428039D01*
X134820224Y-72428039D01*
X134815243Y-72425716D01*
X134809935Y-72424294D01*
X134809933Y-72424293D01*
X134599402Y-72367881D01*
X134599400Y-72367881D01*
X134594087Y-72366457D01*
X134366000Y-72346502D01*
X134137913Y-72366457D01*
X134132600Y-72367881D01*
X134132598Y-72367881D01*
X133922067Y-72424293D01*
X133922065Y-72424294D01*
X133916757Y-72425716D01*
X133911776Y-72428039D01*
X133911775Y-72428039D01*
X133714238Y-72520151D01*
X133714233Y-72520154D01*
X133709251Y-72522477D01*
X133611165Y-72591158D01*
X133526211Y-72650643D01*
X133526208Y-72650645D01*
X133521700Y-72653802D01*
X133359802Y-72815700D01*
X133356645Y-72820208D01*
X133356643Y-72820211D01*
X133317805Y-72875678D01*
X133228477Y-73003251D01*
X133226154Y-73008233D01*
X133226151Y-73008238D01*
X133167435Y-73134157D01*
X133131716Y-73210757D01*
X133130294Y-73216065D01*
X133130293Y-73216067D01*
X133073881Y-73426598D01*
X133072457Y-73431913D01*
X133052502Y-73660000D01*
X133072457Y-73888087D01*
X133073881Y-73893400D01*
X133073881Y-73893402D01*
X133123936Y-74080206D01*
X133131716Y-74109243D01*
X133134039Y-74114224D01*
X133134039Y-74114225D01*
X133226151Y-74311762D01*
X133226154Y-74311767D01*
X133228477Y-74316749D01*
X133275643Y-74384109D01*
X133346936Y-74485925D01*
X133359802Y-74504300D01*
X133521700Y-74666198D01*
X133526208Y-74669355D01*
X133526211Y-74669357D01*
X133572706Y-74701913D01*
X133709251Y-74797523D01*
X133714233Y-74799846D01*
X133714238Y-74799849D01*
X133911775Y-74891961D01*
X133916757Y-74894284D01*
X133922065Y-74895706D01*
X133922067Y-74895707D01*
X133990141Y-74913947D01*
X134137913Y-74953543D01*
X134265899Y-74964740D01*
X134332018Y-74990603D01*
X134344013Y-75001166D01*
X136469752Y-77126905D01*
X136503778Y-77189217D01*
X136498713Y-77260032D01*
X136469752Y-77305095D01*
X130396095Y-83378752D01*
X130333783Y-83412778D01*
X130262968Y-83407713D01*
X130217905Y-83378752D01*
X125460503Y-78621350D01*
X125426477Y-78559038D01*
X125431542Y-78488223D01*
X125474089Y-78431387D01*
X125496348Y-78418060D01*
X125629762Y-78355849D01*
X125629767Y-78355846D01*
X125634749Y-78353523D01*
X125765043Y-78262290D01*
X125817789Y-78225357D01*
X125817792Y-78225355D01*
X125822300Y-78222198D01*
X125984198Y-78060300D01*
X125995136Y-78044680D01*
X126054031Y-77960568D01*
X126115523Y-77872749D01*
X126117846Y-77867767D01*
X126117849Y-77867762D01*
X126133805Y-77833543D01*
X126180722Y-77780258D01*
X126248999Y-77760797D01*
X126316959Y-77781339D01*
X126362195Y-77833543D01*
X126378151Y-77867762D01*
X126378154Y-77867767D01*
X126380477Y-77872749D01*
X126441969Y-77960568D01*
X126500865Y-78044680D01*
X126511802Y-78060300D01*
X126673700Y-78222198D01*
X126678208Y-78225355D01*
X126678211Y-78225357D01*
X126730957Y-78262290D01*
X126861251Y-78353523D01*
X126866233Y-78355846D01*
X126866238Y-78355849D01*
X127018468Y-78426834D01*
X127068757Y-78450284D01*
X127074065Y-78451706D01*
X127074067Y-78451707D01*
X127284598Y-78508119D01*
X127284600Y-78508119D01*
X127289913Y-78509543D01*
X127518000Y-78529498D01*
X127746087Y-78509543D01*
X127751400Y-78508119D01*
X127751402Y-78508119D01*
X127961933Y-78451707D01*
X127961935Y-78451706D01*
X127967243Y-78450284D01*
X128017532Y-78426834D01*
X128169762Y-78355849D01*
X128169767Y-78355846D01*
X128174749Y-78353523D01*
X128305043Y-78262290D01*
X128357789Y-78225357D01*
X128357792Y-78225355D01*
X128362300Y-78222198D01*
X128524198Y-78060300D01*
X128535136Y-78044680D01*
X128594031Y-77960568D01*
X128655523Y-77872749D01*
X128657846Y-77867767D01*
X128657849Y-77867762D01*
X128673805Y-77833543D01*
X128720722Y-77780258D01*
X128788999Y-77760797D01*
X128856959Y-77781339D01*
X128902195Y-77833543D01*
X128918151Y-77867762D01*
X128918154Y-77867767D01*
X128920477Y-77872749D01*
X128981969Y-77960568D01*
X129040865Y-78044680D01*
X129051802Y-78060300D01*
X129213700Y-78222198D01*
X129218208Y-78225355D01*
X129218211Y-78225357D01*
X129270957Y-78262290D01*
X129401251Y-78353523D01*
X129406233Y-78355846D01*
X129406238Y-78355849D01*
X129558468Y-78426834D01*
X129608757Y-78450284D01*
X129614065Y-78451706D01*
X129614067Y-78451707D01*
X129824598Y-78508119D01*
X129824600Y-78508119D01*
X129829913Y-78509543D01*
X130058000Y-78529498D01*
X130286087Y-78509543D01*
X130291400Y-78508119D01*
X130291402Y-78508119D01*
X130501933Y-78451707D01*
X130501935Y-78451706D01*
X130507243Y-78450284D01*
X130557532Y-78426834D01*
X130709762Y-78355849D01*
X130709767Y-78355846D01*
X130714749Y-78353523D01*
X130845043Y-78262290D01*
X130897789Y-78225357D01*
X130897792Y-78225355D01*
X130902300Y-78222198D01*
X131064198Y-78060300D01*
X131075136Y-78044680D01*
X131134031Y-77960568D01*
X131195523Y-77872749D01*
X131197846Y-77867767D01*
X131197849Y-77867762D01*
X131268858Y-77715481D01*
X131292284Y-77665243D01*
X131307841Y-77607184D01*
X131340453Y-77550700D01*
X131636303Y-77254850D01*
X131642321Y-77249213D01*
X131686679Y-77210312D01*
X131691018Y-77206507D01*
X131745792Y-77137028D01*
X131747852Y-77134484D01*
X131800727Y-77070909D01*
X131800734Y-77070899D01*
X131804424Y-77066462D01*
X131807249Y-77061418D01*
X131809350Y-77058360D01*
X131815551Y-77049080D01*
X131817554Y-77045996D01*
X131821127Y-77041464D01*
X131823811Y-77036363D01*
X131823814Y-77036358D01*
X131862318Y-76963172D01*
X131863893Y-76960272D01*
X131904289Y-76888141D01*
X131904290Y-76888139D01*
X131907113Y-76883098D01*
X131908971Y-76877623D01*
X131910480Y-76874234D01*
X131914888Y-76863975D01*
X131916293Y-76860583D01*
X131918981Y-76855474D01*
X131945213Y-76770995D01*
X131946229Y-76767865D01*
X131972809Y-76689564D01*
X131972809Y-76689562D01*
X131974667Y-76684090D01*
X131975497Y-76678366D01*
X131976364Y-76674754D01*
X131978829Y-76663863D01*
X131979590Y-76660285D01*
X131981303Y-76654767D01*
X131989936Y-76581826D01*
X131991702Y-76566900D01*
X131992133Y-76563627D01*
X132003996Y-76481817D01*
X132003996Y-76481813D01*
X132004824Y-76476104D01*
X132001596Y-76393947D01*
X132001499Y-76389000D01*
X132001499Y-62474062D01*
X132374493Y-62474062D01*
X132383789Y-62486077D01*
X132434994Y-62521931D01*
X132444489Y-62527414D01*
X132641947Y-62619490D01*
X132652239Y-62623236D01*
X132862688Y-62679625D01*
X132873481Y-62681528D01*
X133090525Y-62700517D01*
X133101475Y-62700517D01*
X133318519Y-62681528D01*
X133329312Y-62679625D01*
X133539761Y-62623236D01*
X133550053Y-62619490D01*
X133747511Y-62527414D01*
X133757006Y-62521931D01*
X133809048Y-62485491D01*
X133817424Y-62475012D01*
X133810356Y-62461566D01*
X133108812Y-61760022D01*
X133094868Y-61752408D01*
X133093035Y-61752539D01*
X133086420Y-61756790D01*
X132380923Y-62462287D01*
X132374493Y-62474062D01*
X132001499Y-62474062D01*
X132001499Y-62175481D01*
X132021501Y-62107360D01*
X132038404Y-62086386D01*
X132723978Y-61400812D01*
X132730356Y-61389132D01*
X133460408Y-61389132D01*
X133460539Y-61390965D01*
X133464790Y-61397580D01*
X134170287Y-62103077D01*
X134182062Y-62109507D01*
X134194077Y-62100211D01*
X134229931Y-62049006D01*
X134235414Y-62039511D01*
X134327490Y-61842053D01*
X134331236Y-61831761D01*
X134387625Y-61621312D01*
X134389528Y-61610519D01*
X134408517Y-61393475D01*
X134408517Y-61382525D01*
X134389528Y-61165481D01*
X134387625Y-61154688D01*
X134331236Y-60944239D01*
X134327490Y-60933947D01*
X134235414Y-60736489D01*
X134229931Y-60726994D01*
X134193491Y-60674952D01*
X134183012Y-60666576D01*
X134169566Y-60673644D01*
X133468022Y-61375188D01*
X133460408Y-61389132D01*
X132730356Y-61389132D01*
X132731592Y-61386868D01*
X132731461Y-61385035D01*
X132727210Y-61378420D01*
X132038404Y-60689614D01*
X132004378Y-60627302D01*
X132001499Y-60600519D01*
X132001499Y-60300988D01*
X132374576Y-60300988D01*
X132381644Y-60314434D01*
X133083188Y-61015978D01*
X133097132Y-61023592D01*
X133098965Y-61023461D01*
X133105580Y-61019210D01*
X133811077Y-60313713D01*
X133817507Y-60301938D01*
X133808211Y-60289923D01*
X133757006Y-60254069D01*
X133747511Y-60248586D01*
X133550053Y-60156510D01*
X133539761Y-60152764D01*
X133329312Y-60096375D01*
X133318519Y-60094472D01*
X133101475Y-60075483D01*
X133090525Y-60075483D01*
X132873481Y-60094472D01*
X132862688Y-60096375D01*
X132652239Y-60152764D01*
X132641947Y-60156510D01*
X132444489Y-60248586D01*
X132434994Y-60254069D01*
X132382952Y-60290509D01*
X132374576Y-60300988D01*
X132001499Y-60300988D01*
X132001499Y-57448187D01*
X132021501Y-57380066D01*
X132075157Y-57333573D01*
X132145431Y-57323469D01*
X132210011Y-57352963D01*
X132216594Y-57359092D01*
X132251700Y-57394198D01*
X132256208Y-57397355D01*
X132256211Y-57397357D01*
X132328804Y-57448187D01*
X132439251Y-57525523D01*
X132444233Y-57527846D01*
X132444238Y-57527849D01*
X132641775Y-57619961D01*
X132646757Y-57622284D01*
X132652065Y-57623706D01*
X132652067Y-57623707D01*
X132862598Y-57680119D01*
X132862600Y-57680119D01*
X132867913Y-57681543D01*
X133096000Y-57701498D01*
X133324087Y-57681543D01*
X133329400Y-57680119D01*
X133329402Y-57680119D01*
X133539933Y-57623707D01*
X133539935Y-57623706D01*
X133545243Y-57622284D01*
X133550225Y-57619961D01*
X133747762Y-57527849D01*
X133747767Y-57527846D01*
X133752749Y-57525523D01*
X133863196Y-57448187D01*
X133935789Y-57397357D01*
X133935792Y-57397355D01*
X133940300Y-57394198D01*
X134102198Y-57232300D01*
X134117118Y-57210993D01*
X134211077Y-57076805D01*
X134233523Y-57044749D01*
X134235846Y-57039767D01*
X134235849Y-57039762D01*
X134327961Y-56842225D01*
X134327961Y-56842224D01*
X134330284Y-56837243D01*
X134332141Y-56830315D01*
X134388119Y-56621402D01*
X134388119Y-56621400D01*
X134389543Y-56616087D01*
X134409498Y-56388000D01*
X134389543Y-56159913D01*
X134347489Y-56002966D01*
X134331707Y-55944067D01*
X134331706Y-55944065D01*
X134330284Y-55938757D01*
X134327961Y-55933775D01*
X134235849Y-55736238D01*
X134235846Y-55736233D01*
X134233523Y-55731251D01*
X134102198Y-55543700D01*
X133940300Y-55381802D01*
X133935792Y-55378645D01*
X133935789Y-55378643D01*
X133820080Y-55297623D01*
X133752749Y-55250477D01*
X133747767Y-55248154D01*
X133747762Y-55248151D01*
X133642409Y-55199025D01*
X133545243Y-55153716D01*
X133487184Y-55138159D01*
X133430700Y-55105547D01*
X129450405Y-51125252D01*
X129416379Y-51062940D01*
X129413500Y-51036157D01*
X129413500Y-47516381D01*
X130349160Y-47516381D01*
X130349237Y-47517470D01*
X130351698Y-47521206D01*
X130625632Y-47731404D01*
X130631262Y-47735259D01*
X130931591Y-47917862D01*
X130937593Y-47921080D01*
X131255897Y-48070184D01*
X131262202Y-48072732D01*
X131594743Y-48186587D01*
X131601313Y-48188446D01*
X131944183Y-48265714D01*
X131950912Y-48266853D01*
X132300143Y-48306643D01*
X132306933Y-48307046D01*
X132658419Y-48308886D01*
X132665220Y-48308554D01*
X133014853Y-48272423D01*
X133021581Y-48271357D01*
X133365274Y-48197676D01*
X133371822Y-48195897D01*
X133705549Y-48085527D01*
X133711891Y-48083041D01*
X134031718Y-47937288D01*
X134037777Y-47934121D01*
X134339995Y-47754676D01*
X134345659Y-47750884D01*
X134626732Y-47539849D01*
X134631958Y-47535464D01*
X134641613Y-47526428D01*
X134649682Y-47512750D01*
X134649654Y-47512024D01*
X134644512Y-47503723D01*
X132512810Y-45372020D01*
X132498869Y-45364408D01*
X132497034Y-45364539D01*
X132490420Y-45368790D01*
X130356774Y-47502437D01*
X130349160Y-47516381D01*
X129413500Y-47516381D01*
X129413500Y-46748559D01*
X129433502Y-46680438D01*
X129487158Y-46633945D01*
X129557432Y-46623841D01*
X129622012Y-46653335D01*
X129651060Y-46689989D01*
X129652803Y-46693310D01*
X129656286Y-46699152D01*
X129852330Y-46990896D01*
X129856433Y-46996340D01*
X129976425Y-47138836D01*
X129989164Y-47147279D01*
X129999608Y-47141181D01*
X132127980Y-45012810D01*
X132134357Y-45001131D01*
X132864408Y-45001131D01*
X132864539Y-45002966D01*
X132868790Y-45009580D01*
X134999009Y-47139798D01*
X135012605Y-47147223D01*
X135022218Y-47140522D01*
X135122518Y-47023912D01*
X135126676Y-47018514D01*
X135325762Y-46728840D01*
X135329310Y-46723029D01*
X135495942Y-46413559D01*
X135498849Y-46407381D01*
X135631090Y-46081713D01*
X135633304Y-46075283D01*
X135729598Y-45737237D01*
X135731105Y-45730607D01*
X135790332Y-45384118D01*
X135791112Y-45377378D01*
X135812668Y-45024925D01*
X135812784Y-45021323D01*
X135812853Y-45001819D01*
X135812761Y-44998194D01*
X135793666Y-44645615D01*
X135792931Y-44638849D01*
X135736130Y-44291985D01*
X135734663Y-44285313D01*
X135640736Y-43946627D01*
X135638562Y-43940163D01*
X135508598Y-43613578D01*
X135505742Y-43607398D01*
X135341269Y-43296763D01*
X135337769Y-43290937D01*
X135140697Y-42999862D01*
X135136590Y-42994453D01*
X135023565Y-42861179D01*
X135010740Y-42852743D01*
X135000416Y-42858795D01*
X132872020Y-44987190D01*
X132864408Y-45001131D01*
X132134357Y-45001131D01*
X132135592Y-44998869D01*
X132135461Y-44997034D01*
X132131210Y-44990420D01*
X130000992Y-42860203D01*
X129987455Y-42852811D01*
X129977753Y-42859599D01*
X129870430Y-42985257D01*
X129866296Y-42990664D01*
X129668215Y-43281041D01*
X129664692Y-43286858D01*
X129650648Y-43313161D01*
X129600918Y-43363831D01*
X129531689Y-43379572D01*
X129464939Y-43355385D01*
X129421862Y-43298950D01*
X129413500Y-43253814D01*
X129413500Y-42486862D01*
X130349950Y-42486862D01*
X130349986Y-42487704D01*
X130355037Y-42495826D01*
X132487190Y-44627980D01*
X132501131Y-44635592D01*
X132502966Y-44635461D01*
X132509580Y-44631210D01*
X134642798Y-42497991D01*
X134650412Y-42484047D01*
X134650344Y-42483089D01*
X134645836Y-42476272D01*
X134644418Y-42475065D01*
X134364813Y-42262064D01*
X134359187Y-42258240D01*
X134058214Y-42076681D01*
X134052202Y-42073484D01*
X133733370Y-41925487D01*
X133727070Y-41922967D01*
X133394129Y-41810273D01*
X133387551Y-41808437D01*
X133044417Y-41732367D01*
X133037678Y-41731251D01*
X132688310Y-41692680D01*
X132681529Y-41692301D01*
X132330015Y-41691687D01*
X132323242Y-41692042D01*
X131973720Y-41729395D01*
X131967010Y-41730482D01*
X131623586Y-41805361D01*
X131617011Y-41807172D01*
X131283683Y-41918702D01*
X131277361Y-41921205D01*
X130958034Y-42068079D01*
X130951991Y-42071265D01*
X130650401Y-42251763D01*
X130644755Y-42255571D01*
X130364408Y-42467596D01*
X130359211Y-42471987D01*
X130357972Y-42473155D01*
X130349950Y-42486862D01*
X129413500Y-42486862D01*
X129413500Y-42460795D01*
X129413770Y-42452554D01*
X129417627Y-42393705D01*
X129418005Y-42387939D01*
X129407608Y-42300092D01*
X129407264Y-42296813D01*
X129399698Y-42214477D01*
X129399698Y-42214476D01*
X129399169Y-42208721D01*
X129397601Y-42203162D01*
X129396939Y-42199588D01*
X129394750Y-42188585D01*
X129393982Y-42184972D01*
X129393303Y-42179235D01*
X129367062Y-42094724D01*
X129366139Y-42091605D01*
X129361029Y-42073484D01*
X129342123Y-42006451D01*
X129339565Y-42001263D01*
X129338240Y-41997812D01*
X129334099Y-41987434D01*
X129332696Y-41984047D01*
X129330982Y-41978527D01*
X129289801Y-41900254D01*
X129288305Y-41897318D01*
X129249171Y-41817963D01*
X129245713Y-41813332D01*
X129243750Y-41810129D01*
X129237827Y-41800742D01*
X129235818Y-41797649D01*
X129233129Y-41792537D01*
X129178344Y-41723044D01*
X129176373Y-41720474D01*
X129126884Y-41654199D01*
X129126877Y-41654192D01*
X129123427Y-41649571D01*
X129063026Y-41593737D01*
X129059461Y-41590308D01*
X128138849Y-40669696D01*
X128133212Y-40663678D01*
X128119812Y-40648398D01*
X128090506Y-40614981D01*
X128021018Y-40560202D01*
X128018453Y-40558124D01*
X127954900Y-40505266D01*
X127954895Y-40505262D01*
X127950460Y-40501574D01*
X127945426Y-40498755D01*
X127942416Y-40496686D01*
X127933146Y-40490492D01*
X127930001Y-40488449D01*
X127925463Y-40484872D01*
X127920355Y-40482184D01*
X127920351Y-40482182D01*
X127847184Y-40443688D01*
X127844284Y-40442113D01*
X127772139Y-40401709D01*
X127772137Y-40401708D01*
X127767096Y-40398885D01*
X127761624Y-40397028D01*
X127758224Y-40395514D01*
X127748013Y-40391127D01*
X127744579Y-40389705D01*
X127739473Y-40387018D01*
X127733959Y-40385306D01*
X127733957Y-40385305D01*
X127655001Y-40360788D01*
X127651865Y-40359769D01*
X127598720Y-40341729D01*
X127568088Y-40331331D01*
X127562375Y-40330502D01*
X127558862Y-40329659D01*
X127547849Y-40327167D01*
X127544282Y-40326409D01*
X127538766Y-40324696D01*
X127533038Y-40324018D01*
X127533033Y-40324017D01*
X127480633Y-40317816D01*
X127450882Y-40314294D01*
X127447660Y-40313870D01*
X127360103Y-40301175D01*
X127277946Y-40304403D01*
X127272999Y-40304500D01*
X125224230Y-40304500D01*
X125156109Y-40284498D01*
X125115932Y-40237737D01*
X125113800Y-40238933D01*
X125110974Y-40233896D01*
X125108620Y-40228622D01*
X124987869Y-40053256D01*
X124925710Y-39991205D01*
X124841270Y-39906911D01*
X124841265Y-39906907D01*
X124837183Y-39902832D01*
X124832421Y-39899565D01*
X124832417Y-39899562D01*
X124827767Y-39896372D01*
X124782908Y-39841343D01*
X124774921Y-39770797D01*
X124806342Y-39707132D01*
X124821601Y-39693544D01*
X124821562Y-39693498D01*
X124823770Y-39691612D01*
X124824974Y-39690540D01*
X124825318Y-39690290D01*
X125016252Y-39527216D01*
X125023216Y-39520252D01*
X125186288Y-39329321D01*
X125192080Y-39321348D01*
X125323271Y-39107264D01*
X125327752Y-39098470D01*
X125423834Y-38866508D01*
X125426883Y-38857123D01*
X125484820Y-38615798D01*
X125482546Y-38604970D01*
X125471082Y-38602000D01*
X121418978Y-38602000D01*
X121404185Y-38606344D01*
X121402797Y-38614200D01*
X121461117Y-38857123D01*
X121464166Y-38866508D01*
X121560248Y-39098470D01*
X121564729Y-39107264D01*
X121695920Y-39321348D01*
X121701712Y-39329321D01*
X121864784Y-39520252D01*
X121871748Y-39527216D01*
X122062679Y-39690288D01*
X122063160Y-39690637D01*
X122063298Y-39690817D01*
X122066438Y-39693498D01*
X122065875Y-39694158D01*
X122106514Y-39746860D01*
X122112588Y-39817596D01*
X122079455Y-39880387D01*
X122060557Y-39896349D01*
X122054015Y-39900854D01*
X122049256Y-39904131D01*
X122045176Y-39908218D01*
X122045175Y-39908219D01*
X121902911Y-40050730D01*
X121902907Y-40050735D01*
X121898832Y-40054817D01*
X121778387Y-40230393D01*
X121754355Y-40284498D01*
X121705044Y-40395514D01*
X121691956Y-40424979D01*
X121690612Y-40430599D01*
X121645477Y-40619326D01*
X121642432Y-40632057D01*
X121642065Y-40637179D01*
X121637598Y-40699501D01*
X121635500Y-40728763D01*
X121635501Y-42167236D01*
X121635669Y-42169529D01*
X121635669Y-42169536D01*
X121642159Y-42258240D01*
X121642723Y-42265953D01*
X121692609Y-42472944D01*
X121779380Y-42667378D01*
X121782653Y-42672132D01*
X121782654Y-42672133D01*
X121873981Y-42804766D01*
X121900131Y-42842744D01*
X121904218Y-42846824D01*
X121904219Y-42846825D01*
X122046730Y-42989089D01*
X122046735Y-42989093D01*
X122050817Y-42993168D01*
X122226393Y-43113613D01*
X122323686Y-43156829D01*
X122415701Y-43197700D01*
X122415705Y-43197701D01*
X122420979Y-43200044D01*
X122426600Y-43201388D01*
X122426599Y-43201388D01*
X122623059Y-43248373D01*
X122623063Y-43248374D01*
X122628057Y-43249568D01*
X122664285Y-43252165D01*
X122722513Y-43256339D01*
X122722521Y-43256339D01*
X122724763Y-43256500D01*
X123437543Y-43256500D01*
X124163236Y-43256499D01*
X124165529Y-43256331D01*
X124165536Y-43256331D01*
X124256818Y-43249653D01*
X124256822Y-43249652D01*
X124261953Y-43249277D01*
X124468944Y-43199391D01*
X124663378Y-43112620D01*
X124827136Y-42999862D01*
X124833988Y-42995144D01*
X124833989Y-42995143D01*
X124838744Y-42991869D01*
X124870211Y-42960347D01*
X124985089Y-42845270D01*
X124985093Y-42845265D01*
X124989168Y-42841183D01*
X125094776Y-42687235D01*
X125106345Y-42670371D01*
X125106345Y-42670370D01*
X125109613Y-42665607D01*
X125111959Y-42660326D01*
X125114359Y-42656031D01*
X125165052Y-42606325D01*
X125224348Y-42591500D01*
X126774156Y-42591500D01*
X126842277Y-42611502D01*
X126863252Y-42628405D01*
X127089596Y-42854750D01*
X127123621Y-42917062D01*
X127126500Y-42943845D01*
X127126500Y-51291157D01*
X127106498Y-51359278D01*
X127052842Y-51405771D01*
X126982568Y-51415875D01*
X126917988Y-51386381D01*
X126911405Y-51380252D01*
X125289404Y-49758251D01*
X125255378Y-49695939D01*
X125252499Y-49669156D01*
X125252499Y-49028764D01*
X125251534Y-49015571D01*
X125245653Y-48935182D01*
X125245652Y-48935178D01*
X125245277Y-48930047D01*
X125195391Y-48723056D01*
X125108620Y-48528622D01*
X124987869Y-48353256D01*
X124941175Y-48306643D01*
X124841270Y-48206911D01*
X124841265Y-48206907D01*
X124837183Y-48202832D01*
X124661607Y-48082387D01*
X124564314Y-48039171D01*
X124472299Y-47998300D01*
X124472295Y-47998299D01*
X124467021Y-47995956D01*
X124429753Y-47987043D01*
X124264941Y-47947627D01*
X124264937Y-47947626D01*
X124259943Y-47946432D01*
X124223715Y-47943835D01*
X124165487Y-47939661D01*
X124165479Y-47939661D01*
X124163237Y-47939500D01*
X123450457Y-47939500D01*
X122724764Y-47939501D01*
X122722471Y-47939669D01*
X122722464Y-47939669D01*
X122631182Y-47946347D01*
X122631178Y-47946348D01*
X122626047Y-47946723D01*
X122419056Y-47996609D01*
X122224622Y-48083380D01*
X122219868Y-48086653D01*
X122219867Y-48086654D01*
X122055886Y-48199566D01*
X122049256Y-48204131D01*
X122045176Y-48208218D01*
X122045175Y-48208219D01*
X121902911Y-48350730D01*
X121902907Y-48350735D01*
X121898832Y-48354817D01*
X121778387Y-48530393D01*
X121691956Y-48724979D01*
X121642432Y-48932057D01*
X121642065Y-48937179D01*
X121636446Y-49015571D01*
X121635500Y-49028763D01*
X121635501Y-50467236D01*
X121642723Y-50565953D01*
X121692609Y-50772944D01*
X121779380Y-50967378D01*
X121782653Y-50972132D01*
X121782654Y-50972133D01*
X121888087Y-51125252D01*
X121900131Y-51142744D01*
X121904218Y-51146824D01*
X121904219Y-51146825D01*
X122046730Y-51289089D01*
X122046735Y-51289093D01*
X122050817Y-51293168D01*
X122055578Y-51296434D01*
X122214962Y-51405771D01*
X122226393Y-51413613D01*
X122300501Y-51446530D01*
X122415701Y-51497700D01*
X122415705Y-51497701D01*
X122420979Y-51500044D01*
X122426600Y-51501388D01*
X122426599Y-51501388D01*
X122623059Y-51548373D01*
X122623063Y-51548374D01*
X122628057Y-51549568D01*
X122664285Y-51552165D01*
X122722513Y-51556339D01*
X122722521Y-51556339D01*
X122724763Y-51556500D01*
X122771666Y-51556500D01*
X123801156Y-51556499D01*
X123869277Y-51576501D01*
X123890251Y-51593404D01*
X126673252Y-54376405D01*
X126707278Y-54438717D01*
X126702213Y-54509532D01*
X126659666Y-54566368D01*
X126593146Y-54591179D01*
X126584157Y-54591500D01*
X124995866Y-54591500D01*
X124933684Y-54598255D01*
X124797295Y-54649385D01*
X124680739Y-54736739D01*
X124675358Y-54743919D01*
X124628782Y-54806065D01*
X124571923Y-54848580D01*
X124527956Y-54856500D01*
X124312537Y-54856500D01*
X124244416Y-54836498D01*
X124234447Y-54829384D01*
X124226123Y-54822810D01*
X124221607Y-54820317D01*
X124221604Y-54820315D01*
X124027879Y-54713373D01*
X124027875Y-54713371D01*
X124023355Y-54710876D01*
X124018486Y-54709152D01*
X124018482Y-54709150D01*
X123809903Y-54635288D01*
X123809899Y-54635287D01*
X123805028Y-54633562D01*
X123799935Y-54632655D01*
X123799932Y-54632654D01*
X123582095Y-54593851D01*
X123582089Y-54593850D01*
X123577006Y-54592945D01*
X123504096Y-54592054D01*
X123350581Y-54590179D01*
X123350579Y-54590179D01*
X123345411Y-54590116D01*
X123116464Y-54625150D01*
X122896314Y-54697106D01*
X122891726Y-54699494D01*
X122891722Y-54699496D01*
X122757238Y-54769504D01*
X122690872Y-54804052D01*
X122686739Y-54807155D01*
X122686736Y-54807157D01*
X122509790Y-54940012D01*
X122505655Y-54943117D01*
X122502083Y-54946855D01*
X122358223Y-55097396D01*
X122345639Y-55110564D01*
X122298836Y-55179174D01*
X122243927Y-55224175D01*
X122173402Y-55232346D01*
X122109655Y-55201092D01*
X122088959Y-55176609D01*
X122066577Y-55142013D01*
X122066576Y-55142012D01*
X122063764Y-55137665D01*
X122057143Y-55130388D01*
X121936260Y-54997540D01*
X121907887Y-54966358D01*
X121903836Y-54963159D01*
X121903832Y-54963155D01*
X121730177Y-54826011D01*
X121730172Y-54826008D01*
X121726123Y-54822810D01*
X121721607Y-54820317D01*
X121721604Y-54820315D01*
X121527879Y-54713373D01*
X121527875Y-54713371D01*
X121523355Y-54710876D01*
X121518486Y-54709152D01*
X121518482Y-54709150D01*
X121309903Y-54635288D01*
X121309899Y-54635287D01*
X121305028Y-54633562D01*
X121299935Y-54632655D01*
X121299932Y-54632654D01*
X121082095Y-54593851D01*
X121082089Y-54593850D01*
X121077006Y-54592945D01*
X121004096Y-54592054D01*
X120850581Y-54590179D01*
X120850579Y-54590179D01*
X120845411Y-54590116D01*
X120616464Y-54625150D01*
X120396314Y-54697106D01*
X120391726Y-54699494D01*
X120391722Y-54699496D01*
X120257238Y-54769504D01*
X120190872Y-54804052D01*
X120186739Y-54807155D01*
X120186736Y-54807157D01*
X120009790Y-54940012D01*
X120005655Y-54943117D01*
X120002083Y-54946855D01*
X119858223Y-55097396D01*
X119845639Y-55110564D01*
X119842730Y-55114829D01*
X119842724Y-55114837D01*
X119808693Y-55164725D01*
X119715119Y-55301899D01*
X119617602Y-55511981D01*
X119555707Y-55735169D01*
X119555159Y-55740301D01*
X119555023Y-55741012D01*
X119520350Y-55806496D01*
X114029696Y-61297151D01*
X114023678Y-61302788D01*
X113974981Y-61345494D01*
X113971406Y-61350029D01*
X113971405Y-61350030D01*
X113920202Y-61414982D01*
X113918124Y-61417547D01*
X113865266Y-61481100D01*
X113865262Y-61481105D01*
X113861574Y-61485540D01*
X113858755Y-61490574D01*
X113856686Y-61493584D01*
X113850492Y-61502854D01*
X113848449Y-61505999D01*
X113844872Y-61510537D01*
X113842184Y-61515645D01*
X113842182Y-61515649D01*
X113803688Y-61588816D01*
X113802118Y-61591706D01*
X113758885Y-61668904D01*
X113757028Y-61674376D01*
X113755514Y-61677776D01*
X113751127Y-61687987D01*
X113749705Y-61691421D01*
X113747018Y-61696527D01*
X113745306Y-61702041D01*
X113745305Y-61702043D01*
X113720788Y-61780999D01*
X113719769Y-61784135D01*
X113715727Y-61796043D01*
X113691331Y-61867912D01*
X113690502Y-61873625D01*
X113689659Y-61877138D01*
X113687167Y-61888151D01*
X113686409Y-61891718D01*
X113684696Y-61897234D01*
X113684018Y-61902962D01*
X113684017Y-61902967D01*
X113674297Y-61985098D01*
X113673870Y-61988340D01*
X113661175Y-62075897D01*
X113664403Y-62158054D01*
X113664500Y-62163001D01*
X113664500Y-71359482D01*
X113664489Y-71361131D01*
X113663141Y-71464102D01*
X113664115Y-71469770D01*
X113664500Y-71479582D01*
X113664500Y-74258135D01*
X113652695Y-74311385D01*
X113573716Y-74480757D01*
X113572294Y-74486065D01*
X113572293Y-74486067D01*
X113538567Y-74611933D01*
X113514457Y-74701913D01*
X113494502Y-74930000D01*
X113514457Y-75158087D01*
X113515881Y-75163400D01*
X113515881Y-75163402D01*
X113553963Y-75305523D01*
X113573716Y-75379243D01*
X113576039Y-75384224D01*
X113576039Y-75384225D01*
X113668151Y-75581762D01*
X113668154Y-75581767D01*
X113670477Y-75586749D01*
X113730128Y-75671939D01*
X113775348Y-75736520D01*
X113798036Y-75803794D01*
X113780751Y-75872655D01*
X113728981Y-75921239D01*
X113659163Y-75934122D01*
X113593464Y-75907213D01*
X113583040Y-75897886D01*
X110908405Y-73223252D01*
X110874379Y-73160940D01*
X110871500Y-73134157D01*
X110871500Y-71791865D01*
X110883305Y-71738615D01*
X110959961Y-71574225D01*
X110959961Y-71574224D01*
X110962284Y-71569243D01*
X110974250Y-71524588D01*
X111020119Y-71353402D01*
X111020119Y-71353400D01*
X111021543Y-71348087D01*
X111041498Y-71120000D01*
X111021543Y-70891913D01*
X110962284Y-70670757D01*
X110959960Y-70665772D01*
X110883305Y-70501385D01*
X110871500Y-70448135D01*
X110871500Y-69557603D01*
X110891502Y-69489482D01*
X110896674Y-69482038D01*
X110973229Y-69379891D01*
X110978615Y-69372705D01*
X111029745Y-69236316D01*
X111036500Y-69174134D01*
X111036500Y-67477866D01*
X111029745Y-67415684D01*
X110978615Y-67279295D01*
X110891261Y-67162739D01*
X110774705Y-67075385D01*
X110638316Y-67024255D01*
X110576134Y-67017500D01*
X108879866Y-67017500D01*
X108817684Y-67024255D01*
X108681295Y-67075385D01*
X108564739Y-67162739D01*
X108477385Y-67279295D01*
X108426255Y-67415684D01*
X108419500Y-67477866D01*
X108419500Y-69174134D01*
X108426255Y-69236316D01*
X108477385Y-69372705D01*
X108482771Y-69379891D01*
X108559326Y-69482038D01*
X108584174Y-69548544D01*
X108584500Y-69557603D01*
X108584500Y-70448135D01*
X108572695Y-70501385D01*
X108493716Y-70670757D01*
X108492293Y-70676067D01*
X108492292Y-70676071D01*
X108478159Y-70728816D01*
X108445547Y-70785300D01*
X104973252Y-74257595D01*
X104910940Y-74291621D01*
X104884157Y-74294500D01*
X102831603Y-74294500D01*
X102763482Y-74274498D01*
X102756038Y-74269326D01*
X102741106Y-74258135D01*
X102646705Y-74187385D01*
X102510316Y-74136255D01*
X102448134Y-74129500D01*
X100751866Y-74129500D01*
X100689684Y-74136255D01*
X100553295Y-74187385D01*
X100436739Y-74274739D01*
X100349385Y-74391295D01*
X100298255Y-74527684D01*
X100291500Y-74589866D01*
X100291500Y-76286134D01*
X100298255Y-76348316D01*
X100349385Y-76484705D01*
X100436739Y-76601261D01*
X100553295Y-76688615D01*
X100689684Y-76739745D01*
X100733252Y-76744478D01*
X100748486Y-76746133D01*
X100748489Y-76746133D01*
X100751866Y-76746500D01*
X100755185Y-76746500D01*
X100822110Y-76770153D01*
X100857804Y-76816156D01*
X100859734Y-76815141D01*
X100865442Y-76826000D01*
X100865632Y-76826245D01*
X100865653Y-76826403D01*
X100885644Y-76864434D01*
X101587188Y-77565978D01*
X101601132Y-77573592D01*
X101602965Y-77573461D01*
X101609580Y-77569210D01*
X102315077Y-76863713D01*
X102337871Y-76821971D01*
X102340047Y-76811971D01*
X102390253Y-76761773D01*
X102443814Y-76746549D01*
X102444719Y-76746500D01*
X102448134Y-76746500D01*
X102451530Y-76746131D01*
X102451532Y-76746131D01*
X102463879Y-76744790D01*
X102510316Y-76739745D01*
X102646705Y-76688615D01*
X102756039Y-76606674D01*
X102822544Y-76581826D01*
X102831603Y-76581500D01*
X105367195Y-76581500D01*
X105375436Y-76581770D01*
X105440061Y-76586006D01*
X105527973Y-76575601D01*
X105531186Y-76575264D01*
X105619279Y-76567169D01*
X105624839Y-76565601D01*
X105628412Y-76564939D01*
X105639415Y-76562750D01*
X105643028Y-76561982D01*
X105648765Y-76561303D01*
X105733276Y-76535062D01*
X105736373Y-76534146D01*
X105821549Y-76510123D01*
X105826737Y-76507565D01*
X105830188Y-76506240D01*
X105840566Y-76502099D01*
X105843953Y-76500696D01*
X105849473Y-76498982D01*
X105927746Y-76457801D01*
X105930682Y-76456305D01*
X106010037Y-76417171D01*
X106014668Y-76413713D01*
X106017871Y-76411750D01*
X106027258Y-76405827D01*
X106030351Y-76403818D01*
X106035463Y-76401129D01*
X106104956Y-76346344D01*
X106107526Y-76344373D01*
X106173801Y-76294884D01*
X106173808Y-76294877D01*
X106178429Y-76291427D01*
X106186481Y-76282717D01*
X106234261Y-76231028D01*
X106237691Y-76227462D01*
X108446341Y-74018812D01*
X108508653Y-73984786D01*
X108579468Y-73989851D01*
X108636304Y-74032398D01*
X108653069Y-74062756D01*
X108654306Y-74065979D01*
X108655877Y-74071549D01*
X108658436Y-74076738D01*
X108659767Y-74080206D01*
X108663901Y-74090566D01*
X108665304Y-74093953D01*
X108667018Y-74099473D01*
X108669709Y-74104587D01*
X108669709Y-74104588D01*
X108708198Y-74177745D01*
X108709695Y-74180681D01*
X108748829Y-74260037D01*
X108752287Y-74264668D01*
X108754250Y-74267871D01*
X108760173Y-74277258D01*
X108762182Y-74280351D01*
X108764871Y-74285463D01*
X108819656Y-74354956D01*
X108821627Y-74357526D01*
X108871116Y-74423801D01*
X108871123Y-74423808D01*
X108874573Y-74428429D01*
X108878807Y-74432343D01*
X108878809Y-74432345D01*
X108934973Y-74484262D01*
X108938539Y-74487692D01*
X112445151Y-77994304D01*
X112450788Y-78000322D01*
X112493494Y-78049019D01*
X112562973Y-78103793D01*
X112565517Y-78105853D01*
X112629092Y-78158728D01*
X112629102Y-78158735D01*
X112633539Y-78162425D01*
X112638583Y-78165250D01*
X112641641Y-78167351D01*
X112650921Y-78173552D01*
X112654005Y-78175555D01*
X112658537Y-78179128D01*
X112663638Y-78181812D01*
X112663643Y-78181815D01*
X112736829Y-78220319D01*
X112739719Y-78221889D01*
X112816903Y-78265114D01*
X112822378Y-78266972D01*
X112825767Y-78268481D01*
X112836026Y-78272889D01*
X112839418Y-78274294D01*
X112844527Y-78276982D01*
X112926834Y-78302539D01*
X112928998Y-78303211D01*
X112932136Y-78304230D01*
X113010437Y-78330810D01*
X113010439Y-78330810D01*
X113015911Y-78332668D01*
X113021635Y-78333498D01*
X113025247Y-78334365D01*
X113036138Y-78336830D01*
X113039716Y-78337591D01*
X113045234Y-78339304D01*
X113050971Y-78339983D01*
X113133101Y-78349703D01*
X113136367Y-78350133D01*
X113151910Y-78352387D01*
X113218184Y-78361997D01*
X113218188Y-78361997D01*
X113223897Y-78362825D01*
X113306054Y-78359597D01*
X113311001Y-78359500D01*
X117692135Y-78359500D01*
X117745385Y-78371305D01*
X117789880Y-78392053D01*
X117914757Y-78450284D01*
X117920065Y-78451706D01*
X117920067Y-78451707D01*
X118130598Y-78508119D01*
X118130600Y-78508119D01*
X118135913Y-78509543D01*
X118364000Y-78529498D01*
X118592087Y-78509543D01*
X118597400Y-78508119D01*
X118597402Y-78508119D01*
X118807933Y-78451707D01*
X118807935Y-78451706D01*
X118813243Y-78450284D01*
X118938121Y-78392053D01*
X118982615Y-78371305D01*
X119035865Y-78359500D01*
X121766135Y-78359500D01*
X121819385Y-78371305D01*
X121988757Y-78450284D01*
X121994068Y-78451707D01*
X121994071Y-78451708D01*
X122046816Y-78465841D01*
X122103300Y-78498453D01*
X125014382Y-81409535D01*
X125048408Y-81471847D01*
X125043343Y-81542662D01*
X125000796Y-81599498D01*
X124934276Y-81624309D01*
X124864902Y-81609218D01*
X124858562Y-81605322D01*
X124856460Y-81603574D01*
X124851417Y-81600750D01*
X124848378Y-81598661D01*
X124839146Y-81592492D01*
X124836001Y-81590449D01*
X124831463Y-81586872D01*
X124826355Y-81584184D01*
X124826351Y-81584182D01*
X124753184Y-81545688D01*
X124750284Y-81544113D01*
X124678139Y-81503709D01*
X124678137Y-81503708D01*
X124673096Y-81500885D01*
X124667624Y-81499028D01*
X124664224Y-81497514D01*
X124654013Y-81493127D01*
X124650579Y-81491705D01*
X124645473Y-81489018D01*
X124639959Y-81487306D01*
X124639957Y-81487305D01*
X124561001Y-81462788D01*
X124557865Y-81461769D01*
X124504720Y-81443729D01*
X124474088Y-81433331D01*
X124468375Y-81432502D01*
X124464862Y-81431659D01*
X124453849Y-81429167D01*
X124450282Y-81428409D01*
X124444766Y-81426696D01*
X124439038Y-81426018D01*
X124439033Y-81426017D01*
X124386633Y-81419816D01*
X124356882Y-81416294D01*
X124353660Y-81415870D01*
X124266103Y-81403175D01*
X124183946Y-81406403D01*
X124178999Y-81406500D01*
X120946794Y-81406500D01*
X120938553Y-81406230D01*
X120922632Y-81405187D01*
X120873938Y-81401995D01*
X120786074Y-81412395D01*
X120782807Y-81412737D01*
X120756998Y-81415109D01*
X120700476Y-81420302D01*
X120700474Y-81420302D01*
X120694721Y-81420831D01*
X120689159Y-81422400D01*
X120685601Y-81423059D01*
X120674551Y-81425257D01*
X120670970Y-81426018D01*
X120665234Y-81426697D01*
X120580731Y-81452935D01*
X120577599Y-81453863D01*
X120492451Y-81477877D01*
X120487269Y-81480433D01*
X120483824Y-81481755D01*
X120473421Y-81485906D01*
X120470042Y-81487305D01*
X120464526Y-81489018D01*
X120459420Y-81491704D01*
X120459416Y-81491706D01*
X120386217Y-81530218D01*
X120383277Y-81531716D01*
X120309141Y-81568275D01*
X120309137Y-81568278D01*
X120303963Y-81570829D01*
X120299338Y-81574283D01*
X120296172Y-81576223D01*
X120286759Y-81582162D01*
X120283649Y-81584181D01*
X120278537Y-81586871D01*
X120274003Y-81590446D01*
X120274002Y-81590446D01*
X120209058Y-81641644D01*
X120206457Y-81643640D01*
X120135571Y-81696573D01*
X120131657Y-81700807D01*
X120131655Y-81700809D01*
X120079750Y-81756960D01*
X120076320Y-81760526D01*
X119851898Y-81984948D01*
X119789586Y-82018974D01*
X119718771Y-82013909D01*
X119661935Y-81971362D01*
X119641096Y-81928464D01*
X119599236Y-81772239D01*
X119595490Y-81761947D01*
X119503414Y-81564489D01*
X119497931Y-81554994D01*
X119461491Y-81502952D01*
X119451012Y-81494576D01*
X119437566Y-81501644D01*
X117648923Y-83290287D01*
X117642493Y-83302062D01*
X117651789Y-83314077D01*
X117702994Y-83349931D01*
X117712489Y-83355414D01*
X117909947Y-83447490D01*
X117920239Y-83451236D01*
X118076465Y-83493096D01*
X118137088Y-83530048D01*
X118168109Y-83593908D01*
X118159681Y-83664403D01*
X118132949Y-83703898D01*
X117927252Y-83909595D01*
X117864940Y-83943621D01*
X117838157Y-83946500D01*
X115479865Y-83946500D01*
X115426615Y-83934695D01*
X115262225Y-83858039D01*
X115262224Y-83858039D01*
X115257243Y-83855716D01*
X115251935Y-83854294D01*
X115251933Y-83854293D01*
X115041402Y-83797881D01*
X115041400Y-83797881D01*
X115036087Y-83796457D01*
X114808000Y-83776502D01*
X114579913Y-83796457D01*
X114574600Y-83797881D01*
X114574598Y-83797881D01*
X114364067Y-83854293D01*
X114364065Y-83854294D01*
X114358757Y-83855716D01*
X114353776Y-83858039D01*
X114353775Y-83858039D01*
X114189385Y-83934695D01*
X114136135Y-83946500D01*
X111923865Y-83946500D01*
X111870615Y-83934695D01*
X111706225Y-83858039D01*
X111706224Y-83858039D01*
X111701243Y-83855716D01*
X111695935Y-83854294D01*
X111695933Y-83854293D01*
X111485402Y-83797881D01*
X111485400Y-83797881D01*
X111480087Y-83796457D01*
X111252000Y-83776502D01*
X111023913Y-83796457D01*
X111018600Y-83797881D01*
X111018598Y-83797881D01*
X110808067Y-83854293D01*
X110808065Y-83854294D01*
X110802757Y-83855716D01*
X110797776Y-83858039D01*
X110797775Y-83858039D01*
X110600238Y-83950151D01*
X110600233Y-83950154D01*
X110595251Y-83952477D01*
X110526776Y-84000424D01*
X110412211Y-84080643D01*
X110412208Y-84080645D01*
X110407700Y-84083802D01*
X110245802Y-84245700D01*
X110242645Y-84250208D01*
X110242643Y-84250211D01*
X110213940Y-84291203D01*
X110114477Y-84433251D01*
X110112154Y-84438233D01*
X110112151Y-84438238D01*
X110020124Y-84635592D01*
X110017716Y-84640757D01*
X109958457Y-84861913D01*
X109938502Y-85090000D01*
X109958457Y-85318087D01*
X109959881Y-85323400D01*
X109959881Y-85323402D01*
X110003922Y-85487762D01*
X110017716Y-85539243D01*
X110020039Y-85544224D01*
X110020039Y-85544225D01*
X110112151Y-85741762D01*
X110112154Y-85741767D01*
X110114477Y-85746749D01*
X110245802Y-85934300D01*
X110407700Y-86096198D01*
X110412208Y-86099355D01*
X110412211Y-86099357D01*
X110475967Y-86143999D01*
X110595251Y-86227523D01*
X110600233Y-86229846D01*
X110600238Y-86229849D01*
X110797775Y-86321961D01*
X110802757Y-86324284D01*
X110808065Y-86325706D01*
X110808067Y-86325707D01*
X111018598Y-86382119D01*
X111018600Y-86382119D01*
X111023913Y-86383543D01*
X111252000Y-86403498D01*
X111480087Y-86383543D01*
X111485400Y-86382119D01*
X111485402Y-86382119D01*
X111695933Y-86325707D01*
X111695935Y-86325706D01*
X111701243Y-86324284D01*
X111712498Y-86319036D01*
X111870615Y-86245305D01*
X111923865Y-86233500D01*
X114136135Y-86233500D01*
X114189385Y-86245305D01*
X114347503Y-86319036D01*
X114358757Y-86324284D01*
X114364065Y-86325706D01*
X114364067Y-86325707D01*
X114574598Y-86382119D01*
X114574600Y-86382119D01*
X114579913Y-86383543D01*
X114808000Y-86403498D01*
X115036087Y-86383543D01*
X115041400Y-86382119D01*
X115041402Y-86382119D01*
X115251933Y-86325707D01*
X115251935Y-86325706D01*
X115257243Y-86324284D01*
X115268498Y-86319036D01*
X115426615Y-86245305D01*
X115479865Y-86233500D01*
X118321195Y-86233500D01*
X118329436Y-86233770D01*
X118394061Y-86238006D01*
X118481973Y-86227601D01*
X118485186Y-86227264D01*
X118573279Y-86219169D01*
X118578839Y-86217601D01*
X118582412Y-86216939D01*
X118593415Y-86214750D01*
X118597028Y-86213982D01*
X118602765Y-86213303D01*
X118687276Y-86187062D01*
X118690373Y-86186146D01*
X118775549Y-86162123D01*
X118780737Y-86159565D01*
X118784188Y-86158240D01*
X118794566Y-86154099D01*
X118797953Y-86152696D01*
X118803473Y-86150982D01*
X118817271Y-86143723D01*
X118881745Y-86109802D01*
X118884682Y-86108305D01*
X118899971Y-86100765D01*
X118964037Y-86069171D01*
X118968668Y-86065713D01*
X118971871Y-86063750D01*
X118981258Y-86057827D01*
X118984351Y-86055818D01*
X118989463Y-86053129D01*
X119058956Y-85998344D01*
X119061526Y-85996373D01*
X119127801Y-85946884D01*
X119127808Y-85946877D01*
X119132429Y-85943427D01*
X119188263Y-85883026D01*
X119191692Y-85879461D01*
X119390484Y-85680669D01*
X121130001Y-85680669D01*
X121130371Y-85687490D01*
X121135895Y-85738352D01*
X121139521Y-85753604D01*
X121184676Y-85874054D01*
X121193214Y-85889649D01*
X121269715Y-85991724D01*
X121282276Y-86004285D01*
X121384351Y-86080786D01*
X121399946Y-86089324D01*
X121520394Y-86134478D01*
X121535649Y-86138105D01*
X121586514Y-86143631D01*
X121593328Y-86144000D01*
X122165885Y-86144000D01*
X122181124Y-86139525D01*
X122182329Y-86138135D01*
X122184000Y-86130452D01*
X122184000Y-85108115D01*
X122179525Y-85092876D01*
X122178135Y-85091671D01*
X122170452Y-85090000D01*
X121148116Y-85090000D01*
X121132877Y-85094475D01*
X121131672Y-85095865D01*
X121130001Y-85103548D01*
X121130001Y-85680669D01*
X119390484Y-85680669D01*
X120914905Y-84156248D01*
X120977217Y-84122222D01*
X121048032Y-84127287D01*
X121104868Y-84169834D01*
X121129679Y-84236354D01*
X121130000Y-84245343D01*
X121130000Y-84563885D01*
X121134475Y-84579124D01*
X121135865Y-84580329D01*
X121143548Y-84582000D01*
X122566000Y-84582000D01*
X122634121Y-84602002D01*
X122680614Y-84655658D01*
X122692000Y-84708000D01*
X122692000Y-86125884D01*
X122696475Y-86141123D01*
X122697865Y-86142328D01*
X122705548Y-86143999D01*
X123282669Y-86143999D01*
X123289490Y-86143629D01*
X123340352Y-86138105D01*
X123355604Y-86134479D01*
X123476054Y-86089324D01*
X123491649Y-86080786D01*
X123593724Y-86004285D01*
X123606285Y-85991724D01*
X123682786Y-85889649D01*
X123691324Y-85874054D01*
X123736478Y-85753606D01*
X123740104Y-85738357D01*
X123740479Y-85734904D01*
X123741522Y-85732394D01*
X123741932Y-85730669D01*
X123742211Y-85730735D01*
X123767719Y-85669341D01*
X123826080Y-85628912D01*
X123897034Y-85626454D01*
X123958054Y-85662747D01*
X123967344Y-85674240D01*
X123968641Y-85675786D01*
X123971802Y-85680300D01*
X124133700Y-85842198D01*
X124138207Y-85845354D01*
X124138211Y-85845357D01*
X124213099Y-85897794D01*
X124321251Y-85973523D01*
X124326233Y-85975846D01*
X124326238Y-85975849D01*
X124519377Y-86065910D01*
X124528757Y-86070284D01*
X124534065Y-86071706D01*
X124534067Y-86071707D01*
X124744598Y-86128119D01*
X124744600Y-86128119D01*
X124749913Y-86129543D01*
X124978000Y-86149498D01*
X125206087Y-86129543D01*
X125211400Y-86128119D01*
X125211402Y-86128119D01*
X125421933Y-86071707D01*
X125421935Y-86071706D01*
X125427243Y-86070284D01*
X125436623Y-86065910D01*
X125629762Y-85975849D01*
X125629767Y-85975846D01*
X125634749Y-85973523D01*
X125742901Y-85897794D01*
X125817789Y-85845357D01*
X125817793Y-85845354D01*
X125822300Y-85842198D01*
X125984198Y-85680300D01*
X125988442Y-85674240D01*
X126058996Y-85573477D01*
X126115523Y-85492749D01*
X126117846Y-85487767D01*
X126117849Y-85487762D01*
X126133805Y-85453543D01*
X126180722Y-85400258D01*
X126248999Y-85380797D01*
X126316959Y-85401339D01*
X126362190Y-85453533D01*
X126362690Y-85454605D01*
X126374500Y-85507865D01*
X126374500Y-85819195D01*
X126374230Y-85827436D01*
X126369994Y-85892061D01*
X126380399Y-85979973D01*
X126380736Y-85983186D01*
X126388831Y-86071279D01*
X126390399Y-86076839D01*
X126391061Y-86080412D01*
X126393250Y-86091415D01*
X126394018Y-86095028D01*
X126394697Y-86100765D01*
X126420938Y-86185276D01*
X126421854Y-86188373D01*
X126445877Y-86273549D01*
X126448435Y-86278737D01*
X126449760Y-86282188D01*
X126453901Y-86292566D01*
X126455304Y-86295953D01*
X126457018Y-86301473D01*
X126459709Y-86306587D01*
X126459709Y-86306588D01*
X126498198Y-86379745D01*
X126499695Y-86382681D01*
X126538829Y-86462037D01*
X126542287Y-86466668D01*
X126544250Y-86469871D01*
X126550173Y-86479258D01*
X126552182Y-86482351D01*
X126554871Y-86487463D01*
X126609656Y-86556956D01*
X126611627Y-86559526D01*
X126661116Y-86625801D01*
X126661123Y-86625808D01*
X126664573Y-86630429D01*
X126668807Y-86634343D01*
X126668809Y-86634345D01*
X126724973Y-86686262D01*
X126728539Y-86689692D01*
X127685151Y-87646304D01*
X127690788Y-87652322D01*
X127733494Y-87701019D01*
X127738029Y-87704594D01*
X127738030Y-87704595D01*
X127802982Y-87755798D01*
X127805501Y-87757838D01*
X127818473Y-87768627D01*
X127858057Y-87827562D01*
X127859494Y-87898544D01*
X127822327Y-87959035D01*
X127758356Y-87989829D01*
X127737904Y-87991500D01*
X104400142Y-87991500D01*
X104332021Y-87971498D01*
X104285528Y-87917842D01*
X104275424Y-87847568D01*
X104304918Y-87782988D01*
X104335816Y-87757157D01*
X104339999Y-87754674D01*
X104345659Y-87750884D01*
X104626732Y-87539849D01*
X104631958Y-87535464D01*
X104641613Y-87526428D01*
X104649682Y-87512750D01*
X104649654Y-87512024D01*
X104644512Y-87503723D01*
X102512810Y-85372020D01*
X102498869Y-85364408D01*
X102497034Y-85364539D01*
X102490420Y-85368790D01*
X100356774Y-87502437D01*
X100349160Y-87516381D01*
X100349237Y-87517470D01*
X100351698Y-87521206D01*
X100625632Y-87731404D01*
X100631262Y-87735259D01*
X100668398Y-87757838D01*
X100716213Y-87810319D01*
X100728065Y-87880319D01*
X100700189Y-87945615D01*
X100641438Y-87985474D01*
X100602939Y-87991500D01*
X96134500Y-87991500D01*
X96066379Y-87971498D01*
X96019886Y-87917842D01*
X96008500Y-87865500D01*
X96008500Y-84991832D01*
X99187333Y-84991832D01*
X99205117Y-85342893D01*
X99205827Y-85349649D01*
X99261420Y-85696723D01*
X99262859Y-85703378D01*
X99355608Y-86042410D01*
X99357757Y-86048871D01*
X99486581Y-86375912D01*
X99489412Y-86382095D01*
X99652803Y-86693310D01*
X99656286Y-86699152D01*
X99852330Y-86990896D01*
X99856433Y-86996340D01*
X99976425Y-87138836D01*
X99989164Y-87147279D01*
X99999608Y-87141181D01*
X102127980Y-85012810D01*
X102134357Y-85001131D01*
X102864408Y-85001131D01*
X102864539Y-85002966D01*
X102868790Y-85009580D01*
X104999009Y-87139798D01*
X105012605Y-87147223D01*
X105022218Y-87140522D01*
X105122518Y-87023912D01*
X105126676Y-87018514D01*
X105325762Y-86728840D01*
X105329310Y-86723029D01*
X105495942Y-86413559D01*
X105498849Y-86407381D01*
X105631090Y-86081713D01*
X105633304Y-86075283D01*
X105729598Y-85737237D01*
X105731105Y-85730607D01*
X105790332Y-85384118D01*
X105791112Y-85377378D01*
X105812668Y-85024925D01*
X105812784Y-85021323D01*
X105812853Y-85001819D01*
X105812761Y-84998194D01*
X105793666Y-84645615D01*
X105792931Y-84638849D01*
X105736130Y-84291985D01*
X105734663Y-84285313D01*
X105640736Y-83946627D01*
X105638562Y-83940163D01*
X105508598Y-83613578D01*
X105505742Y-83607398D01*
X105341269Y-83296763D01*
X105337769Y-83290937D01*
X105140697Y-82999862D01*
X105136590Y-82994453D01*
X105023565Y-82861179D01*
X105010740Y-82852743D01*
X105000416Y-82858795D01*
X102872020Y-84987190D01*
X102864408Y-85001131D01*
X102134357Y-85001131D01*
X102135592Y-84998869D01*
X102135461Y-84997034D01*
X102131210Y-84990420D01*
X100000992Y-82860203D01*
X99987455Y-82852811D01*
X99977753Y-82859599D01*
X99870430Y-82985257D01*
X99866296Y-82990664D01*
X99668215Y-83281041D01*
X99664697Y-83286851D01*
X99499134Y-83596922D01*
X99496259Y-83603087D01*
X99365155Y-83929218D01*
X99362962Y-83935658D01*
X99267846Y-84274044D01*
X99266363Y-84280679D01*
X99208350Y-84627354D01*
X99207591Y-84634126D01*
X99187357Y-84985037D01*
X99187333Y-84991832D01*
X96008500Y-84991832D01*
X96008500Y-82486862D01*
X100349950Y-82486862D01*
X100349986Y-82487704D01*
X100355037Y-82495826D01*
X102487190Y-84627980D01*
X102501131Y-84635592D01*
X102502966Y-84635461D01*
X102509580Y-84631210D01*
X104642798Y-82497991D01*
X104650412Y-82484047D01*
X104650344Y-82483089D01*
X104645836Y-82476272D01*
X104644418Y-82475065D01*
X104364813Y-82262064D01*
X104359187Y-82258240D01*
X104298241Y-82221475D01*
X117051483Y-82221475D01*
X117070472Y-82438519D01*
X117072375Y-82449312D01*
X117128764Y-82659761D01*
X117132510Y-82670053D01*
X117224586Y-82867511D01*
X117230069Y-82877006D01*
X117266509Y-82929048D01*
X117276988Y-82937424D01*
X117290434Y-82930356D01*
X117991978Y-82228812D01*
X117999592Y-82214868D01*
X117999461Y-82213035D01*
X117995210Y-82206420D01*
X117289713Y-81500923D01*
X117277938Y-81494493D01*
X117265923Y-81503789D01*
X117230069Y-81554994D01*
X117224586Y-81564489D01*
X117132510Y-81761947D01*
X117128764Y-81772239D01*
X117072375Y-81982688D01*
X117070472Y-81993481D01*
X117051483Y-82210525D01*
X117051483Y-82221475D01*
X104298241Y-82221475D01*
X104058214Y-82076681D01*
X104052202Y-82073484D01*
X103733370Y-81925487D01*
X103727070Y-81922967D01*
X103394129Y-81810273D01*
X103387551Y-81808437D01*
X103044417Y-81732367D01*
X103037678Y-81731251D01*
X102688310Y-81692680D01*
X102681529Y-81692301D01*
X102330015Y-81691687D01*
X102323242Y-81692042D01*
X101973720Y-81729395D01*
X101967010Y-81730482D01*
X101623586Y-81805361D01*
X101617011Y-81807172D01*
X101283683Y-81918702D01*
X101277361Y-81921205D01*
X100958034Y-82068079D01*
X100951991Y-82071265D01*
X100650401Y-82251763D01*
X100644755Y-82255571D01*
X100364408Y-82467596D01*
X100359211Y-82471987D01*
X100357972Y-82473155D01*
X100349950Y-82486862D01*
X96008500Y-82486862D01*
X96008500Y-81176062D01*
X110530493Y-81176062D01*
X110539789Y-81188077D01*
X110590994Y-81223931D01*
X110600489Y-81229414D01*
X110797947Y-81321490D01*
X110808239Y-81325236D01*
X111018688Y-81381625D01*
X111029481Y-81383528D01*
X111246525Y-81402517D01*
X111257475Y-81402517D01*
X111474519Y-81383528D01*
X111485312Y-81381625D01*
X111695761Y-81325236D01*
X111706053Y-81321490D01*
X111903511Y-81229414D01*
X111913006Y-81223931D01*
X111965048Y-81187491D01*
X111973424Y-81177012D01*
X111966356Y-81163566D01*
X111931778Y-81128988D01*
X117642576Y-81128988D01*
X117649644Y-81142434D01*
X118351188Y-81843978D01*
X118365132Y-81851592D01*
X118366965Y-81851461D01*
X118373580Y-81847210D01*
X119079077Y-81141713D01*
X119085507Y-81129938D01*
X119076211Y-81117923D01*
X119025006Y-81082069D01*
X119015511Y-81076586D01*
X118818053Y-80984510D01*
X118807761Y-80980764D01*
X118597312Y-80924375D01*
X118586519Y-80922472D01*
X118369475Y-80903483D01*
X118358525Y-80903483D01*
X118141481Y-80922472D01*
X118130688Y-80924375D01*
X117920239Y-80980764D01*
X117909947Y-80984510D01*
X117712489Y-81076586D01*
X117702994Y-81082069D01*
X117650952Y-81118509D01*
X117642576Y-81128988D01*
X111931778Y-81128988D01*
X111264812Y-80462022D01*
X111250868Y-80454408D01*
X111249035Y-80454539D01*
X111242420Y-80458790D01*
X110536923Y-81164287D01*
X110530493Y-81176062D01*
X96008500Y-81176062D01*
X96008500Y-80095475D01*
X109939483Y-80095475D01*
X109958472Y-80312519D01*
X109960375Y-80323312D01*
X110016764Y-80533761D01*
X110020510Y-80544053D01*
X110112586Y-80741511D01*
X110118069Y-80751006D01*
X110154509Y-80803048D01*
X110164988Y-80811424D01*
X110178434Y-80804356D01*
X110879978Y-80102812D01*
X110886356Y-80091132D01*
X111616408Y-80091132D01*
X111616539Y-80092965D01*
X111620790Y-80099580D01*
X112326287Y-80805077D01*
X112338062Y-80811507D01*
X112350077Y-80802211D01*
X112385931Y-80751006D01*
X112391414Y-80741511D01*
X112483490Y-80544053D01*
X112487236Y-80533761D01*
X112543625Y-80323312D01*
X112545528Y-80312519D01*
X112564517Y-80095475D01*
X112564517Y-80084525D01*
X112545528Y-79867481D01*
X112543625Y-79856688D01*
X112487236Y-79646239D01*
X112483490Y-79635947D01*
X112391414Y-79438489D01*
X112385931Y-79428994D01*
X112349491Y-79376952D01*
X112339012Y-79368576D01*
X112325566Y-79375644D01*
X111624022Y-80077188D01*
X111616408Y-80091132D01*
X110886356Y-80091132D01*
X110887592Y-80088868D01*
X110887461Y-80087035D01*
X110883210Y-80080420D01*
X110177713Y-79374923D01*
X110165938Y-79368493D01*
X110153923Y-79377789D01*
X110118069Y-79428994D01*
X110112586Y-79438489D01*
X110020510Y-79635947D01*
X110016764Y-79646239D01*
X109960375Y-79856688D01*
X109958472Y-79867481D01*
X109939483Y-80084525D01*
X109939483Y-80095475D01*
X96008500Y-80095475D01*
X96008500Y-79024062D01*
X100878493Y-79024062D01*
X100887789Y-79036077D01*
X100938994Y-79071931D01*
X100948489Y-79077414D01*
X101145947Y-79169490D01*
X101156239Y-79173236D01*
X101366688Y-79229625D01*
X101377481Y-79231528D01*
X101594525Y-79250517D01*
X101605475Y-79250517D01*
X101822519Y-79231528D01*
X101833312Y-79229625D01*
X102043761Y-79173236D01*
X102054053Y-79169490D01*
X102251511Y-79077414D01*
X102261006Y-79071931D01*
X102313048Y-79035491D01*
X102321424Y-79025012D01*
X102314356Y-79011566D01*
X102305778Y-79002988D01*
X110530576Y-79002988D01*
X110537644Y-79016434D01*
X111239188Y-79717978D01*
X111253132Y-79725592D01*
X111254965Y-79725461D01*
X111261580Y-79721210D01*
X111967077Y-79015713D01*
X111973507Y-79003938D01*
X111964211Y-78991923D01*
X111913006Y-78956069D01*
X111903511Y-78950586D01*
X111706053Y-78858510D01*
X111695761Y-78854764D01*
X111485312Y-78798375D01*
X111474519Y-78796472D01*
X111257475Y-78777483D01*
X111246525Y-78777483D01*
X111029481Y-78796472D01*
X111018688Y-78798375D01*
X110808239Y-78854764D01*
X110797947Y-78858510D01*
X110600489Y-78950586D01*
X110590994Y-78956069D01*
X110538952Y-78992509D01*
X110530576Y-79002988D01*
X102305778Y-79002988D01*
X101612812Y-78310022D01*
X101598868Y-78302408D01*
X101597035Y-78302539D01*
X101590420Y-78306790D01*
X100884923Y-79012287D01*
X100878493Y-79024062D01*
X96008500Y-79024062D01*
X96008500Y-77943475D01*
X100287483Y-77943475D01*
X100306472Y-78160519D01*
X100308375Y-78171312D01*
X100364764Y-78381761D01*
X100368510Y-78392053D01*
X100460586Y-78589511D01*
X100466069Y-78599006D01*
X100502509Y-78651048D01*
X100512988Y-78659424D01*
X100526434Y-78652356D01*
X101227978Y-77950812D01*
X101234356Y-77939132D01*
X101964408Y-77939132D01*
X101964539Y-77940965D01*
X101968790Y-77947580D01*
X102674287Y-78653077D01*
X102686062Y-78659507D01*
X102698077Y-78650211D01*
X102733931Y-78599006D01*
X102739414Y-78589511D01*
X102831490Y-78392053D01*
X102835236Y-78381761D01*
X102891625Y-78171312D01*
X102893528Y-78160519D01*
X102912517Y-77943475D01*
X102912517Y-77932525D01*
X102893528Y-77715481D01*
X102891625Y-77704688D01*
X102835236Y-77494239D01*
X102831490Y-77483947D01*
X102739414Y-77286489D01*
X102733931Y-77276994D01*
X102697491Y-77224952D01*
X102687012Y-77216576D01*
X102673566Y-77223644D01*
X101972022Y-77925188D01*
X101964408Y-77939132D01*
X101234356Y-77939132D01*
X101235592Y-77936868D01*
X101235461Y-77935035D01*
X101231210Y-77928420D01*
X100525713Y-77222923D01*
X100513938Y-77216493D01*
X100501923Y-77225789D01*
X100466069Y-77276994D01*
X100460586Y-77286489D01*
X100368510Y-77483947D01*
X100364764Y-77494239D01*
X100308375Y-77704688D01*
X100306472Y-77715481D01*
X100287483Y-77932525D01*
X100287483Y-77943475D01*
X96008500Y-77943475D01*
X96008500Y-71120000D01*
X98254502Y-71120000D01*
X98274457Y-71348087D01*
X98275881Y-71353400D01*
X98275881Y-71353402D01*
X98321751Y-71524588D01*
X98333716Y-71569243D01*
X98336039Y-71574224D01*
X98336039Y-71574225D01*
X98428151Y-71771762D01*
X98428154Y-71771767D01*
X98430477Y-71776749D01*
X98480668Y-71848429D01*
X98522165Y-71907692D01*
X98561802Y-71964300D01*
X98723700Y-72126198D01*
X98728208Y-72129355D01*
X98728211Y-72129357D01*
X98806389Y-72184098D01*
X98911251Y-72257523D01*
X98916233Y-72259846D01*
X98916238Y-72259849D01*
X99113775Y-72351961D01*
X99118757Y-72354284D01*
X99124065Y-72355706D01*
X99124067Y-72355707D01*
X99334598Y-72412119D01*
X99334600Y-72412119D01*
X99339913Y-72413543D01*
X99568000Y-72433498D01*
X99796087Y-72413543D01*
X99801400Y-72412119D01*
X99801402Y-72412119D01*
X100011933Y-72355707D01*
X100011935Y-72355706D01*
X100017243Y-72354284D01*
X100022225Y-72351961D01*
X100219762Y-72259849D01*
X100219767Y-72259846D01*
X100224749Y-72257523D01*
X100329611Y-72184098D01*
X100407789Y-72129357D01*
X100407792Y-72129355D01*
X100412300Y-72126198D01*
X100574198Y-71964300D01*
X100613836Y-71907692D01*
X100655332Y-71848429D01*
X100705523Y-71776749D01*
X100707846Y-71771767D01*
X100707849Y-71771762D01*
X100799961Y-71574225D01*
X100799961Y-71574224D01*
X100802284Y-71569243D01*
X100814250Y-71524588D01*
X100860119Y-71353402D01*
X100860119Y-71353400D01*
X100861543Y-71348087D01*
X100881498Y-71120000D01*
X100861543Y-70891913D01*
X100802284Y-70670757D01*
X100799960Y-70665772D01*
X100723305Y-70501385D01*
X100711500Y-70448135D01*
X100711500Y-69105843D01*
X100731502Y-69037722D01*
X100748405Y-69016748D01*
X101541604Y-68223549D01*
X101603916Y-68189523D01*
X101614689Y-68187665D01*
X101634726Y-68185098D01*
X101634725Y-68185098D01*
X101639847Y-68184442D01*
X101861690Y-68117886D01*
X101882154Y-68107861D01*
X102065049Y-68018262D01*
X102065052Y-68018260D01*
X102069684Y-68015991D01*
X102258243Y-67881494D01*
X102422303Y-67718005D01*
X102557458Y-67529917D01*
X102581495Y-67481283D01*
X102657784Y-67326922D01*
X102657785Y-67326920D01*
X102660078Y-67322280D01*
X102727408Y-67100671D01*
X102757640Y-66871041D01*
X102759327Y-66802000D01*
X102743418Y-66608497D01*
X102740773Y-66576318D01*
X102740772Y-66576312D01*
X102740349Y-66571167D01*
X102683925Y-66346533D01*
X102681866Y-66341797D01*
X102593630Y-66138868D01*
X102593628Y-66138865D01*
X102591570Y-66134131D01*
X102465764Y-65939665D01*
X102375486Y-65840450D01*
X102344434Y-65776605D01*
X102352829Y-65706106D01*
X102398005Y-65651338D01*
X102424449Y-65637669D01*
X102484054Y-65615324D01*
X102499649Y-65606786D01*
X102601724Y-65530285D01*
X102614285Y-65517724D01*
X102690786Y-65415649D01*
X102699324Y-65400054D01*
X102744478Y-65279606D01*
X102748105Y-65264351D01*
X102753631Y-65213486D01*
X102754000Y-65206672D01*
X102754000Y-64534115D01*
X102749525Y-64518876D01*
X102748135Y-64517671D01*
X102740452Y-64516000D01*
X99956116Y-64516000D01*
X99940877Y-64520475D01*
X99939672Y-64521865D01*
X99938001Y-64529548D01*
X99938001Y-65206669D01*
X99938371Y-65213490D01*
X99943895Y-65264352D01*
X99947521Y-65279604D01*
X99992676Y-65400054D01*
X100001214Y-65415649D01*
X100077715Y-65517724D01*
X100090276Y-65530285D01*
X100192351Y-65606786D01*
X100207946Y-65615324D01*
X100267540Y-65637665D01*
X100324304Y-65680307D01*
X100349004Y-65746868D01*
X100333796Y-65816217D01*
X100314404Y-65842698D01*
X100247639Y-65912564D01*
X100244725Y-65916836D01*
X100244724Y-65916837D01*
X100229152Y-65939665D01*
X100117119Y-66103899D01*
X100019602Y-66313981D01*
X99957707Y-66537169D01*
X99957159Y-66542301D01*
X99957023Y-66543012D01*
X99922350Y-66608497D01*
X98789696Y-67741151D01*
X98783678Y-67746788D01*
X98734981Y-67789494D01*
X98731406Y-67794029D01*
X98731405Y-67794030D01*
X98680202Y-67858982D01*
X98678124Y-67861547D01*
X98625266Y-67925100D01*
X98625262Y-67925105D01*
X98621574Y-67929540D01*
X98618755Y-67934574D01*
X98616686Y-67937584D01*
X98610492Y-67946854D01*
X98608449Y-67949999D01*
X98604872Y-67954537D01*
X98602184Y-67959645D01*
X98602182Y-67959649D01*
X98563688Y-68032816D01*
X98562118Y-68035706D01*
X98518885Y-68112904D01*
X98517028Y-68118376D01*
X98515514Y-68121776D01*
X98511127Y-68131987D01*
X98509705Y-68135421D01*
X98507018Y-68140527D01*
X98505306Y-68146041D01*
X98505305Y-68146043D01*
X98480788Y-68224999D01*
X98479769Y-68228135D01*
X98451331Y-68311912D01*
X98450502Y-68317625D01*
X98449659Y-68321138D01*
X98447167Y-68332151D01*
X98446409Y-68335718D01*
X98444696Y-68341234D01*
X98444018Y-68346962D01*
X98444017Y-68346967D01*
X98434297Y-68429098D01*
X98433870Y-68432340D01*
X98421175Y-68519897D01*
X98421402Y-68525665D01*
X98424403Y-68602054D01*
X98424500Y-68607001D01*
X98424500Y-70448135D01*
X98412695Y-70501385D01*
X98336041Y-70665772D01*
X98333716Y-70670757D01*
X98274457Y-70891913D01*
X98254502Y-71120000D01*
X96008500Y-71120000D01*
X96008500Y-63989885D01*
X99938000Y-63989885D01*
X99942475Y-64005124D01*
X99943865Y-64006329D01*
X99951548Y-64008000D01*
X101073885Y-64008000D01*
X101089124Y-64003525D01*
X101090329Y-64002135D01*
X101092000Y-63994452D01*
X101092000Y-63989885D01*
X101600000Y-63989885D01*
X101604475Y-64005124D01*
X101605865Y-64006329D01*
X101613548Y-64008000D01*
X102735884Y-64008000D01*
X102751123Y-64003525D01*
X102752328Y-64002135D01*
X102753999Y-63994452D01*
X102753999Y-63317331D01*
X102753629Y-63310510D01*
X102748105Y-63259648D01*
X102744479Y-63244396D01*
X102699324Y-63123946D01*
X102690786Y-63108351D01*
X102614285Y-63006276D01*
X102601724Y-62993715D01*
X102499649Y-62917214D01*
X102484054Y-62908676D01*
X102363606Y-62863522D01*
X102348351Y-62859895D01*
X102297486Y-62854369D01*
X102290672Y-62854000D01*
X101618115Y-62854000D01*
X101602876Y-62858475D01*
X101601671Y-62859865D01*
X101600000Y-62867548D01*
X101600000Y-63989885D01*
X101092000Y-63989885D01*
X101092000Y-62872116D01*
X101087525Y-62856877D01*
X101086135Y-62855672D01*
X101078452Y-62854001D01*
X100401331Y-62854001D01*
X100394510Y-62854371D01*
X100343648Y-62859895D01*
X100328396Y-62863521D01*
X100207946Y-62908676D01*
X100192351Y-62917214D01*
X100090276Y-62993715D01*
X100077715Y-63006276D01*
X100001214Y-63108351D01*
X99992676Y-63123946D01*
X99947522Y-63244394D01*
X99943895Y-63259649D01*
X99938369Y-63310514D01*
X99938000Y-63317328D01*
X99938000Y-63989885D01*
X96008500Y-63989885D01*
X96008500Y-53736456D01*
X101920000Y-53736456D01*
X101920202Y-53741488D01*
X101934150Y-53914843D01*
X101935762Y-53924796D01*
X101991233Y-54150633D01*
X101994416Y-54160203D01*
X102085280Y-54374265D01*
X102089955Y-54383207D01*
X102213874Y-54579987D01*
X102219914Y-54588060D01*
X102373703Y-54762500D01*
X102380956Y-54769504D01*
X102560654Y-54917110D01*
X102568936Y-54922866D01*
X102769919Y-55039841D01*
X102779024Y-55044203D01*
X102996115Y-55127537D01*
X103005804Y-55130388D01*
X103156264Y-55161821D01*
X103170325Y-55160698D01*
X103174000Y-55150590D01*
X103174000Y-55148590D01*
X103682000Y-55148590D01*
X103686136Y-55162676D01*
X103699114Y-55164725D01*
X103716830Y-55162675D01*
X103726727Y-55160715D01*
X103950494Y-55097396D01*
X103959938Y-55093884D01*
X104170705Y-54995601D01*
X104179471Y-54990622D01*
X104371802Y-54859913D01*
X104379677Y-54853581D01*
X104548626Y-54693814D01*
X104555387Y-54686305D01*
X104696625Y-54501574D01*
X104702089Y-54493095D01*
X104811978Y-54288153D01*
X104816020Y-54278901D01*
X104891727Y-54059029D01*
X104894236Y-54049257D01*
X104934004Y-53819029D01*
X104934859Y-53811157D01*
X104935936Y-53787449D01*
X104936000Y-53784616D01*
X104936000Y-52850115D01*
X104931525Y-52834876D01*
X104930135Y-52833671D01*
X104922452Y-52832000D01*
X103700115Y-52832000D01*
X103684876Y-52836475D01*
X103683671Y-52837865D01*
X103682000Y-52845548D01*
X103682000Y-55148590D01*
X103174000Y-55148590D01*
X103174000Y-52850115D01*
X103169525Y-52834876D01*
X103168135Y-52833671D01*
X103160452Y-52832000D01*
X101938115Y-52832000D01*
X101922876Y-52836475D01*
X101921671Y-52837865D01*
X101920000Y-52845548D01*
X101920000Y-53736456D01*
X96008500Y-53736456D01*
X96008500Y-52305885D01*
X101920000Y-52305885D01*
X101924475Y-52321124D01*
X101925865Y-52322329D01*
X101933548Y-52324000D01*
X103155885Y-52324000D01*
X103171124Y-52319525D01*
X103172329Y-52318135D01*
X103174000Y-52310452D01*
X103174000Y-52305885D01*
X103682000Y-52305885D01*
X103686475Y-52321124D01*
X103687865Y-52322329D01*
X103695548Y-52324000D01*
X104917885Y-52324000D01*
X104933124Y-52319525D01*
X104934329Y-52318135D01*
X104936000Y-52310452D01*
X104936000Y-51419544D01*
X104935798Y-51414512D01*
X104921850Y-51241157D01*
X104920238Y-51231204D01*
X104864767Y-51005367D01*
X104861584Y-50995797D01*
X104770720Y-50781735D01*
X104766045Y-50772793D01*
X104642126Y-50576013D01*
X104636086Y-50567940D01*
X104482297Y-50393500D01*
X104475044Y-50386496D01*
X104295346Y-50238890D01*
X104287064Y-50233134D01*
X104086081Y-50116159D01*
X104076976Y-50111797D01*
X103859885Y-50028463D01*
X103850196Y-50025612D01*
X103699736Y-49994179D01*
X103685675Y-49995302D01*
X103682000Y-50005410D01*
X103682000Y-52305885D01*
X103174000Y-52305885D01*
X103174000Y-50007410D01*
X103169864Y-49993324D01*
X103156886Y-49991275D01*
X103139170Y-49993325D01*
X103129273Y-49995285D01*
X102905506Y-50058604D01*
X102896062Y-50062116D01*
X102685295Y-50160399D01*
X102676529Y-50165378D01*
X102484198Y-50296087D01*
X102476323Y-50302419D01*
X102307374Y-50462186D01*
X102300613Y-50469695D01*
X102159375Y-50654426D01*
X102153911Y-50662905D01*
X102044022Y-50867847D01*
X102039980Y-50877099D01*
X101964273Y-51096971D01*
X101961764Y-51106743D01*
X101921996Y-51336971D01*
X101921141Y-51344843D01*
X101920064Y-51368551D01*
X101920000Y-51371384D01*
X101920000Y-52305885D01*
X96008500Y-52305885D01*
X96008500Y-41368695D01*
X98967251Y-41368695D01*
X98967548Y-41373848D01*
X98967548Y-41373851D01*
X98973011Y-41468590D01*
X98980110Y-41591715D01*
X98981247Y-41596761D01*
X98981248Y-41596767D01*
X99001119Y-41684939D01*
X99029222Y-41809639D01*
X99076263Y-41925487D01*
X99105631Y-41997812D01*
X99113266Y-42016616D01*
X99167201Y-42104629D01*
X99167933Y-42105824D01*
X99186500Y-42171659D01*
X99186500Y-43391195D01*
X99186230Y-43399436D01*
X99181994Y-43464061D01*
X99192399Y-43551973D01*
X99192736Y-43555186D01*
X99200831Y-43643279D01*
X99202399Y-43648839D01*
X99203061Y-43652412D01*
X99205250Y-43663415D01*
X99206018Y-43667028D01*
X99206697Y-43672765D01*
X99232938Y-43757276D01*
X99233854Y-43760373D01*
X99257877Y-43845549D01*
X99260435Y-43850737D01*
X99261760Y-43854188D01*
X99265901Y-43864566D01*
X99267304Y-43867953D01*
X99269018Y-43873473D01*
X99271709Y-43878587D01*
X99271709Y-43878588D01*
X99310198Y-43951745D01*
X99311695Y-43954681D01*
X99350829Y-44034037D01*
X99354287Y-44038668D01*
X99356250Y-44041871D01*
X99362173Y-44051258D01*
X99364182Y-44054351D01*
X99366871Y-44059463D01*
X99421656Y-44128956D01*
X99423627Y-44131526D01*
X99473116Y-44197801D01*
X99473123Y-44197808D01*
X99476573Y-44202429D01*
X99480807Y-44206343D01*
X99480809Y-44206345D01*
X99536973Y-44258262D01*
X99540539Y-44261692D01*
X102285151Y-47006304D01*
X102290788Y-47012322D01*
X102333494Y-47061019D01*
X102338029Y-47064594D01*
X102338030Y-47064595D01*
X102402982Y-47115798D01*
X102405547Y-47117876D01*
X102469100Y-47170734D01*
X102469105Y-47170738D01*
X102473540Y-47174426D01*
X102478574Y-47177245D01*
X102481584Y-47179314D01*
X102490854Y-47185508D01*
X102493999Y-47187551D01*
X102498537Y-47191128D01*
X102503645Y-47193816D01*
X102503649Y-47193818D01*
X102576816Y-47232312D01*
X102579706Y-47233882D01*
X102656904Y-47277115D01*
X102662376Y-47278972D01*
X102665776Y-47280486D01*
X102675987Y-47284873D01*
X102679421Y-47286295D01*
X102684527Y-47288982D01*
X102690041Y-47290694D01*
X102690043Y-47290695D01*
X102768999Y-47315212D01*
X102772135Y-47316231D01*
X102825280Y-47334271D01*
X102855912Y-47344669D01*
X102861625Y-47345498D01*
X102865138Y-47346341D01*
X102876151Y-47348833D01*
X102879718Y-47349591D01*
X102885234Y-47351304D01*
X102890962Y-47351982D01*
X102890967Y-47351983D01*
X102943182Y-47358163D01*
X102973099Y-47361704D01*
X102976322Y-47362128D01*
X103012419Y-47367362D01*
X103058184Y-47373998D01*
X103058189Y-47373998D01*
X103063898Y-47374826D01*
X103146069Y-47371597D01*
X103151017Y-47371500D01*
X105646157Y-47371500D01*
X105714278Y-47391502D01*
X105735252Y-47408405D01*
X108242041Y-49915194D01*
X108276067Y-49977506D01*
X108270928Y-50048519D01*
X108226255Y-50167684D01*
X108219500Y-50229866D01*
X108219500Y-54926134D01*
X108226255Y-54988316D01*
X108277385Y-55124705D01*
X108364739Y-55241261D01*
X108481295Y-55328615D01*
X108617684Y-55379745D01*
X108679866Y-55386500D01*
X109258499Y-55386500D01*
X109326620Y-55406502D01*
X109373113Y-55460158D01*
X109384499Y-55512500D01*
X109384499Y-56427779D01*
X109364497Y-56495900D01*
X109310841Y-56542393D01*
X109240567Y-56552497D01*
X109175987Y-56523003D01*
X109154287Y-56498602D01*
X109110302Y-56433881D01*
X109107456Y-56429693D01*
X108940668Y-56253319D01*
X108936641Y-56250240D01*
X108751846Y-56108953D01*
X108751842Y-56108950D01*
X108747826Y-56105880D01*
X108533891Y-55991169D01*
X108304369Y-55912138D01*
X108205022Y-55894978D01*
X108069074Y-55871496D01*
X108069068Y-55871495D01*
X108065164Y-55870821D01*
X108061203Y-55870641D01*
X108061202Y-55870641D01*
X108037494Y-55869564D01*
X108037475Y-55869564D01*
X108036075Y-55869500D01*
X105666999Y-55869500D01*
X105664491Y-55869702D01*
X105664486Y-55869702D01*
X105491076Y-55883654D01*
X105491071Y-55883655D01*
X105486035Y-55884060D01*
X105481127Y-55885266D01*
X105481124Y-55885266D01*
X105365007Y-55913787D01*
X105250294Y-55941963D01*
X105245642Y-55943938D01*
X105245638Y-55943939D01*
X105134372Y-55991169D01*
X105026844Y-56036812D01*
X105022560Y-56039510D01*
X104825712Y-56163472D01*
X104825709Y-56163474D01*
X104821433Y-56166167D01*
X104792665Y-56191529D01*
X104643142Y-56323350D01*
X104643139Y-56323353D01*
X104639345Y-56326698D01*
X104636135Y-56330606D01*
X104636134Y-56330607D01*
X104500362Y-56495900D01*
X104485266Y-56514278D01*
X104363159Y-56724078D01*
X104361346Y-56728801D01*
X104289486Y-56916005D01*
X104276167Y-56950702D01*
X104275133Y-56955652D01*
X104275132Y-56955655D01*
X104230443Y-57169572D01*
X104226526Y-57188320D01*
X104215514Y-57430817D01*
X104216095Y-57435837D01*
X104216095Y-57435841D01*
X104237668Y-57622284D01*
X104243415Y-57671956D01*
X104244791Y-57676820D01*
X104244792Y-57676823D01*
X104274827Y-57782963D01*
X104309510Y-57905532D01*
X104311644Y-57910108D01*
X104311646Y-57910114D01*
X104368446Y-58031922D01*
X104412099Y-58125536D01*
X104548544Y-58326307D01*
X104715332Y-58502681D01*
X104719358Y-58505759D01*
X104719359Y-58505760D01*
X104904154Y-58647047D01*
X104904158Y-58647050D01*
X104908174Y-58650120D01*
X104912632Y-58652510D01*
X104912633Y-58652511D01*
X104951026Y-58673097D01*
X105122109Y-58764831D01*
X105351631Y-58843862D01*
X105424573Y-58856461D01*
X105586926Y-58884504D01*
X105586932Y-58884505D01*
X105590836Y-58885179D01*
X105594797Y-58885359D01*
X105594798Y-58885359D01*
X105618506Y-58886436D01*
X105618525Y-58886436D01*
X105619925Y-58886500D01*
X107989001Y-58886500D01*
X107991509Y-58886298D01*
X107991514Y-58886298D01*
X108164924Y-58872346D01*
X108164929Y-58872345D01*
X108169965Y-58871940D01*
X108174873Y-58870734D01*
X108174876Y-58870734D01*
X108400792Y-58815244D01*
X108405706Y-58814037D01*
X108410358Y-58812062D01*
X108410362Y-58812061D01*
X108624498Y-58721165D01*
X108629156Y-58719188D01*
X108735037Y-58652511D01*
X108830288Y-58592528D01*
X108830291Y-58592526D01*
X108834567Y-58589833D01*
X108933422Y-58502681D01*
X109012858Y-58432650D01*
X109012861Y-58432647D01*
X109016655Y-58429302D01*
X109161135Y-58253409D01*
X109219829Y-58213466D01*
X109290801Y-58211596D01*
X109351517Y-58248393D01*
X109382701Y-58312175D01*
X109384499Y-58333385D01*
X109384499Y-59346700D01*
X109364497Y-59414821D01*
X109310841Y-59461314D01*
X109291114Y-59468405D01*
X109278757Y-59471716D01*
X109273779Y-59474037D01*
X109273777Y-59474038D01*
X109076238Y-59566151D01*
X109076233Y-59566154D01*
X109071251Y-59568477D01*
X108966389Y-59641902D01*
X108888211Y-59696643D01*
X108888208Y-59696645D01*
X108883700Y-59699802D01*
X108721802Y-59861700D01*
X108590477Y-60049251D01*
X108588154Y-60054233D01*
X108588151Y-60054238D01*
X108539220Y-60159172D01*
X108493716Y-60256757D01*
X108492294Y-60262065D01*
X108492293Y-60262067D01*
X108464917Y-60364234D01*
X108434457Y-60477913D01*
X108414502Y-60706000D01*
X108434457Y-60934087D01*
X108493716Y-61155243D01*
X108496039Y-61160224D01*
X108496039Y-61160225D01*
X108588151Y-61357762D01*
X108588154Y-61357767D01*
X108590477Y-61362749D01*
X108614866Y-61397580D01*
X108693960Y-61510537D01*
X108721802Y-61550300D01*
X108883700Y-61712198D01*
X108888208Y-61715355D01*
X108888211Y-61715357D01*
X108956115Y-61762904D01*
X109071251Y-61843523D01*
X109076233Y-61845846D01*
X109076238Y-61845849D01*
X109273775Y-61937961D01*
X109278757Y-61940284D01*
X109284065Y-61941706D01*
X109284067Y-61941707D01*
X109494598Y-61998119D01*
X109494600Y-61998119D01*
X109499913Y-61999543D01*
X109728000Y-62019498D01*
X109956087Y-61999543D01*
X109961400Y-61998119D01*
X109961402Y-61998119D01*
X110171933Y-61941707D01*
X110171935Y-61941706D01*
X110177243Y-61940284D01*
X110182225Y-61937961D01*
X110379762Y-61845849D01*
X110379767Y-61845846D01*
X110384749Y-61843523D01*
X110499885Y-61762904D01*
X110567789Y-61715357D01*
X110567792Y-61715355D01*
X110572300Y-61712198D01*
X110734198Y-61550300D01*
X110762041Y-61510537D01*
X110841134Y-61397580D01*
X110865523Y-61362749D01*
X110867846Y-61357767D01*
X110867849Y-61357762D01*
X110959959Y-61160228D01*
X110962284Y-61155243D01*
X110977841Y-61097184D01*
X111010453Y-61040700D01*
X111306303Y-60744850D01*
X111312321Y-60739213D01*
X111356679Y-60700312D01*
X111361018Y-60696507D01*
X111415792Y-60627028D01*
X111417852Y-60624484D01*
X111470727Y-60560909D01*
X111470734Y-60560899D01*
X111474424Y-60556462D01*
X111477249Y-60551418D01*
X111479350Y-60548360D01*
X111485551Y-60539080D01*
X111487554Y-60535996D01*
X111491127Y-60531464D01*
X111493811Y-60526363D01*
X111493814Y-60526358D01*
X111532318Y-60453172D01*
X111533893Y-60450272D01*
X111574289Y-60378141D01*
X111574290Y-60378139D01*
X111577113Y-60373098D01*
X111578971Y-60367623D01*
X111580480Y-60364234D01*
X111584888Y-60353975D01*
X111586293Y-60350583D01*
X111588981Y-60345474D01*
X111615213Y-60260995D01*
X111616229Y-60257865D01*
X111642809Y-60179564D01*
X111642809Y-60179562D01*
X111644667Y-60174090D01*
X111645497Y-60168366D01*
X111646364Y-60164754D01*
X111648829Y-60153863D01*
X111649590Y-60150285D01*
X111651303Y-60144767D01*
X111661702Y-60056900D01*
X111662133Y-60053627D01*
X111673996Y-59971817D01*
X111673996Y-59971813D01*
X111674824Y-59966104D01*
X111671596Y-59883947D01*
X111671499Y-59879000D01*
X111671499Y-53420793D01*
X111671769Y-53412552D01*
X111675626Y-53353703D01*
X111676004Y-53347937D01*
X111665604Y-53260073D01*
X111665261Y-53256799D01*
X111657697Y-53174475D01*
X111657697Y-53174473D01*
X111657168Y-53168720D01*
X111655599Y-53163158D01*
X111654940Y-53159600D01*
X111652742Y-53148550D01*
X111651981Y-53144969D01*
X111651302Y-53139233D01*
X111625064Y-53054730D01*
X111624132Y-53051583D01*
X111601691Y-52972013D01*
X111601691Y-52972012D01*
X111600122Y-52966450D01*
X111597566Y-52961268D01*
X111596244Y-52957823D01*
X111592093Y-52947420D01*
X111590694Y-52944041D01*
X111588981Y-52938525D01*
X111547781Y-52860216D01*
X111546283Y-52857276D01*
X111509724Y-52783140D01*
X111509721Y-52783136D01*
X111507170Y-52777962D01*
X111503716Y-52773337D01*
X111501776Y-52770171D01*
X111495837Y-52760758D01*
X111493818Y-52757648D01*
X111491128Y-52752536D01*
X111436343Y-52683042D01*
X111434347Y-52680440D01*
X111384879Y-52614194D01*
X111384879Y-52614193D01*
X111381426Y-52609570D01*
X111359412Y-52589220D01*
X111321039Y-52553749D01*
X111317473Y-52550319D01*
X111273405Y-52506251D01*
X111239379Y-52443939D01*
X111236500Y-52417156D01*
X111236500Y-50229866D01*
X111229745Y-50167684D01*
X111178615Y-50031295D01*
X111091261Y-49914739D01*
X110974705Y-49827385D01*
X110966296Y-49824233D01*
X110966295Y-49824232D01*
X110952395Y-49819021D01*
X110895630Y-49776380D01*
X110871498Y-49715850D01*
X110865607Y-49666082D01*
X110865262Y-49662800D01*
X110857698Y-49580476D01*
X110857698Y-49580474D01*
X110857169Y-49574721D01*
X110855600Y-49569159D01*
X110854941Y-49565601D01*
X110852743Y-49554551D01*
X110851982Y-49550970D01*
X110851303Y-49545234D01*
X110825065Y-49460731D01*
X110824133Y-49457584D01*
X110801692Y-49378014D01*
X110801692Y-49378013D01*
X110800123Y-49372451D01*
X110797567Y-49367269D01*
X110796245Y-49363824D01*
X110792094Y-49353421D01*
X110790695Y-49350042D01*
X110788982Y-49344526D01*
X110747782Y-49266217D01*
X110746284Y-49263277D01*
X110709725Y-49189141D01*
X110709722Y-49189137D01*
X110707171Y-49183963D01*
X110703717Y-49179338D01*
X110701777Y-49176172D01*
X110695838Y-49166759D01*
X110693819Y-49163649D01*
X110691129Y-49158537D01*
X110636344Y-49089043D01*
X110634348Y-49086441D01*
X110584880Y-49020195D01*
X110584880Y-49020194D01*
X110581427Y-49015571D01*
X110521039Y-48959749D01*
X110517474Y-48956320D01*
X107010849Y-45449696D01*
X107005212Y-45443678D01*
X106966316Y-45399326D01*
X106962506Y-45394981D01*
X106893018Y-45340202D01*
X106890453Y-45338124D01*
X106826900Y-45285266D01*
X106826895Y-45285262D01*
X106822460Y-45281574D01*
X106817426Y-45278755D01*
X106814416Y-45276686D01*
X106805146Y-45270492D01*
X106802001Y-45268449D01*
X106797463Y-45264872D01*
X106792355Y-45262184D01*
X106792351Y-45262182D01*
X106719184Y-45223688D01*
X106716284Y-45222113D01*
X106644139Y-45181709D01*
X106644137Y-45181708D01*
X106639096Y-45178885D01*
X106633624Y-45177028D01*
X106630224Y-45175514D01*
X106620013Y-45171127D01*
X106616579Y-45169705D01*
X106611473Y-45167018D01*
X106605959Y-45165306D01*
X106605957Y-45165305D01*
X106527001Y-45140788D01*
X106523865Y-45139769D01*
X106470720Y-45121729D01*
X106440088Y-45111331D01*
X106434375Y-45110502D01*
X106430862Y-45109659D01*
X106419849Y-45107167D01*
X106416282Y-45106409D01*
X106410766Y-45104696D01*
X106405038Y-45104018D01*
X106405033Y-45104017D01*
X106352633Y-45097816D01*
X106322882Y-45094294D01*
X106319660Y-45093870D01*
X106232103Y-45081175D01*
X106149946Y-45084403D01*
X106144999Y-45084500D01*
X103649843Y-45084500D01*
X103581722Y-45064498D01*
X103560748Y-45047595D01*
X101510405Y-42997252D01*
X101476379Y-42934940D01*
X101473500Y-42908157D01*
X101473500Y-42526853D01*
X102109977Y-42526853D01*
X102115258Y-42533907D01*
X102276756Y-42628279D01*
X102286042Y-42632729D01*
X102485001Y-42708703D01*
X102494899Y-42711579D01*
X102703595Y-42754038D01*
X102713823Y-42755257D01*
X102926650Y-42763062D01*
X102936936Y-42762595D01*
X103148185Y-42735534D01*
X103158262Y-42733392D01*
X103362255Y-42672191D01*
X103371842Y-42668433D01*
X103563098Y-42574738D01*
X103571944Y-42569465D01*
X103619247Y-42535723D01*
X103626211Y-42526853D01*
X104649977Y-42526853D01*
X104655258Y-42533907D01*
X104816756Y-42628279D01*
X104826042Y-42632729D01*
X105025001Y-42708703D01*
X105034899Y-42711579D01*
X105243595Y-42754038D01*
X105253823Y-42755257D01*
X105466650Y-42763062D01*
X105476936Y-42762595D01*
X105688185Y-42735534D01*
X105698262Y-42733392D01*
X105902255Y-42672191D01*
X105911842Y-42668433D01*
X106103098Y-42574738D01*
X106111944Y-42569465D01*
X106159247Y-42535723D01*
X106166211Y-42526853D01*
X107189977Y-42526853D01*
X107195258Y-42533907D01*
X107356756Y-42628279D01*
X107366042Y-42632729D01*
X107565001Y-42708703D01*
X107574899Y-42711579D01*
X107783595Y-42754038D01*
X107793823Y-42755257D01*
X108006650Y-42763062D01*
X108016936Y-42762595D01*
X108228185Y-42735534D01*
X108238262Y-42733392D01*
X108442255Y-42672191D01*
X108451842Y-42668433D01*
X108643098Y-42574738D01*
X108651944Y-42569465D01*
X108699247Y-42535723D01*
X108707648Y-42525023D01*
X108700660Y-42511870D01*
X107962812Y-41774022D01*
X107948868Y-41766408D01*
X107947035Y-41766539D01*
X107940420Y-41770790D01*
X107196737Y-42514473D01*
X107189977Y-42526853D01*
X106166211Y-42526853D01*
X106167648Y-42525023D01*
X106160660Y-42511870D01*
X105422812Y-41774022D01*
X105408868Y-41766408D01*
X105407035Y-41766539D01*
X105400420Y-41770790D01*
X104656737Y-42514473D01*
X104649977Y-42526853D01*
X103626211Y-42526853D01*
X103627648Y-42525023D01*
X103620660Y-42511870D01*
X102882812Y-41774022D01*
X102868868Y-41766408D01*
X102867035Y-41766539D01*
X102860420Y-41770790D01*
X102116737Y-42514473D01*
X102109977Y-42526853D01*
X101473500Y-42526853D01*
X101473500Y-42179379D01*
X101494611Y-42113813D01*
X101492773Y-42112708D01*
X101494730Y-42109451D01*
X101496558Y-42107768D01*
X101497172Y-42105860D01*
X101498448Y-42104084D01*
X101499634Y-42104936D01*
X101546960Y-42061362D01*
X101616897Y-42049145D01*
X101682338Y-42076678D01*
X101710166Y-42108512D01*
X101736459Y-42151419D01*
X101746916Y-42160880D01*
X101755694Y-42157096D01*
X102497978Y-41414812D01*
X102504356Y-41403132D01*
X103234408Y-41403132D01*
X103234539Y-41404965D01*
X103238790Y-41411580D01*
X103980474Y-42153264D01*
X103992484Y-42159823D01*
X104004223Y-42150855D01*
X104038022Y-42103819D01*
X104039149Y-42104629D01*
X104086659Y-42060881D01*
X104156596Y-42048661D01*
X104222038Y-42076191D01*
X104249870Y-42108029D01*
X104276459Y-42151419D01*
X104286916Y-42160880D01*
X104295694Y-42157096D01*
X105037978Y-41414812D01*
X105044356Y-41403132D01*
X105774408Y-41403132D01*
X105774539Y-41404965D01*
X105778790Y-41411580D01*
X106520474Y-42153264D01*
X106532484Y-42159823D01*
X106544223Y-42150855D01*
X106578022Y-42103819D01*
X106579149Y-42104629D01*
X106626659Y-42060881D01*
X106696596Y-42048661D01*
X106762038Y-42076191D01*
X106789870Y-42108029D01*
X106816459Y-42151419D01*
X106826916Y-42160880D01*
X106835694Y-42157096D01*
X107577978Y-41414812D01*
X107584356Y-41403132D01*
X108314408Y-41403132D01*
X108314539Y-41404965D01*
X108318790Y-41411580D01*
X109060474Y-42153264D01*
X109072484Y-42159823D01*
X109084223Y-42150855D01*
X109118022Y-42103819D01*
X109119277Y-42104721D01*
X109166391Y-42061355D01*
X109236330Y-42049148D01*
X109301767Y-42076691D01*
X109329580Y-42108513D01*
X109387287Y-42202683D01*
X109387291Y-42202688D01*
X109389987Y-42207088D01*
X109536250Y-42375938D01*
X109708126Y-42518632D01*
X109901000Y-42631338D01*
X110109692Y-42711030D01*
X110114760Y-42712061D01*
X110114763Y-42712062D01*
X110219604Y-42733392D01*
X110328597Y-42755567D01*
X110333772Y-42755757D01*
X110333774Y-42755757D01*
X110546673Y-42763564D01*
X110546677Y-42763564D01*
X110551837Y-42763753D01*
X110556957Y-42763097D01*
X110556959Y-42763097D01*
X110768288Y-42736025D01*
X110768289Y-42736025D01*
X110773416Y-42735368D01*
X110778366Y-42733883D01*
X110982429Y-42672661D01*
X110982434Y-42672659D01*
X110987384Y-42671174D01*
X111187994Y-42572896D01*
X111369860Y-42443173D01*
X111406381Y-42406780D01*
X111495342Y-42318129D01*
X111528096Y-42285489D01*
X111544929Y-42262064D01*
X111655435Y-42108277D01*
X111658453Y-42104077D01*
X111663055Y-42094767D01*
X111755136Y-41908453D01*
X111755137Y-41908451D01*
X111757430Y-41903811D01*
X111822370Y-41690069D01*
X111851529Y-41468590D01*
X111853156Y-41402000D01*
X111834852Y-41179361D01*
X111780431Y-40962702D01*
X111691354Y-40757840D01*
X111653708Y-40699648D01*
X111633500Y-40631208D01*
X111633500Y-40043332D01*
X111653502Y-39975211D01*
X111670327Y-39954314D01*
X111684134Y-39940483D01*
X111689305Y-39935303D01*
X111708520Y-39904131D01*
X111778275Y-39790968D01*
X111778276Y-39790966D01*
X111782115Y-39784738D01*
X111813442Y-39690290D01*
X111835632Y-39623389D01*
X111835632Y-39623387D01*
X111837797Y-39616861D01*
X111848500Y-39512400D01*
X111848500Y-38211600D01*
X111848077Y-38207523D01*
X111838238Y-38112692D01*
X111838237Y-38112688D01*
X111837526Y-38105834D01*
X111833021Y-38092329D01*
X111828975Y-38080202D01*
X121403180Y-38080202D01*
X121405454Y-38091030D01*
X121416918Y-38094000D01*
X123171885Y-38094000D01*
X123187124Y-38089525D01*
X123188329Y-38088135D01*
X123190000Y-38080452D01*
X123190000Y-38075885D01*
X123698000Y-38075885D01*
X123702475Y-38091124D01*
X123703865Y-38092329D01*
X123711548Y-38094000D01*
X125469022Y-38094000D01*
X125483815Y-38089656D01*
X125485203Y-38081800D01*
X125484819Y-38080202D01*
X140199180Y-38080202D01*
X140201454Y-38091030D01*
X140212918Y-38094000D01*
X141967885Y-38094000D01*
X141983124Y-38089525D01*
X141984329Y-38088135D01*
X141986000Y-38080452D01*
X141986000Y-38075885D01*
X142494000Y-38075885D01*
X142498475Y-38091124D01*
X142499865Y-38092329D01*
X142507548Y-38094000D01*
X144265022Y-38094000D01*
X144279815Y-38089656D01*
X144281203Y-38081800D01*
X144280819Y-38080202D01*
X160011180Y-38080202D01*
X160013454Y-38091030D01*
X160024918Y-38094000D01*
X161779885Y-38094000D01*
X161795124Y-38089525D01*
X161796329Y-38088135D01*
X161798000Y-38080452D01*
X161798000Y-38075885D01*
X162306000Y-38075885D01*
X162310475Y-38091124D01*
X162311865Y-38092329D01*
X162319548Y-38094000D01*
X164077022Y-38094000D01*
X164091815Y-38089656D01*
X164093203Y-38081800D01*
X164034883Y-37838877D01*
X164031834Y-37829492D01*
X163935752Y-37597530D01*
X163931271Y-37588736D01*
X163800080Y-37374652D01*
X163794288Y-37366679D01*
X163631216Y-37175748D01*
X163624252Y-37168784D01*
X163433321Y-37005712D01*
X163425348Y-36999920D01*
X163211264Y-36868729D01*
X163202470Y-36864248D01*
X162970508Y-36768166D01*
X162961123Y-36765117D01*
X162716983Y-36706504D01*
X162707236Y-36704961D01*
X162519601Y-36690193D01*
X162514674Y-36690000D01*
X162324115Y-36690000D01*
X162308876Y-36694475D01*
X162307671Y-36695865D01*
X162306000Y-36703548D01*
X162306000Y-38075885D01*
X161798000Y-38075885D01*
X161798000Y-36708115D01*
X161793525Y-36692876D01*
X161792135Y-36691671D01*
X161784452Y-36690000D01*
X161589326Y-36690000D01*
X161584399Y-36690193D01*
X161396764Y-36704961D01*
X161387017Y-36706504D01*
X161142877Y-36765117D01*
X161133492Y-36768166D01*
X160901530Y-36864248D01*
X160892736Y-36868729D01*
X160678652Y-36999920D01*
X160670679Y-37005712D01*
X160479748Y-37168784D01*
X160472784Y-37175748D01*
X160309712Y-37366679D01*
X160303920Y-37374652D01*
X160172729Y-37588736D01*
X160168248Y-37597530D01*
X160072166Y-37829492D01*
X160069117Y-37838877D01*
X160011180Y-38080202D01*
X144280819Y-38080202D01*
X144222883Y-37838877D01*
X144219834Y-37829492D01*
X144123752Y-37597530D01*
X144119271Y-37588736D01*
X143988080Y-37374652D01*
X143982288Y-37366679D01*
X143819216Y-37175748D01*
X143812252Y-37168784D01*
X143621321Y-37005712D01*
X143613348Y-36999920D01*
X143399264Y-36868729D01*
X143390470Y-36864248D01*
X143158508Y-36768166D01*
X143149123Y-36765117D01*
X142904983Y-36706504D01*
X142895236Y-36704961D01*
X142707601Y-36690193D01*
X142702674Y-36690000D01*
X142512115Y-36690000D01*
X142496876Y-36694475D01*
X142495671Y-36695865D01*
X142494000Y-36703548D01*
X142494000Y-38075885D01*
X141986000Y-38075885D01*
X141986000Y-36708115D01*
X141981525Y-36692876D01*
X141980135Y-36691671D01*
X141972452Y-36690000D01*
X141777326Y-36690000D01*
X141772399Y-36690193D01*
X141584764Y-36704961D01*
X141575017Y-36706504D01*
X141330877Y-36765117D01*
X141321492Y-36768166D01*
X141089530Y-36864248D01*
X141080736Y-36868729D01*
X140866652Y-36999920D01*
X140858679Y-37005712D01*
X140667748Y-37168784D01*
X140660784Y-37175748D01*
X140497712Y-37366679D01*
X140491920Y-37374652D01*
X140360729Y-37588736D01*
X140356248Y-37597530D01*
X140260166Y-37829492D01*
X140257117Y-37838877D01*
X140199180Y-38080202D01*
X125484819Y-38080202D01*
X125426883Y-37838877D01*
X125423834Y-37829492D01*
X125327752Y-37597530D01*
X125323271Y-37588736D01*
X125192080Y-37374652D01*
X125186288Y-37366679D01*
X125023216Y-37175748D01*
X125016252Y-37168784D01*
X124825321Y-37005712D01*
X124817348Y-36999920D01*
X124603264Y-36868729D01*
X124594470Y-36864248D01*
X124362508Y-36768166D01*
X124353123Y-36765117D01*
X124108983Y-36706504D01*
X124099236Y-36704961D01*
X123911601Y-36690193D01*
X123906674Y-36690000D01*
X123716115Y-36690000D01*
X123700876Y-36694475D01*
X123699671Y-36695865D01*
X123698000Y-36703548D01*
X123698000Y-38075885D01*
X123190000Y-38075885D01*
X123190000Y-36708115D01*
X123185525Y-36692876D01*
X123184135Y-36691671D01*
X123176452Y-36690000D01*
X122981326Y-36690000D01*
X122976399Y-36690193D01*
X122788764Y-36704961D01*
X122779017Y-36706504D01*
X122534877Y-36765117D01*
X122525492Y-36768166D01*
X122293530Y-36864248D01*
X122284736Y-36868729D01*
X122070652Y-36999920D01*
X122062679Y-37005712D01*
X121871748Y-37168784D01*
X121864784Y-37175748D01*
X121701712Y-37366679D01*
X121695920Y-37374652D01*
X121564729Y-37588736D01*
X121560248Y-37597530D01*
X121464166Y-37829492D01*
X121461117Y-37838877D01*
X121403180Y-38080202D01*
X111828975Y-38080202D01*
X111783868Y-37945002D01*
X111781550Y-37938054D01*
X111688478Y-37787652D01*
X111563303Y-37662695D01*
X111557072Y-37658854D01*
X111418968Y-37573725D01*
X111418966Y-37573724D01*
X111412738Y-37569885D01*
X111252254Y-37516655D01*
X111251389Y-37516368D01*
X111251387Y-37516368D01*
X111244861Y-37514203D01*
X111238025Y-37513503D01*
X111238022Y-37513502D01*
X111194969Y-37509091D01*
X111140400Y-37503500D01*
X109839600Y-37503500D01*
X109836354Y-37503837D01*
X109836350Y-37503837D01*
X109740692Y-37513762D01*
X109740688Y-37513763D01*
X109733834Y-37514474D01*
X109727298Y-37516655D01*
X109727296Y-37516655D01*
X109664631Y-37537562D01*
X109566054Y-37570450D01*
X109415652Y-37663522D01*
X109410479Y-37668704D01*
X109354762Y-37724518D01*
X109290695Y-37788697D01*
X109286855Y-37794927D01*
X109286854Y-37794928D01*
X109243630Y-37865051D01*
X109197885Y-37939262D01*
X109195581Y-37946209D01*
X109173236Y-38013577D01*
X109132806Y-38071937D01*
X109106330Y-38088366D01*
X109062811Y-38108399D01*
X108322022Y-38849188D01*
X108314408Y-38863132D01*
X108314539Y-38864965D01*
X108318790Y-38871580D01*
X109060474Y-39613264D01*
X109100998Y-39635393D01*
X109113589Y-39638132D01*
X109163791Y-39688335D01*
X109172726Y-39708842D01*
X109198450Y-39785946D01*
X109291522Y-39936348D01*
X109296705Y-39941522D01*
X109309519Y-39954314D01*
X109343597Y-40016597D01*
X109346500Y-40043486D01*
X109346500Y-40628584D01*
X109324582Y-40699597D01*
X109322892Y-40702074D01*
X109267977Y-40747072D01*
X109197452Y-40755238D01*
X109133707Y-40723978D01*
X109113018Y-40699501D01*
X109083063Y-40653198D01*
X109072377Y-40643995D01*
X109062812Y-40648398D01*
X108322022Y-41389188D01*
X108314408Y-41403132D01*
X107584356Y-41403132D01*
X107585592Y-41400868D01*
X107585461Y-41399035D01*
X107581210Y-41392420D01*
X106839849Y-40651059D01*
X106828313Y-40644759D01*
X106816028Y-40654384D01*
X106783192Y-40702520D01*
X106728281Y-40747523D01*
X106657756Y-40755694D01*
X106594009Y-40724440D01*
X106573311Y-40699955D01*
X106543062Y-40653197D01*
X106532377Y-40643995D01*
X106522812Y-40648398D01*
X105782022Y-41389188D01*
X105774408Y-41403132D01*
X105044356Y-41403132D01*
X105045592Y-41400868D01*
X105045461Y-41399035D01*
X105041210Y-41392420D01*
X104299849Y-40651059D01*
X104288313Y-40644759D01*
X104276028Y-40654384D01*
X104243192Y-40702520D01*
X104188281Y-40747523D01*
X104117756Y-40755694D01*
X104054009Y-40724440D01*
X104033311Y-40699955D01*
X104003062Y-40653197D01*
X103992377Y-40643995D01*
X103982812Y-40648398D01*
X103242022Y-41389188D01*
X103234408Y-41403132D01*
X102504356Y-41403132D01*
X102505592Y-41400868D01*
X102505461Y-41399035D01*
X102501210Y-41392420D01*
X101759849Y-40651059D01*
X101748313Y-40644759D01*
X101736031Y-40654382D01*
X101703589Y-40701940D01*
X101648677Y-40746943D01*
X101578153Y-40755114D01*
X101514406Y-40723860D01*
X101477675Y-40663103D01*
X101473500Y-40630936D01*
X101473500Y-39986853D01*
X102109977Y-39986853D01*
X102115258Y-39993907D01*
X102162479Y-40021501D01*
X102211203Y-40073139D01*
X102224274Y-40142922D01*
X102197543Y-40208694D01*
X102157087Y-40242053D01*
X102148466Y-40246541D01*
X102139734Y-40252039D01*
X102119677Y-40267099D01*
X102111223Y-40278427D01*
X102117968Y-40290758D01*
X102857188Y-41029978D01*
X102871132Y-41037592D01*
X102872965Y-41037461D01*
X102879580Y-41033210D01*
X103623389Y-40289401D01*
X103630410Y-40276544D01*
X103623611Y-40267213D01*
X103619559Y-40264521D01*
X103582116Y-40243852D01*
X103532145Y-40193420D01*
X103517373Y-40123977D01*
X103542489Y-40057572D01*
X103569840Y-40030965D01*
X103619247Y-39995723D01*
X103626211Y-39986853D01*
X104649977Y-39986853D01*
X104655258Y-39993907D01*
X104702479Y-40021501D01*
X104751203Y-40073139D01*
X104764274Y-40142922D01*
X104737543Y-40208694D01*
X104697087Y-40242053D01*
X104688466Y-40246541D01*
X104679734Y-40252039D01*
X104659677Y-40267099D01*
X104651223Y-40278427D01*
X104657968Y-40290758D01*
X105397188Y-41029978D01*
X105411132Y-41037592D01*
X105412965Y-41037461D01*
X105419580Y-41033210D01*
X106163389Y-40289401D01*
X106170410Y-40276544D01*
X106163611Y-40267213D01*
X106159559Y-40264521D01*
X106122116Y-40243852D01*
X106072145Y-40193420D01*
X106057373Y-40123977D01*
X106082489Y-40057572D01*
X106109840Y-40030965D01*
X106159247Y-39995723D01*
X106166211Y-39986853D01*
X107189977Y-39986853D01*
X107195258Y-39993907D01*
X107242479Y-40021501D01*
X107291203Y-40073139D01*
X107304274Y-40142922D01*
X107277543Y-40208694D01*
X107237087Y-40242053D01*
X107228466Y-40246541D01*
X107219734Y-40252039D01*
X107199677Y-40267099D01*
X107191223Y-40278427D01*
X107197968Y-40290758D01*
X107937188Y-41029978D01*
X107951132Y-41037592D01*
X107952965Y-41037461D01*
X107959580Y-41033210D01*
X108703389Y-40289401D01*
X108710410Y-40276544D01*
X108703611Y-40267213D01*
X108699559Y-40264521D01*
X108662116Y-40243852D01*
X108612145Y-40193420D01*
X108597373Y-40123977D01*
X108622489Y-40057572D01*
X108649840Y-40030965D01*
X108699247Y-39995723D01*
X108707648Y-39985023D01*
X108700660Y-39971870D01*
X107962812Y-39234022D01*
X107948868Y-39226408D01*
X107947035Y-39226539D01*
X107940420Y-39230790D01*
X107196737Y-39974473D01*
X107189977Y-39986853D01*
X106166211Y-39986853D01*
X106167648Y-39985023D01*
X106160660Y-39971870D01*
X105422812Y-39234022D01*
X105408868Y-39226408D01*
X105407035Y-39226539D01*
X105400420Y-39230790D01*
X104656737Y-39974473D01*
X104649977Y-39986853D01*
X103626211Y-39986853D01*
X103627648Y-39985023D01*
X103620660Y-39971870D01*
X102882812Y-39234022D01*
X102868868Y-39226408D01*
X102867035Y-39226539D01*
X102860420Y-39230790D01*
X102116737Y-39974473D01*
X102109977Y-39986853D01*
X101473500Y-39986853D01*
X101473500Y-39639379D01*
X101494611Y-39573813D01*
X101492773Y-39572708D01*
X101494730Y-39569451D01*
X101496558Y-39567768D01*
X101497172Y-39565860D01*
X101498448Y-39564084D01*
X101499634Y-39564936D01*
X101546960Y-39521362D01*
X101616897Y-39509145D01*
X101682338Y-39536678D01*
X101710166Y-39568512D01*
X101736459Y-39611419D01*
X101746916Y-39620880D01*
X101755694Y-39617096D01*
X102497978Y-38874812D01*
X102504356Y-38863132D01*
X103234408Y-38863132D01*
X103234539Y-38864965D01*
X103238790Y-38871580D01*
X103980474Y-39613264D01*
X103992484Y-39619823D01*
X104004223Y-39610855D01*
X104038022Y-39563819D01*
X104039149Y-39564629D01*
X104086659Y-39520881D01*
X104156596Y-39508661D01*
X104222038Y-39536191D01*
X104249870Y-39568029D01*
X104276459Y-39611419D01*
X104286916Y-39620880D01*
X104295694Y-39617096D01*
X105037978Y-38874812D01*
X105044356Y-38863132D01*
X105774408Y-38863132D01*
X105774539Y-38864965D01*
X105778790Y-38871580D01*
X106520474Y-39613264D01*
X106532484Y-39619823D01*
X106544223Y-39610855D01*
X106578022Y-39563819D01*
X106579149Y-39564629D01*
X106626659Y-39520881D01*
X106696596Y-39508661D01*
X106762038Y-39536191D01*
X106789870Y-39568029D01*
X106816459Y-39611419D01*
X106826916Y-39620880D01*
X106835694Y-39617096D01*
X107577978Y-38874812D01*
X107585592Y-38860868D01*
X107585461Y-38859035D01*
X107581210Y-38852420D01*
X106839849Y-38111059D01*
X106828313Y-38104759D01*
X106816028Y-38114384D01*
X106783192Y-38162520D01*
X106728281Y-38207523D01*
X106657756Y-38215694D01*
X106594009Y-38184440D01*
X106573311Y-38159955D01*
X106543062Y-38113197D01*
X106532377Y-38103995D01*
X106522812Y-38108398D01*
X105782022Y-38849188D01*
X105774408Y-38863132D01*
X105044356Y-38863132D01*
X105045592Y-38860868D01*
X105045461Y-38859035D01*
X105041210Y-38852420D01*
X104299849Y-38111059D01*
X104288313Y-38104759D01*
X104276028Y-38114384D01*
X104243192Y-38162520D01*
X104188281Y-38207523D01*
X104117756Y-38215694D01*
X104054009Y-38184440D01*
X104033311Y-38159955D01*
X104003062Y-38113197D01*
X103992377Y-38103995D01*
X103982812Y-38108398D01*
X103242022Y-38849188D01*
X103234408Y-38863132D01*
X102504356Y-38863132D01*
X102505592Y-38860868D01*
X102505461Y-38859035D01*
X102501210Y-38852420D01*
X101759849Y-38111059D01*
X101748313Y-38104759D01*
X101736031Y-38114382D01*
X101703499Y-38162072D01*
X101648587Y-38207075D01*
X101578063Y-38215246D01*
X101514316Y-38183992D01*
X101493618Y-38159508D01*
X101412822Y-38034617D01*
X101412820Y-38034614D01*
X101410014Y-38030277D01*
X101259670Y-37865051D01*
X101255619Y-37861852D01*
X101255615Y-37861848D01*
X101099338Y-37738427D01*
X102111223Y-37738427D01*
X102117968Y-37750758D01*
X102857188Y-38489978D01*
X102871132Y-38497592D01*
X102872965Y-38497461D01*
X102879580Y-38493210D01*
X103623389Y-37749401D01*
X103629382Y-37738427D01*
X104651223Y-37738427D01*
X104657968Y-37750758D01*
X105397188Y-38489978D01*
X105411132Y-38497592D01*
X105412965Y-38497461D01*
X105419580Y-38493210D01*
X106163389Y-37749401D01*
X106169382Y-37738427D01*
X107191223Y-37738427D01*
X107197968Y-37750758D01*
X107937188Y-38489978D01*
X107951132Y-38497592D01*
X107952965Y-38497461D01*
X107959580Y-38493210D01*
X108703389Y-37749401D01*
X108710410Y-37736544D01*
X108703611Y-37727213D01*
X108699554Y-37724518D01*
X108513117Y-37621599D01*
X108503705Y-37617369D01*
X108302959Y-37546280D01*
X108292989Y-37543646D01*
X108083327Y-37506301D01*
X108073073Y-37505331D01*
X107860116Y-37502728D01*
X107849832Y-37503448D01*
X107639321Y-37535661D01*
X107629293Y-37538050D01*
X107426868Y-37604212D01*
X107417359Y-37608209D01*
X107228466Y-37706540D01*
X107219734Y-37712039D01*
X107199677Y-37727099D01*
X107191223Y-37738427D01*
X106169382Y-37738427D01*
X106170410Y-37736544D01*
X106163611Y-37727213D01*
X106159554Y-37724518D01*
X105973117Y-37621599D01*
X105963705Y-37617369D01*
X105762959Y-37546280D01*
X105752989Y-37543646D01*
X105543327Y-37506301D01*
X105533073Y-37505331D01*
X105320116Y-37502728D01*
X105309832Y-37503448D01*
X105099321Y-37535661D01*
X105089293Y-37538050D01*
X104886868Y-37604212D01*
X104877359Y-37608209D01*
X104688466Y-37706540D01*
X104679734Y-37712039D01*
X104659677Y-37727099D01*
X104651223Y-37738427D01*
X103629382Y-37738427D01*
X103630410Y-37736544D01*
X103623611Y-37727213D01*
X103619554Y-37724518D01*
X103433117Y-37621599D01*
X103423705Y-37617369D01*
X103222959Y-37546280D01*
X103212989Y-37543646D01*
X103003327Y-37506301D01*
X102993073Y-37505331D01*
X102780116Y-37502728D01*
X102769832Y-37503448D01*
X102559321Y-37535661D01*
X102549293Y-37538050D01*
X102346868Y-37604212D01*
X102337359Y-37608209D01*
X102148466Y-37706540D01*
X102139734Y-37712039D01*
X102119677Y-37727099D01*
X102111223Y-37738427D01*
X101099338Y-37738427D01*
X101088414Y-37729800D01*
X101088410Y-37729798D01*
X101084359Y-37726598D01*
X100888789Y-37618638D01*
X100883920Y-37616914D01*
X100883916Y-37616912D01*
X100683087Y-37545795D01*
X100683083Y-37545794D01*
X100678212Y-37544069D01*
X100673119Y-37543162D01*
X100673116Y-37543161D01*
X100463373Y-37505800D01*
X100463367Y-37505799D01*
X100458284Y-37504894D01*
X100384452Y-37503992D01*
X100240081Y-37502228D01*
X100240079Y-37502228D01*
X100234911Y-37502165D01*
X100014091Y-37535955D01*
X99801756Y-37605357D01*
X99723455Y-37646118D01*
X99681678Y-37667866D01*
X99603607Y-37708507D01*
X99599474Y-37711610D01*
X99599471Y-37711612D01*
X99429970Y-37838877D01*
X99424965Y-37842635D01*
X99421393Y-37846373D01*
X99338580Y-37933032D01*
X99270629Y-38004138D01*
X99267715Y-38008410D01*
X99267714Y-38008411D01*
X99218742Y-38080202D01*
X99144743Y-38188680D01*
X99050688Y-38391305D01*
X98990989Y-38606570D01*
X98967251Y-38828695D01*
X98967548Y-38833848D01*
X98967548Y-38833851D01*
X98969910Y-38874812D01*
X98980110Y-39051715D01*
X98981247Y-39056761D01*
X98981248Y-39056767D01*
X99002275Y-39150069D01*
X99029222Y-39269639D01*
X99113266Y-39476616D01*
X99167201Y-39564629D01*
X99167933Y-39565824D01*
X99186500Y-39631659D01*
X99186500Y-40628584D01*
X99164588Y-40699588D01*
X99152818Y-40716843D01*
X99147951Y-40723978D01*
X99144743Y-40728680D01*
X99050688Y-40931305D01*
X98990989Y-41146570D01*
X98967251Y-41368695D01*
X96008500Y-41368695D01*
X96008500Y-35134500D01*
X96028502Y-35066379D01*
X96082158Y-35019886D01*
X96134500Y-35008500D01*
X169865500Y-35008500D01*
X169933621Y-35028502D01*
G37*
%TD.AperFunction*%
%TA.AperFunction,Conductor*%
G36*
X138220032Y-78893287D02*
G01*
X138265095Y-78922248D01*
X141147151Y-81804304D01*
X141152788Y-81810322D01*
X141195494Y-81859019D01*
X141200029Y-81862594D01*
X141200030Y-81862595D01*
X141264982Y-81913798D01*
X141267547Y-81915876D01*
X141331100Y-81968734D01*
X141331105Y-81968738D01*
X141335540Y-81972426D01*
X141340574Y-81975245D01*
X141343584Y-81977314D01*
X141352854Y-81983508D01*
X141355999Y-81985551D01*
X141360537Y-81989128D01*
X141365645Y-81991816D01*
X141365649Y-81991818D01*
X141438816Y-82030312D01*
X141441706Y-82031882D01*
X141518904Y-82075115D01*
X141524376Y-82076972D01*
X141527776Y-82078486D01*
X141537987Y-82082873D01*
X141541421Y-82084295D01*
X141546527Y-82086982D01*
X141552041Y-82088694D01*
X141552043Y-82088695D01*
X141630999Y-82113212D01*
X141634135Y-82114231D01*
X141687280Y-82132271D01*
X141717912Y-82142669D01*
X141723625Y-82143498D01*
X141727138Y-82144341D01*
X141738151Y-82146833D01*
X141741718Y-82147591D01*
X141747234Y-82149304D01*
X141752962Y-82149982D01*
X141752967Y-82149983D01*
X141805182Y-82156163D01*
X141835099Y-82159704D01*
X141838322Y-82160128D01*
X141874419Y-82165362D01*
X141920184Y-82171998D01*
X141920189Y-82171998D01*
X141925898Y-82172826D01*
X142008069Y-82169597D01*
X142013017Y-82169500D01*
X142984157Y-82169500D01*
X143052278Y-82189502D01*
X143073252Y-82206405D01*
X144615595Y-83748749D01*
X144649621Y-83811061D01*
X144652500Y-83837844D01*
X144652500Y-84164135D01*
X144640690Y-84217395D01*
X144640190Y-84218467D01*
X144593268Y-84271748D01*
X144524989Y-84291203D01*
X144457031Y-84270655D01*
X144411805Y-84218457D01*
X144395849Y-84184238D01*
X144395846Y-84184233D01*
X144393523Y-84179251D01*
X144320098Y-84074389D01*
X144265357Y-83996211D01*
X144265355Y-83996208D01*
X144262198Y-83991700D01*
X144100300Y-83829802D01*
X144095792Y-83826645D01*
X144095789Y-83826643D01*
X144017611Y-83771902D01*
X143912749Y-83698477D01*
X143907767Y-83696154D01*
X143907762Y-83696151D01*
X143710225Y-83604039D01*
X143710224Y-83604039D01*
X143705243Y-83601716D01*
X143699935Y-83600294D01*
X143699933Y-83600293D01*
X143489402Y-83543881D01*
X143489400Y-83543881D01*
X143484087Y-83542457D01*
X143256000Y-83522502D01*
X143027913Y-83542457D01*
X143022600Y-83543881D01*
X143022598Y-83543881D01*
X142812067Y-83600293D01*
X142812065Y-83600294D01*
X142806757Y-83601716D01*
X142801776Y-83604039D01*
X142801775Y-83604039D01*
X142604238Y-83696151D01*
X142604233Y-83696154D01*
X142599251Y-83698477D01*
X142494389Y-83771902D01*
X142416211Y-83826643D01*
X142416208Y-83826645D01*
X142411700Y-83829802D01*
X142249802Y-83991700D01*
X142246645Y-83996208D01*
X142246643Y-83996211D01*
X142191902Y-84074389D01*
X142118477Y-84179251D01*
X142116154Y-84184233D01*
X142116151Y-84184238D01*
X142100195Y-84218457D01*
X142053278Y-84271742D01*
X141985001Y-84291203D01*
X141917041Y-84270661D01*
X141871805Y-84218457D01*
X141855849Y-84184238D01*
X141855846Y-84184233D01*
X141853523Y-84179251D01*
X141780098Y-84074389D01*
X141725357Y-83996211D01*
X141725355Y-83996208D01*
X141722198Y-83991700D01*
X141560300Y-83829802D01*
X141555792Y-83826645D01*
X141555789Y-83826643D01*
X141477611Y-83771902D01*
X141372749Y-83698477D01*
X141367767Y-83696154D01*
X141367762Y-83696151D01*
X141170225Y-83604039D01*
X141170224Y-83604039D01*
X141165243Y-83601716D01*
X141159935Y-83600294D01*
X141159933Y-83600293D01*
X140949402Y-83543881D01*
X140949400Y-83543881D01*
X140944087Y-83542457D01*
X140716000Y-83522502D01*
X140487913Y-83542457D01*
X140482600Y-83543881D01*
X140482598Y-83543881D01*
X140272067Y-83600293D01*
X140272065Y-83600294D01*
X140266757Y-83601716D01*
X140261776Y-83604039D01*
X140261775Y-83604039D01*
X140064238Y-83696151D01*
X140064233Y-83696154D01*
X140059251Y-83698477D01*
X139954389Y-83771902D01*
X139876211Y-83826643D01*
X139876208Y-83826645D01*
X139871700Y-83829802D01*
X139709802Y-83991700D01*
X139706643Y-83996211D01*
X139703108Y-84000424D01*
X139702140Y-83999612D01*
X139651506Y-84040090D01*
X139580887Y-84047404D01*
X139517524Y-84015376D01*
X139481536Y-83954177D01*
X139478480Y-83937099D01*
X139478105Y-83933648D01*
X139474479Y-83918396D01*
X139429324Y-83797946D01*
X139420786Y-83782351D01*
X139344285Y-83680276D01*
X139331724Y-83667715D01*
X139229649Y-83591214D01*
X139214054Y-83582676D01*
X139093606Y-83537522D01*
X139078351Y-83533895D01*
X139027486Y-83528369D01*
X139020672Y-83528000D01*
X138448115Y-83528000D01*
X138432876Y-83532475D01*
X138431671Y-83533865D01*
X138430000Y-83541548D01*
X138430000Y-84964000D01*
X138409998Y-85032121D01*
X138356342Y-85078614D01*
X138304000Y-85090000D01*
X136886116Y-85090000D01*
X136870877Y-85094475D01*
X136869672Y-85095865D01*
X136868001Y-85103548D01*
X136868001Y-85598500D01*
X136847999Y-85666621D01*
X136794343Y-85713114D01*
X136742001Y-85724500D01*
X131588843Y-85724500D01*
X131520722Y-85704498D01*
X131474229Y-85650842D01*
X131464125Y-85580568D01*
X131493619Y-85515988D01*
X131499748Y-85509405D01*
X132445268Y-84563885D01*
X136868000Y-84563885D01*
X136872475Y-84579124D01*
X136873865Y-84580329D01*
X136881548Y-84582000D01*
X137903885Y-84582000D01*
X137919124Y-84577525D01*
X137920329Y-84576135D01*
X137922000Y-84568452D01*
X137922000Y-83546116D01*
X137917525Y-83530877D01*
X137916135Y-83529672D01*
X137908452Y-83528001D01*
X137331331Y-83528001D01*
X137324510Y-83528371D01*
X137273648Y-83533895D01*
X137258396Y-83537521D01*
X137137946Y-83582676D01*
X137122351Y-83591214D01*
X137020276Y-83667715D01*
X137007715Y-83680276D01*
X136931214Y-83782351D01*
X136922676Y-83797946D01*
X136877522Y-83918394D01*
X136873895Y-83933649D01*
X136868369Y-83984514D01*
X136868000Y-83991328D01*
X136868000Y-84563885D01*
X132445268Y-84563885D01*
X138086905Y-78922248D01*
X138149217Y-78888222D01*
X138220032Y-78893287D01*
G37*
%TD.AperFunction*%
%TD*%
M02*
