M48
; DRILL file {KiCad (6.0.6-0)} date Wednesday, 02 November 2022 at 10:03:19
; FORMAT={-:-/ absolute / metric / decimal}
; #@! TF.CreationDate,2022-11-02T10:03:19+00:00
; #@! TF.GenerationSoftware,Kicad,Pcbnew,(6.0.6-0)
; #@! TF.FileFunction,MixedPlating,1,2
FMAT,2
METRIC
; #@! TA.AperFunction,Plated,PTH,ComponentDrill
T1C0.600
; #@! TA.AperFunction,Plated,PTH,ComponentDrill
T2C0.800
; #@! TA.AperFunction,Plated,PTH,ComponentDrill
T3C0.900
; #@! TA.AperFunction,Plated,PTH,ComponentDrill
T4C1.000
; #@! TA.AperFunction,Plated,PTH,ComponentDrill
T5C1.100
; #@! TA.AperFunction,Plated,PTH,ComponentDrill
T6C3.200
%
G90
G05
T2
X99.568Y-71.12
X101.6Y-75.438
X101.6Y-77.938
X109.728Y-60.706
X109.728Y-68.326
X109.728Y-71.12
X111.252Y-80.09
X111.252Y-85.09
X114.808Y-74.93
X114.808Y-85.09
X118.364Y-73.66
X118.364Y-77.216
X118.364Y-82.216
X122.438Y-77.216
X122.438Y-84.836
X124.978Y-77.216
X124.978Y-84.836
X127.518Y-77.216
X127.518Y-84.836
X128.524Y-73.66
X130.058Y-77.216
X130.058Y-84.836
X133.096Y-56.388
X133.096Y-61.388
X134.366Y-73.66
X138.176Y-77.216
X138.176Y-84.836
X140.716Y-77.216
X140.716Y-84.836
X143.256Y-77.216
X143.256Y-84.836
X144.526Y-73.66
X145.796Y-77.216
X145.796Y-84.836
X149.86Y-77.216
X149.86Y-82.216
X152.4Y-56.388
X152.4Y-61.388
X160.528Y-74.168
X160.528Y-76.668
T3
X101.346Y-64.262
X101.346Y-66.802
T4
X100.33Y-38.862
X100.33Y-41.402
X102.87Y-38.862
X102.87Y-41.402
X105.41Y-38.862
X105.41Y-41.402
X107.95Y-38.862
X107.95Y-41.402
X110.49Y-38.862
X110.49Y-41.402
X120.944Y-56.0
X123.444Y-56.0
X125.944Y-56.0
X140.248Y-56.0
X142.748Y-56.0
X145.248Y-56.0
X159.552Y-56.0
X162.052Y-56.0
X164.552Y-56.0
T6
X102.5Y-85.0
X132.5Y-45.0
X152.5Y-45.0
T1
G00X123.944Y-38.348
M15
G01X122.944Y-38.348
M16
G05
G00X123.944Y-41.448
M15
G01X122.944Y-41.448
M16
G05
G00X123.944Y-49.748
M15
G01X122.944Y-49.748
M16
G05
G00X142.74Y-38.348
M15
G01X141.74Y-38.348
M16
G05
G00X142.74Y-41.448
M15
G01X141.74Y-41.448
M16
G05
G00X142.74Y-49.748
M15
G01X141.74Y-49.748
M16
G05
G00X162.552Y-38.348
M15
G01X161.552Y-38.348
M16
G05
G00X162.552Y-41.448
M15
G01X161.552Y-41.448
M16
G05
G00X162.552Y-49.748
M15
G01X161.552Y-49.748
M16
G05
T4
G00X103.428Y-51.478
M15
G01X103.428Y-53.678
M16
G05
G00X107.928Y-57.378
M15
G01X105.728Y-57.378
M16
G05
G00X109.728Y-51.278
M15
G01X109.728Y-53.878
M16
G05
T5
G00X118.644Y-63.15
M15
G01X118.644Y-63.85
M16
G05
G00X128.244Y-63.15
M15
G01X128.244Y-63.85
M16
G05
G00X137.948Y-63.15
M15
G01X137.948Y-63.85
M16
G05
G00X147.548Y-63.15
M15
G01X147.548Y-63.85
M16
G05
G00X157.252Y-63.15
M15
G01X157.252Y-63.85
M16
G05
G00X166.852Y-63.15
M15
G01X166.852Y-63.85
M16
G05
T0
M30
