%TF.GenerationSoftware,KiCad,Pcbnew,(6.0.0-0)*%
%TF.CreationDate,2022-05-14T22:50:12+01:00*%
%TF.ProjectId,atari-punk,61746172-692d-4707-956e-6b2e6b696361,r02*%
%TF.SameCoordinates,Original*%
%TF.FileFunction,Copper,L1,Top*%
%TF.FilePolarity,Positive*%
%FSLAX46Y46*%
G04 Gerber Fmt 4.6, Leading zero omitted, Abs format (unit mm)*
G04 Created by KiCad (PCBNEW (6.0.0-0)) date 2022-05-14 22:50:12*
%MOMM*%
%LPD*%
G01*
G04 APERTURE LIST*
G04 Aperture macros list*
%AMRoundRect*
0 Rectangle with rounded corners*
0 $1 Rounding radius*
0 $2 $3 $4 $5 $6 $7 $8 $9 X,Y pos of 4 corners*
0 Add a 4 corners polygon primitive as box body*
4,1,4,$2,$3,$4,$5,$6,$7,$8,$9,$2,$3,0*
0 Add four circle primitives for the rounded corners*
1,1,$1+$1,$2,$3*
1,1,$1+$1,$4,$5*
1,1,$1+$1,$6,$7*
1,1,$1+$1,$8,$9*
0 Add four rect primitives between the rounded corners*
20,1,$1+$1,$2,$3,$4,$5,0*
20,1,$1+$1,$4,$5,$6,$7,0*
20,1,$1+$1,$6,$7,$8,$9,0*
20,1,$1+$1,$8,$9,$2,$3,0*%
G04 Aperture macros list end*
%TA.AperFunction,ComponentPad*%
%ADD10C,1.600000*%
%TD*%
%TA.AperFunction,ComponentPad*%
%ADD11R,1.800000X1.800000*%
%TD*%
%TA.AperFunction,ComponentPad*%
%ADD12C,1.800000*%
%TD*%
%TA.AperFunction,ComponentPad*%
%ADD13R,1.600000X1.600000*%
%TD*%
%TA.AperFunction,ComponentPad*%
%ADD14O,1.600000X1.600000*%
%TD*%
%TA.AperFunction,ComponentPad*%
%ADD15RoundRect,0.250000X0.600000X-0.600000X0.600000X0.600000X-0.600000X0.600000X-0.600000X-0.600000X0*%
%TD*%
%TA.AperFunction,ComponentPad*%
%ADD16C,1.700000*%
%TD*%
%TA.AperFunction,ComponentPad*%
%ADD17C,3.240000*%
%TD*%
%TA.AperFunction,ComponentPad*%
%ADD18R,2.000000X4.600000*%
%TD*%
%TA.AperFunction,ComponentPad*%
%ADD19O,2.000000X4.200000*%
%TD*%
%TA.AperFunction,ComponentPad*%
%ADD20O,4.200000X2.000000*%
%TD*%
%TA.AperFunction,ComponentPad*%
%ADD21O,3.100000X2.300000*%
%TD*%
%TA.AperFunction,ComponentPad*%
%ADD22RoundRect,0.650000X0.650000X0.650000X-0.650000X0.650000X-0.650000X-0.650000X0.650000X-0.650000X0*%
%TD*%
%TA.AperFunction,ViaPad*%
%ADD23C,0.762000*%
%TD*%
%TA.AperFunction,Conductor*%
%ADD24C,1.270000*%
%TD*%
G04 APERTURE END LIST*
D10*
%TO.P,C2,1*%
%TO.N,Net-(C2-Pad1)*%
X133096000Y-56388000D03*
%TO.P,C2,2*%
%TO.N,GND*%
X133096000Y-61388000D03*
%TD*%
D11*
%TO.P,D2,1,K*%
%TO.N,GND*%
X102108000Y-65532000D03*
D12*
%TO.P,D2,2,A*%
%TO.N,Net-(D2-Pad2)*%
X102108000Y-68072000D03*
%TD*%
D13*
%TO.P,C3,1*%
%TO.N,VCC*%
X109728000Y-77216000D03*
D10*
%TO.P,C3,2*%
%TO.N,GND*%
X109728000Y-79716000D03*
%TD*%
D13*
%TO.P,U2,1,GND*%
%TO.N,GND*%
X138176000Y-84836000D03*
D14*
%TO.P,U2,2,TR*%
%TO.N,Net-(U1-Pad3)*%
X140716000Y-84836000D03*
%TO.P,U2,3,Q*%
%TO.N,Net-(C7-Pad1)*%
X143256000Y-84836000D03*
%TO.P,U2,4,R*%
%TO.N,VCC*%
X145796000Y-84836000D03*
%TO.P,U2,5,CV*%
%TO.N,Net-(J5-PadT)*%
X145796000Y-77216000D03*
%TO.P,U2,6,THR*%
%TO.N,Net-(C6-Pad1)*%
X143256000Y-77216000D03*
%TO.P,U2,7,DIS*%
X140716000Y-77216000D03*
%TO.P,U2,8,VCC*%
%TO.N,VCC*%
X138176000Y-77216000D03*
%TD*%
D10*
%TO.P,C1,1*%
%TO.N,Net-(C1-Pad1)*%
X132080000Y-77216000D03*
%TO.P,C1,2*%
%TO.N,GND*%
X132080000Y-82216000D03*
%TD*%
%TO.P,R1,1*%
%TO.N,VCC*%
X109728000Y-72644000D03*
D14*
%TO.P,R1,2*%
%TO.N,Net-(D2-Pad2)*%
X102108000Y-72644000D03*
%TD*%
D13*
%TO.P,D1,1,K*%
%TO.N,VCC*%
X109728000Y-69596000D03*
D14*
%TO.P,D1,2,A*%
%TO.N,Net-(D1-Pad2)*%
X109728000Y-61976000D03*
%TD*%
D15*
%TO.P,J2,1,-12V*%
%TO.N,unconnected-(J2-Pad1)*%
X103124000Y-42672000D03*
D16*
%TO.P,J2,2,-12V*%
X103124000Y-40132000D03*
%TO.P,J2,3,GND*%
%TO.N,GND*%
X105664000Y-42672000D03*
%TO.P,J2,4,GND*%
X105664000Y-40132000D03*
%TO.P,J2,5,GND*%
X108204000Y-42672000D03*
%TO.P,J2,6,GND*%
X108204000Y-40132000D03*
%TO.P,J2,7,GND*%
X110744000Y-42672000D03*
%TO.P,J2,8,GND*%
X110744000Y-40132000D03*
%TO.P,J2,9,+12V*%
%TO.N,Net-(D1-Pad2)*%
X113284000Y-42672000D03*
%TO.P,J2,10,+12V*%
X113284000Y-40132000D03*
%TD*%
D17*
%TO.P,RV3,*%
%TO.N,*%
X166852000Y-63500000D03*
X157252000Y-63500000D03*
D11*
%TO.P,RV3,1,1*%
%TO.N,Net-(C7-Pad2)*%
X164552000Y-56000000D03*
D12*
%TO.P,RV3,2,2*%
%TO.N,Net-(J7-PadT)*%
X162052000Y-56000000D03*
%TO.P,RV3,3,3*%
%TO.N,GND*%
X159552000Y-56000000D03*
%TD*%
D10*
%TO.P,R4,1*%
%TO.N,VCC*%
X138176000Y-74168000D03*
D14*
%TO.P,R4,2*%
%TO.N,Net-(R4-Pad2)*%
X145796000Y-74168000D03*
%TD*%
D13*
%TO.P,C7,1*%
%TO.N,Net-(C7-Pad1)*%
X157988000Y-76708000D03*
D10*
%TO.P,C7,2*%
%TO.N,Net-(C7-Pad2)*%
X157988000Y-74208000D03*
%TD*%
D17*
%TO.P,RV1,*%
%TO.N,*%
X128244000Y-63500000D03*
X118644000Y-63500000D03*
D11*
%TO.P,RV1,1,1*%
%TO.N,Net-(R3-Pad2)*%
X125944000Y-56000000D03*
D12*
%TO.P,RV1,2,2*%
X123444000Y-56000000D03*
%TO.P,RV1,3,3*%
%TO.N,Net-(R2-Pad2)*%
X120944000Y-56000000D03*
%TD*%
D18*
%TO.P,J1,1*%
%TO.N,Net-(D1-Pad2)*%
X109728000Y-53606000D03*
D19*
%TO.P,J1,2*%
%TO.N,GND*%
X103428000Y-53606000D03*
D20*
%TO.P,J1,3*%
%TO.N,unconnected-(J1-Pad3)*%
X106828000Y-58406000D03*
%TD*%
D17*
%TO.P,RV2,*%
%TO.N,*%
X147548000Y-63500000D03*
X137948000Y-63500000D03*
D11*
%TO.P,RV2,1,1*%
%TO.N,Net-(R4-Pad2)*%
X145248000Y-56000000D03*
D12*
%TO.P,RV2,2,2*%
X142748000Y-56000000D03*
%TO.P,RV2,3,3*%
%TO.N,Net-(C6-Pad1)*%
X140248000Y-56000000D03*
%TD*%
D10*
%TO.P,C6,1*%
%TO.N,Net-(C6-Pad1)*%
X150368000Y-77216000D03*
%TO.P,C6,2*%
%TO.N,GND*%
X150368000Y-82216000D03*
%TD*%
D21*
%TO.P,J3,S*%
%TO.N,GND*%
X123444000Y-38348000D03*
D22*
%TO.P,J3,T*%
%TO.N,Net-(J3-PadT)*%
X123444000Y-49748000D03*
%TO.P,J3,TN*%
%TO.N,Net-(C2-Pad1)*%
X123444000Y-41448000D03*
%TD*%
D10*
%TO.P,R2,1*%
%TO.N,Net-(C1-Pad1)*%
X116332000Y-84836000D03*
D14*
%TO.P,R2,2*%
%TO.N,Net-(R2-Pad2)*%
X116332000Y-77216000D03*
%TD*%
D10*
%TO.P,C4,1*%
%TO.N,VCC*%
X103632000Y-77216000D03*
%TO.P,C4,2*%
%TO.N,GND*%
X103632000Y-82216000D03*
%TD*%
D21*
%TO.P,J5,S*%
%TO.N,GND*%
X142240000Y-38348000D03*
D22*
%TO.P,J5,T*%
%TO.N,Net-(J5-PadT)*%
X142240000Y-49748000D03*
%TO.P,J5,TN*%
%TO.N,Net-(C5-Pad1)*%
X142240000Y-41448000D03*
%TD*%
D10*
%TO.P,C5,1*%
%TO.N,Net-(C5-Pad1)*%
X152400000Y-56388000D03*
%TO.P,C5,2*%
%TO.N,GND*%
X152400000Y-61388000D03*
%TD*%
%TO.P,R3,1*%
%TO.N,VCC*%
X119888000Y-74168000D03*
D14*
%TO.P,R3,2*%
%TO.N,Net-(R3-Pad2)*%
X127508000Y-74168000D03*
%TD*%
D13*
%TO.P,U1,1,GND*%
%TO.N,GND*%
X119888000Y-84836000D03*
D14*
%TO.P,U1,2,TR*%
%TO.N,Net-(C1-Pad1)*%
X122428000Y-84836000D03*
%TO.P,U1,3,Q*%
%TO.N,Net-(U1-Pad3)*%
X124968000Y-84836000D03*
%TO.P,U1,4,R*%
%TO.N,VCC*%
X127508000Y-84836000D03*
%TO.P,U1,5,CV*%
%TO.N,Net-(J3-PadT)*%
X127508000Y-77216000D03*
%TO.P,U1,6,THR*%
%TO.N,Net-(C1-Pad1)*%
X124968000Y-77216000D03*
%TO.P,U1,7,DIS*%
%TO.N,Net-(R2-Pad2)*%
X122428000Y-77216000D03*
%TO.P,U1,8,VCC*%
%TO.N,VCC*%
X119888000Y-77216000D03*
%TD*%
D21*
%TO.P,J7,S*%
%TO.N,GND*%
X162052000Y-38348000D03*
D22*
%TO.P,J7,T*%
%TO.N,Net-(J7-PadT)*%
X162052000Y-49748000D03*
%TO.P,J7,TN*%
%TO.N,unconnected-(J7-PadTN)*%
X162052000Y-41448000D03*
%TD*%
D23*
%TO.N,GND*%
X146304000Y-59944000D03*
X124460000Y-74168000D03*
X127000000Y-59944000D03*
X142748000Y-74168000D03*
%TD*%
D24*
%TO.N,Net-(C1-Pad1)*%
X118020511Y-83147489D02*
X122263489Y-83147489D01*
X127000000Y-79248000D02*
X124968000Y-77216000D01*
X130048000Y-79248000D02*
X127000000Y-79248000D01*
X122428000Y-83312000D02*
X122428000Y-84836000D01*
X116332000Y-84836000D02*
X118020511Y-83147489D01*
X132080000Y-77216000D02*
X130048000Y-79248000D01*
X122263489Y-83147489D02*
X122428000Y-83312000D01*
%TO.N,VCC*%
X119888000Y-74168000D02*
X119888000Y-77216000D01*
X109728000Y-77216000D02*
X109728000Y-72644000D01*
X131847916Y-84836000D02*
X138176000Y-78507916D01*
X138176000Y-77216000D02*
X145796000Y-84836000D01*
X138176000Y-78507916D02*
X138176000Y-77216000D01*
X119888000Y-77216000D02*
X127508000Y-84836000D01*
X109728000Y-77216000D02*
X112776000Y-74168000D01*
X127508000Y-84836000D02*
X131847916Y-84836000D01*
X109728000Y-69596000D02*
X109728000Y-72644000D01*
X138176000Y-74168000D02*
X138176000Y-77216000D01*
X112776000Y-74168000D02*
X119888000Y-74168000D01*
X103632000Y-77216000D02*
X109728000Y-77216000D01*
%TO.N,Net-(C5-Pad1)*%
X142240000Y-41448000D02*
X152400000Y-51608000D01*
X152400000Y-51608000D02*
X152400000Y-56388000D01*
%TO.N,Net-(C6-Pad1)*%
X150368000Y-77216000D02*
X148679489Y-78904511D01*
X144944511Y-78904511D02*
X143256000Y-77216000D01*
X140716000Y-77216000D02*
X140716000Y-56468000D01*
X148679489Y-78904511D02*
X144944511Y-78904511D01*
X143256000Y-77216000D02*
X140716000Y-77216000D01*
X140716000Y-56468000D02*
X140248000Y-56000000D01*
%TO.N,Net-(D1-Pad2)*%
X110527999Y-54405999D02*
X110527999Y-61176001D01*
X110527999Y-61176001D02*
X109728000Y-61976000D01*
X113284000Y-42672000D02*
X113284000Y-50050000D01*
X109728000Y-53606000D02*
X110527999Y-54405999D01*
X113284000Y-50050000D02*
X109728000Y-53606000D01*
X113284000Y-40132000D02*
X113284000Y-42672000D01*
%TO.N,Net-(D2-Pad2)*%
X102108000Y-68072000D02*
X102108000Y-72644000D01*
%TO.N,unconnected-(J2-Pad1)*%
X103124000Y-40132000D02*
X103124000Y-42672000D01*
%TO.N,Net-(C2-Pad1)*%
X123444000Y-41448000D02*
X133096000Y-51100000D01*
X133096000Y-51100000D02*
X133096000Y-56388000D01*
%TO.N,Net-(C7-Pad1)*%
X145288000Y-86868000D02*
X149898000Y-86868000D01*
X157988000Y-78778000D02*
X157988000Y-76708000D01*
X143256000Y-84836000D02*
X145288000Y-86868000D01*
X149898000Y-86868000D02*
X157988000Y-78778000D01*
%TO.N,Net-(R4-Pad2)*%
X142748000Y-56000000D02*
X142748000Y-71120000D01*
X142748000Y-71120000D02*
X145796000Y-74168000D01*
X142748000Y-56000000D02*
X145248000Y-56000000D01*
%TO.N,Net-(J5-PadT)*%
X150056511Y-57564511D02*
X150056511Y-72955489D01*
X142240000Y-49748000D02*
X150056511Y-57564511D01*
X150056511Y-72955489D02*
X145796000Y-77216000D01*
%TO.N,Net-(J3-PadT)*%
X123444000Y-49748000D02*
X131407489Y-57711489D01*
X131407489Y-57711489D02*
X131407489Y-73316511D01*
X131407489Y-73316511D02*
X127508000Y-77216000D01*
%TO.N,Net-(U1-Pad3)*%
X126656511Y-86524511D02*
X140158859Y-86524511D01*
X140158859Y-86524511D02*
X140716000Y-85967370D01*
X140716000Y-85967370D02*
X140716000Y-84836000D01*
X124968000Y-84836000D02*
X126656511Y-86524511D01*
%TO.N,Net-(R2-Pad2)*%
X120944000Y-56000000D02*
X121920481Y-56976481D01*
X121920481Y-56976481D02*
X121920481Y-76708481D01*
X121920481Y-76708481D02*
X122428000Y-77216000D01*
%TO.N,Net-(C7-Pad2)*%
X160020000Y-72176000D02*
X157988000Y-74208000D01*
X164552000Y-58170000D02*
X160020000Y-62702000D01*
X160020000Y-62702000D02*
X160020000Y-72176000D01*
X164552000Y-56000000D02*
X164552000Y-58170000D01*
%TO.N,Net-(J7-PadT)*%
X162052000Y-49748000D02*
X162052000Y-56000000D01*
%TO.N,Net-(R3-Pad2)*%
X123444000Y-56000000D02*
X123444000Y-70104000D01*
X125944000Y-56000000D02*
X123444000Y-56000000D01*
X123444000Y-70104000D02*
X127508000Y-74168000D01*
%TD*%
%TA.AperFunction,Conductor*%
%TO.N,GND*%
G36*
X169614121Y-35072002D02*
G01*
X169660614Y-35125658D01*
X169672000Y-35178000D01*
X169672000Y-87758000D01*
X169651998Y-87826121D01*
X169598342Y-87872614D01*
X169546000Y-87884000D01*
X150804208Y-87884000D01*
X150736087Y-87863998D01*
X150689594Y-87810342D01*
X150679490Y-87740068D01*
X150711684Y-87672470D01*
X150712733Y-87671336D01*
X150722263Y-87661026D01*
X150725692Y-87657461D01*
X158766304Y-79616849D01*
X158772322Y-79611212D01*
X158821019Y-79568506D01*
X158875798Y-79499018D01*
X158877876Y-79496453D01*
X158930734Y-79432900D01*
X158930738Y-79432895D01*
X158934426Y-79428460D01*
X158937245Y-79423426D01*
X158939314Y-79420416D01*
X158945508Y-79411146D01*
X158947551Y-79408001D01*
X158951128Y-79403463D01*
X158992318Y-79325174D01*
X158993887Y-79322284D01*
X159034291Y-79250139D01*
X159034292Y-79250137D01*
X159037115Y-79245096D01*
X159038972Y-79239624D01*
X159040486Y-79236224D01*
X159044873Y-79226013D01*
X159046295Y-79222579D01*
X159048982Y-79217473D01*
X159075212Y-79133001D01*
X159076231Y-79129865D01*
X159102813Y-79051555D01*
X159104669Y-79046088D01*
X159105498Y-79040375D01*
X159106341Y-79036862D01*
X159108833Y-79025849D01*
X159109591Y-79022282D01*
X159111304Y-79016766D01*
X159113180Y-79000923D01*
X159121701Y-78928920D01*
X159122132Y-78925649D01*
X159133998Y-78843816D01*
X159133998Y-78843811D01*
X159134826Y-78838102D01*
X159131597Y-78755930D01*
X159131500Y-78750983D01*
X159131500Y-77939603D01*
X159151502Y-77871482D01*
X159156674Y-77864038D01*
X159159752Y-77859931D01*
X159238615Y-77754705D01*
X159289745Y-77618316D01*
X159296500Y-77556134D01*
X159296500Y-75859866D01*
X159289745Y-75797684D01*
X159238615Y-75661295D01*
X159151261Y-75544739D01*
X159034705Y-75457385D01*
X158898316Y-75406255D01*
X158899046Y-75404309D01*
X158846795Y-75374455D01*
X158813979Y-75311497D01*
X158820409Y-75240793D01*
X158848498Y-75198000D01*
X158994198Y-75052300D01*
X159022207Y-75012300D01*
X159122366Y-74869257D01*
X159125523Y-74864749D01*
X159127846Y-74859767D01*
X159127849Y-74859762D01*
X159219959Y-74662228D01*
X159222284Y-74657243D01*
X159237841Y-74599184D01*
X159270453Y-74542700D01*
X160798304Y-73014849D01*
X160804322Y-73009212D01*
X160842146Y-72976041D01*
X160853019Y-72966506D01*
X160866488Y-72949421D01*
X160907798Y-72897018D01*
X160909876Y-72894453D01*
X160962734Y-72830900D01*
X160962738Y-72830895D01*
X160966426Y-72826460D01*
X160969245Y-72821426D01*
X160971314Y-72818416D01*
X160977508Y-72809146D01*
X160979551Y-72806001D01*
X160983128Y-72801463D01*
X160988808Y-72790668D01*
X161024312Y-72723184D01*
X161025887Y-72720284D01*
X161066291Y-72648139D01*
X161066292Y-72648137D01*
X161069115Y-72643096D01*
X161070972Y-72637624D01*
X161072486Y-72634224D01*
X161076873Y-72624013D01*
X161078295Y-72620579D01*
X161080982Y-72615473D01*
X161107212Y-72531001D01*
X161108231Y-72527865D01*
X161134813Y-72449555D01*
X161136669Y-72444088D01*
X161137498Y-72438375D01*
X161138341Y-72434862D01*
X161140833Y-72423849D01*
X161141591Y-72420282D01*
X161143304Y-72414766D01*
X161153706Y-72326882D01*
X161154134Y-72323631D01*
X161166825Y-72236103D01*
X161163597Y-72153946D01*
X161163500Y-72148999D01*
X161163500Y-63477659D01*
X164718643Y-63477659D01*
X164735349Y-63767395D01*
X164736174Y-63771600D01*
X164736175Y-63771608D01*
X164747528Y-63829472D01*
X164791222Y-64052184D01*
X164792609Y-64056234D01*
X164792610Y-64056239D01*
X164867946Y-64276276D01*
X164885229Y-64326754D01*
X164914074Y-64384106D01*
X164979603Y-64514396D01*
X165015629Y-64586027D01*
X165180010Y-64825203D01*
X165375331Y-65039857D01*
X165378620Y-65042607D01*
X165594683Y-65223265D01*
X165594688Y-65223269D01*
X165597975Y-65226017D01*
X165690732Y-65284203D01*
X165840185Y-65377955D01*
X165840189Y-65377957D01*
X165843825Y-65380238D01*
X165847735Y-65382003D01*
X165847736Y-65382004D01*
X166104419Y-65497901D01*
X166104423Y-65497903D01*
X166108331Y-65499667D01*
X166112451Y-65500887D01*
X166112450Y-65500887D01*
X166382484Y-65580875D01*
X166382488Y-65580876D01*
X166386597Y-65582093D01*
X166390834Y-65582741D01*
X166390837Y-65582742D01*
X166631500Y-65619569D01*
X166673475Y-65625992D01*
X166821275Y-65628314D01*
X166959366Y-65630483D01*
X166959372Y-65630483D01*
X166963657Y-65630550D01*
X167251773Y-65595684D01*
X167532491Y-65522039D01*
X167800618Y-65410978D01*
X168031041Y-65276329D01*
X168047487Y-65266719D01*
X168047488Y-65266718D01*
X168051190Y-65264555D01*
X168279573Y-65085480D01*
X168481539Y-64877067D01*
X168653352Y-64643173D01*
X168687375Y-64580510D01*
X168789782Y-64391900D01*
X168789783Y-64391898D01*
X168791832Y-64388124D01*
X168867749Y-64187214D01*
X168892898Y-64120660D01*
X168892899Y-64120656D01*
X168894416Y-64116642D01*
X168959207Y-63833749D01*
X168985006Y-63544680D01*
X168985474Y-63500000D01*
X168969796Y-63270022D01*
X168966027Y-63214731D01*
X168966026Y-63214725D01*
X168965735Y-63210454D01*
X168906882Y-62926267D01*
X168810006Y-62652695D01*
X168676897Y-62394803D01*
X168510021Y-62157361D01*
X168456914Y-62100211D01*
X168315384Y-61947907D01*
X168315381Y-61947905D01*
X168312463Y-61944764D01*
X168087881Y-61760946D01*
X167881106Y-61634234D01*
X167844092Y-61611552D01*
X167844091Y-61611552D01*
X167840430Y-61609308D01*
X167822106Y-61601264D01*
X167664471Y-61532067D01*
X167574689Y-61492655D01*
X167295574Y-61413148D01*
X167008252Y-61372255D01*
X166855879Y-61371457D01*
X166722324Y-61370758D01*
X166722318Y-61370758D01*
X166718038Y-61370736D01*
X166713794Y-61371295D01*
X166713790Y-61371295D01*
X166609426Y-61385035D01*
X166430303Y-61408617D01*
X166426163Y-61409750D01*
X166426161Y-61409750D01*
X166407764Y-61414783D01*
X166150372Y-61485198D01*
X165883423Y-61599061D01*
X165879742Y-61601264D01*
X165638079Y-61745896D01*
X165638075Y-61745899D01*
X165634397Y-61748100D01*
X165407903Y-61929556D01*
X165404959Y-61932658D01*
X165404955Y-61932662D01*
X165219325Y-62128275D01*
X165208130Y-62140072D01*
X165038776Y-62375754D01*
X164902975Y-62632238D01*
X164901503Y-62636261D01*
X164901501Y-62636265D01*
X164832727Y-62824197D01*
X164803238Y-62904780D01*
X164741413Y-63188336D01*
X164718643Y-63477659D01*
X161163500Y-63477659D01*
X161163500Y-63227843D01*
X161183502Y-63159722D01*
X161200405Y-63138748D01*
X165330304Y-59008849D01*
X165336322Y-59003212D01*
X165385019Y-58960506D01*
X165439798Y-58891018D01*
X165441876Y-58888453D01*
X165494734Y-58824900D01*
X165494738Y-58824895D01*
X165498426Y-58820460D01*
X165501245Y-58815426D01*
X165503314Y-58812416D01*
X165509508Y-58803146D01*
X165511551Y-58800001D01*
X165515128Y-58795463D01*
X165556318Y-58717174D01*
X165557887Y-58714284D01*
X165598291Y-58642139D01*
X165598292Y-58642137D01*
X165601115Y-58637096D01*
X165602972Y-58631624D01*
X165604486Y-58628224D01*
X165608873Y-58618013D01*
X165610295Y-58614579D01*
X165612982Y-58609473D01*
X165639212Y-58525001D01*
X165640231Y-58521865D01*
X165666813Y-58443555D01*
X165668669Y-58438088D01*
X165669498Y-58432375D01*
X165670341Y-58428862D01*
X165672833Y-58417849D01*
X165673591Y-58414282D01*
X165675304Y-58408766D01*
X165685706Y-58320882D01*
X165686134Y-58317631D01*
X165698825Y-58230103D01*
X165695597Y-58147946D01*
X165695500Y-58142999D01*
X165695500Y-57416044D01*
X165715502Y-57347923D01*
X165745935Y-57315218D01*
X165791166Y-57281319D01*
X165815261Y-57263261D01*
X165902615Y-57146705D01*
X165953745Y-57010316D01*
X165960500Y-56948134D01*
X165960500Y-55051866D01*
X165953745Y-54989684D01*
X165902615Y-54853295D01*
X165815261Y-54736739D01*
X165698705Y-54649385D01*
X165562316Y-54598255D01*
X165500134Y-54591500D01*
X163603866Y-54591500D01*
X163541684Y-54598255D01*
X163405295Y-54649385D01*
X163398110Y-54654770D01*
X163398108Y-54654771D01*
X163397065Y-54655553D01*
X163395853Y-54656006D01*
X163390240Y-54659079D01*
X163389796Y-54658269D01*
X163330558Y-54680401D01*
X163261176Y-54665348D01*
X163210946Y-54615173D01*
X163195500Y-54554727D01*
X163195500Y-51528230D01*
X163215502Y-51460109D01*
X163262263Y-51419932D01*
X163261067Y-51417800D01*
X163266104Y-51414974D01*
X163271378Y-51412620D01*
X163283200Y-51404480D01*
X163441988Y-51295144D01*
X163441989Y-51295143D01*
X163446744Y-51291869D01*
X163484079Y-51254469D01*
X163593089Y-51145270D01*
X163593093Y-51145265D01*
X163597168Y-51141183D01*
X163678805Y-51022179D01*
X163714345Y-50970371D01*
X163714345Y-50970370D01*
X163717613Y-50965607D01*
X163792283Y-50797500D01*
X163801700Y-50776299D01*
X163801701Y-50776295D01*
X163804044Y-50771021D01*
X163820919Y-50700461D01*
X163852373Y-50568941D01*
X163852374Y-50568937D01*
X163853568Y-50563943D01*
X163856165Y-50527715D01*
X163860339Y-50469487D01*
X163860339Y-50469479D01*
X163860500Y-50467237D01*
X163860499Y-49028764D01*
X163853277Y-48930047D01*
X163803391Y-48723056D01*
X163716620Y-48528622D01*
X163595869Y-48353256D01*
X163591781Y-48349175D01*
X163449270Y-48206911D01*
X163449265Y-48206907D01*
X163445183Y-48202832D01*
X163269607Y-48082387D01*
X163172314Y-48039171D01*
X163080299Y-47998300D01*
X163080295Y-47998299D01*
X163075021Y-47995956D01*
X163037753Y-47987043D01*
X162872941Y-47947627D01*
X162872937Y-47947626D01*
X162867943Y-47946432D01*
X162831715Y-47943835D01*
X162773487Y-47939661D01*
X162773479Y-47939661D01*
X162771237Y-47939500D01*
X162058457Y-47939500D01*
X161332764Y-47939501D01*
X161330471Y-47939669D01*
X161330464Y-47939669D01*
X161239182Y-47946347D01*
X161239178Y-47946348D01*
X161234047Y-47946723D01*
X161027056Y-47996609D01*
X160832622Y-48083380D01*
X160827868Y-48086653D01*
X160827867Y-48086654D01*
X160663886Y-48199566D01*
X160657256Y-48204131D01*
X160653176Y-48208218D01*
X160653175Y-48208219D01*
X160510911Y-48350730D01*
X160510907Y-48350735D01*
X160506832Y-48354817D01*
X160386387Y-48530393D01*
X160299956Y-48724979D01*
X160250432Y-48932057D01*
X160243500Y-49028763D01*
X160243501Y-50467236D01*
X160243669Y-50469529D01*
X160243669Y-50469536D01*
X160247518Y-50522140D01*
X160250723Y-50565953D01*
X160300609Y-50772944D01*
X160387380Y-50967378D01*
X160390653Y-50972132D01*
X160390654Y-50972133D01*
X160502492Y-51134554D01*
X160508131Y-51142744D01*
X160512218Y-51146824D01*
X160512219Y-51146825D01*
X160654730Y-51289089D01*
X160654735Y-51289093D01*
X160658817Y-51293168D01*
X160663578Y-51296434D01*
X160821080Y-51404480D01*
X160834393Y-51413613D01*
X160839674Y-51415959D01*
X160843969Y-51418359D01*
X160893675Y-51469052D01*
X160908500Y-51528348D01*
X160908500Y-55101522D01*
X160888498Y-55169643D01*
X160834842Y-55216136D01*
X160764568Y-55226240D01*
X160720719Y-55206295D01*
X160712157Y-55205090D01*
X160700973Y-55210238D01*
X159924021Y-55987189D01*
X159916408Y-56001132D01*
X159916539Y-56002966D01*
X159920790Y-56009580D01*
X160698307Y-56787096D01*
X160710313Y-56793652D01*
X160719244Y-56786829D01*
X160785519Y-56761370D01*
X160855037Y-56775783D01*
X160903165Y-56821117D01*
X160908802Y-56830315D01*
X160911501Y-56834719D01*
X161063147Y-57009784D01*
X161241349Y-57157730D01*
X161441322Y-57274584D01*
X161657694Y-57357209D01*
X161662760Y-57358240D01*
X161662761Y-57358240D01*
X161715846Y-57369040D01*
X161884656Y-57403385D01*
X162014089Y-57408131D01*
X162110949Y-57411683D01*
X162110953Y-57411683D01*
X162116113Y-57411872D01*
X162121233Y-57411216D01*
X162121235Y-57411216D01*
X162195166Y-57401745D01*
X162345847Y-57382442D01*
X162350795Y-57380957D01*
X162350802Y-57380956D01*
X162562747Y-57317369D01*
X162567690Y-57315886D01*
X162581722Y-57309012D01*
X162771049Y-57216262D01*
X162771052Y-57216260D01*
X162775684Y-57213991D01*
X162964243Y-57079494D01*
X162976269Y-57067510D01*
X162980189Y-57063604D01*
X163042561Y-57029689D01*
X163113368Y-57034878D01*
X163170129Y-57077525D01*
X163187110Y-57108627D01*
X163201385Y-57146705D01*
X163288739Y-57263261D01*
X163312834Y-57281319D01*
X163358065Y-57315218D01*
X163400580Y-57372077D01*
X163408500Y-57416044D01*
X163408500Y-57644157D01*
X163388498Y-57712278D01*
X163371595Y-57733252D01*
X159241696Y-61863151D01*
X159235678Y-61868788D01*
X159186981Y-61911494D01*
X159183406Y-61916029D01*
X159183405Y-61916030D01*
X159132202Y-61980982D01*
X159130124Y-61983547D01*
X159077266Y-62047100D01*
X159077262Y-62047105D01*
X159073574Y-62051540D01*
X159070755Y-62056574D01*
X159068686Y-62059584D01*
X159062502Y-62068840D01*
X159060454Y-62071993D01*
X159056872Y-62076537D01*
X159054182Y-62081650D01*
X159053928Y-62082041D01*
X159000050Y-62128275D01*
X158929728Y-62138042D01*
X158865290Y-62108239D01*
X158855958Y-62099183D01*
X158819161Y-62059584D01*
X158746119Y-61980982D01*
X158715384Y-61947907D01*
X158715381Y-61947905D01*
X158712463Y-61944764D01*
X158487881Y-61760946D01*
X158281106Y-61634234D01*
X158244092Y-61611552D01*
X158244091Y-61611552D01*
X158240430Y-61609308D01*
X158222106Y-61601264D01*
X158064471Y-61532067D01*
X157974689Y-61492655D01*
X157695574Y-61413148D01*
X157408252Y-61372255D01*
X157255879Y-61371457D01*
X157122324Y-61370758D01*
X157122318Y-61370758D01*
X157118038Y-61370736D01*
X157113794Y-61371295D01*
X157113790Y-61371295D01*
X157009426Y-61385035D01*
X156830303Y-61408617D01*
X156826163Y-61409750D01*
X156826161Y-61409750D01*
X156807764Y-61414783D01*
X156550372Y-61485198D01*
X156283423Y-61599061D01*
X156279742Y-61601264D01*
X156038079Y-61745896D01*
X156038075Y-61745899D01*
X156034397Y-61748100D01*
X155807903Y-61929556D01*
X155804959Y-61932658D01*
X155804955Y-61932662D01*
X155619325Y-62128275D01*
X155608130Y-62140072D01*
X155438776Y-62375754D01*
X155302975Y-62632238D01*
X155301503Y-62636261D01*
X155301501Y-62636265D01*
X155232727Y-62824197D01*
X155203238Y-62904780D01*
X155141413Y-63188336D01*
X155118643Y-63477659D01*
X155135349Y-63767395D01*
X155136174Y-63771600D01*
X155136175Y-63771608D01*
X155147528Y-63829472D01*
X155191222Y-64052184D01*
X155192609Y-64056234D01*
X155192610Y-64056239D01*
X155267946Y-64276276D01*
X155285229Y-64326754D01*
X155314074Y-64384106D01*
X155379603Y-64514396D01*
X155415629Y-64586027D01*
X155580010Y-64825203D01*
X155775331Y-65039857D01*
X155778620Y-65042607D01*
X155994683Y-65223265D01*
X155994688Y-65223269D01*
X155997975Y-65226017D01*
X156090732Y-65284203D01*
X156240185Y-65377955D01*
X156240189Y-65377957D01*
X156243825Y-65380238D01*
X156247735Y-65382003D01*
X156247736Y-65382004D01*
X156504419Y-65497901D01*
X156504423Y-65497903D01*
X156508331Y-65499667D01*
X156512451Y-65500887D01*
X156512450Y-65500887D01*
X156782484Y-65580875D01*
X156782488Y-65580876D01*
X156786597Y-65582093D01*
X156790834Y-65582741D01*
X156790837Y-65582742D01*
X157031500Y-65619569D01*
X157073475Y-65625992D01*
X157221275Y-65628314D01*
X157359366Y-65630483D01*
X157359372Y-65630483D01*
X157363657Y-65630550D01*
X157651773Y-65595684D01*
X157932491Y-65522039D01*
X158200618Y-65410978D01*
X158431041Y-65276329D01*
X158447487Y-65266719D01*
X158447488Y-65266718D01*
X158451190Y-65264555D01*
X158672753Y-65090827D01*
X158738702Y-65064535D01*
X158808397Y-65078070D01*
X158859709Y-65127137D01*
X158876500Y-65189981D01*
X158876500Y-71650157D01*
X158856498Y-71718278D01*
X158839595Y-71739252D01*
X157653300Y-72925547D01*
X157596816Y-72958159D01*
X157538757Y-72973716D01*
X157448953Y-73015592D01*
X157336238Y-73068151D01*
X157336233Y-73068154D01*
X157331251Y-73070477D01*
X157275222Y-73109709D01*
X157148211Y-73198643D01*
X157148208Y-73198645D01*
X157143700Y-73201802D01*
X156981802Y-73363700D01*
X156978645Y-73368208D01*
X156978643Y-73368211D01*
X156950568Y-73408306D01*
X156850477Y-73551251D01*
X156848154Y-73556233D01*
X156848151Y-73556238D01*
X156756039Y-73753775D01*
X156753716Y-73758757D01*
X156752294Y-73764065D01*
X156752293Y-73764067D01*
X156696734Y-73971415D01*
X156694457Y-73979913D01*
X156674502Y-74208000D01*
X156694457Y-74436087D01*
X156753716Y-74657243D01*
X156756039Y-74662224D01*
X156756039Y-74662225D01*
X156848151Y-74859762D01*
X156848154Y-74859767D01*
X156850477Y-74864749D01*
X156853634Y-74869257D01*
X156953794Y-75012300D01*
X156981802Y-75052300D01*
X157127502Y-75198000D01*
X157161528Y-75260312D01*
X157156463Y-75331127D01*
X157113916Y-75387963D01*
X157077263Y-75405132D01*
X157077684Y-75406255D01*
X156941295Y-75457385D01*
X156824739Y-75544739D01*
X156737385Y-75661295D01*
X156686255Y-75797684D01*
X156679500Y-75859866D01*
X156679500Y-77556134D01*
X156686255Y-77618316D01*
X156737385Y-77754705D01*
X156816248Y-77859931D01*
X156819326Y-77864038D01*
X156844174Y-77930544D01*
X156844500Y-77939603D01*
X156844500Y-78252157D01*
X156824498Y-78320278D01*
X156807595Y-78341252D01*
X149461252Y-85687595D01*
X149398940Y-85721621D01*
X149372157Y-85724500D01*
X147013293Y-85724500D01*
X146945172Y-85704498D01*
X146898679Y-85650842D01*
X146888575Y-85580568D01*
X146910080Y-85526229D01*
X146910748Y-85525275D01*
X146933523Y-85492749D01*
X146935846Y-85487767D01*
X146935849Y-85487762D01*
X147027961Y-85290225D01*
X147027962Y-85290223D01*
X147030284Y-85285243D01*
X147060976Y-85170702D01*
X147088119Y-85069402D01*
X147088119Y-85069400D01*
X147089543Y-85064087D01*
X147109498Y-84836000D01*
X147089543Y-84607913D01*
X147081028Y-84576135D01*
X147031707Y-84392067D01*
X147031706Y-84392065D01*
X147030284Y-84386757D01*
X146951310Y-84217395D01*
X146935849Y-84184238D01*
X146935846Y-84184233D01*
X146933523Y-84179251D01*
X146860098Y-84074389D01*
X146805357Y-83996211D01*
X146805355Y-83996208D01*
X146802198Y-83991700D01*
X146640300Y-83829802D01*
X146635792Y-83826645D01*
X146635789Y-83826643D01*
X146557611Y-83771902D01*
X146452749Y-83698477D01*
X146447767Y-83696154D01*
X146447762Y-83696151D01*
X146314348Y-83633940D01*
X146245243Y-83601716D01*
X146187184Y-83586159D01*
X146130700Y-83553547D01*
X145879215Y-83302062D01*
X149646493Y-83302062D01*
X149655789Y-83314077D01*
X149706994Y-83349931D01*
X149716489Y-83355414D01*
X149913947Y-83447490D01*
X149924239Y-83451236D01*
X150134688Y-83507625D01*
X150145481Y-83509528D01*
X150362525Y-83528517D01*
X150373475Y-83528517D01*
X150590519Y-83509528D01*
X150601312Y-83507625D01*
X150811761Y-83451236D01*
X150822053Y-83447490D01*
X151019511Y-83355414D01*
X151029006Y-83349931D01*
X151081048Y-83313491D01*
X151089424Y-83303012D01*
X151082356Y-83289566D01*
X150380812Y-82588022D01*
X150366868Y-82580408D01*
X150365035Y-82580539D01*
X150358420Y-82584790D01*
X149652923Y-83290287D01*
X149646493Y-83302062D01*
X145879215Y-83302062D01*
X144798628Y-82221475D01*
X149055483Y-82221475D01*
X149074472Y-82438519D01*
X149076375Y-82449312D01*
X149132764Y-82659761D01*
X149136510Y-82670053D01*
X149228586Y-82867511D01*
X149234069Y-82877006D01*
X149270509Y-82929048D01*
X149280988Y-82937424D01*
X149294434Y-82930356D01*
X149995978Y-82228812D01*
X150002356Y-82217132D01*
X150732408Y-82217132D01*
X150732539Y-82218965D01*
X150736790Y-82225580D01*
X151442287Y-82931077D01*
X151454062Y-82937507D01*
X151466077Y-82928211D01*
X151501931Y-82877006D01*
X151507414Y-82867511D01*
X151599490Y-82670053D01*
X151603236Y-82659761D01*
X151659625Y-82449312D01*
X151661528Y-82438519D01*
X151680517Y-82221475D01*
X151680517Y-82210525D01*
X151661528Y-81993481D01*
X151659625Y-81982688D01*
X151603236Y-81772239D01*
X151599490Y-81761947D01*
X151507414Y-81564489D01*
X151501931Y-81554994D01*
X151465491Y-81502952D01*
X151455012Y-81494576D01*
X151441566Y-81501644D01*
X150740022Y-82203188D01*
X150732408Y-82217132D01*
X150002356Y-82217132D01*
X150003592Y-82214868D01*
X150003461Y-82213035D01*
X149999210Y-82206420D01*
X149293713Y-81500923D01*
X149281938Y-81494493D01*
X149269923Y-81503789D01*
X149234069Y-81554994D01*
X149228586Y-81564489D01*
X149136510Y-81761947D01*
X149132764Y-81772239D01*
X149076375Y-81982688D01*
X149074472Y-81993481D01*
X149055483Y-82210525D01*
X149055483Y-82221475D01*
X144798628Y-82221475D01*
X143706141Y-81128988D01*
X149646576Y-81128988D01*
X149653644Y-81142434D01*
X150355188Y-81843978D01*
X150369132Y-81851592D01*
X150370965Y-81851461D01*
X150377580Y-81847210D01*
X151083077Y-81141713D01*
X151089507Y-81129938D01*
X151080211Y-81117923D01*
X151029006Y-81082069D01*
X151019511Y-81076586D01*
X150822053Y-80984510D01*
X150811761Y-80980764D01*
X150601312Y-80924375D01*
X150590519Y-80922472D01*
X150373475Y-80903483D01*
X150362525Y-80903483D01*
X150145481Y-80922472D01*
X150134688Y-80924375D01*
X149924239Y-80980764D01*
X149913947Y-80984510D01*
X149716489Y-81076586D01*
X149706994Y-81082069D01*
X149654952Y-81118509D01*
X149646576Y-81128988D01*
X143706141Y-81128988D01*
X141198503Y-78621350D01*
X141164477Y-78559038D01*
X141169542Y-78488223D01*
X141212089Y-78431387D01*
X141234348Y-78418060D01*
X141334615Y-78371305D01*
X141387865Y-78359500D01*
X142584135Y-78359500D01*
X142637385Y-78371305D01*
X142806757Y-78450284D01*
X142847603Y-78461229D01*
X142864815Y-78465841D01*
X142921298Y-78498452D01*
X144105669Y-79682823D01*
X144111306Y-79688841D01*
X144154005Y-79737530D01*
X144158536Y-79741102D01*
X144223465Y-79792288D01*
X144226028Y-79794364D01*
X144247059Y-79811855D01*
X144294050Y-79850937D01*
X144299088Y-79853758D01*
X144302075Y-79855811D01*
X144311403Y-79862044D01*
X144314514Y-79864064D01*
X144319048Y-79867639D01*
X144324155Y-79870326D01*
X144324166Y-79870333D01*
X144397324Y-79908823D01*
X144400223Y-79910396D01*
X144477415Y-79953625D01*
X144482875Y-79955478D01*
X144486175Y-79956948D01*
X144496564Y-79961411D01*
X144499927Y-79962804D01*
X144505038Y-79965493D01*
X144510554Y-79967206D01*
X144510557Y-79967207D01*
X144528412Y-79972751D01*
X144589541Y-79991733D01*
X144592600Y-79992726D01*
X144676423Y-80021180D01*
X144682137Y-80022009D01*
X144685649Y-80022852D01*
X144696662Y-80025344D01*
X144700229Y-80026102D01*
X144705745Y-80027815D01*
X144711473Y-80028493D01*
X144711478Y-80028494D01*
X144759768Y-80034209D01*
X144793629Y-80038217D01*
X144796851Y-80038641D01*
X144884408Y-80051336D01*
X144966565Y-80048108D01*
X144971512Y-80048011D01*
X148636684Y-80048011D01*
X148644925Y-80048281D01*
X148709550Y-80052517D01*
X148797462Y-80042112D01*
X148800675Y-80041775D01*
X148888768Y-80033680D01*
X148894328Y-80032112D01*
X148897901Y-80031450D01*
X148908904Y-80029261D01*
X148912517Y-80028493D01*
X148918254Y-80027814D01*
X149002765Y-80001573D01*
X149005862Y-80000657D01*
X149091038Y-79976634D01*
X149096226Y-79974076D01*
X149099677Y-79972751D01*
X149110055Y-79968610D01*
X149113442Y-79967207D01*
X149118962Y-79965493D01*
X149197235Y-79924312D01*
X149200171Y-79922816D01*
X149226990Y-79909590D01*
X149279526Y-79883682D01*
X149284157Y-79880224D01*
X149287360Y-79878261D01*
X149296747Y-79872338D01*
X149299840Y-79870329D01*
X149304952Y-79867640D01*
X149374445Y-79812855D01*
X149377015Y-79810884D01*
X149443290Y-79761395D01*
X149443297Y-79761388D01*
X149447918Y-79757938D01*
X149503751Y-79697538D01*
X149507180Y-79693973D01*
X150702702Y-78498452D01*
X150759185Y-78465841D01*
X150776397Y-78461229D01*
X150817243Y-78450284D01*
X150822229Y-78447959D01*
X151019762Y-78355849D01*
X151019767Y-78355846D01*
X151024749Y-78353523D01*
X151169514Y-78252157D01*
X151207789Y-78225357D01*
X151207792Y-78225355D01*
X151212300Y-78222198D01*
X151374198Y-78060300D01*
X151381275Y-78050194D01*
X151482080Y-77906229D01*
X151505523Y-77872749D01*
X151507846Y-77867767D01*
X151507849Y-77867762D01*
X151599961Y-77670225D01*
X151599961Y-77670224D01*
X151602284Y-77665243D01*
X151632436Y-77552717D01*
X151660119Y-77449402D01*
X151660119Y-77449400D01*
X151661543Y-77444087D01*
X151681498Y-77216000D01*
X151661543Y-76987913D01*
X151602284Y-76766757D01*
X151599961Y-76761775D01*
X151507849Y-76564238D01*
X151507846Y-76564233D01*
X151505523Y-76559251D01*
X151374198Y-76371700D01*
X151212300Y-76209802D01*
X151207792Y-76206645D01*
X151207789Y-76206643D01*
X151129611Y-76151902D01*
X151024749Y-76078477D01*
X151019767Y-76076154D01*
X151019762Y-76076151D01*
X150822225Y-75984039D01*
X150822224Y-75984039D01*
X150817243Y-75981716D01*
X150811935Y-75980294D01*
X150811933Y-75980293D01*
X150601402Y-75923881D01*
X150601400Y-75923881D01*
X150596087Y-75922457D01*
X150368000Y-75902502D01*
X150139913Y-75922457D01*
X150134600Y-75923881D01*
X150134598Y-75923881D01*
X149924067Y-75980293D01*
X149924065Y-75980294D01*
X149918757Y-75981716D01*
X149913776Y-75984039D01*
X149913775Y-75984039D01*
X149716238Y-76076151D01*
X149716233Y-76076154D01*
X149711251Y-76078477D01*
X149606389Y-76151902D01*
X149528211Y-76206643D01*
X149528208Y-76206645D01*
X149523700Y-76209802D01*
X149361802Y-76371700D01*
X149230477Y-76559251D01*
X149228154Y-76564233D01*
X149228151Y-76564238D01*
X149212695Y-76597385D01*
X149133716Y-76766757D01*
X149132293Y-76772067D01*
X149132292Y-76772071D01*
X149118159Y-76824816D01*
X149085547Y-76881300D01*
X148242741Y-77724106D01*
X148180429Y-77758132D01*
X148153646Y-77761011D01*
X147172332Y-77761011D01*
X147104211Y-77741009D01*
X147057718Y-77687353D01*
X147047614Y-77617079D01*
X147077108Y-77552499D01*
X147083237Y-77545916D01*
X150834815Y-73794338D01*
X150840833Y-73788701D01*
X150862924Y-73769328D01*
X150889530Y-73745995D01*
X150944304Y-73676516D01*
X150946364Y-73673972D01*
X150999239Y-73610397D01*
X150999246Y-73610387D01*
X151002936Y-73605950D01*
X151005761Y-73600906D01*
X151007862Y-73597848D01*
X151014063Y-73588568D01*
X151016066Y-73585484D01*
X151019639Y-73580952D01*
X151022323Y-73575851D01*
X151022326Y-73575846D01*
X151060830Y-73502660D01*
X151062405Y-73499760D01*
X151063235Y-73498279D01*
X151079010Y-73470111D01*
X151102801Y-73427629D01*
X151102802Y-73427627D01*
X151105625Y-73422586D01*
X151107483Y-73417111D01*
X151108992Y-73413722D01*
X151113400Y-73403463D01*
X151114805Y-73400071D01*
X151117493Y-73394962D01*
X151143725Y-73310483D01*
X151144741Y-73307353D01*
X151171321Y-73229052D01*
X151171321Y-73229050D01*
X151173179Y-73223578D01*
X151174009Y-73217854D01*
X151174876Y-73214242D01*
X151177341Y-73203351D01*
X151178102Y-73199773D01*
X151179815Y-73194255D01*
X151190214Y-73106388D01*
X151190645Y-73103115D01*
X151191132Y-73099760D01*
X151195177Y-73071860D01*
X151202508Y-73021305D01*
X151202508Y-73021301D01*
X151203336Y-73015592D01*
X151200108Y-72933435D01*
X151200011Y-72928488D01*
X151200011Y-62474062D01*
X151678493Y-62474062D01*
X151687789Y-62486077D01*
X151738994Y-62521931D01*
X151748489Y-62527414D01*
X151945947Y-62619490D01*
X151956239Y-62623236D01*
X152166688Y-62679625D01*
X152177481Y-62681528D01*
X152394525Y-62700517D01*
X152405475Y-62700517D01*
X152622519Y-62681528D01*
X152633312Y-62679625D01*
X152843761Y-62623236D01*
X152854053Y-62619490D01*
X153051511Y-62527414D01*
X153061006Y-62521931D01*
X153113048Y-62485491D01*
X153121424Y-62475012D01*
X153114356Y-62461566D01*
X152412812Y-61760022D01*
X152398868Y-61752408D01*
X152397035Y-61752539D01*
X152390420Y-61756790D01*
X151684923Y-62462287D01*
X151678493Y-62474062D01*
X151200011Y-62474062D01*
X151200011Y-62238787D01*
X151220013Y-62170666D01*
X151273669Y-62124173D01*
X151290036Y-62121488D01*
X151326434Y-62102356D01*
X152027978Y-61400812D01*
X152034356Y-61389132D01*
X152764408Y-61389132D01*
X152764539Y-61390965D01*
X152768790Y-61397580D01*
X153474287Y-62103077D01*
X153486062Y-62109507D01*
X153498077Y-62100211D01*
X153533931Y-62049006D01*
X153539414Y-62039511D01*
X153631490Y-61842053D01*
X153635236Y-61831761D01*
X153691625Y-61621312D01*
X153693528Y-61610519D01*
X153712517Y-61393475D01*
X153712517Y-61382525D01*
X153693528Y-61165481D01*
X153691625Y-61154688D01*
X153635236Y-60944239D01*
X153631490Y-60933947D01*
X153539414Y-60736489D01*
X153533931Y-60726994D01*
X153497491Y-60674952D01*
X153487012Y-60666576D01*
X153473566Y-60673644D01*
X152772022Y-61375188D01*
X152764408Y-61389132D01*
X152034356Y-61389132D01*
X152035592Y-61386868D01*
X152035461Y-61385035D01*
X152031210Y-61378420D01*
X151325713Y-60672923D01*
X151291329Y-60654147D01*
X151265626Y-60648556D01*
X151215424Y-60598354D01*
X151200011Y-60537968D01*
X151200011Y-60300988D01*
X151678576Y-60300988D01*
X151685644Y-60314434D01*
X152387188Y-61015978D01*
X152401132Y-61023592D01*
X152402965Y-61023461D01*
X152409580Y-61019210D01*
X153115077Y-60313713D01*
X153121507Y-60301938D01*
X153112211Y-60289923D01*
X153061006Y-60254069D01*
X153051511Y-60248586D01*
X152854053Y-60156510D01*
X152843761Y-60152764D01*
X152633312Y-60096375D01*
X152622519Y-60094472D01*
X152405475Y-60075483D01*
X152394525Y-60075483D01*
X152177481Y-60094472D01*
X152166688Y-60096375D01*
X151956239Y-60152764D01*
X151945947Y-60156510D01*
X151748489Y-60248586D01*
X151738994Y-60254069D01*
X151686952Y-60290509D01*
X151678576Y-60300988D01*
X151200011Y-60300988D01*
X151200011Y-57607316D01*
X151200281Y-57599075D01*
X151204139Y-57540216D01*
X151204517Y-57534450D01*
X151194113Y-57446552D01*
X151193770Y-57443277D01*
X151186209Y-57360986D01*
X151186208Y-57360983D01*
X151185680Y-57355232D01*
X151184112Y-57349673D01*
X151183652Y-57347191D01*
X151190905Y-57276566D01*
X151235190Y-57221074D01*
X151302446Y-57198333D01*
X151371320Y-57215564D01*
X151396637Y-57235135D01*
X151555700Y-57394198D01*
X151560208Y-57397355D01*
X151560211Y-57397357D01*
X151580004Y-57411216D01*
X151743251Y-57525523D01*
X151748233Y-57527846D01*
X151748238Y-57527849D01*
X151945775Y-57619961D01*
X151950757Y-57622284D01*
X151956065Y-57623706D01*
X151956067Y-57623707D01*
X152166598Y-57680119D01*
X152166600Y-57680119D01*
X152171913Y-57681543D01*
X152400000Y-57701498D01*
X152628087Y-57681543D01*
X152633400Y-57680119D01*
X152633402Y-57680119D01*
X152843933Y-57623707D01*
X152843935Y-57623706D01*
X152849243Y-57622284D01*
X152854225Y-57619961D01*
X153051762Y-57527849D01*
X153051767Y-57527846D01*
X153056749Y-57525523D01*
X153219996Y-57411216D01*
X153239789Y-57397357D01*
X153239792Y-57397355D01*
X153244300Y-57394198D01*
X153406198Y-57232300D01*
X153421118Y-57210993D01*
X153455839Y-57161406D01*
X158755423Y-57161406D01*
X158760704Y-57168461D01*
X158937080Y-57271527D01*
X158946363Y-57275974D01*
X159153003Y-57354883D01*
X159162901Y-57357759D01*
X159379653Y-57401857D01*
X159389883Y-57403076D01*
X159610914Y-57411182D01*
X159621223Y-57410714D01*
X159840623Y-57382608D01*
X159850688Y-57380468D01*
X160062557Y-57316905D01*
X160072152Y-57313144D01*
X160270778Y-57215838D01*
X160279636Y-57210559D01*
X160337097Y-57169572D01*
X160345497Y-57158874D01*
X160338510Y-57145721D01*
X159564811Y-56372021D01*
X159550868Y-56364408D01*
X159549034Y-56364539D01*
X159542420Y-56368790D01*
X158762180Y-57149031D01*
X158755423Y-57161406D01*
X153455839Y-57161406D01*
X153514573Y-57077525D01*
X153537523Y-57044749D01*
X153539846Y-57039767D01*
X153539849Y-57039762D01*
X153631961Y-56842225D01*
X153631961Y-56842224D01*
X153634284Y-56837243D01*
X153636141Y-56830315D01*
X153692119Y-56621402D01*
X153692120Y-56621399D01*
X153693543Y-56616087D01*
X153713498Y-56388000D01*
X153693543Y-56159913D01*
X153651489Y-56002966D01*
X153642827Y-55970638D01*
X158139893Y-55970638D01*
X158152627Y-56191468D01*
X158154061Y-56201670D01*
X158202685Y-56417439D01*
X158205773Y-56427292D01*
X158288986Y-56632220D01*
X158293634Y-56641421D01*
X158382097Y-56785781D01*
X158392553Y-56795242D01*
X158401331Y-56791458D01*
X159179979Y-56012811D01*
X159187592Y-55998868D01*
X159187461Y-55997034D01*
X159183210Y-55990420D01*
X158405862Y-55213073D01*
X158394330Y-55206776D01*
X158382048Y-55216399D01*
X158326467Y-55297877D01*
X158321379Y-55306833D01*
X158228252Y-55507459D01*
X158224689Y-55517146D01*
X158165581Y-55730280D01*
X158163650Y-55740400D01*
X158140145Y-55960349D01*
X158139893Y-55970638D01*
X153642827Y-55970638D01*
X153635707Y-55944067D01*
X153635706Y-55944065D01*
X153634284Y-55938757D01*
X153555305Y-55769385D01*
X153543500Y-55716135D01*
X153543500Y-54840711D01*
X158757508Y-54840711D01*
X158764251Y-54853040D01*
X159539189Y-55627979D01*
X159553132Y-55635592D01*
X159554966Y-55635461D01*
X159561580Y-55631210D01*
X160340994Y-54851795D01*
X160348011Y-54838944D01*
X160340237Y-54828274D01*
X160337902Y-54826430D01*
X160329320Y-54820729D01*
X160135678Y-54713833D01*
X160126272Y-54709606D01*
X159917772Y-54635772D01*
X159907809Y-54633140D01*
X159690047Y-54594350D01*
X159679796Y-54593381D01*
X159458616Y-54590679D01*
X159448332Y-54591399D01*
X159229693Y-54624855D01*
X159219666Y-54627244D01*
X159009426Y-54695961D01*
X158999916Y-54699958D01*
X158803725Y-54802089D01*
X158795007Y-54807578D01*
X158765961Y-54829386D01*
X158757508Y-54840711D01*
X153543500Y-54840711D01*
X153543500Y-51650805D01*
X153543770Y-51642564D01*
X153547628Y-51583705D01*
X153548006Y-51577939D01*
X153537602Y-51490041D01*
X153537259Y-51486766D01*
X153533562Y-51446530D01*
X153529169Y-51398721D01*
X153527599Y-51393155D01*
X153526914Y-51389459D01*
X153524756Y-51378610D01*
X153523983Y-51374974D01*
X153523304Y-51369235D01*
X153497069Y-51284744D01*
X153496140Y-51281608D01*
X153473693Y-51202018D01*
X153472123Y-51196451D01*
X153469565Y-51191263D01*
X153468240Y-51187812D01*
X153464099Y-51177434D01*
X153462696Y-51174047D01*
X153460982Y-51168527D01*
X153419801Y-51090254D01*
X153418305Y-51087318D01*
X153412578Y-51075705D01*
X153379171Y-51007963D01*
X153375713Y-51003332D01*
X153373750Y-51000129D01*
X153367827Y-50990742D01*
X153365818Y-50987649D01*
X153363129Y-50982537D01*
X153308344Y-50913044D01*
X153306373Y-50910474D01*
X153256884Y-50844199D01*
X153256877Y-50844192D01*
X153253427Y-50839571D01*
X153214300Y-50803402D01*
X153193027Y-50783738D01*
X153189461Y-50780308D01*
X144085405Y-41676252D01*
X144051379Y-41613940D01*
X144048500Y-41587157D01*
X144048499Y-40731068D01*
X144048499Y-40728764D01*
X144041277Y-40630047D01*
X143991391Y-40423056D01*
X143904620Y-40228622D01*
X143844686Y-40141580D01*
X143787144Y-40058012D01*
X143787143Y-40058011D01*
X143783869Y-40053256D01*
X143779781Y-40049175D01*
X143637270Y-39906911D01*
X143637265Y-39906907D01*
X143633183Y-39902832D01*
X143628421Y-39899565D01*
X143628417Y-39899562D01*
X143623767Y-39896372D01*
X143578908Y-39841343D01*
X143570921Y-39770797D01*
X143602342Y-39707132D01*
X143617601Y-39693544D01*
X143617562Y-39693498D01*
X143619770Y-39691612D01*
X143620974Y-39690540D01*
X143621318Y-39690290D01*
X143812252Y-39527216D01*
X143819216Y-39520252D01*
X143982288Y-39329321D01*
X143988080Y-39321348D01*
X144119271Y-39107264D01*
X144123752Y-39098470D01*
X144219834Y-38866508D01*
X144222883Y-38857123D01*
X144280820Y-38615798D01*
X144280484Y-38614200D01*
X160010797Y-38614200D01*
X160069117Y-38857123D01*
X160072166Y-38866508D01*
X160168248Y-39098470D01*
X160172729Y-39107264D01*
X160303920Y-39321348D01*
X160309712Y-39329321D01*
X160472784Y-39520252D01*
X160479748Y-39527216D01*
X160670679Y-39690288D01*
X160671160Y-39690637D01*
X160671298Y-39690817D01*
X160674438Y-39693498D01*
X160673875Y-39694158D01*
X160714514Y-39746860D01*
X160720588Y-39817596D01*
X160687455Y-39880387D01*
X160668557Y-39896349D01*
X160662015Y-39900854D01*
X160657256Y-39904131D01*
X160653176Y-39908218D01*
X160653175Y-39908219D01*
X160510911Y-40050730D01*
X160510907Y-40050735D01*
X160506832Y-40054817D01*
X160503566Y-40059578D01*
X160455919Y-40129035D01*
X160386387Y-40230393D01*
X160384043Y-40235671D01*
X160304416Y-40414939D01*
X160299956Y-40424979D01*
X160250432Y-40632057D01*
X160243500Y-40728763D01*
X160243501Y-42167236D01*
X160243669Y-42169529D01*
X160243669Y-42169536D01*
X160248658Y-42237720D01*
X160250723Y-42265953D01*
X160300609Y-42472944D01*
X160387380Y-42667378D01*
X160390653Y-42672132D01*
X160390654Y-42672133D01*
X160392880Y-42675365D01*
X160508131Y-42842744D01*
X160512218Y-42846824D01*
X160512219Y-42846825D01*
X160654730Y-42989089D01*
X160654735Y-42989093D01*
X160658817Y-42993168D01*
X160834393Y-43113613D01*
X160931686Y-43156829D01*
X161023701Y-43197700D01*
X161023705Y-43197701D01*
X161028979Y-43200044D01*
X161034600Y-43201388D01*
X161034599Y-43201388D01*
X161231059Y-43248373D01*
X161231063Y-43248374D01*
X161236057Y-43249568D01*
X161272285Y-43252165D01*
X161330513Y-43256339D01*
X161330521Y-43256339D01*
X161332763Y-43256500D01*
X162045543Y-43256500D01*
X162771236Y-43256499D01*
X162773529Y-43256331D01*
X162773536Y-43256331D01*
X162864818Y-43249653D01*
X162864822Y-43249652D01*
X162869953Y-43249277D01*
X163076944Y-43199391D01*
X163271378Y-43112620D01*
X163319276Y-43079639D01*
X163441988Y-42995144D01*
X163441989Y-42995143D01*
X163446744Y-42991869D01*
X163450825Y-42987781D01*
X163593089Y-42845270D01*
X163593093Y-42845265D01*
X163597168Y-42841183D01*
X163710919Y-42675365D01*
X163714345Y-42670371D01*
X163714345Y-42670370D01*
X163717613Y-42665607D01*
X163804044Y-42471021D01*
X163843129Y-42307592D01*
X163852373Y-42268941D01*
X163852374Y-42268937D01*
X163853568Y-42263943D01*
X163860500Y-42167237D01*
X163860499Y-40728764D01*
X163853277Y-40630047D01*
X163803391Y-40423056D01*
X163716620Y-40228622D01*
X163656686Y-40141580D01*
X163599144Y-40058012D01*
X163599143Y-40058011D01*
X163595869Y-40053256D01*
X163591781Y-40049175D01*
X163449270Y-39906911D01*
X163449265Y-39906907D01*
X163445183Y-39902832D01*
X163440421Y-39899565D01*
X163440417Y-39899562D01*
X163435767Y-39896372D01*
X163390908Y-39841343D01*
X163382921Y-39770797D01*
X163414342Y-39707132D01*
X163429601Y-39693544D01*
X163429562Y-39693498D01*
X163431770Y-39691612D01*
X163432974Y-39690540D01*
X163433318Y-39690290D01*
X163624252Y-39527216D01*
X163631216Y-39520252D01*
X163794288Y-39329321D01*
X163800080Y-39321348D01*
X163931271Y-39107264D01*
X163935752Y-39098470D01*
X164031834Y-38866508D01*
X164034883Y-38857123D01*
X164092820Y-38615798D01*
X164090546Y-38604970D01*
X164079082Y-38602000D01*
X160026978Y-38602000D01*
X160012185Y-38606344D01*
X160010797Y-38614200D01*
X144280484Y-38614200D01*
X144278546Y-38604970D01*
X144267082Y-38602000D01*
X140214978Y-38602000D01*
X140200185Y-38606344D01*
X140198797Y-38614200D01*
X140257117Y-38857123D01*
X140260166Y-38866508D01*
X140356248Y-39098470D01*
X140360729Y-39107264D01*
X140491920Y-39321348D01*
X140497712Y-39329321D01*
X140660784Y-39520252D01*
X140667748Y-39527216D01*
X140858679Y-39690288D01*
X140859160Y-39690637D01*
X140859298Y-39690817D01*
X140862438Y-39693498D01*
X140861875Y-39694158D01*
X140902514Y-39746860D01*
X140908588Y-39817596D01*
X140875455Y-39880387D01*
X140856557Y-39896349D01*
X140850015Y-39900854D01*
X140845256Y-39904131D01*
X140841176Y-39908218D01*
X140841175Y-39908219D01*
X140698911Y-40050730D01*
X140698907Y-40050735D01*
X140694832Y-40054817D01*
X140691566Y-40059578D01*
X140643919Y-40129035D01*
X140574387Y-40230393D01*
X140572043Y-40235671D01*
X140492416Y-40414939D01*
X140487956Y-40424979D01*
X140438432Y-40632057D01*
X140431500Y-40728763D01*
X140431501Y-42167236D01*
X140431669Y-42169529D01*
X140431669Y-42169536D01*
X140436658Y-42237720D01*
X140438723Y-42265953D01*
X140488609Y-42472944D01*
X140575380Y-42667378D01*
X140578653Y-42672132D01*
X140578654Y-42672133D01*
X140580880Y-42675365D01*
X140696131Y-42842744D01*
X140700218Y-42846824D01*
X140700219Y-42846825D01*
X140842730Y-42989089D01*
X140842735Y-42989093D01*
X140846817Y-42993168D01*
X141022393Y-43113613D01*
X141119686Y-43156829D01*
X141211701Y-43197700D01*
X141211705Y-43197701D01*
X141216979Y-43200044D01*
X141222600Y-43201388D01*
X141222599Y-43201388D01*
X141419059Y-43248373D01*
X141419063Y-43248374D01*
X141424057Y-43249568D01*
X141460285Y-43252165D01*
X141518513Y-43256339D01*
X141518521Y-43256339D01*
X141520763Y-43256500D01*
X141558606Y-43256500D01*
X142379156Y-43256499D01*
X142447277Y-43276501D01*
X142468251Y-43293404D01*
X151219595Y-52044748D01*
X151253621Y-52107060D01*
X151256500Y-52133843D01*
X151256500Y-55716135D01*
X151244695Y-55769385D01*
X151165716Y-55938757D01*
X151164294Y-55944065D01*
X151164293Y-55944067D01*
X151148511Y-56002966D01*
X151106457Y-56159913D01*
X151086502Y-56388000D01*
X151106457Y-56616087D01*
X151122844Y-56677242D01*
X151121154Y-56748219D01*
X151081360Y-56807015D01*
X151016096Y-56834963D01*
X150946083Y-56823190D01*
X150909983Y-56796033D01*
X150909938Y-56796082D01*
X150909453Y-56795634D01*
X150849537Y-56740248D01*
X150845972Y-56736819D01*
X144085405Y-49976252D01*
X144051379Y-49913940D01*
X144048500Y-49887157D01*
X144048499Y-49031068D01*
X144048499Y-49028764D01*
X144041277Y-48930047D01*
X143991391Y-48723056D01*
X143904620Y-48528622D01*
X143783869Y-48353256D01*
X143779781Y-48349175D01*
X143637270Y-48206911D01*
X143637265Y-48206907D01*
X143633183Y-48202832D01*
X143457607Y-48082387D01*
X143360314Y-48039171D01*
X143268299Y-47998300D01*
X143268295Y-47998299D01*
X143263021Y-47995956D01*
X143225753Y-47987043D01*
X143060941Y-47947627D01*
X143060937Y-47947626D01*
X143055943Y-47946432D01*
X143019715Y-47943835D01*
X142961487Y-47939661D01*
X142961479Y-47939661D01*
X142959237Y-47939500D01*
X142246457Y-47939500D01*
X141520764Y-47939501D01*
X141518471Y-47939669D01*
X141518464Y-47939669D01*
X141427182Y-47946347D01*
X141427178Y-47946348D01*
X141422047Y-47946723D01*
X141215056Y-47996609D01*
X141020622Y-48083380D01*
X141015868Y-48086653D01*
X141015867Y-48086654D01*
X140851886Y-48199566D01*
X140845256Y-48204131D01*
X140841176Y-48208218D01*
X140841175Y-48208219D01*
X140698911Y-48350730D01*
X140698907Y-48350735D01*
X140694832Y-48354817D01*
X140574387Y-48530393D01*
X140487956Y-48724979D01*
X140438432Y-48932057D01*
X140431500Y-49028763D01*
X140431501Y-50467236D01*
X140431669Y-50469529D01*
X140431669Y-50469536D01*
X140435518Y-50522140D01*
X140438723Y-50565953D01*
X140488609Y-50772944D01*
X140575380Y-50967378D01*
X140578653Y-50972132D01*
X140578654Y-50972133D01*
X140690492Y-51134554D01*
X140696131Y-51142744D01*
X140700218Y-51146824D01*
X140700219Y-51146825D01*
X140842730Y-51289089D01*
X140842735Y-51289093D01*
X140846817Y-51293168D01*
X140851578Y-51296434D01*
X141009080Y-51404480D01*
X141022393Y-51413613D01*
X141096501Y-51446530D01*
X141211701Y-51497700D01*
X141211705Y-51497701D01*
X141216979Y-51500044D01*
X141222600Y-51501388D01*
X141222599Y-51501388D01*
X141419059Y-51548373D01*
X141419063Y-51548374D01*
X141424057Y-51549568D01*
X141460285Y-51552165D01*
X141518513Y-51556339D01*
X141518521Y-51556339D01*
X141520763Y-51556500D01*
X141558606Y-51556500D01*
X142379156Y-51556499D01*
X142447277Y-51576501D01*
X142468251Y-51593404D01*
X145251252Y-54376405D01*
X145285278Y-54438717D01*
X145280213Y-54509532D01*
X145237666Y-54566368D01*
X145171146Y-54591179D01*
X145162157Y-54591500D01*
X144299866Y-54591500D01*
X144237684Y-54598255D01*
X144101295Y-54649385D01*
X143984739Y-54736739D01*
X143979358Y-54743919D01*
X143932782Y-54806065D01*
X143875923Y-54848580D01*
X143831956Y-54856500D01*
X143616537Y-54856500D01*
X143548416Y-54836498D01*
X143538447Y-54829384D01*
X143530123Y-54822810D01*
X143525607Y-54820317D01*
X143525604Y-54820315D01*
X143331879Y-54713373D01*
X143331875Y-54713371D01*
X143327355Y-54710876D01*
X143322486Y-54709152D01*
X143322482Y-54709150D01*
X143113903Y-54635288D01*
X143113899Y-54635287D01*
X143109028Y-54633562D01*
X143103935Y-54632655D01*
X143103932Y-54632654D01*
X142886095Y-54593851D01*
X142886089Y-54593850D01*
X142881006Y-54592945D01*
X142808096Y-54592054D01*
X142654581Y-54590179D01*
X142654579Y-54590179D01*
X142649411Y-54590116D01*
X142420464Y-54625150D01*
X142200314Y-54697106D01*
X142195726Y-54699494D01*
X142195722Y-54699496D01*
X142070935Y-54764456D01*
X141994872Y-54804052D01*
X141990739Y-54807155D01*
X141990736Y-54807157D01*
X141813790Y-54940012D01*
X141809655Y-54943117D01*
X141806083Y-54946855D01*
X141672130Y-55087029D01*
X141649639Y-55110564D01*
X141602836Y-55179174D01*
X141547927Y-55224175D01*
X141477402Y-55232346D01*
X141413655Y-55201092D01*
X141392959Y-55176609D01*
X141370577Y-55142013D01*
X141370576Y-55142012D01*
X141367764Y-55137665D01*
X141334877Y-55101522D01*
X141240260Y-54997540D01*
X141211887Y-54966358D01*
X141207836Y-54963159D01*
X141207832Y-54963155D01*
X141034177Y-54826011D01*
X141034172Y-54826008D01*
X141030123Y-54822810D01*
X141025607Y-54820317D01*
X141025604Y-54820315D01*
X140831879Y-54713373D01*
X140831875Y-54713371D01*
X140827355Y-54710876D01*
X140822486Y-54709152D01*
X140822482Y-54709150D01*
X140613903Y-54635288D01*
X140613899Y-54635287D01*
X140609028Y-54633562D01*
X140603935Y-54632655D01*
X140603932Y-54632654D01*
X140386095Y-54593851D01*
X140386089Y-54593850D01*
X140381006Y-54592945D01*
X140308096Y-54592054D01*
X140154581Y-54590179D01*
X140154579Y-54590179D01*
X140149411Y-54590116D01*
X139920464Y-54625150D01*
X139700314Y-54697106D01*
X139695726Y-54699494D01*
X139695722Y-54699496D01*
X139570935Y-54764456D01*
X139494872Y-54804052D01*
X139490739Y-54807155D01*
X139490736Y-54807157D01*
X139313790Y-54940012D01*
X139309655Y-54943117D01*
X139306083Y-54946855D01*
X139172130Y-55087029D01*
X139149639Y-55110564D01*
X139146730Y-55114829D01*
X139146724Y-55114837D01*
X139131152Y-55137665D01*
X139019119Y-55301899D01*
X138921602Y-55511981D01*
X138859707Y-55735169D01*
X138835095Y-55965469D01*
X138835392Y-55970622D01*
X138835392Y-55970625D01*
X138848129Y-56191529D01*
X138848427Y-56196697D01*
X138849564Y-56201743D01*
X138849565Y-56201749D01*
X138872019Y-56301383D01*
X138899346Y-56422642D01*
X138901288Y-56427424D01*
X138901289Y-56427428D01*
X138977896Y-56616087D01*
X138986484Y-56637237D01*
X139107501Y-56834719D01*
X139259147Y-57009784D01*
X139437349Y-57157730D01*
X139441812Y-57160338D01*
X139441815Y-57160340D01*
X139455713Y-57168461D01*
X139506834Y-57198333D01*
X139510070Y-57200224D01*
X139558794Y-57251862D01*
X139572500Y-57309012D01*
X139572500Y-61813073D01*
X139552498Y-61881194D01*
X139498842Y-61927687D01*
X139428568Y-61937791D01*
X139366695Y-61910578D01*
X139183881Y-61760946D01*
X138977106Y-61634234D01*
X138940092Y-61611552D01*
X138940091Y-61611552D01*
X138936430Y-61609308D01*
X138918106Y-61601264D01*
X138760471Y-61532067D01*
X138670689Y-61492655D01*
X138391574Y-61413148D01*
X138104252Y-61372255D01*
X137951879Y-61371457D01*
X137818324Y-61370758D01*
X137818318Y-61370758D01*
X137814038Y-61370736D01*
X137809794Y-61371295D01*
X137809790Y-61371295D01*
X137705426Y-61385035D01*
X137526303Y-61408617D01*
X137522163Y-61409750D01*
X137522161Y-61409750D01*
X137503764Y-61414783D01*
X137246372Y-61485198D01*
X136979423Y-61599061D01*
X136975742Y-61601264D01*
X136734079Y-61745896D01*
X136734075Y-61745899D01*
X136730397Y-61748100D01*
X136503903Y-61929556D01*
X136500959Y-61932658D01*
X136500955Y-61932662D01*
X136315325Y-62128275D01*
X136304130Y-62140072D01*
X136134776Y-62375754D01*
X135998975Y-62632238D01*
X135997503Y-62636261D01*
X135997501Y-62636265D01*
X135928727Y-62824197D01*
X135899238Y-62904780D01*
X135837413Y-63188336D01*
X135814643Y-63477659D01*
X135831349Y-63767395D01*
X135832174Y-63771600D01*
X135832175Y-63771608D01*
X135843528Y-63829472D01*
X135887222Y-64052184D01*
X135888609Y-64056234D01*
X135888610Y-64056239D01*
X135963946Y-64276276D01*
X135981229Y-64326754D01*
X136010074Y-64384106D01*
X136075603Y-64514396D01*
X136111629Y-64586027D01*
X136276010Y-64825203D01*
X136471331Y-65039857D01*
X136474620Y-65042607D01*
X136690683Y-65223265D01*
X136690688Y-65223269D01*
X136693975Y-65226017D01*
X136786732Y-65284203D01*
X136936185Y-65377955D01*
X136936189Y-65377957D01*
X136939825Y-65380238D01*
X136943735Y-65382003D01*
X136943736Y-65382004D01*
X137200419Y-65497901D01*
X137200423Y-65497903D01*
X137204331Y-65499667D01*
X137208451Y-65500887D01*
X137208450Y-65500887D01*
X137478484Y-65580875D01*
X137478488Y-65580876D01*
X137482597Y-65582093D01*
X137486834Y-65582741D01*
X137486837Y-65582742D01*
X137727500Y-65619569D01*
X137769475Y-65625992D01*
X137917275Y-65628314D01*
X138055366Y-65630483D01*
X138055372Y-65630483D01*
X138059657Y-65630550D01*
X138347773Y-65595684D01*
X138628491Y-65522039D01*
X138896618Y-65410978D01*
X139127041Y-65276329D01*
X139143487Y-65266719D01*
X139143488Y-65266718D01*
X139147190Y-65264555D01*
X139368753Y-65090827D01*
X139434702Y-65064535D01*
X139504397Y-65078070D01*
X139555709Y-65127137D01*
X139572500Y-65189981D01*
X139572500Y-73498279D01*
X139552498Y-73566400D01*
X139498842Y-73612893D01*
X139428568Y-73622997D01*
X139363988Y-73593503D01*
X139332305Y-73551529D01*
X139315849Y-73516238D01*
X139315846Y-73516233D01*
X139313523Y-73511251D01*
X139213365Y-73368211D01*
X139185357Y-73328211D01*
X139185355Y-73328208D01*
X139182198Y-73323700D01*
X139020300Y-73161802D01*
X139015792Y-73158645D01*
X139015789Y-73158643D01*
X138891850Y-73071860D01*
X138832749Y-73030477D01*
X138827767Y-73028154D01*
X138827762Y-73028151D01*
X138630225Y-72936039D01*
X138630224Y-72936039D01*
X138625243Y-72933716D01*
X138619935Y-72932294D01*
X138619933Y-72932293D01*
X138409402Y-72875881D01*
X138409400Y-72875881D01*
X138404087Y-72874457D01*
X138176000Y-72854502D01*
X137947913Y-72874457D01*
X137942600Y-72875881D01*
X137942598Y-72875881D01*
X137732067Y-72932293D01*
X137732065Y-72932294D01*
X137726757Y-72933716D01*
X137721776Y-72936039D01*
X137721775Y-72936039D01*
X137524238Y-73028151D01*
X137524233Y-73028154D01*
X137519251Y-73030477D01*
X137460150Y-73071860D01*
X137336211Y-73158643D01*
X137336208Y-73158645D01*
X137331700Y-73161802D01*
X137169802Y-73323700D01*
X137166645Y-73328208D01*
X137166643Y-73328211D01*
X137138635Y-73368211D01*
X137038477Y-73511251D01*
X137036154Y-73516233D01*
X137036151Y-73516238D01*
X136962599Y-73673972D01*
X136941716Y-73718757D01*
X136940294Y-73724065D01*
X136940293Y-73724067D01*
X136898589Y-73879707D01*
X136882457Y-73939913D01*
X136862502Y-74168000D01*
X136882457Y-74396087D01*
X136941716Y-74617243D01*
X136944039Y-74622224D01*
X136944039Y-74622225D01*
X137020695Y-74786615D01*
X137032500Y-74839865D01*
X137032500Y-76544135D01*
X137020695Y-76597385D01*
X136944041Y-76761772D01*
X136941716Y-76766757D01*
X136882457Y-76987913D01*
X136862502Y-77216000D01*
X136882457Y-77444087D01*
X136883881Y-77449400D01*
X136883881Y-77449402D01*
X136911565Y-77552717D01*
X136941716Y-77665243D01*
X136944039Y-77670224D01*
X136944039Y-77670225D01*
X137020695Y-77834615D01*
X137032500Y-77887865D01*
X137032500Y-77982073D01*
X137012498Y-78050194D01*
X136995595Y-78071168D01*
X133436609Y-81630154D01*
X133374297Y-81664180D01*
X133303482Y-81659115D01*
X133246646Y-81616568D01*
X133233320Y-81594310D01*
X133219417Y-81564494D01*
X133213931Y-81554994D01*
X133177491Y-81502952D01*
X133167012Y-81494576D01*
X133153566Y-81501644D01*
X131364923Y-83290287D01*
X131358493Y-83302062D01*
X131367789Y-83314077D01*
X131418994Y-83349931D01*
X131428494Y-83355417D01*
X131458310Y-83369320D01*
X131511594Y-83416237D01*
X131531055Y-83484514D01*
X131510513Y-83552474D01*
X131494154Y-83572609D01*
X131411168Y-83655595D01*
X131348856Y-83689621D01*
X131322073Y-83692500D01*
X128179865Y-83692500D01*
X128126615Y-83680695D01*
X128098779Y-83667715D01*
X127957243Y-83601716D01*
X127899184Y-83586159D01*
X127842700Y-83553547D01*
X126510628Y-82221475D01*
X130767483Y-82221475D01*
X130786472Y-82438519D01*
X130788375Y-82449312D01*
X130844764Y-82659761D01*
X130848510Y-82670053D01*
X130940586Y-82867511D01*
X130946069Y-82877006D01*
X130982509Y-82929048D01*
X130992988Y-82937424D01*
X131006434Y-82930356D01*
X131707978Y-82228812D01*
X131715592Y-82214868D01*
X131715461Y-82213035D01*
X131711210Y-82206420D01*
X131005713Y-81500923D01*
X130993938Y-81494493D01*
X130981923Y-81503789D01*
X130946069Y-81554994D01*
X130940586Y-81564489D01*
X130848510Y-81761947D01*
X130844764Y-81772239D01*
X130788375Y-81982688D01*
X130786472Y-81993481D01*
X130767483Y-82210525D01*
X130767483Y-82221475D01*
X126510628Y-82221475D01*
X125418141Y-81128988D01*
X131358576Y-81128988D01*
X131365644Y-81142434D01*
X132067188Y-81843978D01*
X132081132Y-81851592D01*
X132082965Y-81851461D01*
X132089580Y-81847210D01*
X132795077Y-81141713D01*
X132801507Y-81129938D01*
X132792211Y-81117923D01*
X132741006Y-81082069D01*
X132731511Y-81076586D01*
X132534053Y-80984510D01*
X132523761Y-80980764D01*
X132313312Y-80924375D01*
X132302519Y-80922472D01*
X132085475Y-80903483D01*
X132074525Y-80903483D01*
X131857481Y-80922472D01*
X131846688Y-80924375D01*
X131636239Y-80980764D01*
X131625947Y-80984510D01*
X131428489Y-81076586D01*
X131418994Y-81082069D01*
X131366952Y-81118509D01*
X131358576Y-81128988D01*
X125418141Y-81128988D01*
X122910503Y-78621350D01*
X122876477Y-78559038D01*
X122881542Y-78488223D01*
X122924089Y-78431387D01*
X122946348Y-78418060D01*
X123079762Y-78355849D01*
X123079767Y-78355846D01*
X123084749Y-78353523D01*
X123229514Y-78252157D01*
X123267789Y-78225357D01*
X123267792Y-78225355D01*
X123272300Y-78222198D01*
X123434198Y-78060300D01*
X123441275Y-78050194D01*
X123542080Y-77906229D01*
X123565523Y-77872749D01*
X123567846Y-77867767D01*
X123567849Y-77867762D01*
X123583805Y-77833543D01*
X123630722Y-77780258D01*
X123698999Y-77760797D01*
X123766959Y-77781339D01*
X123812195Y-77833543D01*
X123828151Y-77867762D01*
X123828154Y-77867767D01*
X123830477Y-77872749D01*
X123853920Y-77906229D01*
X123954726Y-78050194D01*
X123961802Y-78060300D01*
X124123700Y-78222198D01*
X124128208Y-78225355D01*
X124128211Y-78225357D01*
X124166486Y-78252157D01*
X124311251Y-78353523D01*
X124316233Y-78355846D01*
X124316238Y-78355849D01*
X124421591Y-78404975D01*
X124518757Y-78450284D01*
X124524068Y-78451707D01*
X124524071Y-78451708D01*
X124576816Y-78465841D01*
X124633300Y-78498453D01*
X126161151Y-80026304D01*
X126166788Y-80032322D01*
X126209494Y-80081019D01*
X126214029Y-80084594D01*
X126214030Y-80084595D01*
X126278982Y-80135798D01*
X126281547Y-80137876D01*
X126345100Y-80190734D01*
X126345105Y-80190738D01*
X126349540Y-80194426D01*
X126354574Y-80197245D01*
X126357584Y-80199314D01*
X126366854Y-80205508D01*
X126369999Y-80207551D01*
X126374537Y-80211128D01*
X126379645Y-80213816D01*
X126379649Y-80213818D01*
X126452816Y-80252312D01*
X126455706Y-80253882D01*
X126532904Y-80297115D01*
X126538376Y-80298972D01*
X126541776Y-80300486D01*
X126551987Y-80304873D01*
X126555421Y-80306295D01*
X126560527Y-80308982D01*
X126566041Y-80310694D01*
X126566043Y-80310695D01*
X126644999Y-80335212D01*
X126648135Y-80336231D01*
X126701280Y-80354271D01*
X126731912Y-80364669D01*
X126737625Y-80365498D01*
X126741138Y-80366341D01*
X126752151Y-80368833D01*
X126755718Y-80369591D01*
X126761234Y-80371304D01*
X126766962Y-80371982D01*
X126766967Y-80371983D01*
X126815257Y-80377698D01*
X126849118Y-80381706D01*
X126852340Y-80382130D01*
X126939897Y-80394825D01*
X127022054Y-80391597D01*
X127027001Y-80391500D01*
X130005195Y-80391500D01*
X130013436Y-80391770D01*
X130078061Y-80396006D01*
X130165973Y-80385601D01*
X130169186Y-80385264D01*
X130257279Y-80377169D01*
X130262839Y-80375601D01*
X130266412Y-80374939D01*
X130277415Y-80372750D01*
X130281028Y-80371982D01*
X130286765Y-80371303D01*
X130371276Y-80345062D01*
X130374373Y-80344146D01*
X130459549Y-80320123D01*
X130464737Y-80317565D01*
X130468188Y-80316240D01*
X130478566Y-80312099D01*
X130481953Y-80310696D01*
X130487473Y-80308982D01*
X130565746Y-80267801D01*
X130568682Y-80266305D01*
X130593863Y-80253887D01*
X130648037Y-80227171D01*
X130652668Y-80223713D01*
X130655871Y-80221750D01*
X130665258Y-80215827D01*
X130668351Y-80213818D01*
X130673463Y-80211129D01*
X130742956Y-80156344D01*
X130745526Y-80154373D01*
X130811801Y-80104884D01*
X130811808Y-80104877D01*
X130816429Y-80101427D01*
X130828821Y-80088022D01*
X130872262Y-80041027D01*
X130875692Y-80037461D01*
X132414700Y-78498453D01*
X132471184Y-78465841D01*
X132523929Y-78451708D01*
X132523932Y-78451707D01*
X132529243Y-78450284D01*
X132626409Y-78404975D01*
X132731762Y-78355849D01*
X132731767Y-78355846D01*
X132736749Y-78353523D01*
X132881514Y-78252157D01*
X132919789Y-78225357D01*
X132919792Y-78225355D01*
X132924300Y-78222198D01*
X133086198Y-78060300D01*
X133093275Y-78050194D01*
X133194080Y-77906229D01*
X133217523Y-77872749D01*
X133219846Y-77867767D01*
X133219849Y-77867762D01*
X133311961Y-77670225D01*
X133311961Y-77670224D01*
X133314284Y-77665243D01*
X133344436Y-77552717D01*
X133372119Y-77449402D01*
X133372119Y-77449400D01*
X133373543Y-77444087D01*
X133393498Y-77216000D01*
X133373543Y-76987913D01*
X133314284Y-76766757D01*
X133311961Y-76761775D01*
X133219849Y-76564238D01*
X133219846Y-76564233D01*
X133217523Y-76559251D01*
X133086198Y-76371700D01*
X132924300Y-76209802D01*
X132919792Y-76206645D01*
X132919789Y-76206643D01*
X132841611Y-76151902D01*
X132736749Y-76078477D01*
X132731767Y-76076154D01*
X132731762Y-76076151D01*
X132534225Y-75984039D01*
X132534224Y-75984039D01*
X132529243Y-75981716D01*
X132523935Y-75980294D01*
X132523933Y-75980293D01*
X132313402Y-75923881D01*
X132313400Y-75923881D01*
X132308087Y-75922457D01*
X132080000Y-75902502D01*
X131851913Y-75922457D01*
X131846600Y-75923881D01*
X131846598Y-75923881D01*
X131636067Y-75980293D01*
X131636065Y-75980294D01*
X131630757Y-75981716D01*
X131625776Y-75984039D01*
X131625775Y-75984039D01*
X131428238Y-76076151D01*
X131428233Y-76076154D01*
X131423251Y-76078477D01*
X131318389Y-76151902D01*
X131240211Y-76206643D01*
X131240208Y-76206645D01*
X131235700Y-76209802D01*
X131073802Y-76371700D01*
X130942477Y-76559251D01*
X130940154Y-76564233D01*
X130940151Y-76564238D01*
X130924695Y-76597385D01*
X130845716Y-76766757D01*
X130844293Y-76772067D01*
X130844292Y-76772071D01*
X130830159Y-76824816D01*
X130797547Y-76881300D01*
X129611252Y-78067595D01*
X129548940Y-78101621D01*
X129522157Y-78104500D01*
X128725293Y-78104500D01*
X128657172Y-78084498D01*
X128610679Y-78030842D01*
X128600575Y-77960568D01*
X128622080Y-77906229D01*
X128622748Y-77905275D01*
X128645523Y-77872749D01*
X128647846Y-77867767D01*
X128647849Y-77867762D01*
X128739959Y-77670228D01*
X128742284Y-77665243D01*
X128757841Y-77607184D01*
X128790453Y-77550700D01*
X130477871Y-75863283D01*
X132185801Y-74155353D01*
X132191819Y-74149716D01*
X132226994Y-74118868D01*
X132240508Y-74107017D01*
X132268700Y-74071256D01*
X132295274Y-74037547D01*
X132297349Y-74034985D01*
X132350219Y-73971415D01*
X132350220Y-73971414D01*
X132353914Y-73966972D01*
X132356735Y-73961934D01*
X132358835Y-73958879D01*
X132365041Y-73949590D01*
X132367044Y-73946506D01*
X132370617Y-73941974D01*
X132373301Y-73936873D01*
X132373304Y-73936868D01*
X132411808Y-73863682D01*
X132413383Y-73860782D01*
X132453778Y-73788652D01*
X132456603Y-73783608D01*
X132458461Y-73778137D01*
X132459961Y-73774767D01*
X132464376Y-73764489D01*
X132465780Y-73761100D01*
X132468471Y-73755984D01*
X132494700Y-73671514D01*
X132495719Y-73668377D01*
X132514553Y-73612893D01*
X132524158Y-73584599D01*
X132524988Y-73578878D01*
X132525842Y-73575320D01*
X132528322Y-73564360D01*
X132529080Y-73560793D01*
X132530793Y-73555277D01*
X132541195Y-73467393D01*
X132541623Y-73464142D01*
X132546917Y-73427629D01*
X132554314Y-73376614D01*
X132551086Y-73294457D01*
X132550989Y-73289510D01*
X132550989Y-62760313D01*
X132570991Y-62692192D01*
X132624647Y-62645699D01*
X132694921Y-62635595D01*
X132709600Y-62638606D01*
X132862687Y-62679625D01*
X132873481Y-62681528D01*
X133090525Y-62700517D01*
X133101475Y-62700517D01*
X133318519Y-62681528D01*
X133329312Y-62679625D01*
X133539761Y-62623236D01*
X133550053Y-62619490D01*
X133747511Y-62527414D01*
X133757006Y-62521931D01*
X133809048Y-62485491D01*
X133817424Y-62475012D01*
X133810356Y-62461566D01*
X132825885Y-61477095D01*
X132791859Y-61414783D01*
X132793694Y-61389132D01*
X133460408Y-61389132D01*
X133460539Y-61390965D01*
X133464790Y-61397580D01*
X134170287Y-62103077D01*
X134182062Y-62109507D01*
X134194077Y-62100211D01*
X134229931Y-62049006D01*
X134235414Y-62039511D01*
X134327490Y-61842053D01*
X134331236Y-61831761D01*
X134387625Y-61621312D01*
X134389528Y-61610519D01*
X134408517Y-61393475D01*
X134408517Y-61382525D01*
X134389528Y-61165481D01*
X134387625Y-61154688D01*
X134331236Y-60944239D01*
X134327490Y-60933947D01*
X134235414Y-60736489D01*
X134229931Y-60726994D01*
X134193491Y-60674952D01*
X134183012Y-60666576D01*
X134169566Y-60673644D01*
X133468022Y-61375188D01*
X133460408Y-61389132D01*
X132793694Y-61389132D01*
X132796924Y-61343968D01*
X132825885Y-61298905D01*
X133811077Y-60313713D01*
X133817507Y-60301938D01*
X133808211Y-60289923D01*
X133757006Y-60254069D01*
X133747511Y-60248586D01*
X133550053Y-60156510D01*
X133539761Y-60152764D01*
X133329312Y-60096375D01*
X133318519Y-60094472D01*
X133101475Y-60075483D01*
X133090525Y-60075483D01*
X132873481Y-60094472D01*
X132862687Y-60096375D01*
X132709600Y-60137394D01*
X132638623Y-60135704D01*
X132579828Y-60095910D01*
X132551880Y-60030645D01*
X132550989Y-60015687D01*
X132550989Y-57760830D01*
X132570991Y-57692709D01*
X132624647Y-57646216D01*
X132694921Y-57636112D01*
X132709600Y-57639123D01*
X132862598Y-57680119D01*
X132862600Y-57680119D01*
X132867913Y-57681543D01*
X133096000Y-57701498D01*
X133324087Y-57681543D01*
X133329400Y-57680119D01*
X133329402Y-57680119D01*
X133539933Y-57623707D01*
X133539935Y-57623706D01*
X133545243Y-57622284D01*
X133550225Y-57619961D01*
X133747762Y-57527849D01*
X133747767Y-57527846D01*
X133752749Y-57525523D01*
X133915996Y-57411216D01*
X133935789Y-57397357D01*
X133935792Y-57397355D01*
X133940300Y-57394198D01*
X134102198Y-57232300D01*
X134117118Y-57210993D01*
X134210573Y-57077525D01*
X134233523Y-57044749D01*
X134235846Y-57039767D01*
X134235849Y-57039762D01*
X134327961Y-56842225D01*
X134327961Y-56842224D01*
X134330284Y-56837243D01*
X134332141Y-56830315D01*
X134388119Y-56621402D01*
X134388120Y-56621399D01*
X134389543Y-56616087D01*
X134409498Y-56388000D01*
X134389543Y-56159913D01*
X134347489Y-56002966D01*
X134331707Y-55944067D01*
X134331706Y-55944065D01*
X134330284Y-55938757D01*
X134251305Y-55769385D01*
X134239500Y-55716135D01*
X134239500Y-51142795D01*
X134239770Y-51134554D01*
X134242673Y-51090255D01*
X134244005Y-51069939D01*
X134233608Y-50982092D01*
X134233264Y-50978813D01*
X134225698Y-50896477D01*
X134225698Y-50896476D01*
X134225169Y-50890721D01*
X134223601Y-50885162D01*
X134222939Y-50881588D01*
X134220750Y-50870585D01*
X134219982Y-50866972D01*
X134219303Y-50861235D01*
X134193062Y-50776724D01*
X134192139Y-50773605D01*
X134191418Y-50771046D01*
X134168123Y-50688451D01*
X134165565Y-50683263D01*
X134164240Y-50679812D01*
X134160099Y-50669434D01*
X134158696Y-50666047D01*
X134156982Y-50660527D01*
X134115801Y-50582254D01*
X134114305Y-50579318D01*
X134104197Y-50558821D01*
X134075171Y-50499963D01*
X134071713Y-50495332D01*
X134069750Y-50492129D01*
X134063827Y-50482742D01*
X134061818Y-50479649D01*
X134059129Y-50474537D01*
X134004344Y-50405044D01*
X134002373Y-50402474D01*
X133952884Y-50336199D01*
X133952877Y-50336192D01*
X133949427Y-50331571D01*
X133889026Y-50275737D01*
X133885461Y-50272308D01*
X125289405Y-41676252D01*
X125255379Y-41613940D01*
X125252500Y-41587157D01*
X125252499Y-40731068D01*
X125252499Y-40728764D01*
X125245277Y-40630047D01*
X125195391Y-40423056D01*
X125108620Y-40228622D01*
X125048686Y-40141580D01*
X124991144Y-40058012D01*
X124991143Y-40058011D01*
X124987869Y-40053256D01*
X124983781Y-40049175D01*
X124841270Y-39906911D01*
X124841265Y-39906907D01*
X124837183Y-39902832D01*
X124832421Y-39899565D01*
X124832417Y-39899562D01*
X124827767Y-39896372D01*
X124782908Y-39841343D01*
X124774921Y-39770797D01*
X124806342Y-39707132D01*
X124821601Y-39693544D01*
X124821562Y-39693498D01*
X124823770Y-39691612D01*
X124824974Y-39690540D01*
X124825318Y-39690290D01*
X125016252Y-39527216D01*
X125023216Y-39520252D01*
X125186288Y-39329321D01*
X125192080Y-39321348D01*
X125323271Y-39107264D01*
X125327752Y-39098470D01*
X125423834Y-38866508D01*
X125426883Y-38857123D01*
X125484820Y-38615798D01*
X125482546Y-38604970D01*
X125471082Y-38602000D01*
X121418978Y-38602000D01*
X121404185Y-38606344D01*
X121402797Y-38614200D01*
X121461117Y-38857123D01*
X121464166Y-38866508D01*
X121560248Y-39098470D01*
X121564729Y-39107264D01*
X121695920Y-39321348D01*
X121701712Y-39329321D01*
X121864784Y-39520252D01*
X121871748Y-39527216D01*
X122062679Y-39690288D01*
X122063160Y-39690637D01*
X122063298Y-39690817D01*
X122066438Y-39693498D01*
X122065875Y-39694158D01*
X122106514Y-39746860D01*
X122112588Y-39817596D01*
X122079455Y-39880387D01*
X122060557Y-39896349D01*
X122054015Y-39900854D01*
X122049256Y-39904131D01*
X122045176Y-39908218D01*
X122045175Y-39908219D01*
X121902911Y-40050730D01*
X121902907Y-40050735D01*
X121898832Y-40054817D01*
X121895566Y-40059578D01*
X121847919Y-40129035D01*
X121778387Y-40230393D01*
X121776043Y-40235671D01*
X121696416Y-40414939D01*
X121691956Y-40424979D01*
X121642432Y-40632057D01*
X121635500Y-40728763D01*
X121635501Y-42167236D01*
X121635669Y-42169529D01*
X121635669Y-42169536D01*
X121640658Y-42237720D01*
X121642723Y-42265953D01*
X121692609Y-42472944D01*
X121779380Y-42667378D01*
X121782653Y-42672132D01*
X121782654Y-42672133D01*
X121784880Y-42675365D01*
X121900131Y-42842744D01*
X121904218Y-42846824D01*
X121904219Y-42846825D01*
X122046730Y-42989089D01*
X122046735Y-42989093D01*
X122050817Y-42993168D01*
X122226393Y-43113613D01*
X122323686Y-43156829D01*
X122415701Y-43197700D01*
X122415705Y-43197701D01*
X122420979Y-43200044D01*
X122426600Y-43201388D01*
X122426599Y-43201388D01*
X122623059Y-43248373D01*
X122623063Y-43248374D01*
X122628057Y-43249568D01*
X122664285Y-43252165D01*
X122722513Y-43256339D01*
X122722521Y-43256339D01*
X122724763Y-43256500D01*
X122762606Y-43256500D01*
X123583156Y-43256499D01*
X123651277Y-43276501D01*
X123672251Y-43293404D01*
X131915595Y-51536748D01*
X131949621Y-51599060D01*
X131952500Y-51625843D01*
X131952500Y-55716135D01*
X131940695Y-55769385D01*
X131861716Y-55938757D01*
X131860294Y-55944065D01*
X131860293Y-55944067D01*
X131844511Y-56002966D01*
X131802457Y-56159913D01*
X131801978Y-56165389D01*
X131801978Y-56165393D01*
X131799587Y-56192725D01*
X131799508Y-56193624D01*
X131773646Y-56259742D01*
X131716143Y-56301383D01*
X131645256Y-56305324D01*
X131584892Y-56271739D01*
X125289405Y-49976252D01*
X125255379Y-49913940D01*
X125252500Y-49887157D01*
X125252499Y-49031068D01*
X125252499Y-49028764D01*
X125245277Y-48930047D01*
X125195391Y-48723056D01*
X125108620Y-48528622D01*
X124987869Y-48353256D01*
X124983781Y-48349175D01*
X124841270Y-48206911D01*
X124841265Y-48206907D01*
X124837183Y-48202832D01*
X124661607Y-48082387D01*
X124564314Y-48039171D01*
X124472299Y-47998300D01*
X124472295Y-47998299D01*
X124467021Y-47995956D01*
X124429753Y-47987043D01*
X124264941Y-47947627D01*
X124264937Y-47947626D01*
X124259943Y-47946432D01*
X124223715Y-47943835D01*
X124165487Y-47939661D01*
X124165479Y-47939661D01*
X124163237Y-47939500D01*
X123450457Y-47939500D01*
X122724764Y-47939501D01*
X122722471Y-47939669D01*
X122722464Y-47939669D01*
X122631182Y-47946347D01*
X122631178Y-47946348D01*
X122626047Y-47946723D01*
X122419056Y-47996609D01*
X122224622Y-48083380D01*
X122219868Y-48086653D01*
X122219867Y-48086654D01*
X122055886Y-48199566D01*
X122049256Y-48204131D01*
X122045176Y-48208218D01*
X122045175Y-48208219D01*
X121902911Y-48350730D01*
X121902907Y-48350735D01*
X121898832Y-48354817D01*
X121778387Y-48530393D01*
X121691956Y-48724979D01*
X121642432Y-48932057D01*
X121635500Y-49028763D01*
X121635501Y-50467236D01*
X121635669Y-50469529D01*
X121635669Y-50469536D01*
X121639518Y-50522140D01*
X121642723Y-50565953D01*
X121692609Y-50772944D01*
X121779380Y-50967378D01*
X121782653Y-50972132D01*
X121782654Y-50972133D01*
X121894492Y-51134554D01*
X121900131Y-51142744D01*
X121904218Y-51146824D01*
X121904219Y-51146825D01*
X122046730Y-51289089D01*
X122046735Y-51289093D01*
X122050817Y-51293168D01*
X122055578Y-51296434D01*
X122213080Y-51404480D01*
X122226393Y-51413613D01*
X122300501Y-51446530D01*
X122415701Y-51497700D01*
X122415705Y-51497701D01*
X122420979Y-51500044D01*
X122426600Y-51501388D01*
X122426599Y-51501388D01*
X122623059Y-51548373D01*
X122623063Y-51548374D01*
X122628057Y-51549568D01*
X122664285Y-51552165D01*
X122722513Y-51556339D01*
X122722521Y-51556339D01*
X122724763Y-51556500D01*
X122762606Y-51556500D01*
X123583156Y-51556499D01*
X123651277Y-51576501D01*
X123672251Y-51593404D01*
X126455251Y-54376405D01*
X126489277Y-54438717D01*
X126484212Y-54509533D01*
X126441665Y-54566368D01*
X126375145Y-54591179D01*
X126366156Y-54591500D01*
X124995866Y-54591500D01*
X124933684Y-54598255D01*
X124797295Y-54649385D01*
X124680739Y-54736739D01*
X124675358Y-54743919D01*
X124628782Y-54806065D01*
X124571923Y-54848580D01*
X124527956Y-54856500D01*
X124312537Y-54856500D01*
X124244416Y-54836498D01*
X124234447Y-54829384D01*
X124226123Y-54822810D01*
X124221607Y-54820317D01*
X124221604Y-54820315D01*
X124027879Y-54713373D01*
X124027875Y-54713371D01*
X124023355Y-54710876D01*
X124018486Y-54709152D01*
X124018482Y-54709150D01*
X123809903Y-54635288D01*
X123809899Y-54635287D01*
X123805028Y-54633562D01*
X123799935Y-54632655D01*
X123799932Y-54632654D01*
X123582095Y-54593851D01*
X123582089Y-54593850D01*
X123577006Y-54592945D01*
X123504096Y-54592054D01*
X123350581Y-54590179D01*
X123350579Y-54590179D01*
X123345411Y-54590116D01*
X123116464Y-54625150D01*
X122896314Y-54697106D01*
X122891726Y-54699494D01*
X122891722Y-54699496D01*
X122766935Y-54764456D01*
X122690872Y-54804052D01*
X122686739Y-54807155D01*
X122686736Y-54807157D01*
X122509790Y-54940012D01*
X122505655Y-54943117D01*
X122502083Y-54946855D01*
X122368130Y-55087029D01*
X122345639Y-55110564D01*
X122298836Y-55179174D01*
X122243927Y-55224175D01*
X122173402Y-55232346D01*
X122109655Y-55201092D01*
X122088959Y-55176609D01*
X122066577Y-55142013D01*
X122066576Y-55142012D01*
X122063764Y-55137665D01*
X122030877Y-55101522D01*
X121936260Y-54997540D01*
X121907887Y-54966358D01*
X121903836Y-54963159D01*
X121903832Y-54963155D01*
X121730177Y-54826011D01*
X121730172Y-54826008D01*
X121726123Y-54822810D01*
X121721607Y-54820317D01*
X121721604Y-54820315D01*
X121527879Y-54713373D01*
X121527875Y-54713371D01*
X121523355Y-54710876D01*
X121518486Y-54709152D01*
X121518482Y-54709150D01*
X121309903Y-54635288D01*
X121309899Y-54635287D01*
X121305028Y-54633562D01*
X121299935Y-54632655D01*
X121299932Y-54632654D01*
X121082095Y-54593851D01*
X121082089Y-54593850D01*
X121077006Y-54592945D01*
X121004096Y-54592054D01*
X120850581Y-54590179D01*
X120850579Y-54590179D01*
X120845411Y-54590116D01*
X120616464Y-54625150D01*
X120396314Y-54697106D01*
X120391726Y-54699494D01*
X120391722Y-54699496D01*
X120266935Y-54764456D01*
X120190872Y-54804052D01*
X120186739Y-54807155D01*
X120186736Y-54807157D01*
X120009790Y-54940012D01*
X120005655Y-54943117D01*
X120002083Y-54946855D01*
X119868130Y-55087029D01*
X119845639Y-55110564D01*
X119842730Y-55114829D01*
X119842724Y-55114837D01*
X119827152Y-55137665D01*
X119715119Y-55301899D01*
X119617602Y-55511981D01*
X119555707Y-55735169D01*
X119531095Y-55965469D01*
X119531392Y-55970622D01*
X119531392Y-55970625D01*
X119544129Y-56191529D01*
X119544427Y-56196697D01*
X119545564Y-56201743D01*
X119545565Y-56201749D01*
X119568019Y-56301383D01*
X119595346Y-56422642D01*
X119597288Y-56427424D01*
X119597289Y-56427428D01*
X119673896Y-56616087D01*
X119682484Y-56637237D01*
X119803501Y-56834719D01*
X119955147Y-57009784D01*
X120133349Y-57157730D01*
X120333322Y-57274584D01*
X120549694Y-57357209D01*
X120554755Y-57358239D01*
X120554770Y-57358243D01*
X120676102Y-57382928D01*
X120738867Y-57416109D01*
X120773729Y-57477957D01*
X120776981Y-57506398D01*
X120776981Y-62472863D01*
X120756979Y-62540984D01*
X120703323Y-62587477D01*
X120633049Y-62597581D01*
X120568469Y-62568087D01*
X120539015Y-62530653D01*
X120470865Y-62398616D01*
X120468897Y-62394803D01*
X120302021Y-62157361D01*
X120248914Y-62100211D01*
X120107384Y-61947907D01*
X120107381Y-61947905D01*
X120104463Y-61944764D01*
X119879881Y-61760946D01*
X119673106Y-61634234D01*
X119636092Y-61611552D01*
X119636091Y-61611552D01*
X119632430Y-61609308D01*
X119614106Y-61601264D01*
X119456471Y-61532067D01*
X119366689Y-61492655D01*
X119087574Y-61413148D01*
X118800252Y-61372255D01*
X118647879Y-61371457D01*
X118514324Y-61370758D01*
X118514318Y-61370758D01*
X118510038Y-61370736D01*
X118505794Y-61371295D01*
X118505790Y-61371295D01*
X118401426Y-61385035D01*
X118222303Y-61408617D01*
X118218163Y-61409750D01*
X118218161Y-61409750D01*
X118199764Y-61414783D01*
X117942372Y-61485198D01*
X117675423Y-61599061D01*
X117671742Y-61601264D01*
X117430079Y-61745896D01*
X117430075Y-61745899D01*
X117426397Y-61748100D01*
X117199903Y-61929556D01*
X117196959Y-61932658D01*
X117196955Y-61932662D01*
X117011325Y-62128275D01*
X117000130Y-62140072D01*
X116830776Y-62375754D01*
X116694975Y-62632238D01*
X116693503Y-62636261D01*
X116693501Y-62636265D01*
X116624727Y-62824197D01*
X116595238Y-62904780D01*
X116533413Y-63188336D01*
X116510643Y-63477659D01*
X116527349Y-63767395D01*
X116528174Y-63771600D01*
X116528175Y-63771608D01*
X116539528Y-63829472D01*
X116583222Y-64052184D01*
X116584609Y-64056234D01*
X116584610Y-64056239D01*
X116659946Y-64276276D01*
X116677229Y-64326754D01*
X116706074Y-64384106D01*
X116771603Y-64514396D01*
X116807629Y-64586027D01*
X116972010Y-64825203D01*
X117167331Y-65039857D01*
X117170620Y-65042607D01*
X117386683Y-65223265D01*
X117386688Y-65223269D01*
X117389975Y-65226017D01*
X117482732Y-65284203D01*
X117632185Y-65377955D01*
X117632189Y-65377957D01*
X117635825Y-65380238D01*
X117639735Y-65382003D01*
X117639736Y-65382004D01*
X117896419Y-65497901D01*
X117896423Y-65497903D01*
X117900331Y-65499667D01*
X117904451Y-65500887D01*
X117904450Y-65500887D01*
X118174484Y-65580875D01*
X118174488Y-65580876D01*
X118178597Y-65582093D01*
X118182834Y-65582741D01*
X118182837Y-65582742D01*
X118423500Y-65619569D01*
X118465475Y-65625992D01*
X118613275Y-65628314D01*
X118751366Y-65630483D01*
X118751372Y-65630483D01*
X118755657Y-65630550D01*
X119043773Y-65595684D01*
X119324491Y-65522039D01*
X119592618Y-65410978D01*
X119823041Y-65276329D01*
X119839487Y-65266719D01*
X119839488Y-65266718D01*
X119843190Y-65264555D01*
X120071573Y-65085480D01*
X120273539Y-64877067D01*
X120445352Y-64643173D01*
X120540250Y-64468392D01*
X120590332Y-64418071D01*
X120659670Y-64402814D01*
X120726250Y-64427466D01*
X120768931Y-64484200D01*
X120776981Y-64528514D01*
X120776981Y-72951044D01*
X120756979Y-73019165D01*
X120703323Y-73065658D01*
X120633049Y-73075762D01*
X120578710Y-73054257D01*
X120567502Y-73046409D01*
X120544749Y-73030477D01*
X120539767Y-73028154D01*
X120539762Y-73028151D01*
X120342225Y-72936039D01*
X120342224Y-72936039D01*
X120337243Y-72933716D01*
X120331935Y-72932294D01*
X120331933Y-72932293D01*
X120121402Y-72875881D01*
X120121400Y-72875881D01*
X120116087Y-72874457D01*
X119888000Y-72854502D01*
X119659913Y-72874457D01*
X119654600Y-72875881D01*
X119654598Y-72875881D01*
X119444067Y-72932293D01*
X119444065Y-72932294D01*
X119438757Y-72933716D01*
X119433776Y-72936039D01*
X119433775Y-72936039D01*
X119269385Y-73012695D01*
X119216135Y-73024500D01*
X112818805Y-73024500D01*
X112810564Y-73024230D01*
X112801452Y-73023633D01*
X112745939Y-73019994D01*
X112658041Y-73030398D01*
X112654773Y-73030740D01*
X112566721Y-73038831D01*
X112561155Y-73040401D01*
X112557459Y-73041086D01*
X112546610Y-73043244D01*
X112542974Y-73044017D01*
X112537235Y-73044696D01*
X112452744Y-73070931D01*
X112449608Y-73071860D01*
X112435773Y-73075762D01*
X112364451Y-73095877D01*
X112359263Y-73098435D01*
X112355812Y-73099760D01*
X112345434Y-73103901D01*
X112342047Y-73105304D01*
X112336527Y-73107018D01*
X112331413Y-73109709D01*
X112331412Y-73109709D01*
X112258255Y-73148198D01*
X112255319Y-73149695D01*
X112175963Y-73188829D01*
X112171332Y-73192287D01*
X112168129Y-73194250D01*
X112158742Y-73200173D01*
X112155649Y-73202182D01*
X112150537Y-73204871D01*
X112081044Y-73259656D01*
X112078474Y-73261627D01*
X112012199Y-73311116D01*
X112012192Y-73311123D01*
X112007571Y-73314573D01*
X112003657Y-73318807D01*
X112003655Y-73318809D01*
X111951738Y-73374973D01*
X111948308Y-73378539D01*
X111086595Y-74240252D01*
X111024283Y-74274278D01*
X110953468Y-74269213D01*
X110896632Y-74226666D01*
X110871821Y-74160146D01*
X110871500Y-74151157D01*
X110871500Y-73315865D01*
X110883305Y-73262615D01*
X110959961Y-73098225D01*
X110959961Y-73098224D01*
X110962284Y-73093243D01*
X110969008Y-73068151D01*
X111020119Y-72877402D01*
X111020119Y-72877400D01*
X111021543Y-72872087D01*
X111041498Y-72644000D01*
X111021543Y-72415913D01*
X111020119Y-72410598D01*
X110963707Y-72200067D01*
X110963706Y-72200065D01*
X110962284Y-72194757D01*
X110883305Y-72025385D01*
X110871500Y-71972135D01*
X110871500Y-70827603D01*
X110891502Y-70759482D01*
X110896674Y-70752038D01*
X110978615Y-70642705D01*
X111029745Y-70506316D01*
X111036500Y-70444134D01*
X111036500Y-68747866D01*
X111029745Y-68685684D01*
X110978615Y-68549295D01*
X110891261Y-68432739D01*
X110774705Y-68345385D01*
X110638316Y-68294255D01*
X110576134Y-68287500D01*
X108879866Y-68287500D01*
X108817684Y-68294255D01*
X108681295Y-68345385D01*
X108564739Y-68432739D01*
X108477385Y-68549295D01*
X108426255Y-68685684D01*
X108419500Y-68747866D01*
X108419500Y-70444134D01*
X108426255Y-70506316D01*
X108477385Y-70642705D01*
X108559326Y-70752038D01*
X108584174Y-70818544D01*
X108584500Y-70827603D01*
X108584500Y-71972135D01*
X108572695Y-72025385D01*
X108493716Y-72194757D01*
X108492294Y-72200065D01*
X108492293Y-72200067D01*
X108435881Y-72410598D01*
X108434457Y-72415913D01*
X108414502Y-72644000D01*
X108434457Y-72872087D01*
X108435881Y-72877400D01*
X108435881Y-72877402D01*
X108486993Y-73068151D01*
X108493716Y-73093243D01*
X108496039Y-73098224D01*
X108496039Y-73098225D01*
X108572695Y-73262615D01*
X108584500Y-73315865D01*
X108584500Y-75946500D01*
X108564498Y-76014621D01*
X108510842Y-76061114D01*
X108458500Y-76072500D01*
X104303865Y-76072500D01*
X104250615Y-76060695D01*
X104086225Y-75984039D01*
X104086224Y-75984039D01*
X104081243Y-75981716D01*
X104075935Y-75980294D01*
X104075933Y-75980293D01*
X103865402Y-75923881D01*
X103865400Y-75923881D01*
X103860087Y-75922457D01*
X103632000Y-75902502D01*
X103403913Y-75922457D01*
X103398600Y-75923881D01*
X103398598Y-75923881D01*
X103188067Y-75980293D01*
X103188065Y-75980294D01*
X103182757Y-75981716D01*
X103177776Y-75984039D01*
X103177775Y-75984039D01*
X102980238Y-76076151D01*
X102980233Y-76076154D01*
X102975251Y-76078477D01*
X102870389Y-76151902D01*
X102792211Y-76206643D01*
X102792208Y-76206645D01*
X102787700Y-76209802D01*
X102625802Y-76371700D01*
X102494477Y-76559251D01*
X102492154Y-76564233D01*
X102492151Y-76564238D01*
X102400039Y-76761775D01*
X102397716Y-76766757D01*
X102338457Y-76987913D01*
X102318502Y-77216000D01*
X102338457Y-77444087D01*
X102339881Y-77449400D01*
X102339881Y-77449402D01*
X102367565Y-77552717D01*
X102397716Y-77665243D01*
X102400039Y-77670224D01*
X102400039Y-77670225D01*
X102492151Y-77867762D01*
X102492154Y-77867767D01*
X102494477Y-77872749D01*
X102517920Y-77906229D01*
X102618726Y-78050194D01*
X102625802Y-78060300D01*
X102787700Y-78222198D01*
X102792208Y-78225355D01*
X102792211Y-78225357D01*
X102830486Y-78252157D01*
X102975251Y-78353523D01*
X102980233Y-78355846D01*
X102980238Y-78355849D01*
X103142232Y-78431387D01*
X103182757Y-78450284D01*
X103188065Y-78451706D01*
X103188067Y-78451707D01*
X103398598Y-78508119D01*
X103398600Y-78508119D01*
X103403913Y-78509543D01*
X103632000Y-78529498D01*
X103860087Y-78509543D01*
X103865400Y-78508119D01*
X103865402Y-78508119D01*
X104075933Y-78451707D01*
X104075935Y-78451706D01*
X104081243Y-78450284D01*
X104250615Y-78371305D01*
X104303865Y-78359500D01*
X108496397Y-78359500D01*
X108564518Y-78379502D01*
X108571956Y-78384670D01*
X108681295Y-78466615D01*
X108817684Y-78517745D01*
X108861252Y-78522478D01*
X108876486Y-78524133D01*
X108876489Y-78524133D01*
X108879866Y-78524500D01*
X108883185Y-78524500D01*
X108950110Y-78548153D01*
X108985804Y-78594156D01*
X108987734Y-78593141D01*
X108993442Y-78604000D01*
X108993632Y-78604245D01*
X108993653Y-78604403D01*
X109013644Y-78642434D01*
X109715188Y-79343978D01*
X109729132Y-79351592D01*
X109730965Y-79351461D01*
X109737580Y-79347210D01*
X110443077Y-78641713D01*
X110465871Y-78599971D01*
X110468047Y-78589971D01*
X110518253Y-78539773D01*
X110571814Y-78524549D01*
X110572719Y-78524500D01*
X110576134Y-78524500D01*
X110579530Y-78524131D01*
X110579532Y-78524131D01*
X110591879Y-78522790D01*
X110638316Y-78517745D01*
X110774705Y-78466615D01*
X110891261Y-78379261D01*
X110978615Y-78262705D01*
X111029745Y-78126316D01*
X111036500Y-78064134D01*
X111036500Y-77576843D01*
X111056502Y-77508722D01*
X111073405Y-77487748D01*
X111345153Y-77216000D01*
X115018502Y-77216000D01*
X115038457Y-77444087D01*
X115039881Y-77449400D01*
X115039881Y-77449402D01*
X115067565Y-77552717D01*
X115097716Y-77665243D01*
X115100039Y-77670224D01*
X115100039Y-77670225D01*
X115192151Y-77867762D01*
X115192154Y-77867767D01*
X115194477Y-77872749D01*
X115217920Y-77906229D01*
X115318726Y-78050194D01*
X115325802Y-78060300D01*
X115487700Y-78222198D01*
X115492208Y-78225355D01*
X115492211Y-78225357D01*
X115530486Y-78252157D01*
X115675251Y-78353523D01*
X115680233Y-78355846D01*
X115680238Y-78355849D01*
X115842232Y-78431387D01*
X115882757Y-78450284D01*
X115888065Y-78451706D01*
X115888067Y-78451707D01*
X116098598Y-78508119D01*
X116098600Y-78508119D01*
X116103913Y-78509543D01*
X116332000Y-78529498D01*
X116560087Y-78509543D01*
X116565400Y-78508119D01*
X116565402Y-78508119D01*
X116775933Y-78451707D01*
X116775935Y-78451706D01*
X116781243Y-78450284D01*
X116821768Y-78431387D01*
X116983762Y-78355849D01*
X116983767Y-78355846D01*
X116988749Y-78353523D01*
X117133514Y-78252157D01*
X117171789Y-78225357D01*
X117171792Y-78225355D01*
X117176300Y-78222198D01*
X117338198Y-78060300D01*
X117345275Y-78050194D01*
X117446080Y-77906229D01*
X117469523Y-77872749D01*
X117471846Y-77867767D01*
X117471849Y-77867762D01*
X117563961Y-77670225D01*
X117563961Y-77670224D01*
X117566284Y-77665243D01*
X117596436Y-77552717D01*
X117624119Y-77449402D01*
X117624119Y-77449400D01*
X117625543Y-77444087D01*
X117645498Y-77216000D01*
X117625543Y-76987913D01*
X117566284Y-76766757D01*
X117563961Y-76761775D01*
X117471849Y-76564238D01*
X117471846Y-76564233D01*
X117469523Y-76559251D01*
X117338198Y-76371700D01*
X117176300Y-76209802D01*
X117171792Y-76206645D01*
X117171789Y-76206643D01*
X117093611Y-76151902D01*
X116988749Y-76078477D01*
X116983767Y-76076154D01*
X116983762Y-76076151D01*
X116786225Y-75984039D01*
X116786224Y-75984039D01*
X116781243Y-75981716D01*
X116775935Y-75980294D01*
X116775933Y-75980293D01*
X116565402Y-75923881D01*
X116565400Y-75923881D01*
X116560087Y-75922457D01*
X116332000Y-75902502D01*
X116103913Y-75922457D01*
X116098600Y-75923881D01*
X116098598Y-75923881D01*
X115888067Y-75980293D01*
X115888065Y-75980294D01*
X115882757Y-75981716D01*
X115877776Y-75984039D01*
X115877775Y-75984039D01*
X115680238Y-76076151D01*
X115680233Y-76076154D01*
X115675251Y-76078477D01*
X115570389Y-76151902D01*
X115492211Y-76206643D01*
X115492208Y-76206645D01*
X115487700Y-76209802D01*
X115325802Y-76371700D01*
X115194477Y-76559251D01*
X115192154Y-76564233D01*
X115192151Y-76564238D01*
X115100039Y-76761775D01*
X115097716Y-76766757D01*
X115038457Y-76987913D01*
X115018502Y-77216000D01*
X111345153Y-77216000D01*
X113212748Y-75348405D01*
X113275060Y-75314379D01*
X113301843Y-75311500D01*
X118618500Y-75311500D01*
X118686621Y-75331502D01*
X118733114Y-75385158D01*
X118744500Y-75437500D01*
X118744500Y-76544135D01*
X118732695Y-76597385D01*
X118656041Y-76761772D01*
X118653716Y-76766757D01*
X118594457Y-76987913D01*
X118574502Y-77216000D01*
X118594457Y-77444087D01*
X118595881Y-77449400D01*
X118595881Y-77449402D01*
X118623565Y-77552717D01*
X118653716Y-77665243D01*
X118656039Y-77670224D01*
X118656039Y-77670225D01*
X118748151Y-77867762D01*
X118748154Y-77867767D01*
X118750477Y-77872749D01*
X118773920Y-77906229D01*
X118874726Y-78050194D01*
X118881802Y-78060300D01*
X119043700Y-78222198D01*
X119048208Y-78225355D01*
X119048211Y-78225357D01*
X119086486Y-78252157D01*
X119231251Y-78353523D01*
X119236233Y-78355846D01*
X119236238Y-78355849D01*
X119341591Y-78404975D01*
X119438757Y-78450284D01*
X119444068Y-78451707D01*
X119444071Y-78451708D01*
X119496816Y-78465841D01*
X119553300Y-78498453D01*
X123042105Y-81987258D01*
X123076131Y-82049570D01*
X123071066Y-82120385D01*
X123028519Y-82177221D01*
X122961999Y-82202032D01*
X122892625Y-82186941D01*
X122890979Y-82185959D01*
X122888952Y-82184361D01*
X122810663Y-82143171D01*
X122807773Y-82141602D01*
X122735628Y-82101198D01*
X122735626Y-82101197D01*
X122730585Y-82098374D01*
X122725113Y-82096517D01*
X122721713Y-82095003D01*
X122711502Y-82090616D01*
X122708068Y-82089194D01*
X122702962Y-82086507D01*
X122697448Y-82084795D01*
X122697446Y-82084794D01*
X122618490Y-82060277D01*
X122615354Y-82059258D01*
X122562209Y-82041218D01*
X122531577Y-82030820D01*
X122525864Y-82029991D01*
X122522351Y-82029148D01*
X122511338Y-82026656D01*
X122507771Y-82025898D01*
X122502255Y-82024185D01*
X122496527Y-82023507D01*
X122496522Y-82023506D01*
X122444122Y-82017305D01*
X122414371Y-82013783D01*
X122411149Y-82013359D01*
X122323592Y-82000664D01*
X122241435Y-82003892D01*
X122236488Y-82003989D01*
X118063306Y-82003989D01*
X118055065Y-82003719D01*
X118039144Y-82002676D01*
X117990450Y-81999484D01*
X117938997Y-82005574D01*
X117902603Y-82009881D01*
X117899324Y-82010225D01*
X117816988Y-82017791D01*
X117816987Y-82017791D01*
X117811232Y-82018320D01*
X117805673Y-82019888D01*
X117802099Y-82020550D01*
X117791096Y-82022739D01*
X117787483Y-82023507D01*
X117781746Y-82024186D01*
X117697235Y-82050427D01*
X117694138Y-82051343D01*
X117608962Y-82075366D01*
X117603774Y-82077924D01*
X117600323Y-82079249D01*
X117589945Y-82083390D01*
X117586558Y-82084793D01*
X117581038Y-82086507D01*
X117575924Y-82089198D01*
X117575923Y-82089198D01*
X117502766Y-82127687D01*
X117499830Y-82129184D01*
X117420474Y-82168318D01*
X117415843Y-82171776D01*
X117412640Y-82173739D01*
X117403253Y-82179662D01*
X117400160Y-82181671D01*
X117395048Y-82184360D01*
X117325555Y-82239145D01*
X117322985Y-82241116D01*
X117256710Y-82290605D01*
X117256703Y-82290612D01*
X117252082Y-82294062D01*
X117248168Y-82298296D01*
X117248166Y-82298298D01*
X117196249Y-82354462D01*
X117192819Y-82358028D01*
X115997300Y-83553547D01*
X115940816Y-83586159D01*
X115882757Y-83601716D01*
X115813652Y-83633940D01*
X115680238Y-83696151D01*
X115680233Y-83696154D01*
X115675251Y-83698477D01*
X115570389Y-83771902D01*
X115492211Y-83826643D01*
X115492208Y-83826645D01*
X115487700Y-83829802D01*
X115325802Y-83991700D01*
X115322645Y-83996208D01*
X115322643Y-83996211D01*
X115267902Y-84074389D01*
X115194477Y-84179251D01*
X115192154Y-84184233D01*
X115192151Y-84184238D01*
X115176690Y-84217395D01*
X115097716Y-84386757D01*
X115096294Y-84392065D01*
X115096293Y-84392067D01*
X115046972Y-84576135D01*
X115038457Y-84607913D01*
X115018502Y-84836000D01*
X115038457Y-85064087D01*
X115039881Y-85069400D01*
X115039881Y-85069402D01*
X115067025Y-85170702D01*
X115097716Y-85285243D01*
X115100038Y-85290223D01*
X115100039Y-85290225D01*
X115192151Y-85487762D01*
X115192154Y-85487767D01*
X115194477Y-85492749D01*
X115217920Y-85526229D01*
X115321559Y-85674240D01*
X115325802Y-85680300D01*
X115487700Y-85842198D01*
X115492208Y-85845355D01*
X115492211Y-85845357D01*
X115533195Y-85874054D01*
X115675251Y-85973523D01*
X115680233Y-85975846D01*
X115680238Y-85975849D01*
X115803197Y-86033185D01*
X115882757Y-86070284D01*
X115888065Y-86071706D01*
X115888067Y-86071707D01*
X116098598Y-86128119D01*
X116098600Y-86128119D01*
X116103913Y-86129543D01*
X116332000Y-86149498D01*
X116560087Y-86129543D01*
X116565400Y-86128119D01*
X116565402Y-86128119D01*
X116775933Y-86071707D01*
X116775935Y-86071706D01*
X116781243Y-86070284D01*
X116860803Y-86033185D01*
X116983762Y-85975849D01*
X116983767Y-85975846D01*
X116988749Y-85973523D01*
X117130805Y-85874054D01*
X117171789Y-85845357D01*
X117171792Y-85845355D01*
X117176300Y-85842198D01*
X117337829Y-85680669D01*
X118580001Y-85680669D01*
X118580371Y-85687490D01*
X118585895Y-85738352D01*
X118589521Y-85753604D01*
X118634676Y-85874054D01*
X118643214Y-85889649D01*
X118719715Y-85991724D01*
X118732276Y-86004285D01*
X118834351Y-86080786D01*
X118849946Y-86089324D01*
X118970394Y-86134478D01*
X118985649Y-86138105D01*
X119036514Y-86143631D01*
X119043328Y-86144000D01*
X119615885Y-86144000D01*
X119631124Y-86139525D01*
X119632329Y-86138135D01*
X119634000Y-86130452D01*
X119634000Y-85108115D01*
X119629525Y-85092876D01*
X119628135Y-85091671D01*
X119620452Y-85090000D01*
X118598116Y-85090000D01*
X118582877Y-85094475D01*
X118581672Y-85095865D01*
X118580001Y-85103548D01*
X118580001Y-85680669D01*
X117337829Y-85680669D01*
X117338198Y-85680300D01*
X117342442Y-85674240D01*
X117446080Y-85526229D01*
X117469523Y-85492749D01*
X117471846Y-85487767D01*
X117471849Y-85487762D01*
X117563962Y-85290223D01*
X117563963Y-85290221D01*
X117566284Y-85285243D01*
X117581841Y-85227185D01*
X117614452Y-85170702D01*
X118364905Y-84420249D01*
X118427217Y-84386223D01*
X118498032Y-84391288D01*
X118554868Y-84433835D01*
X118579679Y-84500355D01*
X118580000Y-84509344D01*
X118580000Y-84563885D01*
X118584475Y-84579124D01*
X118585865Y-84580329D01*
X118593548Y-84582000D01*
X120016000Y-84582000D01*
X120084121Y-84602002D01*
X120130614Y-84655658D01*
X120142000Y-84708000D01*
X120142000Y-86125884D01*
X120146475Y-86141123D01*
X120147865Y-86142328D01*
X120155548Y-86143999D01*
X120732669Y-86143999D01*
X120739490Y-86143629D01*
X120790352Y-86138105D01*
X120805604Y-86134479D01*
X120926054Y-86089324D01*
X120941649Y-86080786D01*
X121043724Y-86004285D01*
X121056285Y-85991724D01*
X121132786Y-85889649D01*
X121141324Y-85874054D01*
X121186478Y-85753606D01*
X121190104Y-85738357D01*
X121190479Y-85734904D01*
X121191522Y-85732394D01*
X121191932Y-85730669D01*
X121192211Y-85730735D01*
X121217719Y-85669341D01*
X121276080Y-85628912D01*
X121347034Y-85626454D01*
X121408054Y-85662747D01*
X121417344Y-85674240D01*
X121418641Y-85675786D01*
X121421802Y-85680300D01*
X121583700Y-85842198D01*
X121588208Y-85845355D01*
X121588211Y-85845357D01*
X121629195Y-85874054D01*
X121771251Y-85973523D01*
X121776233Y-85975846D01*
X121776238Y-85975849D01*
X121899197Y-86033185D01*
X121978757Y-86070284D01*
X121984065Y-86071706D01*
X121984067Y-86071707D01*
X122194598Y-86128119D01*
X122194600Y-86128119D01*
X122199913Y-86129543D01*
X122428000Y-86149498D01*
X122656087Y-86129543D01*
X122661400Y-86128119D01*
X122661402Y-86128119D01*
X122871933Y-86071707D01*
X122871935Y-86071706D01*
X122877243Y-86070284D01*
X122956803Y-86033185D01*
X123079762Y-85975849D01*
X123079767Y-85975846D01*
X123084749Y-85973523D01*
X123226805Y-85874054D01*
X123267789Y-85845357D01*
X123267792Y-85845355D01*
X123272300Y-85842198D01*
X123434198Y-85680300D01*
X123438442Y-85674240D01*
X123542080Y-85526229D01*
X123565523Y-85492749D01*
X123567846Y-85487767D01*
X123567849Y-85487762D01*
X123583805Y-85453543D01*
X123630722Y-85400258D01*
X123698999Y-85380797D01*
X123766959Y-85401339D01*
X123812195Y-85453543D01*
X123828151Y-85487762D01*
X123828154Y-85487767D01*
X123830477Y-85492749D01*
X123853920Y-85526229D01*
X123957559Y-85674240D01*
X123961802Y-85680300D01*
X124123700Y-85842198D01*
X124128208Y-85845355D01*
X124128211Y-85845357D01*
X124169195Y-85874054D01*
X124311251Y-85973523D01*
X124316233Y-85975846D01*
X124316238Y-85975849D01*
X124439197Y-86033185D01*
X124518757Y-86070284D01*
X124557950Y-86080786D01*
X124576815Y-86085841D01*
X124633298Y-86118452D01*
X125817669Y-87302823D01*
X125823306Y-87308841D01*
X125866005Y-87357530D01*
X125870536Y-87361102D01*
X125935465Y-87412288D01*
X125938028Y-87414364D01*
X125959059Y-87431855D01*
X126006050Y-87470937D01*
X126011088Y-87473758D01*
X126014075Y-87475811D01*
X126023403Y-87482044D01*
X126026514Y-87484064D01*
X126031048Y-87487639D01*
X126036155Y-87490326D01*
X126036166Y-87490333D01*
X126109324Y-87528823D01*
X126112223Y-87530396D01*
X126189415Y-87573625D01*
X126194875Y-87575478D01*
X126198175Y-87576948D01*
X126208564Y-87581411D01*
X126211927Y-87582804D01*
X126217038Y-87585493D01*
X126222554Y-87587206D01*
X126222557Y-87587207D01*
X126240412Y-87592751D01*
X126301541Y-87611733D01*
X126304600Y-87612726D01*
X126381081Y-87638688D01*
X126439156Y-87679525D01*
X126465934Y-87745278D01*
X126452912Y-87815070D01*
X126404225Y-87866743D01*
X126340578Y-87884000D01*
X96138000Y-87884000D01*
X96069879Y-87863998D01*
X96023386Y-87810342D01*
X96012000Y-87758000D01*
X96012000Y-83302062D01*
X102910493Y-83302062D01*
X102919789Y-83314077D01*
X102970994Y-83349931D01*
X102980489Y-83355414D01*
X103177947Y-83447490D01*
X103188239Y-83451236D01*
X103398688Y-83507625D01*
X103409481Y-83509528D01*
X103626525Y-83528517D01*
X103637475Y-83528517D01*
X103854519Y-83509528D01*
X103865312Y-83507625D01*
X104075761Y-83451236D01*
X104086053Y-83447490D01*
X104283511Y-83355414D01*
X104293006Y-83349931D01*
X104345048Y-83313491D01*
X104353424Y-83303012D01*
X104346356Y-83289566D01*
X103644812Y-82588022D01*
X103630868Y-82580408D01*
X103629035Y-82580539D01*
X103622420Y-82584790D01*
X102916923Y-83290287D01*
X102910493Y-83302062D01*
X96012000Y-83302062D01*
X96012000Y-82221475D01*
X102319483Y-82221475D01*
X102338472Y-82438519D01*
X102340375Y-82449312D01*
X102396764Y-82659761D01*
X102400510Y-82670053D01*
X102492586Y-82867511D01*
X102498069Y-82877006D01*
X102534509Y-82929048D01*
X102544988Y-82937424D01*
X102558434Y-82930356D01*
X103259978Y-82228812D01*
X103266356Y-82217132D01*
X103996408Y-82217132D01*
X103996539Y-82218965D01*
X104000790Y-82225580D01*
X104706287Y-82931077D01*
X104718062Y-82937507D01*
X104730077Y-82928211D01*
X104765931Y-82877006D01*
X104771414Y-82867511D01*
X104863490Y-82670053D01*
X104867236Y-82659761D01*
X104923625Y-82449312D01*
X104925528Y-82438519D01*
X104944517Y-82221475D01*
X104944517Y-82210525D01*
X104925528Y-81993481D01*
X104923625Y-81982688D01*
X104867236Y-81772239D01*
X104863490Y-81761947D01*
X104771414Y-81564489D01*
X104765931Y-81554994D01*
X104729491Y-81502952D01*
X104719012Y-81494576D01*
X104705566Y-81501644D01*
X104004022Y-82203188D01*
X103996408Y-82217132D01*
X103266356Y-82217132D01*
X103267592Y-82214868D01*
X103267461Y-82213035D01*
X103263210Y-82206420D01*
X102557713Y-81500923D01*
X102545938Y-81494493D01*
X102533923Y-81503789D01*
X102498069Y-81554994D01*
X102492586Y-81564489D01*
X102400510Y-81761947D01*
X102396764Y-81772239D01*
X102340375Y-81982688D01*
X102338472Y-81993481D01*
X102319483Y-82210525D01*
X102319483Y-82221475D01*
X96012000Y-82221475D01*
X96012000Y-81128988D01*
X102910576Y-81128988D01*
X102917644Y-81142434D01*
X103619188Y-81843978D01*
X103633132Y-81851592D01*
X103634965Y-81851461D01*
X103641580Y-81847210D01*
X104347077Y-81141713D01*
X104353507Y-81129938D01*
X104344211Y-81117923D01*
X104293006Y-81082069D01*
X104283511Y-81076586D01*
X104086053Y-80984510D01*
X104075761Y-80980764D01*
X103865312Y-80924375D01*
X103854519Y-80922472D01*
X103637475Y-80903483D01*
X103626525Y-80903483D01*
X103409481Y-80922472D01*
X103398688Y-80924375D01*
X103188239Y-80980764D01*
X103177947Y-80984510D01*
X102980489Y-81076586D01*
X102970994Y-81082069D01*
X102918952Y-81118509D01*
X102910576Y-81128988D01*
X96012000Y-81128988D01*
X96012000Y-80802062D01*
X109006493Y-80802062D01*
X109015789Y-80814077D01*
X109066994Y-80849931D01*
X109076489Y-80855414D01*
X109273947Y-80947490D01*
X109284239Y-80951236D01*
X109494688Y-81007625D01*
X109505481Y-81009528D01*
X109722525Y-81028517D01*
X109733475Y-81028517D01*
X109950519Y-81009528D01*
X109961312Y-81007625D01*
X110171761Y-80951236D01*
X110182053Y-80947490D01*
X110379511Y-80855414D01*
X110389006Y-80849931D01*
X110441048Y-80813491D01*
X110449424Y-80803012D01*
X110442356Y-80789566D01*
X109740812Y-80088022D01*
X109726868Y-80080408D01*
X109725035Y-80080539D01*
X109718420Y-80084790D01*
X109012923Y-80790287D01*
X109006493Y-80802062D01*
X96012000Y-80802062D01*
X96012000Y-79721475D01*
X108415483Y-79721475D01*
X108434472Y-79938519D01*
X108436375Y-79949312D01*
X108492764Y-80159761D01*
X108496510Y-80170053D01*
X108588586Y-80367511D01*
X108594069Y-80377006D01*
X108630509Y-80429048D01*
X108640988Y-80437424D01*
X108654434Y-80430356D01*
X109355978Y-79728812D01*
X109362356Y-79717132D01*
X110092408Y-79717132D01*
X110092539Y-79718965D01*
X110096790Y-79725580D01*
X110802287Y-80431077D01*
X110814062Y-80437507D01*
X110826077Y-80428211D01*
X110861931Y-80377006D01*
X110867414Y-80367511D01*
X110959490Y-80170053D01*
X110963236Y-80159761D01*
X111019625Y-79949312D01*
X111021528Y-79938519D01*
X111040517Y-79721475D01*
X111040517Y-79710525D01*
X111021528Y-79493481D01*
X111019625Y-79482688D01*
X110963236Y-79272239D01*
X110959490Y-79261947D01*
X110867414Y-79064489D01*
X110861931Y-79054994D01*
X110825491Y-79002952D01*
X110815012Y-78994576D01*
X110801566Y-79001644D01*
X110100022Y-79703188D01*
X110092408Y-79717132D01*
X109362356Y-79717132D01*
X109363592Y-79714868D01*
X109363461Y-79713035D01*
X109359210Y-79706420D01*
X108653713Y-79000923D01*
X108641938Y-78994493D01*
X108629923Y-79003789D01*
X108594069Y-79054994D01*
X108588586Y-79064489D01*
X108496510Y-79261947D01*
X108492764Y-79272239D01*
X108436375Y-79482688D01*
X108434472Y-79493481D01*
X108415483Y-79710525D01*
X108415483Y-79721475D01*
X96012000Y-79721475D01*
X96012000Y-68037469D01*
X100695095Y-68037469D01*
X100695392Y-68042622D01*
X100695392Y-68042625D01*
X100701067Y-68141041D01*
X100708427Y-68268697D01*
X100709564Y-68273743D01*
X100709565Y-68273749D01*
X100741741Y-68416523D01*
X100759346Y-68494642D01*
X100761288Y-68499424D01*
X100761289Y-68499428D01*
X100836920Y-68685684D01*
X100846484Y-68709237D01*
X100939816Y-68861541D01*
X100945933Y-68871523D01*
X100964500Y-68937358D01*
X100964500Y-71972135D01*
X100952695Y-72025385D01*
X100873716Y-72194757D01*
X100872294Y-72200065D01*
X100872293Y-72200067D01*
X100815881Y-72410598D01*
X100814457Y-72415913D01*
X100794502Y-72644000D01*
X100814457Y-72872087D01*
X100815881Y-72877400D01*
X100815881Y-72877402D01*
X100866993Y-73068151D01*
X100873716Y-73093243D01*
X100876039Y-73098224D01*
X100876039Y-73098225D01*
X100968151Y-73295762D01*
X100968154Y-73295767D01*
X100970477Y-73300749D01*
X101023709Y-73376772D01*
X101087177Y-73467413D01*
X101101802Y-73488300D01*
X101263700Y-73650198D01*
X101268208Y-73653355D01*
X101268211Y-73653357D01*
X101299448Y-73675229D01*
X101451251Y-73781523D01*
X101456233Y-73783846D01*
X101456238Y-73783849D01*
X101653775Y-73875961D01*
X101658757Y-73878284D01*
X101664065Y-73879706D01*
X101664067Y-73879707D01*
X101874598Y-73936119D01*
X101874600Y-73936119D01*
X101879913Y-73937543D01*
X102108000Y-73957498D01*
X102336087Y-73937543D01*
X102341400Y-73936119D01*
X102341402Y-73936119D01*
X102551933Y-73879707D01*
X102551935Y-73879706D01*
X102557243Y-73878284D01*
X102562225Y-73875961D01*
X102759762Y-73783849D01*
X102759767Y-73783846D01*
X102764749Y-73781523D01*
X102916552Y-73675229D01*
X102947789Y-73653357D01*
X102947792Y-73653355D01*
X102952300Y-73650198D01*
X103114198Y-73488300D01*
X103128824Y-73467413D01*
X103192291Y-73376772D01*
X103245523Y-73300749D01*
X103247846Y-73295767D01*
X103247849Y-73295762D01*
X103339961Y-73098225D01*
X103339961Y-73098224D01*
X103342284Y-73093243D01*
X103349008Y-73068151D01*
X103400119Y-72877402D01*
X103400119Y-72877400D01*
X103401543Y-72872087D01*
X103421498Y-72644000D01*
X103401543Y-72415913D01*
X103400119Y-72410598D01*
X103343707Y-72200067D01*
X103343706Y-72200065D01*
X103342284Y-72194757D01*
X103263305Y-72025385D01*
X103251500Y-71972135D01*
X103251500Y-68935067D01*
X103275177Y-68861541D01*
X103316440Y-68804117D01*
X103319458Y-68799917D01*
X103343495Y-68751283D01*
X103419784Y-68596922D01*
X103419785Y-68596920D01*
X103422078Y-68592280D01*
X103489408Y-68370671D01*
X103519640Y-68141041D01*
X103521327Y-68072000D01*
X103515032Y-67995434D01*
X103502773Y-67846318D01*
X103502772Y-67846312D01*
X103502349Y-67841167D01*
X103445925Y-67616533D01*
X103443866Y-67611797D01*
X103355630Y-67408868D01*
X103355628Y-67408865D01*
X103353570Y-67404131D01*
X103227764Y-67209665D01*
X103137486Y-67110450D01*
X103106434Y-67046605D01*
X103114829Y-66976106D01*
X103160005Y-66921338D01*
X103186449Y-66907669D01*
X103246054Y-66885324D01*
X103261649Y-66876786D01*
X103363724Y-66800285D01*
X103376285Y-66787724D01*
X103452786Y-66685649D01*
X103461324Y-66670054D01*
X103506478Y-66549606D01*
X103510105Y-66534351D01*
X103515631Y-66483486D01*
X103516000Y-66476672D01*
X103516000Y-65804115D01*
X103511525Y-65788876D01*
X103510135Y-65787671D01*
X103502452Y-65786000D01*
X100718116Y-65786000D01*
X100702877Y-65790475D01*
X100701672Y-65791865D01*
X100700001Y-65799548D01*
X100700001Y-66476669D01*
X100700371Y-66483490D01*
X100705895Y-66534352D01*
X100709521Y-66549604D01*
X100754676Y-66670054D01*
X100763214Y-66685649D01*
X100839715Y-66787724D01*
X100852276Y-66800285D01*
X100954351Y-66876786D01*
X100969946Y-66885324D01*
X101029540Y-66907665D01*
X101086304Y-66950307D01*
X101111004Y-67016868D01*
X101095796Y-67086217D01*
X101076404Y-67112698D01*
X101009639Y-67182564D01*
X101006725Y-67186836D01*
X101006724Y-67186837D01*
X100991152Y-67209665D01*
X100879119Y-67373899D01*
X100781602Y-67583981D01*
X100719707Y-67807169D01*
X100695095Y-68037469D01*
X96012000Y-68037469D01*
X96012000Y-65259885D01*
X100700000Y-65259885D01*
X100704475Y-65275124D01*
X100705865Y-65276329D01*
X100713548Y-65278000D01*
X101835885Y-65278000D01*
X101851124Y-65273525D01*
X101852329Y-65272135D01*
X101854000Y-65264452D01*
X101854000Y-65259885D01*
X102362000Y-65259885D01*
X102366475Y-65275124D01*
X102367865Y-65276329D01*
X102375548Y-65278000D01*
X103497884Y-65278000D01*
X103513123Y-65273525D01*
X103514328Y-65272135D01*
X103515999Y-65264452D01*
X103515999Y-64587331D01*
X103515629Y-64580510D01*
X103510105Y-64529648D01*
X103506479Y-64514396D01*
X103461324Y-64393946D01*
X103452786Y-64378351D01*
X103376285Y-64276276D01*
X103363724Y-64263715D01*
X103261649Y-64187214D01*
X103246054Y-64178676D01*
X103125606Y-64133522D01*
X103110351Y-64129895D01*
X103059486Y-64124369D01*
X103052672Y-64124000D01*
X102380115Y-64124000D01*
X102364876Y-64128475D01*
X102363671Y-64129865D01*
X102362000Y-64137548D01*
X102362000Y-65259885D01*
X101854000Y-65259885D01*
X101854000Y-64142116D01*
X101849525Y-64126877D01*
X101848135Y-64125672D01*
X101840452Y-64124001D01*
X101163331Y-64124001D01*
X101156510Y-64124371D01*
X101105648Y-64129895D01*
X101090396Y-64133521D01*
X100969946Y-64178676D01*
X100954351Y-64187214D01*
X100852276Y-64263715D01*
X100839715Y-64276276D01*
X100763214Y-64378351D01*
X100754676Y-64393946D01*
X100709522Y-64514394D01*
X100705895Y-64529649D01*
X100700369Y-64580514D01*
X100700000Y-64587328D01*
X100700000Y-65259885D01*
X96012000Y-65259885D01*
X96012000Y-58458817D01*
X104215514Y-58458817D01*
X104216095Y-58463837D01*
X104216095Y-58463841D01*
X104236142Y-58637096D01*
X104243415Y-58699956D01*
X104309510Y-58933532D01*
X104311644Y-58938108D01*
X104311646Y-58938114D01*
X104368446Y-59059922D01*
X104412099Y-59153536D01*
X104548544Y-59354307D01*
X104715332Y-59530681D01*
X104719358Y-59533759D01*
X104719359Y-59533760D01*
X104904154Y-59675047D01*
X104904158Y-59675050D01*
X104908174Y-59678120D01*
X105122109Y-59792831D01*
X105351631Y-59871862D01*
X105450978Y-59889022D01*
X105586926Y-59912504D01*
X105586932Y-59912505D01*
X105590836Y-59913179D01*
X105594797Y-59913359D01*
X105594798Y-59913359D01*
X105618506Y-59914436D01*
X105618525Y-59914436D01*
X105619925Y-59914500D01*
X107989001Y-59914500D01*
X107991509Y-59914298D01*
X107991514Y-59914298D01*
X108164924Y-59900346D01*
X108164929Y-59900345D01*
X108169965Y-59899940D01*
X108174873Y-59898734D01*
X108174876Y-59898734D01*
X108400792Y-59843244D01*
X108405706Y-59842037D01*
X108410358Y-59840062D01*
X108410362Y-59840061D01*
X108624498Y-59749165D01*
X108629156Y-59747188D01*
X108735037Y-59680511D01*
X108830288Y-59620528D01*
X108830291Y-59620526D01*
X108834567Y-59617833D01*
X108933422Y-59530681D01*
X109012858Y-59460650D01*
X109012861Y-59460647D01*
X109016655Y-59457302D01*
X109161135Y-59281409D01*
X109219829Y-59241466D01*
X109290801Y-59239596D01*
X109351517Y-59276393D01*
X109382701Y-59340175D01*
X109384499Y-59361385D01*
X109384499Y-60616700D01*
X109364497Y-60684821D01*
X109310841Y-60731314D01*
X109291114Y-60738405D01*
X109278757Y-60741716D01*
X109273779Y-60744037D01*
X109273777Y-60744038D01*
X109076238Y-60836151D01*
X109076233Y-60836154D01*
X109071251Y-60838477D01*
X108966389Y-60911902D01*
X108888211Y-60966643D01*
X108888208Y-60966645D01*
X108883700Y-60969802D01*
X108721802Y-61131700D01*
X108718645Y-61136208D01*
X108718643Y-61136211D01*
X108698148Y-61165481D01*
X108590477Y-61319251D01*
X108588154Y-61324233D01*
X108588151Y-61324238D01*
X108513624Y-61484064D01*
X108493716Y-61526757D01*
X108492294Y-61532065D01*
X108492293Y-61532067D01*
X108435881Y-61742598D01*
X108434457Y-61747913D01*
X108414502Y-61976000D01*
X108434457Y-62204087D01*
X108435881Y-62209400D01*
X108435881Y-62209402D01*
X108485560Y-62394803D01*
X108493716Y-62425243D01*
X108496039Y-62430224D01*
X108496039Y-62430225D01*
X108588151Y-62627762D01*
X108588154Y-62627767D01*
X108590477Y-62632749D01*
X108607273Y-62656736D01*
X108679799Y-62760313D01*
X108721802Y-62820300D01*
X108883700Y-62982198D01*
X108888208Y-62985355D01*
X108888211Y-62985357D01*
X108966389Y-63040098D01*
X109071251Y-63113523D01*
X109076233Y-63115846D01*
X109076238Y-63115849D01*
X109204490Y-63175653D01*
X109278757Y-63210284D01*
X109284065Y-63211706D01*
X109284067Y-63211707D01*
X109494598Y-63268119D01*
X109494600Y-63268119D01*
X109499913Y-63269543D01*
X109728000Y-63289498D01*
X109956087Y-63269543D01*
X109961400Y-63268119D01*
X109961402Y-63268119D01*
X110171933Y-63211707D01*
X110171935Y-63211706D01*
X110177243Y-63210284D01*
X110251510Y-63175653D01*
X110379762Y-63115849D01*
X110379767Y-63115846D01*
X110384749Y-63113523D01*
X110489611Y-63040098D01*
X110567789Y-62985357D01*
X110567792Y-62985355D01*
X110572300Y-62982198D01*
X110734198Y-62820300D01*
X110776202Y-62760313D01*
X110848727Y-62656736D01*
X110865523Y-62632749D01*
X110867846Y-62627767D01*
X110867849Y-62627762D01*
X110939519Y-62474062D01*
X110962284Y-62425243D01*
X110970441Y-62394803D01*
X110972328Y-62387757D01*
X110977841Y-62367184D01*
X111010453Y-62310700D01*
X111306303Y-62014850D01*
X111312321Y-62009213D01*
X111361018Y-61966507D01*
X111415792Y-61897028D01*
X111417852Y-61894484D01*
X111470727Y-61830909D01*
X111470734Y-61830899D01*
X111474424Y-61826462D01*
X111477249Y-61821418D01*
X111479350Y-61818360D01*
X111485551Y-61809080D01*
X111487554Y-61805996D01*
X111491127Y-61801464D01*
X111493811Y-61796363D01*
X111493814Y-61796358D01*
X111532318Y-61723172D01*
X111533893Y-61720272D01*
X111574289Y-61648141D01*
X111574290Y-61648139D01*
X111577113Y-61643098D01*
X111578971Y-61637623D01*
X111580480Y-61634234D01*
X111584888Y-61623975D01*
X111586293Y-61620583D01*
X111588981Y-61615474D01*
X111615213Y-61530995D01*
X111616229Y-61527865D01*
X111642809Y-61449564D01*
X111642809Y-61449562D01*
X111644667Y-61444090D01*
X111645497Y-61438366D01*
X111646364Y-61434754D01*
X111648829Y-61423863D01*
X111649590Y-61420285D01*
X111651303Y-61414767D01*
X111661702Y-61326900D01*
X111662133Y-61323627D01*
X111673996Y-61241817D01*
X111673996Y-61241813D01*
X111674824Y-61236104D01*
X111671596Y-61153947D01*
X111671499Y-61149000D01*
X111671499Y-54448793D01*
X111671769Y-54440552D01*
X111675626Y-54381703D01*
X111676004Y-54375937D01*
X111665604Y-54288073D01*
X111665261Y-54284799D01*
X111657697Y-54202475D01*
X111657697Y-54202473D01*
X111657168Y-54196720D01*
X111655599Y-54191158D01*
X111654940Y-54187600D01*
X111652742Y-54176550D01*
X111651981Y-54172969D01*
X111651302Y-54167233D01*
X111625064Y-54082730D01*
X111624132Y-54079583D01*
X111601691Y-54000013D01*
X111601691Y-54000012D01*
X111600122Y-53994450D01*
X111597566Y-53989268D01*
X111596244Y-53985823D01*
X111592093Y-53975420D01*
X111590694Y-53972041D01*
X111588981Y-53966525D01*
X111547781Y-53888216D01*
X111546283Y-53885276D01*
X111509724Y-53811140D01*
X111509721Y-53811136D01*
X111507170Y-53805962D01*
X111503716Y-53801337D01*
X111501776Y-53798171D01*
X111495837Y-53788758D01*
X111493818Y-53785648D01*
X111491128Y-53780536D01*
X111436343Y-53711042D01*
X111434367Y-53708467D01*
X111417668Y-53686104D01*
X111392937Y-53619554D01*
X111408112Y-53550198D01*
X111429532Y-53521621D01*
X114062304Y-50888849D01*
X114068322Y-50883212D01*
X114112680Y-50844311D01*
X114117019Y-50840506D01*
X114171797Y-50771021D01*
X114173853Y-50768483D01*
X114226728Y-50704908D01*
X114226735Y-50704898D01*
X114230425Y-50700461D01*
X114233250Y-50695417D01*
X114235351Y-50692359D01*
X114241552Y-50683079D01*
X114243555Y-50679995D01*
X114247128Y-50675463D01*
X114249812Y-50670362D01*
X114249815Y-50670357D01*
X114288319Y-50597171D01*
X114289894Y-50594271D01*
X114297450Y-50580780D01*
X114333114Y-50517097D01*
X114334972Y-50511622D01*
X114336481Y-50508233D01*
X114340889Y-50497974D01*
X114342294Y-50494582D01*
X114344982Y-50489473D01*
X114371214Y-50404994D01*
X114372230Y-50401864D01*
X114398810Y-50323563D01*
X114398810Y-50323561D01*
X114400668Y-50318089D01*
X114401498Y-50312365D01*
X114402365Y-50308753D01*
X114404830Y-50297862D01*
X114405591Y-50294284D01*
X114407304Y-50288766D01*
X114417703Y-50200899D01*
X114418134Y-50197626D01*
X114429997Y-50115816D01*
X114429997Y-50115812D01*
X114430825Y-50110103D01*
X114427597Y-50027946D01*
X114427500Y-50022999D01*
X114427500Y-43449379D01*
X114448610Y-43383816D01*
X114446771Y-43382711D01*
X114449436Y-43378276D01*
X114452453Y-43374077D01*
X114472208Y-43334107D01*
X114549136Y-43178453D01*
X114549137Y-43178451D01*
X114551430Y-43173811D01*
X114593176Y-43036408D01*
X114614865Y-42965023D01*
X114614865Y-42965021D01*
X114616370Y-42960069D01*
X114645529Y-42738590D01*
X114647156Y-42672000D01*
X114628852Y-42449361D01*
X114574431Y-42232702D01*
X114485354Y-42027840D01*
X114447708Y-41969648D01*
X114427500Y-41901208D01*
X114427500Y-40909379D01*
X114448610Y-40843816D01*
X114446771Y-40842711D01*
X114449436Y-40838276D01*
X114452453Y-40834077D01*
X114465995Y-40806678D01*
X114549136Y-40638453D01*
X114549137Y-40638451D01*
X114551430Y-40633811D01*
X114616370Y-40420069D01*
X114645529Y-40198590D01*
X114647156Y-40132000D01*
X114628852Y-39909361D01*
X114574431Y-39692702D01*
X114485354Y-39487840D01*
X114411704Y-39373995D01*
X114366822Y-39304617D01*
X114366820Y-39304614D01*
X114364014Y-39300277D01*
X114213670Y-39135051D01*
X114209619Y-39131852D01*
X114209615Y-39131848D01*
X114042414Y-38999800D01*
X114042410Y-38999798D01*
X114038359Y-38996598D01*
X113842789Y-38888638D01*
X113837920Y-38886914D01*
X113837916Y-38886912D01*
X113637087Y-38815795D01*
X113637083Y-38815794D01*
X113632212Y-38814069D01*
X113627119Y-38813162D01*
X113627116Y-38813161D01*
X113417373Y-38775800D01*
X113417367Y-38775799D01*
X113412284Y-38774894D01*
X113338452Y-38773992D01*
X113194081Y-38772228D01*
X113194079Y-38772228D01*
X113188911Y-38772165D01*
X112968091Y-38805955D01*
X112755756Y-38875357D01*
X112557607Y-38978507D01*
X112553474Y-38981610D01*
X112553471Y-38981612D01*
X112383100Y-39109530D01*
X112378965Y-39112635D01*
X112224629Y-39274138D01*
X112221715Y-39278410D01*
X112221714Y-39278411D01*
X112186986Y-39329321D01*
X112151693Y-39381059D01*
X112116898Y-39432066D01*
X112061987Y-39477069D01*
X111991462Y-39485240D01*
X111927715Y-39453986D01*
X111907017Y-39429501D01*
X111877062Y-39383197D01*
X111866377Y-39373995D01*
X111856812Y-39378398D01*
X111116022Y-40119188D01*
X111108408Y-40133132D01*
X111108539Y-40134965D01*
X111112790Y-40141580D01*
X111854474Y-40883264D01*
X111866484Y-40889823D01*
X111878223Y-40880855D01*
X111912022Y-40833819D01*
X111914028Y-40835261D01*
X111958720Y-40794107D01*
X112028656Y-40781885D01*
X112094099Y-40809414D01*
X112134269Y-40867953D01*
X112140500Y-40907087D01*
X112140500Y-41898584D01*
X112118582Y-41969597D01*
X112116892Y-41972074D01*
X112061977Y-42017072D01*
X111991452Y-42025238D01*
X111927707Y-41993978D01*
X111907018Y-41969501D01*
X111877063Y-41923198D01*
X111866377Y-41913995D01*
X111856812Y-41918398D01*
X111116022Y-42659188D01*
X111108408Y-42673132D01*
X111108539Y-42674965D01*
X111112790Y-42681580D01*
X111854474Y-43423264D01*
X111866484Y-43429823D01*
X111878223Y-43420855D01*
X111912022Y-43373819D01*
X111914028Y-43375261D01*
X111958720Y-43334107D01*
X112028656Y-43321885D01*
X112094099Y-43349414D01*
X112134269Y-43407953D01*
X112140500Y-43447087D01*
X112140500Y-49524156D01*
X112120498Y-49592277D01*
X112103595Y-49613251D01*
X110947272Y-50769574D01*
X110884960Y-50803600D01*
X110838436Y-50803152D01*
X110838316Y-50804255D01*
X110779531Y-50797869D01*
X110776134Y-50797500D01*
X108679866Y-50797500D01*
X108617684Y-50804255D01*
X108481295Y-50855385D01*
X108364739Y-50942739D01*
X108277385Y-51059295D01*
X108226255Y-51195684D01*
X108219500Y-51257866D01*
X108219500Y-55954134D01*
X108226255Y-56016316D01*
X108277385Y-56152705D01*
X108364739Y-56269261D01*
X108481295Y-56356615D01*
X108617684Y-56407745D01*
X108679866Y-56414500D01*
X109258499Y-56414500D01*
X109326620Y-56434502D01*
X109373113Y-56488158D01*
X109384499Y-56540500D01*
X109384499Y-57455779D01*
X109364497Y-57523900D01*
X109310841Y-57570393D01*
X109240567Y-57580497D01*
X109175987Y-57551003D01*
X109154287Y-57526602D01*
X109139890Y-57505417D01*
X109107456Y-57457693D01*
X108940668Y-57281319D01*
X108936641Y-57278240D01*
X108751846Y-57136953D01*
X108751842Y-57136950D01*
X108747826Y-57133880D01*
X108700730Y-57108627D01*
X108538352Y-57021561D01*
X108533891Y-57019169D01*
X108304369Y-56940138D01*
X108164651Y-56916005D01*
X108069074Y-56899496D01*
X108069068Y-56899495D01*
X108065164Y-56898821D01*
X108061203Y-56898641D01*
X108061202Y-56898641D01*
X108037494Y-56897564D01*
X108037475Y-56897564D01*
X108036075Y-56897500D01*
X105666999Y-56897500D01*
X105664491Y-56897702D01*
X105664486Y-56897702D01*
X105491076Y-56911654D01*
X105491071Y-56911655D01*
X105486035Y-56912060D01*
X105481127Y-56913266D01*
X105481124Y-56913266D01*
X105272641Y-56964474D01*
X105250294Y-56969963D01*
X105245642Y-56971938D01*
X105245638Y-56971939D01*
X105138252Y-57017522D01*
X105026844Y-57064812D01*
X105022560Y-57067510D01*
X104825712Y-57191472D01*
X104825709Y-57191474D01*
X104821433Y-57194167D01*
X104817639Y-57197512D01*
X104643142Y-57351350D01*
X104643139Y-57351353D01*
X104639345Y-57354698D01*
X104636135Y-57358606D01*
X104636134Y-57358607D01*
X104496407Y-57528715D01*
X104485266Y-57542278D01*
X104482724Y-57546646D01*
X104404212Y-57681543D01*
X104363159Y-57752078D01*
X104276167Y-57978702D01*
X104275133Y-57983652D01*
X104275132Y-57983655D01*
X104241844Y-58142999D01*
X104226526Y-58216320D01*
X104215514Y-58458817D01*
X96012000Y-58458817D01*
X96012000Y-54764456D01*
X101920000Y-54764456D01*
X101920202Y-54769488D01*
X101934150Y-54942843D01*
X101935762Y-54952796D01*
X101991233Y-55178633D01*
X101994416Y-55188203D01*
X102085280Y-55402265D01*
X102089955Y-55411207D01*
X102213874Y-55607987D01*
X102219914Y-55616060D01*
X102373703Y-55790500D01*
X102380956Y-55797504D01*
X102560654Y-55945110D01*
X102568936Y-55950866D01*
X102769919Y-56067841D01*
X102779024Y-56072203D01*
X102996115Y-56155537D01*
X103005804Y-56158388D01*
X103156264Y-56189821D01*
X103170325Y-56188698D01*
X103174000Y-56178590D01*
X103174000Y-56176590D01*
X103682000Y-56176590D01*
X103686136Y-56190676D01*
X103699114Y-56192725D01*
X103716830Y-56190675D01*
X103726727Y-56188715D01*
X103950494Y-56125396D01*
X103959938Y-56121884D01*
X104170705Y-56023601D01*
X104179471Y-56018622D01*
X104371802Y-55887913D01*
X104379677Y-55881581D01*
X104548626Y-55721814D01*
X104555387Y-55714305D01*
X104696625Y-55529574D01*
X104702089Y-55521095D01*
X104811978Y-55316153D01*
X104816020Y-55306901D01*
X104891727Y-55087029D01*
X104894236Y-55077257D01*
X104934004Y-54847029D01*
X104934859Y-54839157D01*
X104935936Y-54815449D01*
X104936000Y-54812616D01*
X104936000Y-53878115D01*
X104931525Y-53862876D01*
X104930135Y-53861671D01*
X104922452Y-53860000D01*
X103700115Y-53860000D01*
X103684876Y-53864475D01*
X103683671Y-53865865D01*
X103682000Y-53873548D01*
X103682000Y-56176590D01*
X103174000Y-56176590D01*
X103174000Y-53878115D01*
X103169525Y-53862876D01*
X103168135Y-53861671D01*
X103160452Y-53860000D01*
X101938115Y-53860000D01*
X101922876Y-53864475D01*
X101921671Y-53865865D01*
X101920000Y-53873548D01*
X101920000Y-54764456D01*
X96012000Y-54764456D01*
X96012000Y-53333885D01*
X101920000Y-53333885D01*
X101924475Y-53349124D01*
X101925865Y-53350329D01*
X101933548Y-53352000D01*
X103155885Y-53352000D01*
X103171124Y-53347525D01*
X103172329Y-53346135D01*
X103174000Y-53338452D01*
X103174000Y-53333885D01*
X103682000Y-53333885D01*
X103686475Y-53349124D01*
X103687865Y-53350329D01*
X103695548Y-53352000D01*
X104917885Y-53352000D01*
X104933124Y-53347525D01*
X104934329Y-53346135D01*
X104936000Y-53338452D01*
X104936000Y-52447544D01*
X104935798Y-52442512D01*
X104921850Y-52269157D01*
X104920238Y-52259204D01*
X104864767Y-52033367D01*
X104861584Y-52023797D01*
X104770720Y-51809735D01*
X104766045Y-51800793D01*
X104642126Y-51604013D01*
X104636086Y-51595940D01*
X104482297Y-51421500D01*
X104475044Y-51414496D01*
X104295346Y-51266890D01*
X104287064Y-51261134D01*
X104086081Y-51144159D01*
X104076976Y-51139797D01*
X103859885Y-51056463D01*
X103850196Y-51053612D01*
X103699736Y-51022179D01*
X103685675Y-51023302D01*
X103682000Y-51033410D01*
X103682000Y-53333885D01*
X103174000Y-53333885D01*
X103174000Y-51035410D01*
X103169864Y-51021324D01*
X103156886Y-51019275D01*
X103139170Y-51021325D01*
X103129273Y-51023285D01*
X102905506Y-51086604D01*
X102896062Y-51090116D01*
X102685295Y-51188399D01*
X102676529Y-51193378D01*
X102484198Y-51324087D01*
X102476323Y-51330419D01*
X102307374Y-51490186D01*
X102300613Y-51497695D01*
X102159375Y-51682426D01*
X102153911Y-51690905D01*
X102044022Y-51895847D01*
X102039980Y-51905099D01*
X101964273Y-52124971D01*
X101961764Y-52134743D01*
X101921996Y-52364971D01*
X101921141Y-52372843D01*
X101920064Y-52396551D01*
X101920000Y-52399384D01*
X101920000Y-53333885D01*
X96012000Y-53333885D01*
X96012000Y-40098695D01*
X101761251Y-40098695D01*
X101761548Y-40103848D01*
X101761548Y-40103851D01*
X101769149Y-40235671D01*
X101774110Y-40321715D01*
X101775247Y-40326761D01*
X101775248Y-40326767D01*
X101797382Y-40424979D01*
X101823222Y-40539639D01*
X101859933Y-40630047D01*
X101900953Y-40731068D01*
X101907266Y-40746616D01*
X101961201Y-40834629D01*
X101961933Y-40835824D01*
X101980500Y-40901659D01*
X101980500Y-41490668D01*
X101960498Y-41558789D01*
X101943673Y-41579686D01*
X101924695Y-41598697D01*
X101831885Y-41749262D01*
X101776203Y-41917139D01*
X101775503Y-41923975D01*
X101775502Y-41923978D01*
X101774120Y-41937467D01*
X101765500Y-42021600D01*
X101765500Y-43322400D01*
X101765837Y-43325646D01*
X101765837Y-43325650D01*
X101774377Y-43407953D01*
X101776474Y-43428166D01*
X101778655Y-43434702D01*
X101778655Y-43434704D01*
X101783551Y-43449379D01*
X101832450Y-43595946D01*
X101925522Y-43746348D01*
X102050697Y-43871305D01*
X102056927Y-43875145D01*
X102056928Y-43875146D01*
X102194090Y-43959694D01*
X102201262Y-43964115D01*
X102245244Y-43978703D01*
X102362611Y-44017632D01*
X102362613Y-44017632D01*
X102369139Y-44019797D01*
X102375975Y-44020497D01*
X102375978Y-44020498D01*
X102410531Y-44024038D01*
X102473600Y-44030500D01*
X103774400Y-44030500D01*
X103777646Y-44030163D01*
X103777650Y-44030163D01*
X103873308Y-44020238D01*
X103873312Y-44020237D01*
X103880166Y-44019526D01*
X103886702Y-44017345D01*
X103886704Y-44017345D01*
X104018806Y-43973272D01*
X104047946Y-43963550D01*
X104198348Y-43870478D01*
X104271845Y-43796853D01*
X104903977Y-43796853D01*
X104909258Y-43803907D01*
X105070756Y-43898279D01*
X105080042Y-43902729D01*
X105279001Y-43978703D01*
X105288899Y-43981579D01*
X105497595Y-44024038D01*
X105507823Y-44025257D01*
X105720650Y-44033062D01*
X105730936Y-44032595D01*
X105942185Y-44005534D01*
X105952262Y-44003392D01*
X106156255Y-43942191D01*
X106165842Y-43938433D01*
X106357098Y-43844738D01*
X106365944Y-43839465D01*
X106413247Y-43805723D01*
X106420211Y-43796853D01*
X107443977Y-43796853D01*
X107449258Y-43803907D01*
X107610756Y-43898279D01*
X107620042Y-43902729D01*
X107819001Y-43978703D01*
X107828899Y-43981579D01*
X108037595Y-44024038D01*
X108047823Y-44025257D01*
X108260650Y-44033062D01*
X108270936Y-44032595D01*
X108482185Y-44005534D01*
X108492262Y-44003392D01*
X108696255Y-43942191D01*
X108705842Y-43938433D01*
X108897098Y-43844738D01*
X108905944Y-43839465D01*
X108953247Y-43805723D01*
X108960211Y-43796853D01*
X109983977Y-43796853D01*
X109989258Y-43803907D01*
X110150756Y-43898279D01*
X110160042Y-43902729D01*
X110359001Y-43978703D01*
X110368899Y-43981579D01*
X110577595Y-44024038D01*
X110587823Y-44025257D01*
X110800650Y-44033062D01*
X110810936Y-44032595D01*
X111022185Y-44005534D01*
X111032262Y-44003392D01*
X111236255Y-43942191D01*
X111245842Y-43938433D01*
X111437098Y-43844738D01*
X111445944Y-43839465D01*
X111493247Y-43805723D01*
X111501648Y-43795023D01*
X111494660Y-43781870D01*
X110756812Y-43044022D01*
X110742868Y-43036408D01*
X110741035Y-43036539D01*
X110734420Y-43040790D01*
X109990737Y-43784473D01*
X109983977Y-43796853D01*
X108960211Y-43796853D01*
X108961648Y-43795023D01*
X108954660Y-43781870D01*
X108216812Y-43044022D01*
X108202868Y-43036408D01*
X108201035Y-43036539D01*
X108194420Y-43040790D01*
X107450737Y-43784473D01*
X107443977Y-43796853D01*
X106420211Y-43796853D01*
X106421648Y-43795023D01*
X106414660Y-43781870D01*
X105676812Y-43044022D01*
X105662868Y-43036408D01*
X105661035Y-43036539D01*
X105654420Y-43040790D01*
X104910737Y-43784473D01*
X104903977Y-43796853D01*
X104271845Y-43796853D01*
X104323305Y-43745303D01*
X104416115Y-43594738D01*
X104440913Y-43519975D01*
X104481342Y-43461616D01*
X104510630Y-43443934D01*
X104549694Y-43427096D01*
X105291978Y-42684812D01*
X105298356Y-42673132D01*
X106028408Y-42673132D01*
X106028539Y-42674965D01*
X106032790Y-42681580D01*
X106774474Y-43423264D01*
X106786484Y-43429823D01*
X106798223Y-43420855D01*
X106832022Y-43373819D01*
X106833149Y-43374629D01*
X106880659Y-43330881D01*
X106950596Y-43318661D01*
X107016038Y-43346191D01*
X107043870Y-43378029D01*
X107070459Y-43421419D01*
X107080916Y-43430880D01*
X107089694Y-43427096D01*
X107831978Y-42684812D01*
X107838356Y-42673132D01*
X108568408Y-42673132D01*
X108568539Y-42674965D01*
X108572790Y-42681580D01*
X109314474Y-43423264D01*
X109326484Y-43429823D01*
X109338223Y-43420855D01*
X109372022Y-43373819D01*
X109373149Y-43374629D01*
X109420659Y-43330881D01*
X109490596Y-43318661D01*
X109556038Y-43346191D01*
X109583870Y-43378029D01*
X109610459Y-43421419D01*
X109620916Y-43430880D01*
X109629694Y-43427096D01*
X110371978Y-42684812D01*
X110379592Y-42670868D01*
X110379461Y-42669035D01*
X110375210Y-42662420D01*
X109633849Y-41921059D01*
X109622313Y-41914759D01*
X109610028Y-41924384D01*
X109577192Y-41972520D01*
X109522281Y-42017523D01*
X109451756Y-42025694D01*
X109388009Y-41994440D01*
X109367311Y-41969955D01*
X109337062Y-41923197D01*
X109326377Y-41913995D01*
X109316812Y-41918398D01*
X108576022Y-42659188D01*
X108568408Y-42673132D01*
X107838356Y-42673132D01*
X107839592Y-42670868D01*
X107839461Y-42669035D01*
X107835210Y-42662420D01*
X107093849Y-41921059D01*
X107082313Y-41914759D01*
X107070028Y-41924384D01*
X107037192Y-41972520D01*
X106982281Y-42017523D01*
X106911756Y-42025694D01*
X106848009Y-41994440D01*
X106827311Y-41969955D01*
X106797062Y-41923197D01*
X106786377Y-41913995D01*
X106776812Y-41918398D01*
X106036022Y-42659188D01*
X106028408Y-42673132D01*
X105298356Y-42673132D01*
X105299592Y-42670868D01*
X105299461Y-42669035D01*
X105295210Y-42662420D01*
X104553849Y-41921059D01*
X104513510Y-41899031D01*
X104500523Y-41896206D01*
X104450322Y-41846003D01*
X104441388Y-41825497D01*
X104417870Y-41755007D01*
X104417869Y-41755005D01*
X104415550Y-41748054D01*
X104322478Y-41597652D01*
X104304481Y-41579686D01*
X104270403Y-41517403D01*
X104267500Y-41490514D01*
X104267500Y-41256853D01*
X104903977Y-41256853D01*
X104909258Y-41263907D01*
X104956479Y-41291501D01*
X105005203Y-41343139D01*
X105018274Y-41412922D01*
X104991543Y-41478694D01*
X104951087Y-41512053D01*
X104942466Y-41516541D01*
X104933734Y-41522039D01*
X104913677Y-41537099D01*
X104905223Y-41548427D01*
X104911968Y-41560758D01*
X105651188Y-42299978D01*
X105665132Y-42307592D01*
X105666965Y-42307461D01*
X105673580Y-42303210D01*
X106417389Y-41559401D01*
X106424410Y-41546544D01*
X106417611Y-41537213D01*
X106413559Y-41534521D01*
X106376116Y-41513852D01*
X106326145Y-41463420D01*
X106311373Y-41393977D01*
X106336489Y-41327572D01*
X106363840Y-41300965D01*
X106413247Y-41265723D01*
X106420211Y-41256853D01*
X107443977Y-41256853D01*
X107449258Y-41263907D01*
X107496479Y-41291501D01*
X107545203Y-41343139D01*
X107558274Y-41412922D01*
X107531543Y-41478694D01*
X107491087Y-41512053D01*
X107482466Y-41516541D01*
X107473734Y-41522039D01*
X107453677Y-41537099D01*
X107445223Y-41548427D01*
X107451968Y-41560758D01*
X108191188Y-42299978D01*
X108205132Y-42307592D01*
X108206965Y-42307461D01*
X108213580Y-42303210D01*
X108957389Y-41559401D01*
X108964410Y-41546544D01*
X108957611Y-41537213D01*
X108953559Y-41534521D01*
X108916116Y-41513852D01*
X108866145Y-41463420D01*
X108851373Y-41393977D01*
X108876489Y-41327572D01*
X108903840Y-41300965D01*
X108953247Y-41265723D01*
X108960211Y-41256853D01*
X109983977Y-41256853D01*
X109989258Y-41263907D01*
X110036479Y-41291501D01*
X110085203Y-41343139D01*
X110098274Y-41412922D01*
X110071543Y-41478694D01*
X110031087Y-41512053D01*
X110022466Y-41516541D01*
X110013734Y-41522039D01*
X109993677Y-41537099D01*
X109985223Y-41548427D01*
X109991968Y-41560758D01*
X110731188Y-42299978D01*
X110745132Y-42307592D01*
X110746965Y-42307461D01*
X110753580Y-42303210D01*
X111497389Y-41559401D01*
X111504410Y-41546544D01*
X111497611Y-41537213D01*
X111493559Y-41534521D01*
X111456116Y-41513852D01*
X111406145Y-41463420D01*
X111391373Y-41393977D01*
X111416489Y-41327572D01*
X111443840Y-41300965D01*
X111493247Y-41265723D01*
X111501648Y-41255023D01*
X111494660Y-41241870D01*
X110756812Y-40504022D01*
X110742868Y-40496408D01*
X110741035Y-40496539D01*
X110734420Y-40500790D01*
X109990737Y-41244473D01*
X109983977Y-41256853D01*
X108960211Y-41256853D01*
X108961648Y-41255023D01*
X108954660Y-41241870D01*
X108216812Y-40504022D01*
X108202868Y-40496408D01*
X108201035Y-40496539D01*
X108194420Y-40500790D01*
X107450737Y-41244473D01*
X107443977Y-41256853D01*
X106420211Y-41256853D01*
X106421648Y-41255023D01*
X106414660Y-41241870D01*
X105676812Y-40504022D01*
X105662868Y-40496408D01*
X105661035Y-40496539D01*
X105654420Y-40500790D01*
X104910737Y-41244473D01*
X104903977Y-41256853D01*
X104267500Y-41256853D01*
X104267500Y-40909379D01*
X104288611Y-40843813D01*
X104286773Y-40842708D01*
X104288730Y-40839451D01*
X104290558Y-40837768D01*
X104291172Y-40835860D01*
X104292448Y-40834084D01*
X104293634Y-40834936D01*
X104340960Y-40791362D01*
X104410897Y-40779145D01*
X104476338Y-40806678D01*
X104504166Y-40838512D01*
X104530459Y-40881419D01*
X104540916Y-40890880D01*
X104549694Y-40887096D01*
X105291978Y-40144812D01*
X105298356Y-40133132D01*
X106028408Y-40133132D01*
X106028539Y-40134965D01*
X106032790Y-40141580D01*
X106774474Y-40883264D01*
X106786484Y-40889823D01*
X106798223Y-40880855D01*
X106832022Y-40833819D01*
X106833149Y-40834629D01*
X106880659Y-40790881D01*
X106950596Y-40778661D01*
X107016038Y-40806191D01*
X107043870Y-40838029D01*
X107070459Y-40881419D01*
X107080916Y-40890880D01*
X107089694Y-40887096D01*
X107831978Y-40144812D01*
X107838356Y-40133132D01*
X108568408Y-40133132D01*
X108568539Y-40134965D01*
X108572790Y-40141580D01*
X109314474Y-40883264D01*
X109326484Y-40889823D01*
X109338223Y-40880855D01*
X109372022Y-40833819D01*
X109373149Y-40834629D01*
X109420659Y-40790881D01*
X109490596Y-40778661D01*
X109556038Y-40806191D01*
X109583870Y-40838029D01*
X109610459Y-40881419D01*
X109620916Y-40890880D01*
X109629694Y-40887096D01*
X110371978Y-40144812D01*
X110379592Y-40130868D01*
X110379461Y-40129035D01*
X110375210Y-40122420D01*
X109633849Y-39381059D01*
X109622313Y-39374759D01*
X109610028Y-39384384D01*
X109577192Y-39432520D01*
X109522281Y-39477523D01*
X109451756Y-39485694D01*
X109388009Y-39454440D01*
X109367311Y-39429955D01*
X109337062Y-39383197D01*
X109326377Y-39373995D01*
X109316812Y-39378398D01*
X108576022Y-40119188D01*
X108568408Y-40133132D01*
X107838356Y-40133132D01*
X107839592Y-40130868D01*
X107839461Y-40129035D01*
X107835210Y-40122420D01*
X107093849Y-39381059D01*
X107082313Y-39374759D01*
X107070028Y-39384384D01*
X107037192Y-39432520D01*
X106982281Y-39477523D01*
X106911756Y-39485694D01*
X106848009Y-39454440D01*
X106827311Y-39429955D01*
X106797062Y-39383197D01*
X106786377Y-39373995D01*
X106776812Y-39378398D01*
X106036022Y-40119188D01*
X106028408Y-40133132D01*
X105298356Y-40133132D01*
X105299592Y-40130868D01*
X105299461Y-40129035D01*
X105295210Y-40122420D01*
X104553849Y-39381059D01*
X104542313Y-39374759D01*
X104530031Y-39384382D01*
X104497499Y-39432072D01*
X104442587Y-39477075D01*
X104372063Y-39485246D01*
X104308316Y-39453992D01*
X104287618Y-39429508D01*
X104206822Y-39304617D01*
X104206820Y-39304614D01*
X104204014Y-39300277D01*
X104053670Y-39135051D01*
X104049619Y-39131852D01*
X104049615Y-39131848D01*
X103893338Y-39008427D01*
X104905223Y-39008427D01*
X104911968Y-39020758D01*
X105651188Y-39759978D01*
X105665132Y-39767592D01*
X105666965Y-39767461D01*
X105673580Y-39763210D01*
X106417389Y-39019401D01*
X106423382Y-39008427D01*
X107445223Y-39008427D01*
X107451968Y-39020758D01*
X108191188Y-39759978D01*
X108205132Y-39767592D01*
X108206965Y-39767461D01*
X108213580Y-39763210D01*
X108957389Y-39019401D01*
X108963382Y-39008427D01*
X109985223Y-39008427D01*
X109991968Y-39020758D01*
X110731188Y-39759978D01*
X110745132Y-39767592D01*
X110746965Y-39767461D01*
X110753580Y-39763210D01*
X111497389Y-39019401D01*
X111504410Y-39006544D01*
X111497611Y-38997213D01*
X111493554Y-38994518D01*
X111307117Y-38891599D01*
X111297705Y-38887369D01*
X111096959Y-38816280D01*
X111086989Y-38813646D01*
X110877327Y-38776301D01*
X110867073Y-38775331D01*
X110654116Y-38772728D01*
X110643832Y-38773448D01*
X110433321Y-38805661D01*
X110423293Y-38808050D01*
X110220868Y-38874212D01*
X110211359Y-38878209D01*
X110022466Y-38976540D01*
X110013734Y-38982039D01*
X109993677Y-38997099D01*
X109985223Y-39008427D01*
X108963382Y-39008427D01*
X108964410Y-39006544D01*
X108957611Y-38997213D01*
X108953554Y-38994518D01*
X108767117Y-38891599D01*
X108757705Y-38887369D01*
X108556959Y-38816280D01*
X108546989Y-38813646D01*
X108337327Y-38776301D01*
X108327073Y-38775331D01*
X108114116Y-38772728D01*
X108103832Y-38773448D01*
X107893321Y-38805661D01*
X107883293Y-38808050D01*
X107680868Y-38874212D01*
X107671359Y-38878209D01*
X107482466Y-38976540D01*
X107473734Y-38982039D01*
X107453677Y-38997099D01*
X107445223Y-39008427D01*
X106423382Y-39008427D01*
X106424410Y-39006544D01*
X106417611Y-38997213D01*
X106413554Y-38994518D01*
X106227117Y-38891599D01*
X106217705Y-38887369D01*
X106016959Y-38816280D01*
X106006989Y-38813646D01*
X105797327Y-38776301D01*
X105787073Y-38775331D01*
X105574116Y-38772728D01*
X105563832Y-38773448D01*
X105353321Y-38805661D01*
X105343293Y-38808050D01*
X105140868Y-38874212D01*
X105131359Y-38878209D01*
X104942466Y-38976540D01*
X104933734Y-38982039D01*
X104913677Y-38997099D01*
X104905223Y-39008427D01*
X103893338Y-39008427D01*
X103882414Y-38999800D01*
X103882410Y-38999798D01*
X103878359Y-38996598D01*
X103682789Y-38888638D01*
X103677920Y-38886914D01*
X103677916Y-38886912D01*
X103477087Y-38815795D01*
X103477083Y-38815794D01*
X103472212Y-38814069D01*
X103467119Y-38813162D01*
X103467116Y-38813161D01*
X103257373Y-38775800D01*
X103257367Y-38775799D01*
X103252284Y-38774894D01*
X103178452Y-38773992D01*
X103034081Y-38772228D01*
X103034079Y-38772228D01*
X103028911Y-38772165D01*
X102808091Y-38805955D01*
X102595756Y-38875357D01*
X102397607Y-38978507D01*
X102393474Y-38981610D01*
X102393471Y-38981612D01*
X102223100Y-39109530D01*
X102218965Y-39112635D01*
X102064629Y-39274138D01*
X102061715Y-39278410D01*
X102061714Y-39278411D01*
X102026986Y-39329321D01*
X101938743Y-39458680D01*
X101923003Y-39492590D01*
X101851457Y-39646723D01*
X101844688Y-39661305D01*
X101784989Y-39876570D01*
X101761251Y-40098695D01*
X96012000Y-40098695D01*
X96012000Y-38080202D01*
X121403180Y-38080202D01*
X121405454Y-38091030D01*
X121416918Y-38094000D01*
X123171885Y-38094000D01*
X123187124Y-38089525D01*
X123188329Y-38088135D01*
X123190000Y-38080452D01*
X123190000Y-38075885D01*
X123698000Y-38075885D01*
X123702475Y-38091124D01*
X123703865Y-38092329D01*
X123711548Y-38094000D01*
X125469022Y-38094000D01*
X125483815Y-38089656D01*
X125485203Y-38081800D01*
X125484819Y-38080202D01*
X140199180Y-38080202D01*
X140201454Y-38091030D01*
X140212918Y-38094000D01*
X141967885Y-38094000D01*
X141983124Y-38089525D01*
X141984329Y-38088135D01*
X141986000Y-38080452D01*
X141986000Y-38075885D01*
X142494000Y-38075885D01*
X142498475Y-38091124D01*
X142499865Y-38092329D01*
X142507548Y-38094000D01*
X144265022Y-38094000D01*
X144279815Y-38089656D01*
X144281203Y-38081800D01*
X144280819Y-38080202D01*
X160011180Y-38080202D01*
X160013454Y-38091030D01*
X160024918Y-38094000D01*
X161779885Y-38094000D01*
X161795124Y-38089525D01*
X161796329Y-38088135D01*
X161798000Y-38080452D01*
X161798000Y-38075885D01*
X162306000Y-38075885D01*
X162310475Y-38091124D01*
X162311865Y-38092329D01*
X162319548Y-38094000D01*
X164077022Y-38094000D01*
X164091815Y-38089656D01*
X164093203Y-38081800D01*
X164034883Y-37838877D01*
X164031834Y-37829492D01*
X163935752Y-37597530D01*
X163931271Y-37588736D01*
X163800080Y-37374652D01*
X163794288Y-37366679D01*
X163631216Y-37175748D01*
X163624252Y-37168784D01*
X163433321Y-37005712D01*
X163425348Y-36999920D01*
X163211264Y-36868729D01*
X163202470Y-36864248D01*
X162970508Y-36768166D01*
X162961123Y-36765117D01*
X162716983Y-36706504D01*
X162707236Y-36704961D01*
X162519601Y-36690193D01*
X162514674Y-36690000D01*
X162324115Y-36690000D01*
X162308876Y-36694475D01*
X162307671Y-36695865D01*
X162306000Y-36703548D01*
X162306000Y-38075885D01*
X161798000Y-38075885D01*
X161798000Y-36708115D01*
X161793525Y-36692876D01*
X161792135Y-36691671D01*
X161784452Y-36690000D01*
X161589326Y-36690000D01*
X161584399Y-36690193D01*
X161396764Y-36704961D01*
X161387017Y-36706504D01*
X161142877Y-36765117D01*
X161133492Y-36768166D01*
X160901530Y-36864248D01*
X160892736Y-36868729D01*
X160678652Y-36999920D01*
X160670679Y-37005712D01*
X160479748Y-37168784D01*
X160472784Y-37175748D01*
X160309712Y-37366679D01*
X160303920Y-37374652D01*
X160172729Y-37588736D01*
X160168248Y-37597530D01*
X160072166Y-37829492D01*
X160069117Y-37838877D01*
X160011180Y-38080202D01*
X144280819Y-38080202D01*
X144222883Y-37838877D01*
X144219834Y-37829492D01*
X144123752Y-37597530D01*
X144119271Y-37588736D01*
X143988080Y-37374652D01*
X143982288Y-37366679D01*
X143819216Y-37175748D01*
X143812252Y-37168784D01*
X143621321Y-37005712D01*
X143613348Y-36999920D01*
X143399264Y-36868729D01*
X143390470Y-36864248D01*
X143158508Y-36768166D01*
X143149123Y-36765117D01*
X142904983Y-36706504D01*
X142895236Y-36704961D01*
X142707601Y-36690193D01*
X142702674Y-36690000D01*
X142512115Y-36690000D01*
X142496876Y-36694475D01*
X142495671Y-36695865D01*
X142494000Y-36703548D01*
X142494000Y-38075885D01*
X141986000Y-38075885D01*
X141986000Y-36708115D01*
X141981525Y-36692876D01*
X141980135Y-36691671D01*
X141972452Y-36690000D01*
X141777326Y-36690000D01*
X141772399Y-36690193D01*
X141584764Y-36704961D01*
X141575017Y-36706504D01*
X141330877Y-36765117D01*
X141321492Y-36768166D01*
X141089530Y-36864248D01*
X141080736Y-36868729D01*
X140866652Y-36999920D01*
X140858679Y-37005712D01*
X140667748Y-37168784D01*
X140660784Y-37175748D01*
X140497712Y-37366679D01*
X140491920Y-37374652D01*
X140360729Y-37588736D01*
X140356248Y-37597530D01*
X140260166Y-37829492D01*
X140257117Y-37838877D01*
X140199180Y-38080202D01*
X125484819Y-38080202D01*
X125426883Y-37838877D01*
X125423834Y-37829492D01*
X125327752Y-37597530D01*
X125323271Y-37588736D01*
X125192080Y-37374652D01*
X125186288Y-37366679D01*
X125023216Y-37175748D01*
X125016252Y-37168784D01*
X124825321Y-37005712D01*
X124817348Y-36999920D01*
X124603264Y-36868729D01*
X124594470Y-36864248D01*
X124362508Y-36768166D01*
X124353123Y-36765117D01*
X124108983Y-36706504D01*
X124099236Y-36704961D01*
X123911601Y-36690193D01*
X123906674Y-36690000D01*
X123716115Y-36690000D01*
X123700876Y-36694475D01*
X123699671Y-36695865D01*
X123698000Y-36703548D01*
X123698000Y-38075885D01*
X123190000Y-38075885D01*
X123190000Y-36708115D01*
X123185525Y-36692876D01*
X123184135Y-36691671D01*
X123176452Y-36690000D01*
X122981326Y-36690000D01*
X122976399Y-36690193D01*
X122788764Y-36704961D01*
X122779017Y-36706504D01*
X122534877Y-36765117D01*
X122525492Y-36768166D01*
X122293530Y-36864248D01*
X122284736Y-36868729D01*
X122070652Y-36999920D01*
X122062679Y-37005712D01*
X121871748Y-37168784D01*
X121864784Y-37175748D01*
X121701712Y-37366679D01*
X121695920Y-37374652D01*
X121564729Y-37588736D01*
X121560248Y-37597530D01*
X121464166Y-37829492D01*
X121461117Y-37838877D01*
X121403180Y-38080202D01*
X96012000Y-38080202D01*
X96012000Y-35178000D01*
X96032002Y-35109879D01*
X96085658Y-35063386D01*
X96138000Y-35052000D01*
X169546000Y-35052000D01*
X169614121Y-35072002D01*
G37*
%TD.AperFunction*%
%TA.AperFunction,Conductor*%
G36*
X138865990Y-79539245D02*
G01*
X138911053Y-79568206D01*
X142773497Y-83430650D01*
X142807523Y-83492962D01*
X142802458Y-83563777D01*
X142759911Y-83620613D01*
X142737652Y-83633940D01*
X142604238Y-83696151D01*
X142604233Y-83696154D01*
X142599251Y-83698477D01*
X142494389Y-83771902D01*
X142416211Y-83826643D01*
X142416208Y-83826645D01*
X142411700Y-83829802D01*
X142249802Y-83991700D01*
X142246645Y-83996208D01*
X142246643Y-83996211D01*
X142191902Y-84074389D01*
X142118477Y-84179251D01*
X142116154Y-84184233D01*
X142116151Y-84184238D01*
X142100195Y-84218457D01*
X142053278Y-84271742D01*
X141985001Y-84291203D01*
X141917041Y-84270661D01*
X141871805Y-84218457D01*
X141855849Y-84184238D01*
X141855846Y-84184233D01*
X141853523Y-84179251D01*
X141780098Y-84074389D01*
X141725357Y-83996211D01*
X141725355Y-83996208D01*
X141722198Y-83991700D01*
X141560300Y-83829802D01*
X141555792Y-83826645D01*
X141555789Y-83826643D01*
X141477611Y-83771902D01*
X141372749Y-83698477D01*
X141367767Y-83696154D01*
X141367762Y-83696151D01*
X141170225Y-83604039D01*
X141170224Y-83604039D01*
X141165243Y-83601716D01*
X141159935Y-83600294D01*
X141159933Y-83600293D01*
X140949402Y-83543881D01*
X140949400Y-83543881D01*
X140944087Y-83542457D01*
X140716000Y-83522502D01*
X140487913Y-83542457D01*
X140482600Y-83543881D01*
X140482598Y-83543881D01*
X140272067Y-83600293D01*
X140272065Y-83600294D01*
X140266757Y-83601716D01*
X140261776Y-83604039D01*
X140261775Y-83604039D01*
X140064238Y-83696151D01*
X140064233Y-83696154D01*
X140059251Y-83698477D01*
X139954389Y-83771902D01*
X139876211Y-83826643D01*
X139876208Y-83826645D01*
X139871700Y-83829802D01*
X139709802Y-83991700D01*
X139706643Y-83996211D01*
X139703108Y-84000424D01*
X139702140Y-83999612D01*
X139651506Y-84040090D01*
X139580887Y-84047404D01*
X139517524Y-84015376D01*
X139481536Y-83954177D01*
X139478480Y-83937099D01*
X139478105Y-83933648D01*
X139474479Y-83918396D01*
X139429324Y-83797946D01*
X139420786Y-83782351D01*
X139344285Y-83680276D01*
X139331724Y-83667715D01*
X139229649Y-83591214D01*
X139214054Y-83582676D01*
X139093606Y-83537522D01*
X139078351Y-83533895D01*
X139027486Y-83528369D01*
X139020672Y-83528000D01*
X138448115Y-83528000D01*
X138432876Y-83532475D01*
X138431671Y-83533865D01*
X138430000Y-83541548D01*
X138430000Y-84964000D01*
X138409998Y-85032121D01*
X138356342Y-85078614D01*
X138304000Y-85090000D01*
X136886116Y-85090000D01*
X136870877Y-85094475D01*
X136869672Y-85095865D01*
X136868001Y-85103548D01*
X136868001Y-85255011D01*
X136847999Y-85323132D01*
X136794343Y-85369625D01*
X136742001Y-85381011D01*
X133224248Y-85381011D01*
X133156127Y-85361009D01*
X133109634Y-85307353D01*
X133099530Y-85237079D01*
X133129024Y-85172499D01*
X133135153Y-85165916D01*
X133737184Y-84563885D01*
X136868000Y-84563885D01*
X136872475Y-84579124D01*
X136873865Y-84580329D01*
X136881548Y-84582000D01*
X137903885Y-84582000D01*
X137919124Y-84577525D01*
X137920329Y-84576135D01*
X137922000Y-84568452D01*
X137922000Y-83546116D01*
X137917525Y-83530877D01*
X137916135Y-83529672D01*
X137908452Y-83528001D01*
X137331331Y-83528001D01*
X137324510Y-83528371D01*
X137273648Y-83533895D01*
X137258396Y-83537521D01*
X137137946Y-83582676D01*
X137122351Y-83591214D01*
X137020276Y-83667715D01*
X137007715Y-83680276D01*
X136931214Y-83782351D01*
X136922676Y-83797946D01*
X136877522Y-83918394D01*
X136873895Y-83933649D01*
X136868369Y-83984514D01*
X136868000Y-83991328D01*
X136868000Y-84563885D01*
X133737184Y-84563885D01*
X138732863Y-79568206D01*
X138795175Y-79534180D01*
X138865990Y-79539245D01*
G37*
%TD.AperFunction*%
%TA.AperFunction,Conductor*%
G36*
X123272493Y-71550100D02*
G01*
X123279076Y-71556229D01*
X126225547Y-74502700D01*
X126258159Y-74559184D01*
X126273716Y-74617243D01*
X126294693Y-74662228D01*
X126368151Y-74819762D01*
X126368154Y-74819767D01*
X126370477Y-74824749D01*
X126501802Y-75012300D01*
X126663700Y-75174198D01*
X126668208Y-75177355D01*
X126668211Y-75177357D01*
X126720826Y-75214198D01*
X126851251Y-75305523D01*
X126856233Y-75307846D01*
X126856238Y-75307849D01*
X127053775Y-75399961D01*
X127058757Y-75402284D01*
X127064065Y-75403706D01*
X127064067Y-75403707D01*
X127274598Y-75460119D01*
X127274600Y-75460119D01*
X127279913Y-75461543D01*
X127285399Y-75462023D01*
X127285405Y-75462024D01*
X127346729Y-75467390D01*
X127412847Y-75493253D01*
X127454487Y-75550757D01*
X127458427Y-75621644D01*
X127424842Y-75682005D01*
X127173300Y-75933547D01*
X127116816Y-75966159D01*
X127058757Y-75981716D01*
X126988192Y-76014621D01*
X126856238Y-76076151D01*
X126856233Y-76076154D01*
X126851251Y-76078477D01*
X126746389Y-76151902D01*
X126668211Y-76206643D01*
X126668208Y-76206645D01*
X126663700Y-76209802D01*
X126501802Y-76371700D01*
X126370477Y-76559251D01*
X126368154Y-76564233D01*
X126368151Y-76564238D01*
X126352195Y-76598457D01*
X126305278Y-76651742D01*
X126237001Y-76671203D01*
X126169041Y-76650661D01*
X126123805Y-76598457D01*
X126107849Y-76564238D01*
X126107846Y-76564233D01*
X126105523Y-76559251D01*
X125974198Y-76371700D01*
X125812300Y-76209802D01*
X125807792Y-76206645D01*
X125807789Y-76206643D01*
X125729611Y-76151902D01*
X125624749Y-76078477D01*
X125619767Y-76076154D01*
X125619762Y-76076151D01*
X125422225Y-75984039D01*
X125422224Y-75984039D01*
X125417243Y-75981716D01*
X125411935Y-75980294D01*
X125411933Y-75980293D01*
X125201402Y-75923881D01*
X125201400Y-75923881D01*
X125196087Y-75922457D01*
X124968000Y-75902502D01*
X124739913Y-75922457D01*
X124734600Y-75923881D01*
X124734598Y-75923881D01*
X124524067Y-75980293D01*
X124524065Y-75980294D01*
X124518757Y-75981716D01*
X124513776Y-75984039D01*
X124513775Y-75984039D01*
X124316238Y-76076151D01*
X124316233Y-76076154D01*
X124311251Y-76078477D01*
X124206389Y-76151902D01*
X124128211Y-76206643D01*
X124128208Y-76206645D01*
X124123700Y-76209802D01*
X123961802Y-76371700D01*
X123830477Y-76559251D01*
X123828154Y-76564233D01*
X123828151Y-76564238D01*
X123812195Y-76598457D01*
X123765278Y-76651742D01*
X123697001Y-76671203D01*
X123629041Y-76650661D01*
X123583805Y-76598457D01*
X123567849Y-76564238D01*
X123567846Y-76564233D01*
X123565523Y-76559251D01*
X123434198Y-76371700D01*
X123272300Y-76209802D01*
X123267792Y-76206645D01*
X123267789Y-76206643D01*
X123196612Y-76156805D01*
X123117709Y-76101556D01*
X123073382Y-76046100D01*
X123063981Y-75998344D01*
X123063981Y-71645324D01*
X123083983Y-71577203D01*
X123137639Y-71530710D01*
X123207913Y-71520606D01*
X123272493Y-71550100D01*
G37*
%TD.AperFunction*%
%TA.AperFunction,Conductor*%
G36*
X142068012Y-72057619D02*
G01*
X142074595Y-72063748D01*
X144513547Y-74502700D01*
X144546159Y-74559184D01*
X144561716Y-74617243D01*
X144582693Y-74662228D01*
X144656151Y-74819762D01*
X144656154Y-74819767D01*
X144658477Y-74824749D01*
X144789802Y-75012300D01*
X144951700Y-75174198D01*
X144956208Y-75177355D01*
X144956211Y-75177357D01*
X145008826Y-75214198D01*
X145139251Y-75305523D01*
X145144233Y-75307846D01*
X145144238Y-75307849D01*
X145341775Y-75399961D01*
X145346757Y-75402284D01*
X145352065Y-75403706D01*
X145352067Y-75403707D01*
X145562598Y-75460119D01*
X145562600Y-75460119D01*
X145567913Y-75461543D01*
X145573399Y-75462023D01*
X145573405Y-75462024D01*
X145634729Y-75467390D01*
X145700847Y-75493253D01*
X145742487Y-75550757D01*
X145746427Y-75621644D01*
X145712842Y-75682005D01*
X145461300Y-75933547D01*
X145404816Y-75966159D01*
X145346757Y-75981716D01*
X145276192Y-76014621D01*
X145144238Y-76076151D01*
X145144233Y-76076154D01*
X145139251Y-76078477D01*
X145034389Y-76151902D01*
X144956211Y-76206643D01*
X144956208Y-76206645D01*
X144951700Y-76209802D01*
X144789802Y-76371700D01*
X144658477Y-76559251D01*
X144656154Y-76564233D01*
X144656151Y-76564238D01*
X144640195Y-76598457D01*
X144593278Y-76651742D01*
X144525001Y-76671203D01*
X144457041Y-76650661D01*
X144411805Y-76598457D01*
X144395849Y-76564238D01*
X144395846Y-76564233D01*
X144393523Y-76559251D01*
X144262198Y-76371700D01*
X144100300Y-76209802D01*
X144095792Y-76206645D01*
X144095789Y-76206643D01*
X144017611Y-76151902D01*
X143912749Y-76078477D01*
X143907767Y-76076154D01*
X143907762Y-76076151D01*
X143710225Y-75984039D01*
X143710224Y-75984039D01*
X143705243Y-75981716D01*
X143699935Y-75980294D01*
X143699933Y-75980293D01*
X143489402Y-75923881D01*
X143489400Y-75923881D01*
X143484087Y-75922457D01*
X143256000Y-75902502D01*
X143027913Y-75922457D01*
X143022600Y-75923881D01*
X143022598Y-75923881D01*
X142812067Y-75980293D01*
X142812065Y-75980294D01*
X142806757Y-75981716D01*
X142801776Y-75984039D01*
X142801775Y-75984039D01*
X142637385Y-76060695D01*
X142584135Y-76072500D01*
X141985500Y-76072500D01*
X141917379Y-76052498D01*
X141870886Y-75998842D01*
X141859500Y-75946500D01*
X141859500Y-72152843D01*
X141879502Y-72084722D01*
X141933158Y-72038229D01*
X142003432Y-72028125D01*
X142068012Y-72057619D01*
G37*
%TD.AperFunction*%
%TA.AperFunction,Conductor*%
G36*
X127561012Y-55482620D02*
G01*
X127567595Y-55488749D01*
X130227084Y-58148238D01*
X130261110Y-58210550D01*
X130263989Y-58237333D01*
X130263989Y-62273983D01*
X130243987Y-62342104D01*
X130190331Y-62388597D01*
X130120057Y-62398701D01*
X130055477Y-62369207D01*
X130034902Y-62346433D01*
X130026568Y-62334574D01*
X129902021Y-62157361D01*
X129848914Y-62100211D01*
X129707384Y-61947907D01*
X129707381Y-61947905D01*
X129704463Y-61944764D01*
X129479881Y-61760946D01*
X129273106Y-61634234D01*
X129236092Y-61611552D01*
X129236091Y-61611552D01*
X129232430Y-61609308D01*
X129214106Y-61601264D01*
X129056471Y-61532067D01*
X128966689Y-61492655D01*
X128687574Y-61413148D01*
X128400252Y-61372255D01*
X128247879Y-61371457D01*
X128114324Y-61370758D01*
X128114318Y-61370758D01*
X128110038Y-61370736D01*
X128105794Y-61371295D01*
X128105790Y-61371295D01*
X128001426Y-61385035D01*
X127822303Y-61408617D01*
X127818163Y-61409750D01*
X127818161Y-61409750D01*
X127799764Y-61414783D01*
X127542372Y-61485198D01*
X127275423Y-61599061D01*
X127271742Y-61601264D01*
X127030079Y-61745896D01*
X127030075Y-61745899D01*
X127026397Y-61748100D01*
X126799903Y-61929556D01*
X126796959Y-61932658D01*
X126796955Y-61932662D01*
X126611325Y-62128275D01*
X126600130Y-62140072D01*
X126430776Y-62375754D01*
X126294975Y-62632238D01*
X126293503Y-62636261D01*
X126293501Y-62636265D01*
X126224727Y-62824197D01*
X126195238Y-62904780D01*
X126133413Y-63188336D01*
X126110643Y-63477659D01*
X126127349Y-63767395D01*
X126128174Y-63771600D01*
X126128175Y-63771608D01*
X126139528Y-63829472D01*
X126183222Y-64052184D01*
X126184609Y-64056234D01*
X126184610Y-64056239D01*
X126259946Y-64276276D01*
X126277229Y-64326754D01*
X126306074Y-64384106D01*
X126371603Y-64514396D01*
X126407629Y-64586027D01*
X126572010Y-64825203D01*
X126767331Y-65039857D01*
X126770620Y-65042607D01*
X126986683Y-65223265D01*
X126986688Y-65223269D01*
X126989975Y-65226017D01*
X127082732Y-65284203D01*
X127232185Y-65377955D01*
X127232189Y-65377957D01*
X127235825Y-65380238D01*
X127239735Y-65382003D01*
X127239736Y-65382004D01*
X127496419Y-65497901D01*
X127496423Y-65497903D01*
X127500331Y-65499667D01*
X127504451Y-65500887D01*
X127504450Y-65500887D01*
X127774484Y-65580875D01*
X127774488Y-65580876D01*
X127778597Y-65582093D01*
X127782834Y-65582741D01*
X127782837Y-65582742D01*
X128023500Y-65619569D01*
X128065475Y-65625992D01*
X128213275Y-65628314D01*
X128351366Y-65630483D01*
X128351372Y-65630483D01*
X128355657Y-65630550D01*
X128643773Y-65595684D01*
X128924491Y-65522039D01*
X129192618Y-65410978D01*
X129423041Y-65276329D01*
X129439487Y-65266719D01*
X129439488Y-65266718D01*
X129443190Y-65264555D01*
X129671573Y-65085480D01*
X129873539Y-64877067D01*
X129876072Y-64873619D01*
X129876076Y-64873614D01*
X130036442Y-64655302D01*
X130092891Y-64612243D01*
X130163658Y-64606538D01*
X130226275Y-64639999D01*
X130260862Y-64702001D01*
X130263989Y-64729896D01*
X130263989Y-72790668D01*
X130243987Y-72858789D01*
X130227084Y-72879763D01*
X129022005Y-74084842D01*
X128959693Y-74118868D01*
X128888878Y-74113803D01*
X128832042Y-74071256D01*
X128807390Y-74006729D01*
X128802024Y-73945405D01*
X128802022Y-73945393D01*
X128801543Y-73939913D01*
X128785411Y-73879707D01*
X128743707Y-73724067D01*
X128743706Y-73724065D01*
X128742284Y-73718757D01*
X128721401Y-73673972D01*
X128647849Y-73516238D01*
X128647846Y-73516233D01*
X128645523Y-73511251D01*
X128545365Y-73368211D01*
X128517357Y-73328211D01*
X128517355Y-73328208D01*
X128514198Y-73323700D01*
X128352300Y-73161802D01*
X128347792Y-73158645D01*
X128347789Y-73158643D01*
X128223850Y-73071860D01*
X128164749Y-73030477D01*
X128159767Y-73028154D01*
X128159762Y-73028151D01*
X128017834Y-72961970D01*
X127957243Y-72933716D01*
X127899184Y-72918159D01*
X127842700Y-72885547D01*
X124624405Y-69667252D01*
X124590379Y-69604940D01*
X124587500Y-69578157D01*
X124587500Y-57445273D01*
X124607502Y-57377152D01*
X124661158Y-57330659D01*
X124731432Y-57320555D01*
X124781929Y-57341489D01*
X124782240Y-57340921D01*
X124787480Y-57343790D01*
X124789065Y-57344447D01*
X124797295Y-57350615D01*
X124933684Y-57401745D01*
X124995866Y-57408500D01*
X126892134Y-57408500D01*
X126954316Y-57401745D01*
X127090705Y-57350615D01*
X127207261Y-57263261D01*
X127294615Y-57146705D01*
X127345745Y-57010316D01*
X127352500Y-56948134D01*
X127352500Y-55577844D01*
X127372502Y-55509723D01*
X127426158Y-55463230D01*
X127496432Y-55453126D01*
X127561012Y-55482620D01*
G37*
%TD.AperFunction*%
%TA.AperFunction,Conductor*%
G36*
X146865012Y-55990619D02*
G01*
X146871595Y-55996748D01*
X148876106Y-58001259D01*
X148910132Y-58063571D01*
X148913011Y-58090354D01*
X148913011Y-61615087D01*
X148893009Y-61683208D01*
X148839353Y-61729701D01*
X148769079Y-61739805D01*
X148721176Y-61722520D01*
X148540092Y-61611552D01*
X148540091Y-61611552D01*
X148536430Y-61609308D01*
X148518106Y-61601264D01*
X148360471Y-61532067D01*
X148270689Y-61492655D01*
X147991574Y-61413148D01*
X147704252Y-61372255D01*
X147551879Y-61371457D01*
X147418324Y-61370758D01*
X147418318Y-61370758D01*
X147414038Y-61370736D01*
X147409794Y-61371295D01*
X147409790Y-61371295D01*
X147305426Y-61385035D01*
X147126303Y-61408617D01*
X147122163Y-61409750D01*
X147122161Y-61409750D01*
X147103764Y-61414783D01*
X146846372Y-61485198D01*
X146579423Y-61599061D01*
X146575742Y-61601264D01*
X146334079Y-61745896D01*
X146334075Y-61745899D01*
X146330397Y-61748100D01*
X146103903Y-61929556D01*
X146100959Y-61932658D01*
X146100955Y-61932662D01*
X145915325Y-62128275D01*
X145904130Y-62140072D01*
X145734776Y-62375754D01*
X145598975Y-62632238D01*
X145597503Y-62636261D01*
X145597501Y-62636265D01*
X145528727Y-62824197D01*
X145499238Y-62904780D01*
X145437413Y-63188336D01*
X145414643Y-63477659D01*
X145431349Y-63767395D01*
X145432174Y-63771600D01*
X145432175Y-63771608D01*
X145443528Y-63829472D01*
X145487222Y-64052184D01*
X145488609Y-64056234D01*
X145488610Y-64056239D01*
X145563946Y-64276276D01*
X145581229Y-64326754D01*
X145610074Y-64384106D01*
X145675603Y-64514396D01*
X145711629Y-64586027D01*
X145876010Y-64825203D01*
X146071331Y-65039857D01*
X146074620Y-65042607D01*
X146290683Y-65223265D01*
X146290688Y-65223269D01*
X146293975Y-65226017D01*
X146386732Y-65284203D01*
X146536185Y-65377955D01*
X146536189Y-65377957D01*
X146539825Y-65380238D01*
X146543735Y-65382003D01*
X146543736Y-65382004D01*
X146800419Y-65497901D01*
X146800423Y-65497903D01*
X146804331Y-65499667D01*
X146808451Y-65500887D01*
X146808450Y-65500887D01*
X147078484Y-65580875D01*
X147078488Y-65580876D01*
X147082597Y-65582093D01*
X147086834Y-65582741D01*
X147086837Y-65582742D01*
X147327500Y-65619569D01*
X147369475Y-65625992D01*
X147517275Y-65628314D01*
X147655366Y-65630483D01*
X147655372Y-65630483D01*
X147659657Y-65630550D01*
X147947773Y-65595684D01*
X148228491Y-65522039D01*
X148496618Y-65410978D01*
X148723441Y-65278433D01*
X148792347Y-65261334D01*
X148859559Y-65284203D01*
X148903738Y-65339779D01*
X148913011Y-65387221D01*
X148913011Y-72429645D01*
X148893009Y-72497766D01*
X148876106Y-72518740D01*
X147310005Y-74084841D01*
X147247693Y-74118867D01*
X147176878Y-74113802D01*
X147120042Y-74071255D01*
X147095390Y-74006728D01*
X147090025Y-73945405D01*
X147090022Y-73945388D01*
X147089543Y-73939913D01*
X147073411Y-73879707D01*
X147031707Y-73724067D01*
X147031706Y-73724065D01*
X147030284Y-73718757D01*
X147009401Y-73673972D01*
X146935849Y-73516238D01*
X146935846Y-73516233D01*
X146933523Y-73511251D01*
X146833365Y-73368211D01*
X146805357Y-73328211D01*
X146805355Y-73328208D01*
X146802198Y-73323700D01*
X146640300Y-73161802D01*
X146635792Y-73158645D01*
X146635789Y-73158643D01*
X146511850Y-73071860D01*
X146452749Y-73030477D01*
X146447767Y-73028154D01*
X146447762Y-73028151D01*
X146305834Y-72961970D01*
X146245243Y-72933716D01*
X146187184Y-72918159D01*
X146130700Y-72885547D01*
X143928405Y-70683252D01*
X143894379Y-70620940D01*
X143891500Y-70594157D01*
X143891500Y-57445273D01*
X143911502Y-57377152D01*
X143965158Y-57330659D01*
X144035432Y-57320555D01*
X144085929Y-57341489D01*
X144086240Y-57340921D01*
X144091480Y-57343790D01*
X144093065Y-57344447D01*
X144101295Y-57350615D01*
X144237684Y-57401745D01*
X144299866Y-57408500D01*
X146196134Y-57408500D01*
X146258316Y-57401745D01*
X146394705Y-57350615D01*
X146511261Y-57263261D01*
X146598615Y-57146705D01*
X146649745Y-57010316D01*
X146656500Y-56948134D01*
X146656500Y-56085843D01*
X146676502Y-56017722D01*
X146730158Y-55971229D01*
X146800432Y-55961125D01*
X146865012Y-55990619D01*
G37*
%TD.AperFunction*%
%TD*%
M02*
