%TF.GenerationSoftware,KiCad,Pcbnew,(6.0.0-0)*%
%TF.CreationDate,2022-04-11T21:27:53+01:00*%
%TF.ProjectId,atari-punk,61746172-692d-4707-956e-6b2e6b696361,r01*%
%TF.SameCoordinates,Original*%
%TF.FileFunction,Soldermask,Top*%
%TF.FilePolarity,Negative*%
%FSLAX46Y46*%
G04 Gerber Fmt 4.6, Leading zero omitted, Abs format (unit mm)*
G04 Created by KiCad (PCBNEW (6.0.0-0)) date 2022-04-11 21:27:53*
%MOMM*%
%LPD*%
G01*
G04 APERTURE LIST*
G04 Aperture macros list*
%AMRoundRect*
0 Rectangle with rounded corners*
0 $1 Rounding radius*
0 $2 $3 $4 $5 $6 $7 $8 $9 X,Y pos of 4 corners*
0 Add a 4 corners polygon primitive as box body*
4,1,4,$2,$3,$4,$5,$6,$7,$8,$9,$2,$3,0*
0 Add four circle primitives for the rounded corners*
1,1,$1+$1,$2,$3*
1,1,$1+$1,$4,$5*
1,1,$1+$1,$6,$7*
1,1,$1+$1,$8,$9*
0 Add four rect primitives between the rounded corners*
20,1,$1+$1,$2,$3,$4,$5,0*
20,1,$1+$1,$4,$5,$6,$7,0*
20,1,$1+$1,$6,$7,$8,$9,0*
20,1,$1+$1,$8,$9,$2,$3,0*%
G04 Aperture macros list end*
%ADD10C,1.600000*%
%ADD11R,1.800000X1.800000*%
%ADD12C,1.800000*%
%ADD13R,1.600000X1.600000*%
%ADD14O,1.600000X1.600000*%
%ADD15R,1.700000X1.700000*%
%ADD16O,1.700000X1.700000*%
%ADD17C,3.240000*%
%ADD18R,2.600000X2.600000*%
%ADD19C,2.600000*%
%ADD20O,3.100000X2.300000*%
%ADD21RoundRect,0.650000X-0.650000X-0.650000X0.650000X-0.650000X0.650000X0.650000X-0.650000X0.650000X0*%
G04 APERTURE END LIST*
D10*
%TO.C,C2*%
X132080000Y-57257000D03*
X132080000Y-56007000D03*
X132080000Y-59757000D03*
X132080000Y-61007000D03*
%TD*%
D11*
%TO.C,D2*%
X101473000Y-65786000D03*
D12*
X101473000Y-68326000D03*
%TD*%
D13*
%TO.C,C3*%
X109093000Y-78359000D03*
D10*
X111593000Y-78359000D03*
%TD*%
D13*
%TO.C,U2*%
X138557000Y-84709000D03*
D14*
X141097000Y-84709000D03*
X143637000Y-84709000D03*
X146177000Y-84709000D03*
X146177000Y-77089000D03*
X143637000Y-77089000D03*
X141097000Y-77089000D03*
X138557000Y-77089000D03*
%TD*%
D10*
%TO.C,C1*%
X130937000Y-77089000D03*
X130937000Y-78339000D03*
X130937000Y-74589000D03*
X130937000Y-73339000D03*
%TD*%
%TO.C,R1*%
X109093000Y-72517000D03*
D14*
X101473000Y-72517000D03*
%TD*%
D13*
%TO.C,D1*%
X109093000Y-69469000D03*
D14*
X109093000Y-61849000D03*
%TD*%
D15*
%TO.C,J2*%
X110363000Y-43561000D03*
D16*
X110363000Y-41021000D03*
X107823000Y-43561000D03*
X107823000Y-41021000D03*
X105283000Y-43561000D03*
X105283000Y-41021000D03*
X102743000Y-43561000D03*
X102743000Y-41021000D03*
X100203000Y-43561000D03*
X100203000Y-41021000D03*
%TD*%
D17*
%TO.C,RV3*%
X166217000Y-63373000D03*
X156617000Y-63373000D03*
D11*
X163917000Y-55873000D03*
D12*
X161417000Y-55873000D03*
X158917000Y-55873000D03*
%TD*%
D10*
%TO.C,R4*%
X138557000Y-74168000D03*
D14*
X146177000Y-74168000D03*
%TD*%
D13*
%TO.C,C7*%
X158369000Y-75731380D03*
D10*
X158369000Y-73231380D03*
%TD*%
D17*
%TO.C,RV1*%
X127101000Y-63370000D03*
X117501000Y-63370000D03*
D11*
X124801000Y-55870000D03*
D12*
X122301000Y-55870000D03*
X119801000Y-55870000D03*
%TD*%
D18*
%TO.C,J1*%
X109832000Y-53606000D03*
D19*
X103832000Y-53606000D03*
X106832000Y-58306000D03*
%TD*%
D17*
%TO.C,RV2*%
X146659000Y-63373000D03*
X137059000Y-63373000D03*
D11*
X144359000Y-55873000D03*
D12*
X141859000Y-55873000D03*
X139359000Y-55873000D03*
%TD*%
D20*
%TO.C,J6*%
X141859000Y-50422000D03*
D21*
X141859000Y-39022000D03*
X141859000Y-47322000D03*
%TD*%
D10*
%TO.C,C6*%
X150114000Y-77089000D03*
X150114000Y-78339000D03*
X150114000Y-74589000D03*
X150114000Y-73339000D03*
%TD*%
D20*
%TO.C,J3*%
X130810000Y-50422000D03*
D21*
X130810000Y-39022000D03*
X130810000Y-47322000D03*
%TD*%
D10*
%TO.C,R2*%
X115951000Y-84709000D03*
D14*
X115951000Y-77089000D03*
%TD*%
D10*
%TO.C,C4*%
X102997000Y-77089000D03*
X102997000Y-78339000D03*
X102997000Y-80839000D03*
X102997000Y-82089000D03*
%TD*%
D20*
%TO.C,J5*%
X152908000Y-50422000D03*
D21*
X152908000Y-39022000D03*
X152908000Y-47322000D03*
%TD*%
D20*
%TO.C,J4*%
X119761000Y-50422000D03*
D21*
X119761000Y-39022000D03*
X119761000Y-47322000D03*
%TD*%
D10*
%TO.C,C5*%
X151638000Y-57257000D03*
X151638000Y-56007000D03*
X151638000Y-59757000D03*
X151638000Y-61007000D03*
%TD*%
%TO.C,R3*%
X119380000Y-74168000D03*
D14*
X127000000Y-74168000D03*
%TD*%
D13*
%TO.C,U1*%
X119380000Y-84709000D03*
D14*
X121920000Y-84709000D03*
X124460000Y-84709000D03*
X127000000Y-84709000D03*
X127000000Y-77089000D03*
X124460000Y-77089000D03*
X121920000Y-77089000D03*
X119380000Y-77089000D03*
%TD*%
D20*
%TO.C,J7*%
X163957000Y-50422000D03*
D21*
X163957000Y-39022000D03*
X163957000Y-47322000D03*
%TD*%
M02*
