%TF.GenerationSoftware,KiCad,Pcbnew,(6.0.0-0)*%
%TF.CreationDate,2022-04-11T21:27:53+01:00*%
%TF.ProjectId,atari-punk,61746172-692d-4707-956e-6b2e6b696361,r01*%
%TF.SameCoordinates,Original*%
%TF.FileFunction,Legend,Top*%
%TF.FilePolarity,Positive*%
%FSLAX46Y46*%
G04 Gerber Fmt 4.6, Leading zero omitted, Abs format (unit mm)*
G04 Created by KiCad (PCBNEW (6.0.0-0)) date 2022-04-11 21:27:53*
%MOMM*%
%LPD*%
G01*
G04 APERTURE LIST*
%ADD10C,0.200000*%
%ADD11C,0.735000*%
%ADD12C,0.150000*%
%ADD13C,0.300000*%
%ADD14C,0.120000*%
G04 APERTURE END LIST*
D10*
X101981000Y-60579000D02*
X100965000Y-60579000D01*
X97282000Y-61214000D02*
X97282000Y-59944000D01*
X98298000Y-60579000D02*
G75*
G03*
X98298000Y-60579000I-1016000J0D01*
G01*
X102362000Y-60579000D02*
X103632000Y-60579000D01*
X99949000Y-61595000D02*
G75*
G03*
X99949000Y-59563000I0J1016000D01*
G01*
D11*
X100316500Y-60579000D02*
G75*
G03*
X100316500Y-60579000I-367500J0D01*
G01*
D10*
X104013000Y-60579000D02*
G75*
G03*
X104013000Y-60579000I-1016000J0D01*
G01*
X96647000Y-60579000D02*
X97917000Y-60579000D01*
X99314000Y-60579000D02*
X98298000Y-60579000D01*
D12*
X118784809Y-36298142D02*
X118737190Y-36345761D01*
X118594333Y-36393380D01*
X118499095Y-36393380D01*
X118356238Y-36345761D01*
X118261000Y-36250523D01*
X118213380Y-36155285D01*
X118165761Y-35964809D01*
X118165761Y-35821952D01*
X118213380Y-35631476D01*
X118261000Y-35536238D01*
X118356238Y-35441000D01*
X118499095Y-35393380D01*
X118594333Y-35393380D01*
X118737190Y-35441000D01*
X118784809Y-35488619D01*
X119070523Y-35393380D02*
X119403857Y-36393380D01*
X119737190Y-35393380D01*
X121356238Y-36393380D02*
X120784809Y-36393380D01*
X121070523Y-36393380D02*
X121070523Y-35393380D01*
X120975285Y-35536238D01*
X120880047Y-35631476D01*
X120784809Y-35679095D01*
D13*
X154460571Y-82227500D02*
X155174857Y-82227500D01*
X154317714Y-82656071D02*
X154817714Y-81156071D01*
X155317714Y-82656071D01*
X155603428Y-81156071D02*
X156460571Y-81156071D01*
X156032000Y-82656071D02*
X156032000Y-81156071D01*
X156889142Y-82227500D02*
X157603428Y-82227500D01*
X156746285Y-82656071D02*
X157246285Y-81156071D01*
X157746285Y-82656071D01*
X159103428Y-82656071D02*
X158603428Y-81941785D01*
X158246285Y-82656071D02*
X158246285Y-81156071D01*
X158817714Y-81156071D01*
X158960571Y-81227500D01*
X159032000Y-81298928D01*
X159103428Y-81441785D01*
X159103428Y-81656071D01*
X159032000Y-81798928D01*
X158960571Y-81870357D01*
X158817714Y-81941785D01*
X158246285Y-81941785D01*
X159746285Y-82656071D02*
X159746285Y-81156071D01*
X161603428Y-82656071D02*
X161603428Y-81156071D01*
X162174857Y-81156071D01*
X162317714Y-81227500D01*
X162389142Y-81298928D01*
X162460571Y-81441785D01*
X162460571Y-81656071D01*
X162389142Y-81798928D01*
X162317714Y-81870357D01*
X162174857Y-81941785D01*
X161603428Y-81941785D01*
X163103428Y-81156071D02*
X163103428Y-82370357D01*
X163174857Y-82513214D01*
X163246285Y-82584642D01*
X163389142Y-82656071D01*
X163674857Y-82656071D01*
X163817714Y-82584642D01*
X163889142Y-82513214D01*
X163960571Y-82370357D01*
X163960571Y-81156071D01*
X164674857Y-82656071D02*
X164674857Y-81156071D01*
X165532000Y-82656071D01*
X165532000Y-81156071D01*
X166246285Y-82656071D02*
X166246285Y-81156071D01*
X167103428Y-82656071D02*
X166460571Y-81798928D01*
X167103428Y-81156071D02*
X166246285Y-82013214D01*
X156889142Y-84928214D02*
X156817714Y-84999642D01*
X156603428Y-85071071D01*
X156460571Y-85071071D01*
X156246285Y-84999642D01*
X156103428Y-84856785D01*
X156032000Y-84713928D01*
X155960571Y-84428214D01*
X155960571Y-84213928D01*
X156032000Y-83928214D01*
X156103428Y-83785357D01*
X156246285Y-83642500D01*
X156460571Y-83571071D01*
X156603428Y-83571071D01*
X156817714Y-83642500D01*
X156889142Y-83713928D01*
X157817714Y-83571071D02*
X158103428Y-83571071D01*
X158246285Y-83642500D01*
X158389142Y-83785357D01*
X158460571Y-84071071D01*
X158460571Y-84571071D01*
X158389142Y-84856785D01*
X158246285Y-84999642D01*
X158103428Y-85071071D01*
X157817714Y-85071071D01*
X157674857Y-84999642D01*
X157532000Y-84856785D01*
X157460571Y-84571071D01*
X157460571Y-84071071D01*
X157532000Y-83785357D01*
X157674857Y-83642500D01*
X157817714Y-83571071D01*
X159103428Y-85071071D02*
X159103428Y-83571071D01*
X159960571Y-85071071D01*
X159960571Y-83571071D01*
X160603428Y-84999642D02*
X160817714Y-85071071D01*
X161174857Y-85071071D01*
X161317714Y-84999642D01*
X161389142Y-84928214D01*
X161460571Y-84785357D01*
X161460571Y-84642500D01*
X161389142Y-84499642D01*
X161317714Y-84428214D01*
X161174857Y-84356785D01*
X160889142Y-84285357D01*
X160746285Y-84213928D01*
X160674857Y-84142500D01*
X160603428Y-83999642D01*
X160603428Y-83856785D01*
X160674857Y-83713928D01*
X160746285Y-83642500D01*
X160889142Y-83571071D01*
X161246285Y-83571071D01*
X161460571Y-83642500D01*
X162389142Y-83571071D02*
X162674857Y-83571071D01*
X162817714Y-83642500D01*
X162960571Y-83785357D01*
X163032000Y-84071071D01*
X163032000Y-84571071D01*
X162960571Y-84856785D01*
X162817714Y-84999642D01*
X162674857Y-85071071D01*
X162389142Y-85071071D01*
X162246285Y-84999642D01*
X162103428Y-84856785D01*
X162032000Y-84571071D01*
X162032000Y-84071071D01*
X162103428Y-83785357D01*
X162246285Y-83642500D01*
X162389142Y-83571071D01*
X164389142Y-85071071D02*
X163674857Y-85071071D01*
X163674857Y-83571071D01*
X164889142Y-84285357D02*
X165389142Y-84285357D01*
X165603428Y-85071071D02*
X164889142Y-85071071D01*
X164889142Y-83571071D01*
X165603428Y-83571071D01*
D12*
X96829619Y-37957571D02*
X97305809Y-37624238D01*
X96829619Y-37386142D02*
X97829619Y-37386142D01*
X97829619Y-37767095D01*
X97782000Y-37862333D01*
X97734380Y-37909952D01*
X97639142Y-37957571D01*
X97496285Y-37957571D01*
X97401047Y-37909952D01*
X97353428Y-37862333D01*
X97305809Y-37767095D01*
X97305809Y-37386142D01*
X97353428Y-38386142D02*
X97353428Y-38719476D01*
X96829619Y-38862333D02*
X96829619Y-38386142D01*
X97829619Y-38386142D01*
X97829619Y-38862333D01*
X96829619Y-39290904D02*
X97829619Y-39290904D01*
X97829619Y-39529000D01*
X97782000Y-39671857D01*
X97686761Y-39767095D01*
X97591523Y-39814714D01*
X97401047Y-39862333D01*
X97258190Y-39862333D01*
X97067714Y-39814714D01*
X96972476Y-39767095D01*
X96877238Y-39671857D01*
X96829619Y-39529000D01*
X96829619Y-39290904D01*
X96877238Y-41005190D02*
X96829619Y-41148047D01*
X96829619Y-41386142D01*
X96877238Y-41481380D01*
X96924857Y-41529000D01*
X97020095Y-41576619D01*
X97115333Y-41576619D01*
X97210571Y-41529000D01*
X97258190Y-41481380D01*
X97305809Y-41386142D01*
X97353428Y-41195666D01*
X97401047Y-41100428D01*
X97448666Y-41052809D01*
X97543904Y-41005190D01*
X97639142Y-41005190D01*
X97734380Y-41052809D01*
X97782000Y-41100428D01*
X97829619Y-41195666D01*
X97829619Y-41433761D01*
X97782000Y-41576619D01*
X97829619Y-41862333D02*
X97829619Y-42433761D01*
X96829619Y-42148047D02*
X97829619Y-42148047D01*
X96829619Y-43338523D02*
X97305809Y-43005190D01*
X96829619Y-42767095D02*
X97829619Y-42767095D01*
X97829619Y-43148047D01*
X97782000Y-43243285D01*
X97734380Y-43290904D01*
X97639142Y-43338523D01*
X97496285Y-43338523D01*
X97401047Y-43290904D01*
X97353428Y-43243285D01*
X97305809Y-43148047D01*
X97305809Y-42767095D01*
X96829619Y-43767095D02*
X97829619Y-43767095D01*
X96829619Y-44243285D02*
X97829619Y-44243285D01*
X97829619Y-44624238D01*
X97782000Y-44719476D01*
X97734380Y-44767095D01*
X97639142Y-44814714D01*
X97496285Y-44814714D01*
X97401047Y-44767095D01*
X97353428Y-44719476D01*
X97305809Y-44624238D01*
X97305809Y-44243285D01*
X97353428Y-45243285D02*
X97353428Y-45576619D01*
X96829619Y-45719476D02*
X96829619Y-45243285D01*
X97829619Y-45243285D01*
X97829619Y-45719476D01*
X139668523Y-69397571D02*
X139335190Y-69397571D01*
X139335190Y-69921380D02*
X139335190Y-68921380D01*
X139811380Y-68921380D01*
X140763761Y-69921380D02*
X140430428Y-69445190D01*
X140192333Y-69921380D02*
X140192333Y-68921380D01*
X140573285Y-68921380D01*
X140668523Y-68969000D01*
X140716142Y-69016619D01*
X140763761Y-69111857D01*
X140763761Y-69254714D01*
X140716142Y-69349952D01*
X140668523Y-69397571D01*
X140573285Y-69445190D01*
X140192333Y-69445190D01*
X141192333Y-69397571D02*
X141525666Y-69397571D01*
X141668523Y-69921380D02*
X141192333Y-69921380D01*
X141192333Y-68921380D01*
X141668523Y-68921380D01*
X142763761Y-70016619D02*
X142668523Y-69969000D01*
X142573285Y-69873761D01*
X142430428Y-69730904D01*
X142335190Y-69683285D01*
X142239952Y-69683285D01*
X142287571Y-69921380D02*
X142192333Y-69873761D01*
X142097095Y-69778523D01*
X142049476Y-69588047D01*
X142049476Y-69254714D01*
X142097095Y-69064238D01*
X142192333Y-68969000D01*
X142287571Y-68921380D01*
X142478047Y-68921380D01*
X142573285Y-68969000D01*
X142668523Y-69064238D01*
X142716142Y-69254714D01*
X142716142Y-69588047D01*
X142668523Y-69778523D01*
X142573285Y-69873761D01*
X142478047Y-69921380D01*
X142287571Y-69921380D01*
X143859000Y-69016619D02*
X143906619Y-68969000D01*
X144001857Y-68921380D01*
X144239952Y-68921380D01*
X144335190Y-68969000D01*
X144382809Y-69016619D01*
X144430428Y-69111857D01*
X144430428Y-69207095D01*
X144382809Y-69349952D01*
X143811380Y-69921380D01*
X144430428Y-69921380D01*
X129833809Y-36298142D02*
X129786190Y-36345761D01*
X129643333Y-36393380D01*
X129548095Y-36393380D01*
X129405238Y-36345761D01*
X129310000Y-36250523D01*
X129262380Y-36155285D01*
X129214761Y-35964809D01*
X129214761Y-35821952D01*
X129262380Y-35631476D01*
X129310000Y-35536238D01*
X129405238Y-35441000D01*
X129548095Y-35393380D01*
X129643333Y-35393380D01*
X129786190Y-35441000D01*
X129833809Y-35488619D01*
X130119523Y-35393380D02*
X130452857Y-36393380D01*
X130786190Y-35393380D01*
X131833809Y-35488619D02*
X131881428Y-35441000D01*
X131976666Y-35393380D01*
X132214761Y-35393380D01*
X132310000Y-35441000D01*
X132357619Y-35488619D01*
X132405238Y-35583857D01*
X132405238Y-35679095D01*
X132357619Y-35821952D01*
X131786190Y-36393380D01*
X132405238Y-36393380D01*
X120110523Y-69397571D02*
X119777190Y-69397571D01*
X119777190Y-69921380D02*
X119777190Y-68921380D01*
X120253380Y-68921380D01*
X121205761Y-69921380D02*
X120872428Y-69445190D01*
X120634333Y-69921380D02*
X120634333Y-68921380D01*
X121015285Y-68921380D01*
X121110523Y-68969000D01*
X121158142Y-69016619D01*
X121205761Y-69111857D01*
X121205761Y-69254714D01*
X121158142Y-69349952D01*
X121110523Y-69397571D01*
X121015285Y-69445190D01*
X120634333Y-69445190D01*
X121634333Y-69397571D02*
X121967666Y-69397571D01*
X122110523Y-69921380D02*
X121634333Y-69921380D01*
X121634333Y-68921380D01*
X122110523Y-68921380D01*
X123205761Y-70016619D02*
X123110523Y-69969000D01*
X123015285Y-69873761D01*
X122872428Y-69730904D01*
X122777190Y-69683285D01*
X122681952Y-69683285D01*
X122729571Y-69921380D02*
X122634333Y-69873761D01*
X122539095Y-69778523D01*
X122491476Y-69588047D01*
X122491476Y-69254714D01*
X122539095Y-69064238D01*
X122634333Y-68969000D01*
X122729571Y-68921380D01*
X122920047Y-68921380D01*
X123015285Y-68969000D01*
X123110523Y-69064238D01*
X123158142Y-69254714D01*
X123158142Y-69588047D01*
X123110523Y-69778523D01*
X123015285Y-69873761D01*
X122920047Y-69921380D01*
X122729571Y-69921380D01*
X124872428Y-69921380D02*
X124301000Y-69921380D01*
X124586714Y-69921380D02*
X124586714Y-68921380D01*
X124491476Y-69064238D01*
X124396238Y-69159476D01*
X124301000Y-69207095D01*
X158607476Y-68921380D02*
X158940809Y-69921380D01*
X159274142Y-68921380D01*
X159797952Y-68921380D02*
X159988428Y-68921380D01*
X160083666Y-68969000D01*
X160178904Y-69064238D01*
X160226523Y-69254714D01*
X160226523Y-69588047D01*
X160178904Y-69778523D01*
X160083666Y-69873761D01*
X159988428Y-69921380D01*
X159797952Y-69921380D01*
X159702714Y-69873761D01*
X159607476Y-69778523D01*
X159559857Y-69588047D01*
X159559857Y-69254714D01*
X159607476Y-69064238D01*
X159702714Y-68969000D01*
X159797952Y-68921380D01*
X161131285Y-69921380D02*
X160655095Y-69921380D01*
X160655095Y-68921380D01*
X161464619Y-68921380D02*
X161464619Y-69730904D01*
X161512238Y-69826142D01*
X161559857Y-69873761D01*
X161655095Y-69921380D01*
X161845571Y-69921380D01*
X161940809Y-69873761D01*
X161988428Y-69826142D01*
X162036047Y-69730904D01*
X162036047Y-68921380D01*
X162512238Y-69921380D02*
X162512238Y-68921380D01*
X162845571Y-69635666D01*
X163178904Y-68921380D01*
X163178904Y-69921380D01*
X163655095Y-69397571D02*
X163988428Y-69397571D01*
X164131285Y-69921380D02*
X163655095Y-69921380D01*
X163655095Y-68921380D01*
X164131285Y-68921380D01*
X151931809Y-36298142D02*
X151884190Y-36345761D01*
X151741333Y-36393380D01*
X151646095Y-36393380D01*
X151503238Y-36345761D01*
X151408000Y-36250523D01*
X151360380Y-36155285D01*
X151312761Y-35964809D01*
X151312761Y-35821952D01*
X151360380Y-35631476D01*
X151408000Y-35536238D01*
X151503238Y-35441000D01*
X151646095Y-35393380D01*
X151741333Y-35393380D01*
X151884190Y-35441000D01*
X151931809Y-35488619D01*
X152217523Y-35393380D02*
X152550857Y-36393380D01*
X152884190Y-35393380D01*
X154408000Y-35726714D02*
X154408000Y-36393380D01*
X154169904Y-35345761D02*
X153931809Y-36060047D01*
X154550857Y-36060047D01*
X162957000Y-35393380D02*
X163147476Y-35393380D01*
X163242714Y-35441000D01*
X163337952Y-35536238D01*
X163385571Y-35726714D01*
X163385571Y-36060047D01*
X163337952Y-36250523D01*
X163242714Y-36345761D01*
X163147476Y-36393380D01*
X162957000Y-36393380D01*
X162861761Y-36345761D01*
X162766523Y-36250523D01*
X162718904Y-36060047D01*
X162718904Y-35726714D01*
X162766523Y-35536238D01*
X162861761Y-35441000D01*
X162957000Y-35393380D01*
X163814142Y-35393380D02*
X163814142Y-36202904D01*
X163861761Y-36298142D01*
X163909380Y-36345761D01*
X164004619Y-36393380D01*
X164195095Y-36393380D01*
X164290333Y-36345761D01*
X164337952Y-36298142D01*
X164385571Y-36202904D01*
X164385571Y-35393380D01*
X164718904Y-35393380D02*
X165290333Y-35393380D01*
X165004619Y-36393380D02*
X165004619Y-35393380D01*
X140882809Y-36298142D02*
X140835190Y-36345761D01*
X140692333Y-36393380D01*
X140597095Y-36393380D01*
X140454238Y-36345761D01*
X140359000Y-36250523D01*
X140311380Y-36155285D01*
X140263761Y-35964809D01*
X140263761Y-35821952D01*
X140311380Y-35631476D01*
X140359000Y-35536238D01*
X140454238Y-35441000D01*
X140597095Y-35393380D01*
X140692333Y-35393380D01*
X140835190Y-35441000D01*
X140882809Y-35488619D01*
X141168523Y-35393380D02*
X141501857Y-36393380D01*
X141835190Y-35393380D01*
X142835190Y-35393380D02*
X143454238Y-35393380D01*
X143120904Y-35774333D01*
X143263761Y-35774333D01*
X143359000Y-35821952D01*
X143406619Y-35869571D01*
X143454238Y-35964809D01*
X143454238Y-36202904D01*
X143406619Y-36298142D01*
X143359000Y-36345761D01*
X143263761Y-36393380D01*
X142978047Y-36393380D01*
X142882809Y-36345761D01*
X142835190Y-36298142D01*
X109426476Y-38552428D02*
X110188380Y-38552428D01*
X109807428Y-38933380D02*
X109807428Y-38171476D01*
X110521714Y-37933380D02*
X110855047Y-38933380D01*
X111188380Y-37933380D01*
%TO.C,C2*%
X131913333Y-54332142D02*
X131865714Y-54379761D01*
X131722857Y-54427380D01*
X131627619Y-54427380D01*
X131484761Y-54379761D01*
X131389523Y-54284523D01*
X131341904Y-54189285D01*
X131294285Y-53998809D01*
X131294285Y-53855952D01*
X131341904Y-53665476D01*
X131389523Y-53570238D01*
X131484761Y-53475000D01*
X131627619Y-53427380D01*
X131722857Y-53427380D01*
X131865714Y-53475000D01*
X131913333Y-53522619D01*
X132294285Y-53522619D02*
X132341904Y-53475000D01*
X132437142Y-53427380D01*
X132675238Y-53427380D01*
X132770476Y-53475000D01*
X132818095Y-53522619D01*
X132865714Y-53617857D01*
X132865714Y-53713095D01*
X132818095Y-53855952D01*
X132246666Y-54427380D01*
X132865714Y-54427380D01*
%TO.C,D2*%
X105885380Y-67794095D02*
X104885380Y-67794095D01*
X104885380Y-67556000D01*
X104933000Y-67413142D01*
X105028238Y-67317904D01*
X105123476Y-67270285D01*
X105313952Y-67222666D01*
X105456809Y-67222666D01*
X105647285Y-67270285D01*
X105742523Y-67317904D01*
X105837761Y-67413142D01*
X105885380Y-67556000D01*
X105885380Y-67794095D01*
X104980619Y-66841714D02*
X104933000Y-66794095D01*
X104885380Y-66698857D01*
X104885380Y-66460761D01*
X104933000Y-66365523D01*
X104980619Y-66317904D01*
X105075857Y-66270285D01*
X105171095Y-66270285D01*
X105313952Y-66317904D01*
X105885380Y-66889333D01*
X105885380Y-66270285D01*
%TO.C,C3*%
X112736333Y-75160142D02*
X112688714Y-75207761D01*
X112545857Y-75255380D01*
X112450619Y-75255380D01*
X112307761Y-75207761D01*
X112212523Y-75112523D01*
X112164904Y-75017285D01*
X112117285Y-74826809D01*
X112117285Y-74683952D01*
X112164904Y-74493476D01*
X112212523Y-74398238D01*
X112307761Y-74303000D01*
X112450619Y-74255380D01*
X112545857Y-74255380D01*
X112688714Y-74303000D01*
X112736333Y-74350619D01*
X113069666Y-74255380D02*
X113688714Y-74255380D01*
X113355380Y-74636333D01*
X113498238Y-74636333D01*
X113593476Y-74683952D01*
X113641095Y-74731571D01*
X113688714Y-74826809D01*
X113688714Y-75064904D01*
X113641095Y-75160142D01*
X113593476Y-75207761D01*
X113498238Y-75255380D01*
X113212523Y-75255380D01*
X113117285Y-75207761D01*
X113069666Y-75160142D01*
%TO.C,U2*%
X148169380Y-83565904D02*
X148978904Y-83565904D01*
X149074142Y-83518285D01*
X149121761Y-83470666D01*
X149169380Y-83375428D01*
X149169380Y-83184952D01*
X149121761Y-83089714D01*
X149074142Y-83042095D01*
X148978904Y-82994476D01*
X148169380Y-82994476D01*
X148264619Y-82565904D02*
X148217000Y-82518285D01*
X148169380Y-82423047D01*
X148169380Y-82184952D01*
X148217000Y-82089714D01*
X148264619Y-82042095D01*
X148359857Y-81994476D01*
X148455095Y-81994476D01*
X148597952Y-82042095D01*
X149169380Y-82613523D01*
X149169380Y-81994476D01*
%TO.C,C1*%
X130643333Y-71497142D02*
X130595714Y-71544761D01*
X130452857Y-71592380D01*
X130357619Y-71592380D01*
X130214761Y-71544761D01*
X130119523Y-71449523D01*
X130071904Y-71354285D01*
X130024285Y-71163809D01*
X130024285Y-71020952D01*
X130071904Y-70830476D01*
X130119523Y-70735238D01*
X130214761Y-70640000D01*
X130357619Y-70592380D01*
X130452857Y-70592380D01*
X130595714Y-70640000D01*
X130643333Y-70687619D01*
X131595714Y-71592380D02*
X131024285Y-71592380D01*
X131310000Y-71592380D02*
X131310000Y-70592380D01*
X131214761Y-70735238D01*
X131119523Y-70830476D01*
X131024285Y-70878095D01*
%TO.C,R1*%
X105116333Y-72969380D02*
X104783000Y-72493190D01*
X104544904Y-72969380D02*
X104544904Y-71969380D01*
X104925857Y-71969380D01*
X105021095Y-72017000D01*
X105068714Y-72064619D01*
X105116333Y-72159857D01*
X105116333Y-72302714D01*
X105068714Y-72397952D01*
X105021095Y-72445571D01*
X104925857Y-72493190D01*
X104544904Y-72493190D01*
X106068714Y-72969380D02*
X105497285Y-72969380D01*
X105783000Y-72969380D02*
X105783000Y-71969380D01*
X105687761Y-72112238D01*
X105592523Y-72207476D01*
X105497285Y-72255095D01*
%TO.C,D1*%
X109545380Y-66016095D02*
X108545380Y-66016095D01*
X108545380Y-65778000D01*
X108593000Y-65635142D01*
X108688238Y-65539904D01*
X108783476Y-65492285D01*
X108973952Y-65444666D01*
X109116809Y-65444666D01*
X109307285Y-65492285D01*
X109402523Y-65539904D01*
X109497761Y-65635142D01*
X109545380Y-65778000D01*
X109545380Y-66016095D01*
X109545380Y-64492285D02*
X109545380Y-65063714D01*
X109545380Y-64778000D02*
X108545380Y-64778000D01*
X108688238Y-64873238D01*
X108783476Y-64968476D01*
X108831095Y-65063714D01*
%TO.C,J2*%
X99615666Y-37933380D02*
X99615666Y-38647666D01*
X99568047Y-38790523D01*
X99472809Y-38885761D01*
X99329952Y-38933380D01*
X99234714Y-38933380D01*
X100044238Y-38028619D02*
X100091857Y-37981000D01*
X100187095Y-37933380D01*
X100425190Y-37933380D01*
X100520428Y-37981000D01*
X100568047Y-38028619D01*
X100615666Y-38123857D01*
X100615666Y-38219095D01*
X100568047Y-38361952D01*
X99996619Y-38933380D01*
X100615666Y-38933380D01*
%TO.C,RV3*%
X155487761Y-55951380D02*
X155154428Y-55475190D01*
X154916333Y-55951380D02*
X154916333Y-54951380D01*
X155297285Y-54951380D01*
X155392523Y-54999000D01*
X155440142Y-55046619D01*
X155487761Y-55141857D01*
X155487761Y-55284714D01*
X155440142Y-55379952D01*
X155392523Y-55427571D01*
X155297285Y-55475190D01*
X154916333Y-55475190D01*
X155773476Y-54951380D02*
X156106809Y-55951380D01*
X156440142Y-54951380D01*
X156678238Y-54951380D02*
X157297285Y-54951380D01*
X156963952Y-55332333D01*
X157106809Y-55332333D01*
X157202047Y-55379952D01*
X157249666Y-55427571D01*
X157297285Y-55522809D01*
X157297285Y-55760904D01*
X157249666Y-55856142D01*
X157202047Y-55903761D01*
X157106809Y-55951380D01*
X156821095Y-55951380D01*
X156725857Y-55903761D01*
X156678238Y-55856142D01*
%TO.C,R4*%
X142200333Y-74620380D02*
X141867000Y-74144190D01*
X141628904Y-74620380D02*
X141628904Y-73620380D01*
X142009857Y-73620380D01*
X142105095Y-73668000D01*
X142152714Y-73715619D01*
X142200333Y-73810857D01*
X142200333Y-73953714D01*
X142152714Y-74048952D01*
X142105095Y-74096571D01*
X142009857Y-74144190D01*
X141628904Y-74144190D01*
X143057476Y-73953714D02*
X143057476Y-74620380D01*
X142819380Y-73572761D02*
X142581285Y-74287047D01*
X143200333Y-74287047D01*
%TO.C,C7*%
X154773333Y-71985142D02*
X154725714Y-72032761D01*
X154582857Y-72080380D01*
X154487619Y-72080380D01*
X154344761Y-72032761D01*
X154249523Y-71937523D01*
X154201904Y-71842285D01*
X154154285Y-71651809D01*
X154154285Y-71508952D01*
X154201904Y-71318476D01*
X154249523Y-71223238D01*
X154344761Y-71128000D01*
X154487619Y-71080380D01*
X154582857Y-71080380D01*
X154725714Y-71128000D01*
X154773333Y-71175619D01*
X155106666Y-71080380D02*
X155773333Y-71080380D01*
X155344761Y-72080380D01*
%TO.C,RV1*%
X116371761Y-55951380D02*
X116038428Y-55475190D01*
X115800333Y-55951380D02*
X115800333Y-54951380D01*
X116181285Y-54951380D01*
X116276523Y-54999000D01*
X116324142Y-55046619D01*
X116371761Y-55141857D01*
X116371761Y-55284714D01*
X116324142Y-55379952D01*
X116276523Y-55427571D01*
X116181285Y-55475190D01*
X115800333Y-55475190D01*
X116657476Y-54951380D02*
X116990809Y-55951380D01*
X117324142Y-54951380D01*
X118181285Y-55951380D02*
X117609857Y-55951380D01*
X117895571Y-55951380D02*
X117895571Y-54951380D01*
X117800333Y-55094238D01*
X117705095Y-55189476D01*
X117609857Y-55237095D01*
%TO.C,J1*%
X97075666Y-47331380D02*
X97075666Y-48045666D01*
X97028047Y-48188523D01*
X96932809Y-48283761D01*
X96789952Y-48331380D01*
X96694714Y-48331380D01*
X98075666Y-48331380D02*
X97504238Y-48331380D01*
X97789952Y-48331380D02*
X97789952Y-47331380D01*
X97694714Y-47474238D01*
X97599476Y-47569476D01*
X97504238Y-47617095D01*
%TO.C,RV2*%
X135929761Y-55951380D02*
X135596428Y-55475190D01*
X135358333Y-55951380D02*
X135358333Y-54951380D01*
X135739285Y-54951380D01*
X135834523Y-54999000D01*
X135882142Y-55046619D01*
X135929761Y-55141857D01*
X135929761Y-55284714D01*
X135882142Y-55379952D01*
X135834523Y-55427571D01*
X135739285Y-55475190D01*
X135358333Y-55475190D01*
X136215476Y-54951380D02*
X136548809Y-55951380D01*
X136882142Y-54951380D01*
X137167857Y-55046619D02*
X137215476Y-54999000D01*
X137310714Y-54951380D01*
X137548809Y-54951380D01*
X137644047Y-54999000D01*
X137691666Y-55046619D01*
X137739285Y-55141857D01*
X137739285Y-55237095D01*
X137691666Y-55379952D01*
X137120238Y-55951380D01*
X137739285Y-55951380D01*
%TO.C,J6*%
X137715666Y-48855380D02*
X137715666Y-49569666D01*
X137668047Y-49712523D01*
X137572809Y-49807761D01*
X137429952Y-49855380D01*
X137334714Y-49855380D01*
X138620428Y-48855380D02*
X138429952Y-48855380D01*
X138334714Y-48903000D01*
X138287095Y-48950619D01*
X138191857Y-49093476D01*
X138144238Y-49283952D01*
X138144238Y-49664904D01*
X138191857Y-49760142D01*
X138239476Y-49807761D01*
X138334714Y-49855380D01*
X138525190Y-49855380D01*
X138620428Y-49807761D01*
X138668047Y-49760142D01*
X138715666Y-49664904D01*
X138715666Y-49426809D01*
X138668047Y-49331571D01*
X138620428Y-49283952D01*
X138525190Y-49236333D01*
X138334714Y-49236333D01*
X138239476Y-49283952D01*
X138191857Y-49331571D01*
X138144238Y-49426809D01*
%TO.C,C6*%
X149947333Y-71584142D02*
X149899714Y-71631761D01*
X149756857Y-71679380D01*
X149661619Y-71679380D01*
X149518761Y-71631761D01*
X149423523Y-71536523D01*
X149375904Y-71441285D01*
X149328285Y-71250809D01*
X149328285Y-71107952D01*
X149375904Y-70917476D01*
X149423523Y-70822238D01*
X149518761Y-70727000D01*
X149661619Y-70679380D01*
X149756857Y-70679380D01*
X149899714Y-70727000D01*
X149947333Y-70774619D01*
X150804476Y-70679380D02*
X150614000Y-70679380D01*
X150518761Y-70727000D01*
X150471142Y-70774619D01*
X150375904Y-70917476D01*
X150328285Y-71107952D01*
X150328285Y-71488904D01*
X150375904Y-71584142D01*
X150423523Y-71631761D01*
X150518761Y-71679380D01*
X150709238Y-71679380D01*
X150804476Y-71631761D01*
X150852095Y-71584142D01*
X150899714Y-71488904D01*
X150899714Y-71250809D01*
X150852095Y-71155571D01*
X150804476Y-71107952D01*
X150709238Y-71060333D01*
X150518761Y-71060333D01*
X150423523Y-71107952D01*
X150375904Y-71155571D01*
X150328285Y-71250809D01*
%TO.C,J3*%
X126666666Y-48855380D02*
X126666666Y-49569666D01*
X126619047Y-49712523D01*
X126523809Y-49807761D01*
X126380952Y-49855380D01*
X126285714Y-49855380D01*
X127047619Y-48855380D02*
X127666666Y-48855380D01*
X127333333Y-49236333D01*
X127476190Y-49236333D01*
X127571428Y-49283952D01*
X127619047Y-49331571D01*
X127666666Y-49426809D01*
X127666666Y-49664904D01*
X127619047Y-49760142D01*
X127571428Y-49807761D01*
X127476190Y-49855380D01*
X127190476Y-49855380D01*
X127095238Y-49807761D01*
X127047619Y-49760142D01*
%TO.C,R2*%
X116403380Y-81065666D02*
X115927190Y-81399000D01*
X116403380Y-81637095D02*
X115403380Y-81637095D01*
X115403380Y-81256142D01*
X115451000Y-81160904D01*
X115498619Y-81113285D01*
X115593857Y-81065666D01*
X115736714Y-81065666D01*
X115831952Y-81113285D01*
X115879571Y-81160904D01*
X115927190Y-81256142D01*
X115927190Y-81637095D01*
X115498619Y-80684714D02*
X115451000Y-80637095D01*
X115403380Y-80541857D01*
X115403380Y-80303761D01*
X115451000Y-80208523D01*
X115498619Y-80160904D01*
X115593857Y-80113285D01*
X115689095Y-80113285D01*
X115831952Y-80160904D01*
X116403380Y-80732333D01*
X116403380Y-80113285D01*
%TO.C,C4*%
X102830333Y-75541142D02*
X102782714Y-75588761D01*
X102639857Y-75636380D01*
X102544619Y-75636380D01*
X102401761Y-75588761D01*
X102306523Y-75493523D01*
X102258904Y-75398285D01*
X102211285Y-75207809D01*
X102211285Y-75064952D01*
X102258904Y-74874476D01*
X102306523Y-74779238D01*
X102401761Y-74684000D01*
X102544619Y-74636380D01*
X102639857Y-74636380D01*
X102782714Y-74684000D01*
X102830333Y-74731619D01*
X103687476Y-74969714D02*
X103687476Y-75636380D01*
X103449380Y-74588761D02*
X103211285Y-75303047D01*
X103830333Y-75303047D01*
%TO.C,J5*%
X148764666Y-48855380D02*
X148764666Y-49569666D01*
X148717047Y-49712523D01*
X148621809Y-49807761D01*
X148478952Y-49855380D01*
X148383714Y-49855380D01*
X149717047Y-48855380D02*
X149240857Y-48855380D01*
X149193238Y-49331571D01*
X149240857Y-49283952D01*
X149336095Y-49236333D01*
X149574190Y-49236333D01*
X149669428Y-49283952D01*
X149717047Y-49331571D01*
X149764666Y-49426809D01*
X149764666Y-49664904D01*
X149717047Y-49760142D01*
X149669428Y-49807761D01*
X149574190Y-49855380D01*
X149336095Y-49855380D01*
X149240857Y-49807761D01*
X149193238Y-49760142D01*
%TO.C,J4*%
X115617666Y-48855380D02*
X115617666Y-49569666D01*
X115570047Y-49712523D01*
X115474809Y-49807761D01*
X115331952Y-49855380D01*
X115236714Y-49855380D01*
X116522428Y-49188714D02*
X116522428Y-49855380D01*
X116284333Y-48807761D02*
X116046238Y-49522047D01*
X116665285Y-49522047D01*
%TO.C,C5*%
X151471333Y-63349142D02*
X151423714Y-63396761D01*
X151280857Y-63444380D01*
X151185619Y-63444380D01*
X151042761Y-63396761D01*
X150947523Y-63301523D01*
X150899904Y-63206285D01*
X150852285Y-63015809D01*
X150852285Y-62872952D01*
X150899904Y-62682476D01*
X150947523Y-62587238D01*
X151042761Y-62492000D01*
X151185619Y-62444380D01*
X151280857Y-62444380D01*
X151423714Y-62492000D01*
X151471333Y-62539619D01*
X152376095Y-62444380D02*
X151899904Y-62444380D01*
X151852285Y-62920571D01*
X151899904Y-62872952D01*
X151995142Y-62825333D01*
X152233238Y-62825333D01*
X152328476Y-62872952D01*
X152376095Y-62920571D01*
X152423714Y-63015809D01*
X152423714Y-63253904D01*
X152376095Y-63349142D01*
X152328476Y-63396761D01*
X152233238Y-63444380D01*
X151995142Y-63444380D01*
X151899904Y-63396761D01*
X151852285Y-63349142D01*
%TO.C,R3*%
X123023333Y-74620380D02*
X122690000Y-74144190D01*
X122451904Y-74620380D02*
X122451904Y-73620380D01*
X122832857Y-73620380D01*
X122928095Y-73668000D01*
X122975714Y-73715619D01*
X123023333Y-73810857D01*
X123023333Y-73953714D01*
X122975714Y-74048952D01*
X122928095Y-74096571D01*
X122832857Y-74144190D01*
X122451904Y-74144190D01*
X123356666Y-73620380D02*
X123975714Y-73620380D01*
X123642380Y-74001333D01*
X123785238Y-74001333D01*
X123880476Y-74048952D01*
X123928095Y-74096571D01*
X123975714Y-74191809D01*
X123975714Y-74429904D01*
X123928095Y-74525142D01*
X123880476Y-74572761D01*
X123785238Y-74620380D01*
X123499523Y-74620380D01*
X123404285Y-74572761D01*
X123356666Y-74525142D01*
%TO.C,U1*%
X128992380Y-83565904D02*
X129801904Y-83565904D01*
X129897142Y-83518285D01*
X129944761Y-83470666D01*
X129992380Y-83375428D01*
X129992380Y-83184952D01*
X129944761Y-83089714D01*
X129897142Y-83042095D01*
X129801904Y-82994476D01*
X128992380Y-82994476D01*
X129992380Y-81994476D02*
X129992380Y-82565904D01*
X129992380Y-82280190D02*
X128992380Y-82280190D01*
X129135238Y-82375428D01*
X129230476Y-82470666D01*
X129278095Y-82565904D01*
%TO.C,J7*%
X159813666Y-48855380D02*
X159813666Y-49569666D01*
X159766047Y-49712523D01*
X159670809Y-49807761D01*
X159527952Y-49855380D01*
X159432714Y-49855380D01*
X160194619Y-48855380D02*
X160861285Y-48855380D01*
X160432714Y-49855380D01*
D14*
%TO.C,C2*%
X130210000Y-54887000D02*
X130210000Y-62127000D01*
X133950000Y-62127000D02*
X130210000Y-62127000D01*
X133950000Y-54887000D02*
X130210000Y-54887000D01*
X133950000Y-54887000D02*
X133950000Y-62127000D01*
%TO.C,D2*%
X103018000Y-64496000D02*
X99928000Y-64496000D01*
X101472538Y-70046000D02*
G75*
G03*
X103017830Y-64496000I462J2990000D01*
G01*
X99928170Y-64496000D02*
G75*
G03*
X101473462Y-70046000I1544830J-2560000D01*
G01*
X103973000Y-67056000D02*
G75*
G03*
X103973000Y-67056000I-2500000J0D01*
G01*
%TO.C,C3*%
X113304000Y-77009000D02*
X113304000Y-79709000D01*
X111984000Y-79399000D02*
X111984000Y-81149000D01*
X111624000Y-79399000D02*
X111624000Y-81329000D01*
X111104000Y-79399000D02*
X111104000Y-81500000D01*
X110423000Y-75129000D02*
X110423000Y-81589000D01*
X112584000Y-76016000D02*
X112584000Y-77319000D01*
X111424000Y-79399000D02*
X111424000Y-81406000D01*
X112584000Y-79399000D02*
X112584000Y-80702000D01*
X111464000Y-75326000D02*
X111464000Y-77319000D01*
X111944000Y-79399000D02*
X111944000Y-81171000D01*
X112544000Y-75979000D02*
X112544000Y-77319000D01*
X111264000Y-75261000D02*
X111264000Y-77319000D01*
X111824000Y-75483000D02*
X111824000Y-77319000D01*
X112464000Y-79399000D02*
X112464000Y-80809000D01*
X113584000Y-77957000D02*
X113584000Y-78761000D01*
X113144000Y-76709000D02*
X113144000Y-80009000D01*
X111664000Y-79399000D02*
X111664000Y-81311000D01*
X111784000Y-75463000D02*
X111784000Y-77319000D01*
X111023000Y-79399000D02*
X111023000Y-81518000D01*
X112104000Y-79399000D02*
X112104000Y-81075000D01*
X111264000Y-79399000D02*
X111264000Y-81457000D01*
X111984000Y-75569000D02*
X111984000Y-77319000D01*
X112424000Y-79399000D02*
X112424000Y-80843000D01*
X111344000Y-79399000D02*
X111344000Y-81433000D01*
X112704000Y-76135000D02*
X112704000Y-80583000D01*
X111224000Y-79399000D02*
X111224000Y-81469000D01*
X113104000Y-76645000D02*
X113104000Y-80073000D01*
X111023000Y-75200000D02*
X111023000Y-77319000D01*
X112184000Y-75695000D02*
X112184000Y-77319000D01*
X112384000Y-79399000D02*
X112384000Y-80875000D01*
X113024000Y-76525000D02*
X113024000Y-80193000D01*
X112464000Y-75909000D02*
X112464000Y-77319000D01*
X111864000Y-75503000D02*
X111864000Y-77319000D01*
X111384000Y-79399000D02*
X111384000Y-81420000D01*
X110783000Y-79399000D02*
X110783000Y-81560000D01*
X110823000Y-79399000D02*
X110823000Y-81554000D01*
X111184000Y-75238000D02*
X111184000Y-77319000D01*
X110623000Y-75141000D02*
X110623000Y-77319000D01*
X110903000Y-75177000D02*
X110903000Y-77319000D01*
X112304000Y-79399000D02*
X112304000Y-80937000D01*
X111184000Y-79399000D02*
X111184000Y-81480000D01*
X113464000Y-77419000D02*
X113464000Y-79299000D01*
X111904000Y-75525000D02*
X111904000Y-77319000D01*
X111584000Y-79399000D02*
X111584000Y-81345000D01*
X112224000Y-75723000D02*
X112224000Y-77319000D01*
X111544000Y-75357000D02*
X111544000Y-77319000D01*
X110743000Y-75153000D02*
X110743000Y-77319000D01*
X111944000Y-75547000D02*
X111944000Y-77319000D01*
X112064000Y-79399000D02*
X112064000Y-81101000D01*
X112864000Y-76315000D02*
X112864000Y-80403000D01*
X112344000Y-75811000D02*
X112344000Y-77319000D01*
X113424000Y-77300000D02*
X113424000Y-79418000D01*
X112384000Y-75843000D02*
X112384000Y-77319000D01*
X107157759Y-76205000D02*
X107157759Y-76835000D01*
X112144000Y-79399000D02*
X112144000Y-81049000D01*
X111464000Y-79399000D02*
X111464000Y-81392000D01*
X110463000Y-75131000D02*
X110463000Y-81587000D01*
X113224000Y-76850000D02*
X113224000Y-79868000D01*
X110743000Y-79399000D02*
X110743000Y-81565000D01*
X110863000Y-79399000D02*
X110863000Y-81548000D01*
X111104000Y-75218000D02*
X111104000Y-77319000D01*
X110783000Y-75158000D02*
X110783000Y-77319000D01*
X111144000Y-79399000D02*
X111144000Y-81490000D01*
X113344000Y-77097000D02*
X113344000Y-79621000D01*
X110903000Y-79399000D02*
X110903000Y-81541000D01*
X110943000Y-79399000D02*
X110943000Y-81534000D01*
X110863000Y-75170000D02*
X110863000Y-77319000D01*
X112744000Y-76177000D02*
X112744000Y-80541000D01*
X111064000Y-79399000D02*
X111064000Y-81509000D01*
X111864000Y-79399000D02*
X111864000Y-81215000D01*
X111624000Y-75389000D02*
X111624000Y-77319000D01*
X112224000Y-79399000D02*
X112224000Y-80995000D01*
X112144000Y-75669000D02*
X112144000Y-77319000D01*
X111904000Y-79399000D02*
X111904000Y-81193000D01*
X112624000Y-79399000D02*
X112624000Y-80664000D01*
X113384000Y-77194000D02*
X113384000Y-79524000D01*
X112504000Y-79399000D02*
X112504000Y-80775000D01*
X113184000Y-76778000D02*
X113184000Y-79940000D01*
X113544000Y-77726000D02*
X113544000Y-78992000D01*
X111384000Y-75298000D02*
X111384000Y-77319000D01*
X111064000Y-75209000D02*
X111064000Y-77319000D01*
X111504000Y-75341000D02*
X111504000Y-77319000D01*
X110703000Y-75148000D02*
X110703000Y-77319000D01*
X112664000Y-76094000D02*
X112664000Y-80624000D01*
X112504000Y-75943000D02*
X112504000Y-77319000D01*
X112264000Y-79399000D02*
X112264000Y-80966000D01*
X110663000Y-79399000D02*
X110663000Y-81574000D01*
X110583000Y-75137000D02*
X110583000Y-77319000D01*
X113064000Y-76583000D02*
X113064000Y-80135000D01*
X110543000Y-75135000D02*
X110543000Y-81583000D01*
X112064000Y-75617000D02*
X112064000Y-77319000D01*
X111344000Y-75285000D02*
X111344000Y-77319000D01*
X113264000Y-76927000D02*
X113264000Y-79791000D01*
X111304000Y-79399000D02*
X111304000Y-81445000D01*
X110623000Y-79399000D02*
X110623000Y-81577000D01*
X110983000Y-79399000D02*
X110983000Y-81526000D01*
X110663000Y-75144000D02*
X110663000Y-77319000D01*
X111504000Y-79399000D02*
X111504000Y-81377000D01*
X110703000Y-79399000D02*
X110703000Y-81570000D01*
X110943000Y-75184000D02*
X110943000Y-77319000D01*
X112184000Y-79399000D02*
X112184000Y-81023000D01*
X112544000Y-79399000D02*
X112544000Y-80739000D01*
X112904000Y-76364000D02*
X112904000Y-80354000D01*
X111584000Y-75373000D02*
X111584000Y-77319000D01*
X111544000Y-79399000D02*
X111544000Y-81361000D01*
X110383000Y-75129000D02*
X110383000Y-81589000D01*
X112024000Y-79399000D02*
X112024000Y-81125000D01*
X110983000Y-75192000D02*
X110983000Y-77319000D01*
X112824000Y-76267000D02*
X112824000Y-80451000D01*
X111144000Y-75228000D02*
X111144000Y-77319000D01*
X111304000Y-75273000D02*
X111304000Y-77319000D01*
X110583000Y-79399000D02*
X110583000Y-81581000D01*
X106842759Y-76520000D02*
X107472759Y-76520000D01*
X111704000Y-79399000D02*
X111704000Y-81293000D01*
X112424000Y-75875000D02*
X112424000Y-77319000D01*
X112024000Y-75593000D02*
X112024000Y-77319000D01*
X111424000Y-75312000D02*
X111424000Y-77319000D01*
X110503000Y-75132000D02*
X110503000Y-81586000D01*
X111744000Y-79399000D02*
X111744000Y-81275000D01*
X111224000Y-75249000D02*
X111224000Y-77319000D01*
X112304000Y-75781000D02*
X112304000Y-77319000D01*
X111784000Y-79399000D02*
X111784000Y-81255000D01*
X110343000Y-75129000D02*
X110343000Y-81589000D01*
X111744000Y-75443000D02*
X111744000Y-77319000D01*
X111664000Y-75407000D02*
X111664000Y-77319000D01*
X111704000Y-75425000D02*
X111704000Y-77319000D01*
X110823000Y-75164000D02*
X110823000Y-77319000D01*
X112984000Y-76469000D02*
X112984000Y-80249000D01*
X113504000Y-77557000D02*
X113504000Y-79161000D01*
X112624000Y-76054000D02*
X112624000Y-77319000D01*
X112944000Y-76415000D02*
X112944000Y-80303000D01*
X112344000Y-79399000D02*
X112344000Y-80907000D01*
X112784000Y-76222000D02*
X112784000Y-80496000D01*
X111824000Y-79399000D02*
X111824000Y-81235000D01*
X112264000Y-75752000D02*
X112264000Y-77319000D01*
X112104000Y-75643000D02*
X112104000Y-77319000D01*
X113613000Y-78359000D02*
G75*
G03*
X113613000Y-78359000I-3270000J0D01*
G01*
%TO.C,U2*%
X147507000Y-83549000D02*
X147507000Y-78249000D01*
X137227000Y-78249000D02*
X137227000Y-79899000D01*
X137227000Y-83549000D02*
X147507000Y-83549000D01*
X147507000Y-78249000D02*
X137227000Y-78249000D01*
X137227000Y-81899000D02*
X137227000Y-83549000D01*
X137227000Y-81899000D02*
G75*
G03*
X137227000Y-79899000I0J1000000D01*
G01*
%TO.C,C1*%
X129067000Y-72219000D02*
X132807000Y-72219000D01*
X129067000Y-79459000D02*
X129067000Y-72219000D01*
X132807000Y-79459000D02*
X132807000Y-72219000D01*
X129067000Y-79459000D02*
X132807000Y-79459000D01*
%TO.C,R1*%
X108553000Y-73557000D02*
X108553000Y-73887000D01*
X102013000Y-71147000D02*
X102013000Y-71477000D01*
X102013000Y-73887000D02*
X102013000Y-73557000D01*
X108553000Y-71147000D02*
X102013000Y-71147000D01*
X108553000Y-71477000D02*
X108553000Y-71147000D01*
X108553000Y-73887000D02*
X102013000Y-73887000D01*
%TO.C,D1*%
X110563000Y-68379000D02*
X110563000Y-62939000D01*
X107623000Y-68379000D02*
X107623000Y-62939000D01*
X110563000Y-62939000D02*
X110233000Y-62939000D01*
X107623000Y-67599000D02*
X110563000Y-67599000D01*
X107953000Y-68379000D02*
X107623000Y-68379000D01*
X107623000Y-62939000D02*
X107953000Y-62939000D01*
X107623000Y-67359000D02*
X110563000Y-67359000D01*
X110233000Y-68379000D02*
X110563000Y-68379000D01*
X107623000Y-67479000D02*
X110563000Y-67479000D01*
%TO.C,J2*%
X111693000Y-39691000D02*
X111693000Y-42291000D01*
X109093000Y-44891000D02*
X98873000Y-44891000D01*
X98873000Y-39691000D02*
X98873000Y-44891000D01*
X111693000Y-39691000D02*
X98873000Y-39691000D01*
X109093000Y-42291000D02*
X109093000Y-44891000D01*
X111693000Y-42291000D02*
X109093000Y-42291000D01*
X111693000Y-43561000D02*
X111693000Y-44891000D01*
X111693000Y-44891000D02*
X110363000Y-44891000D01*
%TO.C,RV3*%
X159757000Y-56753000D02*
X160587000Y-56753000D01*
X166297000Y-56753000D02*
X166297000Y-61473000D01*
X156547000Y-56753000D02*
X158037000Y-56753000D01*
X156547000Y-56753000D02*
X156547000Y-61473000D01*
X165107000Y-56753000D02*
X166287000Y-56753000D01*
X166287000Y-65283000D02*
X166287000Y-68343000D01*
X160917000Y-63373000D02*
X161917000Y-63373000D01*
X161417000Y-63873000D02*
X161417000Y-62873000D01*
X156547000Y-65283000D02*
X156547000Y-68343000D01*
X156547000Y-68343000D02*
X166287000Y-68343000D01*
X162207000Y-56753000D02*
X162737000Y-56753000D01*
%TO.C,R4*%
X139097000Y-75538000D02*
X145637000Y-75538000D01*
X145637000Y-72798000D02*
X145637000Y-73128000D01*
X139097000Y-72798000D02*
X145637000Y-72798000D01*
X139097000Y-73128000D02*
X139097000Y-72798000D01*
X139097000Y-75208000D02*
X139097000Y-75538000D01*
X145637000Y-75538000D02*
X145637000Y-75208000D01*
%TO.C,C7*%
X159409000Y-72560380D02*
X160976000Y-72560380D01*
X155367000Y-73280380D02*
X157329000Y-73280380D01*
X155821000Y-72480380D02*
X157329000Y-72480380D01*
X159409000Y-73760380D02*
X161519000Y-73760380D01*
X159409000Y-74201380D02*
X161587000Y-74201380D01*
X159409000Y-72200380D02*
X160674000Y-72200380D01*
X155187000Y-73921380D02*
X157329000Y-73921380D01*
X155383000Y-73240380D02*
X157329000Y-73240380D01*
X159409000Y-72440380D02*
X160885000Y-72440380D01*
X156187000Y-72080380D02*
X160551000Y-72080380D01*
X155493000Y-73000380D02*
X157329000Y-73000380D01*
X156860000Y-71600380D02*
X159878000Y-71600380D01*
X155145000Y-74281380D02*
X161593000Y-74281380D01*
X157204000Y-71440380D02*
X159534000Y-71440380D01*
X159409000Y-74041380D02*
X161570000Y-74041380D01*
X159409000Y-74081380D02*
X161575000Y-74081380D01*
X155259000Y-73600380D02*
X157329000Y-73600380D01*
X157310000Y-71400380D02*
X159428000Y-71400380D01*
X159409000Y-72360380D02*
X160819000Y-72360380D01*
X159409000Y-73080380D02*
X161285000Y-73080380D01*
X159409000Y-73961380D02*
X161558000Y-73961380D01*
X155194000Y-73881380D02*
X157329000Y-73881380D01*
X159409000Y-72720380D02*
X161085000Y-72720380D01*
X155283000Y-73520380D02*
X157329000Y-73520380D01*
X155238000Y-73680380D02*
X157329000Y-73680380D01*
X159409000Y-73600380D02*
X161479000Y-73600380D01*
X159409000Y-72760380D02*
X161111000Y-72760380D01*
X159409000Y-74161380D02*
X161584000Y-74161380D01*
X159409000Y-73841380D02*
X161536000Y-73841380D01*
X159409000Y-73200380D02*
X161339000Y-73200380D01*
X155762000Y-72560380D02*
X157329000Y-72560380D01*
X159409000Y-74121380D02*
X161580000Y-74121380D01*
X155219000Y-73760380D02*
X157329000Y-73760380D01*
X157736000Y-71280380D02*
X159002000Y-71280380D01*
X159409000Y-73040380D02*
X161265000Y-73040380D01*
X155322000Y-73400380D02*
X157329000Y-73400380D01*
X155679000Y-72680380D02*
X157329000Y-72680380D01*
X155853000Y-72440380D02*
X157329000Y-72440380D01*
X155473000Y-73040380D02*
X157329000Y-73040380D01*
X159409000Y-72920380D02*
X161203000Y-72920380D01*
X157567000Y-71320380D02*
X159171000Y-71320380D01*
X155139000Y-74481380D02*
X161599000Y-74481380D01*
X155919000Y-72360380D02*
X157329000Y-72360380D01*
X159409000Y-73921380D02*
X161551000Y-73921380D01*
X156530000Y-77981621D02*
X156530000Y-77351621D01*
X155168000Y-74041380D02*
X157329000Y-74041380D01*
X159409000Y-73360380D02*
X161402000Y-73360380D01*
X159409000Y-73640380D02*
X161490000Y-73640380D01*
X159409000Y-73560380D02*
X161467000Y-73560380D01*
X155151000Y-74201380D02*
X157329000Y-74201380D01*
X155351000Y-73320380D02*
X157329000Y-73320380D01*
X155513000Y-72960380D02*
X157329000Y-72960380D01*
X159409000Y-72280380D02*
X160749000Y-72280380D01*
X156593000Y-71760380D02*
X160145000Y-71760380D01*
X156374000Y-71920380D02*
X160364000Y-71920380D01*
X159409000Y-73320380D02*
X161387000Y-73320380D01*
X159409000Y-73440380D02*
X161430000Y-73440380D01*
X155174000Y-74001380D02*
X157329000Y-74001380D01*
X159409000Y-73240380D02*
X161355000Y-73240380D01*
X159409000Y-74241380D02*
X161591000Y-74241380D01*
X156145000Y-72120380D02*
X160593000Y-72120380D01*
X159409000Y-72320380D02*
X160785000Y-72320380D01*
X159409000Y-73120380D02*
X161303000Y-73120380D01*
X155295000Y-73480380D02*
X157329000Y-73480380D01*
X155154000Y-74161380D02*
X157329000Y-74161380D01*
X157019000Y-71520380D02*
X159719000Y-71520380D01*
X155557000Y-72880380D02*
X157329000Y-72880380D01*
X155139000Y-74401380D02*
X161599000Y-74401380D01*
X159409000Y-73720380D02*
X161510000Y-73720380D01*
X155791000Y-72520380D02*
X157329000Y-72520380D01*
X155627000Y-72760380D02*
X157329000Y-72760380D01*
X155953000Y-72320380D02*
X157329000Y-72320380D01*
X157429000Y-71360380D02*
X159309000Y-71360380D01*
X155453000Y-73080380D02*
X157329000Y-73080380D01*
X155158000Y-74121380D02*
X157329000Y-74121380D01*
X159409000Y-73881380D02*
X161544000Y-73881380D01*
X157107000Y-71480380D02*
X159631000Y-71480380D01*
X155579000Y-72840380D02*
X157329000Y-72840380D01*
X159409000Y-72480380D02*
X160917000Y-72480380D01*
X156104000Y-72160380D02*
X160634000Y-72160380D01*
X156788000Y-71640380D02*
X159950000Y-71640380D01*
X155271000Y-73560380D02*
X157329000Y-73560380D01*
X159409000Y-72240380D02*
X160712000Y-72240380D01*
X159409000Y-72640380D02*
X161033000Y-72640380D01*
X159409000Y-72400380D02*
X160853000Y-72400380D01*
X159409000Y-73400380D02*
X161416000Y-73400380D01*
X155141000Y-74361380D02*
X161597000Y-74361380D01*
X155210000Y-73801380D02*
X157329000Y-73801380D01*
X155147000Y-74241380D02*
X157329000Y-74241380D01*
X159409000Y-73280380D02*
X161371000Y-73280380D01*
X156719000Y-71680380D02*
X160019000Y-71680380D01*
X156655000Y-71720380D02*
X160083000Y-71720380D01*
X156026000Y-72240380D02*
X157329000Y-72240380D01*
X155885000Y-72400380D02*
X157329000Y-72400380D01*
X156325000Y-71960380D02*
X160413000Y-71960380D01*
X159409000Y-72520380D02*
X160947000Y-72520380D01*
X155308000Y-73440380D02*
X157329000Y-73440380D01*
X159409000Y-73680380D02*
X161500000Y-73680380D01*
X155989000Y-72280380D02*
X157329000Y-72280380D01*
X159409000Y-73520380D02*
X161455000Y-73520380D01*
X156425000Y-71880380D02*
X160313000Y-71880380D01*
X159409000Y-72600380D02*
X161005000Y-72600380D01*
X159409000Y-72840380D02*
X161159000Y-72840380D01*
X155336000Y-73360380D02*
X157329000Y-73360380D01*
X155417000Y-73160380D02*
X157329000Y-73160380D01*
X155228000Y-73720380D02*
X157329000Y-73720380D01*
X159409000Y-73160380D02*
X161321000Y-73160380D01*
X155603000Y-72800380D02*
X157329000Y-72800380D01*
X159409000Y-72680380D02*
X161059000Y-72680380D01*
X156215000Y-77666621D02*
X156845000Y-77666621D01*
X159409000Y-72960380D02*
X161225000Y-72960380D01*
X155163000Y-74081380D02*
X157329000Y-74081380D01*
X156232000Y-72040380D02*
X160506000Y-72040380D01*
X159409000Y-72800380D02*
X161135000Y-72800380D01*
X155705000Y-72640380D02*
X157329000Y-72640380D01*
X155248000Y-73640380D02*
X157329000Y-73640380D01*
X159409000Y-72880380D02*
X161181000Y-72880380D01*
X155180000Y-73961380D02*
X157329000Y-73961380D01*
X155142000Y-74321380D02*
X161596000Y-74321380D01*
X159409000Y-74001380D02*
X161564000Y-74001380D01*
X155535000Y-72920380D02*
X157329000Y-72920380D01*
X156064000Y-72200380D02*
X157329000Y-72200380D01*
X155435000Y-73120380D02*
X157329000Y-73120380D01*
X156277000Y-72000380D02*
X160461000Y-72000380D01*
X155733000Y-72600380D02*
X157329000Y-72600380D01*
X156479000Y-71840380D02*
X160259000Y-71840380D01*
X157967000Y-71240380D02*
X158771000Y-71240380D01*
X156535000Y-71800380D02*
X160203000Y-71800380D01*
X159409000Y-73480380D02*
X161443000Y-73480380D01*
X155653000Y-72720380D02*
X157329000Y-72720380D01*
X159409000Y-73801380D02*
X161528000Y-73801380D01*
X159409000Y-73000380D02*
X161245000Y-73000380D01*
X155399000Y-73200380D02*
X157329000Y-73200380D01*
X155202000Y-73841380D02*
X157329000Y-73841380D01*
X155139000Y-74441380D02*
X161599000Y-74441380D01*
X156937000Y-71560380D02*
X159801000Y-71560380D01*
X161639000Y-74481380D02*
G75*
G03*
X161639000Y-74481380I-3270000J0D01*
G01*
%TO.C,RV1*%
X117431000Y-68340000D02*
X127171000Y-68340000D01*
X117431000Y-56750000D02*
X117431000Y-61470000D01*
X125991000Y-56750000D02*
X127171000Y-56750000D01*
X117431000Y-65280000D02*
X117431000Y-68340000D01*
X122301000Y-63870000D02*
X122301000Y-62870000D01*
X127181000Y-56750000D02*
X127181000Y-61470000D01*
X127171000Y-65280000D02*
X127171000Y-68340000D01*
X123091000Y-56750000D02*
X123621000Y-56750000D01*
X120641000Y-56750000D02*
X121471000Y-56750000D01*
X121801000Y-63370000D02*
X122801000Y-63370000D01*
X117431000Y-56750000D02*
X118921000Y-56750000D01*
%TO.C,J1*%
X110632000Y-58206000D02*
X108632000Y-58206000D01*
X110632000Y-55406000D02*
X110632000Y-58206000D01*
X96032000Y-58206000D02*
X96032000Y-49006000D01*
X105032000Y-58206000D02*
X96032000Y-58206000D01*
X110632000Y-49006000D02*
X110632000Y-51806000D01*
X110872000Y-48766000D02*
X110872000Y-50506000D01*
X96032000Y-49006000D02*
X110632000Y-49006000D01*
X109132000Y-48766000D02*
X110872000Y-48766000D01*
%TO.C,RV2*%
X136989000Y-68343000D02*
X146729000Y-68343000D01*
X136989000Y-65283000D02*
X136989000Y-68343000D01*
X136989000Y-56753000D02*
X136989000Y-61473000D01*
X141859000Y-63873000D02*
X141859000Y-62873000D01*
X142649000Y-56753000D02*
X143179000Y-56753000D01*
X146729000Y-65283000D02*
X146729000Y-68343000D01*
X140199000Y-56753000D02*
X141029000Y-56753000D01*
X141359000Y-63373000D02*
X142359000Y-63373000D01*
X136989000Y-56753000D02*
X138479000Y-56753000D01*
X145549000Y-56753000D02*
X146729000Y-56753000D01*
X146739000Y-56753000D02*
X146739000Y-61473000D01*
D10*
%TO.C,J6*%
X137359000Y-37942000D02*
X140259000Y-37942000D01*
X137359000Y-48442000D02*
X137359000Y-37942000D01*
X146359000Y-48442000D02*
X146359000Y-37942000D01*
X143359000Y-48442000D02*
X146359000Y-48442000D01*
X137359000Y-48442000D02*
X140359000Y-48442000D01*
X143459000Y-37942000D02*
X146359000Y-37942000D01*
D14*
X143155263Y-46530576D02*
G75*
G03*
X141859000Y-41047000I-1296263J2588576D01*
G01*
X141859000Y-41046999D02*
G75*
G03*
X140562737Y-46530577I0J-2895001D01*
G01*
X143659000Y-43942000D02*
G75*
G03*
X143659000Y-43942000I-1800000J0D01*
G01*
%TO.C,C6*%
X148244000Y-72219000D02*
X151984000Y-72219000D01*
X148244000Y-79459000D02*
X148244000Y-72219000D01*
X151984000Y-79459000D02*
X151984000Y-72219000D01*
X148244000Y-79459000D02*
X151984000Y-79459000D01*
D10*
%TO.C,J3*%
X126310000Y-48442000D02*
X129310000Y-48442000D01*
X126310000Y-37942000D02*
X129210000Y-37942000D01*
X132410000Y-37942000D02*
X135310000Y-37942000D01*
X126310000Y-48442000D02*
X126310000Y-37942000D01*
X135310000Y-48442000D02*
X135310000Y-37942000D01*
X132310000Y-48442000D02*
X135310000Y-48442000D01*
D14*
X132106263Y-46530576D02*
G75*
G03*
X130810000Y-41047000I-1296263J2588576D01*
G01*
X130810000Y-41046999D02*
G75*
G03*
X129513737Y-46530577I0J-2895001D01*
G01*
X132610000Y-43942000D02*
G75*
G03*
X132610000Y-43942000I-1800000J0D01*
G01*
%TO.C,R2*%
X116991000Y-84169000D02*
X117321000Y-84169000D01*
X114581000Y-84169000D02*
X114581000Y-77629000D01*
X117321000Y-84169000D02*
X117321000Y-77629000D01*
X117321000Y-77629000D02*
X116991000Y-77629000D01*
X114581000Y-77629000D02*
X114911000Y-77629000D01*
X114911000Y-84169000D02*
X114581000Y-84169000D01*
%TO.C,C4*%
X104867000Y-75969000D02*
X101127000Y-75969000D01*
X104867000Y-75969000D02*
X104867000Y-83209000D01*
X104867000Y-83209000D02*
X101127000Y-83209000D01*
X101127000Y-75969000D02*
X101127000Y-83209000D01*
D10*
%TO.C,J5*%
X148408000Y-37942000D02*
X151308000Y-37942000D01*
X157408000Y-48442000D02*
X157408000Y-37942000D01*
X154408000Y-48442000D02*
X157408000Y-48442000D01*
X148408000Y-48442000D02*
X151408000Y-48442000D01*
X154508000Y-37942000D02*
X157408000Y-37942000D01*
X148408000Y-48442000D02*
X148408000Y-37942000D01*
D14*
X152908000Y-41046999D02*
G75*
G03*
X151611737Y-46530577I0J-2895001D01*
G01*
X154204263Y-46530576D02*
G75*
G03*
X152908000Y-41047000I-1296263J2588576D01*
G01*
X154708000Y-43942000D02*
G75*
G03*
X154708000Y-43942000I-1800000J0D01*
G01*
D10*
%TO.C,J4*%
X115261000Y-37942000D02*
X118161000Y-37942000D01*
X124261000Y-48442000D02*
X124261000Y-37942000D01*
X115261000Y-48442000D02*
X118261000Y-48442000D01*
X121261000Y-48442000D02*
X124261000Y-48442000D01*
X121361000Y-37942000D02*
X124261000Y-37942000D01*
X115261000Y-48442000D02*
X115261000Y-37942000D01*
D14*
X119761000Y-41046999D02*
G75*
G03*
X118464737Y-46530577I0J-2895001D01*
G01*
X121057263Y-46530576D02*
G75*
G03*
X119761000Y-41047000I-1296263J2588576D01*
G01*
X121561000Y-43942000D02*
G75*
G03*
X121561000Y-43942000I-1800000J0D01*
G01*
%TO.C,C5*%
X153508000Y-62127000D02*
X149768000Y-62127000D01*
X153508000Y-54887000D02*
X153508000Y-62127000D01*
X153508000Y-54887000D02*
X149768000Y-54887000D01*
X149768000Y-54887000D02*
X149768000Y-62127000D01*
%TO.C,R3*%
X126460000Y-75538000D02*
X126460000Y-75208000D01*
X119920000Y-72798000D02*
X126460000Y-72798000D01*
X119920000Y-75538000D02*
X126460000Y-75538000D01*
X126460000Y-72798000D02*
X126460000Y-73128000D01*
X119920000Y-75208000D02*
X119920000Y-75538000D01*
X119920000Y-73128000D02*
X119920000Y-72798000D01*
%TO.C,U1*%
X118050000Y-81899000D02*
X118050000Y-83549000D01*
X128330000Y-83549000D02*
X128330000Y-78249000D01*
X128330000Y-78249000D02*
X118050000Y-78249000D01*
X118050000Y-78249000D02*
X118050000Y-79899000D01*
X118050000Y-83549000D02*
X128330000Y-83549000D01*
X118050000Y-81899000D02*
G75*
G03*
X118050000Y-79899000I0J1000000D01*
G01*
D10*
%TO.C,J7*%
X159457000Y-48442000D02*
X159457000Y-37942000D01*
X165557000Y-37942000D02*
X168457000Y-37942000D01*
X159457000Y-48442000D02*
X162457000Y-48442000D01*
X168457000Y-48442000D02*
X168457000Y-37942000D01*
X165457000Y-48442000D02*
X168457000Y-48442000D01*
X159457000Y-37942000D02*
X162357000Y-37942000D01*
D14*
X165253263Y-46530576D02*
G75*
G03*
X163957000Y-41047000I-1296263J2588576D01*
G01*
X163957000Y-41046999D02*
G75*
G03*
X162660737Y-46530577I0J-2895001D01*
G01*
X165757000Y-43942000D02*
G75*
G03*
X165757000Y-43942000I-1800000J0D01*
G01*
%TD*%
M02*
