%TF.GenerationSoftware,KiCad,Pcbnew,(6.0.0-0)*%
%TF.CreationDate,2022-04-11T21:27:53+01:00*%
%TF.ProjectId,atari-punk,61746172-692d-4707-956e-6b2e6b696361,r01*%
%TF.SameCoordinates,Original*%
%TF.FileFunction,Copper,L1,Top*%
%TF.FilePolarity,Positive*%
%FSLAX46Y46*%
G04 Gerber Fmt 4.6, Leading zero omitted, Abs format (unit mm)*
G04 Created by KiCad (PCBNEW (6.0.0-0)) date 2022-04-11 21:27:53*
%MOMM*%
%LPD*%
G01*
G04 APERTURE LIST*
G04 Aperture macros list*
%AMRoundRect*
0 Rectangle with rounded corners*
0 $1 Rounding radius*
0 $2 $3 $4 $5 $6 $7 $8 $9 X,Y pos of 4 corners*
0 Add a 4 corners polygon primitive as box body*
4,1,4,$2,$3,$4,$5,$6,$7,$8,$9,$2,$3,0*
0 Add four circle primitives for the rounded corners*
1,1,$1+$1,$2,$3*
1,1,$1+$1,$4,$5*
1,1,$1+$1,$6,$7*
1,1,$1+$1,$8,$9*
0 Add four rect primitives between the rounded corners*
20,1,$1+$1,$2,$3,$4,$5,0*
20,1,$1+$1,$4,$5,$6,$7,0*
20,1,$1+$1,$6,$7,$8,$9,0*
20,1,$1+$1,$8,$9,$2,$3,0*%
G04 Aperture macros list end*
%TA.AperFunction,ComponentPad*%
%ADD10C,1.600000*%
%TD*%
%TA.AperFunction,ComponentPad*%
%ADD11R,1.800000X1.800000*%
%TD*%
%TA.AperFunction,ComponentPad*%
%ADD12C,1.800000*%
%TD*%
%TA.AperFunction,ComponentPad*%
%ADD13R,1.600000X1.600000*%
%TD*%
%TA.AperFunction,ComponentPad*%
%ADD14O,1.600000X1.600000*%
%TD*%
%TA.AperFunction,ComponentPad*%
%ADD15R,1.700000X1.700000*%
%TD*%
%TA.AperFunction,ComponentPad*%
%ADD16O,1.700000X1.700000*%
%TD*%
%TA.AperFunction,ComponentPad*%
%ADD17C,3.240000*%
%TD*%
%TA.AperFunction,ComponentPad*%
%ADD18R,2.600000X2.600000*%
%TD*%
%TA.AperFunction,ComponentPad*%
%ADD19C,2.600000*%
%TD*%
%TA.AperFunction,ComponentPad*%
%ADD20O,3.100000X2.300000*%
%TD*%
%TA.AperFunction,ComponentPad*%
%ADD21RoundRect,0.650000X-0.650000X-0.650000X0.650000X-0.650000X0.650000X0.650000X-0.650000X0.650000X0*%
%TD*%
%TA.AperFunction,Conductor*%
%ADD22C,1.270000*%
%TD*%
G04 APERTURE END LIST*
D10*
%TO.P,C2,1*%
%TO.N,Net-(C2-Pad1)*%
X132080000Y-57257000D03*
X132080000Y-56007000D03*
%TO.P,C2,2*%
%TO.N,GND*%
X132080000Y-59757000D03*
X132080000Y-61007000D03*
%TD*%
D11*
%TO.P,D2,1,K*%
%TO.N,GND*%
X101473000Y-65786000D03*
D12*
%TO.P,D2,2,A*%
%TO.N,Net-(D2-Pad2)*%
X101473000Y-68326000D03*
%TD*%
D13*
%TO.P,C3,1*%
%TO.N,VCC*%
X109093000Y-78359000D03*
D10*
%TO.P,C3,2*%
%TO.N,GND*%
X111593000Y-78359000D03*
%TD*%
D13*
%TO.P,U2,1,GND*%
%TO.N,GND*%
X138557000Y-84709000D03*
D14*
%TO.P,U2,2,TR*%
%TO.N,Net-(U1-Pad3)*%
X141097000Y-84709000D03*
%TO.P,U2,3,Q*%
%TO.N,Net-(C7-Pad1)*%
X143637000Y-84709000D03*
%TO.P,U2,4,R*%
%TO.N,VCC*%
X146177000Y-84709000D03*
%TO.P,U2,5,CV*%
%TO.N,Net-(J5-PadT)*%
X146177000Y-77089000D03*
%TO.P,U2,6,THR*%
%TO.N,Net-(C6-Pad1)*%
X143637000Y-77089000D03*
%TO.P,U2,7,DIS*%
X141097000Y-77089000D03*
%TO.P,U2,8,VCC*%
%TO.N,VCC*%
X138557000Y-77089000D03*
%TD*%
D10*
%TO.P,C1,1*%
%TO.N,Net-(C1-Pad1)*%
X130937000Y-77089000D03*
X130937000Y-78339000D03*
%TO.P,C1,2*%
%TO.N,GND*%
X130937000Y-74589000D03*
X130937000Y-73339000D03*
%TD*%
%TO.P,R1,1*%
%TO.N,VCC*%
X109093000Y-72517000D03*
D14*
%TO.P,R1,2*%
%TO.N,Net-(D2-Pad2)*%
X101473000Y-72517000D03*
%TD*%
D13*
%TO.P,D1,1,K*%
%TO.N,VCC*%
X109093000Y-69469000D03*
D14*
%TO.P,D1,2,A*%
%TO.N,Net-(D1-Pad2)*%
X109093000Y-61849000D03*
%TD*%
D15*
%TO.P,J2,1,Pin_1*%
%TO.N,Net-(D1-Pad2)*%
X110363000Y-43561000D03*
D16*
%TO.P,J2,2,Pin_2*%
X110363000Y-41021000D03*
%TO.P,J2,3,Pin_3*%
%TO.N,GND*%
X107823000Y-43561000D03*
%TO.P,J2,4,Pin_4*%
X107823000Y-41021000D03*
%TO.P,J2,5,Pin_5*%
X105283000Y-43561000D03*
%TO.P,J2,6,Pin_6*%
X105283000Y-41021000D03*
%TO.P,J2,7,Pin_7*%
X102743000Y-43561000D03*
%TO.P,J2,8,Pin_8*%
X102743000Y-41021000D03*
%TO.P,J2,9,Pin_9*%
%TO.N,unconnected-(J2-Pad9)*%
X100203000Y-43561000D03*
%TO.P,J2,10,Pin_10*%
%TO.N,unconnected-(J2-Pad10)*%
X100203000Y-41021000D03*
%TD*%
D17*
%TO.P,RV3,*%
%TO.N,*%
X166217000Y-63373000D03*
X156617000Y-63373000D03*
D11*
%TO.P,RV3,1,1*%
%TO.N,Net-(C7-Pad2)*%
X163917000Y-55873000D03*
D12*
%TO.P,RV3,2,2*%
%TO.N,Net-(J7-PadT)*%
X161417000Y-55873000D03*
%TO.P,RV3,3,3*%
%TO.N,GND*%
X158917000Y-55873000D03*
%TD*%
D10*
%TO.P,R4,1*%
%TO.N,VCC*%
X138557000Y-74168000D03*
D14*
%TO.P,R4,2*%
%TO.N,Net-(R4-Pad2)*%
X146177000Y-74168000D03*
%TD*%
D13*
%TO.P,C7,1*%
%TO.N,Net-(C7-Pad1)*%
X158369000Y-75731380D03*
D10*
%TO.P,C7,2*%
%TO.N,Net-(C7-Pad2)*%
X158369000Y-73231380D03*
%TD*%
D17*
%TO.P,RV1,*%
%TO.N,*%
X127101000Y-63370000D03*
X117501000Y-63370000D03*
D11*
%TO.P,RV1,1,1*%
%TO.N,Net-(R3-Pad2)*%
X124801000Y-55870000D03*
D12*
%TO.P,RV1,2,2*%
X122301000Y-55870000D03*
%TO.P,RV1,3,3*%
%TO.N,Net-(J4-PadTN)*%
X119801000Y-55870000D03*
%TD*%
D18*
%TO.P,J1,1*%
%TO.N,Net-(D1-Pad2)*%
X109832000Y-53606000D03*
D19*
%TO.P,J1,2*%
%TO.N,GND*%
X103832000Y-53606000D03*
%TO.P,J1,3*%
%TO.N,unconnected-(J1-Pad3)*%
X106832000Y-58306000D03*
%TD*%
D17*
%TO.P,RV2,*%
%TO.N,*%
X146659000Y-63373000D03*
X137059000Y-63373000D03*
D11*
%TO.P,RV2,1,1*%
%TO.N,Net-(R4-Pad2)*%
X144359000Y-55873000D03*
D12*
%TO.P,RV2,2,2*%
X141859000Y-55873000D03*
%TO.P,RV2,3,3*%
%TO.N,Net-(J6-PadTN)*%
X139359000Y-55873000D03*
%TD*%
D20*
%TO.P,J6,S*%
%TO.N,GND*%
X141859000Y-50422000D03*
D21*
%TO.P,J6,T*%
%TO.N,Net-(C6-Pad1)*%
X141859000Y-39022000D03*
%TO.P,J6,TN*%
%TO.N,Net-(J6-PadTN)*%
X141859000Y-47322000D03*
%TD*%
D10*
%TO.P,C6,1*%
%TO.N,Net-(C6-Pad1)*%
X150114000Y-77089000D03*
X150114000Y-78339000D03*
%TO.P,C6,2*%
%TO.N,GND*%
X150114000Y-74589000D03*
X150114000Y-73339000D03*
%TD*%
D20*
%TO.P,J3,S*%
%TO.N,GND*%
X130810000Y-50422000D03*
D21*
%TO.P,J3,T*%
%TO.N,Net-(J3-PadT)*%
X130810000Y-39022000D03*
%TO.P,J3,TN*%
%TO.N,Net-(C2-Pad1)*%
X130810000Y-47322000D03*
%TD*%
D10*
%TO.P,R2,1*%
%TO.N,Net-(C1-Pad1)*%
X115951000Y-84709000D03*
D14*
%TO.P,R2,2*%
%TO.N,Net-(J4-PadT)*%
X115951000Y-77089000D03*
%TD*%
D10*
%TO.P,C4,1*%
%TO.N,VCC*%
X102997000Y-77089000D03*
X102997000Y-78339000D03*
%TO.P,C4,2*%
%TO.N,GND*%
X102997000Y-80839000D03*
X102997000Y-82089000D03*
%TD*%
D20*
%TO.P,J5,S*%
%TO.N,GND*%
X152908000Y-50422000D03*
D21*
%TO.P,J5,T*%
%TO.N,Net-(J5-PadT)*%
X152908000Y-39022000D03*
%TO.P,J5,TN*%
%TO.N,Net-(C5-Pad1)*%
X152908000Y-47322000D03*
%TD*%
D20*
%TO.P,J4,S*%
%TO.N,GND*%
X119761000Y-50422000D03*
D21*
%TO.P,J4,T*%
%TO.N,Net-(J4-PadT)*%
X119761000Y-39022000D03*
%TO.P,J4,TN*%
%TO.N,Net-(J4-PadTN)*%
X119761000Y-47322000D03*
%TD*%
D10*
%TO.P,C5,1*%
%TO.N,Net-(C5-Pad1)*%
X151638000Y-57257000D03*
X151638000Y-56007000D03*
%TO.P,C5,2*%
%TO.N,GND*%
X151638000Y-59757000D03*
X151638000Y-61007000D03*
%TD*%
%TO.P,R3,1*%
%TO.N,VCC*%
X119380000Y-74168000D03*
D14*
%TO.P,R3,2*%
%TO.N,Net-(R3-Pad2)*%
X127000000Y-74168000D03*
%TD*%
D13*
%TO.P,U1,1,GND*%
%TO.N,GND*%
X119380000Y-84709000D03*
D14*
%TO.P,U1,2,TR*%
%TO.N,Net-(C1-Pad1)*%
X121920000Y-84709000D03*
%TO.P,U1,3,Q*%
%TO.N,Net-(U1-Pad3)*%
X124460000Y-84709000D03*
%TO.P,U1,4,R*%
%TO.N,VCC*%
X127000000Y-84709000D03*
%TO.P,U1,5,CV*%
%TO.N,Net-(J3-PadT)*%
X127000000Y-77089000D03*
%TO.P,U1,6,THR*%
%TO.N,Net-(C1-Pad1)*%
X124460000Y-77089000D03*
%TO.P,U1,7,DIS*%
%TO.N,Net-(J4-PadT)*%
X121920000Y-77089000D03*
%TO.P,U1,8,VCC*%
%TO.N,VCC*%
X119380000Y-77089000D03*
%TD*%
D20*
%TO.P,J7,S*%
%TO.N,GND*%
X163957000Y-50422000D03*
D21*
%TO.P,J7,T*%
%TO.N,Net-(J7-PadT)*%
X163957000Y-39022000D03*
%TO.P,J7,TN*%
%TO.N,unconnected-(J7-PadTN)*%
X163957000Y-47322000D03*
%TD*%
D22*
%TO.N,Net-(C1-Pad1)*%
X124460000Y-79923348D02*
X122003674Y-82379674D01*
X129352652Y-79923348D02*
X130937000Y-78339000D01*
X124460000Y-77089000D02*
X124460000Y-79923348D01*
X122003674Y-82379674D02*
X121362859Y-83020489D01*
X122003674Y-82379674D02*
X121920000Y-82463348D01*
X124460000Y-79923348D02*
X129352652Y-79923348D01*
X117639511Y-83020489D02*
X121362859Y-83020489D01*
X115951000Y-84709000D02*
X117639511Y-83020489D01*
X121362859Y-83020489D02*
X121920000Y-83577630D01*
X130937000Y-77089000D02*
X130937000Y-78339000D01*
X121920000Y-83577630D02*
X121920000Y-84709000D01*
X121920000Y-82463348D02*
X121920000Y-84709000D01*
%TO.N,VCC*%
X102997000Y-78339000D02*
X109073000Y-78339000D01*
X115316000Y-86487000D02*
X109093000Y-80264000D01*
X109093000Y-80264000D02*
X109093000Y-78359000D01*
X117729000Y-72517000D02*
X119380000Y-74168000D01*
X109093000Y-72517000D02*
X109093000Y-78359000D01*
X109093000Y-69469000D02*
X109093000Y-72517000D01*
X109093000Y-72517000D02*
X117729000Y-72517000D01*
X115316000Y-86487000D02*
X125222000Y-86487000D01*
X138557000Y-74168000D02*
X138557000Y-77089000D01*
X125222000Y-86487000D02*
X127000000Y-84709000D01*
X109073000Y-78339000D02*
X109093000Y-78359000D01*
X119380000Y-74168000D02*
X119380000Y-77089000D01*
X102997000Y-77089000D02*
X102997000Y-78339000D01*
%TO.N,Net-(C5-Pad1)*%
X152908000Y-47322000D02*
X153090902Y-47322000D01*
X153090902Y-47322000D02*
X155346520Y-49577618D01*
X155346520Y-52298480D02*
X151638000Y-56007000D01*
X151638000Y-57257000D02*
X151638000Y-56007000D01*
X155346520Y-49577618D02*
X155346520Y-52298480D01*
%TO.N,Net-(C6-Pad1)*%
X141097000Y-77089000D02*
X143637000Y-77089000D01*
X134550489Y-67773573D02*
X134550489Y-60267511D01*
X134550489Y-60267511D02*
X134772040Y-60045960D01*
X143637000Y-77089000D02*
X145686999Y-79138999D01*
X134772040Y-46108960D02*
X141859000Y-39022000D01*
X150114000Y-78339000D02*
X150114000Y-77089000D01*
X141097000Y-74320084D02*
X134550489Y-67773573D01*
X134772040Y-60045960D02*
X134772040Y-46108960D01*
X141097000Y-77089000D02*
X141097000Y-74320084D01*
X145686999Y-79138999D02*
X149314001Y-79138999D01*
X149314001Y-79138999D02*
X150114000Y-78339000D01*
%TO.N,Net-(D1-Pad2)*%
X110363000Y-41021000D02*
X110363000Y-43561000D01*
X110363000Y-43561000D02*
X110363000Y-53075000D01*
X109832000Y-61110000D02*
X109093000Y-61849000D01*
X110363000Y-53075000D02*
X109832000Y-53606000D01*
X109832000Y-53606000D02*
X109832000Y-61110000D01*
%TO.N,Net-(D2-Pad2)*%
X101473000Y-72517000D02*
X101473000Y-68326000D01*
%TO.N,Net-(C2-Pad1)*%
X130992902Y-47322000D02*
X130810000Y-47322000D01*
X132080000Y-57257000D02*
X132080000Y-56007000D01*
X132080000Y-56007000D02*
X133248520Y-54838480D01*
X133248520Y-54838480D02*
X133248520Y-49577618D01*
X133248520Y-49577618D02*
X130992902Y-47322000D01*
%TO.N,Net-(C7-Pad1)*%
X146685000Y-81661000D02*
X152439380Y-81661000D01*
X143637000Y-84709000D02*
X146685000Y-81661000D01*
X152439380Y-81661000D02*
X158369000Y-75731380D01*
%TO.N,Net-(R4-Pad2)*%
X146177000Y-66675000D02*
X144150489Y-64648489D01*
X146177000Y-74168000D02*
X146177000Y-66675000D01*
X144150489Y-56081511D02*
X144359000Y-55873000D01*
X144150489Y-64648489D02*
X144150489Y-56081511D01*
X141859000Y-55873000D02*
X144359000Y-55873000D01*
%TO.N,Net-(J5-PadT)*%
X152908000Y-39022000D02*
X149167511Y-42762489D01*
X148082000Y-75184000D02*
X146177000Y-77089000D01*
X149167511Y-42762489D02*
X149167511Y-68002489D01*
X148082000Y-69088000D02*
X148082000Y-75184000D01*
X149167511Y-68002489D02*
X148082000Y-69088000D01*
%TO.N,Net-(J3-PadT)*%
X129667000Y-64351571D02*
X129667000Y-52561902D01*
X128371480Y-41460520D02*
X130810000Y-39022000D01*
X128371480Y-51266382D02*
X128371480Y-41460520D01*
X129667000Y-52561902D02*
X128371480Y-51266382D01*
X128688511Y-75400489D02*
X128688511Y-65330060D01*
X127000000Y-77089000D02*
X128688511Y-75400489D01*
X128688511Y-65330060D02*
X129667000Y-64351571D01*
%TO.N,Net-(U1-Pad3)*%
X124460000Y-84709000D02*
X126148511Y-83020489D01*
X126148511Y-83020489D02*
X140551489Y-83020489D01*
X141097000Y-83566000D02*
X141097000Y-84709000D01*
X140551489Y-83020489D02*
X141097000Y-83566000D01*
%TO.N,Net-(J4-PadT)*%
X114992489Y-43790511D02*
X119761000Y-39022000D01*
X115951000Y-77089000D02*
X117639511Y-78777511D01*
X120231489Y-78777511D02*
X121920000Y-77089000D01*
X114992489Y-65208489D02*
X114992489Y-43790511D01*
X121920000Y-72136000D02*
X114992489Y-65208489D01*
X117639511Y-78777511D02*
X120231489Y-78777511D01*
X121920000Y-77089000D02*
X121920000Y-72136000D01*
%TO.N,Net-(J4-PadTN)*%
X121744000Y-47322000D02*
X119761000Y-47322000D01*
X122199520Y-52198688D02*
X122199520Y-47777520D01*
X119801000Y-55870000D02*
X119801000Y-54597208D01*
X119801000Y-54597208D02*
X122199520Y-52198688D01*
X122199520Y-47777520D02*
X121744000Y-47322000D01*
%TO.N,Net-(C7-Pad2)*%
X158369000Y-73231380D02*
X159385000Y-72215380D01*
X163917000Y-57444000D02*
X163917000Y-55873000D01*
X159385000Y-61976000D02*
X163917000Y-57444000D01*
X159385000Y-72215380D02*
X159385000Y-61976000D01*
%TO.N,Net-(J6-PadTN)*%
X139359000Y-49639098D02*
X139359000Y-55873000D01*
X141859000Y-47322000D02*
X141676098Y-47322000D01*
X141676098Y-47322000D02*
X139359000Y-49639098D01*
%TO.N,Net-(J7-PadT)*%
X163957000Y-39022000D02*
X161417000Y-41562000D01*
X161417000Y-41562000D02*
X161417000Y-55873000D01*
%TO.N,Net-(R3-Pad2)*%
X124592489Y-71760489D02*
X124592489Y-56078511D01*
X124592489Y-56078511D02*
X124801000Y-55870000D01*
X127000000Y-74168000D02*
X124592489Y-71760489D01*
X122301000Y-55870000D02*
X124801000Y-55870000D01*
%TD*%
%TA.AperFunction,Conductor*%
%TO.N,GND*%
G36*
X169515058Y-34799500D02*
G01*
X169529859Y-34801805D01*
X169529862Y-34801805D01*
X169538731Y-34803186D01*
X169544852Y-34802385D01*
X169611374Y-34822803D01*
X169657209Y-34877022D01*
X169665777Y-34918865D01*
X169666814Y-34918729D01*
X169670936Y-34950250D01*
X169672000Y-34966588D01*
X169672000Y-87961673D01*
X169670500Y-87981057D01*
X169666814Y-88004731D01*
X169667615Y-88010852D01*
X169647197Y-88077374D01*
X169592978Y-88123209D01*
X169551135Y-88131777D01*
X169551271Y-88132814D01*
X169519750Y-88136936D01*
X169503412Y-88138000D01*
X96188327Y-88138000D01*
X96168942Y-88136500D01*
X96154141Y-88134195D01*
X96154138Y-88134195D01*
X96145269Y-88132814D01*
X96139148Y-88133615D01*
X96072626Y-88113197D01*
X96026791Y-88058978D01*
X96018223Y-88017135D01*
X96017186Y-88017271D01*
X96013064Y-87985750D01*
X96012000Y-87969412D01*
X96012000Y-83175062D01*
X102275493Y-83175062D01*
X102284789Y-83187077D01*
X102335994Y-83222931D01*
X102345489Y-83228414D01*
X102542947Y-83320490D01*
X102553239Y-83324236D01*
X102763688Y-83380625D01*
X102774481Y-83382528D01*
X102991525Y-83401517D01*
X103002475Y-83401517D01*
X103219519Y-83382528D01*
X103230312Y-83380625D01*
X103440761Y-83324236D01*
X103451053Y-83320490D01*
X103648511Y-83228414D01*
X103658006Y-83222931D01*
X103710048Y-83186491D01*
X103718424Y-83176012D01*
X103711356Y-83162566D01*
X103009812Y-82461022D01*
X102995868Y-82453408D01*
X102994035Y-82453539D01*
X102987420Y-82457790D01*
X102281923Y-83163287D01*
X102275493Y-83175062D01*
X96012000Y-83175062D01*
X96012000Y-82094475D01*
X101684483Y-82094475D01*
X101703472Y-82311519D01*
X101705375Y-82322312D01*
X101761764Y-82532761D01*
X101765510Y-82543053D01*
X101857586Y-82740511D01*
X101863069Y-82750006D01*
X101899509Y-82802048D01*
X101909988Y-82810424D01*
X101923434Y-82803356D01*
X102907905Y-81818885D01*
X102970217Y-81784859D01*
X103041032Y-81789924D01*
X103086095Y-81818885D01*
X104071287Y-82804077D01*
X104083062Y-82810507D01*
X104095077Y-82801211D01*
X104130931Y-82750006D01*
X104136414Y-82740511D01*
X104228490Y-82543053D01*
X104232236Y-82532761D01*
X104288625Y-82322312D01*
X104290528Y-82311519D01*
X104309517Y-82094475D01*
X104309517Y-82083525D01*
X104290528Y-81866481D01*
X104288625Y-81855688D01*
X104232236Y-81645239D01*
X104228490Y-81634947D01*
X104173607Y-81517250D01*
X104162946Y-81447058D01*
X104173607Y-81410750D01*
X104228490Y-81293053D01*
X104232236Y-81282761D01*
X104288625Y-81072312D01*
X104290528Y-81061519D01*
X104309517Y-80844475D01*
X104309517Y-80833525D01*
X104290528Y-80616481D01*
X104288625Y-80605688D01*
X104232236Y-80395239D01*
X104228490Y-80384947D01*
X104136414Y-80187489D01*
X104130931Y-80177994D01*
X104094491Y-80125952D01*
X104084012Y-80117576D01*
X104070566Y-80124644D01*
X103086095Y-81109115D01*
X103023783Y-81143141D01*
X102952968Y-81138076D01*
X102907905Y-81109115D01*
X101922713Y-80123923D01*
X101910938Y-80117493D01*
X101898923Y-80126789D01*
X101863069Y-80177994D01*
X101857586Y-80187489D01*
X101765510Y-80384947D01*
X101761764Y-80395239D01*
X101705375Y-80605688D01*
X101703472Y-80616481D01*
X101684483Y-80833525D01*
X101684483Y-80844475D01*
X101703472Y-81061519D01*
X101705375Y-81072312D01*
X101761764Y-81282761D01*
X101765510Y-81293053D01*
X101820393Y-81410750D01*
X101831054Y-81480942D01*
X101820393Y-81517250D01*
X101765510Y-81634947D01*
X101761764Y-81645239D01*
X101705375Y-81855688D01*
X101703472Y-81866481D01*
X101684483Y-82083525D01*
X101684483Y-82094475D01*
X96012000Y-82094475D01*
X96012000Y-78339000D01*
X101683502Y-78339000D01*
X101703457Y-78567087D01*
X101704881Y-78572400D01*
X101704881Y-78572402D01*
X101760467Y-78779848D01*
X101762716Y-78788243D01*
X101765039Y-78793224D01*
X101765039Y-78793225D01*
X101857151Y-78990762D01*
X101857154Y-78990767D01*
X101859477Y-78995749D01*
X101990802Y-79183300D01*
X102152700Y-79345198D01*
X102157208Y-79348355D01*
X102157211Y-79348357D01*
X102227105Y-79397297D01*
X102340251Y-79476523D01*
X102345235Y-79478847D01*
X102347528Y-79480171D01*
X102396521Y-79531553D01*
X102409957Y-79601267D01*
X102383571Y-79667178D01*
X102347528Y-79698409D01*
X102335998Y-79705066D01*
X102283952Y-79741509D01*
X102275576Y-79751988D01*
X102282644Y-79765434D01*
X102984188Y-80466978D01*
X102998132Y-80474592D01*
X102999965Y-80474461D01*
X103006580Y-80470210D01*
X103712077Y-79764713D01*
X103718507Y-79752938D01*
X103709211Y-79740923D01*
X103667495Y-79711713D01*
X103623167Y-79656256D01*
X103615858Y-79585636D01*
X103647889Y-79522276D01*
X103709090Y-79486291D01*
X103739766Y-79482500D01*
X107823500Y-79482500D01*
X107891621Y-79502502D01*
X107938114Y-79556158D01*
X107949500Y-79608500D01*
X107949500Y-80221195D01*
X107949230Y-80229436D01*
X107944994Y-80294061D01*
X107955399Y-80381973D01*
X107955736Y-80385186D01*
X107963831Y-80473279D01*
X107965399Y-80478839D01*
X107966061Y-80482412D01*
X107968250Y-80493415D01*
X107969018Y-80497028D01*
X107969697Y-80502765D01*
X107995938Y-80587276D01*
X107996854Y-80590373D01*
X108020877Y-80675549D01*
X108023435Y-80680737D01*
X108024760Y-80684188D01*
X108028901Y-80694566D01*
X108030304Y-80697953D01*
X108032018Y-80703473D01*
X108034709Y-80708587D01*
X108034709Y-80708588D01*
X108073198Y-80781745D01*
X108074695Y-80784681D01*
X108113829Y-80864037D01*
X108117287Y-80868668D01*
X108119250Y-80871871D01*
X108125173Y-80881258D01*
X108127182Y-80884351D01*
X108129871Y-80889463D01*
X108184656Y-80958956D01*
X108186627Y-80961526D01*
X108236116Y-81027801D01*
X108236123Y-81027808D01*
X108239573Y-81032429D01*
X108243807Y-81036343D01*
X108243809Y-81036345D01*
X108299973Y-81088262D01*
X108303539Y-81091692D01*
X114477151Y-87265304D01*
X114482788Y-87271322D01*
X114525494Y-87320019D01*
X114530029Y-87323594D01*
X114530030Y-87323595D01*
X114594982Y-87374798D01*
X114597547Y-87376876D01*
X114661100Y-87429734D01*
X114661105Y-87429738D01*
X114665540Y-87433426D01*
X114670574Y-87436245D01*
X114673584Y-87438314D01*
X114682854Y-87444508D01*
X114685999Y-87446551D01*
X114690537Y-87450128D01*
X114695645Y-87452816D01*
X114695649Y-87452818D01*
X114768816Y-87491312D01*
X114771706Y-87492882D01*
X114848904Y-87536115D01*
X114854376Y-87537972D01*
X114857776Y-87539486D01*
X114867987Y-87543873D01*
X114871421Y-87545295D01*
X114876527Y-87547982D01*
X114882041Y-87549694D01*
X114882043Y-87549695D01*
X114960999Y-87574212D01*
X114964135Y-87575231D01*
X115017280Y-87593271D01*
X115047912Y-87603669D01*
X115053625Y-87604498D01*
X115057138Y-87605341D01*
X115068151Y-87607833D01*
X115071718Y-87608591D01*
X115077234Y-87610304D01*
X115082962Y-87610982D01*
X115082967Y-87610983D01*
X115131257Y-87616698D01*
X115165118Y-87620706D01*
X115168340Y-87621130D01*
X115255897Y-87633825D01*
X115338054Y-87630597D01*
X115343001Y-87630500D01*
X125179195Y-87630500D01*
X125187436Y-87630770D01*
X125252061Y-87635006D01*
X125339973Y-87624601D01*
X125343186Y-87624264D01*
X125431279Y-87616169D01*
X125436839Y-87614601D01*
X125440412Y-87613939D01*
X125451415Y-87611750D01*
X125455028Y-87610982D01*
X125460765Y-87610303D01*
X125545276Y-87584062D01*
X125548373Y-87583146D01*
X125633549Y-87559123D01*
X125638737Y-87556565D01*
X125642188Y-87555240D01*
X125652566Y-87551099D01*
X125655953Y-87549696D01*
X125661473Y-87547982D01*
X125739746Y-87506801D01*
X125742682Y-87505305D01*
X125767863Y-87492887D01*
X125822037Y-87466171D01*
X125826668Y-87462713D01*
X125829871Y-87460750D01*
X125839258Y-87454827D01*
X125842351Y-87452818D01*
X125847463Y-87450129D01*
X125916956Y-87395344D01*
X125919526Y-87393373D01*
X125985801Y-87343884D01*
X125985808Y-87343877D01*
X125990429Y-87340427D01*
X126005989Y-87323595D01*
X126046262Y-87280027D01*
X126049692Y-87276461D01*
X127334700Y-85991453D01*
X127391184Y-85958841D01*
X127410050Y-85953786D01*
X127449243Y-85943284D01*
X127546409Y-85897975D01*
X127651762Y-85848849D01*
X127651767Y-85848846D01*
X127656749Y-85846523D01*
X127798805Y-85747054D01*
X127839789Y-85718357D01*
X127839792Y-85718355D01*
X127844300Y-85715198D01*
X128005829Y-85553669D01*
X137249001Y-85553669D01*
X137249371Y-85560490D01*
X137254895Y-85611352D01*
X137258521Y-85626604D01*
X137303676Y-85747054D01*
X137312214Y-85762649D01*
X137388715Y-85864724D01*
X137401276Y-85877285D01*
X137503351Y-85953786D01*
X137518946Y-85962324D01*
X137639394Y-86007478D01*
X137654649Y-86011105D01*
X137705514Y-86016631D01*
X137712328Y-86017000D01*
X138284885Y-86017000D01*
X138300124Y-86012525D01*
X138301329Y-86011135D01*
X138303000Y-86003452D01*
X138303000Y-84981115D01*
X138298525Y-84965876D01*
X138297135Y-84964671D01*
X138289452Y-84963000D01*
X137267116Y-84963000D01*
X137251877Y-84967475D01*
X137250672Y-84968865D01*
X137249001Y-84976548D01*
X137249001Y-85553669D01*
X128005829Y-85553669D01*
X128006198Y-85553300D01*
X128010442Y-85547240D01*
X128134366Y-85370257D01*
X128137523Y-85365749D01*
X128139846Y-85360767D01*
X128139849Y-85360762D01*
X128231961Y-85163225D01*
X128231962Y-85163223D01*
X128234284Y-85158243D01*
X128264976Y-85043702D01*
X128292119Y-84942402D01*
X128292119Y-84942400D01*
X128293543Y-84937087D01*
X128313498Y-84709000D01*
X128293543Y-84480913D01*
X128251123Y-84322600D01*
X128252813Y-84251624D01*
X128292607Y-84192828D01*
X128357871Y-84164880D01*
X128372830Y-84163989D01*
X137123000Y-84163989D01*
X137191121Y-84183991D01*
X137237614Y-84237647D01*
X137249000Y-84289989D01*
X137249000Y-84436885D01*
X137253475Y-84452124D01*
X137254865Y-84453329D01*
X137262548Y-84455000D01*
X138685000Y-84455000D01*
X138753121Y-84475002D01*
X138799614Y-84528658D01*
X138811000Y-84581000D01*
X138811000Y-85998884D01*
X138815475Y-86014123D01*
X138816865Y-86015328D01*
X138824548Y-86016999D01*
X139401669Y-86016999D01*
X139408490Y-86016629D01*
X139459352Y-86011105D01*
X139474604Y-86007479D01*
X139595054Y-85962324D01*
X139610649Y-85953786D01*
X139712724Y-85877285D01*
X139725285Y-85864724D01*
X139801786Y-85762649D01*
X139810324Y-85747054D01*
X139855478Y-85626606D01*
X139859104Y-85611357D01*
X139859479Y-85607904D01*
X139860522Y-85605394D01*
X139860932Y-85603669D01*
X139861211Y-85603735D01*
X139886719Y-85542341D01*
X139945080Y-85501912D01*
X140016034Y-85499454D01*
X140077054Y-85535747D01*
X140086344Y-85547240D01*
X140087641Y-85548786D01*
X140090802Y-85553300D01*
X140252700Y-85715198D01*
X140257208Y-85718355D01*
X140257211Y-85718357D01*
X140298195Y-85747054D01*
X140440251Y-85846523D01*
X140445233Y-85848846D01*
X140445238Y-85848849D01*
X140642771Y-85940959D01*
X140647757Y-85943284D01*
X140653065Y-85944706D01*
X140653067Y-85944707D01*
X140863598Y-86001119D01*
X140863600Y-86001119D01*
X140868913Y-86002543D01*
X141097000Y-86022498D01*
X141325087Y-86002543D01*
X141330400Y-86001119D01*
X141330402Y-86001119D01*
X141540933Y-85944707D01*
X141540935Y-85944706D01*
X141546243Y-85943284D01*
X141551229Y-85940959D01*
X141748762Y-85848849D01*
X141748767Y-85848846D01*
X141753749Y-85846523D01*
X141895805Y-85747054D01*
X141936789Y-85718357D01*
X141936792Y-85718355D01*
X141941300Y-85715198D01*
X142103198Y-85553300D01*
X142107442Y-85547240D01*
X142231366Y-85370257D01*
X142234523Y-85365749D01*
X142236846Y-85360767D01*
X142236849Y-85360762D01*
X142252805Y-85326543D01*
X142299722Y-85273258D01*
X142367999Y-85253797D01*
X142435959Y-85274339D01*
X142481195Y-85326543D01*
X142497151Y-85360762D01*
X142497154Y-85360767D01*
X142499477Y-85365749D01*
X142502634Y-85370257D01*
X142626559Y-85547240D01*
X142630802Y-85553300D01*
X142792700Y-85715198D01*
X142797208Y-85718355D01*
X142797211Y-85718357D01*
X142838195Y-85747054D01*
X142980251Y-85846523D01*
X142985233Y-85848846D01*
X142985238Y-85848849D01*
X143182771Y-85940959D01*
X143187757Y-85943284D01*
X143193065Y-85944706D01*
X143193067Y-85944707D01*
X143403598Y-86001119D01*
X143403600Y-86001119D01*
X143408913Y-86002543D01*
X143637000Y-86022498D01*
X143865087Y-86002543D01*
X143870400Y-86001119D01*
X143870402Y-86001119D01*
X144080933Y-85944707D01*
X144080935Y-85944706D01*
X144086243Y-85943284D01*
X144091229Y-85940959D01*
X144288762Y-85848849D01*
X144288767Y-85848846D01*
X144293749Y-85846523D01*
X144435805Y-85747054D01*
X144476789Y-85718357D01*
X144476792Y-85718355D01*
X144481300Y-85715198D01*
X144643198Y-85553300D01*
X144647442Y-85547240D01*
X144771366Y-85370257D01*
X144774523Y-85365749D01*
X144776846Y-85360767D01*
X144776849Y-85360762D01*
X144792805Y-85326543D01*
X144839722Y-85273258D01*
X144907999Y-85253797D01*
X144975959Y-85274339D01*
X145021195Y-85326543D01*
X145037151Y-85360762D01*
X145037154Y-85360767D01*
X145039477Y-85365749D01*
X145042634Y-85370257D01*
X145166559Y-85547240D01*
X145170802Y-85553300D01*
X145332700Y-85715198D01*
X145337208Y-85718355D01*
X145337211Y-85718357D01*
X145378195Y-85747054D01*
X145520251Y-85846523D01*
X145525233Y-85848846D01*
X145525238Y-85848849D01*
X145722771Y-85940959D01*
X145727757Y-85943284D01*
X145733065Y-85944706D01*
X145733067Y-85944707D01*
X145943598Y-86001119D01*
X145943600Y-86001119D01*
X145948913Y-86002543D01*
X146177000Y-86022498D01*
X146405087Y-86002543D01*
X146410400Y-86001119D01*
X146410402Y-86001119D01*
X146620933Y-85944707D01*
X146620935Y-85944706D01*
X146626243Y-85943284D01*
X146631229Y-85940959D01*
X146828762Y-85848849D01*
X146828767Y-85848846D01*
X146833749Y-85846523D01*
X146975805Y-85747054D01*
X147016789Y-85718357D01*
X147016792Y-85718355D01*
X147021300Y-85715198D01*
X147183198Y-85553300D01*
X147187442Y-85547240D01*
X147311366Y-85370257D01*
X147314523Y-85365749D01*
X147316846Y-85360767D01*
X147316849Y-85360762D01*
X147408961Y-85163225D01*
X147408962Y-85163223D01*
X147411284Y-85158243D01*
X147441976Y-85043702D01*
X147469119Y-84942402D01*
X147469119Y-84942400D01*
X147470543Y-84937087D01*
X147490498Y-84709000D01*
X147470543Y-84480913D01*
X147419385Y-84289989D01*
X147412707Y-84265067D01*
X147412706Y-84265065D01*
X147411284Y-84259757D01*
X147375954Y-84183991D01*
X147316849Y-84057238D01*
X147316846Y-84057233D01*
X147314523Y-84052251D01*
X147183198Y-83864700D01*
X147021300Y-83702802D01*
X147016792Y-83699645D01*
X147016789Y-83699643D01*
X146887044Y-83608795D01*
X146833749Y-83571477D01*
X146828767Y-83569154D01*
X146828762Y-83569151D01*
X146695348Y-83506940D01*
X146642063Y-83460023D01*
X146622602Y-83391746D01*
X146643144Y-83323786D01*
X146659503Y-83303650D01*
X147121748Y-82841405D01*
X147184060Y-82807379D01*
X147210843Y-82804500D01*
X152396575Y-82804500D01*
X152404816Y-82804770D01*
X152469441Y-82809006D01*
X152557353Y-82798601D01*
X152560566Y-82798264D01*
X152648659Y-82790169D01*
X152654219Y-82788601D01*
X152657792Y-82787939D01*
X152668795Y-82785750D01*
X152672408Y-82784982D01*
X152678145Y-82784303D01*
X152762656Y-82758062D01*
X152765753Y-82757146D01*
X152850929Y-82733123D01*
X152856117Y-82730565D01*
X152859568Y-82729240D01*
X152869946Y-82725099D01*
X152873333Y-82723696D01*
X152878853Y-82721982D01*
X152957126Y-82680801D01*
X152960062Y-82679305D01*
X153039417Y-82640171D01*
X153044048Y-82636713D01*
X153047251Y-82634750D01*
X153056638Y-82628827D01*
X153059731Y-82626818D01*
X153064843Y-82624129D01*
X153134336Y-82569344D01*
X153136906Y-82567373D01*
X153203181Y-82517884D01*
X153203188Y-82517877D01*
X153207809Y-82514427D01*
X153263642Y-82454027D01*
X153267071Y-82450462D01*
X158640749Y-77076785D01*
X158703061Y-77042759D01*
X158729844Y-77039880D01*
X159217134Y-77039880D01*
X159279316Y-77033125D01*
X159415705Y-76981995D01*
X159532261Y-76894641D01*
X159619615Y-76778085D01*
X159670745Y-76641696D01*
X159677500Y-76579514D01*
X159677500Y-74883246D01*
X159670745Y-74821064D01*
X159619615Y-74684675D01*
X159532261Y-74568119D01*
X159415705Y-74480765D01*
X159279316Y-74429635D01*
X159280046Y-74427689D01*
X159227795Y-74397835D01*
X159194979Y-74334877D01*
X159201409Y-74264173D01*
X159229498Y-74221380D01*
X159375198Y-74075680D01*
X159506523Y-73888129D01*
X159508846Y-73883147D01*
X159508849Y-73883142D01*
X159590533Y-73707968D01*
X159603284Y-73680623D01*
X159611124Y-73651366D01*
X159618841Y-73622564D01*
X159651453Y-73566080D01*
X160163304Y-73054229D01*
X160169322Y-73048592D01*
X160192626Y-73028155D01*
X160218019Y-73005886D01*
X160249271Y-72966243D01*
X160272798Y-72936398D01*
X160274876Y-72933833D01*
X160327734Y-72870280D01*
X160327738Y-72870275D01*
X160331426Y-72865840D01*
X160334245Y-72860806D01*
X160336314Y-72857796D01*
X160342508Y-72848526D01*
X160344551Y-72845381D01*
X160348128Y-72840843D01*
X160389318Y-72762554D01*
X160390887Y-72759664D01*
X160431291Y-72687519D01*
X160431292Y-72687517D01*
X160434115Y-72682476D01*
X160435972Y-72677004D01*
X160437486Y-72673604D01*
X160441873Y-72663393D01*
X160443295Y-72659959D01*
X160445982Y-72654853D01*
X160454956Y-72625952D01*
X160472212Y-72570381D01*
X160473231Y-72567245D01*
X160499813Y-72488935D01*
X160501669Y-72483468D01*
X160502498Y-72477755D01*
X160503341Y-72474242D01*
X160505833Y-72463229D01*
X160506591Y-72459662D01*
X160508304Y-72454146D01*
X160518706Y-72366262D01*
X160519134Y-72363011D01*
X160531825Y-72275483D01*
X160528597Y-72193326D01*
X160528500Y-72188379D01*
X160528500Y-63350659D01*
X164083643Y-63350659D01*
X164100349Y-63640395D01*
X164101174Y-63644600D01*
X164101175Y-63644608D01*
X164111939Y-63699472D01*
X164156222Y-63925184D01*
X164157609Y-63929234D01*
X164157610Y-63929239D01*
X164248840Y-64195698D01*
X164250229Y-64199754D01*
X164252156Y-64203585D01*
X164342128Y-64382475D01*
X164380629Y-64459027D01*
X164420217Y-64516628D01*
X164531503Y-64678550D01*
X164545010Y-64698203D01*
X164740331Y-64912857D01*
X164743620Y-64915607D01*
X164959683Y-65096265D01*
X164959688Y-65096269D01*
X164962975Y-65099017D01*
X165055732Y-65157203D01*
X165205185Y-65250955D01*
X165205189Y-65250957D01*
X165208825Y-65253238D01*
X165212735Y-65255003D01*
X165212736Y-65255004D01*
X165469419Y-65370901D01*
X165469423Y-65370903D01*
X165473331Y-65372667D01*
X165533193Y-65390399D01*
X165747484Y-65453875D01*
X165747488Y-65453876D01*
X165751597Y-65455093D01*
X165755834Y-65455741D01*
X165755837Y-65455742D01*
X165969368Y-65488417D01*
X166038475Y-65498992D01*
X166186275Y-65501314D01*
X166324366Y-65503483D01*
X166324372Y-65503483D01*
X166328657Y-65503550D01*
X166616773Y-65468684D01*
X166897491Y-65395039D01*
X167165618Y-65283978D01*
X167335369Y-65184783D01*
X167412487Y-65139719D01*
X167412488Y-65139718D01*
X167416190Y-65137555D01*
X167644573Y-64958480D01*
X167703867Y-64897294D01*
X167793898Y-64804388D01*
X167846539Y-64750067D01*
X168018352Y-64516173D01*
X168078222Y-64405906D01*
X168154782Y-64264900D01*
X168154783Y-64264898D01*
X168156832Y-64261124D01*
X168259416Y-63989642D01*
X168324207Y-63706749D01*
X168324857Y-63699472D01*
X168349786Y-63420145D01*
X168350006Y-63417680D01*
X168350038Y-63414680D01*
X168350448Y-63375484D01*
X168350474Y-63373000D01*
X168350305Y-63370520D01*
X168331027Y-63087731D01*
X168331026Y-63087725D01*
X168330735Y-63083454D01*
X168271882Y-62799267D01*
X168175006Y-62525695D01*
X168041897Y-62267803D01*
X167875021Y-62030361D01*
X167856066Y-62009963D01*
X167680384Y-61820907D01*
X167680381Y-61820905D01*
X167677463Y-61817764D01*
X167452881Y-61633946D01*
X167240601Y-61503861D01*
X167209092Y-61484552D01*
X167209091Y-61484552D01*
X167205430Y-61482308D01*
X167194660Y-61477580D01*
X167017375Y-61399757D01*
X166939689Y-61365655D01*
X166660574Y-61286148D01*
X166373252Y-61245255D01*
X166220879Y-61244457D01*
X166087324Y-61243758D01*
X166087318Y-61243758D01*
X166083038Y-61243736D01*
X166078794Y-61244295D01*
X166078790Y-61244295D01*
X165987931Y-61256257D01*
X165795303Y-61281617D01*
X165791163Y-61282750D01*
X165791161Y-61282750D01*
X165520179Y-61356883D01*
X165515372Y-61358198D01*
X165248423Y-61472061D01*
X165244742Y-61474264D01*
X165003079Y-61618896D01*
X165003075Y-61618899D01*
X164999397Y-61621100D01*
X164772903Y-61802556D01*
X164769959Y-61805658D01*
X164769955Y-61805662D01*
X164591216Y-61994013D01*
X164573130Y-62013072D01*
X164403776Y-62248754D01*
X164267975Y-62505238D01*
X164266503Y-62509261D01*
X164266501Y-62509265D01*
X164197727Y-62697197D01*
X164168238Y-62777780D01*
X164106413Y-63061336D01*
X164083643Y-63350659D01*
X160528500Y-63350659D01*
X160528500Y-62501843D01*
X160548502Y-62433722D01*
X160565405Y-62412748D01*
X164695304Y-58282849D01*
X164701322Y-58277212D01*
X164717303Y-58263197D01*
X164750019Y-58234506D01*
X164804798Y-58165018D01*
X164806876Y-58162453D01*
X164859734Y-58098900D01*
X164859738Y-58098895D01*
X164863426Y-58094460D01*
X164866245Y-58089426D01*
X164868314Y-58086416D01*
X164874508Y-58077146D01*
X164876551Y-58074001D01*
X164880128Y-58069463D01*
X164886809Y-58056766D01*
X164921312Y-57991184D01*
X164922887Y-57988284D01*
X164932840Y-57970513D01*
X164966115Y-57911096D01*
X164967972Y-57905624D01*
X164969486Y-57902224D01*
X164973873Y-57892013D01*
X164975295Y-57888579D01*
X164977982Y-57883473D01*
X165004212Y-57799001D01*
X165005231Y-57795865D01*
X165031813Y-57717555D01*
X165033669Y-57712088D01*
X165034498Y-57706375D01*
X165035341Y-57702862D01*
X165037833Y-57691849D01*
X165038591Y-57688282D01*
X165040304Y-57682766D01*
X165050706Y-57594882D01*
X165051134Y-57591631D01*
X165055750Y-57559797D01*
X165063825Y-57504103D01*
X165060597Y-57421946D01*
X165060500Y-57416999D01*
X165060500Y-57289044D01*
X165080502Y-57220923D01*
X165110935Y-57188218D01*
X165165153Y-57147584D01*
X165180261Y-57136261D01*
X165267615Y-57019705D01*
X165318745Y-56883316D01*
X165325500Y-56821134D01*
X165325500Y-54924866D01*
X165318745Y-54862684D01*
X165267615Y-54726295D01*
X165180261Y-54609739D01*
X165063705Y-54522385D01*
X164927316Y-54471255D01*
X164865134Y-54464500D01*
X162968866Y-54464500D01*
X162906684Y-54471255D01*
X162770295Y-54522385D01*
X162763110Y-54527770D01*
X162763108Y-54527771D01*
X162762065Y-54528553D01*
X162760853Y-54529006D01*
X162755240Y-54532079D01*
X162754796Y-54531269D01*
X162695558Y-54553401D01*
X162626176Y-54538348D01*
X162575946Y-54488173D01*
X162560500Y-54427727D01*
X162560500Y-51980882D01*
X162580502Y-51912761D01*
X162634158Y-51866268D01*
X162704432Y-51856164D01*
X162752335Y-51873450D01*
X162797726Y-51901266D01*
X162806530Y-51905752D01*
X163038492Y-52001834D01*
X163047877Y-52004883D01*
X163292017Y-52063496D01*
X163301764Y-52065039D01*
X163489399Y-52079807D01*
X163494325Y-52080000D01*
X163684885Y-52080000D01*
X163700124Y-52075525D01*
X163701329Y-52074135D01*
X163703000Y-52066452D01*
X163703000Y-52061885D01*
X164211000Y-52061885D01*
X164215475Y-52077124D01*
X164216865Y-52078329D01*
X164224548Y-52080000D01*
X164419675Y-52080000D01*
X164424601Y-52079807D01*
X164612236Y-52065039D01*
X164621983Y-52063496D01*
X164866123Y-52004883D01*
X164875508Y-52001834D01*
X165107470Y-51905752D01*
X165116264Y-51901271D01*
X165330348Y-51770080D01*
X165338321Y-51764288D01*
X165529252Y-51601216D01*
X165536216Y-51594252D01*
X165699288Y-51403321D01*
X165705080Y-51395348D01*
X165836271Y-51181264D01*
X165840752Y-51172470D01*
X165936834Y-50940508D01*
X165939883Y-50931123D01*
X165997820Y-50689798D01*
X165995546Y-50678970D01*
X165984082Y-50676000D01*
X164229115Y-50676000D01*
X164213876Y-50680475D01*
X164212671Y-50681865D01*
X164211000Y-50689548D01*
X164211000Y-52061885D01*
X163703000Y-52061885D01*
X163703000Y-50294000D01*
X163723002Y-50225879D01*
X163776658Y-50179386D01*
X163829000Y-50168000D01*
X165982022Y-50168000D01*
X165996815Y-50163656D01*
X165998203Y-50155800D01*
X165939883Y-49912877D01*
X165936834Y-49903492D01*
X165840752Y-49671530D01*
X165836271Y-49662736D01*
X165705080Y-49448652D01*
X165699288Y-49440679D01*
X165536216Y-49249748D01*
X165529252Y-49242784D01*
X165338321Y-49079712D01*
X165337840Y-49079363D01*
X165337702Y-49079183D01*
X165334562Y-49076502D01*
X165335125Y-49075842D01*
X165294486Y-49023140D01*
X165288412Y-48952404D01*
X165321545Y-48889613D01*
X165340443Y-48873651D01*
X165346985Y-48869146D01*
X165346986Y-48869145D01*
X165351744Y-48865869D01*
X165368991Y-48848592D01*
X165498089Y-48719270D01*
X165498093Y-48719265D01*
X165502168Y-48715183D01*
X165622613Y-48539607D01*
X165709044Y-48345021D01*
X165758568Y-48137943D01*
X165765500Y-48041237D01*
X165765499Y-46602764D01*
X165764025Y-46582613D01*
X165758653Y-46509182D01*
X165758652Y-46509178D01*
X165758277Y-46504047D01*
X165708391Y-46297056D01*
X165621620Y-46102622D01*
X165580665Y-46043143D01*
X165504144Y-45932012D01*
X165504143Y-45932011D01*
X165500869Y-45927256D01*
X165414335Y-45840872D01*
X165354270Y-45780911D01*
X165354265Y-45780907D01*
X165350183Y-45776832D01*
X165174607Y-45656387D01*
X165074656Y-45611991D01*
X164985299Y-45572300D01*
X164985295Y-45572299D01*
X164980021Y-45569956D01*
X164942753Y-45561043D01*
X164777941Y-45521627D01*
X164777937Y-45521626D01*
X164772943Y-45520432D01*
X164736715Y-45517835D01*
X164678487Y-45513661D01*
X164678479Y-45513661D01*
X164676237Y-45513500D01*
X163963457Y-45513500D01*
X163237764Y-45513501D01*
X163235471Y-45513669D01*
X163235464Y-45513669D01*
X163144182Y-45520347D01*
X163144178Y-45520348D01*
X163139047Y-45520723D01*
X162932056Y-45570609D01*
X162737848Y-45657279D01*
X162667491Y-45666775D01*
X162603167Y-45636724D01*
X162565301Y-45576669D01*
X162560500Y-45542217D01*
X162560500Y-42087843D01*
X162580502Y-42019722D01*
X162597405Y-41998748D01*
X163728748Y-40867405D01*
X163791060Y-40833379D01*
X163817843Y-40830500D01*
X164637737Y-40830499D01*
X164676236Y-40830499D01*
X164678529Y-40830331D01*
X164678536Y-40830331D01*
X164769818Y-40823653D01*
X164769822Y-40823652D01*
X164774953Y-40823277D01*
X164981944Y-40773391D01*
X165176378Y-40686620D01*
X165206028Y-40666204D01*
X165346988Y-40569144D01*
X165346989Y-40569143D01*
X165351744Y-40565869D01*
X165371968Y-40545610D01*
X165498089Y-40419270D01*
X165498093Y-40419265D01*
X165502168Y-40415183D01*
X165622613Y-40239607D01*
X165709044Y-40045021D01*
X165720163Y-39998530D01*
X165757373Y-39842941D01*
X165757374Y-39842937D01*
X165758568Y-39837943D01*
X165761165Y-39801715D01*
X165765339Y-39743487D01*
X165765339Y-39743479D01*
X165765500Y-39741237D01*
X165765499Y-38302764D01*
X165758277Y-38204047D01*
X165708391Y-37997056D01*
X165621620Y-37802622D01*
X165500869Y-37627256D01*
X165496781Y-37623175D01*
X165354270Y-37480911D01*
X165354265Y-37480907D01*
X165350183Y-37476832D01*
X165174607Y-37356387D01*
X165077314Y-37313171D01*
X164985299Y-37272300D01*
X164985295Y-37272299D01*
X164980021Y-37269956D01*
X164942753Y-37261043D01*
X164777941Y-37221627D01*
X164777937Y-37221626D01*
X164772943Y-37220432D01*
X164736715Y-37217835D01*
X164678487Y-37213661D01*
X164678479Y-37213661D01*
X164676237Y-37213500D01*
X163963457Y-37213500D01*
X163237764Y-37213501D01*
X163235471Y-37213669D01*
X163235464Y-37213669D01*
X163144182Y-37220347D01*
X163144178Y-37220348D01*
X163139047Y-37220723D01*
X162932056Y-37270609D01*
X162737622Y-37357380D01*
X162732868Y-37360653D01*
X162732867Y-37360654D01*
X162568886Y-37473566D01*
X162562256Y-37478131D01*
X162558176Y-37482218D01*
X162558175Y-37482219D01*
X162415911Y-37624730D01*
X162415907Y-37624735D01*
X162411832Y-37628817D01*
X162291387Y-37804393D01*
X162204956Y-37998979D01*
X162155432Y-38206057D01*
X162148500Y-38302763D01*
X162148500Y-38305026D01*
X162148501Y-39161156D01*
X162128499Y-39229277D01*
X162111596Y-39250251D01*
X160638696Y-40723151D01*
X160632678Y-40728788D01*
X160583981Y-40771494D01*
X160580406Y-40776029D01*
X160580405Y-40776030D01*
X160529202Y-40840982D01*
X160527124Y-40843547D01*
X160474266Y-40907100D01*
X160474262Y-40907105D01*
X160470574Y-40911540D01*
X160467755Y-40916574D01*
X160465686Y-40919584D01*
X160459492Y-40928854D01*
X160457449Y-40931999D01*
X160453872Y-40936537D01*
X160451184Y-40941645D01*
X160451182Y-40941649D01*
X160412688Y-41014816D01*
X160411118Y-41017706D01*
X160367885Y-41094904D01*
X160366028Y-41100376D01*
X160364514Y-41103776D01*
X160360127Y-41113987D01*
X160358705Y-41117421D01*
X160356018Y-41122527D01*
X160354306Y-41128041D01*
X160354305Y-41128043D01*
X160329788Y-41206999D01*
X160328769Y-41210135D01*
X160324825Y-41221754D01*
X160300331Y-41293912D01*
X160299502Y-41299625D01*
X160298659Y-41303138D01*
X160296167Y-41314151D01*
X160295409Y-41317718D01*
X160293696Y-41323234D01*
X160293018Y-41328962D01*
X160293017Y-41328967D01*
X160283297Y-41411098D01*
X160282870Y-41414340D01*
X160270175Y-41501897D01*
X160270402Y-41507665D01*
X160273403Y-41584054D01*
X160273500Y-41589001D01*
X160273500Y-54974522D01*
X160253498Y-55042643D01*
X160199842Y-55089136D01*
X160129568Y-55099240D01*
X160085719Y-55079295D01*
X160077157Y-55078090D01*
X160065973Y-55083238D01*
X159289021Y-55860189D01*
X159281408Y-55874132D01*
X159281539Y-55875966D01*
X159285790Y-55882580D01*
X160063307Y-56660096D01*
X160075313Y-56666652D01*
X160084244Y-56659829D01*
X160150519Y-56634370D01*
X160220037Y-56648783D01*
X160268165Y-56694117D01*
X160273800Y-56703311D01*
X160276501Y-56707719D01*
X160428147Y-56882784D01*
X160547204Y-56981627D01*
X160598755Y-57024425D01*
X160606349Y-57030730D01*
X160806322Y-57147584D01*
X160811147Y-57149426D01*
X160811148Y-57149427D01*
X160885665Y-57177883D01*
X161022694Y-57230209D01*
X161027760Y-57231240D01*
X161027761Y-57231240D01*
X161080846Y-57242040D01*
X161249656Y-57276385D01*
X161380324Y-57281176D01*
X161475949Y-57284683D01*
X161475953Y-57284683D01*
X161481113Y-57284872D01*
X161486233Y-57284216D01*
X161486235Y-57284216D01*
X161560166Y-57274745D01*
X161710847Y-57255442D01*
X161715795Y-57253957D01*
X161715802Y-57253956D01*
X161927747Y-57190369D01*
X161932690Y-57188886D01*
X161938814Y-57185886D01*
X162136049Y-57089262D01*
X162136052Y-57089260D01*
X162140684Y-57086991D01*
X162329243Y-56952494D01*
X162332900Y-56948850D01*
X162345189Y-56936604D01*
X162407561Y-56902689D01*
X162478368Y-56907878D01*
X162535129Y-56950525D01*
X162552110Y-56981627D01*
X162566385Y-57019705D01*
X162571771Y-57026891D01*
X162576079Y-57034760D01*
X162573564Y-57036137D01*
X162593302Y-57088986D01*
X162578241Y-57158367D01*
X162556722Y-57187125D01*
X158606696Y-61137151D01*
X158600678Y-61142788D01*
X158551981Y-61185494D01*
X158548406Y-61190029D01*
X158548405Y-61190030D01*
X158497202Y-61254982D01*
X158495124Y-61257547D01*
X158442266Y-61321100D01*
X158442262Y-61321105D01*
X158438574Y-61325540D01*
X158435755Y-61330574D01*
X158433686Y-61333584D01*
X158427492Y-61342854D01*
X158425449Y-61345999D01*
X158421872Y-61350537D01*
X158419184Y-61355645D01*
X158419182Y-61355649D01*
X158380688Y-61428816D01*
X158379113Y-61431716D01*
X158355285Y-61474264D01*
X158335885Y-61508904D01*
X158334028Y-61514376D01*
X158332514Y-61517776D01*
X158328127Y-61527987D01*
X158326705Y-61531421D01*
X158324018Y-61536527D01*
X158322306Y-61542041D01*
X158322305Y-61542043D01*
X158297788Y-61620999D01*
X158296769Y-61624135D01*
X158292517Y-61636662D01*
X158268331Y-61707912D01*
X158267502Y-61713625D01*
X158266659Y-61717138D01*
X158264164Y-61728163D01*
X158263408Y-61731718D01*
X158261699Y-61737225D01*
X158260792Y-61736943D01*
X158229550Y-61794816D01*
X158167402Y-61829140D01*
X158096563Y-61824414D01*
X158060223Y-61803653D01*
X157943250Y-61707912D01*
X157852881Y-61633946D01*
X157640601Y-61503861D01*
X157609092Y-61484552D01*
X157609091Y-61484552D01*
X157605430Y-61482308D01*
X157594660Y-61477580D01*
X157417375Y-61399757D01*
X157339689Y-61365655D01*
X157060574Y-61286148D01*
X156773252Y-61245255D01*
X156620879Y-61244457D01*
X156487324Y-61243758D01*
X156487318Y-61243758D01*
X156483038Y-61243736D01*
X156478794Y-61244295D01*
X156478790Y-61244295D01*
X156387931Y-61256257D01*
X156195303Y-61281617D01*
X156191163Y-61282750D01*
X156191161Y-61282750D01*
X155920179Y-61356883D01*
X155915372Y-61358198D01*
X155648423Y-61472061D01*
X155644742Y-61474264D01*
X155403079Y-61618896D01*
X155403075Y-61618899D01*
X155399397Y-61621100D01*
X155172903Y-61802556D01*
X155169959Y-61805658D01*
X155169955Y-61805662D01*
X154991216Y-61994013D01*
X154973130Y-62013072D01*
X154803776Y-62248754D01*
X154667975Y-62505238D01*
X154666503Y-62509261D01*
X154666501Y-62509265D01*
X154597727Y-62697197D01*
X154568238Y-62777780D01*
X154506413Y-63061336D01*
X154483643Y-63350659D01*
X154500349Y-63640395D01*
X154501174Y-63644600D01*
X154501175Y-63644608D01*
X154511939Y-63699472D01*
X154556222Y-63925184D01*
X154557609Y-63929234D01*
X154557610Y-63929239D01*
X154648840Y-64195698D01*
X154650229Y-64199754D01*
X154652156Y-64203585D01*
X154742128Y-64382475D01*
X154780629Y-64459027D01*
X154820217Y-64516628D01*
X154931503Y-64678550D01*
X154945010Y-64698203D01*
X155140331Y-64912857D01*
X155143620Y-64915607D01*
X155359683Y-65096265D01*
X155359688Y-65096269D01*
X155362975Y-65099017D01*
X155455732Y-65157203D01*
X155605185Y-65250955D01*
X155605189Y-65250957D01*
X155608825Y-65253238D01*
X155612735Y-65255003D01*
X155612736Y-65255004D01*
X155869419Y-65370901D01*
X155869423Y-65370903D01*
X155873331Y-65372667D01*
X155933193Y-65390399D01*
X156147484Y-65453875D01*
X156147488Y-65453876D01*
X156151597Y-65455093D01*
X156155834Y-65455741D01*
X156155837Y-65455742D01*
X156369368Y-65488417D01*
X156438475Y-65498992D01*
X156586275Y-65501314D01*
X156724366Y-65503483D01*
X156724372Y-65503483D01*
X156728657Y-65503550D01*
X157016773Y-65468684D01*
X157297491Y-65395039D01*
X157565618Y-65283978D01*
X157735369Y-65184783D01*
X157812487Y-65139719D01*
X157812488Y-65139718D01*
X157816190Y-65137555D01*
X157983358Y-65006479D01*
X158037754Y-64963827D01*
X158103702Y-64937535D01*
X158173397Y-64951070D01*
X158224709Y-65000137D01*
X158241500Y-65062981D01*
X158241500Y-71689537D01*
X158221498Y-71757658D01*
X158204595Y-71778632D01*
X158034300Y-71948927D01*
X157977816Y-71981539D01*
X157946598Y-71989904D01*
X157919757Y-71997096D01*
X157856736Y-72026483D01*
X157717238Y-72091531D01*
X157717233Y-72091534D01*
X157712251Y-72093857D01*
X157671605Y-72122318D01*
X157529211Y-72222023D01*
X157529208Y-72222025D01*
X157524700Y-72225182D01*
X157362802Y-72387080D01*
X157231477Y-72574631D01*
X157229154Y-72579613D01*
X157229151Y-72579618D01*
X157149514Y-72750402D01*
X157134716Y-72782137D01*
X157133294Y-72787445D01*
X157133293Y-72787447D01*
X157083147Y-72974592D01*
X157075457Y-73003293D01*
X157055502Y-73231380D01*
X157075457Y-73459467D01*
X157076881Y-73464780D01*
X157076881Y-73464782D01*
X157126877Y-73651366D01*
X157134716Y-73680623D01*
X157137039Y-73685604D01*
X157137039Y-73685605D01*
X157229151Y-73883142D01*
X157229154Y-73883147D01*
X157231477Y-73888129D01*
X157362802Y-74075680D01*
X157508502Y-74221380D01*
X157542528Y-74283692D01*
X157537463Y-74354507D01*
X157494916Y-74411343D01*
X157458263Y-74428512D01*
X157458684Y-74429635D01*
X157322295Y-74480765D01*
X157205739Y-74568119D01*
X157118385Y-74684675D01*
X157067255Y-74821064D01*
X157060500Y-74883246D01*
X157060500Y-75370537D01*
X157040498Y-75438658D01*
X157023595Y-75459632D01*
X152002632Y-80480595D01*
X151940320Y-80514621D01*
X151913537Y-80517500D01*
X149546353Y-80517500D01*
X149478232Y-80497498D01*
X149431739Y-80443842D01*
X149421635Y-80373568D01*
X149451129Y-80308988D01*
X149510855Y-80270604D01*
X149519662Y-80268500D01*
X149523280Y-80268168D01*
X149528844Y-80266599D01*
X149532426Y-80265935D01*
X149543416Y-80263749D01*
X149547029Y-80262981D01*
X149552766Y-80262302D01*
X149637277Y-80236061D01*
X149640374Y-80235145D01*
X149725550Y-80211122D01*
X149730738Y-80208564D01*
X149734189Y-80207239D01*
X149744567Y-80203098D01*
X149747954Y-80201695D01*
X149753474Y-80199981D01*
X149831747Y-80158800D01*
X149834683Y-80157304D01*
X149914038Y-80118170D01*
X149918669Y-80114712D01*
X149921872Y-80112749D01*
X149931259Y-80106826D01*
X149934352Y-80104817D01*
X149939464Y-80102128D01*
X150008957Y-80047343D01*
X150011527Y-80045372D01*
X150077802Y-79995883D01*
X150077809Y-79995876D01*
X150082430Y-79992426D01*
X150138264Y-79932025D01*
X150141693Y-79928460D01*
X150448700Y-79621453D01*
X150505184Y-79588841D01*
X150557929Y-79574708D01*
X150557930Y-79574708D01*
X150563243Y-79573284D01*
X150688153Y-79515038D01*
X150765762Y-79478849D01*
X150765767Y-79478846D01*
X150770749Y-79476523D01*
X150883895Y-79397297D01*
X150953789Y-79348357D01*
X150953792Y-79348355D01*
X150958300Y-79345198D01*
X151120198Y-79183300D01*
X151251523Y-78995749D01*
X151253846Y-78990767D01*
X151253849Y-78990762D01*
X151345961Y-78793225D01*
X151345961Y-78793224D01*
X151348284Y-78788243D01*
X151350534Y-78779848D01*
X151406119Y-78572402D01*
X151406119Y-78572400D01*
X151407543Y-78567087D01*
X151427498Y-78339000D01*
X151407543Y-78110913D01*
X151348284Y-77889757D01*
X151291158Y-77767248D01*
X151280497Y-77697058D01*
X151291157Y-77660754D01*
X151348284Y-77538243D01*
X151407543Y-77317087D01*
X151427498Y-77089000D01*
X151407543Y-76860913D01*
X151348284Y-76639757D01*
X151345961Y-76634775D01*
X151253849Y-76437238D01*
X151253846Y-76437233D01*
X151251523Y-76432251D01*
X151120198Y-76244700D01*
X150958300Y-76082802D01*
X150953792Y-76079645D01*
X150953789Y-76079643D01*
X150809079Y-75978316D01*
X150770749Y-75951477D01*
X150765765Y-75949153D01*
X150763472Y-75947829D01*
X150714479Y-75896447D01*
X150701043Y-75826733D01*
X150727429Y-75760822D01*
X150763472Y-75729591D01*
X150775002Y-75722934D01*
X150827048Y-75686491D01*
X150835424Y-75676012D01*
X150828356Y-75662566D01*
X149843885Y-74678095D01*
X149809859Y-74615783D01*
X149814924Y-74544968D01*
X149843885Y-74499905D01*
X150024905Y-74318885D01*
X150087217Y-74284859D01*
X150158032Y-74289924D01*
X150203095Y-74318885D01*
X151188287Y-75304077D01*
X151200062Y-75310507D01*
X151212077Y-75301211D01*
X151247931Y-75250006D01*
X151253414Y-75240511D01*
X151345490Y-75043053D01*
X151349236Y-75032761D01*
X151405625Y-74822312D01*
X151407528Y-74811519D01*
X151426517Y-74594475D01*
X151426517Y-74583525D01*
X151407528Y-74366481D01*
X151405625Y-74355688D01*
X151349236Y-74145239D01*
X151345490Y-74134947D01*
X151290607Y-74017250D01*
X151279946Y-73947058D01*
X151290607Y-73910750D01*
X151345490Y-73793053D01*
X151349236Y-73782761D01*
X151405625Y-73572312D01*
X151407528Y-73561519D01*
X151426517Y-73344475D01*
X151426517Y-73333525D01*
X151407528Y-73116481D01*
X151405625Y-73105688D01*
X151349236Y-72895239D01*
X151345490Y-72884947D01*
X151253414Y-72687489D01*
X151247931Y-72677994D01*
X151211491Y-72625952D01*
X151201012Y-72617576D01*
X151187566Y-72624644D01*
X150203095Y-73609115D01*
X150140783Y-73643141D01*
X150069968Y-73638076D01*
X150024905Y-73609115D01*
X149843885Y-73428095D01*
X149809859Y-73365783D01*
X149814924Y-73294968D01*
X149843885Y-73249905D01*
X150829077Y-72264713D01*
X150835507Y-72252938D01*
X150826211Y-72240923D01*
X150775006Y-72205069D01*
X150765511Y-72199586D01*
X150568053Y-72107510D01*
X150557761Y-72103764D01*
X150347312Y-72047375D01*
X150336519Y-72045472D01*
X150119475Y-72026483D01*
X150108525Y-72026483D01*
X149891481Y-72045472D01*
X149880688Y-72047375D01*
X149670239Y-72103764D01*
X149659947Y-72107510D01*
X149462489Y-72199586D01*
X149452994Y-72205069D01*
X149423771Y-72225531D01*
X149356497Y-72248219D01*
X149287637Y-72230934D01*
X149239053Y-72179165D01*
X149225500Y-72122318D01*
X149225500Y-69613843D01*
X149245502Y-69545722D01*
X149262405Y-69524748D01*
X149945815Y-68841338D01*
X149951833Y-68835701D01*
X149996191Y-68796800D01*
X150000530Y-68792995D01*
X150055304Y-68723516D01*
X150057364Y-68720972D01*
X150110239Y-68657397D01*
X150110246Y-68657387D01*
X150113936Y-68652950D01*
X150116761Y-68647906D01*
X150118862Y-68644848D01*
X150125063Y-68635568D01*
X150127066Y-68632484D01*
X150130639Y-68627952D01*
X150133323Y-68622851D01*
X150133326Y-68622846D01*
X150171830Y-68549660D01*
X150173405Y-68546760D01*
X150213801Y-68474629D01*
X150213802Y-68474627D01*
X150216625Y-68469586D01*
X150218483Y-68464111D01*
X150219992Y-68460722D01*
X150224400Y-68450461D01*
X150225803Y-68447075D01*
X150228493Y-68441962D01*
X150254735Y-68357449D01*
X150255755Y-68354311D01*
X150282323Y-68276045D01*
X150282323Y-68276044D01*
X150284179Y-68270577D01*
X150285008Y-68264862D01*
X150285877Y-68261241D01*
X150288347Y-68250326D01*
X150289103Y-68246768D01*
X150290815Y-68241255D01*
X150301219Y-68153355D01*
X150301642Y-68150143D01*
X150314336Y-68062592D01*
X150311108Y-67980435D01*
X150311011Y-67975488D01*
X150311011Y-62093062D01*
X150916493Y-62093062D01*
X150925789Y-62105077D01*
X150976994Y-62140931D01*
X150986489Y-62146414D01*
X151183947Y-62238490D01*
X151194239Y-62242236D01*
X151404688Y-62298625D01*
X151415481Y-62300528D01*
X151632525Y-62319517D01*
X151643475Y-62319517D01*
X151860519Y-62300528D01*
X151871312Y-62298625D01*
X152081761Y-62242236D01*
X152092053Y-62238490D01*
X152289511Y-62146414D01*
X152299006Y-62140931D01*
X152351048Y-62104491D01*
X152359424Y-62094012D01*
X152352356Y-62080566D01*
X151650812Y-61379022D01*
X151636868Y-61371408D01*
X151635035Y-61371539D01*
X151628420Y-61375790D01*
X150922923Y-62081287D01*
X150916493Y-62093062D01*
X150311011Y-62093062D01*
X150311011Y-61791912D01*
X150331013Y-61723791D01*
X150384669Y-61677298D01*
X150454943Y-61667194D01*
X150519523Y-61696688D01*
X150540223Y-61719640D01*
X150540508Y-61720047D01*
X150550988Y-61728424D01*
X150564434Y-61721356D01*
X151548905Y-60736885D01*
X151611217Y-60702859D01*
X151682032Y-60707924D01*
X151727095Y-60736885D01*
X152712287Y-61722077D01*
X152724062Y-61728507D01*
X152736077Y-61719211D01*
X152771933Y-61668004D01*
X152777414Y-61658511D01*
X152869490Y-61461053D01*
X152873236Y-61450761D01*
X152929625Y-61240312D01*
X152931528Y-61229519D01*
X152950517Y-61012475D01*
X152950517Y-61001525D01*
X152931528Y-60784481D01*
X152929625Y-60773688D01*
X152873236Y-60563239D01*
X152869490Y-60552947D01*
X152814607Y-60435250D01*
X152803946Y-60365058D01*
X152814607Y-60328750D01*
X152869491Y-60211051D01*
X152873236Y-60200761D01*
X152929625Y-59990312D01*
X152931528Y-59979519D01*
X152950517Y-59762475D01*
X152950517Y-59751525D01*
X152931528Y-59534481D01*
X152929625Y-59523688D01*
X152873236Y-59313239D01*
X152869490Y-59302947D01*
X152777414Y-59105489D01*
X152771931Y-59095994D01*
X152735491Y-59043952D01*
X152725012Y-59035576D01*
X152711566Y-59042644D01*
X151727095Y-60027115D01*
X151664783Y-60061141D01*
X151593968Y-60056076D01*
X151548905Y-60027115D01*
X150563713Y-59041923D01*
X150551938Y-59035493D01*
X150532559Y-59050486D01*
X150484766Y-59088688D01*
X150414146Y-59095996D01*
X150350786Y-59063965D01*
X150314802Y-59002763D01*
X150311011Y-58972088D01*
X150311011Y-58042784D01*
X150331013Y-57974663D01*
X150384669Y-57928170D01*
X150454943Y-57918066D01*
X150519523Y-57947560D01*
X150540223Y-57970511D01*
X150560989Y-58000169D01*
X150627013Y-58094460D01*
X150631802Y-58101300D01*
X150793700Y-58263198D01*
X150798208Y-58266355D01*
X150798211Y-58266357D01*
X150821764Y-58282849D01*
X150981251Y-58394523D01*
X150986235Y-58396847D01*
X150988528Y-58398171D01*
X151037521Y-58449553D01*
X151050957Y-58519267D01*
X151024571Y-58585178D01*
X150988528Y-58616409D01*
X150976998Y-58623066D01*
X150924952Y-58659509D01*
X150916576Y-58669988D01*
X150923644Y-58683434D01*
X151625188Y-59384978D01*
X151639132Y-59392592D01*
X151640965Y-59392461D01*
X151647580Y-59388210D01*
X152353077Y-58682713D01*
X152359507Y-58670938D01*
X152350211Y-58658923D01*
X152299002Y-58623066D01*
X152287472Y-58616409D01*
X152238479Y-58565027D01*
X152225042Y-58495313D01*
X152251429Y-58429402D01*
X152287472Y-58398171D01*
X152289765Y-58396847D01*
X152294749Y-58394523D01*
X152454236Y-58282849D01*
X152477789Y-58266357D01*
X152477792Y-58266355D01*
X152482300Y-58263198D01*
X152644198Y-58101300D01*
X152648988Y-58094460D01*
X152772366Y-57918257D01*
X152775523Y-57913749D01*
X152777846Y-57908767D01*
X152777849Y-57908762D01*
X152869961Y-57711225D01*
X152869961Y-57711224D01*
X152872284Y-57706243D01*
X152902995Y-57591631D01*
X152930119Y-57490402D01*
X152930119Y-57490400D01*
X152931543Y-57485087D01*
X152951498Y-57257000D01*
X152932024Y-57034406D01*
X158120423Y-57034406D01*
X158125704Y-57041461D01*
X158302080Y-57144527D01*
X158311363Y-57148974D01*
X158518003Y-57227883D01*
X158527901Y-57230759D01*
X158744653Y-57274857D01*
X158754883Y-57276076D01*
X158975914Y-57284182D01*
X158986223Y-57283714D01*
X159205623Y-57255608D01*
X159215688Y-57253468D01*
X159427557Y-57189905D01*
X159437152Y-57186144D01*
X159635778Y-57088838D01*
X159644636Y-57083559D01*
X159702097Y-57042572D01*
X159710497Y-57031874D01*
X159703510Y-57018721D01*
X158929811Y-56245021D01*
X158915868Y-56237408D01*
X158914034Y-56237539D01*
X158907420Y-56241790D01*
X158127180Y-57022031D01*
X158120423Y-57034406D01*
X152932024Y-57034406D01*
X152931543Y-57028913D01*
X152872284Y-56807757D01*
X152815158Y-56685248D01*
X152804497Y-56615058D01*
X152815157Y-56578754D01*
X152872284Y-56456243D01*
X152873706Y-56450938D01*
X152873708Y-56450931D01*
X152887841Y-56398184D01*
X152920453Y-56341700D01*
X153418515Y-55843638D01*
X157504893Y-55843638D01*
X157517627Y-56064468D01*
X157519061Y-56074670D01*
X157567685Y-56290439D01*
X157570773Y-56300292D01*
X157653986Y-56505220D01*
X157658634Y-56514421D01*
X157747097Y-56658781D01*
X157757553Y-56668242D01*
X157766331Y-56664458D01*
X158544979Y-55885811D01*
X158552592Y-55871868D01*
X158552461Y-55870034D01*
X158548210Y-55863420D01*
X157770862Y-55086073D01*
X157759330Y-55079776D01*
X157747048Y-55089399D01*
X157691467Y-55170877D01*
X157686379Y-55179833D01*
X157593252Y-55380459D01*
X157589689Y-55390146D01*
X157530581Y-55603280D01*
X157528650Y-55613400D01*
X157505145Y-55833349D01*
X157504893Y-55843638D01*
X153418515Y-55843638D01*
X154513733Y-54748421D01*
X154548443Y-54713711D01*
X158122508Y-54713711D01*
X158129251Y-54726040D01*
X158904189Y-55500979D01*
X158918132Y-55508592D01*
X158919966Y-55508461D01*
X158926580Y-55504210D01*
X159705994Y-54724795D01*
X159713011Y-54711944D01*
X159705237Y-54701274D01*
X159702902Y-54699430D01*
X159694320Y-54693729D01*
X159500678Y-54586833D01*
X159491272Y-54582606D01*
X159282772Y-54508772D01*
X159272809Y-54506140D01*
X159055047Y-54467350D01*
X159044796Y-54466381D01*
X158823616Y-54463679D01*
X158813332Y-54464399D01*
X158594693Y-54497855D01*
X158584666Y-54500244D01*
X158374426Y-54568961D01*
X158364916Y-54572958D01*
X158168725Y-54675089D01*
X158160007Y-54680578D01*
X158130961Y-54702386D01*
X158122508Y-54713711D01*
X154548443Y-54713711D01*
X156124832Y-53137322D01*
X156130850Y-53131685D01*
X156175200Y-53092791D01*
X156179539Y-53088986D01*
X156220098Y-53037537D01*
X156234305Y-53019516D01*
X156236380Y-53016954D01*
X156289250Y-52953384D01*
X156289251Y-52953383D01*
X156292945Y-52948941D01*
X156295766Y-52943903D01*
X156297866Y-52940848D01*
X156304072Y-52931559D01*
X156306075Y-52928475D01*
X156309648Y-52923943D01*
X156312332Y-52918842D01*
X156312335Y-52918837D01*
X156350839Y-52845651D01*
X156352414Y-52842751D01*
X156353337Y-52841104D01*
X156395634Y-52765577D01*
X156397492Y-52760102D01*
X156399001Y-52756713D01*
X156403409Y-52746452D01*
X156404812Y-52743066D01*
X156407502Y-52737953D01*
X156433744Y-52653440D01*
X156434764Y-52650302D01*
X156461332Y-52572036D01*
X156461332Y-52572035D01*
X156463188Y-52566568D01*
X156464017Y-52560853D01*
X156464886Y-52557232D01*
X156467356Y-52546317D01*
X156468112Y-52542759D01*
X156469824Y-52537246D01*
X156480228Y-52449346D01*
X156480651Y-52446134D01*
X156493345Y-52358583D01*
X156490117Y-52276426D01*
X156490020Y-52271479D01*
X156490020Y-49620423D01*
X156490290Y-49612182D01*
X156494148Y-49553323D01*
X156494526Y-49547557D01*
X156484122Y-49459659D01*
X156483779Y-49456384D01*
X156477794Y-49391249D01*
X156475689Y-49368339D01*
X156474119Y-49362773D01*
X156473434Y-49359077D01*
X156471276Y-49348228D01*
X156470503Y-49344592D01*
X156469824Y-49338853D01*
X156443589Y-49254362D01*
X156442660Y-49251226D01*
X156420213Y-49171636D01*
X156418643Y-49166069D01*
X156416085Y-49160881D01*
X156414760Y-49157430D01*
X156410619Y-49147052D01*
X156409216Y-49143665D01*
X156407502Y-49138145D01*
X156366321Y-49059872D01*
X156364825Y-49056936D01*
X156339682Y-49005952D01*
X156325691Y-48977581D01*
X156322233Y-48972950D01*
X156320270Y-48969747D01*
X156314347Y-48960360D01*
X156312338Y-48957267D01*
X156309649Y-48952155D01*
X156254864Y-48882662D01*
X156252893Y-48880092D01*
X156203404Y-48813817D01*
X156203397Y-48813810D01*
X156199947Y-48809189D01*
X156139546Y-48753355D01*
X156135981Y-48749926D01*
X154753405Y-47367350D01*
X154719379Y-47305038D01*
X154716500Y-47278255D01*
X154716499Y-46605068D01*
X154716499Y-46602764D01*
X154715025Y-46582613D01*
X154709653Y-46509182D01*
X154709652Y-46509178D01*
X154709277Y-46504047D01*
X154659391Y-46297056D01*
X154572620Y-46102622D01*
X154531665Y-46043143D01*
X154455144Y-45932012D01*
X154455143Y-45932011D01*
X154451869Y-45927256D01*
X154365335Y-45840872D01*
X154305270Y-45780911D01*
X154305265Y-45780907D01*
X154301183Y-45776832D01*
X154125607Y-45656387D01*
X154025656Y-45611991D01*
X153936299Y-45572300D01*
X153936295Y-45572299D01*
X153931021Y-45569956D01*
X153893753Y-45561043D01*
X153728941Y-45521627D01*
X153728937Y-45521626D01*
X153723943Y-45520432D01*
X153687715Y-45517835D01*
X153629487Y-45513661D01*
X153629479Y-45513661D01*
X153627237Y-45513500D01*
X152914457Y-45513500D01*
X152188764Y-45513501D01*
X152186471Y-45513669D01*
X152186464Y-45513669D01*
X152095182Y-45520347D01*
X152095178Y-45520348D01*
X152090047Y-45520723D01*
X151883056Y-45570609D01*
X151688622Y-45657380D01*
X151683868Y-45660653D01*
X151683867Y-45660654D01*
X151519886Y-45773566D01*
X151513256Y-45778131D01*
X151509176Y-45782218D01*
X151509175Y-45782219D01*
X151366911Y-45924730D01*
X151366907Y-45924735D01*
X151362832Y-45928817D01*
X151242387Y-46104393D01*
X151240043Y-46109671D01*
X151169044Y-46269514D01*
X151155956Y-46298979D01*
X151154612Y-46304599D01*
X151109477Y-46493326D01*
X151106432Y-46506057D01*
X151099500Y-46602763D01*
X151099501Y-48041236D01*
X151099669Y-48043529D01*
X151099669Y-48043536D01*
X151105658Y-48125390D01*
X151106723Y-48139953D01*
X151156609Y-48346944D01*
X151243380Y-48541378D01*
X151364131Y-48716744D01*
X151368218Y-48720824D01*
X151368219Y-48720825D01*
X151510730Y-48863089D01*
X151510735Y-48863093D01*
X151514817Y-48867168D01*
X151519579Y-48870435D01*
X151519583Y-48870438D01*
X151524233Y-48873628D01*
X151569092Y-48928657D01*
X151577079Y-48999203D01*
X151545658Y-49062868D01*
X151530399Y-49076456D01*
X151530438Y-49076502D01*
X151528230Y-49078388D01*
X151527026Y-49079460D01*
X151526682Y-49079710D01*
X151335748Y-49242784D01*
X151328784Y-49249748D01*
X151165712Y-49440679D01*
X151159920Y-49448652D01*
X151028729Y-49662736D01*
X151024248Y-49671530D01*
X150928166Y-49903492D01*
X150925117Y-49912877D01*
X150867180Y-50154202D01*
X150869454Y-50165030D01*
X150880918Y-50168000D01*
X153036000Y-50168000D01*
X153104121Y-50188002D01*
X153150614Y-50241658D01*
X153162000Y-50294000D01*
X153162000Y-52061885D01*
X153166475Y-52077124D01*
X153167865Y-52078329D01*
X153175548Y-52080000D01*
X153370675Y-52080000D01*
X153375601Y-52079807D01*
X153563236Y-52065039D01*
X153572983Y-52063496D01*
X153653577Y-52044147D01*
X153724485Y-52047695D01*
X153782219Y-52089014D01*
X153808449Y-52154988D01*
X153794846Y-52224669D01*
X153772086Y-52255761D01*
X151303300Y-54724547D01*
X151246816Y-54757159D01*
X151188757Y-54772716D01*
X151102341Y-54813012D01*
X150986238Y-54867151D01*
X150986233Y-54867154D01*
X150981251Y-54869477D01*
X150906999Y-54921469D01*
X150798211Y-54997643D01*
X150798208Y-54997645D01*
X150793700Y-55000802D01*
X150631802Y-55162700D01*
X150628645Y-55167208D01*
X150628643Y-55167211D01*
X150583985Y-55230990D01*
X150562215Y-55262081D01*
X150540224Y-55293487D01*
X150484767Y-55337815D01*
X150414148Y-55345124D01*
X150350787Y-55313093D01*
X150314802Y-55251892D01*
X150311011Y-55221216D01*
X150311011Y-50688200D01*
X150866797Y-50688200D01*
X150925117Y-50931123D01*
X150928166Y-50940508D01*
X151024248Y-51172470D01*
X151028729Y-51181264D01*
X151159920Y-51395348D01*
X151165712Y-51403321D01*
X151328784Y-51594252D01*
X151335748Y-51601216D01*
X151526679Y-51764288D01*
X151534652Y-51770080D01*
X151748736Y-51901271D01*
X151757530Y-51905752D01*
X151989492Y-52001834D01*
X151998877Y-52004883D01*
X152243017Y-52063496D01*
X152252764Y-52065039D01*
X152440399Y-52079807D01*
X152445325Y-52080000D01*
X152635885Y-52080000D01*
X152651124Y-52075525D01*
X152652329Y-52074135D01*
X152654000Y-52066452D01*
X152654000Y-50694115D01*
X152649525Y-50678876D01*
X152648135Y-50677671D01*
X152640452Y-50676000D01*
X150882978Y-50676000D01*
X150868185Y-50680344D01*
X150866797Y-50688200D01*
X150311011Y-50688200D01*
X150311011Y-43288332D01*
X150331013Y-43220211D01*
X150347916Y-43199237D01*
X152679749Y-40867405D01*
X152742061Y-40833379D01*
X152768844Y-40830500D01*
X153588737Y-40830499D01*
X153627236Y-40830499D01*
X153629529Y-40830331D01*
X153629536Y-40830331D01*
X153720818Y-40823653D01*
X153720822Y-40823652D01*
X153725953Y-40823277D01*
X153932944Y-40773391D01*
X154127378Y-40686620D01*
X154157028Y-40666204D01*
X154297988Y-40569144D01*
X154297989Y-40569143D01*
X154302744Y-40565869D01*
X154322968Y-40545610D01*
X154449089Y-40419270D01*
X154449093Y-40419265D01*
X154453168Y-40415183D01*
X154573613Y-40239607D01*
X154660044Y-40045021D01*
X154671163Y-39998530D01*
X154708373Y-39842941D01*
X154708374Y-39842937D01*
X154709568Y-39837943D01*
X154712165Y-39801715D01*
X154716339Y-39743487D01*
X154716339Y-39743479D01*
X154716500Y-39741237D01*
X154716499Y-38302764D01*
X154709277Y-38204047D01*
X154659391Y-37997056D01*
X154572620Y-37802622D01*
X154451869Y-37627256D01*
X154447781Y-37623175D01*
X154305270Y-37480911D01*
X154305265Y-37480907D01*
X154301183Y-37476832D01*
X154125607Y-37356387D01*
X154028314Y-37313171D01*
X153936299Y-37272300D01*
X153936295Y-37272299D01*
X153931021Y-37269956D01*
X153893753Y-37261043D01*
X153728941Y-37221627D01*
X153728937Y-37221626D01*
X153723943Y-37220432D01*
X153687715Y-37217835D01*
X153629487Y-37213661D01*
X153629479Y-37213661D01*
X153627237Y-37213500D01*
X152914457Y-37213500D01*
X152188764Y-37213501D01*
X152186471Y-37213669D01*
X152186464Y-37213669D01*
X152095182Y-37220347D01*
X152095178Y-37220348D01*
X152090047Y-37220723D01*
X151883056Y-37270609D01*
X151688622Y-37357380D01*
X151683868Y-37360653D01*
X151683867Y-37360654D01*
X151519886Y-37473566D01*
X151513256Y-37478131D01*
X151509176Y-37482218D01*
X151509175Y-37482219D01*
X151366911Y-37624730D01*
X151366907Y-37624735D01*
X151362832Y-37628817D01*
X151242387Y-37804393D01*
X151155956Y-37998979D01*
X151106432Y-38206057D01*
X151099500Y-38302763D01*
X151099500Y-38305026D01*
X151099501Y-39161156D01*
X151079499Y-39229277D01*
X151062596Y-39250251D01*
X148389207Y-41923640D01*
X148383189Y-41929277D01*
X148334492Y-41971983D01*
X148330917Y-41976518D01*
X148330916Y-41976519D01*
X148279713Y-42041471D01*
X148277635Y-42044036D01*
X148224777Y-42107589D01*
X148224773Y-42107594D01*
X148221085Y-42112029D01*
X148218266Y-42117063D01*
X148216197Y-42120073D01*
X148210003Y-42129343D01*
X148207960Y-42132488D01*
X148204383Y-42137026D01*
X148201695Y-42142134D01*
X148201693Y-42142138D01*
X148163199Y-42215305D01*
X148161624Y-42218205D01*
X148121336Y-42290144D01*
X148118396Y-42295393D01*
X148116539Y-42300865D01*
X148115025Y-42304265D01*
X148110638Y-42314476D01*
X148109216Y-42317910D01*
X148106529Y-42323016D01*
X148104817Y-42328530D01*
X148104816Y-42328532D01*
X148080299Y-42407488D01*
X148079280Y-42410624D01*
X148072967Y-42429222D01*
X148050842Y-42494401D01*
X148050013Y-42500114D01*
X148049170Y-42503627D01*
X148046678Y-42514640D01*
X148045920Y-42518207D01*
X148044207Y-42523723D01*
X148043529Y-42529451D01*
X148043528Y-42529456D01*
X148039434Y-42564051D01*
X148034169Y-42608540D01*
X148033808Y-42611587D01*
X148033381Y-42614829D01*
X148020686Y-42702386D01*
X148021743Y-42729277D01*
X148023914Y-42784543D01*
X148024011Y-42789490D01*
X148024011Y-61488087D01*
X148004009Y-61556208D01*
X147950353Y-61602701D01*
X147880079Y-61612805D01*
X147832176Y-61595520D01*
X147651092Y-61484552D01*
X147651091Y-61484552D01*
X147647430Y-61482308D01*
X147636660Y-61477580D01*
X147459375Y-61399757D01*
X147381689Y-61365655D01*
X147102574Y-61286148D01*
X146815252Y-61245255D01*
X146662879Y-61244457D01*
X146529324Y-61243758D01*
X146529318Y-61243758D01*
X146525038Y-61243736D01*
X146520794Y-61244295D01*
X146520790Y-61244295D01*
X146429931Y-61256257D01*
X146237303Y-61281617D01*
X146233163Y-61282750D01*
X146233161Y-61282750D01*
X145962179Y-61356883D01*
X145957372Y-61358198D01*
X145690423Y-61472061D01*
X145484694Y-61595187D01*
X145415971Y-61613007D01*
X145348523Y-61590843D01*
X145303765Y-61535732D01*
X145293989Y-61487071D01*
X145293989Y-57390312D01*
X145313991Y-57322191D01*
X145367647Y-57275698D01*
X145375759Y-57272330D01*
X145497297Y-57226767D01*
X145505705Y-57223615D01*
X145622261Y-57136261D01*
X145709615Y-57019705D01*
X145760745Y-56883316D01*
X145767500Y-56821134D01*
X145767500Y-54924866D01*
X145760745Y-54862684D01*
X145709615Y-54726295D01*
X145622261Y-54609739D01*
X145505705Y-54522385D01*
X145369316Y-54471255D01*
X145307134Y-54464500D01*
X143410866Y-54464500D01*
X143348684Y-54471255D01*
X143212295Y-54522385D01*
X143095739Y-54609739D01*
X143084894Y-54624209D01*
X143043782Y-54679065D01*
X142986923Y-54721580D01*
X142942956Y-54729500D01*
X142727537Y-54729500D01*
X142659416Y-54709498D01*
X142649447Y-54702384D01*
X142641123Y-54695810D01*
X142636607Y-54693317D01*
X142636604Y-54693315D01*
X142442879Y-54586373D01*
X142442875Y-54586371D01*
X142438355Y-54583876D01*
X142433486Y-54582152D01*
X142433482Y-54582150D01*
X142224903Y-54508288D01*
X142224899Y-54508287D01*
X142220028Y-54506562D01*
X142214935Y-54505655D01*
X142214932Y-54505654D01*
X141997095Y-54466851D01*
X141997089Y-54466850D01*
X141992006Y-54465945D01*
X141919096Y-54465054D01*
X141765581Y-54463179D01*
X141765579Y-54463179D01*
X141760411Y-54463116D01*
X141531464Y-54498150D01*
X141311314Y-54570106D01*
X141306726Y-54572494D01*
X141306722Y-54572496D01*
X141111635Y-54674052D01*
X141105872Y-54677052D01*
X141101739Y-54680155D01*
X141101736Y-54680157D01*
X140975363Y-54775041D01*
X140920655Y-54816117D01*
X140760639Y-54983564D01*
X140732587Y-55024687D01*
X140677677Y-55069688D01*
X140607152Y-55077859D01*
X140543405Y-55046605D01*
X140506675Y-54985848D01*
X140502500Y-54953681D01*
X140502500Y-52005394D01*
X140522502Y-51937273D01*
X140576158Y-51890780D01*
X140646432Y-51880676D01*
X140694337Y-51897963D01*
X140699729Y-51901268D01*
X140708530Y-51905752D01*
X140940492Y-52001834D01*
X140949877Y-52004883D01*
X141194017Y-52063496D01*
X141203764Y-52065039D01*
X141391399Y-52079807D01*
X141396325Y-52080000D01*
X141586885Y-52080000D01*
X141602124Y-52075525D01*
X141603329Y-52074135D01*
X141605000Y-52066452D01*
X141605000Y-52061885D01*
X142113000Y-52061885D01*
X142117475Y-52077124D01*
X142118865Y-52078329D01*
X142126548Y-52080000D01*
X142321675Y-52080000D01*
X142326601Y-52079807D01*
X142514236Y-52065039D01*
X142523983Y-52063496D01*
X142768123Y-52004883D01*
X142777508Y-52001834D01*
X143009470Y-51905752D01*
X143018264Y-51901271D01*
X143232348Y-51770080D01*
X143240321Y-51764288D01*
X143431252Y-51601216D01*
X143438216Y-51594252D01*
X143601288Y-51403321D01*
X143607080Y-51395348D01*
X143738271Y-51181264D01*
X143742752Y-51172470D01*
X143838834Y-50940508D01*
X143841883Y-50931123D01*
X143899820Y-50689798D01*
X143897546Y-50678970D01*
X143886082Y-50676000D01*
X142131115Y-50676000D01*
X142115876Y-50680475D01*
X142114671Y-50681865D01*
X142113000Y-50689548D01*
X142113000Y-52061885D01*
X141605000Y-52061885D01*
X141605000Y-50294000D01*
X141625002Y-50225879D01*
X141678658Y-50179386D01*
X141731000Y-50168000D01*
X143884022Y-50168000D01*
X143898815Y-50163656D01*
X143900203Y-50155800D01*
X143841883Y-49912877D01*
X143838834Y-49903492D01*
X143742752Y-49671530D01*
X143738271Y-49662736D01*
X143607080Y-49448652D01*
X143601288Y-49440679D01*
X143438216Y-49249748D01*
X143431252Y-49242784D01*
X143240321Y-49079712D01*
X143239840Y-49079363D01*
X143239702Y-49079183D01*
X143236562Y-49076502D01*
X143237125Y-49075842D01*
X143196486Y-49023140D01*
X143190412Y-48952404D01*
X143223545Y-48889613D01*
X143242443Y-48873651D01*
X143248985Y-48869146D01*
X143248986Y-48869145D01*
X143253744Y-48865869D01*
X143270991Y-48848592D01*
X143400089Y-48719270D01*
X143400093Y-48719265D01*
X143404168Y-48715183D01*
X143524613Y-48539607D01*
X143611044Y-48345021D01*
X143660568Y-48137943D01*
X143667500Y-48041237D01*
X143667499Y-46602764D01*
X143666025Y-46582613D01*
X143660653Y-46509182D01*
X143660652Y-46509178D01*
X143660277Y-46504047D01*
X143610391Y-46297056D01*
X143523620Y-46102622D01*
X143482665Y-46043143D01*
X143406144Y-45932012D01*
X143406143Y-45932011D01*
X143402869Y-45927256D01*
X143316335Y-45840872D01*
X143256270Y-45780911D01*
X143256265Y-45780907D01*
X143252183Y-45776832D01*
X143076607Y-45656387D01*
X142976656Y-45611991D01*
X142887299Y-45572300D01*
X142887295Y-45572299D01*
X142882021Y-45569956D01*
X142844753Y-45561043D01*
X142679941Y-45521627D01*
X142679937Y-45521626D01*
X142674943Y-45520432D01*
X142638715Y-45517835D01*
X142580487Y-45513661D01*
X142580479Y-45513661D01*
X142578237Y-45513500D01*
X141865457Y-45513500D01*
X141139764Y-45513501D01*
X141137471Y-45513669D01*
X141137464Y-45513669D01*
X141046182Y-45520347D01*
X141046178Y-45520348D01*
X141041047Y-45520723D01*
X140834056Y-45570609D01*
X140639622Y-45657380D01*
X140634868Y-45660653D01*
X140634867Y-45660654D01*
X140470886Y-45773566D01*
X140464256Y-45778131D01*
X140460176Y-45782218D01*
X140460175Y-45782219D01*
X140317911Y-45924730D01*
X140317907Y-45924735D01*
X140313832Y-45928817D01*
X140193387Y-46104393D01*
X140191043Y-46109671D01*
X140120044Y-46269514D01*
X140106956Y-46298979D01*
X140105612Y-46304599D01*
X140060477Y-46493326D01*
X140057432Y-46506057D01*
X140050500Y-46602763D01*
X140050501Y-46953258D01*
X140050501Y-47278254D01*
X140030499Y-47346375D01*
X140013596Y-47367349D01*
X138580696Y-48800249D01*
X138574678Y-48805886D01*
X138525981Y-48848592D01*
X138522406Y-48853127D01*
X138522405Y-48853128D01*
X138471202Y-48918080D01*
X138469124Y-48920645D01*
X138416266Y-48984198D01*
X138416262Y-48984203D01*
X138412574Y-48988638D01*
X138409755Y-48993672D01*
X138407686Y-48996682D01*
X138401492Y-49005952D01*
X138399449Y-49009097D01*
X138395872Y-49013635D01*
X138393184Y-49018743D01*
X138393182Y-49018747D01*
X138354688Y-49091914D01*
X138353113Y-49094814D01*
X138313208Y-49166069D01*
X138309885Y-49172002D01*
X138308028Y-49177474D01*
X138306514Y-49180874D01*
X138302127Y-49191085D01*
X138300705Y-49194519D01*
X138298018Y-49199625D01*
X138296306Y-49205139D01*
X138296305Y-49205141D01*
X138271788Y-49284097D01*
X138270769Y-49287233D01*
X138242331Y-49371010D01*
X138241502Y-49376723D01*
X138240659Y-49380236D01*
X138238167Y-49391249D01*
X138237409Y-49394816D01*
X138235696Y-49400332D01*
X138235018Y-49406060D01*
X138235017Y-49406065D01*
X138225297Y-49488196D01*
X138224870Y-49491438D01*
X138212175Y-49578995D01*
X138212402Y-49584763D01*
X138215403Y-49661152D01*
X138215500Y-49666099D01*
X138215500Y-55010853D01*
X138193588Y-55081857D01*
X138130119Y-55174899D01*
X138032602Y-55384981D01*
X137970707Y-55608169D01*
X137946095Y-55838469D01*
X137946392Y-55843622D01*
X137946392Y-55843625D01*
X137959129Y-56064529D01*
X137959427Y-56069697D01*
X137960564Y-56074743D01*
X137960565Y-56074749D01*
X137960760Y-56075613D01*
X138010346Y-56295642D01*
X138012288Y-56300424D01*
X138012289Y-56300428D01*
X138091651Y-56495873D01*
X138097484Y-56510237D01*
X138218501Y-56707719D01*
X138370147Y-56882784D01*
X138489204Y-56981627D01*
X138540755Y-57024425D01*
X138548349Y-57030730D01*
X138748322Y-57147584D01*
X138753147Y-57149426D01*
X138753148Y-57149427D01*
X138827665Y-57177883D01*
X138964694Y-57230209D01*
X138969760Y-57231240D01*
X138969761Y-57231240D01*
X139022846Y-57242040D01*
X139191656Y-57276385D01*
X139322324Y-57281176D01*
X139417949Y-57284683D01*
X139417953Y-57284683D01*
X139423113Y-57284872D01*
X139428233Y-57284216D01*
X139428235Y-57284216D01*
X139502166Y-57274745D01*
X139652847Y-57255442D01*
X139657795Y-57253957D01*
X139657802Y-57253956D01*
X139869747Y-57190369D01*
X139874690Y-57188886D01*
X139880814Y-57185886D01*
X140078049Y-57089262D01*
X140078052Y-57089260D01*
X140082684Y-57086991D01*
X140271243Y-56952494D01*
X140435303Y-56789005D01*
X140504370Y-56692888D01*
X140560365Y-56649240D01*
X140631068Y-56642794D01*
X140694033Y-56675597D01*
X140714128Y-56700584D01*
X140715799Y-56703311D01*
X140715802Y-56703315D01*
X140718501Y-56707719D01*
X140870147Y-56882784D01*
X140989204Y-56981627D01*
X141040755Y-57024425D01*
X141048349Y-57030730D01*
X141248322Y-57147584D01*
X141253147Y-57149426D01*
X141253148Y-57149427D01*
X141327665Y-57177883D01*
X141464694Y-57230209D01*
X141469760Y-57231240D01*
X141469761Y-57231240D01*
X141522846Y-57242040D01*
X141691656Y-57276385D01*
X141822324Y-57281176D01*
X141917949Y-57284683D01*
X141917953Y-57284683D01*
X141923113Y-57284872D01*
X141928233Y-57284216D01*
X141928235Y-57284216D01*
X142002166Y-57274745D01*
X142152847Y-57255442D01*
X142157795Y-57253957D01*
X142157802Y-57253956D01*
X142369747Y-57190369D01*
X142374690Y-57188886D01*
X142380814Y-57185886D01*
X142578049Y-57089262D01*
X142578052Y-57089260D01*
X142582684Y-57086991D01*
X142587496Y-57083559D01*
X142648674Y-57039921D01*
X142721842Y-57016500D01*
X142880989Y-57016500D01*
X142949110Y-57036502D01*
X142995603Y-57090158D01*
X143006989Y-57142500D01*
X143006989Y-64605684D01*
X143006719Y-64613925D01*
X143002483Y-64678550D01*
X143012888Y-64766462D01*
X143013225Y-64769675D01*
X143021320Y-64857768D01*
X143022888Y-64863328D01*
X143023550Y-64866901D01*
X143025739Y-64877904D01*
X143026507Y-64881517D01*
X143027186Y-64887254D01*
X143053427Y-64971765D01*
X143054343Y-64974862D01*
X143078366Y-65060038D01*
X143080924Y-65065226D01*
X143082249Y-65068677D01*
X143086390Y-65079055D01*
X143087793Y-65082442D01*
X143089507Y-65087962D01*
X143092198Y-65093076D01*
X143092198Y-65093077D01*
X143130687Y-65166234D01*
X143132184Y-65169170D01*
X143171318Y-65248526D01*
X143174776Y-65253157D01*
X143176739Y-65256360D01*
X143182662Y-65265747D01*
X143184671Y-65268840D01*
X143187360Y-65273952D01*
X143242145Y-65343445D01*
X143244116Y-65346015D01*
X143293605Y-65412290D01*
X143293612Y-65412297D01*
X143297062Y-65416918D01*
X143301296Y-65420832D01*
X143301298Y-65420834D01*
X143357462Y-65472751D01*
X143361028Y-65476181D01*
X144996595Y-67111748D01*
X145030621Y-67174060D01*
X145033500Y-67200843D01*
X145033500Y-73496135D01*
X145021695Y-73549385D01*
X144945768Y-73712213D01*
X144942716Y-73718757D01*
X144941294Y-73724065D01*
X144941293Y-73724067D01*
X144891865Y-73908535D01*
X144883457Y-73939913D01*
X144863502Y-74168000D01*
X144883457Y-74396087D01*
X144884881Y-74401400D01*
X144884881Y-74401402D01*
X144906147Y-74480765D01*
X144942716Y-74617243D01*
X144945039Y-74622224D01*
X144945039Y-74622225D01*
X145037151Y-74819762D01*
X145037154Y-74819767D01*
X145039477Y-74824749D01*
X145053606Y-74844927D01*
X145132634Y-74957790D01*
X145170802Y-75012300D01*
X145332700Y-75174198D01*
X145337208Y-75177355D01*
X145337211Y-75177357D01*
X145415389Y-75232098D01*
X145520251Y-75305523D01*
X145525233Y-75307846D01*
X145525238Y-75307849D01*
X145722775Y-75399961D01*
X145727757Y-75402284D01*
X145733064Y-75403706D01*
X145926125Y-75455437D01*
X145986747Y-75492389D01*
X146017769Y-75556250D01*
X146009340Y-75626744D01*
X145982608Y-75666239D01*
X145842300Y-75806547D01*
X145785816Y-75839159D01*
X145727757Y-75854716D01*
X145638264Y-75896447D01*
X145525238Y-75949151D01*
X145525233Y-75949154D01*
X145520251Y-75951477D01*
X145481921Y-75978316D01*
X145337211Y-76079643D01*
X145337208Y-76079645D01*
X145332700Y-76082802D01*
X145170802Y-76244700D01*
X145039477Y-76432251D01*
X145037154Y-76437233D01*
X145037151Y-76437238D01*
X145021195Y-76471457D01*
X144974278Y-76524742D01*
X144906001Y-76544203D01*
X144838041Y-76523661D01*
X144792805Y-76471457D01*
X144776849Y-76437238D01*
X144776846Y-76437233D01*
X144774523Y-76432251D01*
X144643198Y-76244700D01*
X144481300Y-76082802D01*
X144476792Y-76079645D01*
X144476789Y-76079643D01*
X144332079Y-75978316D01*
X144293749Y-75951477D01*
X144288767Y-75949154D01*
X144288762Y-75949151D01*
X144091225Y-75857039D01*
X144091224Y-75857039D01*
X144086243Y-75854716D01*
X144080935Y-75853294D01*
X144080933Y-75853293D01*
X143870402Y-75796881D01*
X143870400Y-75796881D01*
X143865087Y-75795457D01*
X143637000Y-75775502D01*
X143408913Y-75795457D01*
X143403600Y-75796881D01*
X143403598Y-75796881D01*
X143193067Y-75853293D01*
X143193065Y-75853294D01*
X143187757Y-75854716D01*
X143182776Y-75857039D01*
X143182775Y-75857039D01*
X143018385Y-75933695D01*
X142965135Y-75945500D01*
X142366500Y-75945500D01*
X142298379Y-75925498D01*
X142251886Y-75871842D01*
X142240500Y-75819500D01*
X142240500Y-74362889D01*
X142240770Y-74354648D01*
X142244628Y-74295789D01*
X142245006Y-74290023D01*
X142234602Y-74202125D01*
X142234259Y-74198850D01*
X142226698Y-74116564D01*
X142226169Y-74110805D01*
X142224599Y-74105239D01*
X142223914Y-74101543D01*
X142221756Y-74090694D01*
X142220983Y-74087058D01*
X142220304Y-74081319D01*
X142194069Y-73996828D01*
X142193140Y-73993692D01*
X142170693Y-73914102D01*
X142169123Y-73908535D01*
X142166565Y-73903347D01*
X142165240Y-73899896D01*
X142161099Y-73889518D01*
X142159696Y-73886131D01*
X142157982Y-73880611D01*
X142116801Y-73802338D01*
X142115305Y-73799402D01*
X142092277Y-73752707D01*
X142076171Y-73720047D01*
X142072713Y-73715416D01*
X142070750Y-73712213D01*
X142064827Y-73702826D01*
X142062818Y-73699733D01*
X142060129Y-73694621D01*
X142005344Y-73625128D01*
X142003373Y-73622558D01*
X141953884Y-73556283D01*
X141953877Y-73556276D01*
X141950427Y-73551655D01*
X141890026Y-73495821D01*
X141886461Y-73492392D01*
X135730894Y-67336825D01*
X135696868Y-67274513D01*
X135693989Y-67247730D01*
X135693989Y-65257174D01*
X135713991Y-65189053D01*
X135767647Y-65142560D01*
X135837921Y-65132456D01*
X135886943Y-65150435D01*
X136050825Y-65253238D01*
X136054735Y-65255003D01*
X136054736Y-65255004D01*
X136311419Y-65370901D01*
X136311423Y-65370903D01*
X136315331Y-65372667D01*
X136375193Y-65390399D01*
X136589484Y-65453875D01*
X136589488Y-65453876D01*
X136593597Y-65455093D01*
X136597834Y-65455741D01*
X136597837Y-65455742D01*
X136811368Y-65488417D01*
X136880475Y-65498992D01*
X137028275Y-65501314D01*
X137166366Y-65503483D01*
X137166372Y-65503483D01*
X137170657Y-65503550D01*
X137458773Y-65468684D01*
X137739491Y-65395039D01*
X138007618Y-65283978D01*
X138177369Y-65184783D01*
X138254487Y-65139719D01*
X138254488Y-65139718D01*
X138258190Y-65137555D01*
X138486573Y-64958480D01*
X138545867Y-64897294D01*
X138635898Y-64804388D01*
X138688539Y-64750067D01*
X138860352Y-64516173D01*
X138920222Y-64405906D01*
X138996782Y-64264900D01*
X138996783Y-64264898D01*
X138998832Y-64261124D01*
X139101416Y-63989642D01*
X139166207Y-63706749D01*
X139166857Y-63699472D01*
X139191786Y-63420145D01*
X139192006Y-63417680D01*
X139192038Y-63414680D01*
X139192448Y-63375484D01*
X139192474Y-63373000D01*
X139192305Y-63370520D01*
X139173027Y-63087731D01*
X139173026Y-63087725D01*
X139172735Y-63083454D01*
X139113882Y-62799267D01*
X139017006Y-62525695D01*
X138883897Y-62267803D01*
X138717021Y-62030361D01*
X138698066Y-62009963D01*
X138522384Y-61820907D01*
X138522381Y-61820905D01*
X138519463Y-61817764D01*
X138294881Y-61633946D01*
X138082601Y-61503861D01*
X138051092Y-61484552D01*
X138051091Y-61484552D01*
X138047430Y-61482308D01*
X138036660Y-61477580D01*
X137859375Y-61399757D01*
X137781689Y-61365655D01*
X137502574Y-61286148D01*
X137215252Y-61245255D01*
X137062879Y-61244457D01*
X136929324Y-61243758D01*
X136929318Y-61243758D01*
X136925038Y-61243736D01*
X136920794Y-61244295D01*
X136920790Y-61244295D01*
X136829931Y-61256257D01*
X136637303Y-61281617D01*
X136633163Y-61282750D01*
X136633161Y-61282750D01*
X136362179Y-61356883D01*
X136357372Y-61358198D01*
X136090423Y-61472061D01*
X135884694Y-61595187D01*
X135815971Y-61613007D01*
X135748523Y-61590843D01*
X135703765Y-61535732D01*
X135693989Y-61487071D01*
X135693989Y-60770225D01*
X135715975Y-60699415D01*
X135718465Y-60696421D01*
X135721287Y-60691383D01*
X135723381Y-60688335D01*
X135729592Y-60679039D01*
X135731595Y-60675955D01*
X135735168Y-60671423D01*
X135737852Y-60666322D01*
X135737855Y-60666317D01*
X135767882Y-60609244D01*
X135776365Y-60593121D01*
X135777934Y-60590231D01*
X135818330Y-60518100D01*
X135818331Y-60518098D01*
X135821154Y-60513057D01*
X135823012Y-60507582D01*
X135824521Y-60504193D01*
X135828929Y-60493934D01*
X135830334Y-60490542D01*
X135833022Y-60485433D01*
X135859254Y-60400954D01*
X135860270Y-60397824D01*
X135886850Y-60319523D01*
X135886850Y-60319521D01*
X135888708Y-60314049D01*
X135889538Y-60308325D01*
X135890405Y-60304713D01*
X135892870Y-60293822D01*
X135893631Y-60290244D01*
X135895344Y-60284726D01*
X135905743Y-60196859D01*
X135906174Y-60193586D01*
X135918037Y-60111776D01*
X135918037Y-60111772D01*
X135918865Y-60106063D01*
X135915637Y-60023906D01*
X135915540Y-60018959D01*
X135915540Y-46634803D01*
X135935542Y-46566682D01*
X135952445Y-46545708D01*
X141630748Y-40867405D01*
X141693060Y-40833379D01*
X141719843Y-40830500D01*
X142539737Y-40830499D01*
X142578236Y-40830499D01*
X142580529Y-40830331D01*
X142580536Y-40830331D01*
X142671818Y-40823653D01*
X142671822Y-40823652D01*
X142676953Y-40823277D01*
X142883944Y-40773391D01*
X143078378Y-40686620D01*
X143108028Y-40666204D01*
X143248988Y-40569144D01*
X143248989Y-40569143D01*
X143253744Y-40565869D01*
X143273968Y-40545610D01*
X143400089Y-40419270D01*
X143400093Y-40419265D01*
X143404168Y-40415183D01*
X143524613Y-40239607D01*
X143611044Y-40045021D01*
X143622163Y-39998530D01*
X143659373Y-39842941D01*
X143659374Y-39842937D01*
X143660568Y-39837943D01*
X143663165Y-39801715D01*
X143667339Y-39743487D01*
X143667339Y-39743479D01*
X143667500Y-39741237D01*
X143667499Y-38302764D01*
X143660277Y-38204047D01*
X143610391Y-37997056D01*
X143523620Y-37802622D01*
X143402869Y-37627256D01*
X143398781Y-37623175D01*
X143256270Y-37480911D01*
X143256265Y-37480907D01*
X143252183Y-37476832D01*
X143076607Y-37356387D01*
X142979314Y-37313171D01*
X142887299Y-37272300D01*
X142887295Y-37272299D01*
X142882021Y-37269956D01*
X142844753Y-37261043D01*
X142679941Y-37221627D01*
X142679937Y-37221626D01*
X142674943Y-37220432D01*
X142638715Y-37217835D01*
X142580487Y-37213661D01*
X142580479Y-37213661D01*
X142578237Y-37213500D01*
X141865457Y-37213500D01*
X141139764Y-37213501D01*
X141137471Y-37213669D01*
X141137464Y-37213669D01*
X141046182Y-37220347D01*
X141046178Y-37220348D01*
X141041047Y-37220723D01*
X140834056Y-37270609D01*
X140639622Y-37357380D01*
X140634868Y-37360653D01*
X140634867Y-37360654D01*
X140470886Y-37473566D01*
X140464256Y-37478131D01*
X140460176Y-37482218D01*
X140460175Y-37482219D01*
X140317911Y-37624730D01*
X140317907Y-37624735D01*
X140313832Y-37628817D01*
X140193387Y-37804393D01*
X140106956Y-37998979D01*
X140057432Y-38206057D01*
X140050500Y-38302763D01*
X140050500Y-38305026D01*
X140050501Y-39161156D01*
X140030499Y-39229277D01*
X140013596Y-39250251D01*
X133993736Y-45270111D01*
X133987718Y-45275748D01*
X133939021Y-45318454D01*
X133935446Y-45322989D01*
X133935445Y-45322990D01*
X133884242Y-45387942D01*
X133882164Y-45390507D01*
X133829306Y-45454060D01*
X133829302Y-45454065D01*
X133825614Y-45458500D01*
X133822795Y-45463534D01*
X133820726Y-45466544D01*
X133814532Y-45475814D01*
X133812489Y-45478959D01*
X133808912Y-45483497D01*
X133806224Y-45488605D01*
X133806222Y-45488609D01*
X133767728Y-45561776D01*
X133766158Y-45564666D01*
X133763196Y-45569956D01*
X133725804Y-45636724D01*
X133722925Y-45641864D01*
X133721068Y-45647336D01*
X133719554Y-45650736D01*
X133715167Y-45660947D01*
X133713745Y-45664381D01*
X133711058Y-45669487D01*
X133709346Y-45675001D01*
X133709345Y-45675003D01*
X133684828Y-45753959D01*
X133683809Y-45757095D01*
X133675725Y-45780911D01*
X133655371Y-45840872D01*
X133654542Y-45846585D01*
X133653699Y-45850098D01*
X133651207Y-45861111D01*
X133650449Y-45864678D01*
X133648736Y-45870194D01*
X133648058Y-45875922D01*
X133648057Y-45875927D01*
X133638337Y-45958058D01*
X133637910Y-45961300D01*
X133625215Y-46048857D01*
X133627686Y-46111737D01*
X133628443Y-46131014D01*
X133628540Y-46135961D01*
X133628540Y-48036295D01*
X133608538Y-48104416D01*
X133554882Y-48150909D01*
X133484608Y-48161013D01*
X133420028Y-48131519D01*
X133413445Y-48125390D01*
X132655405Y-47367350D01*
X132621379Y-47305038D01*
X132618500Y-47278255D01*
X132618499Y-46605068D01*
X132618499Y-46602764D01*
X132617025Y-46582613D01*
X132611653Y-46509182D01*
X132611652Y-46509178D01*
X132611277Y-46504047D01*
X132561391Y-46297056D01*
X132474620Y-46102622D01*
X132433665Y-46043143D01*
X132357144Y-45932012D01*
X132357143Y-45932011D01*
X132353869Y-45927256D01*
X132267335Y-45840872D01*
X132207270Y-45780911D01*
X132207265Y-45780907D01*
X132203183Y-45776832D01*
X132027607Y-45656387D01*
X131927656Y-45611991D01*
X131838299Y-45572300D01*
X131838295Y-45572299D01*
X131833021Y-45569956D01*
X131795753Y-45561043D01*
X131630941Y-45521627D01*
X131630937Y-45521626D01*
X131625943Y-45520432D01*
X131589715Y-45517835D01*
X131531487Y-45513661D01*
X131531479Y-45513661D01*
X131529237Y-45513500D01*
X130816457Y-45513500D01*
X130090764Y-45513501D01*
X130088471Y-45513669D01*
X130088464Y-45513669D01*
X129997182Y-45520347D01*
X129997178Y-45520348D01*
X129992047Y-45520723D01*
X129785056Y-45570609D01*
X129692328Y-45611991D01*
X129621971Y-45621487D01*
X129557647Y-45591437D01*
X129519782Y-45531381D01*
X129514980Y-45496929D01*
X129514980Y-41986363D01*
X129534982Y-41918242D01*
X129551885Y-41897268D01*
X130581749Y-40867405D01*
X130644061Y-40833379D01*
X130670844Y-40830500D01*
X131490737Y-40830499D01*
X131529236Y-40830499D01*
X131531529Y-40830331D01*
X131531536Y-40830331D01*
X131622818Y-40823653D01*
X131622822Y-40823652D01*
X131627953Y-40823277D01*
X131834944Y-40773391D01*
X132029378Y-40686620D01*
X132059028Y-40666204D01*
X132199988Y-40569144D01*
X132199989Y-40569143D01*
X132204744Y-40565869D01*
X132224968Y-40545610D01*
X132351089Y-40419270D01*
X132351093Y-40419265D01*
X132355168Y-40415183D01*
X132475613Y-40239607D01*
X132562044Y-40045021D01*
X132573163Y-39998530D01*
X132610373Y-39842941D01*
X132610374Y-39842937D01*
X132611568Y-39837943D01*
X132614165Y-39801715D01*
X132618339Y-39743487D01*
X132618339Y-39743479D01*
X132618500Y-39741237D01*
X132618499Y-38302764D01*
X132611277Y-38204047D01*
X132561391Y-37997056D01*
X132474620Y-37802622D01*
X132353869Y-37627256D01*
X132349781Y-37623175D01*
X132207270Y-37480911D01*
X132207265Y-37480907D01*
X132203183Y-37476832D01*
X132027607Y-37356387D01*
X131930314Y-37313171D01*
X131838299Y-37272300D01*
X131838295Y-37272299D01*
X131833021Y-37269956D01*
X131795753Y-37261043D01*
X131630941Y-37221627D01*
X131630937Y-37221626D01*
X131625943Y-37220432D01*
X131589715Y-37217835D01*
X131531487Y-37213661D01*
X131531479Y-37213661D01*
X131529237Y-37213500D01*
X130816457Y-37213500D01*
X130090764Y-37213501D01*
X130088471Y-37213669D01*
X130088464Y-37213669D01*
X129997182Y-37220347D01*
X129997178Y-37220348D01*
X129992047Y-37220723D01*
X129785056Y-37270609D01*
X129590622Y-37357380D01*
X129585868Y-37360653D01*
X129585867Y-37360654D01*
X129421886Y-37473566D01*
X129415256Y-37478131D01*
X129411176Y-37482218D01*
X129411175Y-37482219D01*
X129268911Y-37624730D01*
X129268907Y-37624735D01*
X129264832Y-37628817D01*
X129144387Y-37804393D01*
X129057956Y-37998979D01*
X129008432Y-38206057D01*
X129001500Y-38302763D01*
X129001500Y-38305026D01*
X129001501Y-39161156D01*
X128981499Y-39229277D01*
X128964596Y-39250251D01*
X127593176Y-40621671D01*
X127587158Y-40627308D01*
X127538461Y-40670014D01*
X127534886Y-40674549D01*
X127534885Y-40674550D01*
X127483682Y-40739502D01*
X127481604Y-40742067D01*
X127428746Y-40805620D01*
X127428742Y-40805625D01*
X127425054Y-40810060D01*
X127422235Y-40815094D01*
X127420166Y-40818104D01*
X127413972Y-40827374D01*
X127411929Y-40830519D01*
X127408352Y-40835057D01*
X127405664Y-40840165D01*
X127405662Y-40840169D01*
X127367168Y-40913336D01*
X127365598Y-40916226D01*
X127322365Y-40993424D01*
X127320508Y-40998896D01*
X127318994Y-41002296D01*
X127314607Y-41012507D01*
X127313185Y-41015941D01*
X127310498Y-41021047D01*
X127308786Y-41026561D01*
X127308785Y-41026563D01*
X127284268Y-41105519D01*
X127283249Y-41108655D01*
X127276668Y-41128043D01*
X127254811Y-41192432D01*
X127253982Y-41198145D01*
X127253139Y-41201658D01*
X127250647Y-41212671D01*
X127249889Y-41216238D01*
X127248176Y-41221754D01*
X127247498Y-41227482D01*
X127247497Y-41227487D01*
X127237777Y-41309618D01*
X127237350Y-41312860D01*
X127224655Y-41400417D01*
X127225566Y-41423596D01*
X127227883Y-41482574D01*
X127227980Y-41487521D01*
X127227980Y-51223577D01*
X127227710Y-51231818D01*
X127223474Y-51296443D01*
X127233879Y-51384355D01*
X127234216Y-51387568D01*
X127242311Y-51475661D01*
X127243879Y-51481221D01*
X127244541Y-51484794D01*
X127246730Y-51495797D01*
X127247498Y-51499410D01*
X127248177Y-51505147D01*
X127274418Y-51589658D01*
X127275334Y-51592755D01*
X127299357Y-51677931D01*
X127301915Y-51683119D01*
X127303240Y-51686570D01*
X127307381Y-51696948D01*
X127308784Y-51700335D01*
X127310498Y-51705855D01*
X127313189Y-51710969D01*
X127313189Y-51710970D01*
X127351678Y-51784127D01*
X127353175Y-51787063D01*
X127392309Y-51866419D01*
X127395767Y-51871050D01*
X127397730Y-51874253D01*
X127403653Y-51883640D01*
X127405662Y-51886733D01*
X127408351Y-51891845D01*
X127463136Y-51961338D01*
X127465107Y-51963908D01*
X127514596Y-52030183D01*
X127514603Y-52030190D01*
X127518053Y-52034811D01*
X127522287Y-52038725D01*
X127522289Y-52038727D01*
X127578453Y-52090644D01*
X127582019Y-52094074D01*
X128486595Y-52998650D01*
X128520621Y-53060962D01*
X128523500Y-53087745D01*
X128523500Y-61520317D01*
X128503498Y-61588438D01*
X128449842Y-61634931D01*
X128379568Y-61645035D01*
X128331666Y-61627751D01*
X128102098Y-61487071D01*
X128093092Y-61481552D01*
X128093091Y-61481552D01*
X128089430Y-61479308D01*
X128071106Y-61471264D01*
X127956559Y-61420981D01*
X127823689Y-61362655D01*
X127544574Y-61283148D01*
X127257252Y-61242255D01*
X127104879Y-61241457D01*
X126971324Y-61240758D01*
X126971318Y-61240758D01*
X126967038Y-61240736D01*
X126962794Y-61241295D01*
X126962790Y-61241295D01*
X126849144Y-61256257D01*
X126679303Y-61278617D01*
X126675163Y-61279750D01*
X126675161Y-61279750D01*
X126403517Y-61354064D01*
X126399372Y-61355198D01*
X126132423Y-61469061D01*
X125926694Y-61592187D01*
X125857971Y-61610007D01*
X125790523Y-61587843D01*
X125745765Y-61532732D01*
X125735989Y-61484071D01*
X125735989Y-57387312D01*
X125755991Y-57319191D01*
X125809647Y-57272698D01*
X125817759Y-57269330D01*
X125939297Y-57223767D01*
X125947705Y-57220615D01*
X126064261Y-57133261D01*
X126151615Y-57016705D01*
X126202745Y-56880316D01*
X126209500Y-56818134D01*
X126209500Y-54921866D01*
X126202745Y-54859684D01*
X126151615Y-54723295D01*
X126064261Y-54606739D01*
X125947705Y-54519385D01*
X125811316Y-54468255D01*
X125749134Y-54461500D01*
X123852866Y-54461500D01*
X123790684Y-54468255D01*
X123654295Y-54519385D01*
X123537739Y-54606739D01*
X123532358Y-54613919D01*
X123485782Y-54676065D01*
X123428923Y-54718580D01*
X123384956Y-54726500D01*
X123169537Y-54726500D01*
X123101416Y-54706498D01*
X123091447Y-54699384D01*
X123083123Y-54692810D01*
X123078607Y-54690317D01*
X123078604Y-54690315D01*
X122884879Y-54583373D01*
X122884875Y-54583371D01*
X122880355Y-54580876D01*
X122875486Y-54579152D01*
X122875482Y-54579150D01*
X122666903Y-54505288D01*
X122666899Y-54505287D01*
X122662028Y-54503562D01*
X122656935Y-54502655D01*
X122656932Y-54502654D01*
X122439095Y-54463851D01*
X122439089Y-54463850D01*
X122434006Y-54462945D01*
X122361096Y-54462054D01*
X122207581Y-54460179D01*
X122207579Y-54460179D01*
X122202411Y-54460116D01*
X121973464Y-54495150D01*
X121873660Y-54527771D01*
X121800913Y-54551548D01*
X121729949Y-54553699D01*
X121669087Y-54517143D01*
X121637651Y-54453485D01*
X121645621Y-54382937D01*
X121672673Y-54342688D01*
X122977824Y-53037537D01*
X122983842Y-53031900D01*
X122999426Y-53018233D01*
X123032539Y-52989194D01*
X123087318Y-52919706D01*
X123089396Y-52917141D01*
X123142254Y-52853588D01*
X123142258Y-52853583D01*
X123145946Y-52849148D01*
X123148765Y-52844114D01*
X123150834Y-52841104D01*
X123157028Y-52831834D01*
X123159071Y-52828689D01*
X123162648Y-52824151D01*
X123203838Y-52745862D01*
X123205407Y-52742972D01*
X123245811Y-52670827D01*
X123245812Y-52670825D01*
X123248635Y-52665784D01*
X123250492Y-52660312D01*
X123252006Y-52656912D01*
X123256393Y-52646701D01*
X123257815Y-52643267D01*
X123260502Y-52638161D01*
X123281035Y-52572036D01*
X123286732Y-52553689D01*
X123287751Y-52550553D01*
X123314333Y-52472243D01*
X123316189Y-52466776D01*
X123317018Y-52461063D01*
X123317861Y-52457550D01*
X123320353Y-52446537D01*
X123321111Y-52442970D01*
X123322824Y-52437454D01*
X123333224Y-52349589D01*
X123333652Y-52346337D01*
X123345518Y-52264504D01*
X123345518Y-52264499D01*
X123346346Y-52258790D01*
X123343117Y-52176618D01*
X123343020Y-52171671D01*
X123343020Y-47820325D01*
X123343290Y-47812084D01*
X123347148Y-47753225D01*
X123347526Y-47747459D01*
X123337122Y-47659561D01*
X123336779Y-47656286D01*
X123329218Y-47574000D01*
X123328689Y-47568241D01*
X123327119Y-47562675D01*
X123326434Y-47558979D01*
X123324276Y-47548130D01*
X123323503Y-47544494D01*
X123322824Y-47538755D01*
X123296589Y-47454264D01*
X123295660Y-47451128D01*
X123273213Y-47371538D01*
X123271643Y-47365971D01*
X123269085Y-47360783D01*
X123267760Y-47357332D01*
X123263619Y-47346954D01*
X123262216Y-47343567D01*
X123260502Y-47338047D01*
X123256503Y-47330445D01*
X123219322Y-47259775D01*
X123217825Y-47256838D01*
X123178691Y-47177483D01*
X123175233Y-47172852D01*
X123173270Y-47169649D01*
X123167347Y-47160262D01*
X123165338Y-47157169D01*
X123162649Y-47152057D01*
X123107864Y-47082564D01*
X123105893Y-47079994D01*
X123056404Y-47013719D01*
X123056397Y-47013712D01*
X123052947Y-47009091D01*
X122992546Y-46953257D01*
X122988981Y-46949828D01*
X122582849Y-46543696D01*
X122577212Y-46537678D01*
X122553973Y-46511179D01*
X122534506Y-46488981D01*
X122465018Y-46434202D01*
X122462453Y-46432124D01*
X122398900Y-46379266D01*
X122398895Y-46379262D01*
X122394460Y-46375574D01*
X122389426Y-46372755D01*
X122386416Y-46370686D01*
X122377146Y-46364492D01*
X122374001Y-46362449D01*
X122369463Y-46358872D01*
X122364355Y-46356184D01*
X122364351Y-46356182D01*
X122291184Y-46317688D01*
X122288284Y-46316113D01*
X122216139Y-46275709D01*
X122216137Y-46275708D01*
X122211096Y-46272885D01*
X122205624Y-46271028D01*
X122202224Y-46269514D01*
X122192013Y-46265127D01*
X122188579Y-46263705D01*
X122183473Y-46261018D01*
X122177959Y-46259306D01*
X122177957Y-46259305D01*
X122099001Y-46234788D01*
X122095865Y-46233769D01*
X122042720Y-46215729D01*
X122012088Y-46205331D01*
X122006375Y-46204502D01*
X122002862Y-46203659D01*
X121991849Y-46201167D01*
X121988282Y-46200409D01*
X121982766Y-46198696D01*
X121977038Y-46198018D01*
X121977033Y-46198017D01*
X121924633Y-46191816D01*
X121894882Y-46188294D01*
X121891660Y-46187870D01*
X121804103Y-46175175D01*
X121721946Y-46178403D01*
X121716999Y-46178500D01*
X121541230Y-46178500D01*
X121473109Y-46158498D01*
X121432932Y-46111737D01*
X121430800Y-46112933D01*
X121427974Y-46107896D01*
X121425620Y-46102622D01*
X121384665Y-46043143D01*
X121308144Y-45932012D01*
X121308143Y-45932011D01*
X121304869Y-45927256D01*
X121218335Y-45840872D01*
X121158270Y-45780911D01*
X121158265Y-45780907D01*
X121154183Y-45776832D01*
X120978607Y-45656387D01*
X120878656Y-45611991D01*
X120789299Y-45572300D01*
X120789295Y-45572299D01*
X120784021Y-45569956D01*
X120746753Y-45561043D01*
X120581941Y-45521627D01*
X120581937Y-45521626D01*
X120576943Y-45520432D01*
X120540715Y-45517835D01*
X120482487Y-45513661D01*
X120482479Y-45513661D01*
X120480237Y-45513500D01*
X119767457Y-45513500D01*
X119041764Y-45513501D01*
X119039471Y-45513669D01*
X119039464Y-45513669D01*
X118948182Y-45520347D01*
X118948178Y-45520348D01*
X118943047Y-45520723D01*
X118736056Y-45570609D01*
X118541622Y-45657380D01*
X118536868Y-45660653D01*
X118536867Y-45660654D01*
X118372886Y-45773566D01*
X118366256Y-45778131D01*
X118362176Y-45782218D01*
X118362175Y-45782219D01*
X118219911Y-45924730D01*
X118219907Y-45924735D01*
X118215832Y-45928817D01*
X118095387Y-46104393D01*
X118093043Y-46109671D01*
X118022044Y-46269514D01*
X118008956Y-46298979D01*
X118007612Y-46304599D01*
X117962477Y-46493326D01*
X117959432Y-46506057D01*
X117952500Y-46602763D01*
X117952501Y-48041236D01*
X117952669Y-48043529D01*
X117952669Y-48043536D01*
X117958658Y-48125390D01*
X117959723Y-48139953D01*
X118009609Y-48346944D01*
X118096380Y-48541378D01*
X118217131Y-48716744D01*
X118221218Y-48720824D01*
X118221219Y-48720825D01*
X118363730Y-48863089D01*
X118363735Y-48863093D01*
X118367817Y-48867168D01*
X118372579Y-48870435D01*
X118372583Y-48870438D01*
X118377233Y-48873628D01*
X118422092Y-48928657D01*
X118430079Y-48999203D01*
X118398658Y-49062868D01*
X118383399Y-49076456D01*
X118383438Y-49076502D01*
X118381230Y-49078388D01*
X118380026Y-49079460D01*
X118379682Y-49079710D01*
X118188748Y-49242784D01*
X118181784Y-49249748D01*
X118018712Y-49440679D01*
X118012920Y-49448652D01*
X117881729Y-49662736D01*
X117877248Y-49671530D01*
X117781166Y-49903492D01*
X117778117Y-49912877D01*
X117720180Y-50154202D01*
X117722454Y-50165030D01*
X117733918Y-50168000D01*
X119889000Y-50168000D01*
X119957121Y-50188002D01*
X120003614Y-50241658D01*
X120015000Y-50294000D01*
X120015000Y-52061885D01*
X120019475Y-52077124D01*
X120020865Y-52078329D01*
X120028548Y-52080000D01*
X120223675Y-52080000D01*
X120228600Y-52079807D01*
X120401140Y-52066227D01*
X120470620Y-52080823D01*
X120521179Y-52130665D01*
X120536766Y-52199930D01*
X120512431Y-52266626D01*
X120500121Y-52280934D01*
X119022696Y-53758359D01*
X119016678Y-53763996D01*
X118967981Y-53806702D01*
X118964406Y-53811237D01*
X118964405Y-53811238D01*
X118913202Y-53876190D01*
X118911124Y-53878755D01*
X118858266Y-53942308D01*
X118858262Y-53942313D01*
X118854574Y-53946748D01*
X118851755Y-53951782D01*
X118849686Y-53954792D01*
X118843492Y-53964062D01*
X118841449Y-53967207D01*
X118837872Y-53971745D01*
X118835184Y-53976853D01*
X118835182Y-53976857D01*
X118796688Y-54050024D01*
X118795118Y-54052914D01*
X118751885Y-54130112D01*
X118750028Y-54135584D01*
X118748514Y-54138984D01*
X118744127Y-54149195D01*
X118742705Y-54152629D01*
X118740018Y-54157735D01*
X118738306Y-54163249D01*
X118738305Y-54163251D01*
X118713788Y-54242207D01*
X118712769Y-54245343D01*
X118684331Y-54329120D01*
X118683502Y-54334833D01*
X118682659Y-54338346D01*
X118680167Y-54349359D01*
X118679409Y-54352926D01*
X118677696Y-54358442D01*
X118677018Y-54364170D01*
X118677017Y-54364175D01*
X118667297Y-54446306D01*
X118666870Y-54449548D01*
X118654175Y-54537105D01*
X118655427Y-54568961D01*
X118657403Y-54619262D01*
X118657500Y-54624209D01*
X118657500Y-55007853D01*
X118635588Y-55078857D01*
X118572119Y-55171899D01*
X118474602Y-55381981D01*
X118412707Y-55605169D01*
X118388095Y-55835469D01*
X118388392Y-55840622D01*
X118388392Y-55840625D01*
X118397985Y-56007000D01*
X118401427Y-56066697D01*
X118402564Y-56071743D01*
X118402565Y-56071749D01*
X118403436Y-56075613D01*
X118452346Y-56292642D01*
X118454288Y-56297424D01*
X118454289Y-56297428D01*
X118536273Y-56499330D01*
X118539484Y-56507237D01*
X118660501Y-56704719D01*
X118812147Y-56879784D01*
X118899727Y-56952494D01*
X118983485Y-57022031D01*
X118990349Y-57027730D01*
X119190322Y-57144584D01*
X119195147Y-57146426D01*
X119195148Y-57146427D01*
X119226416Y-57158367D01*
X119406694Y-57227209D01*
X119411760Y-57228240D01*
X119411761Y-57228240D01*
X119426507Y-57231240D01*
X119633656Y-57273385D01*
X119764324Y-57278176D01*
X119859949Y-57281683D01*
X119859953Y-57281683D01*
X119865113Y-57281872D01*
X119870233Y-57281216D01*
X119870235Y-57281216D01*
X119963017Y-57269330D01*
X120094847Y-57252442D01*
X120099795Y-57250957D01*
X120099802Y-57250956D01*
X120311747Y-57187369D01*
X120316690Y-57185886D01*
X120344472Y-57172276D01*
X120520049Y-57086262D01*
X120520052Y-57086260D01*
X120524684Y-57083991D01*
X120713243Y-56949494D01*
X120877303Y-56786005D01*
X120906022Y-56746039D01*
X120946370Y-56689888D01*
X121002365Y-56646240D01*
X121073068Y-56639794D01*
X121136033Y-56672597D01*
X121156128Y-56697584D01*
X121157799Y-56700311D01*
X121157804Y-56700317D01*
X121160501Y-56704719D01*
X121312147Y-56879784D01*
X121399727Y-56952494D01*
X121483485Y-57022031D01*
X121490349Y-57027730D01*
X121690322Y-57144584D01*
X121695147Y-57146426D01*
X121695148Y-57146427D01*
X121726416Y-57158367D01*
X121906694Y-57227209D01*
X121911760Y-57228240D01*
X121911761Y-57228240D01*
X121926507Y-57231240D01*
X122133656Y-57273385D01*
X122264324Y-57278176D01*
X122359949Y-57281683D01*
X122359953Y-57281683D01*
X122365113Y-57281872D01*
X122370233Y-57281216D01*
X122370235Y-57281216D01*
X122463017Y-57269330D01*
X122594847Y-57252442D01*
X122599795Y-57250957D01*
X122599802Y-57250956D01*
X122811747Y-57187369D01*
X122816690Y-57185886D01*
X122844472Y-57172276D01*
X123020049Y-57086262D01*
X123020052Y-57086260D01*
X123024684Y-57083991D01*
X123082052Y-57043071D01*
X123090674Y-57036921D01*
X123163842Y-57013500D01*
X123322989Y-57013500D01*
X123391110Y-57033502D01*
X123437603Y-57087158D01*
X123448989Y-57139500D01*
X123448989Y-71717684D01*
X123448719Y-71725925D01*
X123444483Y-71790550D01*
X123454888Y-71878462D01*
X123455225Y-71881675D01*
X123463320Y-71969768D01*
X123464888Y-71975328D01*
X123465550Y-71978901D01*
X123467739Y-71989904D01*
X123468507Y-71993517D01*
X123469186Y-71999254D01*
X123495427Y-72083765D01*
X123496343Y-72086862D01*
X123520366Y-72172038D01*
X123522924Y-72177226D01*
X123524249Y-72180677D01*
X123528390Y-72191055D01*
X123529793Y-72194442D01*
X123531507Y-72199962D01*
X123534198Y-72205076D01*
X123534198Y-72205077D01*
X123572687Y-72278234D01*
X123574184Y-72281170D01*
X123613318Y-72360526D01*
X123616776Y-72365157D01*
X123618739Y-72368360D01*
X123624662Y-72377747D01*
X123626671Y-72380840D01*
X123629360Y-72385952D01*
X123684145Y-72455445D01*
X123686116Y-72458015D01*
X123735605Y-72524290D01*
X123735612Y-72524297D01*
X123739062Y-72528918D01*
X123743296Y-72532832D01*
X123743298Y-72532834D01*
X123799462Y-72584751D01*
X123803028Y-72588181D01*
X125717547Y-74502700D01*
X125750159Y-74559184D01*
X125765716Y-74617243D01*
X125793809Y-74677489D01*
X125860151Y-74819762D01*
X125860154Y-74819767D01*
X125862477Y-74824749D01*
X125876606Y-74844927D01*
X125955634Y-74957790D01*
X125993802Y-75012300D01*
X126155700Y-75174198D01*
X126160208Y-75177355D01*
X126160211Y-75177357D01*
X126238389Y-75232098D01*
X126343251Y-75305523D01*
X126348233Y-75307846D01*
X126348238Y-75307849D01*
X126545775Y-75399961D01*
X126550757Y-75402284D01*
X126556064Y-75403706D01*
X126749125Y-75455437D01*
X126809747Y-75492389D01*
X126840769Y-75556250D01*
X126832340Y-75626744D01*
X126805608Y-75666239D01*
X126665300Y-75806547D01*
X126608816Y-75839159D01*
X126550757Y-75854716D01*
X126461264Y-75896447D01*
X126348238Y-75949151D01*
X126348233Y-75949154D01*
X126343251Y-75951477D01*
X126304921Y-75978316D01*
X126160211Y-76079643D01*
X126160208Y-76079645D01*
X126155700Y-76082802D01*
X125993802Y-76244700D01*
X125862477Y-76432251D01*
X125860154Y-76437233D01*
X125860151Y-76437238D01*
X125844195Y-76471457D01*
X125797278Y-76524742D01*
X125729001Y-76544203D01*
X125661041Y-76523661D01*
X125615805Y-76471457D01*
X125599849Y-76437238D01*
X125599846Y-76437233D01*
X125597523Y-76432251D01*
X125466198Y-76244700D01*
X125304300Y-76082802D01*
X125299792Y-76079645D01*
X125299789Y-76079643D01*
X125155079Y-75978316D01*
X125116749Y-75951477D01*
X125111767Y-75949154D01*
X125111762Y-75949151D01*
X124914225Y-75857039D01*
X124914224Y-75857039D01*
X124909243Y-75854716D01*
X124903935Y-75853294D01*
X124903933Y-75853293D01*
X124693402Y-75796881D01*
X124693400Y-75796881D01*
X124688087Y-75795457D01*
X124460000Y-75775502D01*
X124231913Y-75795457D01*
X124226600Y-75796881D01*
X124226598Y-75796881D01*
X124016067Y-75853293D01*
X124016065Y-75853294D01*
X124010757Y-75854716D01*
X124005776Y-75857039D01*
X124005775Y-75857039D01*
X123808238Y-75949151D01*
X123808233Y-75949154D01*
X123803251Y-75951477D01*
X123764921Y-75978316D01*
X123620211Y-76079643D01*
X123620208Y-76079645D01*
X123615700Y-76082802D01*
X123453802Y-76244700D01*
X123322477Y-76432251D01*
X123320154Y-76437233D01*
X123320151Y-76437238D01*
X123304195Y-76471457D01*
X123257278Y-76524742D01*
X123189001Y-76544203D01*
X123121041Y-76523661D01*
X123075810Y-76471467D01*
X123075310Y-76470395D01*
X123063500Y-76417135D01*
X123063500Y-72178805D01*
X123063770Y-72170564D01*
X123067628Y-72111705D01*
X123068006Y-72105939D01*
X123057601Y-72018027D01*
X123057261Y-72014786D01*
X123056341Y-72004767D01*
X123049169Y-71926721D01*
X123047601Y-71921161D01*
X123046939Y-71917588D01*
X123044750Y-71906585D01*
X123043982Y-71902972D01*
X123043303Y-71897235D01*
X123017062Y-71812724D01*
X123016139Y-71809605D01*
X122996141Y-71738696D01*
X122992123Y-71724451D01*
X122989565Y-71719263D01*
X122988240Y-71715812D01*
X122984099Y-71705434D01*
X122982696Y-71702047D01*
X122980982Y-71696527D01*
X122977305Y-71689537D01*
X122939802Y-71618255D01*
X122938305Y-71615318D01*
X122910774Y-71559492D01*
X122899171Y-71535963D01*
X122895713Y-71531332D01*
X122893750Y-71528129D01*
X122887827Y-71518742D01*
X122885818Y-71515649D01*
X122883129Y-71510537D01*
X122828344Y-71441044D01*
X122826373Y-71438474D01*
X122776884Y-71372199D01*
X122776877Y-71372192D01*
X122773427Y-71367571D01*
X122713026Y-71311737D01*
X122709461Y-71308308D01*
X117092085Y-65690932D01*
X117058059Y-65628620D01*
X117063124Y-65557805D01*
X117105671Y-65500969D01*
X117172191Y-65476158D01*
X117200239Y-65477287D01*
X117322475Y-65495992D01*
X117470275Y-65498314D01*
X117608366Y-65500483D01*
X117608372Y-65500483D01*
X117612657Y-65500550D01*
X117900773Y-65465684D01*
X118105362Y-65412011D01*
X118177348Y-65393126D01*
X118177349Y-65393126D01*
X118181491Y-65392039D01*
X118449618Y-65280978D01*
X118700190Y-65134555D01*
X118928573Y-64955480D01*
X118972953Y-64909684D01*
X119095089Y-64783649D01*
X119130539Y-64747067D01*
X119302352Y-64513173D01*
X119309940Y-64499197D01*
X119438782Y-64261900D01*
X119438783Y-64261898D01*
X119440832Y-64258124D01*
X119543416Y-63986642D01*
X119608207Y-63703749D01*
X119634006Y-63414680D01*
X119634474Y-63370000D01*
X119633447Y-63354939D01*
X119615027Y-63084731D01*
X119615026Y-63084725D01*
X119614735Y-63080454D01*
X119555882Y-62796267D01*
X119459006Y-62522695D01*
X119325897Y-62264803D01*
X119159021Y-62027361D01*
X118989167Y-61844577D01*
X118964384Y-61817907D01*
X118964381Y-61817905D01*
X118961463Y-61814764D01*
X118736881Y-61630946D01*
X118502098Y-61487071D01*
X118493092Y-61481552D01*
X118493091Y-61481552D01*
X118489430Y-61479308D01*
X118471106Y-61471264D01*
X118356559Y-61420981D01*
X118223689Y-61362655D01*
X117944574Y-61283148D01*
X117657252Y-61242255D01*
X117504879Y-61241457D01*
X117371324Y-61240758D01*
X117371318Y-61240758D01*
X117367038Y-61240736D01*
X117362794Y-61241295D01*
X117362790Y-61241295D01*
X117249144Y-61256257D01*
X117079303Y-61278617D01*
X117075163Y-61279750D01*
X117075161Y-61279750D01*
X116803517Y-61354064D01*
X116799372Y-61355198D01*
X116532423Y-61469061D01*
X116326694Y-61592187D01*
X116257971Y-61610007D01*
X116190523Y-61587843D01*
X116145765Y-61532732D01*
X116135989Y-61484071D01*
X116135989Y-50688200D01*
X117719797Y-50688200D01*
X117778117Y-50931123D01*
X117781166Y-50940508D01*
X117877248Y-51172470D01*
X117881729Y-51181264D01*
X118012920Y-51395348D01*
X118018712Y-51403321D01*
X118181784Y-51594252D01*
X118188748Y-51601216D01*
X118379679Y-51764288D01*
X118387652Y-51770080D01*
X118601736Y-51901271D01*
X118610530Y-51905752D01*
X118842492Y-52001834D01*
X118851877Y-52004883D01*
X119096017Y-52063496D01*
X119105764Y-52065039D01*
X119293399Y-52079807D01*
X119298325Y-52080000D01*
X119488885Y-52080000D01*
X119504124Y-52075525D01*
X119505329Y-52074135D01*
X119507000Y-52066452D01*
X119507000Y-50694115D01*
X119502525Y-50678876D01*
X119501135Y-50677671D01*
X119493452Y-50676000D01*
X117735978Y-50676000D01*
X117721185Y-50680344D01*
X117719797Y-50688200D01*
X116135989Y-50688200D01*
X116135989Y-44316354D01*
X116155991Y-44248233D01*
X116172894Y-44227259D01*
X119532748Y-40867405D01*
X119595060Y-40833379D01*
X119621843Y-40830500D01*
X120441737Y-40830499D01*
X120480236Y-40830499D01*
X120482529Y-40830331D01*
X120482536Y-40830331D01*
X120573818Y-40823653D01*
X120573822Y-40823652D01*
X120578953Y-40823277D01*
X120785944Y-40773391D01*
X120980378Y-40686620D01*
X121010028Y-40666204D01*
X121150988Y-40569144D01*
X121150989Y-40569143D01*
X121155744Y-40565869D01*
X121175968Y-40545610D01*
X121302089Y-40419270D01*
X121302093Y-40419265D01*
X121306168Y-40415183D01*
X121426613Y-40239607D01*
X121513044Y-40045021D01*
X121524163Y-39998530D01*
X121561373Y-39842941D01*
X121561374Y-39842937D01*
X121562568Y-39837943D01*
X121565165Y-39801715D01*
X121569339Y-39743487D01*
X121569339Y-39743479D01*
X121569500Y-39741237D01*
X121569499Y-38302764D01*
X121562277Y-38204047D01*
X121512391Y-37997056D01*
X121425620Y-37802622D01*
X121304869Y-37627256D01*
X121300781Y-37623175D01*
X121158270Y-37480911D01*
X121158265Y-37480907D01*
X121154183Y-37476832D01*
X120978607Y-37356387D01*
X120881314Y-37313171D01*
X120789299Y-37272300D01*
X120789295Y-37272299D01*
X120784021Y-37269956D01*
X120746753Y-37261043D01*
X120581941Y-37221627D01*
X120581937Y-37221626D01*
X120576943Y-37220432D01*
X120540715Y-37217835D01*
X120482487Y-37213661D01*
X120482479Y-37213661D01*
X120480237Y-37213500D01*
X119767457Y-37213500D01*
X119041764Y-37213501D01*
X119039471Y-37213669D01*
X119039464Y-37213669D01*
X118948182Y-37220347D01*
X118948178Y-37220348D01*
X118943047Y-37220723D01*
X118736056Y-37270609D01*
X118541622Y-37357380D01*
X118536868Y-37360653D01*
X118536867Y-37360654D01*
X118372886Y-37473566D01*
X118366256Y-37478131D01*
X118362176Y-37482218D01*
X118362175Y-37482219D01*
X118219911Y-37624730D01*
X118219907Y-37624735D01*
X118215832Y-37628817D01*
X118095387Y-37804393D01*
X118008956Y-37998979D01*
X117959432Y-38206057D01*
X117952500Y-38302763D01*
X117952500Y-38305026D01*
X117952501Y-39161156D01*
X117932499Y-39229277D01*
X117915596Y-39250251D01*
X114214185Y-42951662D01*
X114208167Y-42957299D01*
X114159470Y-43000005D01*
X114155895Y-43004540D01*
X114155894Y-43004541D01*
X114104691Y-43069493D01*
X114102613Y-43072058D01*
X114049755Y-43135611D01*
X114049751Y-43135616D01*
X114046063Y-43140051D01*
X114043244Y-43145085D01*
X114041175Y-43148095D01*
X114034981Y-43157365D01*
X114032938Y-43160510D01*
X114029361Y-43165048D01*
X114026673Y-43170156D01*
X114026671Y-43170160D01*
X113988177Y-43243327D01*
X113986602Y-43246227D01*
X113954178Y-43304124D01*
X113943374Y-43323415D01*
X113941517Y-43328887D01*
X113940003Y-43332287D01*
X113935616Y-43342498D01*
X113934194Y-43345932D01*
X113931507Y-43351038D01*
X113929795Y-43356552D01*
X113929794Y-43356554D01*
X113905277Y-43435510D01*
X113904258Y-43438646D01*
X113875820Y-43522423D01*
X113874991Y-43528136D01*
X113874148Y-43531649D01*
X113871656Y-43542662D01*
X113870898Y-43546229D01*
X113869185Y-43551745D01*
X113868507Y-43557473D01*
X113868506Y-43557478D01*
X113858786Y-43639609D01*
X113858359Y-43642851D01*
X113845664Y-43730408D01*
X113848892Y-43812565D01*
X113848989Y-43817512D01*
X113848989Y-65165684D01*
X113848719Y-65173925D01*
X113844483Y-65238550D01*
X113854888Y-65326462D01*
X113855225Y-65329675D01*
X113863320Y-65417768D01*
X113864888Y-65423328D01*
X113865550Y-65426901D01*
X113867739Y-65437904D01*
X113868507Y-65441517D01*
X113869186Y-65447254D01*
X113895427Y-65531765D01*
X113896343Y-65534862D01*
X113920366Y-65620038D01*
X113922922Y-65625221D01*
X113924233Y-65628637D01*
X113928390Y-65639055D01*
X113929793Y-65642442D01*
X113931507Y-65647962D01*
X113934198Y-65653076D01*
X113934198Y-65653077D01*
X113972687Y-65726234D01*
X113974184Y-65729170D01*
X114013318Y-65808526D01*
X114016776Y-65813157D01*
X114018739Y-65816360D01*
X114024662Y-65825747D01*
X114026671Y-65828840D01*
X114029360Y-65833952D01*
X114084145Y-65903445D01*
X114086116Y-65906015D01*
X114135605Y-65972290D01*
X114135612Y-65972297D01*
X114139062Y-65976918D01*
X114143296Y-65980832D01*
X114143298Y-65980834D01*
X114199461Y-66032750D01*
X114203027Y-66036180D01*
X120739595Y-72572749D01*
X120773621Y-72635061D01*
X120776500Y-72661844D01*
X120776500Y-73498279D01*
X120756498Y-73566400D01*
X120702842Y-73612893D01*
X120632568Y-73622997D01*
X120567988Y-73593503D01*
X120536305Y-73551529D01*
X120519849Y-73516238D01*
X120519846Y-73516233D01*
X120517523Y-73511251D01*
X120386198Y-73323700D01*
X120224300Y-73161802D01*
X120219792Y-73158645D01*
X120219789Y-73158643D01*
X120070670Y-73054229D01*
X120036749Y-73030477D01*
X120031767Y-73028154D01*
X120031762Y-73028151D01*
X119916902Y-72974592D01*
X119829243Y-72933716D01*
X119771184Y-72918159D01*
X119714700Y-72885547D01*
X118567849Y-71738696D01*
X118562212Y-71732678D01*
X118554997Y-71724451D01*
X118519506Y-71683981D01*
X118450018Y-71629202D01*
X118447453Y-71627124D01*
X118383900Y-71574266D01*
X118383895Y-71574262D01*
X118379460Y-71570574D01*
X118374426Y-71567755D01*
X118371416Y-71565686D01*
X118362146Y-71559492D01*
X118359001Y-71557449D01*
X118354463Y-71553872D01*
X118349355Y-71551184D01*
X118349351Y-71551182D01*
X118276184Y-71512688D01*
X118273284Y-71511113D01*
X118272256Y-71510537D01*
X118196096Y-71467885D01*
X118190624Y-71466028D01*
X118187224Y-71464514D01*
X118177013Y-71460127D01*
X118173579Y-71458705D01*
X118168473Y-71456018D01*
X118162959Y-71454306D01*
X118162957Y-71454305D01*
X118084001Y-71429788D01*
X118080865Y-71428769D01*
X118027720Y-71410729D01*
X117997088Y-71400331D01*
X117991375Y-71399502D01*
X117987862Y-71398659D01*
X117976849Y-71396167D01*
X117973282Y-71395409D01*
X117967766Y-71393696D01*
X117962038Y-71393018D01*
X117962033Y-71393017D01*
X117909633Y-71386816D01*
X117879882Y-71383294D01*
X117876660Y-71382870D01*
X117789103Y-71370175D01*
X117706946Y-71373403D01*
X117701999Y-71373500D01*
X110362500Y-71373500D01*
X110294379Y-71353498D01*
X110247886Y-71299842D01*
X110236500Y-71247500D01*
X110236500Y-70700603D01*
X110256502Y-70632482D01*
X110261674Y-70625038D01*
X110338229Y-70522891D01*
X110343615Y-70515705D01*
X110394745Y-70379316D01*
X110401500Y-70317134D01*
X110401500Y-68620866D01*
X110394745Y-68558684D01*
X110343615Y-68422295D01*
X110256261Y-68305739D01*
X110139705Y-68218385D01*
X110003316Y-68167255D01*
X109941134Y-68160500D01*
X108244866Y-68160500D01*
X108182684Y-68167255D01*
X108046295Y-68218385D01*
X107929739Y-68305739D01*
X107842385Y-68422295D01*
X107791255Y-68558684D01*
X107784500Y-68620866D01*
X107784500Y-70317134D01*
X107791255Y-70379316D01*
X107842385Y-70515705D01*
X107847771Y-70522891D01*
X107924326Y-70625038D01*
X107949174Y-70691544D01*
X107949500Y-70700603D01*
X107949500Y-71845135D01*
X107937695Y-71898385D01*
X107869108Y-72045472D01*
X107858716Y-72067757D01*
X107857294Y-72073065D01*
X107857293Y-72073067D01*
X107800881Y-72283598D01*
X107799457Y-72288913D01*
X107779502Y-72517000D01*
X107799457Y-72745087D01*
X107800881Y-72750400D01*
X107800881Y-72750402D01*
X107836933Y-72884947D01*
X107858716Y-72966243D01*
X107861039Y-72971224D01*
X107861039Y-72971225D01*
X107937695Y-73135615D01*
X107949500Y-73188865D01*
X107949500Y-77069500D01*
X107929498Y-77137621D01*
X107875842Y-77184114D01*
X107823500Y-77195500D01*
X104435274Y-77195500D01*
X104367153Y-77175498D01*
X104320660Y-77121842D01*
X104309753Y-77080482D01*
X104300665Y-76976609D01*
X104290543Y-76860913D01*
X104231284Y-76639757D01*
X104228961Y-76634775D01*
X104136849Y-76437238D01*
X104136846Y-76437233D01*
X104134523Y-76432251D01*
X104003198Y-76244700D01*
X103841300Y-76082802D01*
X103836792Y-76079645D01*
X103836789Y-76079643D01*
X103692079Y-75978316D01*
X103653749Y-75951477D01*
X103648767Y-75949154D01*
X103648762Y-75949151D01*
X103451225Y-75857039D01*
X103451224Y-75857039D01*
X103446243Y-75854716D01*
X103440935Y-75853294D01*
X103440933Y-75853293D01*
X103230402Y-75796881D01*
X103230400Y-75796881D01*
X103225087Y-75795457D01*
X102997000Y-75775502D01*
X102768913Y-75795457D01*
X102763600Y-75796881D01*
X102763598Y-75796881D01*
X102553067Y-75853293D01*
X102553065Y-75853294D01*
X102547757Y-75854716D01*
X102542776Y-75857039D01*
X102542775Y-75857039D01*
X102345238Y-75949151D01*
X102345233Y-75949154D01*
X102340251Y-75951477D01*
X102301921Y-75978316D01*
X102157211Y-76079643D01*
X102157208Y-76079645D01*
X102152700Y-76082802D01*
X101990802Y-76244700D01*
X101859477Y-76432251D01*
X101857154Y-76437233D01*
X101857151Y-76437238D01*
X101765039Y-76634775D01*
X101762716Y-76639757D01*
X101703457Y-76860913D01*
X101683502Y-77089000D01*
X101703457Y-77317087D01*
X101762716Y-77538243D01*
X101819842Y-77660752D01*
X101830503Y-77730942D01*
X101819843Y-77767246D01*
X101762716Y-77889757D01*
X101703457Y-78110913D01*
X101683502Y-78339000D01*
X96012000Y-78339000D01*
X96012000Y-68291469D01*
X100060095Y-68291469D01*
X100060392Y-68296622D01*
X100060392Y-68296625D01*
X100073129Y-68517529D01*
X100073427Y-68522697D01*
X100074564Y-68527743D01*
X100074565Y-68527749D01*
X100099816Y-68639793D01*
X100124346Y-68748642D01*
X100126288Y-68753424D01*
X100126289Y-68753428D01*
X100209540Y-68958450D01*
X100211484Y-68963237D01*
X100304816Y-69115541D01*
X100310933Y-69125523D01*
X100329500Y-69191358D01*
X100329500Y-71845135D01*
X100317695Y-71898385D01*
X100249108Y-72045472D01*
X100238716Y-72067757D01*
X100237294Y-72073065D01*
X100237293Y-72073067D01*
X100180881Y-72283598D01*
X100179457Y-72288913D01*
X100159502Y-72517000D01*
X100179457Y-72745087D01*
X100180881Y-72750400D01*
X100180881Y-72750402D01*
X100216933Y-72884947D01*
X100238716Y-72966243D01*
X100241039Y-72971224D01*
X100241039Y-72971225D01*
X100333151Y-73168762D01*
X100333154Y-73168767D01*
X100335477Y-73173749D01*
X100388802Y-73249905D01*
X100447354Y-73333525D01*
X100466802Y-73361300D01*
X100628700Y-73523198D01*
X100633208Y-73526355D01*
X100633211Y-73526357D01*
X100675950Y-73556283D01*
X100816251Y-73654523D01*
X100821233Y-73656846D01*
X100821238Y-73656849D01*
X101018775Y-73748961D01*
X101023757Y-73751284D01*
X101029065Y-73752706D01*
X101029067Y-73752707D01*
X101239598Y-73809119D01*
X101239600Y-73809119D01*
X101244913Y-73810543D01*
X101473000Y-73830498D01*
X101701087Y-73810543D01*
X101706400Y-73809119D01*
X101706402Y-73809119D01*
X101916933Y-73752707D01*
X101916935Y-73752706D01*
X101922243Y-73751284D01*
X101927225Y-73748961D01*
X102124762Y-73656849D01*
X102124767Y-73656846D01*
X102129749Y-73654523D01*
X102270050Y-73556283D01*
X102312789Y-73526357D01*
X102312792Y-73526355D01*
X102317300Y-73523198D01*
X102479198Y-73361300D01*
X102498647Y-73333525D01*
X102557198Y-73249905D01*
X102610523Y-73173749D01*
X102612846Y-73168767D01*
X102612849Y-73168762D01*
X102704961Y-72971225D01*
X102704961Y-72971224D01*
X102707284Y-72966243D01*
X102729068Y-72884947D01*
X102765119Y-72750402D01*
X102765119Y-72750400D01*
X102766543Y-72745087D01*
X102786498Y-72517000D01*
X102766543Y-72288913D01*
X102765119Y-72283598D01*
X102708707Y-72073067D01*
X102708706Y-72073065D01*
X102707284Y-72067757D01*
X102696893Y-72045472D01*
X102628305Y-71898385D01*
X102616500Y-71845135D01*
X102616500Y-69189067D01*
X102640177Y-69115541D01*
X102681440Y-69058117D01*
X102684458Y-69053917D01*
X102731641Y-68958450D01*
X102784784Y-68850922D01*
X102784785Y-68850920D01*
X102787078Y-68846280D01*
X102854408Y-68624671D01*
X102884640Y-68395041D01*
X102886327Y-68326000D01*
X102877922Y-68223771D01*
X102867773Y-68100318D01*
X102867772Y-68100312D01*
X102867349Y-68095167D01*
X102810925Y-67870533D01*
X102808866Y-67865797D01*
X102720630Y-67662868D01*
X102720628Y-67662865D01*
X102718570Y-67658131D01*
X102592764Y-67463665D01*
X102502486Y-67364450D01*
X102471434Y-67300605D01*
X102479829Y-67230106D01*
X102525005Y-67175338D01*
X102551449Y-67161669D01*
X102611054Y-67139324D01*
X102626649Y-67130786D01*
X102728724Y-67054285D01*
X102741285Y-67041724D01*
X102817786Y-66939649D01*
X102826324Y-66924054D01*
X102871478Y-66803606D01*
X102875105Y-66788351D01*
X102880631Y-66737486D01*
X102881000Y-66730672D01*
X102881000Y-66058115D01*
X102876525Y-66042876D01*
X102875135Y-66041671D01*
X102867452Y-66040000D01*
X100083116Y-66040000D01*
X100067877Y-66044475D01*
X100066672Y-66045865D01*
X100065001Y-66053548D01*
X100065001Y-66730669D01*
X100065371Y-66737490D01*
X100070895Y-66788352D01*
X100074521Y-66803604D01*
X100119676Y-66924054D01*
X100128214Y-66939649D01*
X100204715Y-67041724D01*
X100217276Y-67054285D01*
X100319351Y-67130786D01*
X100334946Y-67139324D01*
X100394540Y-67161665D01*
X100451304Y-67204307D01*
X100476004Y-67270868D01*
X100460796Y-67340217D01*
X100441404Y-67366698D01*
X100374639Y-67436564D01*
X100371725Y-67440836D01*
X100371724Y-67440837D01*
X100356152Y-67463665D01*
X100244119Y-67627899D01*
X100146602Y-67837981D01*
X100084707Y-68061169D01*
X100060095Y-68291469D01*
X96012000Y-68291469D01*
X96012000Y-65513885D01*
X100065000Y-65513885D01*
X100069475Y-65529124D01*
X100070865Y-65530329D01*
X100078548Y-65532000D01*
X101200885Y-65532000D01*
X101216124Y-65527525D01*
X101217329Y-65526135D01*
X101219000Y-65518452D01*
X101219000Y-65513885D01*
X101727000Y-65513885D01*
X101731475Y-65529124D01*
X101732865Y-65530329D01*
X101740548Y-65532000D01*
X102862884Y-65532000D01*
X102878123Y-65527525D01*
X102879328Y-65526135D01*
X102880999Y-65518452D01*
X102880999Y-64841331D01*
X102880629Y-64834510D01*
X102875105Y-64783648D01*
X102871479Y-64768396D01*
X102826324Y-64647946D01*
X102817786Y-64632351D01*
X102741285Y-64530276D01*
X102728724Y-64517715D01*
X102626649Y-64441214D01*
X102611054Y-64432676D01*
X102490606Y-64387522D01*
X102475351Y-64383895D01*
X102424486Y-64378369D01*
X102417672Y-64378000D01*
X101745115Y-64378000D01*
X101729876Y-64382475D01*
X101728671Y-64383865D01*
X101727000Y-64391548D01*
X101727000Y-65513885D01*
X101219000Y-65513885D01*
X101219000Y-64396116D01*
X101214525Y-64380877D01*
X101213135Y-64379672D01*
X101205452Y-64378001D01*
X100528331Y-64378001D01*
X100521510Y-64378371D01*
X100470648Y-64383895D01*
X100455396Y-64387521D01*
X100334946Y-64432676D01*
X100319351Y-64441214D01*
X100217276Y-64517715D01*
X100204715Y-64530276D01*
X100128214Y-64632351D01*
X100119676Y-64647946D01*
X100074522Y-64768394D01*
X100070895Y-64783649D01*
X100065369Y-64834514D01*
X100065000Y-64841328D01*
X100065000Y-65513885D01*
X96012000Y-65513885D01*
X96012000Y-58258526D01*
X105019050Y-58258526D01*
X105019274Y-58263192D01*
X105019274Y-58263197D01*
X105020078Y-58279928D01*
X105031947Y-58527019D01*
X105084388Y-58790656D01*
X105175220Y-59043646D01*
X105177432Y-59047762D01*
X105177433Y-59047765D01*
X105217816Y-59122921D01*
X105302450Y-59280431D01*
X105305241Y-59284168D01*
X105305245Y-59284175D01*
X105386887Y-59393506D01*
X105463281Y-59495810D01*
X105466590Y-59499090D01*
X105466595Y-59499096D01*
X105610801Y-59642048D01*
X105654180Y-59685050D01*
X105657942Y-59687808D01*
X105657945Y-59687811D01*
X105770299Y-59770192D01*
X105870954Y-59843995D01*
X105875089Y-59846171D01*
X105875093Y-59846173D01*
X106104698Y-59966975D01*
X106108840Y-59969154D01*
X106138521Y-59979519D01*
X106357748Y-60056076D01*
X106362613Y-60057775D01*
X106367206Y-60058647D01*
X106622109Y-60107042D01*
X106622112Y-60107042D01*
X106626698Y-60107913D01*
X106754370Y-60112929D01*
X106890625Y-60118283D01*
X106890630Y-60118283D01*
X106895293Y-60118466D01*
X106999607Y-60107042D01*
X107157844Y-60089713D01*
X107157850Y-60089712D01*
X107162497Y-60089203D01*
X107167021Y-60088012D01*
X107417918Y-60021956D01*
X107417920Y-60021955D01*
X107422441Y-60020765D01*
X107472116Y-59999423D01*
X107665120Y-59916502D01*
X107665122Y-59916501D01*
X107669414Y-59914657D01*
X107830946Y-59814698D01*
X107894017Y-59775669D01*
X107894021Y-59775666D01*
X107897990Y-59773210D01*
X108103149Y-59599530D01*
X108280382Y-59397434D01*
X108283497Y-59392592D01*
X108423269Y-59175291D01*
X108425797Y-59171361D01*
X108447618Y-59122921D01*
X108493833Y-59069026D01*
X108561850Y-59048673D01*
X108630073Y-59068323D01*
X108676842Y-59121738D01*
X108688500Y-59174671D01*
X108688500Y-60513581D01*
X108668498Y-60581702D01*
X108615751Y-60627776D01*
X108436251Y-60711477D01*
X108347405Y-60773688D01*
X108253211Y-60839643D01*
X108253208Y-60839645D01*
X108248700Y-60842802D01*
X108086802Y-61004700D01*
X107955477Y-61192251D01*
X107953154Y-61197233D01*
X107953151Y-61197238D01*
X107875211Y-61364383D01*
X107858716Y-61399757D01*
X107857294Y-61405065D01*
X107857293Y-61405067D01*
X107801575Y-61613007D01*
X107799457Y-61620913D01*
X107779502Y-61849000D01*
X107799457Y-62077087D01*
X107800881Y-62082400D01*
X107800881Y-62082402D01*
X107850560Y-62267803D01*
X107858716Y-62298243D01*
X107861039Y-62303224D01*
X107861039Y-62303225D01*
X107953151Y-62500762D01*
X107953154Y-62500767D01*
X107955477Y-62505749D01*
X108086802Y-62693300D01*
X108248700Y-62855198D01*
X108253208Y-62858355D01*
X108253211Y-62858357D01*
X108331389Y-62913098D01*
X108436251Y-62986523D01*
X108441233Y-62988846D01*
X108441238Y-62988849D01*
X108587712Y-63057150D01*
X108643757Y-63083284D01*
X108649065Y-63084706D01*
X108649067Y-63084707D01*
X108859598Y-63141119D01*
X108859600Y-63141119D01*
X108864913Y-63142543D01*
X109093000Y-63162498D01*
X109321087Y-63142543D01*
X109326400Y-63141119D01*
X109326402Y-63141119D01*
X109536933Y-63084707D01*
X109536935Y-63084706D01*
X109542243Y-63083284D01*
X109598288Y-63057150D01*
X109744762Y-62988849D01*
X109744767Y-62988846D01*
X109749749Y-62986523D01*
X109854611Y-62913098D01*
X109932789Y-62858357D01*
X109932792Y-62858355D01*
X109937300Y-62855198D01*
X110099198Y-62693300D01*
X110230523Y-62505749D01*
X110232846Y-62500767D01*
X110232849Y-62500762D01*
X110281975Y-62395409D01*
X110327284Y-62298243D01*
X110335441Y-62267803D01*
X110337328Y-62260757D01*
X110342841Y-62240184D01*
X110375453Y-62183700D01*
X110610304Y-61948849D01*
X110616322Y-61943212D01*
X110647469Y-61915897D01*
X110665019Y-61900506D01*
X110719798Y-61831018D01*
X110721876Y-61828453D01*
X110774734Y-61764900D01*
X110774738Y-61764895D01*
X110778426Y-61760460D01*
X110781245Y-61755426D01*
X110783314Y-61752416D01*
X110789508Y-61743146D01*
X110791551Y-61740001D01*
X110795128Y-61735463D01*
X110798832Y-61728424D01*
X110826775Y-61675312D01*
X110836318Y-61657174D01*
X110837887Y-61654284D01*
X110878291Y-61582139D01*
X110878292Y-61582137D01*
X110881115Y-61577096D01*
X110882972Y-61571624D01*
X110884486Y-61568224D01*
X110888873Y-61558013D01*
X110890295Y-61554579D01*
X110892982Y-61549473D01*
X110897249Y-61535732D01*
X110919212Y-61465001D01*
X110920231Y-61461865D01*
X110941313Y-61399757D01*
X110948669Y-61378088D01*
X110949498Y-61372375D01*
X110950341Y-61368862D01*
X110952836Y-61357834D01*
X110953591Y-61354285D01*
X110955304Y-61348766D01*
X110965700Y-61260926D01*
X110966130Y-61257661D01*
X110966519Y-61254982D01*
X110970211Y-61229519D01*
X110977998Y-61175816D01*
X110977998Y-61175812D01*
X110978826Y-61170103D01*
X110975597Y-61087930D01*
X110975500Y-61082983D01*
X110975500Y-55540500D01*
X110995502Y-55472379D01*
X111049158Y-55425886D01*
X111101500Y-55414500D01*
X111180134Y-55414500D01*
X111242316Y-55407745D01*
X111378705Y-55356615D01*
X111495261Y-55269261D01*
X111582615Y-55152705D01*
X111633745Y-55016316D01*
X111640500Y-54954134D01*
X111640500Y-52257866D01*
X111633745Y-52195684D01*
X111582615Y-52059295D01*
X111531674Y-51991324D01*
X111506826Y-51924819D01*
X111506500Y-51915760D01*
X111506500Y-44889571D01*
X111526502Y-44821450D01*
X111556935Y-44788745D01*
X111569081Y-44779642D01*
X111576261Y-44774261D01*
X111663615Y-44657705D01*
X111714745Y-44521316D01*
X111721500Y-44459134D01*
X111721500Y-42662866D01*
X111714745Y-42600684D01*
X111663615Y-42464295D01*
X111576261Y-42347739D01*
X111556935Y-42333255D01*
X111514420Y-42276396D01*
X111506500Y-42232429D01*
X111506500Y-41798379D01*
X111527610Y-41732816D01*
X111525771Y-41731711D01*
X111528436Y-41727276D01*
X111531453Y-41723077D01*
X111544995Y-41695678D01*
X111628136Y-41527453D01*
X111628137Y-41527451D01*
X111630430Y-41522811D01*
X111695370Y-41309069D01*
X111724529Y-41087590D01*
X111726156Y-41021000D01*
X111707852Y-40798361D01*
X111653431Y-40581702D01*
X111564354Y-40376840D01*
X111475574Y-40239607D01*
X111445822Y-40193617D01*
X111445820Y-40193614D01*
X111443014Y-40189277D01*
X111292670Y-40024051D01*
X111288619Y-40020852D01*
X111288615Y-40020848D01*
X111121414Y-39888800D01*
X111121410Y-39888798D01*
X111117359Y-39885598D01*
X111081028Y-39865542D01*
X111065136Y-39856769D01*
X110921789Y-39777638D01*
X110916920Y-39775914D01*
X110916916Y-39775912D01*
X110716087Y-39704795D01*
X110716083Y-39704794D01*
X110711212Y-39703069D01*
X110706119Y-39702162D01*
X110706116Y-39702161D01*
X110496373Y-39664800D01*
X110496367Y-39664799D01*
X110491284Y-39663894D01*
X110417452Y-39662992D01*
X110273081Y-39661228D01*
X110273079Y-39661228D01*
X110267911Y-39661165D01*
X110047091Y-39694955D01*
X109834756Y-39764357D01*
X109636607Y-39867507D01*
X109632474Y-39870610D01*
X109632471Y-39870612D01*
X109608247Y-39888800D01*
X109457965Y-40001635D01*
X109303629Y-40163138D01*
X109300715Y-40167410D01*
X109300714Y-40167411D01*
X109288404Y-40185457D01*
X109197337Y-40318957D01*
X109195898Y-40321066D01*
X109140987Y-40366069D01*
X109070462Y-40374240D01*
X109006715Y-40342986D01*
X108986018Y-40318502D01*
X108905426Y-40193926D01*
X108899136Y-40185757D01*
X108755806Y-40028240D01*
X108748273Y-40021215D01*
X108581139Y-39889222D01*
X108572552Y-39883517D01*
X108386117Y-39780599D01*
X108376705Y-39776369D01*
X108175959Y-39705280D01*
X108165988Y-39702646D01*
X108094837Y-39689972D01*
X108081540Y-39691432D01*
X108077000Y-39705989D01*
X108077000Y-44879517D01*
X108081064Y-44893359D01*
X108094478Y-44895393D01*
X108101184Y-44894534D01*
X108111262Y-44892392D01*
X108315255Y-44831191D01*
X108324842Y-44827433D01*
X108516095Y-44733739D01*
X108524945Y-44728464D01*
X108698328Y-44604792D01*
X108706193Y-44598145D01*
X108810897Y-44493805D01*
X108873268Y-44459889D01*
X108944075Y-44465077D01*
X109000837Y-44507723D01*
X109017819Y-44538826D01*
X109062385Y-44657705D01*
X109149739Y-44774261D01*
X109156919Y-44779642D01*
X109169065Y-44788745D01*
X109211580Y-44845604D01*
X109219500Y-44889571D01*
X109219500Y-51671500D01*
X109199498Y-51739621D01*
X109145842Y-51786114D01*
X109093500Y-51797500D01*
X108483866Y-51797500D01*
X108421684Y-51804255D01*
X108285295Y-51855385D01*
X108168739Y-51942739D01*
X108081385Y-52059295D01*
X108030255Y-52195684D01*
X108023500Y-52257866D01*
X108023500Y-54954134D01*
X108030255Y-55016316D01*
X108081385Y-55152705D01*
X108168739Y-55269261D01*
X108285295Y-55356615D01*
X108421684Y-55407745D01*
X108483866Y-55414500D01*
X108562500Y-55414500D01*
X108630621Y-55434502D01*
X108677114Y-55488158D01*
X108688500Y-55540500D01*
X108688500Y-57435079D01*
X108668498Y-57503200D01*
X108614842Y-57549693D01*
X108544568Y-57559797D01*
X108479988Y-57530303D01*
X108453107Y-57497602D01*
X108379414Y-57368667D01*
X108335518Y-57291864D01*
X108323465Y-57276574D01*
X108254337Y-57188886D01*
X108169105Y-57080769D01*
X107973317Y-56896591D01*
X107813909Y-56786005D01*
X107756299Y-56746039D01*
X107756296Y-56746037D01*
X107752457Y-56743374D01*
X107748264Y-56741306D01*
X107515564Y-56626551D01*
X107515561Y-56626550D01*
X107511376Y-56624486D01*
X107463745Y-56609239D01*
X107368496Y-56578750D01*
X107255370Y-56542538D01*
X107250763Y-56541788D01*
X107250760Y-56541787D01*
X107026229Y-56505220D01*
X106990063Y-56499330D01*
X106859719Y-56497624D01*
X106725961Y-56495873D01*
X106725958Y-56495873D01*
X106721284Y-56495812D01*
X106454937Y-56532060D01*
X106196874Y-56607278D01*
X105952763Y-56719815D01*
X105948854Y-56722378D01*
X105731881Y-56864631D01*
X105731876Y-56864635D01*
X105727968Y-56867197D01*
X105698024Y-56893923D01*
X105534448Y-57039921D01*
X105527426Y-57046188D01*
X105355544Y-57252854D01*
X105216096Y-57482656D01*
X105214287Y-57486970D01*
X105214285Y-57486974D01*
X105119888Y-57712088D01*
X105112148Y-57730545D01*
X105045981Y-57991077D01*
X105019050Y-58258526D01*
X96012000Y-58258526D01*
X96012000Y-55050906D01*
X102751839Y-55050906D01*
X102760553Y-55062427D01*
X102867452Y-55140809D01*
X102875351Y-55145745D01*
X103104905Y-55266519D01*
X103113454Y-55270236D01*
X103358327Y-55355749D01*
X103367336Y-55358163D01*
X103622166Y-55406544D01*
X103631423Y-55407598D01*
X103890607Y-55417783D01*
X103899921Y-55417457D01*
X104157753Y-55389220D01*
X104166930Y-55387519D01*
X104417758Y-55321481D01*
X104426574Y-55318445D01*
X104664880Y-55216062D01*
X104673167Y-55211748D01*
X104893718Y-55075266D01*
X104901268Y-55069780D01*
X104906559Y-55065301D01*
X104914997Y-55052497D01*
X104908935Y-55042145D01*
X103844812Y-53978022D01*
X103830868Y-53970408D01*
X103829035Y-53970539D01*
X103822420Y-53974790D01*
X102758497Y-55038713D01*
X102751839Y-55050906D01*
X96012000Y-55050906D01*
X96012000Y-53563211D01*
X102019775Y-53563211D01*
X102032220Y-53822288D01*
X102033356Y-53831543D01*
X102083961Y-54085945D01*
X102086449Y-54094917D01*
X102174095Y-54339033D01*
X102177895Y-54347568D01*
X102300658Y-54576042D01*
X102305666Y-54583904D01*
X102375720Y-54677716D01*
X102386979Y-54686165D01*
X102399397Y-54679393D01*
X103459978Y-53618812D01*
X103466356Y-53607132D01*
X104196408Y-53607132D01*
X104196539Y-53608965D01*
X104200790Y-53615580D01*
X105268094Y-54682884D01*
X105280474Y-54689644D01*
X105288815Y-54683400D01*
X105422832Y-54475048D01*
X105427275Y-54466864D01*
X105533807Y-54230370D01*
X105536997Y-54221605D01*
X105607402Y-53971972D01*
X105609262Y-53962830D01*
X105642187Y-53704019D01*
X105642668Y-53697733D01*
X105644987Y-53609160D01*
X105644836Y-53602851D01*
X105625501Y-53342663D01*
X105624125Y-53333457D01*
X105566878Y-53080467D01*
X105564154Y-53071556D01*
X105470143Y-52829806D01*
X105466132Y-52821397D01*
X105337422Y-52596202D01*
X105332211Y-52588476D01*
X105288996Y-52533658D01*
X105277071Y-52525187D01*
X105265537Y-52531673D01*
X104204022Y-53593188D01*
X104196408Y-53607132D01*
X103466356Y-53607132D01*
X103467592Y-53604868D01*
X103467461Y-53603035D01*
X103463210Y-53596420D01*
X102397816Y-52531026D01*
X102384507Y-52523758D01*
X102374472Y-52530878D01*
X102358937Y-52549556D01*
X102353531Y-52557135D01*
X102218965Y-52778891D01*
X102214736Y-52787192D01*
X102114432Y-53026389D01*
X102111471Y-53035239D01*
X102047628Y-53286625D01*
X102046006Y-53295822D01*
X102020020Y-53553885D01*
X102019775Y-53563211D01*
X96012000Y-53563211D01*
X96012000Y-52158689D01*
X102749102Y-52158689D01*
X102753675Y-52168465D01*
X103819188Y-53233978D01*
X103833132Y-53241592D01*
X103834965Y-53241461D01*
X103841580Y-53237210D01*
X104906349Y-52172441D01*
X104912733Y-52160751D01*
X104903321Y-52148641D01*
X104756045Y-52046471D01*
X104748010Y-52041738D01*
X104515376Y-51927016D01*
X104506743Y-51923528D01*
X104259703Y-51844450D01*
X104250643Y-51842274D01*
X103994630Y-51800580D01*
X103985343Y-51799768D01*
X103725992Y-51796373D01*
X103716681Y-51796943D01*
X103459682Y-51831919D01*
X103450546Y-51833860D01*
X103201543Y-51906439D01*
X103192800Y-51909707D01*
X102957252Y-52018296D01*
X102949097Y-52022816D01*
X102758240Y-52147947D01*
X102749102Y-52158689D01*
X96012000Y-52158689D01*
X96012000Y-43527695D01*
X98840251Y-43527695D01*
X98840548Y-43532848D01*
X98840548Y-43532851D01*
X98841968Y-43557478D01*
X98853110Y-43750715D01*
X98854247Y-43755761D01*
X98854248Y-43755767D01*
X98868606Y-43819475D01*
X98902222Y-43968639D01*
X98986266Y-44175616D01*
X99013686Y-44220362D01*
X99100104Y-44361383D01*
X99102987Y-44366088D01*
X99249250Y-44534938D01*
X99421126Y-44677632D01*
X99614000Y-44790338D01*
X99822692Y-44870030D01*
X99827760Y-44871061D01*
X99827763Y-44871062D01*
X99918738Y-44889571D01*
X100041597Y-44914567D01*
X100046772Y-44914757D01*
X100046774Y-44914757D01*
X100259673Y-44922564D01*
X100259677Y-44922564D01*
X100264837Y-44922753D01*
X100269957Y-44922097D01*
X100269959Y-44922097D01*
X100481288Y-44895025D01*
X100481289Y-44895025D01*
X100486416Y-44894368D01*
X100491366Y-44892883D01*
X100695429Y-44831661D01*
X100695434Y-44831659D01*
X100700384Y-44830174D01*
X100900994Y-44731896D01*
X101082860Y-44602173D01*
X101241096Y-44444489D01*
X101300594Y-44361689D01*
X101371453Y-44263077D01*
X101372640Y-44263930D01*
X101419960Y-44220362D01*
X101489897Y-44208145D01*
X101555338Y-44235678D01*
X101583166Y-44267511D01*
X101640694Y-44361388D01*
X101646777Y-44369699D01*
X101786213Y-44530667D01*
X101793580Y-44537883D01*
X101957434Y-44673916D01*
X101965881Y-44679831D01*
X102149756Y-44787279D01*
X102159042Y-44791729D01*
X102358001Y-44867703D01*
X102367899Y-44870579D01*
X102471250Y-44891606D01*
X102485299Y-44890410D01*
X102489000Y-44880065D01*
X102489000Y-44879517D01*
X102997000Y-44879517D01*
X103001064Y-44893359D01*
X103014478Y-44895393D01*
X103021184Y-44894534D01*
X103031262Y-44892392D01*
X103235255Y-44831191D01*
X103244842Y-44827433D01*
X103436095Y-44733739D01*
X103444945Y-44728464D01*
X103618328Y-44604792D01*
X103626200Y-44598139D01*
X103777052Y-44447812D01*
X103783730Y-44439965D01*
X103911022Y-44262819D01*
X103912147Y-44263627D01*
X103959669Y-44219876D01*
X104029607Y-44207661D01*
X104095046Y-44235197D01*
X104122870Y-44267028D01*
X104180690Y-44361383D01*
X104186777Y-44369699D01*
X104326213Y-44530667D01*
X104333580Y-44537883D01*
X104497434Y-44673916D01*
X104505881Y-44679831D01*
X104689756Y-44787279D01*
X104699042Y-44791729D01*
X104898001Y-44867703D01*
X104907899Y-44870579D01*
X105011250Y-44891606D01*
X105025299Y-44890410D01*
X105029000Y-44880065D01*
X105029000Y-44879517D01*
X105537000Y-44879517D01*
X105541064Y-44893359D01*
X105554478Y-44895393D01*
X105561184Y-44894534D01*
X105571262Y-44892392D01*
X105775255Y-44831191D01*
X105784842Y-44827433D01*
X105976095Y-44733739D01*
X105984945Y-44728464D01*
X106158328Y-44604792D01*
X106166200Y-44598139D01*
X106317052Y-44447812D01*
X106323730Y-44439965D01*
X106451022Y-44262819D01*
X106452147Y-44263627D01*
X106499669Y-44219876D01*
X106569607Y-44207661D01*
X106635046Y-44235197D01*
X106662870Y-44267028D01*
X106720690Y-44361383D01*
X106726777Y-44369699D01*
X106866213Y-44530667D01*
X106873580Y-44537883D01*
X107037434Y-44673916D01*
X107045881Y-44679831D01*
X107229756Y-44787279D01*
X107239042Y-44791729D01*
X107438001Y-44867703D01*
X107447899Y-44870579D01*
X107551250Y-44891606D01*
X107565299Y-44890410D01*
X107569000Y-44880065D01*
X107569000Y-43833115D01*
X107564525Y-43817876D01*
X107563135Y-43816671D01*
X107555452Y-43815000D01*
X105555115Y-43815000D01*
X105539876Y-43819475D01*
X105538671Y-43820865D01*
X105537000Y-43828548D01*
X105537000Y-44879517D01*
X105029000Y-44879517D01*
X105029000Y-43833115D01*
X105024525Y-43817876D01*
X105023135Y-43816671D01*
X105015452Y-43815000D01*
X103015115Y-43815000D01*
X102999876Y-43819475D01*
X102998671Y-43820865D01*
X102997000Y-43828548D01*
X102997000Y-44879517D01*
X102489000Y-44879517D01*
X102489000Y-43288885D01*
X102997000Y-43288885D01*
X103001475Y-43304124D01*
X103002865Y-43305329D01*
X103010548Y-43307000D01*
X105010885Y-43307000D01*
X105026124Y-43302525D01*
X105027329Y-43301135D01*
X105029000Y-43293452D01*
X105029000Y-43288885D01*
X105537000Y-43288885D01*
X105541475Y-43304124D01*
X105542865Y-43305329D01*
X105550548Y-43307000D01*
X107550885Y-43307000D01*
X107566124Y-43302525D01*
X107567329Y-43301135D01*
X107569000Y-43293452D01*
X107569000Y-41293115D01*
X107564525Y-41277876D01*
X107563135Y-41276671D01*
X107555452Y-41275000D01*
X105555115Y-41275000D01*
X105539876Y-41279475D01*
X105538671Y-41280865D01*
X105537000Y-41288548D01*
X105537000Y-43288885D01*
X105029000Y-43288885D01*
X105029000Y-41293115D01*
X105024525Y-41277876D01*
X105023135Y-41276671D01*
X105015452Y-41275000D01*
X103015115Y-41275000D01*
X102999876Y-41279475D01*
X102998671Y-41280865D01*
X102997000Y-41288548D01*
X102997000Y-43288885D01*
X102489000Y-43288885D01*
X102489000Y-40748885D01*
X102997000Y-40748885D01*
X103001475Y-40764124D01*
X103002865Y-40765329D01*
X103010548Y-40767000D01*
X105010885Y-40767000D01*
X105026124Y-40762525D01*
X105027329Y-40761135D01*
X105029000Y-40753452D01*
X105029000Y-40748885D01*
X105537000Y-40748885D01*
X105541475Y-40764124D01*
X105542865Y-40765329D01*
X105550548Y-40767000D01*
X107550885Y-40767000D01*
X107566124Y-40762525D01*
X107567329Y-40761135D01*
X107569000Y-40753452D01*
X107569000Y-39704102D01*
X107565082Y-39690758D01*
X107550806Y-39688771D01*
X107512324Y-39694660D01*
X107502288Y-39697051D01*
X107299868Y-39763212D01*
X107290359Y-39767209D01*
X107101463Y-39865542D01*
X107092738Y-39871036D01*
X106922433Y-39998905D01*
X106914726Y-40005748D01*
X106767590Y-40159717D01*
X106761104Y-40167727D01*
X106656193Y-40321521D01*
X106601282Y-40366524D01*
X106530757Y-40374695D01*
X106467010Y-40343441D01*
X106446313Y-40318957D01*
X106365427Y-40193926D01*
X106359136Y-40185757D01*
X106215806Y-40028240D01*
X106208273Y-40021215D01*
X106041139Y-39889222D01*
X106032552Y-39883517D01*
X105846117Y-39780599D01*
X105836705Y-39776369D01*
X105635959Y-39705280D01*
X105625988Y-39702646D01*
X105554837Y-39689972D01*
X105541540Y-39691432D01*
X105537000Y-39705989D01*
X105537000Y-40748885D01*
X105029000Y-40748885D01*
X105029000Y-39704102D01*
X105025082Y-39690758D01*
X105010806Y-39688771D01*
X104972324Y-39694660D01*
X104962288Y-39697051D01*
X104759868Y-39763212D01*
X104750359Y-39767209D01*
X104561463Y-39865542D01*
X104552738Y-39871036D01*
X104382433Y-39998905D01*
X104374726Y-40005748D01*
X104227590Y-40159717D01*
X104221104Y-40167727D01*
X104116193Y-40321521D01*
X104061282Y-40366524D01*
X103990757Y-40374695D01*
X103927010Y-40343441D01*
X103906313Y-40318957D01*
X103825427Y-40193926D01*
X103819136Y-40185757D01*
X103675806Y-40028240D01*
X103668273Y-40021215D01*
X103501139Y-39889222D01*
X103492552Y-39883517D01*
X103306117Y-39780599D01*
X103296705Y-39776369D01*
X103095959Y-39705280D01*
X103085988Y-39702646D01*
X103014837Y-39689972D01*
X103001540Y-39691432D01*
X102997000Y-39705989D01*
X102997000Y-40748885D01*
X102489000Y-40748885D01*
X102489000Y-39704102D01*
X102485082Y-39690758D01*
X102470806Y-39688771D01*
X102432324Y-39694660D01*
X102422288Y-39697051D01*
X102219868Y-39763212D01*
X102210359Y-39767209D01*
X102021463Y-39865542D01*
X102012738Y-39871036D01*
X101842433Y-39998905D01*
X101834726Y-40005748D01*
X101687590Y-40159717D01*
X101681109Y-40167722D01*
X101576498Y-40321074D01*
X101521587Y-40366076D01*
X101451062Y-40374247D01*
X101387315Y-40342993D01*
X101366618Y-40318509D01*
X101285822Y-40193617D01*
X101285820Y-40193614D01*
X101283014Y-40189277D01*
X101132670Y-40024051D01*
X101128619Y-40020852D01*
X101128615Y-40020848D01*
X100961414Y-39888800D01*
X100961410Y-39888798D01*
X100957359Y-39885598D01*
X100921028Y-39865542D01*
X100905136Y-39856769D01*
X100761789Y-39777638D01*
X100756920Y-39775914D01*
X100756916Y-39775912D01*
X100556087Y-39704795D01*
X100556083Y-39704794D01*
X100551212Y-39703069D01*
X100546119Y-39702162D01*
X100546116Y-39702161D01*
X100336373Y-39664800D01*
X100336367Y-39664799D01*
X100331284Y-39663894D01*
X100257452Y-39662992D01*
X100113081Y-39661228D01*
X100113079Y-39661228D01*
X100107911Y-39661165D01*
X99887091Y-39694955D01*
X99674756Y-39764357D01*
X99476607Y-39867507D01*
X99472474Y-39870610D01*
X99472471Y-39870612D01*
X99448247Y-39888800D01*
X99297965Y-40001635D01*
X99143629Y-40163138D01*
X99140715Y-40167410D01*
X99140714Y-40167411D01*
X99128404Y-40185457D01*
X99017743Y-40347680D01*
X98923688Y-40550305D01*
X98863989Y-40765570D01*
X98840251Y-40987695D01*
X98840548Y-40992848D01*
X98840548Y-40992851D01*
X98847135Y-41107092D01*
X98853110Y-41210715D01*
X98854247Y-41215761D01*
X98854248Y-41215767D01*
X98873939Y-41303138D01*
X98902222Y-41428639D01*
X98986266Y-41635616D01*
X99013686Y-41680362D01*
X99100104Y-41821383D01*
X99102987Y-41826088D01*
X99249250Y-41994938D01*
X99421126Y-42137632D01*
X99491595Y-42178811D01*
X99494445Y-42180476D01*
X99543169Y-42232114D01*
X99556240Y-42301897D01*
X99529509Y-42367669D01*
X99489055Y-42401027D01*
X99476607Y-42407507D01*
X99472474Y-42410610D01*
X99472471Y-42410612D01*
X99302100Y-42538530D01*
X99297965Y-42541635D01*
X99143629Y-42703138D01*
X99140715Y-42707410D01*
X99140714Y-42707411D01*
X99140207Y-42708154D01*
X99017743Y-42887680D01*
X98988044Y-42951662D01*
X98932757Y-43070768D01*
X98923688Y-43090305D01*
X98863989Y-43305570D01*
X98840251Y-43527695D01*
X96012000Y-43527695D01*
X96012000Y-34974327D01*
X96013500Y-34954942D01*
X96015805Y-34940141D01*
X96015805Y-34940138D01*
X96017186Y-34931269D01*
X96016385Y-34925148D01*
X96036803Y-34858626D01*
X96091022Y-34812791D01*
X96132865Y-34804223D01*
X96132729Y-34803186D01*
X96164251Y-34799064D01*
X96180588Y-34798000D01*
X169495673Y-34798000D01*
X169515058Y-34799500D01*
G37*
%TD.AperFunction*%
%TA.AperFunction,Conductor*%
G36*
X118002367Y-84378953D02*
G01*
X118059203Y-84421500D01*
X118073044Y-84449152D01*
X118077865Y-84453329D01*
X118085548Y-84455000D01*
X119508000Y-84455000D01*
X119576121Y-84475002D01*
X119622614Y-84528658D01*
X119634000Y-84581000D01*
X119634000Y-84837000D01*
X119613998Y-84905121D01*
X119560342Y-84951614D01*
X119508000Y-84963000D01*
X118090116Y-84963000D01*
X118074877Y-84967475D01*
X118073672Y-84968865D01*
X118072001Y-84976548D01*
X118072001Y-85217500D01*
X118051999Y-85285621D01*
X117998343Y-85332114D01*
X117946001Y-85343500D01*
X117296678Y-85343500D01*
X117228557Y-85323498D01*
X117182064Y-85269842D01*
X117171960Y-85199568D01*
X117181229Y-85168457D01*
X117181077Y-85168402D01*
X117182006Y-85165848D01*
X117182482Y-85164252D01*
X117182962Y-85163223D01*
X117182963Y-85163221D01*
X117185284Y-85158243D01*
X117200841Y-85100185D01*
X117233452Y-85043702D01*
X117869240Y-84407914D01*
X117931552Y-84373888D01*
X118002367Y-84378953D01*
G37*
%TD.AperFunction*%
%TA.AperFunction,Conductor*%
G36*
X117271278Y-73680502D02*
G01*
X117292252Y-73697405D01*
X118097547Y-74502700D01*
X118130159Y-74559184D01*
X118145716Y-74617243D01*
X118173809Y-74677489D01*
X118224695Y-74786615D01*
X118236500Y-74839865D01*
X118236500Y-76417135D01*
X118224695Y-76470385D01*
X118148041Y-76634772D01*
X118145716Y-76639757D01*
X118086457Y-76860913D01*
X118066502Y-77089000D01*
X118066981Y-77094475D01*
X118066981Y-77094476D01*
X118084110Y-77290265D01*
X118070121Y-77359869D01*
X118020721Y-77410862D01*
X117951595Y-77427052D01*
X117884690Y-77403299D01*
X117869494Y-77390341D01*
X117233453Y-76754300D01*
X117200841Y-76697816D01*
X117186708Y-76645071D01*
X117186707Y-76645067D01*
X117185284Y-76639757D01*
X117106305Y-76470385D01*
X117090849Y-76437238D01*
X117090846Y-76437233D01*
X117088523Y-76432251D01*
X116957198Y-76244700D01*
X116795300Y-76082802D01*
X116790792Y-76079645D01*
X116790789Y-76079643D01*
X116646079Y-75978316D01*
X116607749Y-75951477D01*
X116602767Y-75949154D01*
X116602762Y-75949151D01*
X116405225Y-75857039D01*
X116405224Y-75857039D01*
X116400243Y-75854716D01*
X116394935Y-75853294D01*
X116394933Y-75853293D01*
X116184402Y-75796881D01*
X116184400Y-75796881D01*
X116179087Y-75795457D01*
X115951000Y-75775502D01*
X115722913Y-75795457D01*
X115717600Y-75796881D01*
X115717598Y-75796881D01*
X115507067Y-75853293D01*
X115507065Y-75853294D01*
X115501757Y-75854716D01*
X115496776Y-75857039D01*
X115496775Y-75857039D01*
X115299238Y-75949151D01*
X115299233Y-75949154D01*
X115294251Y-75951477D01*
X115255921Y-75978316D01*
X115111211Y-76079643D01*
X115111208Y-76079645D01*
X115106700Y-76082802D01*
X114944802Y-76244700D01*
X114813477Y-76432251D01*
X114811154Y-76437233D01*
X114811151Y-76437238D01*
X114719039Y-76634775D01*
X114716716Y-76639757D01*
X114657457Y-76860913D01*
X114637502Y-77089000D01*
X114657457Y-77317087D01*
X114658881Y-77322400D01*
X114658881Y-77322402D01*
X114694824Y-77456540D01*
X114716716Y-77538243D01*
X114719038Y-77543223D01*
X114719039Y-77543225D01*
X114811151Y-77740762D01*
X114811154Y-77740767D01*
X114813477Y-77745749D01*
X114849523Y-77797228D01*
X114932156Y-77915239D01*
X114944802Y-77933300D01*
X115106700Y-78095198D01*
X115111208Y-78098355D01*
X115111211Y-78098357D01*
X115150244Y-78125688D01*
X115294251Y-78226523D01*
X115299233Y-78228846D01*
X115299238Y-78228849D01*
X115496771Y-78320959D01*
X115501757Y-78323284D01*
X115539976Y-78333525D01*
X115559815Y-78338841D01*
X115616298Y-78371452D01*
X116800669Y-79555823D01*
X116806306Y-79561841D01*
X116849005Y-79610530D01*
X116853536Y-79614102D01*
X116918465Y-79665288D01*
X116921028Y-79667364D01*
X116942059Y-79684855D01*
X116989050Y-79723937D01*
X116994088Y-79726758D01*
X116997075Y-79728811D01*
X117006403Y-79735044D01*
X117009514Y-79737064D01*
X117014048Y-79740639D01*
X117019155Y-79743326D01*
X117019166Y-79743333D01*
X117092324Y-79781823D01*
X117095223Y-79783396D01*
X117172415Y-79826625D01*
X117177875Y-79828478D01*
X117181175Y-79829948D01*
X117191564Y-79834411D01*
X117194927Y-79835804D01*
X117200038Y-79838493D01*
X117205554Y-79840206D01*
X117205557Y-79840207D01*
X117223412Y-79845751D01*
X117284541Y-79864733D01*
X117287600Y-79865726D01*
X117371423Y-79894180D01*
X117377137Y-79895009D01*
X117380649Y-79895852D01*
X117391662Y-79898344D01*
X117395229Y-79899102D01*
X117400745Y-79900815D01*
X117406473Y-79901493D01*
X117406478Y-79901494D01*
X117454768Y-79907209D01*
X117488629Y-79911217D01*
X117491851Y-79911641D01*
X117579408Y-79924336D01*
X117661565Y-79921108D01*
X117666512Y-79921011D01*
X120188684Y-79921011D01*
X120196925Y-79921281D01*
X120261550Y-79925517D01*
X120349462Y-79915112D01*
X120352675Y-79914775D01*
X120440768Y-79906680D01*
X120446328Y-79905112D01*
X120449901Y-79904450D01*
X120460904Y-79902261D01*
X120464517Y-79901493D01*
X120470254Y-79900814D01*
X120554765Y-79874573D01*
X120557862Y-79873657D01*
X120643038Y-79849634D01*
X120648226Y-79847076D01*
X120651677Y-79845751D01*
X120662055Y-79841610D01*
X120665442Y-79840207D01*
X120670962Y-79838493D01*
X120749235Y-79797312D01*
X120752171Y-79795816D01*
X120778990Y-79782590D01*
X120831526Y-79756682D01*
X120836157Y-79753224D01*
X120839360Y-79751261D01*
X120848747Y-79745338D01*
X120851840Y-79743329D01*
X120856952Y-79740640D01*
X120926445Y-79685855D01*
X120929015Y-79683884D01*
X120995290Y-79634395D01*
X120995297Y-79634388D01*
X120999918Y-79630938D01*
X121020660Y-79608500D01*
X121055750Y-79570539D01*
X121059180Y-79566973D01*
X122254702Y-78371452D01*
X122311185Y-78338841D01*
X122331024Y-78333525D01*
X122369243Y-78323284D01*
X122374229Y-78320959D01*
X122571762Y-78228849D01*
X122571767Y-78228846D01*
X122576749Y-78226523D01*
X122720756Y-78125688D01*
X122759789Y-78098357D01*
X122759792Y-78098355D01*
X122764300Y-78095198D01*
X122926198Y-77933300D01*
X122938845Y-77915239D01*
X123021477Y-77797228D01*
X123057523Y-77745749D01*
X123059846Y-77740767D01*
X123059849Y-77740762D01*
X123075805Y-77706543D01*
X123122722Y-77653258D01*
X123190999Y-77633797D01*
X123258959Y-77654339D01*
X123304190Y-77706533D01*
X123304690Y-77707605D01*
X123316500Y-77760865D01*
X123316500Y-79397505D01*
X123296498Y-79465626D01*
X123279595Y-79486600D01*
X121141696Y-81624499D01*
X121135678Y-81630136D01*
X121086981Y-81672842D01*
X121083410Y-81677372D01*
X121067845Y-81697116D01*
X121057990Y-81708205D01*
X120926111Y-81840084D01*
X120863799Y-81874110D01*
X120837016Y-81876989D01*
X117682306Y-81876989D01*
X117674065Y-81876719D01*
X117658144Y-81875676D01*
X117609450Y-81872484D01*
X117557997Y-81878574D01*
X117521603Y-81882881D01*
X117518324Y-81883225D01*
X117435988Y-81890791D01*
X117435987Y-81890791D01*
X117430232Y-81891320D01*
X117424673Y-81892888D01*
X117421099Y-81893550D01*
X117410096Y-81895739D01*
X117406483Y-81896507D01*
X117400746Y-81897186D01*
X117316235Y-81923427D01*
X117313138Y-81924343D01*
X117227962Y-81948366D01*
X117222774Y-81950924D01*
X117219323Y-81952249D01*
X117208945Y-81956390D01*
X117205558Y-81957793D01*
X117200038Y-81959507D01*
X117194924Y-81962198D01*
X117194923Y-81962198D01*
X117121766Y-82000687D01*
X117118830Y-82002184D01*
X117039474Y-82041318D01*
X117034843Y-82044776D01*
X117031640Y-82046739D01*
X117022253Y-82052662D01*
X117019160Y-82054671D01*
X117014048Y-82057360D01*
X116944555Y-82112145D01*
X116941985Y-82114116D01*
X116875710Y-82163605D01*
X116875703Y-82163612D01*
X116871082Y-82167062D01*
X116867168Y-82171296D01*
X116867166Y-82171298D01*
X116815249Y-82227462D01*
X116811819Y-82231028D01*
X115616300Y-83426547D01*
X115559816Y-83459159D01*
X115501757Y-83474716D01*
X115411335Y-83516880D01*
X115299238Y-83569151D01*
X115299233Y-83569154D01*
X115294251Y-83571477D01*
X115240956Y-83608795D01*
X115111211Y-83699643D01*
X115111208Y-83699645D01*
X115106700Y-83702802D01*
X114944802Y-83864700D01*
X114813477Y-84052251D01*
X114811153Y-84057236D01*
X114811149Y-84057242D01*
X114789328Y-84104039D01*
X114742412Y-84157324D01*
X114674135Y-84176786D01*
X114606175Y-84156245D01*
X114586038Y-84139885D01*
X110273405Y-79827252D01*
X110239379Y-79764940D01*
X110236500Y-79738157D01*
X110236500Y-79590603D01*
X110256502Y-79522482D01*
X110261674Y-79515038D01*
X110314118Y-79445062D01*
X110871493Y-79445062D01*
X110880789Y-79457077D01*
X110931994Y-79492931D01*
X110941489Y-79498414D01*
X111138947Y-79590490D01*
X111149239Y-79594236D01*
X111359688Y-79650625D01*
X111370481Y-79652528D01*
X111587525Y-79671517D01*
X111598475Y-79671517D01*
X111815519Y-79652528D01*
X111826312Y-79650625D01*
X112036761Y-79594236D01*
X112047053Y-79590490D01*
X112244511Y-79498414D01*
X112254006Y-79492931D01*
X112306048Y-79456491D01*
X112314424Y-79446012D01*
X112307356Y-79432566D01*
X111605812Y-78731022D01*
X111591868Y-78723408D01*
X111590035Y-78723539D01*
X111583420Y-78727790D01*
X110877923Y-79433287D01*
X110871493Y-79445062D01*
X110314118Y-79445062D01*
X110343615Y-79405705D01*
X110394745Y-79269316D01*
X110401500Y-79207134D01*
X110401500Y-79203815D01*
X110425153Y-79136890D01*
X110471156Y-79101196D01*
X110470141Y-79099266D01*
X110481000Y-79093558D01*
X110481245Y-79093368D01*
X110481403Y-79093347D01*
X110519434Y-79073356D01*
X111220978Y-78371812D01*
X111227356Y-78360132D01*
X111957408Y-78360132D01*
X111957539Y-78361965D01*
X111961790Y-78368580D01*
X112667287Y-79074077D01*
X112679062Y-79080507D01*
X112691077Y-79071211D01*
X112726931Y-79020006D01*
X112732414Y-79010511D01*
X112824490Y-78813053D01*
X112828236Y-78802761D01*
X112884625Y-78592312D01*
X112886528Y-78581519D01*
X112905517Y-78364475D01*
X112905517Y-78353525D01*
X112886528Y-78136481D01*
X112884625Y-78125688D01*
X112828236Y-77915239D01*
X112824490Y-77904947D01*
X112732414Y-77707489D01*
X112726931Y-77697994D01*
X112690491Y-77645952D01*
X112680012Y-77637576D01*
X112666566Y-77644644D01*
X111965022Y-78346188D01*
X111957408Y-78360132D01*
X111227356Y-78360132D01*
X111228592Y-78357868D01*
X111228461Y-78356035D01*
X111224210Y-78349420D01*
X110518713Y-77643923D01*
X110476971Y-77621129D01*
X110466971Y-77618953D01*
X110416773Y-77568747D01*
X110401549Y-77515186D01*
X110401500Y-77514281D01*
X110401500Y-77510866D01*
X110394745Y-77448684D01*
X110343615Y-77312295D01*
X110313407Y-77271988D01*
X110871576Y-77271988D01*
X110878644Y-77285434D01*
X111580188Y-77986978D01*
X111594132Y-77994592D01*
X111595965Y-77994461D01*
X111602580Y-77990210D01*
X112308077Y-77284713D01*
X112314507Y-77272938D01*
X112305211Y-77260923D01*
X112254006Y-77225069D01*
X112244511Y-77219586D01*
X112047053Y-77127510D01*
X112036761Y-77123764D01*
X111826312Y-77067375D01*
X111815519Y-77065472D01*
X111598475Y-77046483D01*
X111587525Y-77046483D01*
X111370481Y-77065472D01*
X111359688Y-77067375D01*
X111149239Y-77123764D01*
X111138947Y-77127510D01*
X110941489Y-77219586D01*
X110931994Y-77225069D01*
X110879952Y-77261509D01*
X110871576Y-77271988D01*
X110313407Y-77271988D01*
X110261674Y-77202961D01*
X110236826Y-77136456D01*
X110236500Y-77127397D01*
X110236500Y-73786500D01*
X110256502Y-73718379D01*
X110310158Y-73671886D01*
X110362500Y-73660500D01*
X117203157Y-73660500D01*
X117271278Y-73680502D01*
G37*
%TD.AperFunction*%
%TA.AperFunction,Conductor*%
G36*
X132124032Y-60707924D02*
G01*
X132169095Y-60736885D01*
X133154287Y-61722077D01*
X133166062Y-61728507D01*
X133185441Y-61713514D01*
X133233234Y-61675312D01*
X133303854Y-61668004D01*
X133367214Y-61700035D01*
X133403198Y-61761237D01*
X133406989Y-61791912D01*
X133406989Y-67730768D01*
X133406719Y-67739009D01*
X133402483Y-67803634D01*
X133412888Y-67891546D01*
X133413225Y-67894759D01*
X133421320Y-67982852D01*
X133422888Y-67988412D01*
X133423550Y-67991985D01*
X133425739Y-68002988D01*
X133426507Y-68006601D01*
X133427186Y-68012338D01*
X133453427Y-68096849D01*
X133454343Y-68099946D01*
X133478366Y-68185122D01*
X133480924Y-68190310D01*
X133482249Y-68193761D01*
X133486390Y-68204139D01*
X133487793Y-68207526D01*
X133489507Y-68213046D01*
X133492198Y-68218160D01*
X133492198Y-68218161D01*
X133530687Y-68291318D01*
X133532184Y-68294254D01*
X133571318Y-68373610D01*
X133574776Y-68378241D01*
X133576739Y-68381444D01*
X133582662Y-68390831D01*
X133584671Y-68393924D01*
X133587360Y-68399036D01*
X133642145Y-68468529D01*
X133644116Y-68471099D01*
X133693605Y-68537374D01*
X133693612Y-68537381D01*
X133697062Y-68542002D01*
X133701296Y-68545916D01*
X133701298Y-68545918D01*
X133757462Y-68597835D01*
X133761028Y-68601265D01*
X137970778Y-72811015D01*
X138004804Y-72873327D01*
X137999739Y-72944142D01*
X137957192Y-73000978D01*
X137934935Y-73014304D01*
X137900251Y-73030477D01*
X137866330Y-73054229D01*
X137717211Y-73158643D01*
X137717208Y-73158645D01*
X137712700Y-73161802D01*
X137550802Y-73323700D01*
X137419477Y-73511251D01*
X137417154Y-73516233D01*
X137417151Y-73516238D01*
X137330145Y-73702826D01*
X137322716Y-73718757D01*
X137321294Y-73724065D01*
X137321293Y-73724067D01*
X137271865Y-73908535D01*
X137263457Y-73939913D01*
X137243502Y-74168000D01*
X137263457Y-74396087D01*
X137264881Y-74401400D01*
X137264881Y-74401402D01*
X137286147Y-74480765D01*
X137322716Y-74617243D01*
X137325039Y-74622224D01*
X137325039Y-74622225D01*
X137401695Y-74786615D01*
X137413500Y-74839865D01*
X137413500Y-76417135D01*
X137401695Y-76470385D01*
X137325041Y-76634772D01*
X137322716Y-76639757D01*
X137263457Y-76860913D01*
X137243502Y-77089000D01*
X137263457Y-77317087D01*
X137264881Y-77322400D01*
X137264881Y-77322402D01*
X137300824Y-77456540D01*
X137322716Y-77538243D01*
X137325038Y-77543223D01*
X137325039Y-77543225D01*
X137417151Y-77740762D01*
X137417154Y-77740767D01*
X137419477Y-77745749D01*
X137455523Y-77797228D01*
X137538156Y-77915239D01*
X137550802Y-77933300D01*
X137712700Y-78095198D01*
X137717208Y-78098355D01*
X137717211Y-78098357D01*
X137756244Y-78125688D01*
X137900251Y-78226523D01*
X137905233Y-78228846D01*
X137905238Y-78228849D01*
X138102771Y-78320959D01*
X138107757Y-78323284D01*
X138113065Y-78324706D01*
X138113067Y-78324707D01*
X138323598Y-78381119D01*
X138323600Y-78381119D01*
X138328913Y-78382543D01*
X138557000Y-78402498D01*
X138785087Y-78382543D01*
X138790400Y-78381119D01*
X138790402Y-78381119D01*
X139000933Y-78324707D01*
X139000935Y-78324706D01*
X139006243Y-78323284D01*
X139011229Y-78320959D01*
X139208762Y-78228849D01*
X139208767Y-78228846D01*
X139213749Y-78226523D01*
X139357756Y-78125688D01*
X139396789Y-78098357D01*
X139396792Y-78098355D01*
X139401300Y-78095198D01*
X139563198Y-77933300D01*
X139575845Y-77915239D01*
X139658477Y-77797228D01*
X139694523Y-77745749D01*
X139696846Y-77740767D01*
X139696849Y-77740762D01*
X139712805Y-77706543D01*
X139759722Y-77653258D01*
X139827999Y-77633797D01*
X139895959Y-77654339D01*
X139941195Y-77706543D01*
X139957151Y-77740762D01*
X139957154Y-77740767D01*
X139959477Y-77745749D01*
X139995523Y-77797228D01*
X140078156Y-77915239D01*
X140090802Y-77933300D01*
X140252700Y-78095198D01*
X140257208Y-78098355D01*
X140257211Y-78098357D01*
X140296244Y-78125688D01*
X140440251Y-78226523D01*
X140445233Y-78228846D01*
X140445238Y-78228849D01*
X140642771Y-78320959D01*
X140647757Y-78323284D01*
X140653065Y-78324706D01*
X140653067Y-78324707D01*
X140863598Y-78381119D01*
X140863600Y-78381119D01*
X140868913Y-78382543D01*
X141097000Y-78402498D01*
X141325087Y-78382543D01*
X141330400Y-78381119D01*
X141330402Y-78381119D01*
X141540933Y-78324707D01*
X141540935Y-78324706D01*
X141546243Y-78323284D01*
X141715615Y-78244305D01*
X141768865Y-78232500D01*
X142965135Y-78232500D01*
X143018385Y-78244305D01*
X143187757Y-78323284D01*
X143193068Y-78324707D01*
X143193071Y-78324708D01*
X143245816Y-78338841D01*
X143302300Y-78371453D01*
X144848150Y-79917303D01*
X144853787Y-79923321D01*
X144896493Y-79972018D01*
X144965972Y-80026792D01*
X144968516Y-80028852D01*
X145032091Y-80081727D01*
X145032101Y-80081734D01*
X145036538Y-80085424D01*
X145041582Y-80088249D01*
X145044640Y-80090350D01*
X145053920Y-80096551D01*
X145057004Y-80098554D01*
X145061536Y-80102127D01*
X145066637Y-80104811D01*
X145066642Y-80104814D01*
X145139828Y-80143318D01*
X145142718Y-80144888D01*
X145219902Y-80188113D01*
X145225377Y-80189971D01*
X145228766Y-80191480D01*
X145239027Y-80195888D01*
X145242413Y-80197291D01*
X145247526Y-80199981D01*
X145253037Y-80201692D01*
X145253039Y-80201693D01*
X145332039Y-80226223D01*
X145335178Y-80227243D01*
X145418911Y-80255667D01*
X145424626Y-80256496D01*
X145428247Y-80257365D01*
X145439162Y-80259835D01*
X145442720Y-80260591D01*
X145448233Y-80262303D01*
X145536133Y-80272707D01*
X145539345Y-80273130D01*
X145598774Y-80281747D01*
X145621184Y-80284996D01*
X145621186Y-80284996D01*
X145626896Y-80285824D01*
X145709053Y-80282596D01*
X145714000Y-80282499D01*
X146452652Y-80282499D01*
X146520773Y-80302501D01*
X146567266Y-80356157D01*
X146577370Y-80426431D01*
X146547876Y-80491011D01*
X146488150Y-80529395D01*
X146479344Y-80531498D01*
X146475721Y-80531831D01*
X146470159Y-80533400D01*
X146466472Y-80534083D01*
X146455610Y-80536244D01*
X146451974Y-80537017D01*
X146446235Y-80537696D01*
X146361744Y-80563931D01*
X146358608Y-80564860D01*
X146297459Y-80582106D01*
X146273451Y-80588877D01*
X146268263Y-80591435D01*
X146264812Y-80592760D01*
X146254434Y-80596901D01*
X146251047Y-80598304D01*
X146245527Y-80600018D01*
X146240413Y-80602709D01*
X146240412Y-80602709D01*
X146167255Y-80641198D01*
X146164319Y-80642695D01*
X146084963Y-80681829D01*
X146080332Y-80685287D01*
X146077129Y-80687250D01*
X146067742Y-80693173D01*
X146064649Y-80695182D01*
X146059537Y-80697871D01*
X145990044Y-80752656D01*
X145987474Y-80754627D01*
X145921199Y-80804116D01*
X145921192Y-80804123D01*
X145916571Y-80807573D01*
X145912657Y-80811807D01*
X145912655Y-80811809D01*
X145860738Y-80867973D01*
X145857308Y-80871539D01*
X143302300Y-83426547D01*
X143245816Y-83459159D01*
X143187757Y-83474716D01*
X143097335Y-83516880D01*
X142985238Y-83569151D01*
X142985233Y-83569154D01*
X142980251Y-83571477D01*
X142926956Y-83608795D01*
X142797211Y-83699643D01*
X142797208Y-83699645D01*
X142792700Y-83702802D01*
X142630802Y-83864700D01*
X142499477Y-84052251D01*
X142497154Y-84057233D01*
X142497151Y-84057238D01*
X142481195Y-84091457D01*
X142434278Y-84144742D01*
X142366001Y-84164203D01*
X142298041Y-84143661D01*
X142252810Y-84091467D01*
X142252310Y-84090395D01*
X142240500Y-84037135D01*
X142240500Y-83608795D01*
X142240770Y-83600554D01*
X142244627Y-83541705D01*
X142245005Y-83535939D01*
X142234608Y-83448092D01*
X142234264Y-83444813D01*
X142226698Y-83362477D01*
X142226698Y-83362476D01*
X142226169Y-83356721D01*
X142224601Y-83351162D01*
X142223939Y-83347588D01*
X142221750Y-83336585D01*
X142220982Y-83332972D01*
X142220303Y-83327235D01*
X142194062Y-83242724D01*
X142193139Y-83239605D01*
X142188437Y-83222931D01*
X142169123Y-83154451D01*
X142166565Y-83149263D01*
X142165240Y-83145812D01*
X142161099Y-83135434D01*
X142159696Y-83132047D01*
X142157982Y-83126527D01*
X142116801Y-83048254D01*
X142115305Y-83045318D01*
X142087626Y-82989191D01*
X142076171Y-82965963D01*
X142072713Y-82961332D01*
X142070750Y-82958129D01*
X142064827Y-82948742D01*
X142062818Y-82945649D01*
X142060129Y-82940537D01*
X142005344Y-82871044D01*
X142003373Y-82868474D01*
X141953884Y-82802199D01*
X141953877Y-82802192D01*
X141950427Y-82797571D01*
X141890026Y-82741737D01*
X141886461Y-82738308D01*
X141390338Y-82242185D01*
X141384701Y-82236167D01*
X141345805Y-82191815D01*
X141341995Y-82187470D01*
X141272507Y-82132691D01*
X141269942Y-82130613D01*
X141206389Y-82077755D01*
X141206384Y-82077751D01*
X141201949Y-82074063D01*
X141196915Y-82071244D01*
X141193905Y-82069175D01*
X141184635Y-82062981D01*
X141181490Y-82060938D01*
X141176952Y-82057361D01*
X141171844Y-82054673D01*
X141171840Y-82054671D01*
X141098673Y-82016177D01*
X141095773Y-82014602D01*
X141023628Y-81974198D01*
X141023626Y-81974197D01*
X141018585Y-81971374D01*
X141013113Y-81969517D01*
X141009713Y-81968003D01*
X140999502Y-81963616D01*
X140996068Y-81962194D01*
X140990962Y-81959507D01*
X140985448Y-81957795D01*
X140985446Y-81957794D01*
X140906490Y-81933277D01*
X140903354Y-81932258D01*
X140850209Y-81914218D01*
X140819577Y-81903820D01*
X140813864Y-81902991D01*
X140810351Y-81902148D01*
X140799338Y-81899656D01*
X140795771Y-81898898D01*
X140790255Y-81897185D01*
X140784527Y-81896507D01*
X140784522Y-81896506D01*
X140732122Y-81890305D01*
X140702371Y-81886783D01*
X140699149Y-81886359D01*
X140611592Y-81873664D01*
X140529435Y-81876892D01*
X140524488Y-81876989D01*
X126191306Y-81876989D01*
X126183065Y-81876719D01*
X126167144Y-81875676D01*
X126118450Y-81872484D01*
X126066997Y-81878574D01*
X126030603Y-81882881D01*
X126027324Y-81883225D01*
X125944988Y-81890791D01*
X125944987Y-81890791D01*
X125939232Y-81891320D01*
X125933673Y-81892888D01*
X125930099Y-81893550D01*
X125919096Y-81895739D01*
X125915483Y-81896507D01*
X125909746Y-81897186D01*
X125825235Y-81923427D01*
X125822138Y-81924343D01*
X125736962Y-81948366D01*
X125731774Y-81950924D01*
X125728323Y-81952249D01*
X125717945Y-81956390D01*
X125714558Y-81957793D01*
X125709038Y-81959507D01*
X125703924Y-81962198D01*
X125703923Y-81962198D01*
X125630766Y-82000687D01*
X125627830Y-82002184D01*
X125548474Y-82041318D01*
X125543843Y-82044776D01*
X125540640Y-82046739D01*
X125531253Y-82052662D01*
X125528160Y-82054671D01*
X125523048Y-82057360D01*
X125453555Y-82112145D01*
X125450985Y-82114116D01*
X125384710Y-82163605D01*
X125384703Y-82163612D01*
X125380082Y-82167062D01*
X125376168Y-82171296D01*
X125376166Y-82171298D01*
X125324249Y-82227462D01*
X125320819Y-82231028D01*
X124125300Y-83426547D01*
X124068816Y-83459159D01*
X124010757Y-83474716D01*
X123920335Y-83516880D01*
X123808238Y-83569151D01*
X123808233Y-83569154D01*
X123803251Y-83571477D01*
X123749956Y-83608795D01*
X123620211Y-83699643D01*
X123620208Y-83699645D01*
X123615700Y-83702802D01*
X123453802Y-83864700D01*
X123322477Y-84052251D01*
X123320154Y-84057233D01*
X123320151Y-84057238D01*
X123304195Y-84091457D01*
X123257278Y-84144742D01*
X123189001Y-84164203D01*
X123121041Y-84143661D01*
X123075810Y-84091467D01*
X123075310Y-84090395D01*
X123063500Y-84037135D01*
X123063500Y-83620425D01*
X123063770Y-83612184D01*
X123067627Y-83553335D01*
X123068005Y-83547569D01*
X123064373Y-83516880D01*
X123063500Y-83502071D01*
X123063500Y-82989191D01*
X123083502Y-82921070D01*
X123100405Y-82900096D01*
X124896748Y-81103753D01*
X124959060Y-81069727D01*
X124985843Y-81066848D01*
X129309847Y-81066848D01*
X129318088Y-81067118D01*
X129382713Y-81071354D01*
X129470625Y-81060949D01*
X129473838Y-81060612D01*
X129561931Y-81052517D01*
X129567491Y-81050949D01*
X129571064Y-81050287D01*
X129582067Y-81048098D01*
X129585680Y-81047330D01*
X129591417Y-81046651D01*
X129675928Y-81020410D01*
X129679025Y-81019494D01*
X129764201Y-80995471D01*
X129769389Y-80992913D01*
X129772840Y-80991588D01*
X129783218Y-80987447D01*
X129786605Y-80986044D01*
X129792125Y-80984330D01*
X129870398Y-80943149D01*
X129873334Y-80941653D01*
X129952689Y-80902519D01*
X129957320Y-80899061D01*
X129960523Y-80897098D01*
X129969910Y-80891175D01*
X129973003Y-80889166D01*
X129978115Y-80886477D01*
X130047608Y-80831692D01*
X130050178Y-80829721D01*
X130116453Y-80780232D01*
X130116460Y-80780225D01*
X130121081Y-80776775D01*
X130141555Y-80754627D01*
X130176914Y-80716375D01*
X130180344Y-80712809D01*
X131271700Y-79621453D01*
X131328184Y-79588841D01*
X131380929Y-79574708D01*
X131380930Y-79574708D01*
X131386243Y-79573284D01*
X131511153Y-79515038D01*
X131588762Y-79478849D01*
X131588767Y-79478846D01*
X131593749Y-79476523D01*
X131706895Y-79397297D01*
X131776789Y-79348357D01*
X131776792Y-79348355D01*
X131781300Y-79345198D01*
X131943198Y-79183300D01*
X132074523Y-78995749D01*
X132076846Y-78990767D01*
X132076849Y-78990762D01*
X132168961Y-78793225D01*
X132168961Y-78793224D01*
X132171284Y-78788243D01*
X132173534Y-78779848D01*
X132229119Y-78572402D01*
X132229119Y-78572400D01*
X132230543Y-78567087D01*
X132250498Y-78339000D01*
X132230543Y-78110913D01*
X132171284Y-77889757D01*
X132114158Y-77767248D01*
X132103497Y-77697058D01*
X132114157Y-77660754D01*
X132171284Y-77538243D01*
X132230543Y-77317087D01*
X132250498Y-77089000D01*
X132230543Y-76860913D01*
X132171284Y-76639757D01*
X132168961Y-76634775D01*
X132076849Y-76437238D01*
X132076846Y-76437233D01*
X132074523Y-76432251D01*
X131943198Y-76244700D01*
X131781300Y-76082802D01*
X131776792Y-76079645D01*
X131776789Y-76079643D01*
X131632079Y-75978316D01*
X131593749Y-75951477D01*
X131588765Y-75949153D01*
X131586472Y-75947829D01*
X131537479Y-75896447D01*
X131524043Y-75826733D01*
X131550429Y-75760822D01*
X131586472Y-75729591D01*
X131598002Y-75722934D01*
X131650048Y-75686491D01*
X131658424Y-75676012D01*
X131651356Y-75662566D01*
X130949812Y-74961022D01*
X130935868Y-74953408D01*
X130934035Y-74953539D01*
X130927420Y-74957790D01*
X130221923Y-75663287D01*
X130215493Y-75675062D01*
X130224789Y-75687077D01*
X130275998Y-75722934D01*
X130287528Y-75729591D01*
X130336521Y-75780973D01*
X130349958Y-75850687D01*
X130323571Y-75916598D01*
X130287528Y-75947829D01*
X130285235Y-75949153D01*
X130280251Y-75951477D01*
X130241921Y-75978316D01*
X130097211Y-76079643D01*
X130097208Y-76079645D01*
X130092700Y-76082802D01*
X129930802Y-76244700D01*
X129799477Y-76432251D01*
X129797154Y-76437233D01*
X129797151Y-76437238D01*
X129705039Y-76634775D01*
X129702716Y-76639757D01*
X129643457Y-76860913D01*
X129623502Y-77089000D01*
X129643457Y-77317087D01*
X129702716Y-77538243D01*
X129759842Y-77660752D01*
X129770503Y-77730942D01*
X129759843Y-77767246D01*
X129702716Y-77889757D01*
X129690004Y-77937197D01*
X129687159Y-77947815D01*
X129654549Y-78004297D01*
X128915904Y-78742943D01*
X128853591Y-78776968D01*
X128826808Y-78779848D01*
X125729500Y-78779848D01*
X125661379Y-78759846D01*
X125614886Y-78706190D01*
X125603500Y-78653848D01*
X125603500Y-77760865D01*
X125615310Y-77707605D01*
X125615810Y-77706533D01*
X125662732Y-77653252D01*
X125731011Y-77633797D01*
X125798969Y-77654345D01*
X125844195Y-77706543D01*
X125860151Y-77740762D01*
X125860154Y-77740767D01*
X125862477Y-77745749D01*
X125898523Y-77797228D01*
X125981156Y-77915239D01*
X125993802Y-77933300D01*
X126155700Y-78095198D01*
X126160208Y-78098355D01*
X126160211Y-78098357D01*
X126199244Y-78125688D01*
X126343251Y-78226523D01*
X126348233Y-78228846D01*
X126348238Y-78228849D01*
X126545771Y-78320959D01*
X126550757Y-78323284D01*
X126556065Y-78324706D01*
X126556067Y-78324707D01*
X126766598Y-78381119D01*
X126766600Y-78381119D01*
X126771913Y-78382543D01*
X127000000Y-78402498D01*
X127228087Y-78382543D01*
X127233400Y-78381119D01*
X127233402Y-78381119D01*
X127443933Y-78324707D01*
X127443935Y-78324706D01*
X127449243Y-78323284D01*
X127454229Y-78320959D01*
X127651762Y-78228849D01*
X127651767Y-78228846D01*
X127656749Y-78226523D01*
X127800756Y-78125688D01*
X127839789Y-78098357D01*
X127839792Y-78098355D01*
X127844300Y-78095198D01*
X128006198Y-77933300D01*
X128018845Y-77915239D01*
X128101477Y-77797228D01*
X128137523Y-77745749D01*
X128139846Y-77740767D01*
X128139849Y-77740762D01*
X128231962Y-77543223D01*
X128231963Y-77543221D01*
X128234284Y-77538243D01*
X128249841Y-77480185D01*
X128282452Y-77423702D01*
X129466823Y-76239331D01*
X129472841Y-76233694D01*
X129517191Y-76194800D01*
X129521530Y-76190995D01*
X129576288Y-76121535D01*
X129578364Y-76118972D01*
X129631243Y-76055392D01*
X129631245Y-76055389D01*
X129634937Y-76050950D01*
X129637758Y-76045912D01*
X129639811Y-76042925D01*
X129646044Y-76033597D01*
X129648064Y-76030486D01*
X129651639Y-76025952D01*
X129654326Y-76020845D01*
X129654333Y-76020834D01*
X129692823Y-75947676D01*
X129694396Y-75944777D01*
X129702294Y-75930673D01*
X129737625Y-75867585D01*
X129739478Y-75862125D01*
X129740948Y-75858825D01*
X129745411Y-75848436D01*
X129746804Y-75845073D01*
X129749493Y-75839962D01*
X129758964Y-75809463D01*
X129775727Y-75755476D01*
X129776726Y-75752400D01*
X129805180Y-75668577D01*
X129806009Y-75662863D01*
X129806852Y-75659351D01*
X129809344Y-75648338D01*
X129810102Y-75644771D01*
X129811815Y-75639255D01*
X129814010Y-75620714D01*
X129822214Y-75551391D01*
X129822645Y-75548120D01*
X129835336Y-75460592D01*
X129832618Y-75391405D01*
X129849931Y-75322552D01*
X129869426Y-75297364D01*
X130847905Y-74318885D01*
X130910217Y-74284859D01*
X130981032Y-74289924D01*
X131026095Y-74318885D01*
X132011287Y-75304077D01*
X132023062Y-75310507D01*
X132035077Y-75301211D01*
X132070931Y-75250006D01*
X132076414Y-75240511D01*
X132168490Y-75043053D01*
X132172236Y-75032761D01*
X132228625Y-74822312D01*
X132230528Y-74811519D01*
X132249517Y-74594475D01*
X132249517Y-74583525D01*
X132230528Y-74366481D01*
X132228625Y-74355688D01*
X132172236Y-74145239D01*
X132168490Y-74134947D01*
X132113607Y-74017250D01*
X132102946Y-73947058D01*
X132113607Y-73910750D01*
X132168490Y-73793053D01*
X132172236Y-73782761D01*
X132228625Y-73572312D01*
X132230528Y-73561519D01*
X132249517Y-73344475D01*
X132249517Y-73333525D01*
X132230528Y-73116481D01*
X132228625Y-73105688D01*
X132172236Y-72895239D01*
X132168490Y-72884947D01*
X132076414Y-72687489D01*
X132070931Y-72677994D01*
X132034491Y-72625952D01*
X132024012Y-72617576D01*
X132010566Y-72624644D01*
X131026095Y-73609115D01*
X130963783Y-73643141D01*
X130892968Y-73638076D01*
X130847905Y-73609115D01*
X129868916Y-72630126D01*
X129834890Y-72567814D01*
X129832011Y-72541031D01*
X129832011Y-72251988D01*
X130215576Y-72251988D01*
X130222644Y-72265434D01*
X130924188Y-72966978D01*
X130938132Y-72974592D01*
X130939965Y-72974461D01*
X130946580Y-72970210D01*
X131652077Y-72264713D01*
X131658507Y-72252938D01*
X131649211Y-72240923D01*
X131598006Y-72205069D01*
X131588511Y-72199586D01*
X131391053Y-72107510D01*
X131380761Y-72103764D01*
X131170312Y-72047375D01*
X131159519Y-72045472D01*
X130942475Y-72026483D01*
X130931525Y-72026483D01*
X130714481Y-72045472D01*
X130703688Y-72047375D01*
X130493239Y-72103764D01*
X130482947Y-72107510D01*
X130285489Y-72199586D01*
X130275994Y-72205069D01*
X130223952Y-72241509D01*
X130215576Y-72251988D01*
X129832011Y-72251988D01*
X129832011Y-65855903D01*
X129852013Y-65787782D01*
X129868916Y-65766808D01*
X130445304Y-65190420D01*
X130451322Y-65184783D01*
X130495680Y-65145882D01*
X130500019Y-65142077D01*
X130554793Y-65072598D01*
X130556853Y-65070054D01*
X130609728Y-65006479D01*
X130609735Y-65006469D01*
X130613425Y-65002032D01*
X130616250Y-64996988D01*
X130618351Y-64993930D01*
X130624552Y-64984650D01*
X130626555Y-64981566D01*
X130630128Y-64977034D01*
X130632812Y-64971933D01*
X130632815Y-64971928D01*
X130671319Y-64898742D01*
X130672894Y-64895842D01*
X130713290Y-64823711D01*
X130713291Y-64823709D01*
X130716114Y-64818668D01*
X130717972Y-64813193D01*
X130719481Y-64809804D01*
X130723889Y-64799545D01*
X130725294Y-64796153D01*
X130727982Y-64791044D01*
X130754214Y-64706565D01*
X130755230Y-64703435D01*
X130781810Y-64625134D01*
X130781810Y-64625132D01*
X130783668Y-64619660D01*
X130784498Y-64613936D01*
X130785365Y-64610324D01*
X130787830Y-64599433D01*
X130788591Y-64595855D01*
X130790304Y-64590337D01*
X130800703Y-64502470D01*
X130801134Y-64499197D01*
X130812997Y-64417387D01*
X130812997Y-64417383D01*
X130813825Y-64411674D01*
X130810597Y-64329517D01*
X130810500Y-64324570D01*
X130810500Y-62093062D01*
X131358493Y-62093062D01*
X131367789Y-62105077D01*
X131418994Y-62140931D01*
X131428489Y-62146414D01*
X131625947Y-62238490D01*
X131636239Y-62242236D01*
X131846688Y-62298625D01*
X131857481Y-62300528D01*
X132074525Y-62319517D01*
X132085475Y-62319517D01*
X132302519Y-62300528D01*
X132313312Y-62298625D01*
X132523761Y-62242236D01*
X132534053Y-62238490D01*
X132731511Y-62146414D01*
X132741006Y-62140931D01*
X132793048Y-62104491D01*
X132801424Y-62094012D01*
X132794356Y-62080566D01*
X132092812Y-61379022D01*
X132078868Y-61371408D01*
X132077035Y-61371539D01*
X132070420Y-61375790D01*
X131364923Y-62081287D01*
X131358493Y-62093062D01*
X130810500Y-62093062D01*
X130810500Y-61844577D01*
X130830502Y-61776456D01*
X130884158Y-61729963D01*
X130954432Y-61719859D01*
X130972392Y-61727634D01*
X130990854Y-61729545D01*
X131006434Y-61721356D01*
X131990905Y-60736885D01*
X132053217Y-60702859D01*
X132124032Y-60707924D01*
G37*
%TD.AperFunction*%
%TA.AperFunction,Conductor*%
G36*
X133593038Y-57368667D02*
G01*
X133626070Y-57431512D01*
X133628540Y-57456338D01*
X133628540Y-59543246D01*
X133606545Y-59614067D01*
X133604063Y-59617051D01*
X133603594Y-59617889D01*
X133549733Y-59661705D01*
X133479179Y-59669621D01*
X133415545Y-59638136D01*
X133379035Y-59577247D01*
X133375455Y-59556503D01*
X133373528Y-59534480D01*
X133371625Y-59523688D01*
X133315236Y-59313239D01*
X133311490Y-59302947D01*
X133219414Y-59105489D01*
X133213931Y-59095994D01*
X133177491Y-59043952D01*
X133167012Y-59035576D01*
X133153566Y-59042644D01*
X132169095Y-60027115D01*
X132106783Y-60061141D01*
X132035968Y-60056076D01*
X131990905Y-60027115D01*
X131005713Y-59041923D01*
X130991769Y-59034309D01*
X130974601Y-59035536D01*
X130947480Y-59046145D01*
X130877875Y-59032155D01*
X130826884Y-58982755D01*
X130810500Y-58920624D01*
X130810500Y-58124887D01*
X130830502Y-58056766D01*
X130884158Y-58010273D01*
X130954432Y-58000169D01*
X131019012Y-58029663D01*
X131039713Y-58052616D01*
X131069013Y-58094460D01*
X131073802Y-58101300D01*
X131235700Y-58263198D01*
X131240208Y-58266355D01*
X131240211Y-58266357D01*
X131263764Y-58282849D01*
X131423251Y-58394523D01*
X131428235Y-58396847D01*
X131430528Y-58398171D01*
X131479521Y-58449553D01*
X131492957Y-58519267D01*
X131466571Y-58585178D01*
X131430528Y-58616409D01*
X131418998Y-58623066D01*
X131366952Y-58659509D01*
X131358576Y-58669988D01*
X131365644Y-58683434D01*
X132067188Y-59384978D01*
X132081132Y-59392592D01*
X132082965Y-59392461D01*
X132089580Y-59388210D01*
X132795077Y-58682713D01*
X132801507Y-58670938D01*
X132792211Y-58658923D01*
X132741002Y-58623066D01*
X132729472Y-58616409D01*
X132680479Y-58565027D01*
X132667042Y-58495313D01*
X132693429Y-58429402D01*
X132729472Y-58398171D01*
X132731765Y-58396847D01*
X132736749Y-58394523D01*
X132896236Y-58282849D01*
X132919789Y-58266357D01*
X132919792Y-58266355D01*
X132924300Y-58263198D01*
X133086198Y-58101300D01*
X133090988Y-58094460D01*
X133214366Y-57918257D01*
X133217523Y-57913749D01*
X133219846Y-57908767D01*
X133219849Y-57908762D01*
X133311961Y-57711225D01*
X133311961Y-57711224D01*
X133314284Y-57706243D01*
X133344995Y-57591631D01*
X133372119Y-57490402D01*
X133372119Y-57490400D01*
X133373543Y-57485087D01*
X133377019Y-57445356D01*
X133402882Y-57379238D01*
X133460386Y-57337599D01*
X133531273Y-57333658D01*
X133593038Y-57368667D01*
G37*
%TD.AperFunction*%
%TA.AperFunction,Conductor*%
G36*
X131006121Y-50188002D02*
G01*
X131052614Y-50241658D01*
X131064000Y-50294000D01*
X131064000Y-52061885D01*
X131068475Y-52077124D01*
X131069865Y-52078329D01*
X131077548Y-52080000D01*
X131272675Y-52080000D01*
X131277601Y-52079807D01*
X131465236Y-52065039D01*
X131474983Y-52063496D01*
X131719123Y-52004883D01*
X131728508Y-52001834D01*
X131930802Y-51918041D01*
X132001392Y-51910452D01*
X132064879Y-51942231D01*
X132101106Y-52003289D01*
X132105020Y-52034450D01*
X132105020Y-54312637D01*
X132085018Y-54380758D01*
X132068115Y-54401732D01*
X131745300Y-54724547D01*
X131688816Y-54757159D01*
X131630757Y-54772716D01*
X131544341Y-54813012D01*
X131428238Y-54867151D01*
X131428233Y-54867154D01*
X131423251Y-54869477D01*
X131348999Y-54921469D01*
X131240211Y-54997643D01*
X131240208Y-54997645D01*
X131235700Y-55000802D01*
X131073802Y-55162700D01*
X131070645Y-55167208D01*
X131070643Y-55167211D01*
X131039713Y-55211384D01*
X130984256Y-55255712D01*
X130913636Y-55263021D01*
X130850276Y-55230990D01*
X130814291Y-55169789D01*
X130810500Y-55139113D01*
X130810500Y-52604707D01*
X130810770Y-52596466D01*
X130814628Y-52537607D01*
X130815006Y-52531841D01*
X130805053Y-52447746D01*
X130804601Y-52443929D01*
X130804257Y-52440648D01*
X130796717Y-52358583D01*
X130796169Y-52352623D01*
X130794599Y-52347057D01*
X130793914Y-52343361D01*
X130791756Y-52332512D01*
X130790983Y-52328876D01*
X130790304Y-52323137D01*
X130764069Y-52238646D01*
X130763140Y-52235510D01*
X130740693Y-52155920D01*
X130739123Y-52150353D01*
X130736565Y-52145165D01*
X130735240Y-52141714D01*
X130731099Y-52131336D01*
X130729696Y-52127949D01*
X130727982Y-52122429D01*
X130711260Y-52090644D01*
X130686802Y-52044157D01*
X130685305Y-52041220D01*
X130666599Y-52003289D01*
X130646171Y-51961865D01*
X130642713Y-51957234D01*
X130640750Y-51954031D01*
X130634827Y-51944644D01*
X130632818Y-51941551D01*
X130630129Y-51936439D01*
X130583050Y-51876720D01*
X130556585Y-51810843D01*
X130556000Y-51798716D01*
X130556000Y-50294000D01*
X130576002Y-50225879D01*
X130629658Y-50179386D01*
X130682000Y-50168000D01*
X130938000Y-50168000D01*
X131006121Y-50188002D01*
G37*
%TD.AperFunction*%
%TD*%
M02*
