M48
; DRILL file {KiCad (6.0.0-0)} date Saturday, 14 May 2022 at 22:50:17
; FORMAT={-:-/ absolute / metric / decimal}
; #@! TF.CreationDate,2022-05-14T22:50:17+01:00
; #@! TF.GenerationSoftware,Kicad,Pcbnew,(6.0.0-0)
; #@! TF.FileFunction,MixedPlating,1,2
FMAT,2
METRIC
; #@! TA.AperFunction,Plated,PTH,ViaDrill
T1C0.381
; #@! TA.AperFunction,Plated,PTH,ComponentDrill
T2C0.600
; #@! TA.AperFunction,Plated,PTH,ComponentDrill
T3C0.800
; #@! TA.AperFunction,Plated,PTH,ComponentDrill
T4C0.900
; #@! TA.AperFunction,Plated,PTH,ComponentDrill
T5C1.000
; #@! TA.AperFunction,Plated,PTH,ComponentDrill
T6C1.800
%
G90
G05
T1
X124.46Y-74.168
X127.0Y-59.944
X142.748Y-74.168
X146.304Y-59.944
T3
X102.108Y-72.644
X103.632Y-77.216
X103.632Y-82.216
X109.728Y-61.976
X109.728Y-69.596
X109.728Y-72.644
X109.728Y-77.216
X109.728Y-79.716
X116.332Y-77.216
X116.332Y-84.836
X119.888Y-74.168
X119.888Y-77.216
X119.888Y-84.836
X122.428Y-77.216
X122.428Y-84.836
X124.968Y-77.216
X124.968Y-84.836
X127.508Y-74.168
X127.508Y-77.216
X127.508Y-84.836
X132.08Y-77.216
X132.08Y-82.216
X133.096Y-56.388
X133.096Y-61.388
X138.176Y-74.168
X138.176Y-77.216
X138.176Y-84.836
X140.716Y-77.216
X140.716Y-84.836
X143.256Y-77.216
X143.256Y-84.836
X145.796Y-74.168
X145.796Y-77.216
X145.796Y-84.836
X150.368Y-77.216
X150.368Y-82.216
X152.4Y-56.388
X152.4Y-61.388
X157.988Y-74.208
X157.988Y-76.708
T4
X102.108Y-65.532
X102.108Y-68.072
T5
X103.124Y-40.132
X103.124Y-42.672
X105.664Y-40.132
X105.664Y-42.672
X108.204Y-40.132
X108.204Y-42.672
X110.744Y-40.132
X110.744Y-42.672
X113.284Y-40.132
X113.284Y-42.672
X120.944Y-56.0
X123.444Y-56.0
X125.944Y-56.0
X140.248Y-56.0
X142.748Y-56.0
X145.248Y-56.0
X159.552Y-56.0
X162.052Y-56.0
X164.552Y-56.0
T6
X118.644Y-63.5
X128.244Y-63.5
X137.948Y-63.5
X147.548Y-63.5
X157.252Y-63.5
X166.852Y-63.5
T2
G00X123.944Y-38.348
M15
G01X122.944Y-38.348
M16
G05
G00X123.944Y-41.448
M15
G01X122.944Y-41.448
M16
G05
G00X123.944Y-49.748
M15
G01X122.944Y-49.748
M16
G05
G00X142.74Y-38.348
M15
G01X141.74Y-38.348
M16
G05
G00X142.74Y-41.448
M15
G01X141.74Y-41.448
M16
G05
G00X142.74Y-49.748
M15
G01X141.74Y-49.748
M16
G05
G00X162.552Y-38.348
M15
G01X161.552Y-38.348
M16
G05
G00X162.552Y-41.448
M15
G01X161.552Y-41.448
M16
G05
G00X162.552Y-49.748
M15
G01X161.552Y-49.748
M16
G05
T5
G00X103.428Y-52.506
M15
G01X103.428Y-54.706
M16
G05
G00X107.928Y-58.406
M15
G01X105.728Y-58.406
M16
G05
G00X109.728Y-52.306
M15
G01X109.728Y-54.906
M16
G05
T0
M30
