M48
; DRILL file {KiCad (6.0.0-0)} date Monday, 11 April 2022 at 21:27:55
; FORMAT={-:-/ absolute / metric / decimal}
; #@! TF.CreationDate,2022-04-11T21:27:55+01:00
; #@! TF.GenerationSoftware,Kicad,Pcbnew,(6.0.0-0)
; #@! TF.FileFunction,MixedPlating,1,2
FMAT,2
METRIC
; #@! TA.AperFunction,Plated,PTH,ComponentDrill
T1C0.600
; #@! TA.AperFunction,Plated,PTH,ComponentDrill
T2C0.800
; #@! TA.AperFunction,Plated,PTH,ComponentDrill
T3C0.900
; #@! TA.AperFunction,Plated,PTH,ComponentDrill
T4C1.000
; #@! TA.AperFunction,Plated,PTH,ComponentDrill
T5C1.600
; #@! TA.AperFunction,Plated,PTH,ComponentDrill
T6C1.800
%
G90
G05
T2
X101.473Y-72.517
X102.997Y-77.089
X102.997Y-78.339
X102.997Y-80.839
X102.997Y-82.089
X109.093Y-61.849
X109.093Y-69.469
X109.093Y-72.517
X109.093Y-78.359
X111.593Y-78.359
X115.951Y-77.089
X115.951Y-84.709
X119.38Y-74.168
X119.38Y-77.089
X119.38Y-84.709
X121.92Y-77.089
X121.92Y-84.709
X124.46Y-77.089
X124.46Y-84.709
X127.0Y-74.168
X127.0Y-77.089
X127.0Y-84.709
X130.937Y-73.339
X130.937Y-74.589
X130.937Y-77.089
X130.937Y-78.339
X132.08Y-56.007
X132.08Y-57.257
X132.08Y-59.757
X132.08Y-61.007
X138.557Y-74.168
X138.557Y-77.089
X138.557Y-84.709
X141.097Y-77.089
X141.097Y-84.709
X143.637Y-77.089
X143.637Y-84.709
X146.177Y-74.168
X146.177Y-77.089
X146.177Y-84.709
X150.114Y-73.339
X150.114Y-74.589
X150.114Y-77.089
X150.114Y-78.339
X151.638Y-56.007
X151.638Y-57.257
X151.638Y-59.757
X151.638Y-61.007
X158.369Y-73.231
X158.369Y-75.731
T3
X101.473Y-65.786
X101.473Y-68.326
T4
X100.203Y-41.021
X100.203Y-43.561
X102.743Y-41.021
X102.743Y-43.561
X105.283Y-41.021
X105.283Y-43.561
X107.823Y-41.021
X107.823Y-43.561
X110.363Y-41.021
X110.363Y-43.561
X119.801Y-55.87
X122.301Y-55.87
X124.801Y-55.87
X139.359Y-55.873
X141.859Y-55.873
X144.359Y-55.873
X158.917Y-55.873
X161.417Y-55.873
X163.917Y-55.873
T5
X103.832Y-53.606
X106.832Y-58.306
X109.832Y-53.606
T6
X117.501Y-63.37
X127.101Y-63.37
X137.059Y-63.373
X146.659Y-63.373
X156.617Y-63.373
X166.217Y-63.373
T1
G00X119.261Y-39.022
M15
G01X120.261Y-39.022
M16
G05
G00X119.261Y-47.322
M15
G01X120.261Y-47.322
M16
G05
G00X119.261Y-50.422
M15
G01X120.261Y-50.422
M16
G05
G00X130.31Y-39.022
M15
G01X131.31Y-39.022
M16
G05
G00X130.31Y-47.322
M15
G01X131.31Y-47.322
M16
G05
G00X130.31Y-50.422
M15
G01X131.31Y-50.422
M16
G05
G00X141.359Y-39.022
M15
G01X142.359Y-39.022
M16
G05
G00X141.359Y-47.322
M15
G01X142.359Y-47.322
M16
G05
G00X141.359Y-50.422
M15
G01X142.359Y-50.422
M16
G05
G00X152.408Y-39.022
M15
G01X153.408Y-39.022
M16
G05
G00X152.408Y-47.322
M15
G01X153.408Y-47.322
M16
G05
G00X152.408Y-50.422
M15
G01X153.408Y-50.422
M16
G05
G00X163.457Y-39.022
M15
G01X164.457Y-39.022
M16
G05
G00X163.457Y-47.322
M15
G01X164.457Y-47.322
M16
G05
G00X163.457Y-50.422
M15
G01X164.457Y-50.422
M16
G05
T0
M30
